<?xml version="1.0" encoding="UTF-8"?>
<svg width="16px" height="16px" viewBox="0 0 16 16" version="1.1" xmlns="http://www.w3.org/2000/svg" xmlns:xlink="http://www.w3.org/1999/xlink">
    <title>人员</title>
    <g id="平台icon231127" stroke="none" stroke-width="1" fill="none" fill-rule="evenodd">
        <g id="平台icon231128" transform="translate(-184, -280)">
            <g id="人员" transform="translate(184, 280)">
                <rect id="_mockplus_fix_" x="0" y="0" width="16" height="16"></rect>
                <path d="M10.3920941,5.34221176 C10.3920941,5.10785882 10.3742118,4.87764706 10.3399529,4.65308235 C10.4632471,4.76075294 10.6140235,4.83830588 10.7832471,4.87256471 C11.5482353,5.02729412 12.1033412,5.68931765 12.1033412,6.44677647 C12.1033412,7.07755294 11.6978824,7.66974118 11.0942118,7.92047059 L11.0599529,7.93496471 C10.7322353,8.01778824 10.3881412,8.17628235 10.2672941,8.68338824 C10.2529882,8.744 10.2443294,8.8048 10.2411294,8.86503529 C9.96367059,8.62108235 9.66512941,8.40178824 9.34795294,8.21016471 C10.0178824,7.42145882 10.3920941,6.408 10.3920941,5.34221176 L10.3920941,5.34221176 Z M13.7818353,12.8343529 L11.9800471,12.8343529 C12.1897412,12.5794824 12.2733176,12.2239059 12.1709176,11.8847059 C11.9623529,11.1935059 11.6468706,10.5514353 11.2429176,9.98014118 C12.3753412,10.3863529 13.3199059,11.4544 13.7818353,12.8343529 L13.7818353,12.8343529 Z M5.34136471,9.45665882 C5.78917647,9.35670588 6.11444706,8.94352941 6.11463529,8.48047059 C6.12065882,8.05694118 5.86503529,7.67218824 5.4784,7.52254118 C4.61383529,7.1888 4.03275294,6.31256471 4.03275294,5.34258824 C4.03275294,4.05976471 5.01854118,3.016 6.23002353,3.016 C7.44094118,3.016 8.42635294,4.05976471 8.42635294,5.34258824 C8.42635294,6.3024 7.85487059,7.17392941 7.00348235,7.51425882 C6.93327059,7.53948235 6.86607059,7.57298824 6.80828235,7.61063529 L6.78098824,7.62870588 C6.76630588,7.63868235 6.75256471,7.64884706 6.74202353,7.65694118 C6.62738824,7.74465882 6.53496471,7.85345882 6.46531765,7.98371765 L6.44762353,8.01891765 C6.43896471,8.0368 6.43105882,8.05468235 6.42635294,8.06635294 C6.35444706,8.23727059 6.32997647,8.42287059 6.3552,8.60602353 L6.42654118,8.92884706 L6.62381176,9.16903529 L6.62418824,9.16884706 L6.62851765,9.17374118 C6.63698824,9.18258824 6.64527059,9.19105882 6.64790588,9.19350588 L6.66785882,9.21270588 C6.67538824,9.21985882 6.68329412,9.22682353 6.6912,9.23378824 L6.70851765,9.24865882 C6.7936,9.31905882 6.88941176,9.37458824 6.99538824,9.41411765 C7.01044706,9.41976471 7.02607059,9.42484706 7.04771765,9.43162353 C7.0624,9.43595294 7.07689412,9.44028235 7.08329412,9.4416 L7.11811765,9.45025882 C8.61251765,9.784 9.82870588,10.9452235 10.2923294,12.4806588 C10.3326118,12.6137412 10.3969882,12.7330824 10.4803765,12.8343529 L2.07849412,12.8343529 C2.45232941,11.1684706 3.73364706,9.81675294 5.34136471,9.45665882 L5.34136471,9.45665882 Z M15.9905882,13.7139765 L15.5137882,13.7727059 L15.9902118,13.7126588 C15.7293176,11.6441412 14.7073882,9.84442353 13.2154353,8.77656471 C13.7618824,8.13054118 14.0673882,7.30983529 14.0698353,6.44677647 C14.0698353,4.72875294 12.8478118,3.23529412 11.1632941,2.89515294 C10.9061647,2.84414118 10.6469647,2.89665882 10.4306824,3.04329412 C10.2396235,3.17298824 10.1020235,3.36197647 10.0352,3.58352941 C9.38691765,2.06296471 7.92470588,1 6.22889412,1 C3.93298824,1 2.06512941,2.94785882 2.06512941,5.34221176 C2.06512941,6.41138824 2.44122353,7.42729412 3.11435294,8.21656471 C1.20301176,9.37195294 0,11.5112471 0,13.8416 C0,14.3974588 0.441223529,14.8496 0.983529412,14.8496 L15.0142118,14.8496 C15.0590118,14.8496 15.1034353,14.8464 15.1456,14.8403765 C15.6792471,14.7673412 16.0583529,14.2621176 15.9905882,13.7139765 L15.9905882,13.7139765 Z" id="Fill-1" fill="#3B8FD9"></path>
            </g>
        </g>
    </g>
</svg>