<?xml version="1.0" encoding="UTF-8"?>
<svg width="16px" height="16px" viewBox="0 0 16 16" version="1.1" xmlns="http://www.w3.org/2000/svg" xmlns:xlink="http://www.w3.org/1999/xlink">
    <title>15-图标/5功能/日期</title>
    <g id="平台icon231127" stroke="none" stroke-width="1" fill="none" fill-rule="evenodd">
        <g id="平台icon231128" transform="translate(-232, -376)">
            <g id="15-图标/5功能/日期" transform="translate(232, 376)">
                <rect id="_mockplus_fix_" x="0" y="0" width="16" height="16"></rect>
                <rect id="_mockplus_fix_" x="0" y="0" width="16" height="16"></rect>
                <path d="M11.45,0 C11.803125,0 12.0828125,0.2796875 12.0828125,0.6328125 L12.0828125,1.209375 L15.365625,1.209375 C15.71875,1.209375 15.9984375,1.4890625 15.9984375,1.8421875 L15.9984375,15.3671875 C16.0171875,15.7015625 15.7390625,16 15.3859375,16 L0.6328125,16 C0.2796875,16 2.22044605e-14,15.7203125 2.22044605e-14,15.3671875 L2.22044605e-14,1.8421875 C2.22044605e-14,1.4890625 0.2796875,1.209375 0.6328125,1.209375 L3.934375,1.209375 L3.934375,0.6328125 C3.934375,0.2796875 4.2140625,0 4.5671875,0 C4.9203125,0 5.2,0.2796875 5.2,0.6328125 L5.2,1.209375 L10.8171875,1.209375 L10.8171875,0.6328125 C10.8171875,0.2796875 11.096875,0 11.45,0 Z M14.753125,6.325 L1.284375,6.325 L1.284375,14.734375 L14.753125,14.734375 L14.753125,6.325 Z M4.8328125,11.3046875 C4.94375,11.3046875 5.034375,11.3953125 5.034375,11.50625 L5.034375,12.9796875 C5.034375,13.090625 4.94375,13.18125 4.8328125,13.18125 L3.359375,13.18125 C3.2484375,13.18125 3.1578125,13.090625 3.1578125,12.9796875 L3.1578125,11.50625 C3.1578125,11.3953125 3.2484375,11.3046875 3.359375,11.3046875 L4.8328125,11.3046875 Z M8.7359375,11.3046875 C8.846875,11.3046875 8.9375,11.3953125 8.9375,11.50625 L8.9375,12.9796875 C8.9375,13.090625 8.846875,13.18125 8.7359375,13.18125 L7.2625,13.18125 C7.1515625,13.18125 7.0609375,13.090625 7.0609375,12.9796875 L7.0609375,11.50625 C7.0609375,11.3953125 7.1515625,11.3046875 7.2625,11.3046875 L8.7359375,11.3046875 Z M12.6765625,11.3046875 C12.7875,11.3046875 12.878125,11.3953125 12.878125,11.50625 L12.878125,12.9796875 C12.878125,13.090625 12.7875,13.18125 12.6765625,13.18125 L11.203125,13.18125 C11.0921875,13.18125 11.0015625,13.090625 11.0015625,12.9796875 L11.0015625,11.50625 C11.0015625,11.3953125 11.0921875,11.3046875 11.203125,11.3046875 L12.6765625,11.3046875 Z M4.8328125,7.8765625 C4.94375,7.8765625 5.034375,7.9671875 5.034375,8.078125 L5.034375,9.5515625 C5.034375,9.6625 4.94375,9.753125 4.8328125,9.753125 L3.359375,9.753125 C3.2484375,9.753125 3.1578125,9.6625 3.1578125,9.5515625 L3.1578125,8.078125 C3.1578125,7.9671875 3.2484375,7.8765625 3.359375,7.8765625 L4.8328125,7.8765625 Z M8.7359375,7.8765625 C8.846875,7.8765625 8.9375,7.9671875 8.9375,8.078125 L8.9375,9.5515625 C8.9375,9.6625 8.846875,9.753125 8.7359375,9.753125 L7.2625,9.753125 C7.1515625,9.753125 7.0609375,9.6625 7.0609375,9.5515625 L7.0609375,8.078125 C7.0609375,7.9671875 7.1515625,7.8765625 7.2625,7.8765625 L8.7359375,7.8765625 Z M12.6765625,7.8765625 C12.7875,7.8765625 12.878125,7.9671875 12.878125,8.078125 L12.878125,9.5515625 C12.878125,9.6625 12.7875,9.753125 12.6765625,9.753125 L11.203125,9.753125 C11.0921875,9.753125 11.0015625,9.6625 11.0015625,9.5515625 L11.0015625,8.078125 C11.0015625,7.9671875 11.0921875,7.8765625 11.203125,7.8765625 L12.6765625,7.8765625 Z M3.934375,2.475 L1.284375,2.475 L1.284375,5.0609375 L14.753125,5.0609375 L14.753125,2.475 L12.084375,2.475 L12.084375,3.0328125 C12.103125,3.3859375 11.8046875,3.684375 11.4515625,3.684375 C11.0984375,3.684375 10.81875,3.4046875 10.81875,3.0515625 L10.81875,2.475 L5.2,2.475 L5.2,3.0328125 C5.2,3.3859375 4.9203125,3.684375 4.5671875,3.684375 C4.2140625,3.684375 3.934375,3.4046875 3.934375,3.0515625 L3.934375,2.475 Z" id="日期" fill="#999999" fill-rule="nonzero"></path>
            </g>
        </g>
    </g>
</svg>