<?xml version="1.0" encoding="UTF-8"?>
<svg width="16px" height="16px" viewBox="0 0 16 16" version="1.1" xmlns="http://www.w3.org/2000/svg" xmlns:xlink="http://www.w3.org/1999/xlink">
    <title>15-图标/2提示/成功</title>
    <g id="平台icon231127" stroke="none" stroke-width="1" fill="none" fill-rule="evenodd">
        <g id="平台icon231128" transform="translate(-40, -232)">
            <g id="15-图标/2提示/成功" transform="translate(40, 232)">
                <rect id="_mockplus_fix_" x="0" y="0" width="16" height="16"></rect>
                <path d="M8,0 C12.41875,0 16,3.5828125 16,8 C16,12.4171875 12.41875,16 8,16 C3.58125,16 0,12.41875 0,8 C0,3.58125 3.58125,0 8,0 Z M8,1.340625 C4.3234375,1.340625 1.340625,4.321875 1.340625,8 C1.340625,11.678125 4.321875,14.659375 8,14.659375 C11.678125,14.659375 14.659375,11.678125 14.659375,8 C14.659375,4.321875 11.6765625,1.340625 8,1.340625 Z M11.7734375,5.321875 C12.13125,5.678125 12.13125,6.0359375 11.7734375,6.39375 L7.490625,10.6796875 C7.30769838,10.8626141 7.12518015,10.9520221 6.94265273,10.9479114 C6.75988735,10.9519784 6.57739583,10.8625694 6.3953125,10.6796875 L4.2265625,8.509375 C3.86875,8.1515625 3.86875,7.79375 4.2265625,7.4375 C4.584375,7.0796875 4.940625,7.0796875 5.2984375,7.4375 L6.942,9.082 L10.7015625,5.321875 C11.059375,4.9640625 11.415625,4.9640625 11.7734375,5.321875 Z" id="成功" fill="#4ACFB1" fill-rule="nonzero"></path>
            </g>
        </g>
    </g>
</svg>