<?xml version="1.0" encoding="UTF-8"?>
<svg width="16px" height="16px" viewBox="0 0 16 16" version="1.1" xmlns="http://www.w3.org/2000/svg" xmlns:xlink="http://www.w3.org/1999/xlink">
    <title>15-图标/5功能/勾</title>
    <g id="平台icon231127" stroke="none" stroke-width="1" fill="none" fill-rule="evenodd">
        <g id="平台icon231128" transform="translate(-616, -376)">
            <g id="15-图标/5功能/勾" transform="translate(616, 376)">
                <rect id="_mockplus_fix_" x="0" y="0" width="16" height="16"></rect>
                <path d="M15.6507759,4.237504 L6.48517122,13.407824 C6.0446079,13.860944 5.31977406,13.871904 4.86513319,13.431264 L4.84169727,13.407824 C4.82138081,13.395344 4.8151419,13.375024 4.80266407,13.348464 C4.77610869,13.342224 4.76363086,13.328144 4.73707548,13.321904 L0.336241475,8.914064 C-0.112080492,8.443744 -0.112080492,7.704704 0.336241475,7.256224 C0.792402078,6.801584 1.52979373,6.801584 1.98595433,7.256224 L5.66971315,10.943744 L14.0166603,2.592224 C14.4525844,2.140624 15.1726991,2.128144 15.6258202,2.564064 L15.6538953,2.592224 C16.1085362,3.035904 16.1162949,3.764064 15.6710924,4.218784 C15.6632537,4.225024 15.6570148,4.231264 15.6507759,4.237504" id="选中" fill="#198EEB"></path>
            </g>
        </g>
    </g>
</svg>