<?xml version="1.0" encoding="UTF-8"?>
<svg width="16px" height="16px" viewBox="0 0 16 16" version="1.1" xmlns="http://www.w3.org/2000/svg" xmlns:xlink="http://www.w3.org/1999/xlink">
    <title>更多</title>
    <g id="平台icon231127" stroke="none" stroke-width="1" fill="none" fill-rule="evenodd">
        <g id="平台icon231128" transform="translate(-232, -280)">
            <g id="更多" transform="translate(231.9999, 280)">
                <rect id="_mockplus_fix_" x="0" y="0" width="16" height="16"></rect>
                <path d="M7.99987288,0 C12.4113076,0 16,3.58869238 16,8.00012712 C16,12.4113076 12.4113076,16 7.99987288,16 C3.58869238,16 0,12.4113076 0,8.00012712 C0,3.58869238 3.58869238,0 7.99987288,0 Z M8.00139836,2.01032877 C4.69797079,2.01032877 2.01032877,4.69720805 2.00982028,8.00012712 C2.00956603,11.3033004 4.69695381,13.9909425 7.99987288,13.9911967 C11.3030462,13.9911967 13.9906882,11.3043174 13.9909425,8.00139836 C13.9911967,6.40116953 13.3682923,4.89679172 12.2371486,3.7651396 C11.106005,2.63374172 9.60162718,2.01058302 8.00139836,2.01032877 Z M4.4436478,6.53858988 C4.83823871,6.53858988 5.20918466,6.69240915 5.48834756,6.97182629 C5.76776469,7.25124343 5.92132971,7.62218938 5.92132971,8.01627179 C5.92107546,8.82986128 5.25876277,9.49217397 4.44517329,9.49268246 C3.63056681,9.49268246 2.96749138,8.83036977 2.96723706,8.01627179 C2.96698289,7.20166532 3.62929558,6.53884413 4.4436478,6.53858988 Z M8.04830688,6.53858988 C8.86342184,6.53884413 9.52598878,7.20166532 9.52598878,8.01627179 C9.52522604,8.82986128 8.86291335,9.49217397 8.04983236,9.49268246 L7.90750367,9.48591116 C7.15928614,9.41423811 6.57215014,8.78248165 6.57215014,8.01627179 C6.5718962,7.62142664 6.72546122,7.25048069 7.00462411,6.97131779 C7.28302426,6.69240915 7.65371597,6.53884413 8.04830688,6.53858988 Z M11.6529405,6.53858988 C12.4683097,6.53884413 13.1308767,7.20166532 13.1306225,8.01627179 C13.1303682,8.82986128 12.4678012,9.49217397 11.654466,9.49268246 L11.5179355,9.48632629 C10.747568,9.40827255 10.1770383,8.77697796 10.1765299,8.01627179 C10.1765299,7.62142664 10.3300949,7.25048069 10.6090035,6.97131779 C10.8876579,6.69240915 11.2586039,6.53884413 11.6529405,6.53858988 Z" id="形状结合" fill="#3B8FD9"></path>
            </g>
        </g>
    </g>
</svg>