<?xml version="1.0" encoding="UTF-8"?>
<svg width="16px" height="16px" viewBox="0 0 16 16" version="1.1" xmlns="http://www.w3.org/2000/svg" xmlns:xlink="http://www.w3.org/1999/xlink">
    <title>15-图标/5功能/时间</title>
    <g id="平台icon231127" stroke="none" stroke-width="1" fill="none" fill-rule="evenodd">
        <g id="平台icon231128" transform="translate(-280, -376)">
            <g id="15-图标/5功能/时间" transform="translate(280, 376)">
                <rect id="_mockplus_fix_" x="0" y="0" width="16" height="16"></rect>
                <rect id="_mockplus_fix_" x="0" y="0" width="16" height="16"></rect>
                <path d="M8.00208142,2.42808712e-07 C12.4175079,0.00595508358 15.9951299,3.5844557 16,7.99988334 C16,11.2357127 14.0506783,14.1528845 11.0610856,15.3909991 C8.07149296,16.6291138 4.63044648,15.9443176 2.34265052,13.6559598 C0.0548545625,11.3676019 -0.629096469,7.92638753 0.609752485,4.93709917 C1.84860144,1.94781081 4.76625204,-0.000794167804 8.00208142,2.42808712e-07 Z M8.00208142,1.27110171 C4.28587779,1.27110171 1.27329951,4.28367986 1.27329951,7.99988334 C1.27329951,11.7160868 4.28587779,14.728665 8.00208142,14.728665 C11.7179015,14.7276827 14.7303209,11.7157032 14.7308633,7.99988334 C14.7308633,4.28367986 11.7182851,1.27110171 8.00208142,1.27110171 Z M7.77811612,4.32311989 C8.11230319,4.32311989 8.38321534,4.59403203 8.38321534,4.92821908 L8.38321534,8.02051172 L12.3654755,9.44387005 C12.6487278,9.53874601 12.8203622,9.82612691 12.7695831,10.1204988 C12.718804,10.4148706 12.4608073,10.6281401 12.1621386,10.6226347 C12.0997107,10.6186492 12.0309315,10.6066876 11.9656778,10.5833426 L7.57477921,9.01656786 C7.33392134,8.93063297 7.17309098,8.70256058 7.1730169,8.4468316 L7.1730169,4.92821908 C7.1730169,4.59403203 7.44392905,4.32311989 7.77811612,4.32311989 Z" id="时间" fill="#999999" fill-rule="nonzero"></path>
            </g>
        </g>
    </g>
</svg>