<?xml version="1.0" encoding="UTF-8"?>
<svg width="16px" height="16px" viewBox="0 0 16 16" version="1.1" xmlns="http://www.w3.org/2000/svg" xmlns:xlink="http://www.w3.org/1999/xlink">
    <title>15-图标/5功能/关闭</title>
    <g id="平台icon231127" stroke="none" stroke-width="1" fill="none" fill-rule="evenodd">
        <g id="平台icon231128" transform="translate(-664, -376)">
            <g id="15-图标/5功能/关闭" transform="translate(664, 376)">
                <rect id="_mockplus_fix_" x="0" y="0" width="16" height="16"></rect>
                <path d="M15.5476452,0.453526695 C16.1507849,1.05666643 16.1507849,1.66136869 15.5476452,2.2645084 L9.811,8 L15.5476452,13.7366635 C16.1507849,14.3398032 16.1507849,14.9445055 15.5476452,15.5476452 C14.9445055,16.1507849 14.3398032,16.1507849 13.7366635,15.5476452 L8,9.811 L2.2645084,15.5476452 C1.66136867,16.1523475 1.05666641,16.1523475 0.453526695,15.5476452 C-0.149613036,14.9445055 -0.149613036,14.3398032 0.453526695,13.7366635 L6.189,8 L0.453526695,2.2645084 C-0.151175565,1.65980614 -0.151175565,1.05666643 0.453526695,0.453526695 C1.05666643,-0.149613036 1.66136869,-0.149613036 2.2645084,0.453526695 L8,6.189 L13.7366635,0.453526695 C14.3413658,-0.151175565 14.9445055,-0.151175565 15.5476452,0.453526695 Z" id="关闭" fill="#999999" fill-rule="nonzero"></path>
            </g>
        </g>
    </g>
</svg>