<?xml version="1.0" encoding="UTF-8"?>
<svg width="16px" height="16px" viewBox="0 0 16 16" version="1.1" xmlns="http://www.w3.org/2000/svg" xmlns:xlink="http://www.w3.org/1999/xlink">
    <title>15-图标/4操作/删除</title>
    <g id="平台icon231127" stroke="none" stroke-width="1" fill="none" fill-rule="evenodd">
        <g id="平台icon231128" transform="translate(-88, -280)">
            <g id="15-图标/4操作/删除" transform="translate(88, 280)">
                <rect id="_mockplus_fix_" x="0" y="0" width="16" height="16"></rect>
                <rect id="_mockplus_fix_" x="0" y="0" width="16" height="16"></rect>
                <path d="M12.4425292,13.4064971 C12.4425292,13.856453 12.0456931,14.2220421 11.5535539,14.2220421 C11.0614147,14.2220421 10.6645786,13.8580153 10.6645786,13.4064971 L10.6645786,5.25885902 C10.6645786,4.80890317 11.0614147,4.44331404 11.5535539,4.44331404 C12.0456931,4.44331404 12.4425292,4.80734083 12.4425292,5.25885902 L12.4425292,13.4064971 Z M8.88662808,13.4064971 C8.88662808,13.856453 8.48979202,14.2220421 7.99765281,14.2220421 C7.50551359,14.2220421 7.10867753,13.8580153 7.10867753,13.4064971 L7.10867753,5.25885902 C7.10867753,4.80890317 7.50551359,4.44331404 7.99765281,4.44331404 C8.48822967,4.44331404 8.88662808,4.80734083 8.88662808,5.25885902 L8.88662808,13.4064971 Z M5.33228932,13.4064971 C5.33228932,13.856453 4.93545326,14.2220421 4.44331404,14.2220421 C3.95117483,14.2220421 3.55433876,13.8580153 3.55433876,13.4064971 L3.55433876,5.25885902 C3.55433876,4.80890317 3.95117483,4.44331404 4.44331404,4.44331404 C4.93545326,4.44331404 5.33228932,4.80734083 5.33228932,5.25885902 L5.33228932,13.4064971 Z M15.1969464,1.59984303 L11.1989012,1.59984303 C11.1989012,0.720241833 10.4786594,8.8817842e-15 9.59905818,8.8817842e-15 L6.39937212,8.8817842e-15 C5.51977092,8.8817842e-15 4.79952909,0.720241833 4.79952909,1.59984303 L0.801483862,1.59984303 C0.359339743,1.59984303 0,1.95762043 0,2.39976455 C0,2.84190866 0.359339743,3.19968606 0.801483862,3.19968606 L1.60140538,3.19968606 L1.60140538,14.3985873 C1.60140538,15.2781885 2.32164721,15.9984303 3.20124841,15.9984303 L12.7987442,15.9984303 C13.6783454,15.9984303 14.3985873,15.2781885 14.3985873,14.3985873 L14.3985873,3.19968606 L15.1985088,3.19968606 C15.6406529,3.19968606 16,2.84190866 16,2.39976455 C15.9984303,1.95762043 15.6390906,1.59984303 15.1969464,1.59984303 Z" id="删除" fill="#3B8FD9" fill-rule="nonzero"></path>
            </g>
        </g>
    </g>
</svg>