<?xml version="1.0" encoding="UTF-8"?>
<svg width="16px" height="16px" viewBox="0 0 16 16" version="1.1" xmlns="http://www.w3.org/2000/svg" xmlns:xlink="http://www.w3.org/1999/xlink">
    <title>15-图标/4操作/下载</title>
    <g id="平台icon231127" stroke="none" stroke-width="1" fill="none" fill-rule="evenodd">
        <g id="平台icon231128" transform="translate(-568, -280)">
            <g id="15-图标/4操作/下载" transform="translate(568, 280)">
                <rect id="_mockplus_fix_" x="0" y="0" width="16" height="16"></rect>
                <rect id="_mockplus_fix_" x="0" y="0" width="16" height="16"></rect>
                <path d="M1.71435829,10.2857143 C2.02986291,10.2857143 2.28566459,10.5415399 2.28566459,10.8570513 L2.28566459,12.5714469 C2.28566459,13.2027078 2.79728628,13.7143223 3.4284969,13.7143223 L12.5714848,13.7143223 C13.2027137,13.7143223 13.7143171,13.2027078 13.7143171,12.5714469 L13.7143171,10.8570513 C13.7143171,10.5415398 13.9701371,10.2857143 14.2858248,10.2857143 L15.4286754,10.2857143 C15.74418,10.2857143 16,10.5415399 16,10.8570513 L16,13.7143223 C16,14.9768626 14.976775,16 13.7143171,16 L2.28566459,16 C1.02342643,16 0,14.9768626 0,13.714304 L0,10.8570513 C0,10.5415398 0.256003083,10.2857143 0.5713063,10.2857143 L1.71435829,10.2857143 Z M8.5772678,0 C8.89605504,0 9.15465815,0.255732281 9.15465815,0.570813027 L9.15465815,6.31668049 L11.8471859,3.65497683 C12.0807277,3.42414677 12.4594586,3.42414677 12.6930004,3.65497683 L13.5391294,4.49148667 C13.7726712,4.72237158 13.7726712,5.09672764 13.5391294,5.32779539 L8.77130337,10.0410617 C8.75068098,10.0613931 8.37973661,10.2855496 8.00648034,10.2857143 C7.62915506,10.285897 7.24955486,10.0616308 7.22891395,10.0410617 L2.46088451,5.32779539 C2.22732421,5.09670937 2.22732421,4.72237158 2.46088451,4.49148667 L3.30706893,3.65497683 C3.54061072,3.42414677 3.91950811,3.42414677 4.1530684,3.65497683 L6.84559616,6.31668049 L6.84559616,0.570813027 C6.84559616,0.255732281 7.10406979,0 7.42276455,0 L8.5772678,0 Z" id="下载" fill="#3B8FD9" fill-rule="nonzero"></path>
            </g>
        </g>
    </g>
</svg>