<?xml version="1.0" encoding="UTF-8"?>
<svg width="16px" height="16px" viewBox="0 0 16 16" version="1.1" xmlns="http://www.w3.org/2000/svg" xmlns:xlink="http://www.w3.org/1999/xlink">
    <title>15-图标/4操作/编辑</title>
    <g id="平台icon231127" stroke="none" stroke-width="1" fill="none" fill-rule="evenodd">
        <g id="平台icon231128" transform="translate(-40, -280)">
            <g id="15-图标/4操作/编辑" transform="translate(40, 280)">
                <rect id="_mockplus_fix_" x="0" y="0" width="16" height="16"></rect>
                <rect id="_mockplus_fix_" x="0" y="0" width="16" height="16"></rect>
                <path d="M13.8953061,6.9640593 C13.3249939,6.9640593 12.8624941,7.42655908 12.8609316,7.99843383 L12.8609316,13.9312436 L2.07031155,13.9312436 L2.07031155,3.14531106 L7.77187144,3.14531106 C8.34218367,3.14531106 8.80468347,2.68281128 8.80468345,2.11093653 C8.80468344,1.53906178 8.34218367,1.076562 7.77187144,1.076562 L1.03593703,1.076562 C0.464062281,1.076562 0.0015625,1.5406243 0,2.11249903 L0,14.9656181 C0.0015625,15.5374929 0.464062281,15.9999999 1.03437453,15.9999999 L13.8953061,15.9999999 C14.3109309,16.0015552 14.6859308,15.7515553 14.8484307,15.368743 C14.9031182,15.240618 14.9312431,15.1046806 14.9312431,14.9656181 L14.9312431,7.99687133 C14.9296806,7.42655909 14.4656184,6.9640593 13.8953061,6.9640593 Z M5.05156019,8.77655847 C4.92499775,8.77655847 4.8031228,8.82655845 4.71406034,8.91718341 C4.67187286,8.96093339 4.64062287,9.00780836 4.59843539,9.11874581 L3.7062483,11.7312446 C3.66718581,11.8906195 3.7156233,12.057807 3.83124823,12.1734319 C3.92031069,12.2609319 4.03906064,12.3093693 4.16406059,12.3093693 C4.19999808,12.3093693 4.23593556,12.3046818 4.340623,12.2749944 L6.94687181,11.3796823 C6.99999678,11.3562448 7.04999677,11.3234323 7.09062175,11.2828073 C7.27187167,11.0984324 7.27187167,10.80312 7.09062175,10.6187451 L5.38437253,8.91249591 C5.29531008,8.82499595 5.17656012,8.77499597 5.05156019,8.77655847 L5.05156019,8.77655847 Z M15.7281178,1.50312431 L14.4953058,0.278124875 C14.3171809,0.0921874531 14.0781185,0 13.8234312,0 C13.5687438,0 13.3296814,0.0921874531 13.153119,0.278124875 L12.4359318,1.00312455 L14.9874931,3.54531088 L15.7281178,2.84374869 C16.0906176,2.47031136 16.0906176,1.87656163 15.7281178,1.50312431 L15.7281178,1.50312431 Z M8.79687097,9.68593305 L13.8015562,4.68437284 C13.8562436,4.65312286 13.9015561,4.60781038 13.9328061,4.55312291 L14.0562435,4.42968547 L11.5265572,1.91093663 L6.27655962,7.15780922 L5.39843502,8.03593381 C5.39062252,8.04374631 5.38281002,8.0593713 5.36718503,8.0671838 L7.90312137,10.6015576 L8.79687097,9.68593305 L8.79687097,9.68593305 Z" id="编辑" fill="#3B8FD9" fill-rule="nonzero"></path>
            </g>
        </g>
    </g>
</svg>