<?xml version="1.0" encoding="UTF-8"?>
<svg width="16px" height="16px" viewBox="0 0 16 16" version="1.1" xmlns="http://www.w3.org/2000/svg" xmlns:xlink="http://www.w3.org/1999/xlink">
    <title>15-图标/2提示/错误</title>
    <g id="平台icon231127" stroke="none" stroke-width="1" fill="none" fill-rule="evenodd">
        <g id="平台icon231128" transform="translate(-184, -232)">
            <g id="15-图标/2提示/错误" transform="translate(184, 232)">
                <rect id="_mockplus_fix_" x="0" y="0" width="16" height="16"></rect>
                <path d="M8,0 C12.41875,0 16,3.5828125 16,8 C16,12.4171875 12.41875,16 8,16 C3.58125,16 0,12.41875 0,8 C0,3.58125 3.58125,0 8,0 Z M8,1.340625 C4.3234375,1.340625 1.340625,4.321875 1.340625,8 C1.340625,11.678125 4.321875,14.659375 8,14.659375 C11.678125,14.659375 14.659375,11.678125 14.659375,8 C14.659375,4.321875 11.6765625,1.340625 8,1.340625 Z M4.8265625,4.825 C5.1296875,4.521875 5.621875,4.521875 5.925,4.825 L8,6.9015625 L10.0734375,4.825 C10.3765625,4.521875 10.86875,4.521875 11.171875,4.825 C11.475,5.128125 11.475,5.6203125 11.171875,5.9234375 L9.0984375,8 L11.1734375,10.0765625 C11.4765625,10.3796875 11.4765625,10.871875 11.1734375,11.175 C10.8703125,11.478125 10.378125,11.478125 10.075,11.175 L8,9.0984375 L5.9265625,11.175 C5.6234375,11.478125 5.13125,11.478125 4.828125,11.175 C4.525,10.871875 4.525,10.3796875 4.828125,10.0765625 L6.9015625,8 L4.8265625,5.9234375 C4.5234375,5.6203125 4.5234375,5.128125 4.8265625,4.825 Z" id="错误" fill="#F36969" fill-rule="nonzero"></path>
            </g>
        </g>
    </g>
</svg>