<?xml version="1.0" encoding="UTF-8"?>
<svg width="16px" height="16px" viewBox="0 0 16 16" version="1.1" xmlns="http://www.w3.org/2000/svg" xmlns:xlink="http://www.w3.org/1999/xlink">
    <title>15-图标/4操作/导出</title>
    <g id="平台icon231127" stroke="none" stroke-width="1" fill="none" fill-rule="evenodd">
        <g id="平台icon231128" transform="translate(-424, -280)">
            <g id="15-图标/4操作/导出" transform="translate(424, 280)">
                <rect id="_mockplus_fix_" x="0" y="0" width="16" height="16"></rect>
                <rect id="_mockplus_fix_" x="0" y="0" width="16" height="16"></rect>
                <path d="M14.8609441,0 C15.5734445,0 16,0.426562691 16,1.13750051 L16,6.2609403 C16,6.97187812 15.715632,7.54062837 15.0046942,7.54062837 C14.2921939,7.54062837 13.8656312,6.97187812 13.8656312,6.40312786 L13.8656312,2.27656352 L2.13281345,2.27656352 L2.13281345,13.7250061 L4.26718941,13.7250061 C4.97968973,13.7250061 5.40625242,14.2937564 5.40625242,14.8625066 C5.40625242,15.5734445 4.83593966,16 4.26718941,16 L1.13906301,16 C0.426562691,16 5.68434189e-14,15.4296944 5.68434189e-14,14.8609441 L5.68434189e-14,1.13750051 C5.68434189e-14,0.426562691 0.426562691,0 0.995312945,0 Z M12.5439456,7.76875347 L15.6798845,10.9062549 C16.0017597,11.231255 16.0908222,11.7203177 15.9017596,12.1375054 C15.8501971,12.295318 15.7626971,12.4390681 15.647072,12.5578181 L12.5314456,15.6765695 C12.1017579,16.1062572 11.4033201,16.1062572 10.9736324,15.6765695 C10.5439447,15.2468818 10.5439447,14.548444 10.9736324,14.1187563 L12.3033205,12.7890682 L7.45800586,12.7890682 C6.86894309,12.7890682 6.39081788,12.310943 6.39081788,11.7218802 C6.39081788,11.1328175 6.86894309,10.6546923 7.45800586,10.6546923 L12.292383,10.6546923 L10.9751949,9.33750417 C10.5564447,8.89062897 10.5783198,8.18750366 11.0267575,7.76875347 C11.4533201,7.36875329 12.1173829,7.36875329 12.5439456,7.76875347 Z" id="导出" fill="#3B8FD9" fill-rule="nonzero"></path>
            </g>
        </g>
    </g>
</svg>