<?xml version="1.0" encoding="UTF-8"?>
<svg width="16px" height="16px" viewBox="0 0 16 16" version="1.1" xmlns="http://www.w3.org/2000/svg" xmlns:xlink="http://www.w3.org/1999/xlink">
    <title>15-图标/4操作/导入</title>
    <g id="平台icon231127" stroke="none" stroke-width="1" fill="none" fill-rule="evenodd">
        <g id="平台icon231128" transform="translate(-472, -280)">
            <g id="15-图标/4操作/导入" transform="translate(472, 280)">
                <rect id="_mockplus_fix_" x="0" y="0" width="16" height="16"></rect>
                <rect id="_mockplus_fix_" x="0" y="0" width="16" height="16"></rect>
                <path d="M14.8609441,0 C15.5734445,0 16,0.426562691 16,1.13750051 L16,6.2609403 C16,6.97187812 15.715632,7.54062837 15.0046942,7.54062837 C14.2921939,7.54062837 13.8656312,6.97187812 13.8656312,6.40312786 L13.8656312,2.27656352 L2.13281345,2.27656352 L2.13281345,13.7250061 L4.26718941,13.7250061 C4.97968973,13.7250061 5.40625242,14.2937564 5.40625242,14.8625066 C5.40625242,15.5734445 4.83593966,16 4.26718941,16 L1.13906301,16 C0.426562691,16 5.68434189e-14,15.4296944 5.68434189e-14,14.8609441 L5.68434189e-14,1.13750051 C5.68434189e-14,0.426562691 0.426562691,0 0.995312945,0 Z M9.8468794,7.76875347 C10.2734421,7.36875329 10.9375049,7.36875329 11.3640676,7.76875347 C11.8125053,8.18750366 11.8343803,8.89062897 11.4156301,9.33750417 L10.098442,10.6546923 L14.9328192,10.6546923 C15.5218819,10.6546923 16.0000072,11.1328175 16.0000072,11.7218802 C16.0000072,12.310943 15.5218819,12.7890682 14.9328192,12.7890682 L10.0875045,12.7890682 L11.4171926,14.1187563 C11.8468803,14.548444 11.8468803,15.2468818 11.4171926,15.6765695 C10.9875049,16.1062572 10.2890671,16.1062572 9.85937941,15.6765695 L6.74375302,12.5578181 C6.62812796,12.4390681 6.54062792,12.295318 6.4890654,12.1375054 C6.30000282,11.7203177 6.38906536,11.231255 6.7109405,10.9062549 Z" id="导入" fill="#3B8FD9" fill-rule="nonzero"></path>
            </g>
        </g>
    </g>
</svg>