<?xml version="1.0" encoding="UTF-8"?>
<svg width="16px" height="16px" viewBox="0 0 16 16" version="1.1" xmlns="http://www.w3.org/2000/svg" xmlns:xlink="http://www.w3.org/1999/xlink">
    <title>15-图标/2提示/提示</title>
    <g id="平台icon231127" stroke="none" stroke-width="1" fill="none" fill-rule="evenodd">
        <g id="平台icon231128" transform="translate(-376, -232)">
            <g id="15-图标/2提示/提示" transform="translate(376, 232)">
                <rect id="_mockplus_fix_" x="0" y="0" width="16" height="16"></rect>
                <path d="M8,0 C12.41875,0 16,3.58125 16,8 C16,12.41875 12.41875,16 8,16 C3.58125,16 0,12.41875 0,8 C0,3.58125 3.58125,0 8,0 Z M8,1.340625 C4.3234375,1.340625 1.340625,4.321875 1.340625,8 C1.340625,11.678125 4.321875,14.659375 8,14.659375 C11.678125,14.659375 14.659375,11.678125 14.659375,8 C14.659375,4.321875 11.6765625,1.340625 8,1.340625 Z M8.025,5.7984375 C8.07263569,5.7984375 8.11808426,5.80063788 8.16134449,5.80503741 L8.0421875,5.8 C8.559375,5.8 8.81875,6.059375 8.81875,6.5765625 L8.818,11.264 L9.178125,11.2640625 C9.6828125,11.2640625 9.9359375,11.5171875 9.9359375,12.021875 C9.9359375,12.528125 9.6828125,12.7796875 9.178125,12.7796875 L6.8234375,12.7796875 C6.31875,12.7796875 6.065625,12.5265625 6.065625,12.021875 C6.065625,11.5171875 6.3171875,11.2640625 6.8234375,11.2640625 L7.265,11.264 L7.265,7.351 L7.0515625,7.3515625 C6.534375,7.3515625 6.275,7.0921875 6.275,6.575 C6.275,6.05625 6.534375,5.7984375 7.0515625,5.7984375 L8.025,5.7984375 Z M7.703125,3.21875 C8.2640625,3.21875 8.71875,3.675 8.71875,4.2359375 C8.71875,4.7984375 8.2640625,5.253125 7.703125,5.253125 C7.1421875,5.253125 6.6875,4.796875 6.6875,4.2359375 C6.6875,3.6734375 7.14375,3.21875 7.703125,3.21875 Z" id="提示" fill="#45A8E6" fill-rule="nonzero"></path>
            </g>
        </g>
    </g>
</svg>