<?xml version="1.0" encoding="UTF-8"?>
<svg width="16px" height="16px" viewBox="0 0 16 16" version="1.1" xmlns="http://www.w3.org/2000/svg" xmlns:xlink="http://www.w3.org/1999/xlink">
    <title>15-图标/4操作/看不见</title>
    <g id="平台icon231127" stroke="none" stroke-width="1" fill="none" fill-rule="evenodd">
        <g id="平台icon231128" transform="translate(-952, -280)">
            <g id="15-图标/4操作/看不见" transform="translate(952, 280)">
                <rect id="_mockplus_fix_" x="0" y="0" width="16" height="16"></rect>
                <rect id="_mockplus_fix_" x="0" y="0" width="16" height="16"></rect>
                <path d="M15.4115058,5.52676631 C15.7365178,5.52676631 16.00059,5.79083855 16.00059,6.11585053 C16.00059,6.24915255 15.9561681,6.37220335 15.8813392,6.47098799 L15.9099617,6.42523694 C15.3487171,7.32294076 14.6954426,8.09700698 13.9649739,8.73882276 L15.375567,10.1488118 C15.6021379,10.3800703 15.6021379,10.7503964 15.375567,10.981655 C15.1396208,11.2082258 14.7692946,11.2082258 14.5411612,10.9800924 L13.0244115,9.46377658 C12.2252891,10.0003226 11.3537102,10.3984521 10.4249416,10.6493018 L11.1457235,12.6410912 C11.2551025,12.9457899 11.0972842,13.2817398 10.7925855,13.3926814 L10.6996493,13.4175995 C10.4198374,13.4690279 10.1378738,13.3137722 10.0394327,13.0395434 L9.2586499,10.882449 C8.84789605,10.9369053 8.42806152,10.9644668 8.00029502,10.9644668 C7.57297315,10.9644668 7.15356676,10.9369625 6.74322099,10.8826187 L5.96271988,13.0395434 C5.85177829,13.3442421 5.5158284,13.5020604 5.20956711,13.3926814 C4.90486837,13.2817398 4.74705005,12.9457899 4.85642909,12.6410912 L5.57775337,10.64987 C4.65434968,10.4007137 3.78745484,10.0059946 2.99206872,9.47442091 L1.4859923,10.981655 C1.2500461,11.2082258 0.878157383,11.2082258 0.651586528,10.981655 C0.425015673,10.7503964 0.425015673,10.3800703 0.651586528,10.1488118 L2.04989115,8.7513399 C1.32606406,8.11793704 0.677731173,7.35497915 0.119267878,6.47081182 C0.0444219313,6.37220335 0,6.24915255 0,6.11585053 C0,5.79083855 0.264072238,5.52676631 0.589084223,5.52676631 C0.7980205,5.52676631 0.981772493,5.6358982 1.08637388,5.80019567 C2.69072422,8.37218374 5.14706481,9.78629838 8.00029502,9.78629838 C10.8535252,9.78629838 13.3098658,8.37218374 14.9130499,5.80021389 C14.9641434,5.72144261 15.033474,5.65387218 15.117745,5.60489419 C15.2068108,5.55332979 15.308377,5.52676631 15.4115058,5.52676631 Z" id="看不见" fill="#3B8FD9" fill-rule="nonzero"></path>
            </g>
        </g>
    </g>
</svg>