<?xml version="1.0" encoding="UTF-8"?>
<svg width="16px" height="16px" viewBox="0 0 16 16" version="1.1" xmlns="http://www.w3.org/2000/svg" xmlns:xlink="http://www.w3.org/1999/xlink">
    <title>消息</title>
    <g id="平台icon231127" stroke="none" stroke-width="1" fill="none" fill-rule="evenodd">
        <g id="平台icon231128" transform="translate(-376, -280)">
            <g id="消息" transform="translate(375.9997, 280)">
                <rect id="_mockplus_fix_" x="0" y="0" width="16" height="16"></rect>
                <path d="M14.481401,1 C15.3564143,1 15.8055434,2.03807656 15.266431,2.69415949 L15.186737,2.78112425 L9.25582,8.58343353 C8.91758077,8.9153965 8.40546617,8.9647402 8.015303,8.71821151 L7.912141,8.64363077 L3.06532579,6.07108499 C2.62839198,5.7119793 2.55998314,5.06007248 2.91253036,4.61501036 C3.23795857,4.20418378 3.80831766,4.11320818 4.23779988,4.38408922 L4.34201223,4.45937246 L8.489804,6.45802147 L11.960609,3.07075529 L2.03279596,3.07075529 L2.03279596,12.9283843 L8.14492311,12.9290695 C8.66624854,12.9290695 9.09591684,13.3288007 9.15463821,13.8437776 L9.16147731,13.9645348 C9.16147731,14.4955584 8.76904653,14.9332199 8.26347481,14.9930337 L8.14492311,15 L1.01655419,15 C0.495228771,15 0.0655604663,14.6002688 0.0068391035,14.0852919 L0,13.9645348 L0,2.03546523 C0,1.50444155 0.392430775,1.06678009 0.898002501,1.00696633 L1.01655419,1 L14.481401,1 Z M14.7,5 C15.2128358,5 15.6355069,5.38604019 15.693272,5.88337887 L15.7,6 L15.7,8.00112286 C15.7,8.55340761 15.2522847,9.00112286 14.7,9.00112286 C14.1871642,9.00112286 13.7644931,8.61508267 13.706728,8.11774399 L13.7,8.00112286 L13.7,6 C13.7,5.44771525 14.1477153,5 14.7,5 Z M13.9539981,10.2506896 L15.7770461,11.9372424 L15.8619406,12.0457845 L15.8961263,12.1019437 L15.9520332,12.2251133 L15.958944,12.2453938 C15.9857822,12.3258197 16,12.4125493 16,12.5007306 L15.9927822,12.6091098 C15.9784301,12.7161601 15.9429263,12.8187084 15.8885283,12.9121192 L15.8084273,13.0280719 L15.7424565,13.0998508 L15.7155582,13.1235266 L13.9539981,14.7493104 C13.5917555,15.0835632 13.0089095,15.0835632 12.6466669,14.7493104 L12.5683646,14.667433 C12.2812564,14.3262851 12.3073571,13.830829 12.6466669,13.5177371 L12.8102955,13.3670147 L10.330236,13.3679373 C9.81808345,13.3679373 9.4,12.9815085 9.4,12.5007306 L9.406281,12.3992573 C9.4602055,11.9667201 9.8546593,11.6335238 10.330147,11.6335238 L12.811232,11.6329737 L12.646887,11.4824658 C12.2790813,11.1430801 12.2790813,10.5898724 12.6466669,10.2506896 C13.0089095,9.91643681 13.5917555,9.91643681 13.9539981,10.2506896 Z" id="我发送的消息" fill="#3B8FD9" fill-rule="nonzero"></path>
            </g>
        </g>
    </g>
</svg>