<?xml version="1.0" encoding="UTF-8"?>
<svg width="16px" height="16px" viewBox="0 0 16 16" version="1.1" xmlns="http://www.w3.org/2000/svg" xmlns:xlink="http://www.w3.org/1999/xlink">
    <title>15-图标/4操作/删除</title>
    <g id="平台icon231127" stroke="none" stroke-width="1" fill="none" fill-rule="evenodd">
        <g id="平台icon231128" transform="translate(-136, -328)">
            <g id="15-图标/4操作/删除" transform="translate(136, 328)">
                <rect id="_mockplus_fix_" x="0" y="0" width="16" height="16"></rect>
                <rect id="_mockplus_fix_" x="0" y="0" width="16" height="16"></rect>
                <path d="M8,0 C12.41125,0 16,3.58875 16,8 C16,12.41125 12.41125,16 8,16 C3.58875,16 0,12.41125 0,8 C0,3.58875 3.58875,0 8,0 Z M8,1.59984375 C4.47109375,1.59984375 1.6,4.4709375 1.6,7.99984375 C1.6,11.52875 4.47109375,14.4001563 8,14.4001563 C11.5289063,14.4001563 14.4001563,11.5289063 14.4001563,8 C14.4001563,4.47109375 11.5289063,1.59984375 8,1.59984375 Z M11.203125,7.2 C11.4150119,7.2 11.6181752,7.28438344 11.7677085,7.43450305 C11.9172417,7.58462267 12.0008309,7.78811468 12.0000061,8 C12.0000061,8.441875 11.6354687,8.8 11.203125,8.8 L4.796875,8.8 C4.58498805,8.8 4.38182475,8.71561656 4.23229155,8.56549695 C4.08275834,8.41537733 3.99916907,8.21188532 3.99999386,8 C3.99999386,7.558125 4.36453125,7.2 4.796875,7.2 L11.203125,7.2 Z" id="删除" fill="#F36969" fill-rule="nonzero"></path>
            </g>
        </g>
    </g>
</svg>