<?xml version="1.0" encoding="UTF-8"?>
<svg width="16px" height="16px" viewBox="0 0 16 16" version="1.1" xmlns="http://www.w3.org/2000/svg" xmlns:xlink="http://www.w3.org/1999/xlink">
    <title>15-图标/5功能/实际比例</title>
    <g id="平台icon231127" stroke="none" stroke-width="1" fill="none" fill-rule="evenodd">
        <g id="平台icon231128" transform="translate(-424, -376)">
            <g id="15-图标/5功能/实际比例" transform="translate(424, 376)">
                <rect id="_mockplus_fix_" x="0" y="0" width="16" height="16"></rect>
                <path d="M14.7282813,0 L1.27171875,0 C0.569367878,0 0,0.569367878 0,1.27171875 L0,14.7282813 C0,15.4306321 0.569367878,16 1.27171875,16 L14.7282813,16 C15.4306321,16 16,15.4306321 16,14.7282812 L16,1.27171875 C16,0.569367878 15.4306321,0 14.7282813,0 Z M14.4001563,14.4 L1.6,14.4 L1.6,1.6 L14.4,1.6 L14.4001563,14.4 Z M4.24484375,11.8029688 L5.69984375,11.8029688 L5.69984375,4.5309375 L2.79078125,4.5309375 L2.79078125,5.985 L4.24484375,5.985 L4.24484375,11.8029688 L4.24484375,11.8029688 Z M11.5157812,11.8029688 L12.9707812,11.8029688 L12.9707812,4.5309375 L10.061875,4.5309375 L10.061875,5.985 L11.5157812,5.985 L11.5157812,11.8029688 L11.5157812,11.8029688 Z M7.1528125,5.9859375 L8.6078125,5.9859375 L8.6078125,7.43890625 L7.1528125,7.43890625 L7.1528125,5.9859375 Z M7.1528125,8.89390625 L8.6078125,8.89390625 L8.6078125,10.3479687 L7.1528125,10.3479687 L7.1528125,8.89390625 Z" id="1比1" fill="#666666" fill-rule="nonzero"></path>
            </g>
        </g>
    </g>
</svg>