<?xml version="1.0" encoding="UTF-8"?>
<svg width="16px" height="16px" viewBox="0 0 16 16" version="1.1" xmlns="http://www.w3.org/2000/svg" xmlns:xlink="http://www.w3.org/1999/xlink">
    <title>15-图标/5功能/添加</title>
    <g id="平台icon231127" stroke="none" stroke-width="1" fill="none" fill-rule="evenodd">
        <g id="平台icon231128" transform="translate(-712, -376)">
            <g id="15-图标/5功能/添加" transform="translate(712, 376)">
                <rect id="_mockplus_fix_" x="0" y="0" width="16" height="16"></rect>
                <rect id="_mockplus_fix_" x="0" y="0" width="16" height="16"></rect>
                <path d="M7.00152397,7.00152397 L7.00152397,0.998476027 C7.00152397,0.447032944 7.44855692,0 8,0 C8.55144308,0 8.99847603,0.447032944 8.99847603,0.998476027 L8.99847603,7.00152397 L15.001524,7.00152397 C15.5529671,7.00152397 16,7.44855692 16,8 C16,8.55144308 15.5529671,8.99847603 15.001524,8.99847603 L8.99847603,8.99847603 L8.99847603,15.001524 C8.99847603,15.5529671 8.55144308,16 8,16 C7.44855692,16 7.00152397,15.5529671 7.00152397,15.001524 L7.00152397,8.99847603 L0.998476027,8.99847603 C0.447032944,8.99847603 0,8.55144308 0,8 C0,7.44855692 0.447032944,7.00152397 0.998476027,7.00152397 L7.00152397,7.00152397 Z" id="新增" fill="#666666" fill-rule="nonzero"></path>
            </g>
        </g>
    </g>
</svg>