<?xml version="1.0" encoding="UTF-8"?>
<svg width="16px" height="16px" viewBox="0 0 16 16" version="1.1" xmlns="http://www.w3.org/2000/svg" xmlns:xlink="http://www.w3.org/1999/xlink">
    <title>15-图标/4操作/新增</title>
    <g id="平台icon231127" stroke="none" stroke-width="1" fill="none" fill-rule="evenodd">
        <g id="平台icon231128" transform="translate(-88, -328)">
            <g id="15-图标/4操作/新增" transform="translate(88, 328)">
                <rect id="_mockplus_fix_" x="0" y="0" width="16" height="16"></rect>
                <rect id="_mockplus_fix_" x="0" y="0" width="16" height="16"></rect>
                <path d="M15.3668987,4.88896932 C17.0871784,8.95920424 15.1809647,13.6513023 11.1107298,15.371582 C10.1248111,15.7871991 9.0654563,16.0012575 7.99672667,15.9997035 C3.57806089,15.9965701 -0.00312085598,12.4138259 2.04089177e-06,7.99516011 C0.00156655467,4.78428381 1.92496739,1.88433908 4.88272352,0.632800439 C8.95295844,-1.0859168 13.646619,0.818734395 15.3668987,4.88896932 Z M7.99672667,1.78119111 C4.56085465,1.78119111 1.77497025,4.56553798 1.77497025,8.00140999 C1.77497025,11.437282 4.56085465,14.2216039 7.99672667,14.2216039 C11.4325987,14.2216039 14.2184831,11.437282 14.2184831,8.00140999 C14.2184831,6.35144144 13.5622456,4.77022158 12.3966428,3.60305633 C11.23104,2.43276613 9.64825769,1.77652864 7.99672667,1.78119111 Z M8.88733469,4.44522777 L8.88733469,7.11080197 L11.5529089,7.11080197 L11.5529089,8.88889308 L8.89045963,8.88889308 L8.89045963,11.5544673 L7.11080605,11.5544673 L7.11080605,8.88889308 L4.44523186,8.88889308 L4.44523186,7.11080197 L7.11080605,7.11080197 L7.11080605,4.44522777 L8.88733469,4.44522777 Z" id="新增" fill="#3B8FD9" fill-rule="nonzero"></path>
            </g>
        </g>
    </g>
</svg>