<?xml version="1.0" encoding="UTF-8"?>
<svg width="16px" height="16px" viewBox="0 0 16 16" version="1.1" xmlns="http://www.w3.org/2000/svg" xmlns:xlink="http://www.w3.org/1999/xlink">
    <title>预览</title>
    <g id="平台icon231127" stroke="none" stroke-width="1" fill="none" fill-rule="evenodd">
        <g id="平台icon231128" transform="translate(-328, -280)">
            <g id="预览" transform="translate(327.9998, 280)">
                <rect id="_mockplus_fix_" x="0" y="0" width="15.9998919" height="15.9999135"></rect>
                <path d="M1.0404254,10.8950762 C1.61425936,10.8950762 2.0808508,11.3618845 2.0808508,11.9357193 L2.0808508,13.9188437 L4.06397254,13.9188437 C4.6378065,13.9188437 5.10461416,14.385652 5.10461416,14.9592705 C5.10461416,15.532889 4.6378065,15.9999135 4.06397254,15.9999135 L1.44582807,15.9999135 C0.648644266,15.9999135 0,15.3512684 0,14.5538673 L0,11.9357193 C0,11.3618845 0.466591442,10.8950762 1.0404254,10.8950762 Z M14.9592503,10.8950762 C15.532868,10.8950762 15.9998919,11.3618845 15.9998919,11.9357193 L15.9998919,14.5538673 C15.9998919,15.3512684 15.3512476,15.9999135 14.5538476,15.9999135 L11.9357031,15.9999135 C11.3618692,15.9999135 10.8950615,15.532889 10.8950615,14.9592705 C10.8950615,14.385652 11.3618692,13.9188437 11.9357031,13.9188437 L13.9188249,13.9188437 L13.9188249,11.9357193 C13.9188249,11.3618845 14.3856325,10.8950762 14.9592503,10.8950762 Z M7.99972973,4.30389025 C9.90523037,4.30389025 11.657651,5.27080394 13.2083432,7.17803688 C13.5962325,7.65349376 13.5962325,8.34451706 13.2083432,8.82040638 C11.6580834,10.728288 9.9056628,11.6958503 7.99972973,11.6958503 C6.09444531,11.6958503 4.34202472,10.7287204 2.79111628,8.82170367 C2.40344322,8.34603056 2.40344322,7.65522349 2.79154871,7.17955038 C4.34159229,5.27145259 6.09401288,4.30389025 7.99972973,4.30389025 Z M7.99972973,6.22128529 C6.82222417,6.22128529 5.73769096,6.8033362 4.68861697,7.99987027 C5.73769096,9.19640434 6.82222417,9.77867147 7.99972973,9.77867147 C9.1774515,9.77867147 10.2617685,9.19640434 11.3108425,8.00008649 C10.2606874,6.80355241 9.175938,6.22128529 7.99972973,6.22128529 Z M7.99983784,6.50026757 C8.82945385,6.50026757 9.50253039,7.17204772 9.50253039,8.00144864 C9.50253039,8.82955227 8.82945385,9.50133242 7.99983784,9.50133242 C7.46340903,9.50133242 6.96741238,9.21592856 6.69844123,8.75128243 C6.42947007,8.28706872 6.42947007,7.71453127 6.69844123,7.25010135 C6.96741238,6.78567143 7.46340903,6.50026757 7.99983784,6.50026757 Z M7.99983784,7.57918065 C7.76675833,7.57918065 7.57908392,7.76707153 7.57908392,7.99993514 C7.57908392,8.23150145 7.76675833,8.42090583 7.99983784,8.42090583 C8.23270113,8.42090583 8.42059175,8.23301496 8.42059175,7.99993514 C8.42059175,7.76858503 8.23270113,7.57918065 7.99983784,7.57918065 Z M4.06397254,0 C4.6378065,0 5.10461416,0.466592072 5.10461416,1.04042681 C5.10461416,1.61426154 4.6378065,2.08106983 4.06397254,2.08106983 L2.0808508,2.08106983 L2.0808508,4.06419425 C2.0808508,4.63781277 1.61425936,5.10462106 1.0404254,5.10462106 C0.466591442,5.10462106 0,4.63781277 0,4.06419425 L0,1.44583002 C0,0.648645142 0.648644266,0 1.44582807,0 L4.06397254,0 Z M14.5538476,0 C15.3512476,0 15.9998919,0.648645142 15.9998919,1.44583002 L15.9998919,4.06419425 C15.9998919,4.63781277 15.532868,5.10462106 14.9592503,5.10462106 C14.3856325,5.10462106 13.9188249,4.63781277 13.9188249,4.06419425 L13.9188249,2.08106983 L11.9357031,2.08106983 C11.3618692,2.08106983 10.8950615,1.61426154 10.8950615,1.04042681 C10.8950615,0.466592072 11.3618692,0 11.9357031,0 L14.5538476,0 Z" id="形状结合" fill="#3B8FD9"></path>
            </g>
        </g>
    </g>
</svg>