<?xml version="1.0" encoding="UTF-8"?>
<svg width="16px" height="16px" viewBox="0 0 16 16" version="1.1" xmlns="http://www.w3.org/2000/svg" xmlns:xlink="http://www.w3.org/1999/xlink">
    <title>15-图标/2提示/疑问</title>
    <g id="平台icon231127" stroke="none" stroke-width="1" fill="none" fill-rule="evenodd">
        <g id="平台icon231128" transform="translate(-520, -232)">
            <g id="15-图标/2提示/疑问" transform="translate(520, 232)">
                <rect id="_mockplus_fix_" x="0" y="0" width="16" height="16"></rect>
                <path d="M8,0 C12.41875,0 16,3.5828125 16,8 C16,12.4171875 12.41875,16 8,16 C3.58125,16 0,12.41875 0,8 C0,3.58125 3.58125,0 8,0 Z M8,1.340625 C4.3234375,1.340625 1.340625,4.321875 1.340625,8 C1.340625,11.678125 4.321875,14.659375 8,14.659375 C11.678125,14.659375 14.659375,11.678125 14.659375,8 C14.659375,4.321875 11.6765625,1.340625 8,1.340625 Z M8.0984375,11.0046875 C8.5140625,11.0046875 8.8515625,11.3421875 8.8515625,11.759375 C8.8515625,11.959375 8.771875,12.1515625 8.63125,12.2921875 C8.4890625,12.434375 8.296875,12.5140625 8.096875,12.5125 C7.68125,12.5125 7.34375,12.175 7.34375,11.7578125 C7.34375,11.340625 7.68125,11.0046875 8.0984375,11.0046875 Z M10.50625,6.196875 C10.4296875,6.946875 9.921875,7.5125 9.4515625,8.0125 C9.4515625,8.0125 8.7578125,8.65 8.721875,9.2484375 L8.7109375,10.096875 C8.7109375,10.2296875 8.534375,10.4125 8.396875,10.4953125 C8.2828125,10.5640625 8.09375,10.584375 7.959375,10.584375 C7.68125,10.584375 7.3515625,10.359375 7.3515625,10.08125 L7.3515625,9.2296875 C7.3515625,8.478125 7.79375,7.9546875 8.303125,7.3578125 C8.6625,6.9359375 8.91875,6.721875 9.065625,6.29375 C9.3453125,5.478125 8.8953125,4.8171875 8.0171875,4.846875 C7.171875,4.8765625 6.890625,5.484375 6.8515625,5.996875 C6.809375,6.55 6.359375,6.625 6.065625,6.6140625 C5.79375,6.6046875 5.46875,6.29375 5.4765625,6.021875 C5.53125,4.334375 6.54375,3.5625 7.9265625,3.490625 C9.321875,3.4171875 10.690625,4.40625 10.50625,6.196875 Z" id="疑问" fill="#45A8E6" fill-rule="nonzero"></path>
            </g>
        </g>
    </g>
</svg>