<?xml version="1.0" encoding="UTF-8"?>
<svg width="16px" height="16px" viewBox="0 0 16 16" version="1.1" xmlns="http://www.w3.org/2000/svg" xmlns:xlink="http://www.w3.org/1999/xlink">
    <title>15-图标/4操作/刷新</title>
    <g id="平台icon231127" stroke="none" stroke-width="1" fill="none" fill-rule="evenodd">
        <g id="平台icon231128" transform="translate(-808, -280)">
            <g id="15-图标/4操作/刷新" transform="translate(808, 280)">
                <rect id="_mockplus_fix_" x="0" y="0" width="16" height="16"></rect>
                <rect id="_mockplus_fix_" x="0" y="0" width="16" height="16"></rect>
                <path d="M15.9608783,9.23746576 L14.6702581,6.00310275 C14.5530711,5.71091633 14.290572,5.66247901 14.0858853,5.90466561 L11.9015184,8.48434355 C11.6968316,8.72653015 11.7858938,8.96871675 12.0999551,9.02652904 L12.6562031,9.12809116 C12.137455,11.4530825 10.0499627,13.1921386 7.55153451,13.1921386 C4.66404521,13.1921386 2.32342889,10.8671472 2.32342889,7.99997035 C2.32342889,5.13279347 4.66404521,2.80780209 7.55153451,2.80780209 C8.71559269,2.8062396 9.84840099,3.19217567 10.7655851,3.90311053 C11.0921464,4.15623459 11.5312073,4.21873436 11.9171433,4.06404744 C12.3015169,3.90936051 12.5749534,3.56248679 12.6327657,3.15467581 C12.690578,2.74686482 12.5249536,2.33905383 12.1968298,2.08436727 C10.867659,1.05438421 9.23306668,0.496874423 7.55153451,0.499985091 C3.38123747,0.499985091 0,3.8577982 0,7.99997035 C0,12.1421425 3.38123747,15.4999425 7.55153451,15.4999425 C11.1874585,15.4999425 14.2233848,12.946827 14.9421321,9.54840211 L15.6046297,9.67027665 C15.918691,9.72808894 16.0796279,9.53277716 15.9608783,9.23746576 Z" id="刷新" fill="#3B8FD9" fill-rule="nonzero"></path>
            </g>
        </g>
    </g>
</svg>