<?xml version="1.0" encoding="UTF-8"?>
<svg width="16px" height="16px" viewBox="0 0 16 16" version="1.1" xmlns="http://www.w3.org/2000/svg" xmlns:xlink="http://www.w3.org/1999/xlink">
    <title>15-图标/5功能/替换图片</title>
    <g id="平台icon231127" stroke="none" stroke-width="1" fill="none" fill-rule="evenodd">
        <g id="平台icon231128" transform="translate(-472, -376)">
            <g id="15-图标/5功能/替换图片" transform="translate(472, 376)">
                <rect id="_mockplus_fix_" x="0" y="0" width="16" height="16"></rect>
                <path d="M9.93129771,1.30774372 C11.7908397,1.49412776 13.2824428,2.6139597 13.6015267,4.53432636 L12.5251908,4.53432636 L14.2618321,7.12078677 L16,4.53432636 L14.8015267,4.53432636 C14.4824427,1.9486298 12.5259542,0.267354143 10.0534351,0.0274992839 C9.71145038,0.000763874964 9.39389313,0.29408957 9.39389313,0.666857634 C9.4167939,0.987682612 9.63740459,1.28024443 9.93129771,1.30774372 L9.93129771,1.30774372 Z M7.24045801,0 L1.19847327,0 C0.855725185,0 0.587022889,0.29408957 0.587022889,0.666857634 L0.587022889,6.42719373 C0.587022889,6.80072567 0.855725185,7.09405136 1.19770992,7.09405136 L7.24045801,7.09405136 C7.58244275,7.09405136 7.85190839,6.80072567 7.85190839,6.42719373 L7.85190839,0.667621491 C7.85190839,0.293325677 7.58244275,0.000763857061 7.24045801,0.000763857061 L7.24045801,0 Z M6.65267176,5.81380693 L1.78549618,5.81380693 L1.78549618,1.28100831 L6.65419847,1.28100831 L6.65419847,5.81457079 L6.65267176,5.81457079 L6.65267176,5.81380693 Z M6.06564885,14.6678125 C3.98625954,14.4814284 2.39541985,13.0942423 2.32213741,10.8003437 L3.47175573,10.8003437 L1.73740457,8.21541106 L0,10.8018715 L1.14961832,10.8018715 C1.19770992,13.7626277 3.27709924,15.6814666 5.94503817,15.9480569 C6.28778626,15.9747923 6.60616292,15.6814666 6.60616292,15.3079347 C6.61028685,14.9901122 6.38024988,14.717595 6.06641222,14.6685763 L6.06564885,14.6678125 Z M14.8251908,8.88074094 L8.78167939,8.88074094 C8.43816794,8.88074094 8.170229,9.17483051 8.170229,9.54759857 L8.170229,15.3346701 C8.170229,15.7074382 8.43816794,16 8.78167939,16 L14.8236641,16 C15.1664122,16 15.4343571,15.7074382 15.4343571,15.3346701 L15.4343571,9.54683472 C15.4358779,9.17483051 15.1419847,8.88074094 14.8251908,8.88074094 L14.8251908,8.88074094 Z M14.2366412,14.693784 L9.36870229,14.693784 L9.36870229,10.1869569 L14.2366412,10.1869569 L14.2366412,14.693784 Z" id="替换图片" fill="#666666" fill-rule="nonzero"></path>
            </g>
        </g>
    </g>
</svg>