<?xml version="1.0" encoding="UTF-8"?>
<svg width="16px" height="16px" viewBox="0 0 16 16" version="1.1" xmlns="http://www.w3.org/2000/svg" xmlns:xlink="http://www.w3.org/1999/xlink">
    <title>15-图标/5功能/旋转逆</title>
    <g id="平台icon231127" stroke="none" stroke-width="1" fill="none" fill-rule="evenodd">
        <g id="平台icon231128" transform="translate(-520, -376)">
            <g id="15-图标/5功能/旋转逆" transform="translate(520, 376)">
                <rect id="_mockplus_fix_" x="0" y="0" width="16" height="16"></rect>
                <path d="M13.8164062,6.74875 C13.7678646,7.31520833 13.4605729,7.6225 12.8945312,7.670625 C12.3443229,7.6221875 12.045,7.31489583 11.9965625,6.74875 C12.0451042,6.19885417 12.3444271,5.89953125 12.8945312,5.85078125 C13.4604688,5.89942708 13.7677604,6.19875 13.8164062,6.74875 L13.8164062,6.74875 Z M12.2875,6.74875 C12.3361458,7.13697917 12.5383854,7.35536458 12.8942188,7.40390625 C13.2498438,7.37171875 13.4520833,7.15333333 13.5009375,6.74875 C13.4523958,6.36041667 13.2501563,6.15010417 12.8942188,6.1178125 C12.5376562,6.16625 12.3354167,6.3765625 12.2875,6.74875 Z M11.365625,8.03484375 C11.349375,9.65276042 10.8233333,10.4778646 9.7875,10.5101563 C8.7034375,10.4939063 8.16145833,9.66880208 8.1615625,8.03484375 C8.1778125,6.40098958 8.711875,5.5596875 9.76375,5.5109375 C10.8152083,5.54364583 11.3490625,6.38494792 11.3653125,8.03484375 L11.365625,8.03484375 Z M8.72046875,8.03484375 C8.72046875,9.42640625 9.06833333,10.1139063 9.7640625,10.0973438 C10.459375,10.1135937 10.8071875,9.42609375 10.8075,8.03484375 C10.8075,6.62734375 10.4515625,5.93166667 9.7396875,5.9478125 C9.07604167,5.99635417 8.73619792,6.69203125 8.72015625,8.03484375 L8.72046875,8.03484375 Z M5.83265625,8.81140625 C4.92640625,8.73067708 4.43296875,8.19677083 4.35234375,7.2096875 C4.41692708,6.15833333 4.94296875,5.59208333 5.93046875,5.5109375 C7.06276042,5.49520833 7.6209375,6.29609375 7.605,7.91359375 C7.605,9.62859375 7.01447917,10.4941146 5.8334375,10.5101563 C5.12125,10.4774479 4.668125,10.1296354 4.4740625,9.46671875 L4.98296875,9.296875 C5.09588542,9.86333333 5.39520833,10.1383333 5.8809375,10.121875 C6.64135417,10.0896875 7.02963542,9.41828125 7.04578125,8.10765625 C6.80296875,8.57703125 6.39848958,8.81161458 5.83234375,8.81140625 L5.83265625,8.81140625 Z M5.88125,5.9721875 C5.26604167,6.020625 4.934375,6.41697917 4.88625,7.16125 C4.9184375,7.905625 5.25010417,8.30197917 5.88125,8.3503125 C6.5121875,8.3503125 6.90046875,8.05911458 7.04609375,7.47671875 C7.04588542,6.45755208 6.6575,5.95604167 5.8809375,5.9721875 L5.88125,5.9721875 Z M16,8 C16,3.58875 12.4110937,0 8,0 C5.533125,0 3.32390625,1.12265625 1.8553125,2.88359375 L1.8553125,0.826875 L1.118125,1.57484375 L1.13546875,4.19984375 L3.76046875,4.17890625 L4.4965625,3.431875 L4.36921875,3.431875 L2.48515625,3.4475 C3.79796875,1.85796875 5.78234375,0.84375 8,0.84375 C11.9460937,0.84375 15.15625,4.05390625 15.15625,8 C15.15625,11.9460937 11.9460937,15.15625 8,15.15625 C4.05390625,15.15625 0.84375,11.9460937 0.84375,8 L0.84375,7.984375 L0,7.984375 L0,8 C0,12.4115625 3.5884375,16 8,16 C12.4115625,16 16,12.41125 16,8 Z" id="逆时针" fill="#666666" fill-rule="nonzero"></path>
            </g>
        </g>
    </g>
</svg>