<?xml version="1.0" encoding="UTF-8"?>
<svg width="16px" height="16px" viewBox="0 0 16 16" version="1.1" xmlns="http://www.w3.org/2000/svg" xmlns:xlink="http://www.w3.org/1999/xlink">
    <title>15-图标/5功能/搜索</title>
    <g id="平台icon231127" stroke="none" stroke-width="1" fill="none" fill-rule="evenodd">
        <g id="平台icon231128" transform="translate(-328, -376)">
            <g id="15-图标/5功能/搜索" transform="translate(328, 376)">
                <rect id="_mockplus_fix_" x="0" y="0" width="16" height="16"></rect>
                <rect id="_mockplus_fix_" x="0" y="0" width="16" height="16"></rect>
                <path d="M15.605107,13.7552425 L11.4397871,9.68054097 C12.1569221,8.6806142 12.5803286,7.46664063 12.5803286,6.15579914 C12.5803286,2.76229769 9.75866027,0 6.2901643,0 C2.82166833,0 0,2.76386006 0,6.15736152 C0,9.55086297 2.82166833,12.3131607 6.2901643,12.3131607 C7.40570759,12.3131607 8.50093988,12.0209946 9.46649416,11.4632229 C9.47430608,11.4710348 9.47899323,11.4788468 9.48680517,11.4866587 L13.7068086,15.6144814 C14.2348949,16.1285062 15.0770207,16.1285062 15.605107,15.6144814 C16.1175695,15.1176427 16.131631,14.2973903 15.63323,13.7849279 C15.6254181,13.7739912 15.6144814,13.7646168 15.605107,13.7552425 Z M2.30139394,6.15736152 C2.30139394,4.0043942 4.09032541,2.25452238 6.2901643,2.25452238 C8.49000319,2.25452238 10.2789346,4.0043942 10.2789346,6.15736152 C10.2789346,8.31032883 8.49000317,10.0602007 6.2901643,10.0602007 C4.09032542,10.0602007 2.30139394,8.31032884 2.30139394,6.15736152 Z" id="形状" fill="#CCCCCC" fill-rule="nonzero"></path>
            </g>
        </g>
    </g>
</svg>