<?xml version="1.0" encoding="UTF-8"?>
<svg width="16px" height="16px" viewBox="0 0 16 16" version="1.1" xmlns="http://www.w3.org/2000/svg" xmlns:xlink="http://www.w3.org/1999/xlink">
    <title>设置</title>
    <g id="平台icon231127" stroke="none" stroke-width="1" fill="none" fill-rule="evenodd">
        <g id="平台icon231128" transform="translate(-280, -280)">
            <g id="设置" transform="translate(279.9999, 280)">
                <rect id="_mockplus_fix_" x="0" y="0" width="16" height="16.0000186"></rect>
                <path d="M8.03532129,6.34563928 C7.14201223,6.34563928 6.41529981,7.08449245 6.41529981,7.9925572 C6.41529981,8.90080871 7.14201223,9.63966188 8.03532129,9.63966188 C8.92863034,9.63966188 9.655156,8.90080871 9.655156,7.9925572 C9.655156,7.08449245 8.92863034,6.34563928 8.03532129,6.34563928 L8.03532129,6.34563928 Z M8.03532129,11.485861 C6.12674399,11.485861 4.57395882,9.92112086 4.57395882,7.99759993 C4.57395882,6.07407899 6.12674399,4.50915211 8.03532129,4.50915211 C9.94389859,4.50915211 11.4968705,6.0751996 11.4968705,8.00002791 C11.4968705,9.9220547 9.94389859,11.485861 8.03532129,11.485861 L8.03532129,11.485861 Z M5.40768903,11.4711063 C5.7207114,11.7086749 6.0479281,11.8989912 6.38037428,12.0375729 C6.66668889,12.1496335 6.88296568,12.4239953 6.93451352,12.749158 L7.13454153,14.1661648 L8.93105832,14.1388967 L9.12492301,12.7583096 C9.17105458,12.4462207 9.37817976,12.1739133 9.66598851,12.043923 L9.68578587,12.0353317 C10.004598,11.9066487 10.3320015,11.7153985 10.6590314,11.4668107 C10.8110602,11.344291 11.0142632,11.2716384 11.2197075,11.2716384 C11.3424138,11.2716384 11.4621318,11.2964785 11.5762467,11.3452249 L12.8705456,11.870229 L13.7573178,10.2436687 L12.6370862,9.38864604 C12.3959694,9.18656335 12.2713954,8.87970395 12.3040798,8.56836213 C12.3263051,8.39597551 12.3500246,8.18716918 12.3500246,7.98527326 C12.3500246,7.7835641 12.3263051,7.57475777 12.3057607,7.41525812 C12.2596291,7.092897 12.3942885,6.76474609 12.6578174,6.56527814 L13.7629209,5.69438018 L12.8221729,4.10237198 L11.5603715,4.64511902 L11.5474845,4.64978822 C11.4425212,4.68882267 11.3323283,4.70862005 11.2200811,4.70862005 C11.0172515,4.70862005 10.81685,4.64138367 10.6554828,4.5196111 C10.3422737,4.27494537 10.0148702,4.08182753 9.67551366,3.94044435 C9.38901228,3.8278234 9.17273549,3.55364836 9.12137442,3.22885926 L8.92134641,1.81166567 L7.10092338,1.83912052 L6.93992978,3.20775451 C6.89193052,3.53217007 6.68480534,3.80447743 6.39699659,3.93428101 C6.05745324,4.0779054 5.72724826,4.27289092 5.40414045,4.51867727 C5.25211169,4.6411969 5.04890862,4.71366278 4.84346435,4.71366278 C4.72113163,4.71366278 4.60141364,4.68900944 4.48729869,4.64044983 L3.19094532,4.11432511 L2.29987748,5.73528231 L3.39956465,6.57405623 C3.67187169,6.78697145 3.80018098,7.10821196 3.74807284,7.43729671 C3.72958286,7.58241524 3.70567661,7.79196865 3.70567661,7.9925572 C3.70567661,8.19351928 3.72958286,8.40288592 3.75031405,8.5627591 C3.79644563,8.88474668 3.66178625,9.21308437 3.39788374,9.41255231 L2.29240678,10.2840106 L3.23427539,11.8825557 L4.48337657,11.3455984 C4.60216071,11.2975991 4.71814334,11.2755605 4.8391687,11.2755605 C5.05096307,11.2755605 5.24725573,11.3431704 5.40768903,11.4711063 L5.40768903,11.4711063 Z M6.6315766,16.0000372 C5.99918177,16.0000372 5.47062969,15.5458181 5.37481795,14.9197726 L5.17759145,13.5236838 C5.02350824,13.4407589 4.87166625,13.3509236 4.72019779,13.2526838 L3.44382855,13.7702172 C3.29105272,13.831477 3.13267386,13.8621069 2.97111995,13.8621069 C2.51988962,13.8621069 2.09872886,13.6185618 1.87199309,13.2267231 L0.469555774,10.7768906 C0.161015829,10.2347039 0.285589766,9.55412226 0.76520876,9.15724081 L1.86358855,8.28615608 C1.85910613,8.19669434 1.85705169,8.10405754 1.85705169,8.00488387 C1.85705169,7.90701757 1.86022674,7.81400724 1.86508269,7.7251058 L0.781457534,6.86709481 C0.286523603,6.46797215 0.156720176,5.78234778 0.468995472,5.2339977 L1.87348723,2.78472558 C2.08976402,2.3979296 2.52605295,2.14485931 2.98269954,2.14485931 C3.13939749,2.14485931 3.29179979,2.17380831 3.43542401,2.23095924 L4.71422123,2.74942648 C4.86363524,2.65249402 5.01585077,2.56247197 5.17292226,2.47823972 L5.36902816,1.09335694 C5.47305767,0.455171583 6.00123621,1.86046728e-05 6.62672064,1.86046728e-05 L9.42431134,1.86046728e-05 C10.0445663,1.86046728e-05 10.5848847,0.463576131 10.68107,1.07841553 L10.8781097,2.47132932 C11.0321929,2.55425419 11.1842217,2.64427624 11.3356902,2.74232931 L12.6120594,2.22498267 C12.7721192,2.16278901 12.9303112,2.13290618 13.0899975,2.13290618 C13.5380528,2.13290618 13.9573458,2.37645131 14.1838949,2.76847679 L15.5863322,5.21830921 C15.8950589,5.76030919 15.7704849,6.4410776 15.2908659,6.83795904 L14.1924862,7.708857 C14.1967818,7.79813198 14.1988363,7.89095555 14.1988363,7.99012922 C14.1988363,8.08930289 14.1956612,8.18306029 14.1908052,8.27233527 L15.2727495,9.14267293 C15.7654422,9.55281488 15.8918838,10.2375054 15.5803556,10.7765171 L14.1881905,13.22112 C13.9575326,13.618375 13.5346909,13.862854 13.0825268,13.862854 C12.9123816,13.862854 12.7534424,13.8329711 12.6103785,13.7743261 L11.3373711,13.2521235 C11.1922527,13.346628 11.0396636,13.4364632 10.8781097,13.5221896 L10.6820038,14.9065121 C10.5904877,15.5310634 10.0499825,16.0000372 9.42431134,16.0000372 L6.6315766,16.0000372 Z" id="Fill-1" fill="#3B8FD9"></path>
            </g>
        </g>
    </g>
</svg>