<?xml version="1.0" encoding="UTF-8"?>
<svg width="16px" height="16px" viewBox="0 0 16 16" version="1.1" xmlns="http://www.w3.org/2000/svg" xmlns:xlink="http://www.w3.org/1999/xlink">
    <title>15-图标/4操作/禁用</title>
    <g id="平台icon231127" stroke="none" stroke-width="1" fill="none" fill-rule="evenodd">
        <g id="平台icon231128" transform="translate(-904, -280)">
            <g id="15-图标/4操作/禁用" transform="translate(904, 280)">
                <rect id="_mockplus_fix_" x="0" y="0" width="16" height="16"></rect>
                <rect id="_mockplus_fix_" x="0" y="0" width="16" height="16"></rect>
                <path d="M0,8 C0,3.5828125 3.58125,0 8,0 C12.41875,0 16,3.5828125 16,8 C16,12.4171875 12.4171875,16 8,16 C3.5828125,16 0,12.4203125 0,8 Z M11.15625,12.7609375 L3.240625,4.8453125 C2.6171875,5.7796875 2.284375,6.878125 2.28593202,8 C2.28593202,11.15625 4.84375,13.715625 8,13.715625 C9.1234375,13.715625 10.221875,13.384375 11.15625,12.7609375 Z M4.8453125,3.240625 L12.7609375,11.1546875 C13.3828125,10.2203125 13.7140625,9.1234375 13.7140625,8 C13.7140625,4.84375 11.15625,2.2859375 8,2.2859375 C6.878125,2.2859375 5.7796875,2.61875 4.8453125,3.240625 Z" id="禁用" fill="#3B8FD9" fill-rule="nonzero"></path>
            </g>
        </g>
    </g>
</svg>