<?xml version="1.0" encoding="UTF-8"?>
<svg width="16px" height="16px" viewBox="0 0 16 16" version="1.1" xmlns="http://www.w3.org/2000/svg" xmlns:xlink="http://www.w3.org/1999/xlink">
    <title>15-图标/4操作/上传</title>
    <g id="平台icon231127" stroke="none" stroke-width="1" fill="none" fill-rule="evenodd">
        <g id="平台icon231128" transform="translate(-520, -280)">
            <g id="15-图标/4操作/上传" transform="translate(520, 280)">
                <rect id="_mockplus_fix_" x="0" y="1.11594204e-07" width="16" height="16"></rect>
                <rect id="_mockplus_fix_" x="0" y="1.11594204e-07" width="16" height="16"></rect>
                <path d="M1.71435829,10.2857144 C2.02986291,10.2857144 2.28566459,10.54154 2.28566459,10.8570514 L2.28566459,12.571447 C2.28566459,13.2027079 2.79728628,13.7143224 3.4284969,13.7143224 L12.5714848,13.7143224 C13.2027137,13.7143224 13.7143171,13.202708 13.7143171,12.571447 L13.7143171,10.8570514 C13.7143171,10.5415399 13.9701371,10.2857144 14.2858248,10.2857144 L15.4286754,10.2857144 C15.74418,10.2857144 16,10.54154 16,10.8570514 L16,13.7143224 C16,14.9768627 14.976775,16.0000001 13.7143171,16.0000001 L2.28566459,16.0000001 C1.02342643,16.0000001 0,14.9768627 0,13.7143041 L0,10.8570514 C0,10.5415399 0.256003083,10.2857144 0.5713063,10.2857144 L1.71435829,10.2857144 Z M8.00648034,1.11594204e-07 C8.37973661,0.000164779808 8.75068098,0.224321334 8.77130337,0.244652653 L13.5391294,4.95791901 C13.7726712,5.18898675 13.7726712,5.56334282 13.5391294,5.79422773 L12.6930004,6.63073757 C12.4594586,6.86156763 12.0807277,6.86156763 11.8471859,6.63073757 L9.15465815,3.9690339 L9.15465815,9.71490137 C9.15465815,10.0299821 8.89605504,10.2857144 8.5772678,10.2857144 L7.42276455,10.2857144 C7.10406979,10.2857144 6.84559616,10.0299821 6.84559616,9.71490137 L6.84559616,3.9690339 L4.1530684,6.63073757 C3.91950811,6.86156763 3.54061072,6.86156763 3.30706893,6.63073757 L2.46088451,5.79422773 C2.22732421,5.56334282 2.22732421,5.18900503 2.46088451,4.95791901 L7.22891395,0.244652653 C7.24955486,0.224083647 7.62915506,-0.000182611256 8.00648034,1.11594204e-07 Z" id="上传" fill="#3B8FD9" fill-rule="nonzero"></path>
            </g>
        </g>
    </g>
</svg>