<?xml version="1.0" encoding="UTF-8"?>
<svg width="16px" height="16px" viewBox="0 0 16 16" version="1.1" xmlns="http://www.w3.org/2000/svg" xmlns:xlink="http://www.w3.org/1999/xlink">
    <title>15-图标/5功能/放大图片</title>
    <g id="平台icon231127" stroke="none" stroke-width="1" fill="none" fill-rule="evenodd">
        <g id="平台icon231128" transform="translate(-376, -376)">
            <g id="15-图标/5功能/放大图片" transform="translate(376, 376)">
                <rect id="_mockplus_fix_" x="0" y="0" width="16" height="16"></rect>
                <path d="M7.55555556,0 C11.6444444,0 15.0222222,3.30726253 15.0222222,7.5083798 C15.0222222,9.29608928 14.4,10.9050278 13.4222222,12.1564244 L15.7333333,14.4804468 C16.0888889,14.8379886 16.0888889,15.463687 15.7333333,15.7318434 C15.3777778,16.0893853 14.7555556,16.0893853 14.4,15.7318434 L12.0888889,13.4078211 C10.7555556,14.3910613 9.15555556,15.0167596 7.46666667,15.0167596 C3.37777778,15.0167596 0,11.6201116 0,7.5083798 C0,3.39664801 3.46666669,0 7.55555556,0 Z M7.46666667,1.51955305 C4.17777778,1.51955305 1.42222222,4.29050276 1.42222222,7.59776528 C1.42222222,10.9050278 4.08888889,13.6759775 7.46666667,13.6759775 C10.8444444,13.6759775 13.5111111,10.9050278 13.5111111,7.59776528 C13.5111111,4.29050275 10.7555556,1.51955305 7.46666667,1.51955305 Z M7.46857143,4.45714286 C7.8788401,4.45714286 8.21142857,4.78973133 8.21142857,5.2 L8.211,6.857 L9.86857143,6.85714286 C10.2788401,6.85714286 10.6114286,7.18973133 10.6114286,7.6 C10.6114286,8.01026867 10.2788401,8.34285714 9.86857143,8.34285714 L8.211,8.342 L8.21142857,10 C8.21142857,10.4102687 7.8788401,10.7428571 7.46857143,10.7428571 C7.05830276,10.7428571 6.72571429,10.4102687 6.72571429,10 L6.725,8.342 L5.06857143,8.34285714 C4.65830276,8.34285714 4.32571429,8.01026867 4.32571429,7.6 C4.32571429,7.18973133 4.65830276,6.85714286 5.06857143,6.85714286 L6.725,6.857 L6.72571429,5.2 C6.72571429,4.78973133 7.05830276,4.45714286 7.46857143,4.45714286 Z" id="放大图片" fill="#666666" fill-rule="nonzero"></path>
            </g>
        </g>
    </g>
</svg>