<?xml version="1.0" encoding="UTF-8"?>
<svg width="100px" height="100px" fill='currentColor' viewBox="0 0 100 100" version="1.1" xmlns="http://www.w3.org/2000/svg" xmlns:xlink="http://www.w3.org/1999/xlink">
    <g transform="translate(-515.000000, -320.000000)" fill-rule="nonzero" id="账户名">
        <g transform="translate(515.000000, 320.000000)">
            <rect id="矩形" fill="#000000" opacity="0" x="0" y="0" width="100" height="100"></rect>
            <path d="M51.171875,49.9609375 L53.3886719,47.7441406 C53.7109375,47.421875 53.7109375,46.8945312 53.3886719,46.5722656 C53.0664063,46.25 52.5390625,46.25 52.2167969,46.5722656 L50,48.7890625 L47.7832031,46.5820312 C47.4609375,46.2597656 46.9335938,46.2597656 46.6113281,46.5820312 C46.2890625,46.9042969 46.2890625,47.4316406 46.6113281,47.7539062 L48.828125,49.9707031 L46.6113281,52.1875 C46.2890625,52.5097656 46.2890625,53.0371094 46.6113281,53.359375 C46.9335938,53.6816406 47.4609375,53.6816406 47.7832031,53.359375 L50,51.1425781 L52.2167969,53.359375 C52.5390625,53.6816406 53.0664063,53.6816406 53.3886719,53.359375 C53.7109375,53.0371094 53.7109375,52.5097656 53.3886719,52.1875 L51.171875,49.9609375 Z M62.5878906,49.2089844 C70.3417969,44.6875 75.5761719,36.1328125 75.5761719,26.3183594 C75.5761719,11.7773438 64.1308594,0 49.9902344,0 C35.8496094,0 24.4042969,11.7773438 24.4042969,26.3183594 C24.4042969,36.1328125 29.6386719,44.6875 37.3925781,49.2089844 C18.0957031,54.84375 3.9453125,73.0664062 3.9453125,94.7363281 C3.9453125,97.6367188 6.23046875,100 9.0625,100 C9.07226562,100 9.09179687,99.9902344 9.1015625,99.9902344 L9.1015625,100 L90.8886719,100 L90.8886719,99.9902344 C90.8984375,99.9902344 90.9179688,100 90.9277344,100 C93.75,100 96.0449219,97.6367188 96.0449219,94.7363281 C96.0449219,73.0664062 81.8847656,54.84375 62.5878906,49.2089844 Z"></path>
        </g>
    </g>
</svg>