<?xml version="1.0" encoding="UTF-8"?>
<svg width="100px" height="100px" viewBox="0 0 100 100" version="1.1" xmlns="http://www.w3.org/2000/svg" xmlns:xlink="http://www.w3.org/1999/xlink">
    <g id="平台icon" stroke="none" stroke-width="1" fill="none" fill-rule="evenodd">
        <g transform="translate(-365.000000, -600.000000)" fill-rule="nonzero" id="增">
            <g transform="translate(365.000000, 600.000000)">
                <rect id="矩形" fill="#000000" opacity="0" x="0" y="0" width="100" height="100"></rect>
                <path d="M50,100 C22.4296875,100 0,77.5703125 0,50 C0,22.4296875 22.4296875,0 50,0 C77.5703125,0 100,22.4296875 100,50 C100,77.5703125 77.5703125,100 50,100 Z M50,10 C27.9443359,10 10,27.9433594 10,50 C10,72.0566406 27.9443359,90 50,90 C72.0556641,90 90,72.0566406 90,50 C90,27.9433594 72.0566406,10 50,10 Z" id="形状" fill="#4ACFB1"></path>
                <path d="M45,45 L45,29.9804688 C44.9999898,28.6561753 45.5273965,27.3864047 46.4656441,26.4518222 C47.4038917,25.5172396 48.6757168,24.9948067 50,24.9999616 C52.7617187,24.9999616 55,27.2783203 55,29.9804688 L55,45 L70.0195312,45 C71.3438247,44.9999898 72.6135953,45.5273965 73.5481778,46.4656441 C74.4827604,47.4038917 75.0051933,48.6757168 75.0000384,50 C75.0000384,52.7617188 72.7216797,55 70.0195312,55 L55,55 L55,70.0195312 C55.0000102,71.3438247 54.4726035,72.6135953 53.5343559,73.5481778 C52.5961083,74.4827604 51.3242832,75.0051933 50,75.0000384 C47.2382812,75.0000384 45,72.7216797 45,70.0195312 L45,55 L29.9804687,55 C28.6561753,55.0000102 27.3864047,54.4726035 26.4518222,53.5343559 C25.5172396,52.5961083 24.9948067,51.3242832 24.9999616,50 C24.9999616,47.2382813 27.2783203,45 29.9804687,45 L45,45 Z" id="路径" fill="#4ACFB1"></path>
            </g>
        </g>
    </g>
</svg>