<?xml version="1.0" encoding="UTF-8"?>
<svg width="100px" height="100px" viewBox="0 0 100 100" version="1.1" xmlns="http://www.w3.org/2000/svg" xmlns:xlink="http://www.w3.org/1999/xlink">
    <g id="平台icon" stroke="none" stroke-width="1" fill="none" fill-rule="evenodd">
        <g transform="translate(-365.000000, -880.000000)" fill-rule="nonzero" id="警示">
            <g transform="translate(365.000000, 880.000000)">
                <rect id="矩形" fill="#000000" opacity="0" x="0" y="0" width="100" height="100"></rect>
                <path d="M50,0 C22.3828125,0 0,22.3828125 0,50 C0,77.6171875 22.3828125,100 50,100 C77.6171875,100 100,77.6074219 100,50 C100,22.3925781 77.6171875,0 50,0 Z" id="路径" fill="#F99B52"></path>
                <path d="M50,81.3183594 C47.109375,81.3183594 44.7753906,78.9746094 44.7753906,76.0839844 C44.7753906,73.1933594 47.1191406,70.8496094 50.0097656,70.8593446 C52.9003906,70.8593446 55.234375,73.203125 55.234375,76.09375 C55.234375,77.4804688 54.6875,78.8085938 53.7011719,79.7949219 C52.7148437,80.7617188 51.3867187,81.3183594 50,81.3183594 Z M54.8535156,25.2441406 L54.8535156,61.3476563 C54.8535156,64.5898438 53.2324219,66.2011719 50,66.2011719 C46.7675781,66.2011719 45.1464844,64.5800781 45.1464844,61.3476563 L45.1464844,25.2441406 C45.1464844,22.0019531 46.7675781,20.3905811 50,20.3905811 C53.2324219,20.3808594 54.8535156,22.0019531 54.8535156,25.2441406 Z" id="形状" fill="#FFFFFF"></path>
            </g>
        </g>
    </g>
</svg>