<?xml version="1.0" encoding="UTF-8"?>
<svg width="100px" height="100px" viewBox="0 0 100 100" version="1.1" xmlns="http://www.w3.org/2000/svg" xmlns:xlink="http://www.w3.org/1999/xlink">
    <g id="平台icon" stroke="none" stroke-width="1" fill="none" fill-rule="evenodd">
        <g transform="translate(-515.000000, -180.000000)" fill-rule="nonzero" id="关闭（常规）">
            <g transform="translate(515.000000, 180.000000)">
                <rect id="矩形" fill="#000000" opacity="0" x="0.00122060008" y="0.00244127341" width="99.9975587" height="99.9975587"></rect>
                <path d="M2.83433425,2.83433425 C6.60368148,-0.935012988 10.3827938,-0.935012988 14.1521409,2.83433425 L97.1656657,85.847859 C100.935013,89.6172062 100.935013,93.3963185 97.1656657,97.1656658 C93.3963184,100.935013 89.6172061,100.935013 85.847859,97.1656658 L2.83433425,14.1521409 C-0.944778082,10.3730286 -0.944778082,6.60368148 2.83433425,2.83433425 Z" id="路径" fill="#999999"></path>
                <path d="M2.83433425,97.1656658 C-0.935012988,93.3963185 -0.935012988,89.6172062 2.83433425,85.847859 L85.847859,2.83433425 C89.6269713,-0.944778082 93.3963185,-0.944778082 97.1656657,2.83433425 C100.935013,6.60368148 100.935013,10.3827938 97.1656657,14.1521409 L14.1521409,97.1656658 C10.3827937,100.944778 6.60368138,100.944778 2.83433425,97.1656658 Z" id="路径" fill="#999999"></path>
            </g>
        </g>
    </g>
</svg>