<?xml version="1.0" encoding="UTF-8"?>
<svg width="100px" height="100px" viewBox="0 0 100 100" version="1.1" xmlns="http://www.w3.org/2000/svg" xmlns:xlink="http://www.w3.org/1999/xlink">
    <g id="平台icon" stroke="none" stroke-width="1" fill="none" fill-rule="evenodd">
        <g transform="translate(-815.000000, -320.000000)" fill-rule="nonzero" id="展开">
            <g transform="translate(815.000000, 320.000000)">
                <rect id="矩形" opacity="0" x="0" y="0" width="100" height="100"></rect>
                <path d="M49.9999904,46.6308594 L66.875,63.4960938 C68.7304687,65.3515625 71.7382812,65.3613281 73.59375,63.4960938 L73.6132812,63.4765625 C75.4785156,61.6113281 75.4589844,58.5742187 73.6230469,56.7382812 L53.3691406,36.5039062 C52.4804687,35.6054688 51.2695312,35.1074219 50.0097656,35.1074219 C48.7695312,35.1269531 47.5488281,35.5859375 46.640625,36.5039062 L26.3964844,56.7578125 C24.5410156,58.6132812 24.53125,61.6210938 26.3867187,63.4765625 C26.3964844,63.4765625 26.3964844,63.4863281 26.40625,63.4863281 C28.2714844,65.3515625 31.3085937,65.3320312 33.1445312,63.4960938 L49.9999904,46.6308594 Z"></path>
            </g>
        </g>
    </g>
</svg>