<?xml version="1.0" encoding="UTF-8"?>
<svg width="100px" height="100px" viewBox="0 0 100 100" version="1.1" xmlns="http://www.w3.org/2000/svg" xmlns:xlink="http://www.w3.org/1999/xlink">
    <g id="平台icon" stroke="none" stroke-width="1" fill="none" fill-rule="evenodd">
        <g transform="translate(-1115.000000, -1020.000000)" fill-rule="nonzero" id="删除">
            <g transform="translate(1115.000000, 1020.000000)">
                <rect id="矩形" fill="#000000" opacity="0" x="0" y="0" width="99.9902353" height="100"></rect>
                <path d="M77.7658432,83.7988281 C77.7658432,86.6113281 75.2856166,88.8964844 72.2097451,88.8964844 C69.1338736,88.8964844 66.6536471,86.6210938 66.6536471,83.7988281 L66.6536471,32.8710938 C66.6536471,30.0585938 69.1338736,27.7734375 72.2097451,27.7734375 C75.2856166,27.7734375 77.7658432,30.0488281 77.7658432,32.8710938 L77.7658432,83.7988281 Z M55.541451,83.7988281 C55.541451,86.6113281 53.0612245,88.8964844 49.985353,88.8964844 C46.9094815,88.8964844 44.429255,86.6210938 44.429255,83.7988281 L44.429255,32.8710938 C44.429255,30.0585938 46.9094815,27.7734375 49.985353,27.7734375 C53.0514598,27.7734375 55.541451,30.0488281 55.541451,32.8710938 L55.541451,83.7988281 Z M33.3268236,83.7988281 C33.3268236,86.6113281 30.846597,88.8964844 27.7707255,88.8964844 C24.694854,88.8964844 22.2146275,86.6210938 22.2146275,83.7988281 L22.2146275,32.8710938 C22.2146275,30.0585938 24.694854,27.7734375 27.7707255,27.7734375 C30.846597,27.7734375 33.3268236,30.0488281 33.3268236,32.8710938 L33.3268236,83.7988281 Z M94.9809589,10 L69.9931647,10 C69.9931647,4.50195312 65.4916512,0 59.9941412,0 L39.9960941,0 C34.4985841,0 29.9970706,4.50195312 29.9970706,10 L5.00927644,10 C2.24587443,10 0,12.2363281 0,15 C0,17.7636719 2.24587443,20 5.00927644,20 L10.0087882,20 L10.0087882,90 C10.0087882,95.4980469 14.5103017,100 20.0078117,100 L79.9921883,100 C85.4896983,100 89.9912118,95.4980469 89.9912118,90 L89.9912118,20 L94.9907236,20 C97.7541256,20 100,17.7636719 100,15 C99.9902353,12.2363281 97.7443609,10 94.9809589,10 Z" id="形状" fill="#3B8FD9"></path>
            </g>
        </g>
    </g>
</svg>