<?xml version="1.0" encoding="UTF-8"?>
<svg width="100px" height="100px" viewBox="0 0 100 100" version="1.1" xmlns="http://www.w3.org/2000/svg" xmlns:xlink="http://www.w3.org/1999/xlink">
    <g id="平台icon" stroke="none" stroke-width="1" fill="none" fill-rule="evenodd">
        <g transform="translate(-65.000000, -880.000000)" fill-rule="nonzero" id="删除">
            <g transform="translate(65.000000, 880.000000)">
                <rect id="矩形" fill="#000000" opacity="0" x="0" y="0" width="100" height="100"></rect>
                <path d="M50,0 C22.3828125,0 0,22.3925781 0,50 C0,77.6074219 22.3828125,100 50,100 C77.6171875,100 100,77.6171875 100,50 C100,22.3828125 77.6171875,0 50,0 Z" id="路径" fill="#F36969"></path>
                <path d="M26.09375,45.3320312 L73.8867188,45.3320312 C76.4648438,45.3320312 78.5449219,47.421875 78.5449219,49.9902344 C78.5449219,52.5683594 76.4550781,54.6484375 73.8867188,54.6484375 L26.09375,54.6484375 C23.515625,54.6484375 21.4355469,52.5585937 21.4355469,49.9902344 C21.4355469,47.421875 23.5253906,45.3320312 26.09375,45.3320312 L26.09375,45.3320312 Z" id="路径" fill="#FFFFFF"></path>
            </g>
        </g>
    </g>
</svg>