<?xml version="1.0" encoding="UTF-8"?>
<svg width="100px" height="100px" viewBox="0 0 100 100" version="1.1" xmlns="http://www.w3.org/2000/svg" xmlns:xlink="http://www.w3.org/1999/xlink">
    <g id="平台icon" stroke="none" stroke-width="1" fill="none" fill-rule="evenodd">
        <g transform="translate(-515.000000, -2000.000000)" fill="#666666" fill-rule="nonzero" id="字典管理">
            <path d="M543.571429,2035.71429 L543.571429,2092.85714 C543.571429,2094.75155 542.81888,2096.56836 541.479334,2097.90791 C540.139789,2099.24745 538.322975,2100 536.428571,2100 L522.142857,2100 C518.197966,2100 515,2096.80203 515,2092.85714 L515,2035.71429 L543.571429,2035.71429 Z M579.285714,2050 L579.285714,2092.85714 C579.285714,2094.75155 578.533165,2096.56836 577.19362,2097.90791 C575.854074,2099.24745 574.037261,2100 572.142857,2100 L557.857143,2100 C553.912252,2100 550.714286,2096.80203 550.714286,2092.85714 L550.714286,2050 L579.285714,2050 L579.285714,2050 Z M615,2035.71429 L615,2092.85714 C615,2096.80203 611.802034,2100 607.857143,2100 L593.571429,2100 C591.677025,2100 589.860211,2099.24745 588.520666,2097.90791 C587.18112,2096.56836 586.428571,2094.75155 586.428571,2092.85714 L586.428571,2035.71429 L615,2035.71429 Z M607.857143,2071.42857 L593.571429,2071.42857 L593.571429,2085.71429 L607.857143,2085.71429 L607.857143,2071.42857 Z M607.857143,2050 L593.571429,2050 L593.571429,2064.28571 L607.857143,2064.28571 L607.857143,2050 Z M572.142857,2014.28571 C574.037261,2014.28571 575.854074,2015.03826 577.19362,2016.37781 C578.533165,2017.71735 579.285714,2019.53417 579.285714,2021.42857 L579.285714,2035.71429 L550.714286,2035.71429 L550.714286,2021.42857 C550.714286,2017.48368 553.912252,2014.28571 557.857143,2014.28571 L572.142857,2014.28571 Z M536.428571,2000 C538.322975,2000 540.139789,2000.75255 541.479334,2002.09209 C542.81888,2003.43164 543.571429,2005.24845 543.571429,2007.14286 L543.571429,2021.42857 L515,2021.42857 L515,2007.14286 C515,2003.19797 518.197966,2000 522.142857,2000 L536.428571,2000 Z M607.857143,2000 C611.802034,2000 615,2003.19797 615,2007.14286 L615,2021.42857 L586.428571,2021.42857 L586.428571,2007.14286 C586.428571,2005.24845 587.18112,2003.43164 588.520666,2002.09209 C589.860211,2000.75255 591.677025,2000 593.571429,2000 L607.857143,2000 L607.857143,2000 Z"></path>
        </g>
    </g>
</svg>