<?xml version="1.0" encoding="UTF-8"?>
<svg width="100px" height="100px" viewBox="0 0 100 100" version="1.1" xmlns="http://www.w3.org/2000/svg" xmlns:xlink="http://www.w3.org/1999/xlink">
    <g id="平台icon" stroke="none" stroke-width="1" fill="none" fill-rule="evenodd">
        <g transform="translate(-965.000000, -600.000000)" fill-rule="nonzero" id="文件">
            <g transform="translate(965.000000, 600.000000)">
                <rect id="矩形" fill="#000000" opacity="0" x="0" y="0" width="100" height="100"></rect>
                <path d="M61.4285714,0 L61.4285714,25.1785714 C61.4285714,28.6303511 64.2267917,31.4285714 67.6785714,31.4285714 L67.6785714,31.4285714 L92.8571429,31.4214286 L92.8571429,93.75 C92.8571429,97.20178 90.0589229,100 86.6071429,100 L13.3928571,100 C9.94107743,100 7.14285714,97.20178 7.14285714,93.75 L7.14285714,6.25 C7.14285714,2.79822031 9.94107743,0 13.3928571,0 L61.4285714,0 Z M71.4285714,71.4285714 L28.5714286,71.4285714 C26.5989831,71.4285714 25,73.0275543 25,75 C25,76.9724457 26.5989831,78.5714286 28.5714286,78.5714286 L28.5714286,78.5714286 L71.4285714,78.5714286 C73.4010171,78.5714286 75,76.9724457 75,75 C75,73.0275543 73.4010171,71.4285714 71.4285714,71.4285714 L71.4285714,71.4285714 Z M71.4285714,50 L28.5714286,50 C26.5989831,50 25,51.5989831 25,53.5714286 C25,55.5438741 26.5989831,57.1428571 28.5714286,57.1428571 L28.5714286,57.1428571 L71.4285714,57.1428571 C73.4010171,57.1428571 75,55.5438741 75,53.5714286 C75,51.5989831 73.4010171,50 71.4285714,50 L71.4285714,50 Z M50,28.5714286 L28.5714286,28.5714286 C26.5989831,28.5714286 25,30.1704116 25,32.1428571 C25,34.1153026 26.5989831,35.7142857 28.5714286,35.7142857 L28.5714286,35.7142857 L50,35.7142857 C51.9724455,35.7142857 53.5714286,34.1153026 53.5714286,32.1428571 C53.5714286,30.1704116 51.9724455,28.5714286 50,28.5714286 L50,28.5714286 Z M67.8571429,0 L92.8571429,25 L70.9821429,25 C69.256253,25 67.8571429,23.6008899 67.8571429,21.875 L67.8571429,0 Z" id="形状" fill="#198EEB"></path>
            </g>
        </g>
    </g>
</svg>