<?xml version="1.0" encoding="UTF-8"?>
<svg width="100px" height="100px" viewBox="0 0 100 100" version="1.1" xmlns="http://www.w3.org/2000/svg" xmlns:xlink="http://www.w3.org/1999/xlink">
    <g id="平台icon" stroke="none" stroke-width="1" fill="none" fill-rule="evenodd">
        <g transform="translate(-965.000000, -1020.000000)" fill-rule="nonzero" id="编辑">
            <g transform="translate(965.000000, 1020.000000)">
                <rect id="矩形" fill="#000000" opacity="0" x="0" y="0" width="99.9999553" height="99.9999553"></rect>
                <path d="M86.8456245,43.5253511 C83.2811746,43.5253511 80.3905521,46.4159735 80.3807865,49.9901891 L80.3807865,87.0702336 L12.9394414,87.0702336 L12.9394414,19.6581854 L48.5741748,19.6581854 C52.1386246,19.6581854 55.0292471,16.767563 55.029247,13.1933474 C55.0292469,9.61913183 52.1386246,6.72850949 48.5741748,6.72850949 L6.47460355,6.72850949 C2.90038796,6.72850949 0.00976562063,9.62889755 0,13.203113 L0,93.5350715 C0.00976562063,97.109287 2.90038796,99.9999549 6.46483793,99.9999549 L86.8456245,99.9999549 C89.4432784,100.009675 91.7870262,98.4471764 92.8026503,96.0546005 C93.1444468,95.25382 93.3202279,94.4042114 93.3202279,93.5350715 L93.3202279,49.9804235 C93.3104623,46.4159736 90.4100743,43.5253511 86.8456245,43.5253511 Z M31.5722371,54.8534659 C30.7812222,54.8534659 30.0195041,55.1659657 29.462864,55.7323714 C29.1991923,56.0058087 29.00388,56.2987771 28.7402083,56.9921358 L23.1640415,73.320246 C22.9199011,74.3163388 23.2226352,75.3612598 23.9452908,76.0839154 C24.5019308,76.6307899 25.2441177,76.933524 26.0253671,76.933524 C26.2499763,76.933524 26.4745854,76.9042271 27.1288816,76.7186804 L43.4179294,71.1229825 C43.7499603,70.9764982 44.0624601,70.7714203 44.3163661,70.5175143 C45.4491776,69.3651715 45.4491776,67.5194701 44.3163661,66.3671274 L33.6523133,55.7030745 C33.0956732,55.1562 32.3534863,54.8437003 31.5722371,54.8534659 L31.5722371,54.8534659 Z M98.3006922,9.39452275 L90.595621,1.73827969 C89.4823408,0.576171324 87.9882015,0 86.3964061,0 C84.8046107,0 83.3104714,0.576171324 82.2069568,1.73827969 L77.724539,6.26952561 L93.6717902,22.1581831 L98.3006922,17.7734214 C100.566315,15.4394391 100.566315,11.7285049 98.3006922,9.39452275 L98.3006922,9.39452275 Z M54.980419,60.5370545 L86.2596875,29.2773172 C86.601484,29.0820049 86.8846869,28.798802 87.0799993,28.4570054 L87.8514829,27.6855218 L72.0409503,11.9433486 L39.2284801,44.7362876 L33.7402038,50.2245639 C33.6913757,50.273392 33.6425476,50.3710481 33.5448914,50.4198762 L49.3944865,66.2597056 L54.980419,60.5370545 L54.980419,60.5370545 Z"></path>
            </g>
        </g>
    </g>
</svg>