<?xml version="1.0" standalone="no"?><!DOCTYPE svg PUBLIC "-//W3C//DTD SVG 1.1//EN" "http://www.w3.org/Graphics/SVG/1.1/DTD/svg11.dtd"><svg t="1667984761880" class="icon" viewBox="0 0 1024 1024" version="1.1" xmlns="http://www.w3.org/2000/svg" p-id="19401" xmlns:xlink="http://www.w3.org/1999/xlink" width="200" height="200"><path d="M650.808889 121.969778L895.431111 366.637511 359.697067 902.394311 115.029333 657.726578 650.808889 121.969778z m268.219733 219.249778L677.000533 98.781867l73.363911-72.931556 241.2544 241.686756" fill="#666666" p-id="19402"></path><path d="M91.5456 683.940978l244.667733 244.667733-304.128 85.105778a22.755556 22.755556 0 0 1-27.989333-28.2624l87.4496-301.511111zM843.025067 22.573511l151.278933 151.278933c26.2144 26.2144 23.483733 67.1744-2.730667 93.3888-26.2144 26.2144-69.905067 28.945067-93.3888 2.730667l-151.278933-151.278933c-26.2144-23.483733-26.2144-67.1744 2.730667-93.3888C776.419556-0.364089 816.810667-3.640889 843.025067 22.573511z" fill="#666666" p-id="19403"></path></svg>