<?xml version="1.0" encoding="UTF-8"?>
<svg width="100px" height="100px" viewBox="0 0 100 100" version="1.1" xmlns="http://www.w3.org/2000/svg" xmlns:xlink="http://www.w3.org/1999/xlink">
    <g id="平台icon" stroke="none" stroke-width="1" fill="none" fill-rule="evenodd">
        <g transform="translate(-215.000000, -880.000000)" fill-rule="nonzero" id="错误">
            <g transform="translate(215.000000, 880.000000)">
                <rect id="矩形" fill="#000000" opacity="0" x="0" y="0" width="99.9999997" height="99.9999997"></rect>
                <path d="M85.3274616,14.6725402 C65.8031234,-4.85179803 34.1541711,-4.84203592 14.6395951,14.6725402 C-4.87498104,34.1871163 -4.88474315,65.8360685 14.6395951,85.3604069 C34.1639333,104.884745 65.8128856,104.874983 85.3274616,85.3604069 C104.842038,65.8458308 104.8518,34.1968785 85.3274616,14.6725402 Z M70.1863374,65.1624789 C71.5823276,66.5584691 71.5823276,68.8135302 70.1863374,70.2095203 C68.7903471,71.6055105 66.5352861,71.6055105 65.1392959,70.2095203 L49.9884094,55.068396 L34.8375229,70.2095203 C33.4415327,71.6055105 31.1864717,71.6055105 29.7904815,70.2095203 C28.3944913,68.8135301 28.3944913,66.558469 29.7904815,65.1624789 L44.941368,50.0115924 L29.7904815,34.8704682 C28.3944913,33.4744779 28.3944913,31.2194169 29.7904815,29.8234267 C31.1864718,28.4274364 33.4415328,28.4274364 34.8375229,29.8234267 L49.9884094,44.964551 L65.1392959,29.8136645 C66.5352861,28.4176742 68.7903471,28.4176742 70.1863374,29.8136645 C71.5823276,31.2096547 71.5823276,33.4647157 70.1863374,34.8607059 L55.0354509,50.0213546 L70.1863374,65.1624789 L70.1863374,65.1624789 Z" id="形状" fill="#F36969"></path>
            </g>
        </g>
    </g>
</svg>