<?xml version="1.0" encoding="UTF-8"?>
<svg width="100px" height="100px" viewBox="0 0 100 100" version="1.1" xmlns="http://www.w3.org/2000/svg" xmlns:xlink="http://www.w3.org/1999/xlink">
    <g id="平台icon" stroke="none" stroke-width="1" fill="none" fill-rule="evenodd">
        <g transform="translate(-1115.000000, -880.000000)" fill-rule="nonzero" id="导出">
            <g transform="translate(1115.000000, 880.000000)">
                <rect id="矩形" fill="#000000" opacity="0" x="0" y="0" width="99.9999999" height="99.9999999"></rect>
                <path d="M7.11896679,99.9975586 L26.6692708,99.9975586 C30.2238715,99.9975586 33.7882376,97.331608 33.7882376,92.8883572 C33.7882376,89.3337565 31.122287,85.7791557 26.6692708,85.7791557 L13.3297527,85.7791557 L13.3297527,14.2281683 L86.6580405,14.2281683 L86.6580405,40.0185542 C86.6580405,43.5731549 89.323991,47.1277556 93.7770074,47.1277556 C98.2202582,47.1277556 99.9975586,43.5731549 99.9975586,39.1299041 L99.9975586,7.10920146 C99.9975586,2.66595058 97.331608,0 92.8785917,0 L6.22055126,0 C2.66595058,0 0,2.66595058 0,7.10920146 L0,92.8785917 C0,96.4331924 2.66595058,99.9975586 7.11896679,99.9975586 Z" id="路径" fill="#3B8FD9"></path>
                <path d="M39.9404311,73.2696956 C39.9404311,69.5881448 42.9286394,66.5999365 46.6101901,66.5999365 L76.8242962,66.5999365 L68.5920753,58.3677156 C65.9749517,55.574815 66.1116671,51.1803911 68.9143331,48.5632674 C71.5802836,46.0633285 75.7305729,46.0633285 78.3965235,48.5632674 L97.9956543,68.1721637 C100.007324,70.2033641 100.563951,73.2599301 99.3823392,75.8672883 C99.0600815,76.8535923 98.5132198,77.752008 97.7905812,78.4941773 L78.3184003,97.985889 C75.632919,100.67137 71.2677913,100.67137 68.5823099,97.985889 C65.8968286,95.3004076 65.8968286,90.9352799 68.5823099,88.2497986 L76.8926539,79.9394545 L46.6101901,79.9394545 C42.9286393,79.9394545 39.9404311,76.9512462 39.9404311,73.2696956 Z" id="路径" fill="#3B8FD9"></path>
            </g>
        </g>
    </g>
</svg>