<?xml version="1.0" encoding="UTF-8"?>
<svg width="100px" height="100px" viewBox="0 0 100 100" version="1.1" xmlns="http://www.w3.org/2000/svg" xmlns:xlink="http://www.w3.org/1999/xlink">
    <g id="平台icon" stroke="none" stroke-width="1" fill="none" fill-rule="evenodd">
        <g transform="translate(-815.000000, -600.000000)" fill-rule="nonzero" id="展开文件夹">
            <g transform="translate(815.000000, 600.000000)">
                <rect id="矩形" fill="#000000" opacity="0" x="0" y="0" width="100" height="100"></rect>
                <path d="M16.3574219,38.2226562 L0.419921875,93.6816406 L85.4589844,93.6816406 L99.9511719,38.2226562 C100.234375,36.4355469 99.1796875,34.9609375 97.5976562,34.9609375 L18.7011719,34.9609375 C17.1191406,34.9609375 16.0644531,36.4257812 16.3574219,38.2226562 Z"></path>
                <path d="M35.4003906,7.421875 L38.5839844,12.6074219 L82.9101562,12.6074219 C83.515625,12.6074219 84.0917969,12.9199219 84.5117188,13.4765625 C84.9511719,14.0820312 85.1855469,14.8144531 85.1760745,15.5664062 L85.1760745,29.3261719 L11.8945312,29.3261719 L0,70.7324219 L0,10.3320312 C0,8.70117187 1.015625,7.37304687 2.265625,7.37304687 L33.6328125,6.30859375 C34.3261719,6.31835937 34.9707031,6.72851562 35.4003906,7.421875 Z"></path>
            </g>
        </g>
    </g>
</svg>