<?xml version="1.0" encoding="UTF-8"?>
<svg width="100px" height="100px" viewBox="0 0 100 100" version="1.1" xmlns="http://www.w3.org/2000/svg" xmlns:xlink="http://www.w3.org/1999/xlink">
    <g id="平台icon" stroke="none" stroke-width="1" fill="none" fill-rule="evenodd">
        <g transform="translate(-665.000000, -600.000000)" fill-rule="nonzero" id="文件夹">
            <g transform="translate(665.000000, 600.000000)">
                <rect id="矩形" fill="#000000" opacity="0" x="0" y="0" width="99.9902353" height="100"></rect>
                <path d="M36.7835172,11.8652344 L40.8358559,16.875 L97.1194219,16.875 C98.7012987,16.8652344 99.9804707,18.1445313 99.9902353,19.7167969 L99.9902353,89.1894531 L0,89.1894531 L0,13.6425781 C0,12.890625 0.302704814,12.1582031 0.839761742,11.6308594 C1.37681867,11.09375 2.10916903,10.7910156 2.8708134,10.8005521 L34.5278781,10.8005521 C35.4066986,10.8005521 36.226931,11.1914063 36.7835172,11.8652344 Z" id="路径" fill="#FFC652"></path>
                <path d="M0,88.828125 L0,25.625 C0.00976467142,25.0097656 0.497998242,24.5214844 1.11317254,24.5214844 L98.8770628,24.5214844 C99.4922371,24.5214844 99.9902353,25.0195312 99.9902353,25.625 L99.9902353,88.828125 L0,88.828125 Z" id="路径" fill="#FFEEC5"></path>
                <path d="M0,89.1992188 L0,25.9375 C0,25.3613281 0.468704228,24.8925781 1.05458451,24.8925781 L98.9454155,24.8925781 C99.5215311,24.8925781 99.9902353,25.3613281 100,25.9375 L100,89.2089844 L0,89.1992188 Z" id="路径" fill="#FFE28B"></path>
            </g>
        </g>
    </g>
</svg>