<?xml version="1.0" encoding="UTF-8"?>
<svg width="100px" height="100px" viewBox="0 0 100 100" version="1.1" xmlns="http://www.w3.org/2000/svg" xmlns:xlink="http://www.w3.org/1999/xlink">
    <g id="平台icon" stroke="none" stroke-width="1" fill="none" fill-rule="evenodd">
        <g transform="translate(-65.000000, -320.000000)" fill-rule="nonzero" id="帮助">
            <g transform="translate(65.000000, 320.000000)">
                <rect id="矩形" fill="#000000" opacity="0" x="0" y="0" width="100" height="100"></rect>
                <path d="M50,0 C77.615,0 100,22.385 100,50 C100,77.615 77.615,100 50,100 C22.385,100 0,77.615 0,50 C0,22.385 22.385,0 50,0 Z M50,84.17 C53.6837393,84.17 56.67,81.1837393 56.67,77.5 C56.67,73.8162607 53.6837393,70.83 50,70.83 C46.3162607,70.83 43.33,73.8162607 43.33,77.5 C43.33,81.1837393 46.3162607,84.17 50,84.17 L50,84.17 Z M68.22,47.095 C71.145,42.805 72.23,39.055 72.2200684,33.795 C72.2,25.5 64.38,16.7 52.595,16.7 C40.03,16.7 27.82,22.925 27.82,38.89 L38.88,38.925 C38.88,33.475 42.4,27.7 49.92,27.7 C54.42,27.7 60.92,29.52 60.92,36.17 C60.92,42.29 58.92,43.54 52.92,47.92 C47.125,51.855 44.17,57 44.38,63.355 L44.38,66.645 L55.67,66.645 C55.67,56.595 62.775,55.375 68.22,47.085 L68.22,47.095 Z" id="形状" fill="#198EEB"></path>
            </g>
        </g>
    </g>
</svg>