<?xml version="1.0" encoding="UTF-8"?>
<svg width="100px" height="100px" viewBox="0 0 100 100" version="1.1" xmlns="http://www.w3.org/2000/svg" xmlns:xlink="http://www.w3.org/1999/xlink">
    <g id="平台icon" stroke="none" stroke-width="1" fill="none" fill-rule="evenodd">
        <g transform="translate(-815.000000, -1860.000000)" id="首页">
            <g transform="translate(815.000000, 1860.000000)">
                <rect id="矩形" x="0" y="0" width="100" height="100"></rect>
                <path d="M33.3602394,89.1139169 L33.3602394,73.566033 C33.3602394,73.4591413 33.3895391,73.361967 33.3895391,73.2647928 C33.5555708,64.1692807 40.9488654,56.8034707 50.0415434,56.8034707 C59.1342214,56.8034707 66.527516,64.1692807 66.6935477,73.2647928 C66.6935477,73.361967 66.7228474,73.4591413 66.7228474,73.566033 L66.7228474,89.1139169 L33.3602394,89.1139169 Z M98.1223746,33.2095568 L87.584244,26.2810311 L87.584244,12.8515464 C87.584244,10.5582335 85.7188289,8.70220485 83.413918,8.70220485 C81.1090071,8.70220485 79.243592,10.5582335 79.243592,12.8515464 L79.243592,20.800402 L52.3269211,3.10496664 C50.8814686,2.29842017 49.1137191,2.29842017 47.6682666,3.10496664 L1.88257967,33.2095568 C-0.0414349074,34.4825398 -0.578596336,37.0673755 0.681291379,39.0011436 C1.92164595,40.9154768 4.49025424,41.4693702 6.41426881,40.2352569 C6.42403538,40.2255395 6.44356853,40.215822 6.4533351,40.215822 L8.33828338,38.9719913 L8.33828338,90.367465 C8.33828338,94.3030232 11.8737822,97.5000568 16.2296731,97.5000568 L83.8436471,97.5000568 C88.199538,97.5000568 91.7350369,94.2933057 91.7350369,90.367465 L91.7350369,39.0302959 L93.5418526,40.215822 C95.4561006,41.4693702 98.0247089,40.9349117 99.2845966,39.0302959 C99.2943632,39.0205785 99.2943632,39.010861 99.3041297,39.0011436 C100.583551,37.0673755 100.046389,34.4825398 98.1223746,33.2095568 Z" id="形状" fill="#666666" fill-rule="nonzero"></path>
            </g>
        </g>
    </g>
</svg>