<?xml version="1.0" encoding="UTF-8"?>
<svg width="100px" height="100px" viewBox="0 0 100 100" version="1.1" xmlns="http://www.w3.org/2000/svg" xmlns:xlink="http://www.w3.org/1999/xlink">
    <g id="平台icon" stroke="none" stroke-width="1" fill="none" fill-rule="evenodd">
        <g transform="translate(-365.000000, -1440.000000)">
            <path d="M371.365995,1540 L408.614049,1540 C412.126322,1540 414.980044,1537.20703 414.980044,1533.76953 L414.980044,1446.23047 C414.980044,1442.79297 412.126322,1440 408.614049,1440 L371.365995,1440 C367.843744,1440 365,1442.79297 365,1446.23047 L365,1533.75977 C365,1537.20703 367.843744,1540 371.365995,1540 Z M398.915386,1477.5 L406.059669,1477.5 C407.53642,1477.5 408.743764,1478.67188 408.743764,1480.12695 L408.743764,1487.38281 C408.743764,1488.82812 407.546398,1490.00977 406.059669,1490.00977 L398.915386,1490.00977 C397.438635,1490.00977 396.231291,1488.83789 396.231291,1487.38281 L396.231291,1480.12695 C396.231291,1478.68164 397.428657,1477.5 398.915386,1477.5 L398.915386,1477.5 Z M374.040112,1477.5 L381.184394,1477.5 C382.661145,1477.5 383.868489,1478.67188 383.868489,1480.12695 L383.868489,1487.38281 C383.868489,1488.82812 382.671124,1490.00977 381.184394,1490.00977 L374.040112,1490.00977 C372.563361,1490.00977 371.356017,1488.83789 371.356017,1487.38281 L371.356017,1480.12695 C371.365995,1478.68164 372.563361,1477.5 374.040112,1477.5 L374.040112,1477.5 Z M398.915386,1452.71484 L406.059669,1452.71484 C407.53642,1452.71484 408.743764,1453.88672 408.743764,1455.3418 L408.743764,1462.59766 C408.743764,1464.04297 407.546398,1465.22461 406.059669,1465.22461 L398.915386,1465.22461 C397.438635,1465.22461 396.231291,1464.05273 396.231291,1462.59766 L396.231291,1455.3418 C396.231291,1453.89648 397.428657,1452.71484 398.915386,1452.71484 L398.915386,1452.71484 Z M374.040112,1452.71484 L381.184394,1452.71484 C382.661145,1452.71484 383.868489,1453.88672 383.868489,1455.3418 L383.868489,1462.59766 C383.868489,1464.04297 382.671124,1465.22461 381.184394,1465.22461 L374.040112,1465.22461 C372.563361,1465.22461 371.356017,1464.05273 371.356017,1462.59766 L371.356017,1455.3418 C371.365995,1453.89648 372.563361,1452.71484 374.040112,1452.71484 Z M398.476352,1502.5 L406.498703,1502.5 C407.735981,1502.5 408.743764,1503.48633 408.743764,1504.69727 L408.743764,1512.8125 C408.743764,1514.02344 407.735981,1515.00977 406.498703,1515.00977 L398.476352,1515.00977 C397.239074,1515.00977 396.231291,1514.02344 396.231291,1512.8125 L396.231291,1504.69727 C396.231291,1503.48633 397.239074,1502.5 398.476352,1502.5 Z M373.611056,1502.5 L381.633407,1502.5 C382.870684,1502.5 383.878467,1503.48633 383.878467,1504.69727 L383.878467,1512.8125 C383.878467,1514.02344 382.870684,1515.00977 381.633407,1515.00977 L373.611056,1515.00977 C372.373778,1515.00977 371.365995,1514.02344 371.365995,1512.8125 L371.365995,1504.69727 C371.365995,1503.48633 372.3638,1502.5 373.611056,1502.5 Z M464.960088,1473.27148 L464.960088,1475.47852 C464.960088,1476.5918 464.032129,1477.5 462.894632,1477.5 L423.291758,1477.5 C422.154261,1477.5 421.226302,1476.5918 421.226302,1475.47852 L421.226302,1473.27148 C421.226302,1472.1582 422.154261,1471.25 423.291758,1471.25 L462.894632,1471.25 C464.032129,1471.25 464.960088,1472.1582 464.960088,1473.27148 Z M424.628817,1540 L430.33626,1540 C432.212133,1540 433.738775,1538.51562 433.738775,1536.66992 L433.738775,1518.32031 C433.738775,1516.48438 435.255438,1514.99023 437.141289,1514.99023 L449.085013,1514.99023 C450.960886,1514.99023 452.487527,1516.47461 452.487527,1518.32031 L452.487527,1536.66992 C452.487527,1538.50586 454.004191,1540 455.890042,1540 L461.597486,1540 C463.473359,1540 465,1538.51562 465,1536.66992 L465,1487.08008 C465,1485.24414 463.483337,1483.75 461.597486,1483.75 L424.628817,1483.75 C422.752944,1483.75 421.226302,1485.23438 421.226302,1487.08008 L421.226302,1536.66992 C421.226302,1538.51562 422.742965,1540 424.628817,1540 Z"></path>
        </g>
    </g>
</svg>