<?xml version="1.0" encoding="UTF-8"?>
<svg width="100px" height="100px" viewBox="0 0 100 100" version="1.1" xmlns="http://www.w3.org/2000/svg" xmlns:xlink="http://www.w3.org/1999/xlink">
    <g id="平台icon" stroke="none" stroke-width="1" fill="none" fill-rule="evenodd">
        <g transform="translate(-965.000000, -880.000000)" fill-rule="nonzero" id="导入">
            <g transform="translate(965.000000, 880.000000)">
                <rect id="矩形" fill="#000000" opacity="0" x="0" y="0" width="100" height="100"></rect>
                <path d="M7.11914063,100 L26.6699219,100 C30.2246094,100 33.7890625,97.3339844 33.7890625,92.890625 C33.7890625,89.3359375 31.1230469,85.78125 26.6699219,85.78125 L13.3300781,85.78125 L13.3300781,14.2285156 L86.6601562,14.2285156 L86.6601562,40.0195312 C86.6601562,43.5742188 89.3261719,47.1289062 93.7792969,47.1289062 C98.2226562,47.1289062 100,43.5742188 100,39.1308594 L100,7.109375 C100,2.66601562 97.3339844,0 92.8808594,0 L6.22070312,0 C2.66601562,0 0,2.66601562 0,7.109375 L0,92.8808594 C0,96.4355469 2.66601562,100 7.11914063,100 Z" id="路径" fill="#3B8FD9"></path>
                <path d="M100,73.2617188 C100,69.5800781 97.0117188,66.5917969 93.3300781,66.5917969 L63.1152344,66.5917969 L71.3476562,58.359375 C73.9648437,55.5664063 73.828125,51.171875 71.0253906,48.5546875 C68.359375,46.0546875 64.2089844,46.0546875 61.5429687,48.5546875 L41.9433594,68.1640625 C39.9316406,70.1953125 39.375,73.2519531 40.5566406,75.859375 C40.8789062,76.8457031 41.4257812,77.7441406 42.1484375,78.4863281 L61.6210938,97.9785156 C64.3066406,100.664062 68.671875,100.664062 71.3574219,97.9785156 C74.0429688,95.2929688 74.0429688,90.9277344 71.3574219,88.2421875 L63.046875,79.9316406 L93.3300781,79.9316406 C97.0117188,79.9316406 100,76.9433594 100,73.2617188 L100,73.2617188 Z" id="路径" fill="#3B8FD9"></path>
            </g>
        </g>
    </g>
</svg>