<?xml version="1.0" encoding="UTF-8"?>
<svg width="100px" height="100px" viewBox="0 0 100 100" version="1.1" xmlns="http://www.w3.org/2000/svg" xmlns:xlink="http://www.w3.org/1999/xlink">
    <g id="平台icon" stroke="none" stroke-width="1" fill="none" fill-rule="evenodd">
        <g transform="translate(-665.000000, -460.000000)" fill-rule="nonzero" id="加载">
            <g transform="translate(665.000000, 460.000000)">
                <rect id="矩形" fill="#000000" opacity="0" x="0" y="0" width="100" height="100"></rect>
                <path d="M84.0234373,52.5917969 C84.0225757,56.054958 86.4683098,59.0364063 89.8648036,59.7126573 C93.2612974,60.3889083 96.6624775,58.5715963 97.9881472,55.372208 C99.3138168,52.1728196 98.1947185,48.4825259 95.3153043,46.5583483 C92.4358901,44.6341708 88.5982039,45.0120777 86.1494141,47.4609375 C84.7960389,48.8275211 84.0327107,50.6704484 84.0234373,52.59375 L84.0234373,52.5917969 Z" id="路径" fill="#D1E8FB"></path>
                <path d="M1.46484375,52.5917969 C1.46646014,57.8467779 5.72548821,62.1066801 10.9804687,62.1093755 C15.2903297,62.1107749 19.063584,59.2167031 20.1794396,55.0537991 C21.2952952,50.8908952 19.4754022,46.4975947 15.742648,44.3431924 C12.0098938,42.1887901 7.29541336,42.8107013 4.24902344,45.859375 C2.47574606,47.6527311 1.47617548,50.0697916 1.46484375,52.5917969 Z" id="路径" fill="#5EAFF0"></path>
                <path d="M43.8730469,92.7421875 C43.8745153,96.2052788 46.3221588,99.1850413 49.7190215,99.8590799 C53.1158841,100.533118 56.5158295,98.7136915 57.8394827,95.5135437 C59.1631359,92.313396 58.0418166,88.6238721 55.1613133,86.7014507 C52.2808099,84.7790293 48.443436,85.1591669 45.9960938,87.609375 C44.6432205,88.9758943 43.8799586,90.818311 43.8701172,92.7412109 L43.8730469,92.7421875 Z" id="路径" fill="#A3D2F7"></path>
                <path d="M38.6894531,12.4414062 C38.6894531,19.3126052 44.2596604,24.8828125 51.1308594,24.8828125 C58.0020583,24.8828125 63.5722656,19.3126052 63.5722656,12.4414062 C63.5722656,5.57020731 58.0020583,0 51.1308594,0 C44.2596604,0 38.6894531,5.57020731 38.6894531,12.4414062 Z" id="路径" fill="#198EEB"></path>
                <path d="M72.265625,80.9814453 C72.265625,84.4444229 74.7119781,87.4251087 78.1084282,88.1006383 C81.5048784,88.776168 84.9055399,86.9583977 86.2307087,83.7590006 C87.5558776,80.5596035 86.4364769,76.8696537 83.5570858,74.945772 C80.6776947,73.0218902 76.8402614,73.3999028 74.3916016,75.8486328 C73.0384923,77.2153931 72.2752112,79.0582067 72.265625,80.9814453 Z" id="路径" fill="#BADCFA"></path>
                <path d="M11.8457031,24.2011719 C11.8457031,28.6077343 14.5002068,32.5803781 18.5713923,34.2665693 C22.6425778,35.9527605 27.3286299,35.0204112 30.4443359,31.9042969 C34.6189414,27.6367788 34.5815611,20.8044222 30.3605114,16.5828373 C26.1394616,12.3612523 19.3071097,12.3230059 15.0390625,16.4970703 C13.0082131,18.5485328 11.862752,21.3145392 11.8486328,24.2011719 L11.8457031,24.2011719 Z" id="路径" fill="#47A5EE"></path>
                <path d="M15.4814453,80.9814453 C15.4814453,84.4444229 17.9277984,87.4251087 21.3242486,88.1006383 C24.7206987,88.776168 28.1213602,86.9583977 29.4465291,83.7590006 C30.7716979,80.5596035 29.6522972,76.8696537 26.7729061,74.945772 C23.893515,73.0218902 20.0560818,73.3999028 17.6074219,75.8486328 C16.2544012,77.215452 15.4911358,79.0582277 15.4814453,80.9814453 L15.4814453,80.9814453 Z" id="路径" fill="#8CC6F5"></path>
                <path d="M72.265625,24.2011719 C72.2652292,27.6642413 74.7112378,30.6453083 78.1077098,31.3211986 C81.5041818,31.9970888 84.9051026,30.1795476 86.2305218,26.9801549 C87.555941,23.7807622 86.4366915,20.0906404 83.5572888,18.1666108 C80.6778861,16.2425812 76.8403264,16.620541 74.3916016,19.0693359 C73.0385511,20.4357375 72.2752579,22.2782299 72.265625,24.2011719 L72.265625,24.2011719 Z" id="路径" fill="#E8F3FE"></path>
            </g>
        </g>
    </g>
</svg>