<?xml version="1.0" encoding="UTF-8"?>
<svg width="100px" height="100px" viewBox="0 0 100 100" version="1.1" xmlns="http://www.w3.org/2000/svg" xmlns:xlink="http://www.w3.org/1999/xlink">
    <g id="平台icon" stroke="none" stroke-width="1" fill="none" fill-rule="evenodd">
        <g transform="translate(-965.000000, -1720.000000)" fill="#198EEB" fill-rule="nonzero" id="华卓科技">
            <g transform="translate(965.000000, 1720.000000)">
                <rect id="矩形" opacity="0" x="0" y="0" width="100" height="100"></rect>
                <path d="M13.6171875,46.4511719 C15.8173828,45.2402344 18.0166016,43.8779297 20.3076172,42.3681641 L19.2880859,40.8203125 C17.3701172,42.0449219 15.4619141,43.2099609 13.6171875,44.2558594 L13.6171875,40.0009766 L11.5449219,40.0009766 L11.5449219,45.3955078 C10.046875,46.1914062 8.60742188,46.8828125 7.25976562,47.4414062 L8.02148438,49.1757812 C9.21289062,48.6757812 10.3828125,48.1308594 11.5449219,47.5439453 L11.5449219,50.703125 L13.6171875,50.703125 L13.6171875,50.6923828 L21.6738281,50.6923828 L21.6738281,48.6113281 L13.6171875,48.6113281 L13.6171875,46.4511719 Z M21.6542969,53.3085938 L11.8486328,53.3759766 L11.8378906,51.9150391 L9.76660156,51.9296875 L9.77734375,53.390625 L0.0009765625,53.4570312 L0,55.5371094 L9.79296875,55.4707031 L9.83105469,60.7568359 L11.9033203,60.7519531 L11.8642578,55.4570313 L21.6699219,55.390625 L21.6542969,53.3085938 L21.6542969,53.3085938 Z M3.30273438,46.1757812 L3.30273438,52.2705078 L5.31347656,52.2705078 L5.31347656,44.2910156 C6.38769531,43.2021484 7.46191406,42.0761719 8.19140625,40.6669922 L6.73828125,39.1875 C5.91957532,40.5122218 4.95202323,41.7389455 3.85449219,42.84375 C2.69335938,44.0224609 1.49121094,45.1777344 0.103515625,46.1181641 L1.58300781,47.53125 C2.19726563,47.0849609 2.75878906,46.6396484 3.30273438,46.1757812 L3.30273438,46.1757812 Z M38.0166016,53.3994141 L45.8291016,53.4101562 L45.8291016,51.3291016 L45.8183594,51.3291016 L45.8183594,50.0126953 L45.8242188,50.0126953 L45.8242188,47.9316406 L45.8183594,47.9316406 L45.8183594,44.5185547 L43.7373047,44.5185547 L43.7373047,44.546875 L37.9140625,44.53125 L37.9140625,42.8798828 L46.1337891,42.8916016 L46.1337891,40.8105469 L37.9140625,40.7998047 L37.9140625,39.1943359 L35.8339844,39.1943359 L35.8330078,44.53125 L30.2070312,44.5234375 L30.2070312,44.5117188 L28.1269531,44.5117188 L28.1269531,44.5234375 L28.1171875,44.5234375 L28.1171875,46.6044922 L28.1269531,46.6044922 L28.1269531,47.9091797 L28.1220703,47.9091797 L28.1220703,49.9892578 L28.1269531,49.9892578 L28.1269531,53.3964844 L30.2070312,53.3964844 L30.2070312,53.3867188 L35.9482422,53.3955078 L35.9482422,54.8154297 L26.1552734,54.8017578 L26.1552734,56.8828125 L35.9482422,56.8964844 L35.9433594,60.8085937 L38.0234375,60.8085937 L38.0292969,56.8964844 L47.7753906,56.9101562 L47.7753906,54.8291016 L38.0292969,54.8154297 L38.0166016,53.3994141 Z M30.2041016,46.6054687 L43.7431641,46.6240234 L43.7431641,47.9287109 L30.203125,47.9101562 L30.2041016,46.6054687 Z M30.1992188,49.9902344 L43.7392578,50.0097656 L43.7392578,51.3261719 L30.1992188,51.3076172 L30.1992188,49.9902344 Z M73.4541016,52.3154297 L72.265625,52.4873047 L72.265625,39.9775391 L70.2548828,39.9775391 L70.2548828,52.7763672 L62.6777344,53.8681641 L62.9638672,55.8681641 L70.2548828,54.8173828 L70.2548828,60.75 L72.265625,60.75 L72.265625,54.5273438 L73.7402344,54.3154297 L73.4541016,52.3154297 L73.4541016,52.3154297 Z M69.0185547,45.0292969 L65.6386719,40.2558594 L64.0009766,41.4267578 L67.3798828,46.2001953 L69.0185547,45.0292969 Z M68.46875,51.0966797 L64.5966797,45.6289062 L62.9589844,46.7998047 L66.8310547,52.2685547 L68.46875,51.0966797 Z M52.2460938,58.7978516 L54.3349609,58.7978516 C55.2714844,55.4375 55.4521484,51.1611328 55.4755859,47.1894531 L53.6308594,47.1894531 C53.5332031,51.1611328 53.3427734,56.0488281 52.2460938,58.7978516 Z M58.8994141,47.1894531 C58.8994141,52.0722656 59.2060547,55.1318359 60.0410156,58.7978516 L62.1777344,58.7978516 C61.328125,54.8271484 60.8417969,51.1611328 60.7939453,47.1894531 L58.8994141,47.1894531 Z M58.3291016,41.7744141 C59.3339844,41.5966797 60.3798828,41.4003906 61.578125,41.1601562 L61.1162109,39.2148438 C57.9121094,39.8125 55.234375,40.2402344 52.4433594,40.6796875 L52.8339844,42.6328125 C54.1416016,42.4423828 55.2539062,42.2763672 56.3154297,42.1064453 L56.3154297,44.8583984 L52.6367188,44.8583984 L52.6367188,46.8847656 L56.3183594,46.8847656 L56.3183594,60.7519531 L58.3291016,60.7519531 L58.3291016,46.8847656 L62.3330078,46.8847656 L62.3330078,44.8642578 L58.3291016,44.8642578 L58.3291016,41.7744141 Z M100,60.7568359 L94.3798828,55.0302734 C96.2431641,53.1601563 97.9873047,51.2304688 98.9111328,49.6806641 L98.9111328,47.65625 L94.2382812,47.65625 L94.2597656,43.9716797 L98.9091797,43.9716797 L98.9091797,41.9560547 L94.2705078,41.9560547 L94.2861328,39.1982422 L92.2773438,39.1982422 L92.2626953,41.9560547 L87.3486328,41.9560547 L87.3486328,43.9755859 L92.2509766,43.9755859 L92.2294922,47.65625 L87.3466797,47.65625 L87.3466797,49.6767578 L96.4912109,49.6767578 C95.6181641,50.8066406 94.3427734,52.1796875 92.9560547,53.5771484 L90.1240234,50.6943359 L88.3339844,52.1484375 L91.3144531,55.1894531 C88.7753906,57.6230469 86.1914062,59.8769531 85.0644531,60.7480469 L88.3847656,60.7402344 C89.4189453,59.7451172 91.0449219,58.2695312 92.7412109,56.6386719 L96.7744141,60.7548828 L100,60.7568359 Z M83.9648438,58.8222656 L83.9375,52.6494141 L86.3847656,51.6611328 L85.6054688,49.7988281 L83.9277344,50.4765625 L83.9072266,45.8457031 L86.7822266,45.8339844 L86.7734375,43.8144531 L83.8974609,43.8251953 L83.8769531,39.1933594 L81.8662109,39.203125 L81.8867187,43.8339844 L78.4619141,43.8476562 L78.4707031,45.8681641 L81.8964844,45.8544922 L81.9208984,51.2861328 L78.5664062,52.640625 L79.3457031,54.5029297 L81.9306641,53.4589844 L81.9541016,58.8300781 L78.4238281,58.8447266 L78.4316406,60.7509766 L81.9628906,60.7363281 L81.9628906,60.7373047 L83.9736328,60.7285156 L83.9658203,58.8222656 L83.9648438,58.8222656 L83.9648438,58.8222656 Z" id="形状"></path>
            </g>
        </g>
    </g>
</svg>