<?xml version="1.0" encoding="UTF-8"?>
<svg width="100px" height="100px" viewBox="0 0 100 100" version="1.1" xmlns="http://www.w3.org/2000/svg" xmlns:xlink="http://www.w3.org/1999/xlink">
    <g id="平台icon" stroke="none" stroke-width="1" fill="none" fill-rule="evenodd">
        <g transform="translate(-65.000000, -2000.000000)" fill="#666666" fill-rule="nonzero" id="菜单管理">
            <path d="M102.098791,2056.24349 C105.766986,2056.24349 108.747395,2059.22452 108.747395,2062.89348 L108.747395,2093.35001 C108.747395,2097.01897 105.766986,2100 102.098791,2100 L71.6486036,2100 C67.9804085,2100 65,2097.03982 65,2093.37086 L65,2062.89348 C65,2059.22452 67.9804085,2056.24349 71.6486036,2056.24349 L102.098791,2056.24349 L102.098791,2056.24349 Z M102.098791,2000 C105.766986,2000 108.747395,2002.98103 108.747395,2006.64999 L108.747395,2037.10652 C108.747395,2040.77548 105.766986,2043.75651 102.098791,2043.75651 L71.6486036,2043.75651 C67.9804085,2043.75651 65,2040.77548 65,2037.10652 L65,2006.64999 C65,2002.98103 67.9804085,2000 71.6486036,2000 L102.098791,2000 Z M165,2006.54185 L165,2009.28947 C165,2012.74125 162.20178,2015.53947 158.75,2015.53947 L127.481763,2015.53947 C124.029984,2015.53947 121.231763,2012.74125 121.231763,2009.28947 L121.231763,2006.54185 C121.231763,2003.09007 124.029984,2000.29185 127.481763,2000.29185 L158.75,2000.29185 C162.20178,2000.29185 165,2003.09007 165,2006.54185 Z M165,2090.80775 L165,2093.55537 C165,2097.00715 162.20178,2099.80537 158.75,2099.80537 L127.481763,2099.80537 C124.029984,2099.80537 121.231763,2097.00715 121.231763,2093.55537 L121.231763,2090.80775 C121.231763,2087.35597 124.029984,2084.55775 127.481763,2084.55775 L158.75,2084.55775 C162.20178,2084.55775 165,2087.35597 165,2090.80775 Z M165,2062.49349 L165,2065.24111 C165,2068.69289 162.20178,2071.49111 158.75,2071.49111 L127.481763,2071.49111 C124.029984,2071.49111 121.231763,2068.69289 121.231763,2065.24111 L121.231763,2062.49349 C121.231763,2059.04171 124.029984,2056.24349 127.481763,2056.24349 L158.75,2056.24349 C162.20178,2056.24349 165,2059.04171 165,2062.49349 Z M165,2034.50915 L165,2037.25678 C165,2040.70856 162.20178,2043.50678 158.75,2043.50678 L127.481763,2043.50678 C124.029984,2043.50678 121.231763,2040.70856 121.231763,2037.25678 L121.231763,2034.50915 C121.231763,2031.05737 124.029984,2028.25915 127.481763,2028.25915 L158.75,2028.25915 C162.20178,2028.25915 165,2031.05737 165,2034.50915 Z"></path>
        </g>
    </g>
</svg>