<?xml version="1.0" encoding="UTF-8"?>
<svg width="100px" height="100px" viewBox="0 0 100 100" version="1.1" xmlns="http://www.w3.org/2000/svg" xmlns:xlink="http://www.w3.org/1999/xlink">
    <g id="平台icon" stroke="none" stroke-width="1" fill="none" fill-rule="evenodd">
        <g transform="translate(-965.000000, -180.000000)" fill-rule="nonzero" id="消息">
            <g transform="translate(965.000000, 180.000000)">
                <rect id="矩形" fill="#000000" opacity="0" x="0" y="0" width="100" height="100"></rect>
                <path d="M50,100 C22.3828125,100 0,77.6171875 0,50 C0,22.3828125 22.3828125,0 50,0 C77.6171875,0 100,22.3828125 100,50 C100,77.6171875 77.6171875,100 50,100 Z M69.8632812,47.4609375 L69.8632812,42.2070312 C69.8632812,33.9648437 62.4316406,25.6738281 52.8222656,25 L47.3242188,25 C37.6855469,25.6542969 29.9902344,33.9550781 29.9902344,42.2167969 L29.9902344,61.3476562 L25,65.1464844 L25,70 L75,70 L75,65.8105469 L69.8632812,61.3378906 L69.8632812,47.4609375 Z M49.8730469,80 C54.3164063,80 58.2128906,78.1933594 60,75 L39.9902344,75 C41.7871094,78.1933594 45.4296875,80 49.8730469,80 Z M55,20 L55,15 L45,15 L45,20 C46.6992188,19.7265625 48.4179688,19.5898438 50.1367188,19.5898438 C51.7675781,19.5800781 53.3886719,19.7167969 55,20 L55,20 Z" id="形状" fill="#198EEB"></path>
            </g>
        </g>
    </g>
</svg>