<?xml version="1.0" encoding="UTF-8"?>
<svg width="100px" height="100px" viewBox="0 0 100 100" version="1.1" xmlns="http://www.w3.org/2000/svg" xmlns:xlink="http://www.w3.org/1999/xlink">
    <g id="平台icon" stroke="none" stroke-width="1" fill="none" fill-rule="evenodd">
        <g transform="translate(-1115.000000, -2000.000000)" fill="#666666" fill-rule="nonzero" id="元数据管理">
            <path d="M1208.75,2000 C1212.20178,2000 1215,2002.79822 1215,2006.25 L1215,2075 C1215,2078.45178 1212.20178,2081.25 1208.75,2081.25 L1121.25,2081.25 C1117.79822,2081.25 1115,2078.45178 1115,2075 L1115,2006.25 C1115,2002.79822 1117.79822,2000 1121.25,2000 L1208.75,2000 Z M1173.17947,2012.5 C1168.90761,2012.50316 1165.12782,2015.14215 1163.83003,2019.02762 C1162.53224,2022.91308 1164.01412,2027.15382 1167.49552,2029.51721 L1167.49552,2029.51721 L1159.16077,2050.27091 C1156.35495,2049.60673 1153.38509,2050.16236 1151.04943,2051.78847 L1151.04943,2051.78847 L1142.65453,2040.91944 C1144.36819,2038.41531 1143.98339,2035.10313 1141.7366,2033.01835 C1139.48982,2030.93357 1136.01083,2030.66056 1133.43761,2032.36711 C1130.86438,2034.07365 1129.91821,2037.28139 1131.18054,2040.01905 C1132.44288,2042.75671 1135.55988,2044.25691 1138.61604,2043.59773 L1138.61604,2043.59773 L1147.84012,2055.54957 C1145.79872,2059.91305 1147.5216,2065.04409 1151.83982,2067.46136 C1156.15803,2069.87863 1161.68967,2068.80855 1164.68158,2064.97715 C1167.6735,2061.14576 1167.16823,2055.77917 1163.50859,2052.51854 L1163.50859,2052.51854 L1172.07963,2031.19063 C1173.21438,2031.3134 1174.36284,2031.24678 1175.47368,2030.99376 L1175.47368,2030.99376 L1181.78918,2041.12862 C1178.76226,2044.85858 1179.11029,2050.15487 1182.60175,2053.49445 C1186.09322,2056.83403 1191.64031,2057.17639 1195.55314,2054.2938 C1199.46597,2051.41122 1200.52544,2046.2018 1198.0268,2042.1308 C1195.52816,2038.05981 1190.2499,2036.39562 1185.70308,2038.24525 L1185.70308,2038.24525 L1179.8172,2028.78304 C1182.79924,2026.16956 1183.79614,2022.07709 1182.32801,2018.47563 C1180.85989,2014.87416 1177.22754,2012.50159 1173.17947,2012.5 Z M1138.75,2090 L1191.25,2090 C1194.01142,2090 1196.25,2092.23858 1196.25,2095 C1196.25,2097.76142 1194.01142,2100 1191.25,2100 L1138.75,2100 C1135.98858,2100 1133.75,2097.76142 1133.75,2095 C1133.75,2092.23858 1135.98858,2090 1138.75,2090 Z"></path>
        </g>
    </g>
</svg>