<?xml version="1.0" encoding="UTF-8"?>
<svg width="100px" height="100px" viewBox="0 0 100 100" version="1.1" xmlns="http://www.w3.org/2000/svg" xmlns:xlink="http://www.w3.org/1999/xlink">
    <g id="平台icon" stroke="none" stroke-width="1" fill="none" fill-rule="evenodd">
        <g transform="translate(-1115.000000, -600.000000)" fill="#999999" fill-rule="nonzero" id="更多">
            <g transform="translate(1115.000000, 600.000000)">
                <rect id="矩形" opacity="0" x="0" y="0" width="100" height="100"></rect>
                <path d="M40,10 C40,15.5273438 44.4726562,20 50,20 C55.5273437,20 60,15.5273438 60,10 C60,4.48242187 55.5273438,0 50,0 C44.4824219,0 40,4.47265625 40,10 Z M40,50 C40,55.5273438 44.4726562,60 50,60 C55.5273437,60 60,55.5273438 60,50 C60,44.4726562 55.5273438,40 50,40 C44.4824219,40 40,44.4726562 40,50 Z M40,90 C40,95.5273438 44.4726562,100 50,100 C55.5273437,100 60,95.5273438 60,90 C60,84.4726562 55.5273438,80 50,80 C44.4824219,80 40,84.4726562 40,90 Z" id="形状"></path>
            </g>
        </g>
    </g>
</svg>