<?xml version="1.0" encoding="UTF-8"?>
<svg width="100px" height="100px" viewBox="0 0 100 100" version="1.1" xmlns="http://www.w3.org/2000/svg" xmlns:xlink="http://www.w3.org/1999/xlink">
    <g id="平台icon" stroke="none" stroke-width="1" fill="none" fill-rule="evenodd">
        <g transform="translate(-515.000000, -460.000000)" fill-rule="nonzero" id="消息">
            <g transform="translate(515.000000, 460.000000)">
                <rect id="矩形" fill="#000000" opacity="0" x="0" y="0" width="100" height="100"></rect>
                <path d="M0,50 C0,77.6171875 22.3828125,100 50,100 C77.6171875,100 100,77.6171875 100,50 C100,22.3828125 77.6171875,0 50,0 C22.3828125,0 0,22.3828125 0,50 Z" id="路径" fill="#1BCAF6"></path>
                <path d="M50.0878906,29.375 C49.2578125,28.9941406 48.2910156,29.1210938 47.578125,29.6875 L34.0429688,40.6640625 L23.2421875,40.625 L23.2324219,40.625 C22.6171875,40.625 22.0214844,40.8691406 21.5722656,41.2988281 C21.1328125,41.71875 20.8789062,42.3046875 20.8789062,42.9199219 L20.8300781,61.25 C20.8300781,61.8652344 21.0742188,62.4511719 21.5136719,62.8710938 C21.9628906,63.3007812 22.5585938,63.5449219 23.1835938,63.5449219 L34.1113281,63.5449219 L47.5878906,74.4726562 C48.3007812,75.0390625 49.2675781,75.1660156 50.0976562,74.7851562 C50.9179687,74.4238281 51.4453125,73.6132812 51.4550781,72.7148438 L51.4550781,31.4550781 C51.4453125,30.5566406 50.9179687,29.7460938 50.0878906,29.375 Z M59.2285156,40.8398438 C58.0761719,40.3125 56.6992187,40.78125 56.1230469,41.9140625 C55.5761719,43.046875 56.0449219,44.4140625 57.1777344,44.9609375 C57.1875,44.9609375 57.1972656,44.9707031 57.1972656,44.9707031 C57.34375,45.0488281 60.8691406,46.8261719 60.8691406,51.9140625 C60.8691406,57.34375 57.5683594,59.140625 57.4609375,59.1992188 C56.328125,59.7363281 55.8398437,61.0839844 56.3769531,62.2070312 L56.40625,62.265625 C56.8164062,63.046875 57.6269531,63.5351563 58.515625,63.5351563 C58.8769531,63.5351563 59.2382812,63.4570313 59.5703125,63.2910156 C59.8144531,63.1738281 65.5761719,60.2636719 65.5761719,51.9042969 C65.5761719,43.8476563 59.4824219,40.9570312 59.2285156,40.8398438 L59.2285156,40.8398438 Z M66.5527344,34.1210938 C65.46875,33.4472656 64.0332031,33.75 63.3203125,34.8046875 C62.6269531,35.8496094 62.9101562,37.2460938 63.9550781,37.9394531 C63.9746094,37.9492188 63.984375,37.9589844 64.0039062,37.96875 C64.2578125,38.1347656 70.2929687,42.1289063 70.2929687,52.0898438 C70.2929687,62.0605469 64.5019531,66.0742188 64.2773437,66.2207031 C63.2226562,66.8847656 62.9101562,68.28125 63.5742187,69.3261719 C63.5839844,69.3457031 63.6035156,69.375 63.6230469,69.3945312 C64.0722656,70.0390625 64.8046875,70.4199219 65.5859375,70.4103396 C66.0449219,70.4103396 66.5039062,70.2734375 66.8945312,70.0195312 C67.2265625,69.8046875 75.0097656,64.609375 75.0097656,52.0703125 C75,39.5117188 66.9042969,34.3261719 66.5527344,34.1210938 L66.5527344,34.1210938 Z" id="形状" fill="#FFFFFF"></path>
            </g>
        </g>
    </g>
</svg>