<?xml version="1.0" encoding="UTF-8"?>
<svg width="100px" height="100px" viewBox="0 0 100 100" version="1.1" xmlns="http://www.w3.org/2000/svg" xmlns:xlink="http://www.w3.org/1999/xlink">
    <g id="平台icon" stroke="none" stroke-width="1" fill="none" fill-rule="evenodd">
        <g transform="translate(-665.000000, -1720.000000)" fill-rule="nonzero" id="没有搜索结果">
            <g transform="translate(665.000000, 1720.000000)">
                <rect id="矩形备份-4" fill-opacity="0" fill="#EFE9DE" x="0" y="0" width="100" height="100"></rect>
                <g id="search_none" transform="translate(12.571290, 15.000000)">
                    <g id="矩形" transform="translate(34.260418, 2.842683)" fill="#E2E2E2">
                        <polygon id="路径" points="7.14585366 5.66676335e-16 40.3104878 3.38707317 40.0880488 34.2139025 36.8846342 39.8180488 1.17961196e-15 32.7607317 0.222439025 5.66676335e-16"></polygon>
                    </g>
                    <g id="路径-6" transform="translate(31.395784, 2.822195)" fill="#D3D3D3">
                        <polygon id="路径" points="5.16365854 0.729512195 0.222439024 6.9388939e-16 -1.18539438e-15 33.8817073 39.2597561 41.8382927 41.5485365 38.0553658 4.94121951 30.7317073"></polygon>
                    </g>
                    <g id="路径-6-2" transform="translate(31.395784, 2.822195)" fill="#D3D3D3">
                        <polygon id="路径" points="-7.51713506e-17 33.8817073 0.222439024 6.9388939e-16 5.16365854 0.729512195 4.94121951 30.7317073"></polygon>
                    </g>
                    <g id="路径-7" transform="translate(31.618222, 0.000000)" fill="#DDDDDD">
                        <polygon id="路径" points="-3.57063915e-16 2.63414634 39.4346341 8.66926833 39.2129268 44.6604878 43.0880488 40.5197561 43.3104878 5.06121951 6.00658537 0"></polygon>
                    </g>
                    <polygon id="路径-7-2" fill="#EAEAEA" points="71.0528566 8.66926833 70.8311493 44.6604878 74.7062713 40.5197561 74.9287103 5.06121951"></polygon>
                    <g id="路径-8" transform="translate(0.557979, 37.574634)" fill="#B7B7B7">
                        <polygon id="路径" points="30.017561 -1.08131097e-15 70.3748781 9.0892683 70.3748781 15.9058536 43.47 32.3795122 -2.38235357e-15 20.9356097 -2.38235357e-15 13.1195122"></polygon>
                    </g>
                    <g id="路径-10" transform="translate(30.907003, 37.574634)" fill="#C8C8C8">
                        <polygon id="路径" points="0 0 0 6.54 40.2139024 15.2597561 40.2139024 8.17463414"></polygon>
                    </g>
                    <g id="路径-11" transform="translate(0.746759, 37.574634)" fill="#DDDDDD">
                        <polygon id="路径" points="30.1602439 0 30.1602439 6.75951219 0 20.8419512 0 12.9563415"></polygon>
                    </g>
                    <g id="路径-9" transform="translate(0.001881, 46.134878)" fill="#DDDDDD">
                        <polygon id="路径" points="71.1190244 -5.49329101e-16 44.0260976 14.6692683 0 4.94707317 0 13.4985366 44.0260976 23.8192683 71.1190244 7.80658537"></polygon>
                    </g>
                    <g id="路径-9-2" transform="translate(44.027979, 46.134878)" fill="#EAEAEA">
                        <polygon id="路径" points="2.13949229e-16 14.6692683 27.0929269 -5.49329101e-16 27.0929269 7.80658537 2.13949229e-16 23.8192683"></polygon>
                    </g>
                    <g id="路径-12" transform="translate(0.000000, 37.202857)" fill="#F4F4F4">
                        <path d="M43.987003,23.8215335 C43.9599341,23.8215335 43.9329447,23.8186017 43.9065152,23.812753 L0.29456397,14.2156798 C0.136780085,14.1819372 0.0186684762,14.0504323 0.00200299827,13.8899437 C-0.0146624798,13.7294552 0.0739089179,13.5764879 0.221393239,13.5110456 L30.8726127,0.0315334133 C30.9441573,5.74409455e-06 31.0237367,-0.00804243296 31.1001737,0.00811877913 L71.0126127,8.50031388 C71.1649861,8.53302479 71.2808813,8.65714771 71.3030811,8.81140346 C71.3252808,8.96565913 71.2490904,9.11742613 71.112125,9.19177729 L44.1640761,23.7747041 C44.1098127,23.8046675 44.0489846,23.8207543 43.987003,23.8215335 Z M1.56846641,13.7334846 L43.9343201,23.0539725 L69.8689542,9.01763096 L31.0650518,0.761045608 L1.56846641,13.7334846 Z" id="形状"></path>
                    </g>
                    <g id="路径-13" transform="translate(31.398676, 2.483791)" fill="#F4F4F4">
                        <path d="M39.2129611,42.5345089 C39.1883808,42.5345089 39.1638533,42.5322045 39.1397904,42.5271849 L0.286131863,34.5405995 C0.118549148,34.5063247 -0.001336024,34.3582313 1.12418529e-05,34.1871849 L0.219546497,0.354501965 C0.220503962,0.250859747 0.266356521,0.152725222 0.345238858,0.0854927675 C0.424121195,0.0182603133 0.528281468,-0.0114630738 0.63076601,0.00401415996 L39.4844245,5.85767269 C39.6603973,5.88386624 39.7903938,6.03537294 39.7895547,6.21328245 L39.5700343,42.1759653 C39.5688272,42.3727178 39.4089855,42.5315788 39.2122294,42.5315751 L39.2129611,42.5345089 Z M0.717107473,33.9003556 L38.8551563,41.7384044 L39.0746684,6.52206294 L0.932961128,0.774501962 L0.717107473,33.9003556 Z" id="形状"></path>
                    </g>
                    <g id="矩形-2" transform="translate(39.967783, 37.396310)" fill="#B7B7B7">
                        <path d="M0.643853571,0.00856782461 L21.0343414,4.33149465 C21.1307095,4.35154916 21.2151569,4.4090806 21.2690907,4.49142227 C21.3230245,4.57376393 21.3420227,4.67416461 21.3219023,4.77051904 L21.3219023,4.77051904 L21.1316585,5.66247026 C21.0881336,5.86188169 20.8927335,5.9895431 20.6926341,5.94929953 L0.294829181,1.62856783 C0.198497801,1.60852559 0.114106259,1.55096288 0.0602896694,1.46859055 C0.00647307987,1.38621822 -0.0123417165,1.28581204 0.0079999132,1.18954344 L0.0079999132,1.18954344 L0.198243816,0.297592215 C0.21860104,0.199947931 0.277128549,0.114484935 0.36081142,0.0602078676 C0.44449429,0.00593080078 0.546394986,-0.0126606222 0.643853571,0.00856782461 L0.643853571,0.00856782461 Z" id="路径"></path>
                    </g>
                    <g id="编组-8" transform="translate(14.895783, 55.805122)">
                        <g id="路径-14" transform="translate(0.559024, 0.226098)" fill="#F4F4F4">
                            <polygon id="路径" points="1.67560975 0 1.67560975 1.03682927 0.558292683 1.86073171 0 0.744146341"></polygon>
                        </g>
                        <g id="路径-16" transform="translate(1.117317, 1.674878)" fill="#EAEAEA">
                            <polygon id="路径" points="0.558292683 0 8.52439025 1.86731707 8.52439025 2.98390244 0 0.411951219"></polygon>
                        </g>
                        <g id="路径-14备份" transform="translate(10.538780, 2.425610)" fill="#F4F4F4">
                            <polygon id="路径" points="1.67560976 -5.78241159e-17 1.67560976 1.59512195 0.0731707314 2.79146342 -2.89120579e-17 0.9702439"></polygon>
                        </g>
                        <g id="路径-15" fill="#C8C8C8">
                            <polygon id="路径" points="1.11731707 1.73472348e-16 2.83338168e-16 0.691463415 2.83338168e-16 2.64512195 10.6119512 5.21707317 10.6119512 3.39585366 12.2143903 2.42560976 11.0180488 2.16658537 9.5685366 2.98390244 9.5685366 4.1004878 1.11731707 2.08682927 1.11731707 1.0302439 2.23463415 0.226097561"></polygon>
                        </g>
                    </g>
                    <g id="路径-18" transform="translate(8.090173, 12.070244)" fill="#EAEAEA">
                        <path d="M3.91170731,5.81048781 C3.73170731,5.56658536 3.25195122,3.6297561 2.47243902,-1.15648232e-16 L7.51713506e-17,1.63756097 C2.7897561,4.66487805 4.09365854,6.05585366 3.91170731,5.81048781 Z" id="路径"></path>
                    </g>
                    <g id="路径-19" transform="translate(3.855784, 14.427073)" fill="#EAEAEA">
                        <polygon id="路径" points="8.27853658 5.37585366 2.02463414 0 0 2.72487805"></polygon>
                    </g>
                    <g id="路径-20" transform="translate(5.393101, 19.619268)" fill="#EAEAEA">
                        <polygon id="路径" points="6.27 0.869268297 0 0 0.532682927 1.57756097"></polygon>
                    </g>
                    <g id="编组" opacity="0.5" transform="translate(20.772552, 19.641010)" fill="#F4F4F4">
                        <path d="M7.34810894,1.27191696 C10.822987,3.84167306 13.2017674,9.45459989 12.6610358,13.8082584 C12.120304,18.161917 8.86347477,19.6092341 5.39006016,17.0394779 C1.91664552,14.4697218 -0.46359838,8.85679498 0.0764016203,4.50313647 C0.61640162,0.149477933 3.87323089,-1.29783914 7.34810894,1.27191696 Z" id="路径"></path>
                    </g>
                    <path d="M23.3272469,19.8753658 L25.8091981,18.7470732 C25.1206616,19.0602439 24.5513932,19.5929268 24.1167591,20.3312195 C23.6909054,21.0548781 23.4099298,21.9446342 23.2818811,22.9770732 C23.1558988,24.0866437 23.1871831,25.2084435 23.3748079,26.3092683 C23.5819611,27.5657507 23.9399121,28.7926602 24.4409054,29.9634147 C24.9311411,31.1330932 25.5618732,32.2387786 26.3191981,33.2560976 C26.9731401,34.1441124 27.7521953,34.9327795 28.632125,35.597561 C29.4560274,36.2070732 30.2828566,36.6051219 31.0891981,36.7807317 C31.9233445,36.9621951 32.6989542,36.8963415 33.4006616,36.5853658 L33.427003,36.5736585 L30.9443201,37.7019513 L30.9187103,37.7136585 C30.2191981,38.0246342 29.4413932,38.0897561 28.6072469,37.9082927 C27.8023688,37.7326829 26.9733445,37.3353658 26.149442,36.7258537 C25.2696384,36.0595142 24.4906296,35.2696619 23.8365152,34.3807317 C23.0795721,33.3631631 22.4488674,32.2575258 21.9582225,31.0880488 C21.4578567,29.9188442 21.0999209,28.6937061 20.892125,27.4390244 C20.7047155,26.3384139 20.6736772,25.2168518 20.7999298,24.107561 C20.9279786,23.0751219 21.2089542,22.1853658 21.6348079,21.4617073 C22.069442,20.7212195 22.6387103,20.1885366 23.3272469,19.8753658 Z" id="路径" fill="#D3D3D3"></path>
                    <path d="M38.0579786,33.9219513 C38.0740761,33.7946342 38.0879786,33.6658537 38.1004176,33.5356098 C38.1004176,33.5217073 38.1004176,33.5085366 38.1048079,33.4946342 L38.1048079,33.4617073 C38.1165152,33.3336585 38.1260274,33.2048781 38.1340761,33.0753658 C38.1340761,33.0665853 38.1340761,33.0578049 38.1340761,33.0490244 C38.1340761,33.0402439 38.1340761,33.0190244 38.1340761,33.0051219 C38.1413932,32.8719513 38.1472469,32.7387805 38.1509054,32.6034147 C38.1509054,32.6034147 38.1509054,32.5997561 38.1509054,32.5982927 L38.1509054,32.5982927 C38.1509054,32.4614634 38.1552956,32.3239024 38.1552956,32.1848781 C38.1552956,32.1695122 38.1552956,32.1548781 38.1552956,32.1402439 C38.1552956,32.1256098 38.1552956,32.1197561 38.1552956,32.1102439 C38.1552956,31.9748781 38.1552956,31.8395122 38.1479786,31.7026829 C38.1479786,31.6917073 38.1479786,31.6807317 38.1479786,31.6697561 C38.1479786,31.6587805 38.1479786,31.6397561 38.1479786,31.6243903 C38.1426127,31.4829268 38.1357835,31.3407317 38.1274908,31.1978049 C38.1271301,31.1953792 38.1271301,31.1929135 38.1274908,31.1904878 C38.1271281,31.1834193 38.1271281,31.1763368 38.1274908,31.1692683 C38.1179786,31.0273171 38.107003,30.8853658 38.094564,30.7419513 C38.094564,30.7280488 38.094564,30.7141463 38.094564,30.6995122 L38.094564,30.6790244 C38.0813932,30.5326829 38.0660274,30.3907317 38.0484664,30.2451219 L38.0440761,30.2026829 C38.0440761,30.1887805 38.0404176,30.1741463 38.0382225,30.1602439 C38.0206616,30.0139024 38.0011493,29.867561 37.9796859,29.7212195 C37.9796859,29.7139024 37.9796859,29.7065853 37.9796859,29.6992683 C37.9796859,29.6919513 37.974564,29.6692683 37.9723688,29.6539024 C37.9509054,29.5134147 37.9279786,29.3721951 37.9035884,29.2302439 L37.8991981,29.2009756 L37.8991981,29.19 C37.8735884,29.0436585 37.8457835,28.8973171 37.8165152,28.7546342 L37.8077347,28.7063415 C37.8077347,28.692439 37.8011493,28.6778049 37.7982225,28.6631708 C37.7696859,28.5241463 37.7404176,28.3843903 37.7082225,28.2446342 C37.7073538,28.2389538 37.706132,28.2333332 37.704564,28.2278049 C37.704564,28.2131708 37.6972469,28.1978049 37.6943201,28.1831708 C37.6655396,28.0607317 37.6360274,27.9387805 37.6057835,27.8173171 C37.6006616,27.7982927 37.597003,27.78 37.5926127,27.7617073 C37.5882225,27.7434147 37.5860274,27.7390244 37.5831006,27.7280488 C37.549442,27.5934147 37.5138322,27.4587805 37.4762713,27.3241463 C37.4762713,27.3160976 37.4762713,27.3080488 37.4696859,27.3 L37.4543201,27.2443903 C37.422125,27.1312195 37.3891981,27.0178049 37.3555396,26.9041463 C37.3496859,26.8843903 37.344564,26.8646342 37.3387103,26.8448781 C37.3328566,26.8251219 37.3313932,26.8229268 37.3284664,26.8119513 C37.2867591,26.6743903 37.2435884,26.537561 37.1989542,26.4 L37.1901737,26.3729268 C37.1850518,26.3560976 37.1784664,26.3392683 37.1733445,26.322439 C37.1287103,26.1878049 37.0833445,26.0531708 37.0357835,25.9185366 C37.0313932,25.9046342 37.027003,25.8907317 37.0218811,25.8768293 C37.0167591,25.8629268 37.0182225,25.8673171 37.0167591,25.8621951 C36.9523688,25.6821951 36.8855396,25.5017073 36.8162713,25.3207317 C36.8111493,25.307561 36.8074908,25.2951219 36.8023688,25.2826829 L36.7899298,25.2519513 C36.762125,25.1787805 36.7328566,25.1056098 36.7035884,25.032439 C36.6896859,24.9965853 36.6757835,24.9592683 36.6611493,24.9248781 C36.6172469,24.8156098 36.572125,24.7070732 36.5257835,24.5992683 C36.5111493,24.5634147 36.4957835,24.5260976 36.4811493,24.4931708 L36.4452956,24.4119513 C36.4150518,24.3431708 36.3850518,24.2751219 36.3552956,24.2078049 C36.3355396,24.1639024 36.3165152,24.1207317 36.2967591,24.077561 C36.2660274,24.0102439 36.2352956,23.9429268 36.2038322,23.8763415 C36.1848079,23.8346342 36.1650518,23.7921951 36.1452956,23.7504878 C36.112125,23.6807317 36.0784664,23.6112195 36.0443201,23.5419513 C36.0267591,23.5046342 36.0084664,23.4687805 35.9901737,23.43 C35.9477347,23.3443903 35.904564,23.2587805 35.8613932,23.1739024 L35.8350518,23.1219513 C35.8353131,23.1200088 35.8353131,23.11804 35.8350518,23.1160976 C35.774564,22.9980488 35.7131006,22.8809756 35.6506616,22.7648781 L35.5979786,22.6690244 C35.5496859,22.5797561 35.5006616,22.4912195 35.4516371,22.4026829 L35.4187103,22.3426829 L35.4048079,22.32 C35.3111493,22.1546342 35.2155396,21.9914634 35.1179786,21.8304878 C35.1106616,21.8195122 35.1040761,21.8078049 35.0974908,21.7960976 L35.0828566,21.7726829 C34.9989542,21.6346342 34.9135884,21.4982927 34.8267591,21.3636585 L34.8033445,21.3263415 L34.7784664,21.2897561 C34.6940761,21.1604878 34.6089542,21.032439 34.5231006,20.9056098 C34.5187103,20.8990244 34.5143201,20.8917073 34.5091981,20.8851219 C34.5040761,20.8785366 34.4923688,20.8609756 34.4835884,20.8485366 C34.3923688,20.7143903 34.2996859,20.5829268 34.2055396,20.4541463 L34.2055396,20.4541463 L34.2055396,20.4541463 C34.1079786,20.3185366 34.0087103,20.1858537 33.9077347,20.0560976 L33.8843201,20.0246342 L33.8726127,20.0092683 C33.7731006,19.8804878 33.672125,19.7546342 33.5711493,19.6302439 L33.5440761,19.5973171 L33.5257835,19.5753658 C33.4226127,19.4502439 33.319442,19.3287805 33.2148079,19.2095122 L33.1891981,19.1787805 C33.1811493,19.1707317 33.1738322,19.1626829 33.1665152,19.1539024 C33.0611493,19.0346342 32.9557835,18.917561 32.8489542,18.8034147 C32.8409054,18.7946342 32.8328566,18.7851219 32.8240761,18.7763415 L32.7991981,18.75 C32.6931006,18.6380488 32.587003,18.5304878 32.479442,18.42 L32.4574908,18.3973171 L32.4165152,18.3658537 C32.3111493,18.2604878 32.2043201,18.1573171 32.0974908,18.0578049 L32.0806616,18.0417073 L32.052125,18.0153658 C31.9438322,17.9158537 31.8326127,17.8178049 31.7265152,17.7226829 L31.7206616,17.717561 C31.7153868,17.7125356 31.709763,17.7078898 31.7038322,17.7036585 C31.5999298,17.6129268 31.494564,17.5251219 31.3891981,17.4395122 L31.3665152,17.4197561 L31.3562713,17.412439 C31.2538322,17.3290244 31.1506616,17.2482927 31.0467591,17.1702439 C31.0365152,17.1621951 31.0262713,17.1534147 31.0152956,17.1460976 L30.9348079,17.0853658 C30.8543201,17.0260976 30.7738322,16.9690244 30.6933445,16.9126829 L30.6677347,16.8936585 C30.6567591,16.8856098 30.6450518,16.8790244 30.6340761,16.8717073 C30.5309054,16.7985366 30.427003,16.7297561 30.3223688,16.662439 L30.3223688,16.662439 L30.3187103,16.662439 C30.2162713,16.5965853 30.1131006,16.5336585 30.0106616,16.4721951 L29.977003,16.4517073 L29.9557835,16.44 C29.8562713,16.3814634 29.7560274,16.3258537 29.6557835,16.2717073 L29.6301737,16.2570732 L29.5972469,16.2409756 C29.4938322,16.1863415 29.3906616,16.1339024 29.2877347,16.0836585 L29.2811493,16.0836585 L29.2628566,16.0756098 C29.1604176,16.0268293 29.0582225,15.9807317 28.9562713,15.9373171 L28.927003,15.9241463 L28.9057835,15.9153658 L28.8326127,15.8860976 C28.7916371,15.8692683 28.7506616,15.852439 28.7096859,15.8370732 L28.632125,15.8070732 L28.5648079,15.7814634 L28.5165152,15.7646342 L28.4323688,15.7346342 L28.3196859,15.6965853 L28.2355396,15.6702439 L28.1938322,15.6563415 L28.1257835,15.6365853 L28.0365152,15.6109756 C27.9991981,15.6 27.9633445,15.5904878 27.9260274,15.5809756 L27.8382225,15.5582927 L27.8111493,15.5509756 L27.7379786,15.5341463 L27.6391981,15.5114634 L27.5367591,15.4909756 L27.4387103,15.4719513 L27.4138322,15.467561 L27.3457835,15.4565853 L27.2213932,15.4317073 L27.1284664,15.4192683 C27.0904176,15.4148781 27.0552956,15.4097561 27.0143201,15.4060976 L26.9799298,15.4017073 L26.929442,15.3980488 C26.8833445,15.3936585 26.8372469,15.3907317 26.7911493,15.3878049 L26.707003,15.3826829 L26.5687103,15.3782927 L26.514564,15.3782927 L26.4918811,15.3782927 C26.4128566,15.3782927 26.3338322,15.3782927 26.2555396,15.3782927 L26.2299298,15.3782927 C26.1567591,15.3782927 26.089442,15.3863415 26.0199298,15.3929268 L25.9899298,15.3929268 L25.9167591,15.4009756 L25.8501737,15.4090244 C25.8077347,15.4141463 25.7660274,15.42 25.7235884,15.4265853 L25.6709054,15.4346342 C25.6116371,15.4441463 25.5531006,15.4551219 25.4938322,15.467561 L25.4652956,15.4734147 C25.422125,15.4829268 25.3796859,15.4917073 25.3365152,15.5026829 L25.3204176,15.5063415 L25.2113932,15.5356098 L25.1301737,15.5582927 C25.092125,15.5692683 25.057003,15.5817073 25.0167591,15.5934147 L24.9435884,15.617561 L24.8191981,15.6629268 L24.757003,15.6856098 C24.6955396,15.7097561 24.6340761,15.7353658 24.5733445,15.762439 L22.0913932,16.8907317 C22.152125,16.8636585 22.2135884,16.8380488 22.2750518,16.817561 L22.3372469,16.7948781 C22.3782225,16.7787805 22.4199298,16.7634147 22.4609054,16.7495122 C22.4857835,16.7407317 22.5106616,16.7334147 22.5340761,16.7253658 C22.572125,16.7129268 22.6072469,16.7004878 22.6482225,16.6895122 C22.674564,16.6814634 22.7016371,16.6748781 22.7287103,16.667561 C22.7557835,16.6602439 22.8018811,16.6470732 22.8384664,16.6382927 C22.8867591,16.6265853 22.9357835,16.6156098 22.9848079,16.6053658 L23.0126127,16.5987805 C23.0711493,16.5870732 23.1304176,16.5760976 23.1896859,16.5665853 L23.2416371,16.5585366 L23.3689542,16.5402439 L23.4355396,16.5329268 L23.5365152,16.5226829 C23.6060274,16.5168293 23.6762713,16.5117073 23.7465152,16.5087805 L23.7713932,16.5087805 C23.8504176,16.5051219 23.9287103,16.5043903 24.0077347,16.5051219 L24.0852956,16.5051219 L24.2235884,16.5095122 L24.3077347,16.5139024 L24.4452956,16.5248781 L24.5309054,16.5329268 L24.6450518,16.5460976 L24.7372469,16.5578049 L24.8543201,16.5760976 L24.9457835,16.5914634 L25.0438322,16.6104878 L25.147003,16.6309756 C25.1799298,16.637561 25.212125,16.6456098 25.2450518,16.6529268 L25.3496859,16.6778049 L25.4367591,16.7004878 L25.5472469,16.7297561 L25.6365152,16.7560976 L25.747003,16.7890244 L25.8304176,16.8160976 L25.9438322,16.8541463 L26.0272469,16.8834147 L26.1435884,16.9265853 L26.2211493,16.9558537 L26.3433445,17.0048781 L26.4165152,17.0348781 L26.4662713,17.0560976 C26.5687103,17.1 26.6711493,17.1463415 26.7735884,17.1951219 L26.7977347,17.2068293 C26.9016371,17.2558537 27.0048079,17.3092683 27.1079786,17.3634147 L27.1665152,17.3948781 C27.267003,17.4480488 27.367003,17.5041463 27.4665152,17.5631708 L27.5206616,17.5953658 C27.6238322,17.6568293 27.727003,17.7190244 27.8301737,17.7856098 L27.8338322,17.7856098 C27.9377347,17.8521951 28.0416371,17.922439 28.1455396,17.9948781 L28.2048079,18.0351219 C28.2852956,18.0914634 28.3657835,18.1492683 28.4455396,18.2085366 C28.4835884,18.2363415 28.5187103,18.2648781 28.5582225,18.2934147 C28.6613932,18.3717073 28.7652956,18.4521951 28.8677347,18.5348781 L28.8999298,18.5619513 C29.0060274,18.647561 29.1106616,18.7360976 29.2160274,18.8268293 L29.2379786,18.8458537 C29.347003,18.9402439 29.4574908,19.0382927 29.5635884,19.1385366 L29.6082225,19.1802439 C29.7157835,19.2804878 29.8218811,19.3836585 29.9279786,19.4890244 L29.9784664,19.5387805 C30.0852956,19.6463415 30.192125,19.7582927 30.2974908,19.8687805 L30.3479786,19.9221951 C30.4543201,20.0363415 30.5601737,20.1531708 30.6655396,20.2726829 L30.7138322,20.327561 C30.8177347,20.447561 30.9213932,20.5695122 31.0248079,20.6934147 L31.069442,20.7482927 C31.1711493,20.8726829 31.2713932,20.9985366 31.3709054,21.1273171 L31.4067591,21.1734147 C31.5072469,21.3046342 31.6065152,21.4373171 31.704564,21.5714634 L31.704564,21.5714634 C31.7982225,21.7009756 31.8904176,21.8326829 31.9826127,21.9658537 L32.022125,22.0236585 C32.1084664,22.1495122 32.1935884,22.277561 32.2774908,22.4078049 C32.2935884,22.4319513 32.3096859,22.4568293 32.3250518,22.4809756 C32.412125,22.6156098 32.497003,22.7517073 32.5818811,22.89 L32.6162713,22.9478049 C32.7135884,23.1087805 32.809442,23.2712195 32.9038322,23.4365853 C32.9191981,23.4643903 32.934564,23.4921951 32.9506616,23.52 C33.0004176,23.6078049 33.049442,23.6970732 33.097003,23.7863415 C33.114564,23.8178049 33.132125,23.85 33.1489542,23.8821951 C33.2118811,23.9985366 33.2733445,24.1148781 33.3340761,24.2334147 L33.3626127,24.2890244 C33.4057835,24.3746342 33.4496859,24.4609756 33.492125,24.5473171 C33.5104176,24.5839024 33.5279786,24.6204878 33.5462713,24.6585366 L33.6472469,24.8678049 C33.667003,24.9095122 33.6860274,24.9512195 33.7057835,24.9936585 C33.7365152,25.0602439 33.7679786,25.1268293 33.7979786,25.1941463 L33.8572469,25.3243903 C33.8872469,25.392439 33.9172469,25.4604878 33.9465152,25.5292683 C33.9757835,25.5980488 34.0013932,25.6536585 34.0277347,25.7158537 C34.0735884,25.8251219 34.1184664,25.9336585 34.1623688,26.0414634 L34.2055396,26.1490244 C34.2348079,26.2221951 34.2633445,26.2953658 34.2918811,26.3685366 L34.3182225,26.4380488 C34.3879786,26.6180488 34.454564,26.7985366 34.5179786,26.9795122 L34.5377347,27.0358537 C34.5865152,27.1704878 34.632125,27.3048781 34.674564,27.4390244 L34.7009054,27.5173171 C34.7455396,27.6548781 34.7879786,27.7917073 34.8296859,27.9292683 L34.8574908,28.0207317 C34.8911493,28.1348781 34.9240761,28.2482927 34.9555396,28.3609756 C34.9628566,28.3880488 34.9709054,28.4151219 34.9782225,28.4414634 C35.0155396,28.5760976 35.0513932,28.7107317 35.0850518,28.8446342 L35.107003,28.9339024 C35.1377347,29.0568293 35.1677347,29.1797561 35.1955396,29.2997561 C35.2006616,29.3202439 35.2057835,29.3407317 35.2101737,29.3612195 C35.2413932,29.5007317 35.2713932,29.64 35.3001737,29.7790244 C35.3060274,29.8097561 35.3126127,29.8404878 35.3184664,29.8712195 C35.3477347,30.017561 35.3755396,30.1639024 35.4004176,30.3065853 C35.4004176,30.3197561 35.4055396,30.3336585 35.4077347,30.3468293 C35.4318811,30.4887805 35.4552956,30.63 35.4765152,30.7704878 C35.4765152,30.792439 35.4831006,30.8151219 35.4860274,30.8370732 C35.5079786,30.9834147 35.5277347,31.1297561 35.5452956,31.2760976 C35.5452956,31.3046342 35.5518811,31.3331708 35.5555396,31.3617073 C35.5723688,31.5080488 35.5884664,31.6543903 35.6016371,31.7948781 C35.6016371,31.8160976 35.6052956,31.8373171 35.6067591,31.8578049 C35.6199298,32.0012195 35.6309054,32.1436585 35.6396859,32.2851219 L35.6396859,32.3136585 C35.6484664,32.46 35.6550518,32.5990244 35.6601737,32.7409756 C35.6601737,32.7665853 35.6601737,32.7929268 35.6601737,32.8192683 C35.664564,32.9553658 35.6674908,33.0914634 35.6682225,33.2260976 L35.6682225,33.2992683 C35.6682225,33.437561 35.6682225,33.5758537 35.6631006,33.7119513 L35.6631006,33.7192683 C35.6631006,33.8539024 35.6535884,33.9878049 35.6462713,34.1202439 L35.6418811,34.1934147 C35.634564,34.3236585 35.6243201,34.452439 35.6133445,34.5797561 C35.6133445,34.6046342 35.6089542,34.6295122 35.6060274,34.6529268 C35.5943201,34.782439 35.5804176,34.9119513 35.5643201,35.0392683 L35.5599298,35.0729268 C35.5428566,35.2021951 35.5243201,35.3302439 35.5043201,35.4570732 L35.4977347,35.4995122 C35.4765152,35.6282927 35.4523688,35.7556098 35.424564,35.8814634 L35.4113932,35.9458537 C35.3850518,36.0741463 35.3565152,36.2002439 35.3257835,36.3241463 L35.3104176,36.3863415 C35.2782225,36.5158537 35.2431006,36.6431708 35.2065152,36.7690244 C35.197003,36.7997561 35.1874908,36.8304878 35.1787103,36.8612195 L35.1435884,36.972439 C35.1318811,37.0090244 35.1201737,37.0456098 35.1077347,37.0821951 C35.0952956,37.1187805 35.0835884,37.1553658 35.0711493,37.1904878 C35.0587103,37.2256098 35.047003,37.2570732 35.0352956,37.29 C35.0191981,37.3339024 35.0038322,37.3770732 34.987003,37.4195122 C34.9701737,37.4619513 34.9628566,37.4831708 34.9504176,37.5146342 C34.9379786,37.5460976 34.9160274,37.5995122 34.8991981,37.6412195 C34.8867591,37.6712195 34.8743201,37.7012195 34.8611493,37.7304878 C34.8391981,37.782439 34.8165152,37.8343903 34.7931006,37.8848781 C34.782125,37.9082927 34.7718811,37.932439 34.7609054,37.9580488 C34.7262713,38.0312195 34.6911493,38.1043903 34.6555396,38.177561 L34.6555396,38.177561 C34.6160274,38.2551219 34.5750518,38.3312195 34.5333445,38.4058537 L34.4960274,38.4717073 C34.4623688,38.5302439 34.4287103,38.5880488 34.3935884,38.6443903 L34.3613932,38.6970732 C34.3043201,38.7878049 34.2455396,38.8765853 34.1850518,38.9634147 C34.1740761,38.9787805 34.1631006,38.9948781 34.1513932,39.0102439 C34.0906616,39.0958537 34.0277347,39.1792683 33.9633445,39.2597561 L33.9260274,39.3058537 C33.8806616,39.3614634 33.8338322,39.4163415 33.787003,39.4697561 C33.7738322,39.4836585 33.762125,39.4982927 33.7489542,39.5121951 C33.6918811,39.5751219 33.6333445,39.6373171 33.5740761,39.6965853 L33.534564,39.7346342 C33.4857835,39.7834147 33.434564,39.8321951 33.3809054,39.8809756 L33.3355396,39.9219513 C33.2726127,39.977561 33.2082225,40.0317073 33.1423688,40.0829268 C33.1313932,40.092439 33.1196859,40.1004878 33.1079786,40.1092683 C33.0516371,40.1539024 32.9938322,40.1963415 32.9352956,40.2373171 C32.9177347,40.2497561 32.9009054,40.2621951 32.8826127,40.2739024 C32.8138322,40.3214634 32.7443201,40.3668293 32.6726127,40.4107317 L32.6491981,40.4239024 C32.5840761,40.4626829 32.5182225,40.4970732 32.4509054,40.5358537 L32.3923688,40.5665853 C32.3191981,40.6046342 32.2416371,40.6397561 32.1640761,40.6763415 L34.6460274,39.5487805 C34.7235884,39.5143903 34.7996859,39.4756098 34.8743201,39.4382927 L34.9335884,39.407561 C35.0001737,39.3717073 35.0660274,39.3343903 35.1311493,39.2963415 L35.1552956,39.282439 C35.2284664,39.2392683 35.2957835,39.1931708 35.3652956,39.1463415 L35.4179786,39.1090244 C35.4765152,39.0680488 35.5335884,39.0256098 35.5899298,38.9817073 L35.6250518,38.9553658 C35.6901737,38.9034147 35.754564,38.8492683 35.8174908,38.7943903 L35.8635884,38.7526829 C35.9155396,38.7058537 35.9667591,38.657561 36.0172469,38.6063415 C36.0296859,38.5931708 36.0428566,38.5807317 36.0560274,38.5682927 C36.1160274,38.5082927 36.1738322,38.4468293 36.2309054,38.3831708 C36.2440761,38.3692683 36.2565152,38.3546342 36.2689542,38.3407317 C36.3165152,38.2873171 36.3626127,38.232439 36.4079786,38.1768293 C36.4167591,38.1665853 36.4255396,38.1570732 36.4335884,38.1468293 L36.4452956,38.1314634 C36.5104176,38.0502439 36.5726127,37.9668293 36.6340761,37.8819513 L36.667003,37.8343903 C36.7277347,37.7480488 36.787003,37.6595122 36.8433445,37.5687805 L36.8528566,37.5548781 L36.8762713,37.5153658 C36.9106616,37.4590244 36.9450518,37.4012195 36.9779786,37.3426829 L37.0152956,37.277561 C37.057003,37.2043903 37.0979786,37.1268293 37.1374908,37.0492683 L37.1374908,37.0456098 L37.1374908,37.0456098 C37.1731006,36.9743903 37.2082225,36.9012195 37.2428566,36.8260976 L37.2750518,36.7529268 C37.2984664,36.7017073 37.3211493,36.6504878 37.3438322,36.5985366 C37.3482225,36.5868293 37.3540761,36.5758537 37.3584664,36.5641463 C37.3628566,36.552439 37.3738322,36.5268293 37.3811493,36.5085366 C37.3987103,36.4668293 37.4155396,36.4251219 37.4323688,36.3826829 C37.4491981,36.3402439 37.4572469,36.3190244 37.4689542,36.287561 C37.4860274,36.2446342 37.502125,36.2014634 37.5172469,36.1580488 C37.524564,36.1390244 37.5318811,36.12 37.5384664,36.1009756 C37.5450518,36.0819513 37.5479786,36.072439 37.5531006,36.0578049 C37.5655396,36.0219513 37.5779786,35.9846342 37.5896859,35.9495122 C37.6013932,35.9143903 37.614564,35.8763415 37.6262713,35.8397561 C37.6379786,35.8031708 37.6489542,35.7665853 37.6606616,35.7292683 C37.6672469,35.7065853 37.674564,35.6846342 37.6811493,35.6619513 C37.6840222,35.6535446 37.6864645,35.6449969 37.6884664,35.6363415 C37.7257835,35.5112195 37.7616371,35.3831708 37.7931006,35.2536585 C37.7931006,35.2434147 37.7982225,35.2339024 37.8011493,35.2229268 C37.8040761,35.2119513 37.8055396,35.202439 37.8084664,35.1921951 C37.8382225,35.0678049 37.8667591,34.9414634 37.8940761,34.8131708 C37.8940761,34.8043903 37.8977347,34.7956098 37.8999298,34.7868293 L37.9065152,34.7495122 C37.9323688,34.6236585 37.9567591,34.4960976 37.9796859,34.3668293 L37.9796859,34.3551219 L37.9840761,34.3243903 C38.004564,34.197561 38.0231006,34.0695122 38.0396859,33.9402439 C38.0396859,33.9321951 38.0396859,33.9241463 38.0433445,33.9160976 C38.047003,33.9080488 38.0579786,33.9248781 38.0579786,33.9219513 Z" id="路径" fill="#C8C8C8"></path>
                    <path d="M34.0343201,25.7246342 C36.8184664,32.2939024 35.9865152,38.9919513 32.1765152,40.6851219 C30.2740761,41.5317073 27.9823688,40.9668293 25.8216371,39.3680488 C23.6609054,37.7692683 21.6289542,35.1402439 20.2372469,31.8556098 C17.4531006,25.2863415 18.2850518,18.5882927 22.0950518,16.8951219 C23.9974908,16.0485366 26.2884664,16.6134147 28.4491981,18.2121951 C30.6099298,19.8109756 32.6426127,22.44 34.0343201,25.7246342 Z M32.6360274,36.1214634 C33.0618811,35.3985366 33.3428566,34.5080488 33.4709054,33.4756098 C33.5972933,32.3670573 33.5662541,31.2462004 33.3787103,30.1463415 C33.1718153,28.888467 32.8141156,27.6601026 32.3133445,26.4878049 C31.8227359,25.3181607 31.1917668,24.2124905 30.4343201,23.1951219 C29.7803311,22.3071473 29.0012821,21.5184865 28.1213932,20.8536585 C27.2974908,20.2448781 26.4706616,19.8468293 25.6643201,19.6712195 C24.8301737,19.4897561 24.054564,19.5556098 23.3528566,19.8658537 C22.6511493,20.1760976 22.0752956,20.7139024 21.6348079,21.4617073 C21.2089542,22.1853658 20.9279786,23.0751219 20.7999298,24.107561 C20.6736772,25.2168518 20.7047155,26.3384139 20.892125,27.4390244 C21.0995213,28.6954514 21.4574639,29.9223321 21.9582225,31.0931708 C22.4488674,32.2626477 23.0795721,33.3682851 23.8365152,34.3858537 C24.4905751,35.275043 25.2695864,36.0651443 26.149442,36.7317073 C26.9733445,37.3412195 27.8001737,37.7385366 28.6072469,37.9141463 C29.4413932,38.0956098 30.217003,38.0304878 30.9187103,37.7195122 C31.6204176,37.4085366 32.197003,36.8692683 32.6360274,36.1214634" id="形状" fill="#F4F4F4"></path>
                    <path d="M29.5035884,38.0487902 C29.1996238,38.0475474 28.8966695,38.0136951 28.5999298,37.9478049 C27.7884664,37.7707317 26.9572469,37.3712195 26.1296859,36.7587805 C25.2471743,36.0910935 24.4659103,35.2992319 23.8101737,34.4078049 C23.0511818,33.3879143 22.4189838,32.2795408 21.9274908,31.1070732 C21.425944,29.9348226 21.0672686,28.7064823 20.8591981,27.4485366 C20.6714262,26.3447628 20.6403884,25.2200103 20.767003,24.107561 C20.8950518,23.0714634 21.1774908,22.1765853 21.6062713,21.4492683 C22.0496859,20.6956098 22.6306616,20.1541463 23.3389542,19.8395122 C24.0472469,19.5248781 24.8301737,19.4590244 25.6709054,19.6426829 C26.4823688,19.8190244 27.3135884,20.2185366 28.1411493,20.8309756 C29.0239111,21.4989016 29.8054173,22.2910053 30.4613932,23.1826829 C31.2197341,24.2005087 31.8516761,25.306653 32.3433445,26.4768293 C32.8453607,27.6489115 33.2040529,28.8773094 33.4116371,30.1353658 C33.6000141,31.2390694 33.6312996,32.3638733 33.504564,33.4763415 C33.3757835,34.5131708 33.0933445,35.4080488 32.6652956,36.1346342 L32.6652956,36.1346342 C32.2218811,36.8882927 31.6409054,37.4297561 30.9326127,37.7443903 C30.4831849,37.9458548 29.9961051,38.0496055 29.5035884,38.0487902 Z M24.7679786,19.6023536 C24.2852468,19.6000062 23.8074642,19.699752 23.3660274,19.8951219 C22.6731006,20.2031708 22.1001737,20.7358537 21.6633445,21.4770732 C21.2396859,22.1970732 20.9601737,23.082439 20.8328566,24.1112195 C20.7083327,25.2170422 20.7406026,26.3349095 20.9287103,27.4317073 C21.1359103,28.6855618 21.4931076,29.9099574 21.9926127,31.0785366 C22.4818579,32.2459008 23.1113643,33.3493798 23.8672469,34.3646342 C24.5188284,35.2522399 25.2954102,36.0408981 26.1728566,36.7060976 C26.9931006,37.3126829 27.8155396,37.7085366 28.6182225,37.8834147 C29.4450518,38.0634147 30.2162713,37.9982927 30.9091981,37.6902439 C31.602125,37.3821951 32.1750518,36.8495122 32.6111493,36.1082927 L32.6111493,36.1082927 C33.0348079,35.3890244 33.3143201,34.5036585 33.4423688,33.4741463 C33.5672661,32.3658737 33.5347487,31.2455047 33.3457835,30.1463415 C32.9247861,27.6366564 31.918319,25.2614943 30.4079786,23.2134147 C29.7563463,22.3256102 28.9794925,21.5369261 28.1016371,20.8719513 C27.2813932,20.2653658 26.4589542,19.8695122 25.657003,19.6953658 C25.3648604,19.6325425 25.0667979,19.601387 24.7679786,19.6023536 Z" id="形状" fill="#DDDDDD"></path>
                    <path d="M37.1404176,37.1868293 C36.9940761,37.0009756 36.3260274,37.2958537 35.6491981,37.8453658 C34.9723688,38.3948781 34.5384664,38.9919513 34.6848079,39.1785366 C34.6871265,39.1813485 34.6898371,39.1838127 34.6928566,39.1858537 L34.6928566,39.1858537 L39.7482225,45.6146342 L42.0604176,44.0487805 L37.0050518,37.62 L37.1462713,37.1941463 L37.1404176,37.1868293 Z" id="路径" fill="#DDDDDD"></path>
                    <path d="M42.2213932,41.7804878 C41.9433445,41.4658537 40.8033445,41.9560976 39.6604176,42.8860976 C38.5028566,43.8263415 37.777003,44.8617073 38.0396859,45.1931708 C38.0452104,45.2002644 38.0513302,45.2068738 38.0579786,45.2129268 L47.454564,57.1646342 L51.6472469,53.7621951 L42.2213932,41.7804878 Z" id="路径" fill="#EAEAEA"></path>
                    <ellipse id="椭圆形" fill="#DDDDDD" transform="translate(49.570110, 55.488668) rotate(-39.140000) translate(-49.570110, -55.488668) " cx="49.5701102" cy="55.4886677" rx="2.70073171" ry="1"></ellipse>
                    <circle id="椭圆形" fill="#FFFFFF" transform="translate(23.894313, 23.878112) rotate(-15.708638) translate(-23.894313, -23.878112) " cx="23.8943126" cy="23.8781122" r="1"></circle>
                    <circle id="椭圆形" fill="#FFFFFF" transform="translate(24.874330, 23.724542) rotate(-15.460000) translate(-24.874330, -23.724542) " cx="24.8743296" cy="23.7245419" r="1"></circle>
                </g>
            </g>
        </g>
    </g>
</svg>