<?xml version="1.0" encoding="UTF-8"?>
<svg width="100px" height="100px" viewBox="0 0 100 100" version="1.1" xmlns="http://www.w3.org/2000/svg" xmlns:xlink="http://www.w3.org/1999/xlink">
    <g id="平台icon" stroke="none" stroke-width="1" fill="none" fill-rule="evenodd">
        <g transform="translate(-215.000000, -1720.000000)" id="404">
            <g transform="translate(215.000000, 1720.000000)">
                <rect id="矩形" fill-opacity="0" fill="#EFE9DE" fill-rule="nonzero" x="0" y="0" width="100" height="100"></rect>
                <g id="编组" transform="translate(10.000000, 9.999991)">
                    <rect id="矩形" x="0" y="8.85455211e-06" width="80" height="80"></rect>
                    <ellipse id="椭圆形" fill="#F4F4F4" fill-rule="nonzero" cx="33.8640625" cy="72.4890714" rx="23.165625" ry="6.015625"></ellipse>
                    <path d="M60.703125,31.8875089 C60.053125,35.2023526 53.715625,36.2679776 46.40625,34.8367276 C39.096875,33.4054776 33.7601563,29.3796964 34.4101562,26.0656339 C35.0601562,22.7515714 40.4328125,21.1273526 48.7578125,22.8328214 C56.1976565,24.3578214 61.35,28.5726651 60.703125,31.8875089 Z" id="路径" fill="#F4F4F4" fill-rule="nonzero" opacity="0.6"></path>
                    <path d="M51.61875,11.2312589 C58.0046875,12.6976651 63.7015625,15.0265714 67.9734375,17.6578214 C67.7148438,12.0070401 62.277344,6.52969635 54.596094,4.5882901 L55.2,2.5617276 C55.7609375,2.6039151 56.321875,2.21563385 56.4953125,1.6554776 C56.7101565,0.965633855 56.321875,0.232040105 55.6359375,0.0593838546 C54.9414065,-0.156241145 54.2078125,0.234383855 54.035156,0.922665105 C53.875848,1.48179303 54.1042975,2.07900734 54.596094,2.38907135 L53.949219,4.45938385 C46.3539063,2.7773526 39.190625,5.0195401 36.2148438,9.67813385 C40.7898438,9.5054776 46.096875,9.9804776 51.621094,11.2312589" id="路径" fill="#C8C8C8" fill-rule="nonzero"></path>
                    <path d="M67.9734375,17.7007901 C63.6585935,15.0265714 58.0046875,12.7406339 51.61875,11.2742276 C46.0945313,9.97969635 40.7875,9.5054776 36.2125,9.7211026 C28.1867187,10.0656339 22.3609375,12.6117276 21.36875,16.7523526 C20.3398437,21.2156339 25.15625,26.4195401 33.125,30.3906339 C36.8617188,32.2507901 41.2914063,33.8406339 46.1398437,34.9554776 C50.8046875,36.0273526 55.3125,36.5382901 59.3703125,36.5422391 C68.516406,36.5507901 75.3421875,33.9750089 76.3882815,29.4328214 C77.2515625,25.6804776 73.928906,21.3281339 67.9734375,17.7007901 Z M40.096875,15.7593839 C40.1828125,14.9836026 41.6070312,14.5093839 43.3328125,14.6382901 C45.0585938,14.7671964 46.3539062,15.4976651 46.3109375,16.2789151 C46.2242187,17.0546964 44.8,17.5289151 43.0742188,17.4007901 C41.3484375,17.2726651 40.053125,16.4929776 40.096875,15.7593839 Z M31.25,19.5125089 C29.609375,19.9437589 28.1,19.7273526 27.884375,18.9945401 C27.66875,18.2617276 28.8765625,17.3125089 30.5171875,16.8382901 C32.1578125,16.4070401 33.6664063,16.6218839 33.8828125,17.3554776 C34.0992188,18.0890714 32.890625,19.0812589 31.25,19.5125089 Z M60.1632815,31.8046964 C59.472656,34.8679776 53.214844,36.0320401 46.2671875,34.4359464 C39.3195312,32.8398526 34.228125,29.0453214 34.91875,25.9820401 C35.609375,22.9187589 41.8664062,21.7554776 48.8132813,23.3507901 C55.803906,24.9468839 60.853125,28.7429776 60.1632815,31.8046964 Z M60.939844,20.6328214 C60.6375,21.3226651 59.127344,21.3226651 57.530469,20.6328214 C55.977344,19.9429776 54.9414065,18.8211026 55.242969,18.0882901 C55.5445315,17.3554776 57.05625,17.3976651 58.652344,18.0882901 C60.249219,18.8226651 61.2414065,19.9437589 60.9375,20.6336026 L60.939844,20.6328214 Z M70.2609375,30.8593839 C69.742969,31.4195401 68.31875,30.9023526 67.0671875,29.6945401 C65.815625,28.4867276 65.2546875,27.1062589 65.772656,26.5461026 C66.290625,25.9859464 67.714844,26.5031339 68.965625,27.7109464 C70.2179685,28.8726651 70.78125,30.2953214 70.2609375,30.8593839 Z" id="形状" fill="#EFEFEF" fill-rule="nonzero"></path>
                    <path d="M60.1632815,31.8046964 L60.1632815,31.8046964 C59.472656,34.8679776 53.214844,36.0320401 46.2671875,34.4359464 C39.3195312,32.8398526 34.228125,29.0453214 34.91875,25.9820401 L10.7,72.4890714 L57.0171875,72.4890714 L60.1632815,31.8046964 Z" id="路径" fill="#F4F4F4" fill-rule="nonzero" opacity="0.6"></path>
                    <path d="M69.824219,47.6664151 C69.8889395,47.6664151 69.941406,47.6139485 69.941406,47.5492276 C69.941406,47.4845068 69.8889395,47.4320401 69.824219,47.4320401 C69.759498,47.4320401 69.707031,47.4845068 69.707031,47.5492276 C69.707031,47.6139485 69.759498,47.6664151 69.824219,47.6664151 L69.824219,47.6664151 Z" id="路径" fill="#F4F4F4" fill-rule="nonzero"></path>
                    <g transform="translate(52.001998, 45.112509)" fill-rule="nonzero">
                        <polygon id="路径" fill="#838383" points="19.7737831 21.2320313 18.8565956 21.0703125 20.5620643 21.3710938 21.4784706 21.5328125"></polygon>
                        <polygon id="矩形" fill="#C8C8C8" transform="translate(15.368902, 14.293528) rotate(-80.000000) translate(-15.368902, -14.293528) " points="9.30054296 13.8282939 21.4372617 13.8282939 21.4372617 14.7587626 9.30054296 14.7587626"></polygon>
                        <polygon id="路径" fill="#838383" points="8.03784557 19.1625 7.12143932 19.0007813 13.8565956 20.1882813 14.7730018 20.35"></polygon>
                        <path d="M23.0870643,22.58125 C23.4862831,23.1554687 23.6386268,23.7914062 23.5276893,24.4226562 C23.413513,25.0940194 23.0325105,25.690604 22.4714393,26.0765625 C21.9317884,26.470958 21.2548194,26.6286354 20.5964393,26.5132812 L18.8956581,26.215625 L18.2526893,29.8585937 C18.1323768,30.5398437 17.7386268,31.103125 17.1136268,31.4859375 C16.5640142,31.8340187 15.9049635,31.9662185 15.2636268,31.8570312 C14.6308508,31.7403533 14.0694994,31.3791237 13.7011268,30.8515625 C13.2972914,30.3161648 13.1345348,29.6368331 13.2519081,28.9765625 L13.8940956,25.3328125 L2.91206432,23.3945312 C2.47755307,23.3141833 2.07427132,23.113625 1.74800182,22.815625 C1.39777384,22.5129439 1.1481371,22.1106908 1.03237682,21.6625 C0.91147434,21.2672092 0.88313932,20.8494012 0.949564325,20.4414062 C1.01677711,20.0546815 1.17385738,19.6891421 1.40815807,19.3742187 L16.2792518,1.10546875 C16.8823768,0.353125 17.7589393,0.03125 18.7417518,0.2046875 L20.7792518,0.5640625 C21.4184179,0.681280085 21.9914948,1.03113812 22.3878456,1.54609375 C22.9659706,2.27265625 22.9901893,2.97109375 22.9097206,3.42890625 L19.7737831,21.2320312 L21.4784706,21.5328125 C22.1347136,21.6495553 22.715333,22.0279872 23.0870643,22.58125 L23.0870643,22.58125 Z M14.7730018,20.35 L16.8823768,8.396875 L8.03784557,19.1625 L14.7730018,20.35" id="形状" fill="#E2E2E2"></path>
                        <polygon id="路径" fill="#838383" points="18.7440956 0.2046875 17.8276893 0.04296875 19.8651893 0.40234375 20.7823768 0.5640625"></polygon>
                        <path d="M13.7011268,30.8515625 C13.2972914,30.3161648 13.1345348,29.6368331 13.2519081,28.9765625 L13.8940956,25.3328125 L12.9776893,25.171875 L12.3355018,28.8148437 C12.2181285,29.4751143 12.3808851,30.1544461 12.7847206,30.6898437 C13.1530932,31.217405 13.7144445,31.5786346 14.3472206,31.6953125 L15.2636268,31.8570312 C14.6308508,31.7403533 14.0694994,31.3791237 13.7011268,30.8515625 Z" id="路径" fill="#C8C8C8"></path>
                        <path d="M1.41050182,19.3742188 L16.2792518,1.10546875 C16.316231,1.06015625 16.353731,1.01640625 16.3917518,0.97421875 C16.4042518,0.96015625 16.4175331,0.946875 16.4308143,0.93359375 C16.4565956,0.90546875 16.4831581,0.878125 16.5089393,0.85546875 L16.5581581,0.8109375 C16.5831581,0.78828125 16.6073768,0.76484375 16.6362831,0.74296875 L16.6901893,0.69921875 L16.7683143,0.640625 L16.8269081,0.59921875 C16.8519081,0.58125 16.8769081,0.5640625 16.9050331,0.54765625 L16.9667518,0.509375 L17.0448768,0.4640625 L17.1089393,0.43046875 C17.1355018,0.41640625 17.1620643,0.403125 17.1870643,0.390625 L17.2526893,0.3609375 L17.3487831,0.321875 L17.3870643,0.3078125 C17.4339393,0.290625 17.4808143,0.275 17.5284706,0.2609375 L17.5511268,0.25546875 C17.5925331,0.24375 17.6339393,0.23359375 17.6761268,0.22421875 L17.7214393,0.2140625 C17.7612831,0.20625 17.7995643,0.19921875 17.8425331,0.19296875 L17.8706581,0.18828125 C17.9201372,0.181510416 17.9701372,0.176041666 18.0206581,0.171875 L18.0573768,0.171875 C18.0987831,0.171875 18.1409706,0.1671875 18.1831581,0.16640625 L18.2198768,0.16640625 C18.2714393,0.16640625 18.3237831,0.16640625 18.3761268,0.16640625 L18.4073768,0.16640625 C18.4511268,0.16640625 18.4956581,0.17265625 18.5401893,0.17734375 L18.5847206,0.18203125 C18.6386268,0.1890625 18.6925331,0.19609375 18.7480018,0.20625 L17.8276893,0.04375 C17.7730018,0.034375 17.7190956,0.0265625 17.6644081,0.01953125 L17.6206581,0.01484375 C17.5761268,0.01015625 17.5315956,0.00625 17.4878456,0.00390625 L17.4565956,0.00390625 C17.4105018,0.00390625 17.3651893,0 17.3198768,0 L17.2636268,0 C17.2214393,0 17.1792518,0 17.1378456,0.00546875 L17.1011268,0.00546875 C17.0503456,0.009375 17.0003456,0.01484375 16.9503456,0.021875 L16.9230018,0.0265625 C16.8972206,0.03046875 16.8714393,0.03359375 16.8448768,0.03828125 L16.7995643,0.0484375 L16.7542518,0.0578125 C16.7128456,0.0671875 16.6714393,0.07734375 16.6300331,0.0890625 L16.6073768,0.0953125 C16.5597206,0.10859375 16.5120643,0.12421875 16.4659706,0.14140625 L16.4276893,0.15546875 L16.3683143,0.178125 L16.3315956,0.1953125 L16.2651893,0.22421875 C16.2386268,0.2375 16.2120643,0.25 16.1870643,0.2640625 L16.1230018,0.29765625 L16.0448768,0.34296875 L15.9839393,0.38125 C15.9581581,0.39765625 15.9331581,0.41484375 15.9058143,0.4328125 L15.8480018,0.47421875 C15.8222206,0.49296875 15.7980018,0.51328125 15.7698768,0.5328125 C15.7417518,0.55234375 15.7331581,0.56171875 15.7159706,0.57734375 C15.6987831,0.59296875 15.6651893,0.621875 15.6378456,0.64453125 L15.5886268,0.68984375 C15.5620643,0.715625 15.5355018,0.74296875 15.5105018,0.76796875 C15.4972206,0.78203125 15.4839393,0.7953125 15.4714393,0.809375 C15.4328977,0.8515625 15.3953977,0.8953125 15.3589393,0.940625 L0.493314325,19.2125 C0.259815182,19.5273011 0.102806893,19.8921382 0.0347205746,20.278125 C-0.031414334,20.6859217 -0.00281157996,21.1034685 0.118314325,21.4984375 C0.233889774,21.9467074 0.48355849,22.3490119 0.833939325,22.6515625 C1.04151937,22.8383959 1.27926013,22.9887009 1.53706432,23.0960937 C1.68537468,23.1574907 1.83993224,23.2025482 1.99800182,23.2304688 L2.91440807,23.3921875 C2.47931735,23.3129233 2.0751977,23.1131643 1.74800182,22.815625 C1.39777384,22.512944 1.1481371,22.1106909 1.03237682,21.6625 C0.91147434,21.2672092 0.88313932,20.8494012 0.949564325,20.4414062 C1.01747554,20.0544765 1.17536556,19.688921 1.41050182,19.3742188 L1.41050182,19.3742188 Z" id="路径" fill="#C8C8C8"></path>
                    </g>
                    <g transform="translate(29.584239, 40.335946)" fill-rule="nonzero">
                        <path d="M17.3048237,8.4140625 C17.0945018,7.5066873 16.6375907,6.67505515 15.9845112,6.0109375 C15.7077761,5.7244955 15.3896564,5.4811655 15.0407612,5.2890625 C14.5567393,5.0284638 14.0326083,4.8504969 13.48998,4.7625 L12.5735737,4.60078125 C13.6134175,4.78359375 14.4298237,5.19140625 15.068105,5.85078125 C15.7211845,6.5148989 16.1780955,7.34653105 16.3884175,8.25390625 C16.6227213,9.2224936 16.6530508,10.2292207 16.47748,11.2101562 L14.836855,20.521875 C14.6662478,21.4915207 14.2956228,22.4150236 13.7485737,23.2335937 C13.2379004,24.0187542 12.5259059,24.6525075 11.686855,25.06875 C11.6391987,25.0921875 11.5907612,25.1148437 11.543105,25.1367187 L11.4954487,25.1570312 C11.4641987,25.1703125 11.4329487,25.184375 11.4009175,25.196875 C11.3688862,25.209375 11.31498,25.2304687 11.27123,25.2460937 L11.22748,25.2625 C11.1696675,25.2828125 11.1102925,25.3015625 11.0516987,25.3195312 L11.0095112,25.3304687 C10.9634175,25.34375 10.9173237,25.35625 10.87123,25.3671875 L10.8063862,25.3820312 L10.686855,25.4070312 L10.6141987,25.4203125 C10.5782612,25.4265625 10.5423237,25.4328125 10.5063862,25.4375 L10.4282612,25.4484375 L10.3165425,25.4609375 L10.2423237,25.4679687 L10.12123,25.4757812 L10.0532612,25.4757812 L9.90326121,25.4757812 L9.86107371,25.4757812 C9.79154246,25.4757812 9.72122996,25.4757812 9.65013621,25.4703125 L9.58841746,25.4703125 C9.53685496,25.4703125 9.48451121,25.4640625 9.43216746,25.459375 L9.35404246,25.4523437 C9.30247996,25.4476562 9.25013621,25.4414062 9.19779246,25.4351562 L9.12904246,25.4257812 C9.05482371,25.415625 8.97982371,25.4039062 8.90326121,25.390625 L9.81966746,25.5523437 C9.89779246,25.565625 9.97122996,25.5773437 10.0454487,25.5875 L10.11498,25.5960937 C10.1673237,25.603125 10.2188862,25.609375 10.27123,25.6140625 L10.349355,25.6210937 C10.4016987,25.6257812 10.4540425,25.6296875 10.505605,25.6320312 L10.5673237,25.6359375 C10.6384175,25.6359375 10.70873,25.6414062 10.7782612,25.6414062 L10.8220112,25.6414062 L10.9704487,25.6414062 L11.0391987,25.6375 L11.1595112,25.6296875 L11.2376362,25.6226562 L11.349355,25.6101562 L11.42748,25.5992187 L11.5352925,25.5820312 L11.5766987,25.5757812 L11.60873,25.56875 L11.72748,25.54375 L11.793105,25.5289062 C11.8391987,25.5179687 11.8845112,25.5054687 11.9298237,25.4921875 C11.9438862,25.4921875 11.95873,25.4851562 11.9727925,25.4804687 C12.0321675,25.4632812 12.0907612,25.4445312 12.1485737,25.4242187 L12.193105,25.4078125 C12.2360737,25.3921875 12.2798237,25.3757812 12.3227925,25.3585937 L12.3415425,25.3515625 L12.4196675,25.31875 L12.4665425,25.2984375 C12.51498,25.2765625 12.5626362,25.2539062 12.6102925,25.2304687 C13.4493434,24.8142262 14.1613379,24.1804729 14.6720112,23.3953125 C15.216355,22.5747025 15.5842849,21.6499561 15.75248,20.6796875 L17.393105,11.3679687 C17.568603,10.3878477 17.5385405,9.3819536 17.3048237,8.4140625 L17.3048237,8.4140625 Z" id="路径" fill="#9CA3AD"></path>
                        <path d="M21.7970112,6.528125 C22.4226327,8.12262465 22.5935562,9.8594458 22.2907612,11.5453125 L20.4157612,22.1882813 C20.1260683,23.8725938 19.370758,25.4422103 18.2352925,26.7195313 C17.111484,27.9982145 15.6833243,28.9728025 14.0829487,29.553125 C10.8138648,30.7590609 7.14878336,30.1128963 4.48919871,27.8617188 C3.18387346,26.7688636 2.17540234,25.3643129 1.55716746,23.778125 C0.928191945,22.1905156 0.755286245,20.4587527 1.05794871,18.778125 L2.93294871,8.13515625 C3.22352103,6.45112495 3.97872041,4.88173892 5.11341746,3.60390625 C6.23192801,2.32771269 7.65182151,1.35148553 9.24388621,0.7640625 C10.8488607,0.163137482 12.5863433,0.0068531185 14.2727925,0.31171875 C15.9613165,0.6029777 17.5427031,1.33585486 18.8563862,2.4359375 C20.1720888,3.52452105 21.1848955,4.93394753 21.7970112,6.528125 L21.7970112,6.528125 Z M15.75248,20.6796875 L17.393105,11.3679688 C17.568603,10.3878478 17.5385405,9.3819536 17.3048237,8.4140625 C17.0945018,7.5066873 16.6375907,6.67505515 15.9845112,6.0109375 C15.34623,5.3546875 14.5298237,4.946875 13.48998,4.7609375 C12.4501362,4.575 11.5532612,4.6828125 10.743105,5.0796875 C9.90679366,5.4855631 9.19756306,6.11265805 8.69232371,6.89296875 C8.14111811,7.72279645 7.76863816,8.65825335 7.59857371,9.63984375 L5.95794871,18.9515625 C5.78686431,19.9210771 5.81932266,20.9155795 6.05326121,21.871875 C6.26413286,22.784629 6.71666381,23.6238485 7.36341746,24.3015625 C7.98841746,24.9609375 8.79154246,25.3695313 9.82591746,25.5515625 C10.88373,25.7382813 11.7923237,25.6296875 12.6040425,25.2257813 C13.4430934,24.8095388 14.1550879,24.1757855 14.6657612,23.390625 C15.2117132,22.5719261 15.5817602,21.6488037 15.75248,20.6796875" id="形状" fill="#C2C6CC"></path>
                        <path d="M2.93372996,8.13203125 C3.22430228,6.44799995 3.97950166,4.87861391 5.11419871,3.60078125 C5.18294871,3.52265625 5.25247996,3.44453125 5.32279246,3.371875 L5.39388621,3.29375 C5.44076121,3.24375 5.48841746,3.19453125 5.53607371,3.14609375 L5.62279246,3.0609375 L5.75560496,2.93125 L5.85013621,2.84296875 L5.98060496,2.72421875 L6.08060496,2.6359375 L6.21107371,2.52421875 C6.24544871,2.4953125 6.27982371,2.46640625 6.31497996,2.43828125 C6.35013621,2.41015625 6.40247996,2.36640625 6.44701121,2.33125 L6.55404246,2.24765625 L6.68841746,2.14609375 C6.72435496,2.11875 6.76107371,2.0921875 6.79779246,2.06796875 C6.83451121,2.04375 6.88919871,2.00234375 6.93529246,1.9703125 C6.98138621,1.93828125 7.00951121,1.91796875 7.04701121,1.8921875 C7.08451121,1.86640625 7.14154246,1.82890625 7.18919871,1.79765625 L7.30091746,1.725 L7.44857371,1.63359375 L7.56029246,1.565625 L7.71654246,1.4765625 L7.82591746,1.4140625 C7.88216746,1.3828125 7.93841746,1.353125 7.99544871,1.3234375 C8.02826121,1.30546875 8.06107371,1.2875 8.09466746,1.2703125 C8.16341746,1.234375 8.23294871,1.20078125 8.30326121,1.16640625 L8.36888621,1.13359375 C8.46107371,1.08984375 8.55404246,1.046875 8.64779246,1.00546875 L8.72591746,0.9734375 C8.79544871,0.94296875 8.86419871,0.91328125 8.93372996,0.88515625 C9.03841746,0.8421875 9.14310496,0.8015625 9.24622996,0.76171875 C9.33607371,0.728125 9.42669871,0.696875 9.51654246,0.66640625 L9.58216746,0.64375 C9.67279246,0.6140625 9.76263621,0.58515625 9.85326121,0.55859375 L9.87357371,0.55234375 C9.95872996,0.52734375 10.0438862,0.503125 10.1290425,0.48046875 L10.1946675,0.46328125 C10.2845112,0.43984375 10.3751362,0.4171875 10.4657612,0.396875 L10.5016987,0.3890625 C10.5798237,0.3703125 10.6657612,0.353125 10.7477925,0.33671875 L10.811855,0.32421875 C10.9032612,0.30703125 10.9954487,0.290625 11.0876362,0.27578125 L11.1290425,0.26953125 C11.2071675,0.25703125 11.28998,0.24609375 11.37123,0.2359375 L11.443105,0.2265625 C11.5360737,0.215625 11.6282612,0.20546875 11.72123,0.196875 L11.743105,0.196875 C11.8298237,0.1890625 11.9165425,0.1828125 12.0040425,0.17734375 L12.07748,0.1734375 C12.168105,0.16875 12.25873,0.16484375 12.349355,0.1625 L12.3595112,0.1625 C12.4540425,0.1625 12.5477925,0.1625 12.6423237,0.1625 L12.711855,0.1625 C12.8019591,0.1625 12.8918029,0.16484375 12.9813862,0.16953125 L12.9970112,0.16953125 C13.0907612,0.17421875 13.1852925,0.1796875 13.2790425,0.18671875 L13.349355,0.1921875 C13.4415425,0.2 13.5345112,0.20859375 13.6266987,0.21875 L13.6345112,0.21875 C13.7290425,0.22890625 13.824355,0.24140625 13.9188862,0.2546875 L13.9891987,0.26484375 C14.0845112,0.27890625 14.1798237,0.29375 14.2751362,0.31015625 L13.35873,0.1484375 C13.2634175,0.13203125 13.168105,0.1171875 13.0727925,0.103125 L13.00248,0.09296875 C12.9071675,0.0796875 12.8126362,0.0671875 12.718105,0.05703125 L12.7102925,0.05703125 C12.618105,0.046875 12.5251362,0.03828125 12.4329487,0.03046875 L12.3626362,0.025 C12.268105,0.01796875 12.174355,0.0125 12.0798237,0.0078125 L12.0657612,0.0078125 C11.9751362,0.0078125 11.8852925,0.0015625 11.7954487,0 L11.661855,0 C11.5891987,0 11.5157612,0 11.443105,0 L11.4313862,0 C11.3407612,0 11.2501362,0.00546875 11.1595112,0.01015625 L11.0860737,0.01484375 C10.999355,0.01953125 10.9126362,0.02578125 10.8266987,0.03359375 L10.8040425,0.03359375 C10.7110737,0.0421875 10.618105,0.05234375 10.5259175,0.06328125 L10.4532612,0.07265625 C10.3751362,0.0828125 10.2923237,0.09453125 10.211855,0.10625 L10.1704487,0.1125 C10.0923237,0.125 10.018105,0.1375 9.94232371,0.1515625 L9.89466746,0.1609375 L9.83060496,0.17421875 C9.74779246,0.18984375 9.66576121,0.20703125 9.58372996,0.22578125 L9.54857371,0.23359375 C9.45794871,0.25390625 9.36732371,0.2765625 9.27747996,0.3 L9.21185496,0.3171875 C9.12669871,0.33984375 9.04154246,0.3640625 8.95638621,0.3890625 L8.93529246,0.3953125 C8.84544871,0.421875 8.75482371,0.45078125 8.66497996,0.48125 L8.59935496,0.503125 C8.50872996,0.53359375 8.41888621,0.56484375 8.32826121,0.5984375 C8.22201121,0.63828125 8.11732371,0.6765625 8.01576121,0.721875 L8.00091746,0.728125 C7.93529246,0.7546875 7.87122996,0.7828125 7.80638621,0.8109375 L7.73294871,0.8421875 C7.63919871,0.88359375 7.54622996,0.9265625 7.45404246,0.9703125 L7.38919871,1.00234375 C7.31888621,1.03671875 7.24935496,1.07109375 7.17982371,1.10703125 C7.14622996,1.12421875 7.11341746,1.1421875 7.08060496,1.16015625 C7.02357371,1.18984375 6.96654246,1.21953125 6.91107371,1.25078125 L6.80247996,1.3125 C6.75013621,1.3421875 6.69779246,1.371875 6.64622996,1.40234375 L6.53529246,1.4703125 L6.38763621,1.56171875 L6.27591746,1.634375 L6.13294871,1.72890625 L6.02279246,1.80703125 C5.97591746,1.83984375 5.92982371,1.871875 5.88451121,1.90546875 C5.83919871,1.9390625 5.81107371,1.95859375 5.77513621,1.98359375 L5.63997996,2.08515625 L5.53372996,2.16875 L5.40091746,2.27578125 L5.29701121,2.36171875 C5.25326121,2.3984375 5.21029246,2.4359375 5.16654246,2.47421875 L5.06654246,2.56171875 C5.02279246,2.60078125 4.97982371,2.63984375 4.93685496,2.68125 L4.84232371,2.76875 C4.79701121,2.81171875 4.75326121,2.85546875 4.70872996,2.8984375 C4.68060496,2.92734375 4.65091746,2.9546875 4.62279246,2.98359375 C4.57435496,3.03203125 4.52747996,3.08203125 4.47982371,3.13203125 C4.45638621,3.15625 4.43216746,3.18046875 4.40872996,3.20546875 C4.33919871,3.28359375 4.26966746,3.35703125 4.20091746,3.434375 C3.0659064,4.7119986 2.31066173,6.28147875 2.02044871,7.965625 L0.14544871,18.6085938 C-0.15774832,20.2904913 0.0151620715,22.0236542 0.64466746,23.6125 C1.26292729,25.1984537 2.27140519,26.6027452 3.57669871,27.6953125 C4.8750516,28.8024493 6.44656406,29.5411276 8.12747996,29.834375 L9.04388621,29.9960938 C7.36294711,29.7029199 5.79141611,28.9642328 4.49310496,27.8570312 C3.18777971,26.764176 2.17930859,25.3596254 1.56107371,23.7734375 C0.932098195,22.1858281 0.759192495,20.4540652 1.06185496,18.7734375 L2.93372996,8.13203125 Z" id="路径" fill="#9CA3AD"></path>
                    </g>
                    <g transform="translate(2.344711, 35.457040)" fill-rule="nonzero">
                        <polygon id="路径" fill="#838383" points="19.7724762 21.2328125 18.8560699 21.0710937 20.5615387 21.371875 21.4787262 21.5328125"></polygon>
                        <polygon id="路径" fill="#838383" points="18.7451324 0.20546875 17.8279449 0.04375 19.8646637 0.40234375 20.7810699 0.5640625"></polygon>
                        <path d="M13.7029449,30.8515625 C13.2983967,30.3164924 13.1353082,29.636957 13.2529449,28.9765625 L13.8951324,25.3335937 L12.9787262,25.1679688 L12.3365387,28.8117188 C12.2188751,29.4719979 12.3816593,30.151445 12.7857574,30.6867188 C12.9526784,30.9179762 13.1554984,31.1210599 13.3865387,31.2882813 C13.5133393,31.3791894 13.6485989,31.4576765 13.7904449,31.5226563 C13.8256012,31.5382813 13.8615387,31.553125 13.8974762,31.5671875 C14.0425884,31.6243453 14.193087,31.6667466 14.3466949,31.69375 L15.2638824,31.8554688 C14.6317694,31.7391947 14.0709413,31.378502 13.7029449,30.8515625 Z" id="路径" fill="#C8C8C8"></path>
                        <polygon id="矩形" fill="#C8C8C8" transform="translate(15.368774, 14.293722) rotate(-80.000000) translate(-15.368774, -14.293722) " points="9.30041506 13.8284879 21.4371338 13.8284879 21.4371338 14.7589566 9.30041506 14.7589566"></polygon>
                        <polygon id="路径" fill="#838383" points="8.03731991 19.1632812 7.12091366 19.0015625 13.8568512 20.1890625 14.7732574 20.3507812"></polygon>
                        <path d="M23.0873199,22.5820312 C23.4865387,23.15625 23.6381012,23.7914062 23.5271637,24.4226562 C23.4134609,25.0942091 23.0327131,25.6911181 22.4716949,26.0773437 C21.9329004,26.4703549 21.2577066,26.6279471 20.6006012,26.5140625 L18.8943512,26.2132812 L18.2521637,29.8554687 C18.1318512,30.5367187 17.7381012,31.1 17.1138824,31.4820312 C16.5648197,31.8315363 15.9057048,31.9651406 15.2638824,31.8570312 C14.6308225,31.7405604 14.0693109,31.378947 13.7013824,30.8507812 C13.2968342,30.3157111 13.1337457,29.6361757 13.2513824,28.9757812 L13.8935699,25.3328125 L2.91153866,23.3945312 C2.47797826,23.3145755 2.07566646,23.1142318 1.75060116,22.8164062 C1.40037318,22.5137252 1.15073644,22.1114721 1.03497616,21.6632812 C0.913712587,21.2680571 0.885371872,20.8501652 0.952163662,20.4421875 C1.01912268,20.0553874 1.17622736,19.6897911 1.41075741,19.375 L16.2826324,1.10546875 C16.8849762,0.353125 17.7615387,0.03125 18.7451324,0.2046875 L20.7802887,0.5640625 C21.4198275,0.68137031 21.9932043,1.03151982 22.3896637,1.546875 C22.9670074,2.2734375 22.9920074,2.97109375 22.9107574,3.4296875 L19.7724762,21.2320312 L21.4787262,21.5328125 C22.1348961,21.6502568 22.7153533,22.0288649 23.0873199,22.5820312 Z M14.7732574,20.3507812 L16.8826324,8.39765625 L8.03731991,19.1632812 L14.7732574,20.3507812" id="形状" fill="#E2E2E2"></path>
                        <path d="M17.8279449,0.04375 C17.7732574,0.03359375 17.7185699,0.0265625 17.6646637,0.01953125 L17.6201324,0.01484375 C17.5763824,0.01015625 17.5318512,0.00625 17.4881012,0.00390625 L17.4568512,0.00390625 C17.4107574,0.00390625 17.3646637,0 17.3193512,0 L17.2646637,0 C17.2224762,0 17.1802887,0 17.1388824,0.0046875 L17.1021637,0.0046875 C17.0513824,0.00859375 17.0013824,0.0140625 16.9513824,0.02109375 L16.9240387,0.025 L16.8459137,0.0375 L16.8006012,0.046875 L16.7560699,0.05703125 C16.7138824,0.06640625 16.6724762,0.0765625 16.6310699,0.08828125 L16.6084137,0.09375 C16.5607574,0.1078125 16.5131012,0.1234375 16.4670074,0.140625 L16.4287262,0.1546875 L16.3693512,0.17734375 L16.3326324,0.19375 L16.2670074,0.2234375 C16.2396637,0.2359375 16.2131012,0.24921875 16.1888824,0.26328125 L16.1248199,0.296875 L16.0466949,0.3421875 L15.9857574,0.38046875 C15.9599762,0.396875 15.9349762,0.4140625 15.9076324,0.43203125 C15.8802887,0.45 15.8685699,0.45859375 15.8490387,0.4734375 L15.7709137,0.53203125 L15.7170074,0.57578125 C15.6920074,0.59765625 15.6659658,0.6203125 15.6388824,0.64375 C15.6224762,0.65859375 15.6060699,0.67265625 15.5904449,0.68828125 C15.5631012,0.71484375 15.5373199,0.7421875 15.5123199,0.7703125 C15.4998199,0.78359375 15.4865387,0.796875 15.4740387,0.8109375 C15.4357574,0.853125 15.3959137,0.896875 15.3615387,0.9421875 L0.493569912,19.2132813 C0.259269215,19.5282046 0.102188949,19.893744 0.034976162,20.2804688 C-0.0315345891,20.6885078 -0.00292688802,21.1063941 0.118569912,21.5015625 C0.234330188,21.9497534 0.483966925,22.3520065 0.834194912,22.6546875 C1.15926021,22.9525131 1.56157201,23.1528568 1.99513241,23.2328125 L2.91153866,23.3945312 C2.47797826,23.3145756 2.07566646,23.1142318 1.75060116,22.8164062 C1.40037318,22.5137252 1.15073644,22.1114721 1.03497616,21.6632813 C0.913712587,21.2680571 0.885371872,20.8501652 0.952163662,20.4421875 C1.01912268,20.0553874 1.17622736,19.6897912 1.41075741,19.375 L16.2826324,1.10546875 C16.3193512,1.06015625 16.3568512,1.01640625 16.3951324,0.9734375 L16.4334137,0.93359375 C16.4599762,0.90546875 16.4857574,0.878125 16.5115387,0.8515625 C16.5373199,0.825 16.5435699,0.821875 16.5599762,0.80703125 L16.6381012,0.7390625 C16.6560699,0.72421875 16.6740387,0.709375 16.6927887,0.6953125 C16.7115387,0.68125 16.7420074,0.65546875 16.7709137,0.63671875 C16.7998199,0.61796875 16.8099762,0.60859375 16.8295074,0.5953125 L16.9076324,0.54296875 L16.9693512,0.50546875 C16.9951324,0.48984375 17.0209137,0.47421875 17.0474762,0.46015625 L17.1115387,0.42578125 L17.1896637,0.38671875 L17.2552887,0.35703125 L17.3513824,0.31796875 L17.3896637,0.30390625 C17.4365387,0.28671875 17.4834137,0.27109375 17.5318512,0.25703125 L17.5537262,0.2515625 C17.5951324,0.23984375 17.6365387,0.22890625 17.6787262,0.21953125 L17.7240387,0.21015625 C17.7638824,0.20234375 17.8021637,0.19453125 17.8451324,0.18828125 L17.8732574,0.18828125 C17.9222158,0.180989583 17.9722158,0.175520834 18.0232574,0.171875 L18.0599762,0.171875 C18.1021637,0.171875 18.1435699,0.1671875 18.1865387,0.16640625 L18.2224762,0.16640625 C18.2748199,0.16640625 18.3263824,0.16640625 18.3787262,0.1703125 L18.4099762,0.1703125 L18.5427887,0.18203125 L18.5865387,0.18671875 C18.6412262,0.19375 18.6951324,0.20078125 18.7506012,0.2109375 L17.8279449,0.04375 Z" id="路径" fill="#C8C8C8"></path>
                    </g>
                </g>
            </g>
        </g>
    </g>
</svg>