<?xml version="1.0" encoding="UTF-8"?>
<svg width="100px" height="100px" viewBox="0 0 100 100" version="1.1" xmlns="http://www.w3.org/2000/svg" xmlns:xlink="http://www.w3.org/1999/xlink">
    <g id="平台icon" stroke="none" stroke-width="1" fill="none" fill-rule="evenodd">
        <g transform="translate(-515.000000, -1300.000000)" fill-rule="nonzero" id="否">
            <g transform="translate(515.000000, 1300.000000)">
                <rect id="矩形" fill="#000000" opacity="0" x="0" y="0" width="100" height="100"></rect>
                <polygon id="路径" fill="#25CCC4" points="31.7675781 62.4023438 68.9355469 62.4023438 68.9355469 73.5058594 31.7675781 73.5058594"></polygon>
                <path d="M85.7128906,0 L14.2871094,0 C6.39648438,0 0,6.39648438 0,14.2871094 L0,85.7128906 C0,93.6035156 6.39648438,100 14.2871094,100 L85.7128906,100 C93.6035156,100 100,93.6035156 100,85.7128906 L100,14.2871094 C100,6.39648438 93.6035156,0 85.7128906,0 Z M14.2773438,42.7246094 C29.6386719,37.2070312 40.9082031,30.6640625 48.0664062,23.1054688 L18.2226562,23.1054688 L18.2226562,15.0683594 L82.7246094,15.078125 L82.7246094,23.1152344 L57.7539062,23.1152344 C56.6503906,24.53125 55.546875,25.8691406 54.3652344,27.2070312 L54.3652344,52.6367188 L46.171875,52.6367188 L46.171875,34.765625 C39.0820312,40.2832031 30.1855469,45.15625 19.4726562,49.5019531 L14.2773438,42.7246094 Z M68.9355469,84.921875 L68.9355469,81.3769531 L31.7675781,81.3769531 L31.7675781,84.921875 L23.4179687,84.921875 L23.4179687,54.53125 L77.2851562,54.53125 L77.2851562,84.921875 L68.9355469,84.921875 L68.9355469,84.921875 Z M79.7265625,49.8046875 C74.453125,44.765625 66.9726562,39.4042969 57.2851562,33.5839844 L62.7929688,28.2226562 C71.8554688,33.4277344 79.4921875,38.6230469 85.7128906,43.8183594 L79.7265625,49.8046875 Z" id="形状" fill="#25CCC4"></path>
            </g>
        </g>
    </g>
</svg>