<?xml version="1.0" encoding="UTF-8"?>
<svg width="100px" height="100px" viewBox="0 0 100 100" version="1.1" xmlns="http://www.w3.org/2000/svg" xmlns:xlink="http://www.w3.org/1999/xlink">
    <g id="平台icon" stroke="none" stroke-width="1" fill="none" fill-rule="evenodd">
        <g transform="translate(-815.000000, -1160.000000)" fill-rule="nonzero" id="pdf">
            <g transform="translate(815.000000, 1160.000000)">
                <rect id="矩形" fill="#000000" opacity="0" x="0" y="0" width="100" height="100"></rect>
                <polygon id="路径" fill="#DE5934" points="25.390625 82.9003906 58.2324219 82.9003906 58.2324219 38.4960938 50.5371094 38.4960938 50.5371094 75.2148438 25.390625 75.2148438 25.390625 82.9003906"></polygon>
                <polygon id="路径" fill="#819292" points="74.1601562 0 17.6855469 0 17.6855469 28.1152344 25.3808594 28.1152344 25.3808594 7.68554688 67.8027344 7.68554688 67.8027344 28.6621094 88.7402344 28.6621094 88.7402344 92.3144531 25.3808594 92.3144531 25.3808594 68.6816406 17.6855469 68.6816406 17.6855469 100 96.4257812 100 96.4257812 21.4746094"></polygon>
                <path d="M66.5332031,39.5703125 L81.0058594,39.5703125 L81.0058594,47.0605469 L66.5332031,47.0605469 L66.5332031,39.5703125 Z M66.5332031,57.4414063 L81.0058594,57.4414063 L81.0058594,64.9316406 L66.5332031,64.9316406 L66.5332031,57.4414063 Z M66.5332031,75.3125 L81.0058594,75.3125 L81.0058594,82.8125 L66.5332031,82.8125 L66.5332031,75.3125 Z" id="形状" fill="#819292"></path>
                <path d="M9.77539062,61.5722656 C9.765625,61.6699219 9.75585937,61.8261719 10.15625,62.0507812 C10.3613281,62.1679688 10.5957031,62.2265625 10.8398438,62.2265625 C12.6171875,62.2265625 15.4003906,59.5605469 18.0078125,55.5273437 C12.96875,57.7148437 9.87304688,60.3808594 9.77539062,61.5722656 L9.77539062,61.5722656 Z" id="路径" fill="#DE5934"></path>
                <path d="M44.1699219,68.6816406 L44.1699219,28.1152344 L3.57421875,28.1152344 L3.57421875,68.6816406 L44.1699219,68.6816406 Z M10.8300781,64.1406351 C10.2636719,64.1406351 9.70703125,64.0039062 9.21875,63.7304687 C7.9296875,63.0175781 7.8125,61.9726562 7.86132813,61.4160156 C8.10546875,58.4765625 13.8964844,54.9023437 19.5996094,52.8027344 C21.1425781,49.9511719 22.3632813,46.953125 23.0761719,44.2773437 C21.6503906,42.1972656 20.5273438,40.3222656 19.8242188,38.8183594 C18.8378906,36.7382812 18.6035156,35.3320312 19.0917969,34.4140625 C19.2871094,34.0429687 19.7851563,33.4179687 20.9082031,33.4179687 C21.2695313,33.4277344 21.6210938,33.4765625 21.9628906,33.5644531 C23.28125,33.8964844 24.9707031,34.8730469 25.5273438,37.6269531 C25.859375,39.3066406 25.7421875,41.40625 25.15625,43.90625 C26.7578125,46.1816406 28.6425781,48.59375 30.5175781,50.7714844 C34.8632812,50.9472656 37.8222656,52.7148437 39.0820312,55.9082031 L39.1113281,55.9667969 L39.1308594,56.0351562 C39.4433594,57.3144531 39.3847656,58.1347656 38.9355469,58.7011719 C38.6425781,59.0722656 38.1933594,59.2773437 37.7246094,59.2675781 C37.1191406,59.2675781 36.1621094,59.0234375 34.0039062,57.1386719 C32.7441406,56.0351562 31.2402344,54.5019531 29.6386719,52.6855469 C27.0800781,52.7148437 24.0820312,53.3007812 20.9277344,54.3847656 C19.4140625,57.0507812 15.0195313,64.1503906 10.8300781,64.1406351 L10.8300781,64.1406351 Z" id="形状" fill="#DE5934"></path>
                <path d="M37.3828125,57.2167969 C37.3632813,56.9921875 37.3242188,56.7578125 37.2753906,56.5332031 C36.4941406,54.5996094 34.8730469,53.3886719 32.4609375,52.9003906 C35.1464844,55.7714844 36.6992188,56.8945313 37.3828125,57.2167969 L37.3828125,57.2167969 Z M28.0273438,50.8203125 L27.9296875,50.7128906 L27.96875,50.7128906 C26.7871094,49.2871094 25.6445313,47.8320312 24.5507813,46.3378906 L24.5410156,46.3769531 L24.4921875,46.2988281 C23.8769531,48.203125 23.125,50.0585938 22.2460938,51.8554688 L22.3339844,51.8261719 L22.2753906,51.9238281 C24.1601563,51.3769531 26.0839844,51.0058594 28.0273438,50.8203125 Z M21.4941406,35.4199219 C21.2988281,35.3710938 21.1035156,35.3320313 20.9082031,35.3320313 C20.8691406,35.3320313 20.8203125,35.3320313 20.78125,35.3417969 C20.7421875,35.5078125 20.703125,36.1914063 21.5820313,38.0273438 C22.1972656,39.2675781 22.8808594,40.4785156 23.6328125,41.640625 C24.0136719,39.0136719 23.8769531,36.0253906 21.4941406,35.4199219 L21.4941406,35.4199219 Z" id="形状" fill="#DE5934"></path>
                <path d="M29.6386719,52.6660156 C31.2402344,54.4824219 32.7441406,56.015625 34.0039062,57.1191406 C36.1523438,59.0039062 37.1191406,59.2480469 37.7246094,59.2480469 C38.1933594,59.2578125 38.6425781,59.0527344 38.9355469,58.6816406 C39.375,58.125 39.4335938,57.3046875 39.1308594,56.015625 L39.1113281,55.9472656 L39.0820312,55.8886719 C37.8222656,52.6953125 34.8730469,50.9277344 30.5175781,50.7519531 C28.6328125,48.5742187 26.7480469,46.1621094 25.15625,43.8867187 C25.7324219,41.3964844 25.859375,39.2871094 25.5273438,37.6171875 C24.9707031,34.8632812 23.28125,33.8964844 21.9628906,33.5546875 C21.6210938,33.4570312 21.2597656,33.4082031 20.9082031,33.4082031 C19.7753906,33.4082031 19.2871094,34.0332031 19.0917969,34.4042969 C18.6035156,35.3222656 18.8378906,36.7285156 19.8242188,38.8085937 C20.5371094,40.3125 21.6601563,42.1972656 23.0761719,44.2675781 C22.3632812,46.953125 21.1328125,49.9511719 19.5996094,52.7929687 C13.8964844,54.8925781 8.10546875,58.4765625 7.86132813,61.40625 C7.8125,61.9628906 7.9296875,63.0078125 9.21875,63.7207031 C9.71679688,63.9941406 10.2636719,64.140625 10.8300781,64.1308594 C15.0195312,64.1308594 19.4140625,57.03125 20.9277344,54.3554688 C24.0820312,53.28125 27.0898438,52.6953125 29.6386719,52.6660156 L29.6386719,52.6660156 Z M37.2753906,56.5332031 C37.3242188,56.7578125 37.3632812,56.9824219 37.3828125,57.2167969 C36.7089844,56.8945312 35.1367188,55.78125 32.4511719,52.9101562 C34.8730469,53.3886719 36.484375,54.5996094 37.2753906,56.5332031 Z M10.8300781,62.2167969 C10.5957031,62.2167969 10.3613281,62.1582031 10.1464844,62.0410156 C9.74609375,61.8164063 9.75585937,61.6601562 9.765625,61.5625 C9.86328125,60.3710938 12.96875,57.7050781 17.9882812,55.5078125 C15.4003906,59.5605469 12.6074219,62.2167969 10.8300781,62.2167969 L10.8300781,62.2167969 Z M21.5820313,38.0273438 C20.703125,36.1914062 20.7519531,35.5078125 20.78125,35.3417969 C20.8203125,35.3320312 20.8691406,35.3320312 20.9082031,35.3320312 C21.1035156,35.3417969 21.2988281,35.3710937 21.4941406,35.4199219 C23.8769531,36.0253906 24.0136719,39.0039062 23.6328125,41.6308594 C22.8808594,40.4785156 22.1972656,39.2773437 21.5820313,38.0273438 L21.5820313,38.0273438 Z M22.2460938,51.8554688 C23.125,50.0585938 23.8769531,48.203125 24.4921875,46.2988281 L24.5410156,46.3769531 L24.5507812,46.3378906 C25.6445313,47.8320313 26.7871094,49.2871094 27.96875,50.7128906 L27.9296875,50.7128906 L28.0273438,50.8203125 C26.0839844,51.0058594 24.1601562,51.3769531 22.2851562,51.9238281 L22.34375,51.8261719 L22.2460938,51.8554688 L22.2460938,51.8554688 Z" id="形状" fill="#FFFFFF"></path>
            </g>
        </g>
    </g>
</svg>