<?xml version="1.0" encoding="UTF-8"?>
<svg width="100px" height="100px" viewBox="0 0 100 100" version="1.1" xmlns="http://www.w3.org/2000/svg" xmlns:xlink="http://www.w3.org/1999/xlink">
    <g id="平台icon" stroke="none" stroke-width="1" fill="none" fill-rule="evenodd">
        <g transform="translate(-65.000000, -600.000000)" fill-rule="nonzero" id="添加">
            <g transform="translate(65.000000, 600.000000)">
                <rect id="矩形" fill="#000000" opacity="0" x="0" y="0" width="100" height="100"></rect>
                <path d="M43.7617188,43.7617188 L43.7617188,6.25585938 C43.7617188,2.81055178 46.5546924,0.017578125 50,0.017578125 C53.4453076,0.017578125 56.2382812,2.81055178 56.2382812,6.25585938 L56.2382812,43.7617188 L93.7441406,43.7617188 C97.1894482,43.7617188 99.9824219,46.5546924 99.9824219,50 C99.9824219,53.4453076 97.1894482,56.2382812 93.7441406,56.2382812 L56.2382812,56.2382812 L56.2382812,93.7441406 C56.2382812,97.1894482 53.4453076,99.9824219 50,99.9824219 C46.5546924,99.9824219 43.7617188,97.1894482 43.7617188,93.7441406 L43.7617188,56.2382812 L6.25585938,56.2382812 C2.81055178,56.2382812 0.017578125,53.4453076 0.017578125,50 C0.017578125,46.5546924 2.81055178,43.7617188 6.25585938,43.7617188 L43.7617188,43.7617188 Z" id="路径" fill="#666666"></path>
            </g>
        </g>
    </g>
</svg>