<?xml version="1.0" encoding="UTF-8"?>
<svg width="100px" height="100px" viewBox="0 0 100 100" version="1.1" xmlns="http://www.w3.org/2000/svg" xmlns:xlink="http://www.w3.org/1999/xlink">
    <g id="平台icon" stroke="none" stroke-width="1" fill="none" fill-rule="evenodd">
        <g transform="translate(-215.000000, -1160.000000)" fill-rule="nonzero" id="ppt">
            <g transform="translate(215.000000, 1160.000000)">
                <rect id="矩形" fill="#000000" opacity="0" x="0" y="0" width="100" height="100"></rect>
                <polygon id="路径" fill="#BD3C20" points="25.4003906 82.9003906 58.2421875 82.9003906 58.2421875 38.4960938 50.546875 38.4960938 50.546875 75.2148438 25.4003906 75.2148438 25.4003906 82.9003906"></polygon>
                <polygon id="路径" fill="#819292" points="74.1601562 0 17.6855469 0 17.6855469 28.1152344 25.3808594 28.1152344 25.3808594 7.68554688 67.8027344 7.68554688 67.8027344 28.6621094 88.7304688 28.6621094 88.7304688 92.3144531 25.3808594 92.3144531 25.3808594 68.6816406 17.6855469 68.6816406 17.6855469 100 96.4257812 100 96.4257812 21.4746094"></polygon>
                <path d="M66.5332031,39.5703125 L81.0058594,39.5703125 L81.0058594,47.0605469 L66.5332031,47.0605469 L66.5332031,39.5703125 Z M66.5332031,57.4414063 L81.0058594,57.4414063 L81.0058594,64.9316406 L66.5332031,64.9316406 L66.5332031,57.4414063 Z M66.5332031,75.3125 L81.0058594,75.3125 L81.0058594,82.8027344 L66.5332031,82.8027344 L66.5332031,75.3125 Z" id="形状" fill="#819292"></path>
                <polygon id="路径" fill="#BD3C20" points="17.8613281 40.7519531 30.7128906 40.7519531 30.7128906 46.6796875 17.8613281 46.6796875"></polygon>
                <path d="M44.1699219,68.6816406 L44.1699219,28.1152344 L3.57421875,28.1152344 L3.57421875,68.6816406 L44.1699219,68.6816406 Z M17.3242188,53.3984375 L17.3242188,62.7246094 L10.5566406,62.7246094 L10.5566406,34.0234375 L31.7285156,34.0234375 C34.8828125,34.0234375 37.4511719,36.7578125 37.4511719,40.1074219 L37.4511719,47.3046875 C37.4511719,50.6640625 34.8828125,53.3886719 31.7285156,53.3886719 L17.3242188,53.3984375 Z" id="形状" fill="#BD3C20"></path>
                <path d="M31.7285156,53.3984375 C34.8828125,53.3984375 37.4511719,50.6640625 37.4511719,47.3144531 L37.4511719,40.1171875 C37.4511719,36.7578125 34.8828125,34.0332031 31.7285156,34.0332031 L10.5566406,34.0332031 L10.5566406,62.734375 L17.3242188,62.734375 L17.3242188,53.4082031 L31.7285156,53.3984375 L31.7285156,53.3984375 Z M17.8613281,40.7519531 L30.7128906,40.7519531 L30.7128906,46.6796875 L17.8613281,46.6796875 L17.8613281,40.7519531 L17.8613281,40.7519531 Z" id="形状" fill="#FFFFFF"></path>
            </g>
        </g>
    </g>
</svg>