<?xml version="1.0" encoding="UTF-8"?>
<svg width="100px" height="100px" viewBox="0 0 100 100" version="1.1" xmlns="http://www.w3.org/2000/svg" xmlns:xlink="http://www.w3.org/1999/xlink">
    <g id="平台icon" stroke="none" stroke-width="1" fill="none" fill-rule="evenodd">
        <g transform="translate(-815.000000, -880.000000)" fill-rule="nonzero" id="疑问">
            <g transform="translate(815.000000, 880.000000)">
                <rect id="矩形" fill="#000000" opacity="0" x="0" y="0" width="100" height="100"></rect>
                <path d="M50,0 C22.3828125,0 0,22.3828125 0,50 C0,77.6171875 22.3828125,100 50,100 C77.6171875,100 100,77.6074219 100,50 C100,22.3925781 77.6171875,0 50,0 Z" id="路径" fill="#24BEE8"></path>
                <path d="M50.6738281,81.3183594 C47.7832031,81.3183594 45.4492188,78.9746094 45.4492188,76.0839844 C45.4492188,73.1933594 47.7929688,70.8496094 50.6835938,70.8593446 C53.5742188,70.8593446 55.9082031,73.203125 55.9082031,76.09375 C55.9082031,77.4804688 55.3613281,78.8085938 54.375,79.7949219 C53.3984375,80.7617188 52.0605469,81.3183594 50.6738281,81.3183594 Z M55.0097656,58.6621094 L54.9316406,64.5507812 C54.9316406,65.4785156 53.7011719,66.7382812 52.7539063,67.3144531 C51.9628906,67.7929687 50.6347656,67.9296875 49.7167969,67.9296875 C47.7929688,67.9296875 45.5078125,66.3671875 45.5078125,64.4335937 L45.5078125,58.5351562 C45.5078125,53.3300781 48.5742188,49.6875 52.109375,45.546875 C54.609375,42.6171875 56.3867188,41.1425781 57.3925781,38.1640625 C59.3261719,32.5 56.2109375,27.9199219 50.1171875,28.125 C44.2480469,28.3300781 42.3046875,32.5488281 42.03125,36.1035156 C41.7285156,39.9414062 38.6230469,40.4589844 36.5722656,40.390625 C34.6875,40.3222656 32.4316406,38.1738281 32.4902344,36.2792969 C32.8710938,24.5507812 39.8925781,19.1992187 49.4921875,18.7011719 C59.1796875,18.1933594 68.671875,25.0585937 67.3925781,37.4804687 C66.8554688,42.6757812 63.3398438,46.6015625 60.0683594,50.078125 C60.0683594,50.0878906 55.2636719,54.5117187 55.0097656,58.6621094 L55.0097656,58.6621094 Z" id="形状" fill="#FFFFFF"></path>
            </g>
        </g>
    </g>
</svg>