<?xml version="1.0" encoding="UTF-8"?>
<svg width="100px" height="100px" viewBox="0 0 100 100" version="1.1" xmlns="http://www.w3.org/2000/svg" xmlns:xlink="http://www.w3.org/1999/xlink">
    <g id="平台icon" stroke="none" stroke-width="1" fill="none" fill-rule="evenodd">
        <g transform="translate(-215.000000, -1300.000000)" fill-rule="nonzero" id="rar">
            <g transform="translate(215.000000, 1300.000000)">
                <rect id="矩形" fill="#000000" opacity="0" x="0" y="0" width="100" height="100"></rect>
                <polygon id="路径" fill="#819292" points="73.8666667 0 17.1979167 0 17.1979167 28.14375 24.98125 28.14375 24.98125 7.4020833 67.56875 7.4020833 67.56875 28.5166667 88.68125 28.5166667 88.68125 92.2166667 24.98125 92.2166667 24.98125 68.5166667 17.1979167 68.5166667 17.1979167 100 96.09375 100 96.09375 22.2166667"></polygon>
                <path d="M66.09375,39.6291667 L80.5375,39.6291667 L80.5375,47.0416667 L66.09375,47.0416667 L66.09375,39.6291667 Z M66.09375,57.775 L80.5375,57.775 L80.5375,65.1854167 L66.09375,65.1854167 L66.09375,57.7729167 L66.09375,57.775 Z M66.09375,75.1854167 L80.5375,75.1854167 L80.5375,82.5979167 L66.09375,82.5979167 L66.09375,75.1854167 Z" id="形状" fill="#819292"></path>
                <polygon id="路径" fill="#213A8A" points="24.98125 82.5875 57.9395833 82.5875 57.9395833 38.1541667 50.1666667 38.1541667 50.1666667 74.8145833 24.98125 74.8145833"></polygon>
                <path d="M43.1041667,27.96875 L43.1041667,68.78125 L3.125,68.78125 L3.125,27.8875 L23.4166667,27.8875 L23.4166667,30.9166667 L20.3916667,30.9166667 L20.3916667,33.94375 L23.4208333,33.94375 L23.4208333,36.9708333 L20.3895833,36.9708333 L20.3895833,40 L23.41875,40 L23.41875,43.0270833 L20.3895833,43.0270833 L20.3895833,46.0541667 L23.41875,46.0541667 L23.41875,49.08125 L20.3895833,49.08125 L20.3895833,52.1083333 L23.41875,52.1083333 L23.41875,49.0833333 L26.4458333,49.0833333 L26.4458333,46.05625 L23.4166667,46.05625 L23.4166667,43.0291667 L26.44375,43.0291667 L26.44375,40 L23.4166667,40 L23.4166667,36.9729167 L26.44375,36.9729167 L26.44375,33.9458333 L23.4166667,33.9458333 L23.4166667,30.9166667 L26.44375,30.9166667 L26.44375,27.9666667 L43.1041667,27.9666667 L43.1041667,27.96875 Z M16.28125,65.625 L16.28125,65.6208333 L17.7083333,65.6208333 L15.73125,61.5229167 C16.3033678,61.3327485 16.7744152,60.9195491 17.0375,60.3770833 C17.2458333,59.9666666 17.35,59.49375 17.35,58.95625 C17.35,58.41875 17.2416667,57.9458333 17.0375,57.5333333 C16.844965,57.1391523 16.5415949,56.809717 16.1645833,56.5854167 C15.7686409,56.3566305 15.31761,56.2406305 14.8604167,56.25 L11.4583333,56.25 L11.4583333,65.625 L12.6625,65.625 L12.6625,61.6625 L14.45,61.6625 L16.2791667,65.625 L16.28125,65.625 Z M16.1479167,59.3729167 C16.1479167,59.6854167 16.1020834,59.9541667 16.0166667,60.1979167 C15.9443921,60.4115457 15.8146421,60.601125 15.6416667,60.7458333 C15.4846203,60.8732585 15.2876233,60.9411377 15.0854167,60.9375 L13.0229167,60.9375 L13.0229167,57.8125 L15.0854167,57.8125 C15.3,57.8125 15.48125,57.875 15.64375,58.0041667 C15.8020833,58.1291667 15.9270833,58.3166667 16.0166667,58.5520833 C16.1020834,58.7916666 16.1479167,59.0645833 16.1479167,59.3729167 L16.1479167,59.3729167 Z M25.4291667,65.625 L27.0854167,65.625 L23.0520833,56.25 L21.7395833,56.25 L17.7083333,65.625 L19.3645833,65.625 L20.1895833,63.5708333 L24.6020833,63.5708333 L25.4270833,65.625 L25.4291667,65.625 Z M20.8333333,62.5 L22.39375,57.8125 L23.9583333,62.5 L20.8333333,62.5 Z M32.9458333,65.625 L32.9458333,65.6208333 L34.375,65.6208333 L32.3979167,61.5229167 C32.9700345,61.3327485 33.4410819,60.9195491 33.7041667,60.3770833 C33.9125,59.9666666 34.0166667,59.49375 34.0166667,58.95625 C34.0166667,58.41875 33.9083334,57.9458333 33.7041667,57.5333333 C33.5116317,57.1391523 33.2082616,56.809717 32.83125,56.5854167 C32.4353076,56.3566305 31.9842766,56.2406305 31.5270833,56.25 L28.125,56.25 L28.125,65.625 L29.3291667,65.625 L29.3291667,61.6625 L31.1166667,61.6625 L32.9458333,65.625 L32.9458333,65.625 Z M32.8125,59.3729167 C32.8125,59.6854167 32.7708333,59.9541667 32.68125,60.1979167 C32.6089754,60.4115457 32.4792254,60.601125 32.30625,60.7458333 C32.1492036,60.8732585 31.9522066,60.9411377 31.75,60.9375 L29.6875,60.9375 L29.6875,57.8125 L31.75,57.8125 C31.9645833,57.8125 32.1458333,57.875 32.3083333,58.0041667 C32.4666666,58.1291667 32.5916666,58.3166667 32.68125,58.5520833 C32.7666667,58.7916666 32.8125,59.0645833 32.8125,59.3729167 L32.8125,59.3729167 Z" id="形状" fill="#213A8A"></path>
            </g>
        </g>
    </g>
</svg>