<?xml version="1.0" encoding="UTF-8"?>
<svg width="18px" height="18px" viewBox="0 0 18 18" version="1.1" xmlns="http://www.w3.org/2000/svg" xmlns:xlink="http://www.w3.org/1999/xlink">
    <title>shuaxin</title>
    <g id="v0.2.0-230908二稿" stroke="none" stroke-width="1" fill="none" fill-rule="evenodd">
        <g id="08-角色管理" transform="translate(-281, -677)">
            <g id="shuaxin" transform="translate(281, 677)">
                <rect id="矩形" fill="#D8D8D8" opacity="0" x="0" y="0" width="18" height="18"></rect>
                <path d="M9.12241303,17 C8.89155549,17 8.63971089,16.985633 8.35521977,16.9568991 C8.32257325,16.9545046 8.29459052,16.9497157 8.26427589,16.9449267 C8.24328884,16.9425322 8.22230179,16.9377432 8.20131474,16.9353487 C8.17100011,16.9305597 8.14068549,16.9281652 8.11037086,16.9233762 C8.00077182,16.9090093 7.88884089,16.8970368 7.77457806,16.8754864 C7.74193154,16.8706974 7.71161691,16.8611194 7.68596607,16.8563304 C7.6743066,16.8539359 7.66031524,16.849147 7.64632387,16.8467525 C7.56703946,16.829991 7.49008694,16.8108351 7.41546632,16.7940736 C7.39214738,16.7892846 7.36882843,16.7821012 7.34550949,16.7773122 C7.20093204,16.7413948 7.0493589,16.7030829 6.89778576,16.6575875 L6.89545387,16.6575875 C6.82782893,16.6360371 6.76020399,16.6120922 6.69724284,16.5881473 L6.65760064,16.5737803 C6.45705772,16.50434 6.30315269,16.4444777 6.16090713,16.3846154 C6.1305925,16.3726429 6.10494166,16.358276 6.07929082,16.3463035 C6.06063567,16.3367255 6.04198051,16.3271476 6.02099346,16.3199641 L6.01866157,16.3175696 C5.80645918,16.2193954 5.62457141,16.1284047 5.4613388,16.0374139 C5.43801986,16.0254415 5.41936471,16.013469 5.40537334,16.0038911 L5.40537334,16.0038911 C4.77109806,15.6423227 4.19045635,15.1897635 3.67977147,14.6581862 C3.668112,14.6462137 3.65645253,14.6318468 3.64246116,14.6174798 L3.63313359,14.6079018 C3.45590961,14.4211314 3.31599594,14.2607004 3.19240554,14.1050584 C3.1667547,14.07393 3.14343576,14.0428016 3.12244871,14.0116732 C3.11078924,13.9949117 3.09912976,13.9781503 3.0851384,13.9613888 C3.06415135,13.9350494 3.0431643,13.9063155 3.01984535,13.8775816 C2.94755663,13.7841963 2.87293601,13.6884166 2.80297917,13.5854535 L2.80064728,13.5806645 C2.78665591,13.559114 2.77732834,13.5399581 2.77033265,13.5279856 C2.77033265,13.5255911 2.76800076,13.5231966 2.76800076,13.5231966 C1.92385498,12.251721 1.45980799,10.7743191 1.415502,9.23944927 L0.328839202,9.23944927 C0.207580692,9.23944927 0.0956497607,9.17240347 0.0396842948,9.06225681 C-0.0186130656,8.95450464 -0.0116173823,8.82041305 0.0536756612,8.71744987 L2.26431156,5.26938043 C2.32494082,5.17360072 2.42754417,5.11852739 2.53947511,5.11852739 C2.65140604,5.11852739 2.75400939,5.17599521 2.81463865,5.27177492 L5.02527455,8.71984436 C5.09289949,8.82280754 5.09756328,8.95689913 5.03926592,9.06704579 C4.98096856,9.17479796 4.87136952,9.24423825 4.75011101,9.24423825 L3.67277579,9.24423825 C3.72174557,10.4462736 4.12982709,11.5788686 4.85971005,12.5294822 C4.87136952,12.5438491 4.88302899,12.5582161 4.89235657,12.5749776 C4.90401604,12.5893445 4.91334362,12.6037115 4.92500309,12.6180784 C5.02527455,12.7449865 5.13487359,12.8695001 5.24913641,12.9868303 L5.25146831,12.9892248 C5.25146831,12.9892248 5.26545967,13.0035917 5.26779157,13.0059862 C5.63389899,13.3843161 6.0489762,13.7075726 6.50136371,13.9661778 L6.52235076,13.9781503 C6.63661359,14.0428016 6.76486778,14.1074529 6.93742797,14.1864711 C6.94908744,14.1912601 6.95841502,14.1960491 6.97007449,14.2008381 C6.98639775,14.2080216 7.00272101,14.215205 7.01438048,14.2223885 L7.01904427,14.224783 C7.1333071,14.2750673 7.24756993,14.3157737 7.38748359,14.3660581 C7.40613875,14.3732415 7.42246201,14.3780305 7.44111716,14.385214 C7.47609558,14.3971865 7.5087421,14.4091589 7.54138862,14.4211314 C7.65098766,14.4546543 7.76758238,14.4833882 7.86785384,14.5073331 C7.88884089,14.5121221 7.90982794,14.5169111 7.93081499,14.5240946 C7.97978477,14.536067 8.02642266,14.5480395 8.07072865,14.5576175 C8.18499148,14.5815624 8.30858188,14.5983239 8.41584903,14.6126908 C8.43916797,14.6150853 8.46248691,14.6198743 8.48580586,14.6222688 C8.52311617,14.6270578 8.56042648,14.6318468 8.5954049,14.6366357 C8.74231424,14.6510027 8.89155549,14.6581862 9.04079673,14.6605807 C9.06644757,14.6605807 9.09209841,14.6605807 9.11541735,14.6605807 C10.2347267,14.6605807 11.3073981,14.3085902 12.2238326,13.6429213 C12.4150479,13.5040407 12.6389098,13.4298114 12.8720992,13.4298114 C13.2405386,13.4298114 13.5879908,13.6165819 13.7978613,13.9302604 C14.1523093,14.4570488 14.0287189,15.1873691 13.5203659,15.5585154 C12.2215007,16.499551 10.6987737,17 9.12241303,17 Z M15.4571318,12.8838671 C15.3452567,12.8838671 15.2450353,12.8263993 15.1821056,12.7330141 L12.9725738,9.28494463 C12.9049827,9.18198144 12.9003212,9.04788985 12.9585894,8.93774319 C13.014527,8.82759653 13.126402,8.76055073 13.2475999,8.76055073 L14.3243971,8.76055073 C14.273121,7.54175397 13.841936,6.36366357 13.0937718,5.41544448 C13.0891103,5.41065549 13.0867796,5.40586651 13.0821181,5.40107752 C12.5343966,4.71146363 11.8258548,4.15833583 11.0357374,3.80395091 C11.0264145,3.79916193 11.0170916,3.79437294 11.0077686,3.79197845 C11.0031072,3.78958396 10.9984457,3.78718946 10.9937843,3.78479497 C10.874917,3.73211613 10.7397347,3.68183179 10.5859065,3.62915295 C10.5672607,3.62196947 10.5486149,3.61718048 10.529969,3.60999701 C10.5113232,3.60281353 10.4903466,3.59563005 10.4693701,3.58844657 C10.3388492,3.5477402 10.2059976,3.5142173 10.1034455,3.49027237 C10.0847996,3.48548339 10.0661538,3.4806944 10.0498387,3.47590542 C10.0102163,3.46632745 9.97525534,3.45674948 9.93796367,3.449566 C9.82841937,3.42801556 9.70489069,3.40646513 9.55572399,3.38730919 C9.53474742,3.3849147 9.51144012,3.3825202 9.49046355,3.37773122 C9.4624948,3.37294223 9.43685677,3.37054774 9.40888801,3.36575875 C9.25272912,3.3513918 9.09190876,3.34181383 8.93341914,3.34181383 C8.91710403,3.34181383 8.90078892,3.34181383 8.88214308,3.34181383 C7.76572353,3.34181383 6.6912571,3.69380425 5.77528031,4.3618677 C5.58416046,4.50074828 5.36041041,4.57497755 5.12733743,4.57497755 C4.75908213,4.57497755 4.41180339,4.38820712 4.20203771,4.07452858 C3.84776679,3.5453457 3.97129547,2.81502544 4.47939455,2.44627357 C5.77061885,1.50523795 7.28326246,1.00718348 8.85417433,1.00239449 C8.86349725,1 8.87748162,1 8.891466,1 C8.91943476,1 8.94274206,1.00239449 8.96371863,1.00478899 C8.977703,1.00478899 8.98935665,1.00718348 8.99867957,1.00718348 L9.00334103,1.00718348 C9.23874474,1.01197246 9.43219531,1.02155043 9.6116615,1.03831188 C9.66992975,1.04549536 9.72353653,1.05267884 9.77714331,1.05986232 C9.80511207,1.0646513 9.83541156,1.06704579 9.86338032,1.07183478 C9.90533345,1.07662377 9.94728659,1.08141275 9.98923972,1.08620174 C10.0661538,1.09577971 10.1477293,1.10535768 10.2293049,1.11972463 C10.2619351,1.12690811 10.2875731,1.1316971 10.3132112,1.13888057 C10.331857,1.14366956 10.3481721,1.14845855 10.3621565,1.15085304 C10.4320784,1.16521999 10.4996695,1.18198144 10.56493,1.19874289 C10.5882373,1.20353188 10.6115446,1.21071535 10.6348519,1.21550434 C10.78868,1.25142173 10.9518311,1.2945226 11.1173129,1.34480694 C11.1639275,1.3591739 11.2082114,1.37593535 11.2524953,1.3903023 C11.2734718,1.39748578 11.2944484,1.40466926 11.315425,1.41185274 C11.5298521,1.48608201 11.7023261,1.55073331 11.8561543,1.61777911 L11.8608157,1.6201736 C11.8771308,1.62735708 11.8957767,1.63693505 11.9120918,1.64411853 C11.9237454,1.65130201 11.9377298,1.65609099 11.9517142,1.66327447 C13.0774567,2.16611793 14.0423788,2.92277761 14.8231733,3.9069141 C14.8348269,3.92128105 14.8441498,3.93564801 14.8558035,3.95001497 C14.8581342,3.95480395 14.8627957,3.95959294 14.8651264,3.96198743 L14.87678,3.97635438 C14.9839936,4.11523496 15.0958686,4.25651003 15.2007515,4.40975756 C15.2170666,4.43370248 15.2287202,4.45764741 15.2380432,4.47680335 C15.2403739,4.47919784 15.2403739,4.48159234 15.2427046,4.48398683 C16.0794366,5.75306794 16.5432518,7.22328644 16.5875357,8.75576175 L17.671325,8.75576175 C17.792523,8.75576175 17.9020673,8.82280754 17.9603355,8.93295421 C18.0186038,9.04310087 18.0116116,9.17479796 17.9463511,9.28015564 L15.7368193,12.7258306 C15.6692282,12.8263993 15.5666761,12.8838671 15.4571318,12.8838671 L15.4571318,12.8838671 Z" id="形状" fill="#3B8FD9" fill-rule="nonzero"></path>
            </g>
        </g>
    </g>
</svg>