<?xml version="1.0" encoding="UTF-8"?>
<svg width="100px" height="100px" viewBox="0 0 100 100" version="1.1" xmlns="http://www.w3.org/2000/svg" xmlns:xlink="http://www.w3.org/1999/xlink">
    <g id="平台icon" stroke="none" stroke-width="1" fill-rule="evenodd">
        <g transform="translate(-941.000000, -624.000000)" fill-rule="nonzero" id="替换">
            <g transform="translate(844.000000, 538.000000)">
                <g transform="translate(97.000000, 86.000000)">
                    <path d="M17.379771,2.2885515 C20.6339695,2.61472357 23.2442748,4.57442947 23.8026717,7.93507112 L21.919084,7.93507112 L24.9582061,12.4613769 L28,7.93507112 L25.9026717,7.93507112 C25.3442748,3.41010215 21.9204198,0.46786975 17.5935115,0.0481237468 C16.9950382,0.00133678119 16.439313,0.514656747 16.439313,1.16700086 C16.4793893,1.72844457 16.865458,2.24042776 17.379771,2.2885515 L17.379771,2.2885515 Z M12.6708015,0 L2.09732822,0 C1.49751907,0 1.02729006,0.514656747 1.02729006,1.16700086 L1.02729006,11.247589 C1.02729006,11.9012699 1.49751907,12.4145899 2.09599237,12.4145899 L12.6708015,12.4145899 C13.2692748,12.4145899 13.7408397,11.9012699 13.7408397,11.247589 L13.7408397,1.16833761 C13.7408397,0.513319934 13.2692748,0.00133674986 12.6708015,0.00133674986 L12.6708015,0 Z M11.6421756,10.1741621 L3.12461831,10.1741621 L3.12461831,2.24176454 L11.6448473,2.24176454 L11.6448473,10.1754989 L11.6421756,10.1754989 L11.6421756,10.1741621 Z M10.6148855,25.6686718 C6.97595419,25.3424997 4.19198473,22.9149241 4.06374046,18.9006015 L6.07557252,18.9006015 L3.04045801,14.3769693 L0,18.9032751 L2.01183206,18.9032751 C2.09599237,24.0845985 5.73492367,27.4425666 10.4038168,27.9090996 C11.0036259,27.9558865 11.5607851,27.4425666 11.5607851,26.7888857 C11.568002,26.2326964 11.1654373,25.7557913 10.6162214,25.6700086 L10.6148855,25.6686718 Z M25.944084,15.5412966 L15.3679389,15.5412966 C14.7667939,15.5412966 14.2979008,16.0559534 14.2979008,16.7082975 L14.2979008,26.8356727 C14.2979008,27.4880168 14.7667939,28 15.3679389,28 L25.9414122,28 C26.5412214,28 27.0101249,27.4880168 27.0101249,26.8356727 L27.0101249,16.7069608 C27.0127862,16.0559534 26.4984733,15.5412966 25.944084,15.5412966 L25.944084,15.5412966 Z M24.9141221,25.714122 L16.395229,25.714122 L16.395229,17.8271746 L24.9141221,17.8271746 L24.9141221,25.714122 Z" id="形状"></path>
                </g>
            </g>
        </g>
    </g>
</svg>