<?xml version="1.0" encoding="UTF-8"?>
<svg version="1.1" width="100px" height="100px" viewBox="0 0 100.0 100.0" xmlns="http://www.w3.org/2000/svg" xmlns:xlink="http://www.w3.org/1999/xlink">
  <defs>
    <clipPath id="i0">
      <path d="M1280,0 L1280,2420 L0,2420 L0,0 L1280,0 Z"></path>
    </clipPath>
    <clipPath id="i1">
      <path d="M92.6574429,55.5046307 C94.6374046,55.5046307 96.4742364,57.3426907 96.4647685,59.6677171 L96.4647685,95.8416882 C96.4647685,98.1714886 94.7900764,100 92.6479007,100 L54.8854961,100 C52.7385496,100 51.0639314,98.1714886 51.0639314,95.8416882 L51.0639314,59.6724911 C51.0639314,57.3426907 52.7385496,55.5046307 54.8854961,55.5046307 Z M10.8587786,51.3463189 L21.6984733,67.5021482 L14.5133588,67.5021482 C14.971374,81.8390146 24.9141221,90.5089275 37.9103054,91.6738279 C39.8765618,91.9849689 41.3142929,93.6882014 41.2888593,95.6745918 C41.2888593,98.0091664 39.2986639,99.8424518 37.1564886,99.6753557 C20.4818703,98.0091664 7.48568704,86.0164232 7.1851145,67.5116968 L0,67.5116968 L10.8587786,51.3463189 Z M88.9790075,63.6684807 L58.5543893,63.6684807 L58.5543893,91.83615 L88.9790075,91.83615 L88.9790075,63.6684807 Z M62.6458179,0.162279773 L62.8339696,0.171870524 C78.2872136,1.67096339 90.5152671,12.1789362 92.5095418,28.3395397 L100,28.3395397 L89.1364504,44.5049175 L78.2824429,28.3395397 L85.0095418,28.3395397 C83.0152671,16.3372481 73.6927482,9.33829846 62.0706107,8.17339821 C60.2337786,8.00152771 58.8549618,6.17301632 58.7118321,4.16786021 C58.7118321,1.83805981 60.696565,0.00477421854 62.8339696,0.171870524 Z M45.2528625,0 C47.3902671,0.00477410664 49.0744275,1.83328548 49.0744275,4.17263432 L49.0744275,40.1699607 C49.0744275,42.5045354 47.3902671,44.3378211 45.2528625,44.3378211 L7.48568704,44.3378211 C5.34828239,44.3378211 3.66889307,42.5045354 3.66889307,40.1699607 L3.66889307,4.16786021 C3.66889307,1.83805981 5.34828239,0 7.49045793,0 L45.2528625,0 Z M41.5887404,8.00630193 L11.1593511,8.00630193 L11.1593511,36.3362932 L41.5791986,36.3362932 L41.5887404,36.3410675 L41.5887404,8.00630193 Z"></path>
    </clipPath>
  </defs>
  <g transform="translate(-665.0 -1580.0)">
    <g clip-path="url(#i0)">
      <g transform="translate(665.0 1580.0)">
        <g clip-path="url(#i1)">
          <polygon points="0,0 100,0 100,100 0,100 0,0" stroke="none" fill="#666666"></polygon>
        </g>
      </g>
    </g>
  </g>
</svg>