<?xml version="1.0" encoding="UTF-8"?>
<svg width="100px" height="100px" viewBox="0 0 100 100" version="1.1" xmlns="http://www.w3.org/2000/svg" xmlns:xlink="http://www.w3.org/1999/xlink">
    <g id="平台icon" stroke="none" stroke-width="1" fill="none" fill-rule="evenodd">
        <g transform="translate(-215.000000, -460.000000)" fill-rule="nonzero" id="必填">
            <g transform="translate(215.000000, 460.000000)">
                <rect id="矩形" fill="#000000" opacity="0" x="0" y="0" width="100" height="100"></rect>
                <path d="M69.3261719,57.4023437 C65.2734375,55.0683594 54.6972656,51.3671875 50.6542969,50 C54.7070313,48.6328125 65.2734375,44.9316406 69.3261719,42.5976562 C70.9570313,41.6601562 72.9589844,39.765625 71.6503906,37.5 C70.3417969,35.234375 67.7929688,35.9765625 66.0839844,36.9628906 C62.03125,39.3066406 53.5449219,46.6113281 50.3417969,49.4238281 C51.171875,45.234375 53.2617188,34.2382812 53.2617188,29.5605469 C53.2617188,27.6757812 52.6269531,24.9902344 50.0097656,24.9902344 C47.3925781,24.9902344 46.7578125,27.5683594 46.7578125,29.5410156 C46.7578125,34.2285156 48.8476563,45.2246094 49.6777344,49.4140625 C46.4648438,46.6015625 37.9882813,39.296875 33.9355469,36.953125 C32.3046875,36.015625 29.6679688,35.2148438 28.359375,37.4902344 C27.0507812,39.765625 28.9648438,41.5917969 30.6835938,42.578125 C34.7363281,44.9121094 45.3027344,48.6132813 49.3457031,49.9902344 C45.3027344,51.3574219 34.7363281,55.0488281 30.6835937,57.3925781 C29.0527344,58.3398438 27.0507812,60.2246094 28.359375,62.4902344 C29.6777344,64.7558594 32.2265625,64.0136719 33.9355469,63.0273438 C37.9882812,60.6835938 46.4746094,53.3691406 49.6777344,50.5566406 C48.8476562,54.7363281 46.7480469,65.7421875 46.7480469,70.4296875 C46.7480469,72.3144531 47.3925781,75 50,75 C52.6171875,75 53.2519531,72.421875 53.2519531,70.4394531 C53.2519531,65.7617188 51.1621094,54.7558594 50.3320313,50.5761719 C53.5546875,53.3886719 62.03125,60.6933594 66.0839844,63.0371094 C67.7148438,63.984375 70.3515625,64.7753906 71.6601563,62.5 C72.96875,60.234375 71.0449219,58.3984375 69.3261719,57.4023437 L69.3261719,57.4023437 Z" id="路径" fill="#EA2C43"></path>
            </g>
        </g>
    </g>
</svg>