<?xml version="1.0" encoding="UTF-8"?>
<svg width="7px" height="8px" viewBox="0 0 7 8" version="1.1" xmlns="http://www.w3.org/2000/svg" xmlns:xlink="http://www.w3.org/1999/xlink">
    <g  stroke="none" stroke-width="1" fill="none" fill-rule="evenodd">
        <g  transform="translate(-94.000000, -355.000000)" fill="#EA2C43" fill-rule="nonzero">
            <g transform="translate(60.000000, 197.000000)">
                <g  transform="translate(34.000000, 154.000000)">
                    <path d="M6.56164357,9.18492482 C5.91930861,8.81156024 4.24304652,8.21948838 3.60225935,8.0007811 C4.24459431,7.78207381 5.91930861,7.19000195 6.56164357,6.81663738 C6.82012535,6.66666667 7.13742335,6.36360086 6.93001881,6.00117165 C6.72261426,5.63874243 6.31863974,5.75746924 6.0477756,5.91525093 C5.40544064,6.2901777 4.0604067,7.45869947 3.55272991,7.9086116 C3.68429249,7.23842999 4.01552064,5.47939855 4.01552064,4.73110721 C4.01552064,4.42960359 3.91491396,4 3.50010487,4 C3.08529579,4 2.98468911,4.41241945 2.98468911,4.72798282 C2.98468911,5.47783636 3.31591726,7.2368678 3.44747984,7.9070494 C2.93825525,7.45713728 1.59476911,6.2886155 0.952434146,5.91368873 C0.693952365,5.76371802 0.276047689,5.63561804 0.0686431458,5.99960945 C-0.138761397,6.36360086 0.164606442,6.6557313 0.437018379,6.81351299 C1.07935334,7.18687756 2.75406764,7.77894942 3.39485481,7.9992189 C2.75406764,8.21792619 1.07935334,8.80843585 0.437018379,9.18336262 C0.178536598,9.33489553 -0.138761397,9.63639914 0.0686431458,9.99882835 C0.277595484,10.3612576 0.681570004,10.2425308 0.952434146,10.0847491 C1.59476911,9.7098223 2.93980305,8.53973833 3.44747984,8.08982621 C3.31591726,8.75844562 2.98314131,10.5190393 2.98314131,11.2688928 C2.98314131,11.5703964 3.08529579,12 3.49855708,12 C3.91336616,12 4.01397285,11.5875806 4.01397285,11.270455 C4.01397285,10.5221636 3.68274469,8.76157001 3.55118211,8.0929506 C4.06195449,8.54286272 5.40544064,9.7113845 6.0477756,10.0863113 C6.30625738,10.2378442 6.72416206,10.364382 6.9315666,10.0003905 C7.13897114,9.63796134 6.83405551,9.3442687 6.56164357,9.18492482 L6.56164357,9.18492482 Z"></path>
                </g>
            </g>
        </g>
    </g>
</svg>