<?xml version="1.0" encoding="UTF-8"?>
<svg width="100px" height="100px" viewBox="0 0 100 100" version="1.1" xmlns="http://www.w3.org/2000/svg" xmlns:xlink="http://www.w3.org/1999/xlink">
    <g id="平台icon" stroke="none" stroke-width="1" fill="none" fill-rule="evenodd">
        <g transform="translate(-65.000000, -460.000000)" fill-rule="nonzero" id="多选选中">
            <g transform="translate(65.000000, 460.000000)">
                <rect id="矩形" fill="#000000" opacity="0" x="0" y="0" width="100" height="100"></rect>
                <path d="M97.8173578,26.490083 L40.5324589,83.7945098 C37.7790344,86.6260456 33.2485771,86.694393 30.4072774,83.9409685 L30.2608186,83.7945098 C30.1338877,83.7163984 30.094832,83.5894675 30.0167207,83.4234809 C29.8507341,83.3844253 29.7726228,83.29655 29.6066362,83.2574943 L2.10168306,55.7134855 C-0.700561018,52.7745466 -0.700561018,48.156214 2.10168306,45.35397 C4.95274671,42.5126702 9.56131536,42.5126702 12.412379,45.35397 L35.4356944,68.3968132 L87.604301,16.2086788 C90.3284338,13.3869069 94.8295993,13.3087956 97.6611351,16.0329283 L97.8368856,16.2086788 C100.678185,18.9816311 100.727005,23.5316163 97.9442887,26.372916 C97.8954691,26.4119717 97.8564135,26.4510274 97.8173578,26.490083 Z" id="路径" fill="#198EEB"></path>
            </g>
        </g>
    </g>
</svg>