<?xml version="1.0" encoding="UTF-8"?>
<svg width="100px" height="100px" viewBox="0 0 100 100" version="1.1" xmlns="http://www.w3.org/2000/svg" xmlns:xlink="http://www.w3.org/1999/xlink">
    <g id="平台icon" stroke="none" stroke-width="1" fill="none" fill-rule="evenodd">
        <g transform="translate(-515.000000, -1440.000000)" id="答复人员">
            <g transform="translate(515.000000, 1440.000000)">
                <rect id="矩形" x="0" y="0" width="100" height="100"></rect>
                <path d="M71.0855436,60.3923205 C84.5903772,68.0884808 93.75,82.9298831 93.75,100 L93.75,100 L6.25,100 C6.21563893,83.5675448 14.8908706,68.4069872 28.9145587,60.3923205 C33.8309709,66.8447412 41.4401899,71.0016694 50.0000512,71.0016694 C58.2535308,70.9930003 66.0379528,67.0754427 71.0814636,60.3923205 L71.0814636,60.3923205 Z M50.0000512,14.9791319 C63.1744039,14.9791319 73.8517905,26.0141903 73.8517905,39.624374 C73.8517905,53.2345576 63.1744039,64.2737896 50.0000512,64.2737896 C36.8256984,64.2737896 26.1483118,53.2345576 26.1483118,39.624374 C26.1483118,26.1502922 36.6132184,15.2041811 49.6055778,14.9866063 L50.0000512,14.9833055 L50.0000512,14.9791319 Z M49.7430105,0 C68.3111367,0 84.6148573,15.0417362 85.4390193,32.5125209 C88.103266,34.7662771 89.8291102,38.1552588 89.8291102,41.9866444 C89.8291102,48.690684 84.6489913,54.1438583 78.2016937,54.307567 L77.9032406,54.3113523 L77.9032406,29.6661102 C78.3357216,29.6661102 78.7396427,29.7537563 79.1598837,29.7954925 C76.7485977,16.0308848 62.5746424,6.16026711 49.7430105,6.16026711 C36.8868985,6.16026711 22.6843832,16.0642738 20.3057373,29.8664441 C20.8116585,29.7796327 21.3175798,29.7035058 21.8381238,29.6765275 L22.2315021,29.6661102 L22.2308983,54.311 L21.9369491,54.3075642 C15.5851213,54.1462542 10.4692781,48.8532333 10.313371,42.2949747 L10.3097098,41.9866444 C10.3075591,38.6313572 11.6441419,35.4205064 14.0102816,33.096828 C14.4917228,15.3797997 30.9627238,0 49.7430105,0 Z" id="形状结合" fill="#FEB034" fill-rule="nonzero"></path>
            </g>
        </g>
    </g>
</svg>