<?xml version="1.0" encoding="UTF-8"?>
<svg width="100px" height="100px" viewBox="0 0 100 100" version="1.1" xmlns="http://www.w3.org/2000/svg" xmlns:xlink="http://www.w3.org/1999/xlink">
    <g id="平台icon" stroke="none" stroke-width="1" fill="none" fill-rule="evenodd">
        <g transform="translate(-515.000000, -880.000000)" fill-rule="nonzero" id="成功">
            <g transform="translate(515.000000, 880.000000)">
                <rect id="矩形" fill="#000000" opacity="0" x="0" y="0" width="100" height="100"></rect>
                <path d="M50,0 C22.3828125,0 0,22.3828125 0,50 C0,77.6171875 22.3828125,100 50,100 C77.6171875,100 100,77.6074219 100,50 C100,22.3925781 77.6171875,0 50,0 Z" id="路径" fill="#4ACFB1"></path>
                <path d="M73.5839844,39.9609375 L46.8164062,66.7480469 C44.5800781,68.984375 42.3535156,68.984375 40.1171875,66.7480469 C37.8808594,64.5117188 37.8808594,62.2753906 40.1171875,60.0488281 L66.8847656,33.2617188 C69.1210938,31.0253906 71.3476562,31.0253906 73.5839844,33.2617188 C75.8203125,35.4882812 75.8203125,37.7246094 73.5839844,39.9609375 Z" id="路径" fill="#FFFFFF"></path>
                <path d="M39.9707031,66.7480469 L26.4160156,53.1835938 C24.1796875,50.9472656 24.1796875,48.7109375 26.4160156,46.484375 C28.6523438,44.2480469 30.8789062,44.2480469 33.1152344,46.484375 L46.6699219,60.0488281 C48.90625,62.2851562 48.90625,64.5214844 46.6699219,66.7480469 C44.4335938,68.984375 42.1972656,68.984375 39.9707031,66.7480469 L39.9707031,66.7480469 Z" id="路径" fill="#FFFFFF"></path>
            </g>
        </g>
    </g>
</svg>