<?xml version="1.0" encoding="UTF-8"?>
<svg width="100px" height="100px" viewBox="0 0 100 100" version="1.1" xmlns="http://www.w3.org/2000/svg" xmlns:xlink="http://www.w3.org/1999/xlink">
    <g id="平台icon" stroke="none" stroke-width="1" fill="none" fill-rule="evenodd">
        <g transform="translate(-365.000000, -1160.000000)" fill-rule="nonzero" id="txt">
            <g transform="translate(365.000000, 1160.000000)">
                <rect id="矩形" fill="#000000" opacity="0" x="0" y="0" width="100" height="100"></rect>
                <polygon id="路径" fill="#819292" points="73.984375 0 17.9003906 0 17.9003906 28.046875 25.6542969 28.046875 25.6542969 7.75390625 68.0859375 7.75390625 68.0859375 28.7890625 89.1210938 28.7890625 89.1210938 92.2558594 25.6445312 92.2558594 25.6445312 68.6328125 17.890625 68.6328125 17.890625 100 96.484375 100 96.484375 21.7675781"></polygon>
                <path d="M66.6015625,39.4824219 L80.9960938,39.4824219 L80.9960938,46.8652344 L66.6015625,46.8652344 L66.6015625,39.4824219 L66.6015625,39.4824219 Z M66.6015625,57.5683594 L80.9960938,57.5683594 L80.9960938,64.9511719 L66.6015625,64.9511719 L66.6015625,57.5683594 Z M66.6015625,75.2734375 L80.9960938,75.2734375 L80.9960938,82.65625 L66.6015625,82.65625 L66.6015625,75.2734375 Z" id="形状" fill="#819292"></path>
                <polygon id="路径" fill="#06AEA6" points="25.6445312 82.65625 58.4863281 82.65625 58.4863281 38.3789063 50.7324219 38.3789063 50.7324219 74.9121094 25.6445312 74.9121094"></polygon>
                <path d="M44.0917969,68.6328125 L44.0917969,28.046875 L3.50585938,28.046875 L3.50585938,68.6328125 L44.0917969,68.6328125 Z M17.5292969,62.734375 L10.8886719,62.734375 L10.8886719,33.9453125 L17.5292969,33.9453125 L17.5292969,52.03125 L24.1699219,45.390625 L30.8105469,52.03125 L30.8105469,34.3164062 L37.4511719,34.3164062 L37.4511719,62.7246094 L30.8105469,62.7246094 L24.1699219,56.0839844 L17.5292969,62.734375 Z" id="形状" fill="#51B9ED"></path>
                <polygon id="路径" fill="#06AEA6" points="3.50585938 28.046875 44.1015625 28.046875 44.1015625 68.6425781 3.50585938 68.6425781"></polygon>
                <polygon id="路径" fill="#FFFFFF" points="36.3476562 41.6308594 27.0214844 41.6308594 27.0214844 64.2089844 20.0390625 64.2089844 20.0390625 41.6308594 10.5175781 41.6308594 10.5175781 34.3261719 36.3476562 34.3261719"></polygon>
            </g>
        </g>
    </g>
</svg>