<?xml version="1.0" encoding="UTF-8"?>
<svg width="100px" height="100px" viewBox="0 0 100 100" version="1.1" xmlns="http://www.w3.org/2000/svg" xmlns:xlink="http://www.w3.org/1999/xlink">
    <g id="平台icon" stroke="none" stroke-width="1" fill="none" fill-rule="evenodd">
        <g transform="translate(-515.000000, -1860.000000)" id="修改密码">
            <g transform="translate(515.000000, 1860.000000)">
                <rect id="矩形" x="0" y="0" width="100" height="100"></rect>
                <path d="M80.9669643,43.3984375 L33.4803571,43.3984375 C33.0776786,41.4648438 32.8714286,39.4921875 32.88125,37.5195313 C32.88125,24.4921875 41.4258929,13.9257813 51.9839286,13.9257813 C61.0392857,13.9257813 68.6214286,21.6894531 70.5857143,32.1289063 L84.16875,32.1289063 C81.8214286,13.9453125 68.3071429,0 51.9741071,0 C33.9910714,0 19.4258929,16.9140625 19.4258929,37.7832031 C19.4258929,39.6679688 19.5535714,41.5527344 19.7892857,43.4179688 L19.0330357,43.4179688 C11.8339286,43.4179688 6,48.0957031 6,53.8671875 L6,89.5605469 C6,95.3320312 11.8339286,100 19.0330357,100 L80.9669643,100 C88.1660714,100 94,95.3222656 94,89.5605469 L94,53.8574219 C94,48.0859375 88.1660714,43.3984375 80.9669643,43.3984375 Z" id="路径" fill="#666666" fill-rule="nonzero"></path>
            </g>
        </g>
    </g>
</svg>