<?xml version="1.0" encoding="UTF-8"?>
<svg width="100px" height="100px" viewBox="0 0 100 100" version="1.1" xmlns="http://www.w3.org/2000/svg" xmlns:xlink="http://www.w3.org/1999/xlink">
    <g id="平台icon" stroke="none" stroke-width="1" fill="none" fill-rule="evenodd">
        <g transform="translate(-1115.000000, -1860.000000)" id="用户管理">
            <g transform="translate(1115.000000, 1860.000000)">
                <rect id="矩形" x="0" y="0" width="100" height="100"></rect>
                <path d="M32.5866427,0.0133858378 C34.119319,0.0140969848 35.646396,0.197811803 37.1352614,0.560606878 C38.5997859,0.907096671 40.0255556,1.39990212 41.3909508,2.03155062 C42.6434738,2.60396124 43.8307158,3.30886254 44.9322494,4.13412609 C45.8344278,4.8098816 46.6428133,5.60187927 47.3362932,6.48943418 C48.6928374,8.26713891 49.7164654,10.2743909 50.3579529,12.4146653 C50.6031433,13.2506092 50.8231394,14.0936964 51.0176448,14.9427905 C48.5858509,15.9217548 47.9867685,16.4332137 46.3361861,17.6085701 C44.9593985,18.8723331 44.0818128,19.6778808 42.9569804,21.434822 C42.1101503,22.4909046 40.9401362,25.1121314 40.4554605,26.9841508 C40.2374666,27.8100769 39.4649708,30.9617425 39.3177047,32.7830156 C39.2131158,33.6790675 38.8879282,35.9162007 38.9931183,39.1711569 C38.5360925,39.7747183 38.2257317,40.308154 37.9533395,40.936689 C37.7246263,41.607779 37.635365,42.1524028 37.5306758,42.9554531 C37.4450211,43.9400115 37.5743548,44.3435845 37.8882219,45.5470113 C38.2954577,46.7837028 38.2375531,46.6440506 38.8304243,47.7339974 C39.6890758,49.0070505 40.3912445,49.2503931 40.9749992,49.4995295 C41.229459,50.413063 41.7547081,52.1882848 41.7547081,52.1882848 C41.7547081,52.1882848 42.2419885,53.3907126 42.6317928,54.3323164 C43.1996188,55.543435 43.736589,55.9715821 43.736589,55.9715821 C43.736589,55.9715821 45.0394431,57.1473381 46.2053497,58.2843352 C46.5428596,58.6889071 47.4312648,59.6826558 47.4722388,61.352589 C47.6020734,62.6695956 47.5697149,62.4466315 47.5697149,63.7923077 C47.5748242,64.845893 47.4691332,64.9757557 47.1470512,65.8948832 C46.826472,66.5731656 46.5971577,67.1315748 45.8801622,67.913048 C45.2825824,68.5861359 44.5337293,69.2746075 43.3457829,70.0157234 C42.3013958,70.7117869 40.7944731,71.574674 38.4396182,72.2027095 C36.6033002,72.6732117 35.253862,73.1580987 33.0789322,73.9258864 C30.5492614,75.0106387 30.3523056,75.2391969 28.9151088,76.234444 C26.2883626,78.3197377 26.2063144,81.4647103 26.2237459,81.2668197 C26.2411774,81.0689291 25.9452427,83.1658106 25.8610906,83.9677621 C24.2129529,83.8625572 22.5663258,83.7350137 20.9216658,83.5851669 C18.7635609,83.389495 16.6082038,83.164779 14.4561836,82.9110801 C12.5017459,82.6844901 10.5520647,82.4188176 8.60831734,82.1142232 C6.85414781,81.835518 5.39170539,81.5537162 4.15717477,81.2719143 C3.34831376,81.1527469 2.57350357,80.8657683 1.88276525,80.4295056 C1.07171544,79.2089626 0.642075495,77.7759102 0.648234629,76.3117622 C0.366509154,73.338484 0.486733481,70.3409398 1.00568048,67.3995912 C1.14085182,65.5746534 1.97902479,63.8726766 3.34460658,62.6502161 C4.68956549,61.5343185 6.21716642,60.65766 7.86046608,60.0586579 C9.61867457,59.3990492 11.4076295,58.8239948 13.2211521,58.3354811 C14.9647913,57.8770701 16.621862,57.1383944 18.1272166,56.1484949 C19.0680713,55.5715398 19.92145,54.8635305 20.6614957,54.0459194 C21.1979123,53.4514667 21.6265923,52.7685421 21.9283848,52.0276547 C22.2139037,51.3635812 22.3578702,50.6475776 22.3511486,49.9250793 C22.3475707,49.1109782 22.3150248,48.2972599 22.2535723,47.4854604 C22.218181,46.3434031 21.7679687,45.2530428 20.9866833,44.4172066 C20.1940288,43.6147514 19.3704909,42.8432217 18.5179226,42.1043536 C18.0477302,41.6335596 17.6726621,41.0770442 17.4131264,40.4650879 C17.115477,39.7526063 16.8231074,39.0379429 16.5360416,38.3211562 C16.2612257,37.4292713 16.0012869,36.5328959 15.7563328,35.6324009 C15.355954,35.5029394 14.9819833,35.3032112 14.6520375,35.0426249 C14.2598287,34.6933193 13.9108039,34.2986126 13.6123589,33.8668689 C13.1759581,33.1965002 12.8572973,32.456888 12.6700563,31.6797828 C12.3577668,30.8535251 12.2356109,29.9678689 12.3126105,29.0882247 C12.3675354,28.4002612 12.5095169,27.7219891 12.735174,27.0695604 C12.969668,26.422144 13.3221859,25.823539 13.7749527,25.3039284 C13.7206552,23.1694562 13.8291633,21.0339563 14.0995392,18.915887 C14.3320414,16.9571253 14.712372,15.018639 15.2372949,13.1169223 C15.7508263,11.1395419 16.5966359,9.2632125 17.7388148,7.56759349 C18.6464133,6.11549661 19.788122,4.82270914 21.1179204,3.74134166 C22.2768256,2.80608821 23.5551138,2.02837749 24.9192889,1.42858855 C26.1645318,0.884933534 27.4749389,0.503818261 28.8180334,0.29468822 C30.0650805,0.101490469 31.325038,0.0029779623 32.5870434,0 L32.5870434,0.0133858378 L32.5866427,0.0133858378 Z M66.6525949,15.7974863 C68.1853047,15.7981894 69.7124158,15.9819043 71.2013138,16.3447073 C72.6658384,16.6911971 74.091608,17.1840025 75.4570032,17.815651 C76.7095306,18.3880932 77.8967728,19.0930281 78.9983018,19.9183264 C79.9004737,20.5940511 80.708859,21.3860149 81.4023456,22.2735346 C82.7589005,24.0512694 83.7825289,26.0585561 84.4240053,28.1988656 C85.018226,30.2230839 85.463445,32.2878601 85.7561122,34.3767294 C86.0439027,36.6329044 86.1849185,38.90529 86.178275,41.1796319 C86.5478266,41.4745799 86.8474912,41.8472701 87.0558607,42.2710772 C87.2801432,42.7534458 87.4438093,43.2615934 87.5431411,43.7839766 C87.6831906,44.531912 87.7051616,45.2970768 87.6082588,46.0517772 C87.5302011,47.0199703 87.2999796,47.9699076 86.9260261,48.8667989 C86.634011,49.4764168 86.2383653,50.0310271 85.7566131,50.5060646 C85.337153,50.9255131 84.8253629,51.2416276 84.2619124,51.4292878 C84.0170602,52.3298014 83.7571545,53.226178 83.4823038,54.1180431 C83.1893745,54.846872 82.8970463,55.5598177 82.5723596,56.2620747 C82.2804399,56.8718999 81.8845566,57.426558 81.4023456,57.9013404 C80.5652553,58.5997629 79.7422051,59.3147485 78.9336851,60.0458715 C78.2044733,60.8811979 77.7607372,61.9262257 77.6666958,63.0297146 C77.5149563,63.8748665 77.4604057,64.7345209 77.504102,65.5920037 C77.5794785,66.4889251 77.810311,67.366012 78.1863347,68.1842611 C78.6297204,69.1177694 79.24712,69.9586707 80.0056219,70.6621395 C81.0296951,71.5638832 82.2070826,72.2759598 83.4823038,72.7648148 C84.8892423,73.3591928 86.332376,73.8644957 87.8031108,74.2777142 C89.3450781,74.7180982 90.8633213,75.2372348 92.3518297,75.8330686 C93.7580004,76.3758381 95.0811728,77.1119572 96.2829326,78.0200548 C97.4465894,78.9266626 98.2983041,80.1720365 98.7198358,81.5832849 C99.0138372,82.6704694 99.2095057,83.7817459 99.3044922,84.9037718 C99.4348549,86.2311227 99.4997348,87.5640455 99.4997348,88.8977462 C99.5057936,90.1648557 99.4080238,91.4303541 99.2071162,92.6815429 C99.1082229,93.6206917 98.8327625,94.5328536 98.3951491,95.3702982 C97.7621002,95.9665148 96.9742424,96.3740234 96.1208398,96.5466536 C94.6154161,97.0058824 93.0863994,97.3843582 91.5403635,97.6804541 C89.688217,98.0436698 87.6743782,98.3669278 85.399568,98.6523258 C83.1520083,98.9344507 80.8991834,99.1731762 78.6423587,99.3683683 C76.4573574,99.5576965 74.269458,99.7121529 72.0795006,99.8316781 C70.0000433,99.9447584 68.1806559,100 66.6536969,100 C65.1266377,100 63.339709,99.9447584 61.2930109,99.8316781 C59.2460123,99.7181981 57.166555,99.5657594 54.9902227,99.3683683 C52.8321174,99.1726632 50.6767603,98.9479138 48.5247405,98.6941816 C46.5703028,98.4675916 44.6206216,98.2019191 42.6768743,97.8973246 C40.9227048,97.6186195 39.4603625,97.3368176 38.2257317,97.0550158 C37.4169054,96.9358349 36.6421307,96.6488568 35.9514224,96.2126071 C35.1403562,94.9921036 34.710682,93.5590879 34.7167916,92.0949635 C34.4350901,89.1216479 34.5553482,86.1240695 35.0743376,83.1826927 C35.2095089,81.3577548 36.0476819,79.6557781 37.4132637,78.4333176 C38.7581924,77.3174299 40.2857586,76.4407718 41.929023,75.8417594 C43.6872315,75.1821507 45.4761864,74.6070963 47.289709,74.1185825 C49.0333483,73.6601716 50.6904189,72.9214959 52.1957735,71.9315964 C53.1366636,71.3546491 53.9900765,70.6466394 54.7301528,69.8290209 C55.266605,69.2345758 55.6953192,68.5516508 55.9971421,67.8107562 C56.2825923,67.146668 56.4264904,66.430665 56.4197056,65.7081807 C56.4161943,64.894082 56.3837153,64.0803638 56.3223296,63.2685619 C56.2869109,62.1264914 55.8366623,61.0361294 55.0553404,60.2003081 C54.2627187,59.3978548 53.4392142,58.6263251 52.5866799,57.8874551 C52.1164515,57.4166698 51.7413491,56.8601538 51.4817835,56.2481894 C51.1841341,55.5357077 50.8917646,54.8210444 50.6046987,54.1042577 C50.3299164,53.2123722 50.070011,52.3159968 49.8250901,51.4155024 C49.4246761,51.2860517 49.0506706,51.0863231 48.7206946,50.8257264 C48.3284858,50.4764207 47.979461,50.081714 47.681016,49.6499703 C47.2446504,48.979595 46.9260236,48.2399831 46.7388136,47.4628843 C46.4264901,46.6366343 46.3042999,45.7509779 46.3812676,44.8713261 C46.4362249,44.1833583 46.5782401,43.5050861 46.8039313,42.8526619 C47.0383951,42.2052529 47.3908787,41.6066485 47.8436098,41.0870299 C47.7893455,38.9525552 47.8978871,36.8170553 48.1682965,34.6989885 C48.4007708,32.740263 48.7810679,30.8018103 49.3059521,28.9001237 C49.8194728,26.9227085 50.6652827,25.0463445 51.8074719,23.350695 C52.7151006,21.8985904 53.8568436,20.6058025 55.1866777,19.5244431 C56.3455519,18.5891972 57.623806,17.8114868 58.987946,17.21169 C60.2331889,16.668035 61.543596,16.2869197 62.8866905,16.0777897 C64.1337376,15.8845919 65.3936951,15.7860794 66.6557005,15.7831015 L66.6557005,15.7974863 L66.6525949,15.7974863 Z" id="形状" fill="#666666" fill-rule="nonzero"></path>
            </g>
        </g>
    </g>
</svg>