<?xml version="1.0" encoding="UTF-8"?>
<svg width="100px" height="100px" viewBox="0 0 100 100" version="1.1" xmlns="http://www.w3.org/2000/svg" xmlns:xlink="http://www.w3.org/1999/xlink">
    <g id="平台icon" stroke="none" stroke-width="1" fill="none" fill-rule="evenodd">
        <g transform="translate(-665.000000, -1160.000000)" fill-rule="nonzero" id="word">
            <g transform="translate(665.000000, 1160.000000)">
                <rect id="矩形" fill="#000000" opacity="0" x="0" y="0" width="100" height="100"></rect>
                <polygon id="路径" fill="#819292" points="74.1699219 0 17.6757812 0 17.6757812 28.1152344 25.3710937 28.1152344 25.3710937 7.68554688 67.8125 7.68554688 67.8125 28.6621094 88.75 28.6621094 88.75 92.3144531 25.3710937 92.3144531 25.3710937 68.6816406 17.6757812 68.6816406 17.6757812 100 96.4453125 100 96.4453125 21.4746094"></polygon>
                <path d="M66.5429688,39.5703125 L81.015625,39.5703125 L81.015625,47.0605469 L66.5429688,47.0605469 L66.5429688,39.5703125 Z M66.5429688,57.4414063 L81.015625,57.4414063 L81.015625,64.9316406 L66.5429688,64.9316406 L66.5429688,57.4414063 Z M66.5429688,75.3125 L81.015625,75.3125 L81.015625,82.8027344 L66.5429688,82.8027344 L66.5429688,75.3125 Z" id="形状" fill="#819292"></path>
                <polygon id="路径" fill="#287CB0" points="25.390625 82.9003906 58.2421875 82.9003906 58.2421875 38.4960938 50.546875 38.4960938 50.546875 75.2148438 25.390625 75.2148438 25.390625 82.9003906"></polygon>
                <path d="M44.1699219,68.6816406 L44.1699219,28.1152344 L3.5546875,28.1152344 L3.5546875,68.6816406 L44.1699219,68.6816406 Z M17.3144531,62.7246094 L17.2753906,62.6855469 L17.2753906,62.7636719 L10.5371094,62.7636719 L10.5371094,34.0234375 L17.265625,34.0234375 L17.265625,51.8945312 L23.7890625,45.3808594 L23.8183594,45.4101562 L23.9453125,45.2832031 L30.4492188,51.7773438 L30.4492188,34.0234375 L37.1777344,34.0234375 L37.1777344,62.6757812 L30.4492188,62.6757812 L30.4492188,62.6074219 L30.4296875,62.6269531 L23.9160156,56.1230469 L17.3144531,62.7246094 L17.3144531,62.7246094 Z" id="形状" fill="#287CB0"></path>
                <polygon id="路径" fill="#FFFFFF" points="30.4296875 62.6269531 30.4492188 62.6074219 30.4492188 62.6757812 37.1777344 62.6757812 37.1777344 34.0234375 30.4492188 34.0234375 30.4492188 51.7773438 23.9453125 45.2832031 23.828125 45.4101563 23.7988281 45.3808594 17.2753906 51.8945313 17.2753906 34.0234375 10.546875 34.0234375 10.546875 62.7636719 17.2753906 62.7636719 17.2753906 62.6855469 17.3144531 62.7246094 23.9257813 56.1230469 30.4296875 62.6269531"></polygon>
            </g>
        </g>
    </g>
</svg>