<?xml version="1.0" encoding="UTF-8"?>
<svg width="100px" height="100px" viewBox="0 0 100 100" version="1.1" xmlns="http://www.w3.org/2000/svg" xmlns:xlink="http://www.w3.org/1999/xlink">
    <g id="平台icon" stroke="none" stroke-width="1" fill="none" fill-rule="evenodd">
        <g transform="translate(-815.000000, -1580.000000)" fill="#666666" fill-rule="nonzero" id="放大图片">
            <g transform="translate(815.000000, 1580.000000)">
                <path d="M98.3333331,90.5027933 L83.8888889,75.9776538 C90,68.1564246 93.8888888,58.1005587 93.8888888,46.9273744 C93.8888888,20.6703911 72.7777778,0 47.2222221,0 C21.6666668,0 0,21.2290503 0,46.9273744 C0,72.6256982 21.1111111,93.8547488 46.6666667,93.8547485 C57.2222221,93.8547485 67.2222221,89.9441339 75.5555556,83.7988825 L90,98.3240224 C92.2222221,100.558659 96.111111,100.558659 98.3333331,98.3240224 C100.555556,96.6480446 100.555556,92.7374301 98.3333331,90.5027933 Z M46.6666667,85.4748603 C25.5555555,85.4748603 8.88888885,68.1564246 8.88888885,47.4860334 C8.88888885,26.8156426 26.1111111,9.49720669 46.6666667,9.49720669 C67.2222221,9.49720669 84.4444442,26.8156425 84.4444442,47.4860334 C84.4444442,68.1564246 67.7777778,85.4748603 46.6666667,85.4748603 Z" id="形状"></path>
                <path d="M62.7777778,42.4581005 L51.6666667,42.4581005 L51.6666667,31.2849162 C51.6666667,29.0502793 49.4444442,26.8156425 47.2222221,26.8156425 C45,26.8156425 42.2222221,29.0502794 42.2222221,31.2849162 L42.2222221,42.4581005 L31.1111111,42.4581005 C28.8888888,42.4581005 26.6666667,44.6927376 26.6666667,46.9273744 C26.6666667,49.1620112 28.3333334,51.396648 31.1111111,51.396648 L42.2222221,51.396648 L42.2222221,62.5698323 C42.2222221,64.8044695 44.4444446,67.0391063 46.6666667,67.0391063 C48.8888889,67.0391063 51.111111,65.3631285 51.111111,62.5698323 L51.111111,51.396648 L62.2222221,51.396648 C64.4444446,51.396648 66.6666667,49.1620112 66.6666667,46.9273744 C67.2222221,44.6927373 64.9999999,42.4581005 62.7777778,42.4581005 L62.7777778,42.4581005 Z" id="路径"></path>
            </g>
        </g>
    </g>
</svg>