<?xml version="1.0" encoding="UTF-8"?>
<svg width="150px" height="150px" viewBox="0 0 150 150" version="1.1" xmlns="http://www.w3.org/2000/svg" xmlns:xlink="http://www.w3.org/1999/xlink">
    <title>15-图标/2提示/3D提示/蓝断网</title>
    <defs>
        <linearGradient x1="100%" y1="50.0066724%" x2="0%" y2="50.0066724%" id="linearGradient-1">
            <stop stop-color="#FFFFFF" offset="0%"></stop>
            <stop stop-color="#FF8F2C" offset="100%"></stop>
        </linearGradient>
        <linearGradient x1="-5.46607898e-14%" y1="49.9962141%" x2="100%" y2="49.9962141%" id="linearGradient-2">
            <stop stop-color="#FFFFFF" offset="0%"></stop>
            <stop stop-color="#FF8F2C" offset="100%"></stop>
        </linearGradient>
    </defs>
    <g id="平台icon231127" stroke="none" stroke-width="1" fill="none" fill-rule="evenodd">
        <g id="平台icon231128" transform="translate(-420, -728)">
            <g id="15-图标/2提示/3D提示/蓝断网" transform="translate(420, 728)">
                <rect id="_mockplus_fix_" x="0" y="0" width="150" height="150"></rect>
                <g id="网络中断">
                    <rect id="矩形备份-5" fill-opacity="0" fill="#EFE9DE" x="0" y="0" width="150" height="150"></rect>
                    <g transform="translate(2, 20)" fill-rule="nonzero">
                        <polygon id="路径" fill="#D4E1F8" points="138.027832 60.7083285 124.687295 68.1827332 124.525078 68.2733234 111.280723 75.6916485 111.280723 75.6930864 111.118506 75.7836765 107.427715 77.8514322 102.785156 80.4512251 97.7506934 83.2724606 86.0050488 81.086794 85.8184277 81.0522834 74.1144141 78.8738065 73.927793 78.839296 61.9323633 76.6061774 75.229834 69.2051076 75.4279395 69.0958242 88.6579395 61.7321408 88.8560449 61.6214195 102.136289 54.2304153 113.996777 56.3715058 114.217852 56.4117681 114.219287 56.4117681 126.048193 58.5456689 126.049629 58.5456689 126.270703 58.5859312 126.272139 58.5859312"></polygon>
                        <polygon id="路径" fill="#98B5F3" points="102.136289 100 90.2844141 97.8057057 90.2829785 97.8057057 90.1279395 97.776947 78.4210547 95.6099735 78.4196191 95.6099735 78.2645801 95.5812148 66.2978613 93.3667894 61.9323633 76.6061774 73.927793 78.839296 74.1144141 78.8738065 85.8184277 81.0522834 86.0050488 81.086794 97.7506934 83.2724606"></polygon>
                        <polygon id="路径" fill="#E6EFFE" points="87.1003711 15.2004486 73.8158203 22.870413 73.6722656 22.9523755 60.6403711 30.4756701 60.4968164 30.5590705 47.5697168 38.0219717 34.6957324 30.5231221 34.6957324 30.5216841 34.5507422 30.4382837 21.4599902 22.8128954 34.5406934 15.2479006 34.6828125 15.1659381 47.6931738 7.64264351 47.8381641 7.55924307 60.9088184 4.86113699e-16 73.8631934 7.51898079 74.006748 7.60094329"></polygon>
                        <polygon id="路径" fill="#D4E1F8" points="87.1003711 15.2004486 87.1003711 60.4653169 74.0727832 67.977108 73.9306641 68.0590705 60.897334 75.5737375 60.7537793 75.6557 47.5697168 83.2580812 47.5697168 38.0219717 60.4968164 30.5590705 60.6403711 30.4756701 73.6722656 22.9523755 73.8158203 22.870413"></polygon>
                        <polygon id="路径" fill="#B6CDFF" points="73.9134375 53.0958817 60.7336816 60.6565628 60.6662109 49.8547682 60.6389355 45.5927183 72.7908398 52.4603129"></polygon>
                        <polygon id="路径" fill="#98B5F3" points="73.9134375 53.0958817 62.1419531 44.7256413 73.8273047 37.9802715 73.899082 50.6485103 73.9048242 51.5601633"></polygon>
                        <polygon id="路径" fill="#98B5F3" points="47.5697168 38.0219717 47.5697168 83.2580812 34.7876074 75.8397561 34.6440527 75.7563557 21.4599902 68.1036466 21.4599902 22.8128954 34.5507422 30.4382837 34.6957324 30.5216841 34.6957324 30.5231221"></polygon>
                        <polygon id="路径" fill="#8396B2" points="47.5697168 53.0268607 34.7258789 45.5869665 34.6957324 30.5216841 34.5507422 30.4382837 34.5823242 45.5035661 21.4599902 37.9026228 21.4599902 38.0694237 34.5823242 45.670367 34.6124707 60.5501553 21.4599902 52.8514322 21.4599902 53.019671 34.6139062 60.7183941 34.6440527 75.7563557 34.7876074 75.8397561 34.7574609 60.8017945 47.5338281 68.2805131 47.5697168 68.3006442 47.5697168 68.1338433 34.7574609 60.6349937 34.7273145 45.7537674 47.5697168 53.1922236"></polygon>
                        <path d="M87.1003711,30.2599793 L73.9019531,37.8609226 L73.8158203,22.9063614 L73.8158203,22.8660992 L73.6722656,22.9480617 L73.7583984,37.9400092 L60.7236328,45.4503624 L60.6389355,30.5173703 L60.6389355,30.4756701 L60.4953809,30.5590705 L60.5800781,45.5323249 L60.5800781,45.5323249 L47.5682813,53.0254228 L47.5682813,53.1907857 L60.5800781,45.6976878 L60.6647754,60.6163005 L47.5668457,68.1338433 L47.5668457,68.3006442 L60.669082,60.7845393 L60.7537793,75.6600138 L60.897334,75.5780513 L60.8126367,60.7025768 L73.8459668,53.2252962 L73.9306641,68.0590705 L74.0742188,67.977108 L73.9880859,53.1347061 L73.9880859,53.1347061 L87.1003711,45.6070977 L87.1003711,45.4417347 L73.9880859,52.9679052 L73.9019531,38.0262855 L87.1003711,30.4253422 L87.1003711,30.2599793 Z M60.8112012,60.5329 L60.7509082,49.8691476 L60.7236328,45.6142874 L62.2352637,44.7443345 L73.7555273,38.109686 L73.8416602,53.0513056 L60.8112012,60.5329 Z" id="形状" fill="#AAB9D2"></path>
                        <polygon id="路径" fill="#BFCDE2" points="60.8872852 15.2507765 73.8158203 22.870413 73.6722656 22.9523755 60.745166 15.3341769 47.7821777 22.8919821 60.6403711 30.4756701 60.4968164 30.5590705 47.638623 22.9753825 34.6957324 30.5216841 34.5507422 30.4382837 34.5866309 30.4181525 47.4965039 22.8905441 34.5406934 15.2479006 34.6828125 15.1659381 47.638623 22.8085816 47.6400586 22.8085816 60.6030469 15.2493385 47.6931738 7.64264351 47.8381641 7.55924307 60.745166 15.1659381 73.8631934 7.51898079 74.006748 7.60094329"></polygon>
                        <polygon id="路径" fill="#C0D6FB" points="99.3470215 73.5519959 87.3932227 71.3663292 100.768213 63.8660416"></polygon>
                        <polygon id="路径" fill="#98B5F3" points="99.3470215 73.5519959 112.773691 66.058898 100.768213 63.8660416"></polygon>
                        <polygon id="路径" fill="#E6EFFE" points="142.555547 77.5494651 129.197783 84.9692281 129.07002 85.0396871 119.83084 90.1716899 115.738096 92.4450707 115.608896 92.5169677 114.493477 93.1367192 102.136289 100 97.7506934 83.2724606 102.785156 80.4512251 107.427715 77.8514322 111.118506 75.7836765 111.280723 75.6930864 111.280723 75.6916485 124.525078 68.2733234 124.687295 68.1827332 138.027832 60.7083285"></polygon>
                        <path d="M147,88.4030254 L147,94.334522 C141.35543,96.957322 135.946289,98.2715978 130.827129,98.2715978 C127.58696,98.2811072 124.369498,97.7299437 121.316631,96.6424134 C118.900757,95.7742699 116.607299,94.5963886 114.493477,93.1381571 L115.608896,92.5184056 L115.738096,92.4465087 L119.83084,90.1731278 C120.881031,90.7427021 121.973345,91.2306396 123.098145,91.6326355 C130.116533,94.1346486 138.15416,93.047567 147,88.4030254 Z" id="路径" fill="url(#linearGradient-1)"></path>
                        <polygon id="路径" fill="#8396B2" points="73.9220508 78.816289 73.927793 78.839296 78.2645801 95.5812148 78.4196191 95.6099735 74.0885742 78.8881859"></polygon>
                        <polygon id="路径" fill="#8396B2" points="85.979209 81.1011734 85.8126855 81.0292764 85.8184277 81.0522834 90.1279395 97.776947 90.2829785 97.8057057"></polygon>
                        <polygon id="路径" fill="#BFCDE2" points="111.286465 75.7103417 111.280723 75.6930864 111.280723 75.6916485 111.273545 75.6657656 111.158701 75.7908662 113.807285 85.7457149 115.608896 92.5169677 115.738096 92.4450707 114.005391 85.9340849"></polygon>
                        <polygon id="路径" fill="#BFCDE2" points="124.691602 68.1999885 124.687295 68.1827332 124.680117 68.1554124 124.565273 68.2805131 129.07002 85.0396871 129.197783 84.9692281"></polygon>
                        <path d="M126.270703,58.5859312 L126.049629,58.5456689 L126.049629,58.5456689 L112.749287,65.9798113 L112.749287,65.9798113 L100.977803,63.8315311 L114.225029,56.4117681 L114.003955,56.3715058 L100.756729,63.7912688 L88.8603516,61.6214195 L88.6622461,61.7321408 L100.557188,63.9005522 L87.3716895,71.2814909 L75.4279395,69.0929483 L75.229834,69.2022317 L87.173584,71.3922121 L73.9665527,78.7875302 L73.9177441,78.8134131 L74.0842676,78.88531 L74.1101074,78.8709306 L87.3903516,71.4324744 L99.0297656,73.5649373 L99.1288184,73.5836305 L99.057041,73.6238928 L85.8571875,81.0005177 L85.8083789,81.0264006 L85.9749023,81.0982975 L86.0007422,81.0839181 L99.1187695,73.7504314 L99.3498926,73.6210169 L99.3498926,73.6210169 L105.60457,74.7713678 L111.112764,75.7779248 L111.152959,75.7851145 L111.267803,75.6600138 L105.515566,74.6060048 L99.545127,73.5117336 L103.768506,71.1520764 L112.766514,66.1192914 L124.519336,68.2632578 L124.559531,68.2632578 L124.674375,68.1381571 L112.963184,66.0028184 L126.270703,58.5859312 Z M103.713955,71.0284137 L99.3312305,73.4729092 L99.3312305,73.4729092 L98.9608594,73.4053261 L87.5941992,71.3203152 L100.775391,63.9480041 L100.775391,63.9480041 L112.546875,66.0962844 L103.713955,71.0284137 Z" id="形状" fill="#AAB9D2"></path>
                        <path d="M103.713955,71.0284137 L99.3312305,73.4729092 L99.3312305,73.4729092 L98.9608594,73.4053261 C98.154082,71.6797998 97.5698145,70.2619924 97.187959,69.33596 C97.0444043,68.9994823 96.9295605,68.7090188 96.852041,68.5307144 C95.7696387,66.0747153 94.0369336,65.6390199 93.7340332,65.5800644 L93.7713574,65.5800644 L93.7713574,65.5714368 C93.7019293,65.5660903 93.6328936,65.556486 93.5646387,65.542678 C92.4377344,65.309732 91.7630273,63.9609456 92.0601855,62.5129414 C92.3573437,61.0649373 93.5086523,60.0914529 94.6441699,60.322961 C94.6886719,60.3330266 94.7317383,60.345968 94.7748047,60.3589095 C95.6665333,60.5488683 96.5229706,60.8778456 97.3128516,61.3338318 C99.2192578,62.4209134 100.740937,64.1651329 101.717109,66.3795583 C101.821904,66.6168181 101.946797,66.9187852 102.104707,67.3027148 C102.447803,68.1611642 102.981826,69.4610606 103.713955,71.0284137 Z" id="路径" fill="#FF8F2C"></path>
                        <path d="M21.4599902,39.0328425 L21.4599902,45.9076268 C20.2405748,47.1020534 19.0875317,48.3626251 18.0060645,49.6836535 C11.9767676,56.9624986 4.68418945,58.0236972 0.956074219,58.0236972 C0.604365234,58.0236972 0.284238281,58.0150696 -1.83603133e-16,57.9992523 L-1.83603133e-16,52.668814 C1.94947266,52.8269872 8.52140625,52.8039802 13.9248047,46.2872426 C16.6121484,43.0331876 19.0927734,40.6347061 21.4599902,39.0328425 Z" id="路径" fill="url(#linearGradient-2)"></path>
                        <path d="M73.899082,50.6485103 C74.1459961,50.9059013 74.2995996,51.0798919 74.3613281,51.1661682 C73.5545508,50.1495456 71.9654004,50.0690211 70.8140918,50.9864259 C69.7001074,51.873634 69.4029492,53.370528 70.116416,54.3871506 C69.6268945,53.8694927 67.8468164,52.1597837 64.711582,50.936098 C63.4325808,50.4406725 62.1050287,50.0816025 60.7509082,49.8648338 L60.7236328,45.6142874 L62.2352637,44.7443345 C63.8671268,45.040345 65.4642217,45.5038887 67.0012793,46.1276314 C70.7293945,47.6504084 72.9717187,49.6807776 73.899082,50.6485103 Z" id="路径" fill="#FF8F2C"></path>
                        <path d="M74.8362645,51.6561889 L74.8362645,51.6561889 C74.8129591,51.6171735 74.7862082,51.5803298 74.7563332,51.5461003 L74.8362645,51.6561889 Z" id="路径" fill="#FF8F2C"></path>
                        <path d="M73.7397363,54.6689865 C72.5912988,55.5863913 70.9992773,55.5058668 70.1910645,54.4892442 C70.1652246,54.4561716 70.1393848,54.4216611 70.116416,54.3871506 C69.3986426,53.370528 69.7001074,51.873634 70.8140918,50.9864259 C71.9625293,50.0690211 73.5545508,50.1495456 74.3613281,51.1661682 C74.3656205,51.1710862 74.369464,51.1763798 74.3728125,51.1819855 C75.1666699,52.200046 74.8853027,53.7558955 73.7397363,54.6689865 Z" id="路径" fill="#DA7D2B"></path>
                        <polygon id="路径" fill="#5D75A5" points="49.8335742 41.3953756 50.8327148 40.9812493 50.8327148 48.2356494 49.8335742 48.642586"></polygon>
                        <polygon id="路径" fill="#5D75A5" points="51.8002734 40.2306453 52.7994141 39.8021397 52.7994141 47.0781088 51.8002734 47.4994248"></polygon>
                        <polygon id="路径" fill="#5D75A5" points="53.791377 39.0529737 54.7905176 38.62303 54.7905176 45.9205683 53.791377 46.3418843"></polygon>
                        <polygon id="路径" fill="#5D75A5" points="55.7824805 37.873864 56.7816211 37.4439204 56.7816211 44.7630277 55.7824805 45.1843437"></polygon>
                        <polygon id="路径" fill="#5D75A5" points="58.7727246 36.2662487 58.7727246 43.6054872 57.773584 44.0268032 57.773584 36.6947544"></polygon>
                        <polygon id="路径" fill="#5D75A5" points="62.7018164 33.777177 63.700957 33.3501093 63.700957 40.7425515 62.7018164 41.1624295"></polygon>
                        <polygon id="路径" fill="#5D75A5" points="64.6914844 32.5995053 65.690625 32.1724376 65.690625 39.5864489 64.6914844 40.0063269"></polygon>
                        <polygon id="路径" fill="#5D75A5" points="66.6797168 31.4232716 67.6788574 30.9947659 67.6788574 38.4289083 66.6797168 38.8502243"></polygon>
                        <polygon id="路径" fill="#5D75A5" points="68.6693848 30.2455999 69.6685254 29.8170942 69.6685254 37.2728057 68.6693848 37.6941217"></polygon>
                        <polygon id="路径" fill="#5D75A5" points="71.6581934 28.6422984 71.6581934 36.119579 70.6590527 36.5365812 70.6590527 29.0664903"></polygon>
                        <ellipse id="椭圆形" fill="#6DFF10" transform="translate(84.2499, 21.5234) rotate(-83.91) translate(-84.2499, -21.5234)" cx="84.249897" cy="21.5234303" rx="1.87647471" ry="1"></ellipse>
                        <ellipse id="椭圆形" fill="#FF3E10" transform="translate(84.411, 27.0693) rotate(-83.91) translate(-84.411, -27.0693)" cx="84.4109957" cy="27.0693133" rx="1.87647471" ry="1"></ellipse>
                        <path d="M76.4514844,50.373864 C76.4018228,50.3732451 76.352871,50.3619674 76.3079297,50.3407914 C76.2213205,50.3013362 76.1539891,50.2289221 76.1208471,50.1395866 C76.0877052,50.0502512 76.0914879,49.951367 76.1313574,49.8648338 L77.91,45.9823996 C77.9982236,45.8124194 78.2040269,45.7416071 78.3779073,45.8214031 C78.5517877,45.9011991 78.6326435,46.103563 78.5617383,46.2814909 L76.7830957,50.163925 C76.7241937,50.2938377 76.5939085,50.3763196 76.4514844,50.373864 Z" id="路径" fill="#FFF735"></path>
                        <path d="M78.4899609,52.6932609 C78.3370009,52.6937563 78.200536,52.5970884 78.1500341,52.4524643 C78.0995323,52.3078403 78.1460935,52.1470476 78.2660156,52.0519383 L80.9332617,49.9266651 C81.0886565,49.8031746 81.3145713,49.8292479 81.4378564,49.9849016 C81.5611416,50.1405553 81.5351116,50.3668465 81.3797168,50.4903371 L78.7124707,52.6141723 C78.6494981,52.6652215 78.5709726,52.6931318 78.4899609,52.6932609 Z" id="路径" fill="#FFF735"></path>
                        <path d="M78.6909375,54.996803 C78.4927298,55.0050525 78.3256236,54.8445514 78.3176953,54.6383138 C78.309767,54.4320762 78.4640189,54.2582001 78.6622266,54.2499506 L81.6539062,53.9975145 C81.8521139,53.9810155 82.0256473,54.134829 82.0415039,54.3410666 C82.0573605,54.5473042 81.9095358,54.7278678 81.7113281,54.7443669 L78.7196484,54.996803 L78.6909375,54.996803 Z" id="路径" fill="#FFF735"></path>
                        <path d="M94.5752637,59.0892097 C94.3989573,59.0891506 94.2490253,58.9603362 94.2221191,58.7858047 L93.7412109,55.7086161 C93.7102906,55.5124607 93.8439755,55.3283376 94.0398047,55.2973657 C94.2356339,55.2663938 94.4194507,55.4003015 94.4503711,55.5964569 L94.9355859,58.6736455 C94.9504581,58.767846 94.9273503,58.8641054 94.871349,58.9412355 C94.8153477,59.0183656 94.7310432,59.0700442 94.6369922,59.0848959 L94.5752637,59.0892097 Z" id="路径" fill="#FFF735"></path>
                        <path d="M96.3955371,59.6341945 C96.2775069,59.6348772 96.1667463,59.5771584 96.0995612,59.4799516 C96.0323761,59.3827447 96.0174289,59.2585831 96.0596191,59.1481652 L97.6387207,54.9781433 C97.6796022,54.8520529 97.7864485,54.7587348 97.9167241,54.7353392 C98.0469996,54.7119436 98.1795564,54.7622683 98.2616234,54.866279 C98.3436904,54.9702897 98.3619454,55.1111021 98.3091211,55.2326585 L96.7300195,59.4026803 C96.6774607,59.5420326 96.5442547,59.6341945 96.3955371,59.6341945 L96.3955371,59.6341945 Z" id="路径" fill="#FFF735"></path>
                        <line x1="34.5507422" y1="30.6182561" x2="35.5498828" y2="31.1987231" id="路径" fill="#8396B2"></line>
                    </g>
                </g>
            </g>
        </g>
    </g>
</svg>