<?xml version="1.0" encoding="UTF-8"?>
<svg width="120px" height="120px" viewBox="0 0 120 120" version="1.1" xmlns="http://www.w3.org/2000/svg" xmlns:xlink="http://www.w3.org/1999/xlink">
    <title>15-图标/2提示/3D提示/灰断网</title>
    <defs>
        <radialGradient cx="50%" cy="49.9796168%" fx="50%" fy="49.9796168%" r="92.1516782%" gradientTransform="translate(0.5, 0.4998), scale(1, 0.7273), rotate(-90), translate(-0.5, -0.4998)" id="radialGradient-1">
            <stop stop-color="#EAF0FF" offset="0%"></stop>
            <stop stop-color="#ACC4FF" offset="100%"></stop>
        </radialGradient>
    </defs>
    <g id="平台icon231127" stroke="none" stroke-width="1" fill="none" fill-rule="evenodd">
        <g id="平台icon231128" transform="translate(-360, -548)">
            <g id="15-图标/2提示/3D提示/灰断网" transform="translate(360, 548)">
                <rect id="_mockplus_fix_" x="0" y="0" width="120" height="120"></rect>
                <g id="网络中断">
                    <rect id="矩形备份-5" fill-opacity="0" fill="#EFE9DE" x="0" y="0" width="120" height="120"></rect>
                    <g id="WiFi" transform="translate(20, 20)">
                        <rect id="矩形" x="0" y="0.000684241211" width="80" height="79.9993158"></rect>
                        <ellipse id="椭圆形" fill="#F4F4F4" fill-rule="nonzero" cx="40" cy="71.3906986" rx="38.075" ry="8.60930136"></ellipse>
                        <path d="M67.2601563,59.2189277 C67.3049473,59.2712505 67.3375081,59.3329021 67.3554688,59.3993949 L70.9695313,71.2336687 L70.9421875,71.2336687 C70.9599394,71.2726899 70.969257,71.315018 70.9695313,71.3578864 C70.9695313,71.6289778 70.5875,71.8758507 69.9617188,72.0610054 L69.8054688,72.1039738 L69.8054688,72.1039738 L69.6414063,72.1453797 L69.6414063,72.1453797 L69.4695313,72.1828794 L69.3804688,72.2016292 L69.1960938,72.2352227 L69.1015625,72.2516288 L68.90625,72.281316 L68.90625,72.281316 L68.7039063,72.3078783 L68.7039063,72.3078783 L68.4953125,72.3313156 L68.3890625,72.3414718 L68.171875,72.3602216 L68.171875,72.3602216 L67.9492188,72.3750652 L67.8359375,72.3813152 L67.60625,72.3906901 L67.60625,72.3906901 L67.371875,72.39694 L67.371875,72.39694 L67.1375,72.39694 L67.1375,72.39694 L66.903125,72.39694 L66.903125,72.39694 L66.66875,72.3906901 L66.66875,72.3906901 L66.4390625,72.3813152 L66.4390625,72.3813152 L66.2140625,72.368034 L66.2140625,72.368034 L65.99375,72.3516279 L65.8859375,72.3414718 L65.675,72.3195969 L65.675,72.3195969 L65.4695313,72.2945972 L65.4695313,72.2945972 L65.2710938,72.2664724 L65.1742188,72.2516288 L64.9859375,72.2188166 L64.8945313,72.2016292 L64.71875,72.1641295 L64.6335938,72.1453797 L64.4695313,72.1039738 L64.4695313,72.1039738 L64.3132813,72.0610054 C63.6882813,71.8758507 63.30625,71.6289778 63.30625,71.3578864 C63.30625,71.3150717 63.3153071,71.2727413 63.3328125,71.2336687 C63.3240139,71.2350712 63.3150486,71.2350712 63.30625,71.2336687 L66.9179688,59.4033012 C66.9835938,59.1712719 67.1382813,59.0900226 67.2601563,59.2189277 Z" id="path-7" fill="#EAEAEA"></path>
                        <path d="M68.390625,72.3438155 L68.496875,72.3336593 L68.7054688,72.310222 L68.7054688,72.310222 L68.9078125,72.2836597 L68.9078125,72.2836597 L69.103125,72.2539725 L69.1976563,72.2375664 L69.3820313,72.2039729 L69.4710938,72.1852231 L69.6429688,72.1477234 L69.6429688,72.1477234 L69.8070313,72.1063175 L69.8070313,72.1063175 L69.9632813,72.0633491 C70.5882813,71.8781945 70.9710938,71.6313216 70.9710938,71.3602301 C70.9708195,71.3173617 70.9615019,71.2750337 70.94375,71.2360125 L70.9710938,71.2360125 L67.3554688,59.4009574 C67.3375081,59.3344646 67.3049473,59.272813 67.2601563,59.2204902 C67.2254382,59.1769722 67.1710206,59.1540287 67.115625,59.1595533 C67.03125,59.1720531 68.390625,72.3438155 68.390625,72.3438155 Z" id="path-7-2" fill="#DDDDDD"></path>
                        <path d="M28.8382812,69.394622 C28.8606993,69.4160688 28.8771269,69.442999 28.8859375,69.4727463 L30.6929687,74.4531724 L30.6796875,74.4531724 C30.6880928,74.469082 30.6926422,74.486744 30.6929687,74.5047345 C30.6929687,74.618796 30.5023437,74.7234826 30.1890625,74.8008257 L30.1109375,74.8195756 L30.1109375,74.8195756 L30.0328125,74.8367629 L30.0328125,74.8367629 L29.9460937,74.8523878 L29.9015625,74.8602002 L29.809375,74.8742626 L29.7625,74.8812938 L29.6648437,74.8937937 L29.6648437,74.8937937 L29.5632812,74.9047311 L29.5632812,74.9047311 L29.459375,74.9148872 L29.40625,74.9195747 L29.2976562,74.9273871 L29.2976562,74.9273871 L29.1859375,74.9336371 L29.1296875,74.9336371 L29.0148437,74.9336371 L29.0148437,74.9336371 L28.8976562,74.9336371 L28.6632812,74.9336371 L28.5460937,74.9336371 L28.5460937,74.9336371 L28.43125,74.9336371 L28.43125,74.9336371 L28.31875,74.9281684 L28.31875,74.9281684 L28.203125,74.9219184 L28.1492187,74.9219184 L28.04375,74.9125435 L28.04375,74.9125435 L27.940625,74.9016061 L27.940625,74.9016061 L27.8414062,74.8898875 L27.7929688,74.8836375 L27.6992188,74.8695751 L27.6539063,74.8625439 L27.565625,74.8469191 L27.5226563,74.8391066 L27.440625,74.8219193 L27.440625,74.8219193 L27.3625,74.8031694 C27.05,74.7250451 26.859375,74.6211398 26.859375,74.5070782 C26.859619,74.4880282 26.8650185,74.4694 26.875,74.4531724 L26.8617187,74.4531724 L28.6679687,69.4727463 C28.7007812,69.3750909 28.7773438,69.3399349 28.8382812,69.394622 Z" id="path-10" fill="#EAEAEA"></path>
                        <path d="M29.1273438,74.9367621 L29.1835938,74.9367621 L29.2953125,74.9305121 L29.2953125,74.9305121 L29.4039063,74.9226997 L29.4570313,74.9180122 L29.5609375,74.9078561 L29.5609375,74.9078561 L29.6625,74.8969186 L29.6625,74.8969186 L29.7601563,74.8844188 L29.8070313,74.8773876 L29.8992188,74.8633252 L29.94375,74.8555128 L30.0304688,74.8398879 L30.0304688,74.8398879 L30.1085938,74.8227005 L30.1085938,74.8227005 L30.1867188,74.8039507 C30.4992188,74.7258264 30.690625,74.621921 30.690625,74.5078595 C30.6902984,74.489869 30.6857491,74.472207 30.6773438,74.4562974 L30.690625,74.4562974 L28.8835938,69.4735275 C28.8747831,69.4437803 28.8583555,69.41685 28.8359375,69.3954032 C28.8153735,69.3750869 28.786351,69.3657998 28.7578125,69.3704034 C28.7242188,69.3750909 29.1273438,74.9367621 29.1273438,74.9367621 Z" id="path-10-2" fill="#DDDDDD"></path>
                        <g id="编组-7" transform="translate(40.95, 47.7156)">
                            <g id="蒙版-2" fill="#EAEAEA">
                                <path d="M0,18.5493489 L0.8703125,6.85101142 C1.04254329,4.53655178 2.4140495,2.48123674 4.48515625,1.43387025 C5.54192708,0.899499821 6.4734375,0.440909994 7.2796875,0.0581007679 C8.84895833,-0.6861637 6.63541667,5.72003151 0.6390625,19.2766864 L0,18.5493489 Z" id="path-12"></path>
                            </g>
                            <path d="M0.484375,19.0493446 L3.771875,9.9455162 C4.07995159,9.09229144 4.56021249,8.31154176 5.1828125,7.65178582 C5.91006432,6.87924958 6.73161929,6.20127567 7.628125,5.63383433 C8.96822917,4.78540408 8.74010417,10.7645196 6.94375,23.5711809 L0.484375,19.0493446 Z" id="路径-30备份" fill="#DDDDDD"></path>
                            <g id="路径-33" transform="translate(1.8781, 8.944)">
                                <g id="蒙版-3" transform="translate(0.6977, 0.6969)" fill="#F4F4F4">
                                    <polygon id="path-14-3" points="2.4390625 0 0 7.31790616 2.4390625 9.06007876 4.878125 0"></polygon>
                                </g>
                                <polygon id="路径" fill="#B7B7B7" points="1.39453125 8.0147752 3.48515625 9.40851328 3.13671875 9.7569478 0 8.0147752"></polygon>
                                <polygon id="路径-32" fill="#C8C8C8" points="0 8.0147752 1.39453125 8.0147752 3.83359375 0.69686904 2.78828125 0"></polygon>
                            </g>
                            <ellipse id="椭圆形" fill="#5B5FFA" fill-rule="nonzero" cx="13.5523438" cy="11.0345694" rx="1" ry="1.04530356"></ellipse>
                            <path d="M13.5523437,12.0798729 C14.0335937,12.0798729 14.4234375,11.611127 14.4234375,11.0345694 C14.4234375,10.4580118 14.3820312,10.1634831 13.9007812,10.1634831 C13.4195312,10.1634831 13.0296875,10.6322291 13.0296875,11.2087866 C13.0296875,11.7853442 13.0710937,12.0798729 13.5523437,12.0798729 Z" id="椭圆形备份-7" fill="url(#radialGradient-1)"></path>
                        </g>
                        <path d="M63.06875,45.657325 C52.9445312,59.1251785 33.778125,61.7649997 20.25625,51.5533683 C19.6203125,51.0729037 19.1515625,50.5432207 18.8328125,49.9674444 C18.8695312,49.9971316 18.90625,50.0276001 18.9445312,50.0557249 C20.0132812,50.8627492 21.5,50.9869669 23.2609375,50.5713455 C25.1875,50.1174431 27.4375,49.0151088 29.8648437,47.3744978 C34.1546875,44.4768663 38.984375,39.9042492 43.5492187,34.2035167 C43.8492187,33.8306032 44.1471354,33.4524815 44.4429687,33.0691514 C44.7101562,32.7261856 44.975,32.3777511 45.2390625,32.0269728 C50.2875,25.3082803 53.9234375,18.5255258 55.71875,12.9818232 C56.6226562,10.1912221 57.059375,7.71858698 56.9640625,5.73579144 C56.8859375,4.13971134 56.4679687,2.86472224 55.6359375,2.03113562 C56.0939725,2.22663008 56.5255065,2.47914355 56.9203125,2.7826917 C70.440625,12.9935419 73.1929687,32.1879089 63.06875,45.657325 Z" id="路径" fill="#D3D3D3"></path>
                        <path d="M55.71875,12.9818232 C53.921875,18.5286508 50.2875,25.3114053 45.2390625,32.0269728 C44.975,32.3777511 44.7101562,32.7261856 44.4429687,33.0691514 C44.1471354,33.4530023 43.8492187,33.8311241 43.5492187,34.2035167 C38.9828125,39.9065929 34.1546875,44.4768663 29.8679687,47.3744978 C27.440625,49.0151088 25.190625,50.1174431 23.2640625,50.5713455 C21.503125,50.9869669 20.0164062,50.8627492 18.9476562,50.0557249 C18.909375,50.0276001 18.8695312,49.9971316 18.8359375,49.9674444 C16.015625,44.8831129 24.8203125,36.2167807 32.5148437,26.1723354 C32.8080729,25.7905678 33.0986979,25.4067169 33.3867187,25.0207827 C33.590625,24.7496913 33.7914062,24.4739124 33.9921875,24.2036022 C42.6296875,12.4263592 49.1664062,-0.688372365 55.6382812,2.03191687 C56.4679687,2.86550349 56.8882812,4.14127383 56.9664062,5.73657268 C57.059375,7.71858698 56.6226562,10.1912221 55.71875,12.9818232 Z" id="路径" fill="#CECECE"></path>
                        <path d="M47.571875,71.2992932 L48.5875,57.7384717 C48.7548556,55.5088504 50.1197152,53.5459467 52.1515625,52.6127342 L52.1515625,52.6127342 C53.1033117,52.1759765 54.2261666,52.3755236 54.9691526,53.1134597 C55.7121386,53.8513957 55.9193311,54.9728557 55.4890625,55.9275496 L48.23125,72.0258495 L48.23125,72.0258495 L47.571875,71.2992932 Z" id="路径-30" fill="#C8C8C8"></path>
                        <g id="路径-30备份-2" transform="translate(48.2445, 52.8559)" fill="#E5E5E5">
                            <path d="M0,19.1504014 L1.0234375,5.47864337 C1.19097859,3.24823526 2.55214259,1.28302298 4.58125,0.341968559 L4.58125,0.341968559 C5.61123698,-0.135190715 6.80348762,-0.111934732 7.81408298,0.405028041 C8.82467834,0.921990813 9.54122674,1.87516723 9.75703125,2.98960216 L12.3351562,16.3168319 L12.3351562,16.3168319 L0,19.1504014 Z" id="path-18"></path>
                        </g>
                        <path d="M55.71875,12.9818232 C53.921875,18.5286508 50.2875,25.3114053 45.2390625,32.0269728 C44.975,32.3777511 44.7101563,32.7261856 44.4429688,33.0691514 C44.1471354,33.4530023 43.8492188,33.8311241 43.5492188,34.2035167 C38.9828125,39.9065929 34.1546875,44.4768663 29.8679688,47.3744978 C27.440625,49.0151088 25.190625,50.1174431 23.2640625,50.5713455 C21.503125,50.9869669 20.0164063,50.8627492 18.9476563,50.0557249 C18.909375,50.0276001 18.8695313,49.9971316 18.8359375,49.9674444 C17.8421875,49.1487014 17.3515625,47.7854318 17.2640625,46.0377905 C17.1679688,44.0549949 17.6046875,41.5847036 18.509375,38.7917587 C20.30625,33.2449312 23.940625,26.4629579 28.9882813,19.7473903 C34.0359375,13.0318228 39.5390625,7.65686876 44.3601563,4.39986536 C46.7875,2.7592544 49.0375,1.65770132 50.9648438,1.20301771 C52.7257813,0.787396262 54.2117188,0.910832707 55.2796875,1.71785705 C55.4064872,1.81337625 55.5263217,1.9178063 55.6382813,2.03035438 C56.4679688,2.863941 56.8882813,4.13971134 56.9664063,5.7350102 C57.059375,7.71858698 56.6226563,10.1912221 55.71875,12.9818232 Z" id="路径" fill="#E0E0E0"></path>
                        <path d="M44.4429687,33.0691514 C44.1471354,33.4530023 43.8492187,33.8311241 43.5492187,34.2035167 L32.5148437,26.1723354 L27.6445312,22.6247095 L28.528125,21.4817505 L33.3867188,25.0207827 L44.4429687,33.0691514 Z" id="路径" fill="#F4F4F4"></path>
                        <ellipse id="椭圆形-2" fill="#F4F4F4" fill-rule="nonzero" transform="translate(27.4492, 21.4497) rotate(-8) translate(-27.4492, -21.4497)" cx="27.4492451" cy="21.4496941" rx="4.35625" ry="4.18199617"></ellipse>
                        <path d="M28.1140625,0.73974042 C29.2199264,1.07175564 29.8472524,2.23737932 29.5152344,3.34323378 C29.1832163,4.44908824 28.0175827,5.07640889 26.9117188,4.74439367 C21.7530741,3.19503789 16.1699676,4.92465329 12.7907206,9.11900045 C9.41147373,13.3133476 8.90949347,19.1365886 11.5210938,23.8473553 C12.0809293,24.8572079 11.7161113,26.1296877 10.70625,26.6895185 C9.69638871,27.2493492 8.42389802,26.8845343 7.8640625,25.8746817 C3.203125,17.4583474 6.2421875,6.85375063 14.6585938,2.18816553 C18.7635552,-0.0936386273 23.617512,-0.616146841 28.1140625,0.73974042 L28.1140625,0.73974042 Z M25.3125,9.50919666 C26.3961501,9.87135212 26.9883361,11.0363925 26.6422408,12.1252701 C26.2961456,13.2141476 25.1399792,13.8234909 24.0460938,13.4935376 L23.9617188,13.4669753 C22.3434571,12.913831 20.5514608,13.4017284 19.4369838,14.6989011 C18.3225068,15.9960738 18.1101467,17.8411059 18.9007813,19.3575499 L18.9515625,19.4505179 C19.3144104,20.1039176 19.3011081,20.9012592 18.9166665,21.5421918 C18.5322248,22.1831244 17.8350497,22.5702752 17.0877602,22.5578081 C16.3404707,22.5453411 15.6565979,22.1351502 15.29375,21.4817505 C13.6140698,18.4563526 13.9710821,14.7089641 16.1918187,12.0551512 C18.4125553,9.40133825 22.0383312,8.38923618 25.3125,9.50919666 L25.3125,9.50919666 Z" id="形状" fill="#E2E2E2"></path>
                    </g>
                </g>
            </g>
        </g>
    </g>
</svg>