<?xml version="1.0" encoding="UTF-8"?>
<svg width="16px" height="16px" viewBox="0 0 16 16" version="1.1" xmlns="http://www.w3.org/2000/svg" xmlns:xlink="http://www.w3.org/1999/xlink">
    <title>15-图标/1框架/4女医生</title>
    <g id="平台icon231127" stroke="none" stroke-width="1" fill="none" fill-rule="evenodd">
        <g id="平台icon231128" transform="translate(-664, -40)">
            <g id="15-图标/1框架/4女医生" transform="translate(664, 40)">
                <rect id="_mockplus_fix_" x="0" y="0" width="16" height="16"></rect>
                <g id="女医生" transform="translate(0.0078, 0)" fill-rule="nonzero">
                    <path d="M15.9890867,8 C15.9937621,10.6953125 14.6343871,13.2109375 12.3734496,14.69375 C12.0796996,14.8875 11.7734496,15.0609375 11.4562621,15.2125 C11.3015746,15.2875 11.1437621,15.35625 10.9828246,15.4203125 C10.3125121,15.690625 9.60782458,15.86875 8.88751208,15.9484375 C8.64532458,15.9765625 8.40157458,15.9921875 8.15313708,15.996875 C8.08126208,15.9984375 8.03751208,15.9984375 7.99532458,15.9984375 C7.95001208,15.9984375 7.90313708,15.9984375 7.85782458,15.996875 C7.58282458,15.990625 7.34063708,15.975 7.10313708,15.9484375 C6.46876208,15.878125 5.84376208,15.7328125 5.24532458,15.5125 C5.22188708,15.503125 5.20001208,15.4953125 5.17657458,15.4859375 C5.12344958,15.465625 5.11251208,15.4625 5.10157458,15.4578125 C5.07501208,15.4484375 5.05001208,15.4375 5.02344958,15.4265625 C4.87501208,15.36875 4.72969958,15.30625 4.58751208,15.2375 L4.51719958,15.2046875 C4.49532458,15.1921875 4.47032458,15.18125 4.44532458,15.16875 C4.42032458,15.1578125 4.39688708,15.1453125 4.37188708,15.1328125 C4.11094958,15 3.85938708,14.853125 3.61407458,14.69375 C1.35469958,13.2109375 -0.00467541646,10.69375 0,8 C0,3.5828125 3.57969958,0 7.99532458,0 C12.4109496,0 15.9890867,3.5828125 15.9890867,8 Z" id="路径" fill="#FFD978"></path>
                    <path d="M7.94688708,8.5796875 C8.50157458,8.884375 9.35157458,6.5828125 7.89688708,6.7125 C6.44376208,6.84375 7.94688708,8.5796875 7.94688708,8.5796875 Z" id="路径" fill="#FFE1CC"></path>
                    <path d="M7.59376208,13.975 C7.59532458,14.1890625 7.77032458,14.3625 7.98594958,14.3625 C8.20157458,14.3609375 8.37501208,14.1859375 8.37501208,13.971875 C8.37344958,13.7578125 8.20001208,13.584375 7.98438708,13.584375 C7.76719958,13.584375 7.59219958,13.759375 7.59376208,13.975 Z" id="路径" fill="#5A7C88"></path>
                    <path d="M10.7593871,12.9359375 C10.7578246,12.9375 10.7562621,12.9390625 10.7531371,12.940625 C10.1828246,13.4453125 9.46876208,13.7609375 8.67344958,13.7984375 C8.62188708,13.8 8.57032458,13.803125 8.51719958,13.803125 L7.47188708,13.803125 C7.42032458,13.803125 7.36876208,13.8015625 7.31719958,13.7984375 C7.27501208,13.796875 7.23438708,13.79375 7.19219958,13.790625 C7.07813708,13.78125 6.96563708,13.765625 6.85313708,13.74375 C6.82501208,13.7390625 6.79844958,13.734375 6.77188708,13.728125 C6.60782458,13.69375 6.44844958,13.6453125 6.29219958,13.5859375 C6.18907458,13.546875 6.08751208,13.503125 5.98907458,13.453125 C5.71719958,13.315625 5.46407458,13.14375 5.23751208,12.9421875 C5.23594958,12.9421875 5.23282458,12.9390625 5.23126208,12.9375 C5.18282458,12.8953125 5.13594958,12.8515625 5.08907458,12.8046875 C4.22969958,11.959375 3.73594958,10.6625 3.84532458,9.2703125 L3.97657458,7.5890625 L4.01407458,7.1109375 L4.04844958,6.6671875 L4.07657458,6.303125 C4.23126208,4.328125 5.79063708,2.8375 7.57188708,2.8375 L8.41876208,2.8375 C10.2000121,2.8375 11.7593871,4.328125 11.9140746,6.303125 L11.9343871,6.565625 L12.1453246,9.26875 C12.2593871,10.7359375 11.7046996,12.0953125 10.7593871,12.9359375 L10.7593871,12.9359375 Z" id="路径" fill="#332115"></path>
                    <path d="M4.75001208,8.578125 C4.20313708,8.896875 3.29219958,6.61875 4.75001208,6.709375 C6.20782458,6.803125 4.75001208,8.578125 4.75001208,8.578125 Z M11.1312621,8.578125 C11.6781371,8.896875 12.5890746,6.61875 11.1312621,6.709375 C9.67344958,6.803125 11.1312621,8.578125 11.1312621,8.578125 Z" id="形状" fill="#FFE1CC"></path>
                    <path d="M11.4718871,7.3921875 C11.4718871,9.3140625 9.91563708,11.39375 7.99532458,11.39375 C6.07501208,11.39375 4.51719958,9.3125 4.51719958,7.3921875 C4.51719958,5.471875 6.07344958,3.9125 7.99376208,3.9125 C9.91407458,3.9125 11.4718871,5.4703125 11.4718871,7.3921875 Z" id="路径" fill="#FFE1CC"></path>
                    <path d="M11.9140746,6.309375 C11.7593871,4.334375 10.2000121,2.85 8.41876208,2.85 L7.57188708,2.85 C5.79063708,2.85 4.23126208,4.334375 4.07657458,6.309375 L4.04844958,6.6671875 C4.16094958,6.6953125 4.27344958,6.721875 4.38751208,6.7484375 C4.44688708,6.7625 4.50782458,6.775 4.57032458,6.7890625 C4.81251208,6.840625 5.05469958,6.8859375 5.30001208,6.925 C5.55782458,6.965625 5.81719958,7.0015625 6.07657458,7.0296875 C6.18751208,7.040625 6.28907458,6.9671875 6.31407458,6.8578125 L6.55001208,5.7828125 C6.55001208,5.7828125 6.65782458,6.34375 6.90782458,6.809375 C7.00782458,6.9953125 7.20001208,7.1125 7.41094958,7.1171875 C7.54063708,7.1203125 7.67188708,7.1218952 7.80313708,7.1218952 C8.77969958,7.1234375 9.75469958,7.034375 10.7140746,6.8546875 C10.9375121,6.8125 11.1593871,6.765625 11.3750121,6.7140625 L11.4031371,6.70625 C11.5828246,6.6640625 11.7593871,6.6171875 11.9328246,6.5671875 L11.9140746,6.309375 L11.9140746,6.309375 Z" id="路径" fill="#332115"></path>
                    <path d="M11.1906371,13.6046875 C11.1906371,14.4515625 9.75938708,15.1375 7.99532458,15.1375 C6.23126208,15.1375 4.80001208,14.4515625 4.80001208,13.6046875 C4.80001208,12.7578125 6.23126208,12.4953125 7.99532458,12.4953125 C9.75938708,12.4953125 11.1906371,12.7578125 11.1906371,13.6046875 Z" id="路径" fill="#FFE1CC"></path>
                    <path d="M12.3734496,14.6921875 C12.0796996,14.8859375 11.7734496,15.059375 11.4562621,15.2109375 C11.3015746,15.2859375 11.1437621,15.3546875 10.9828246,15.41875 C10.3125121,15.6890625 9.60782458,15.8671875 8.88751208,15.946875 C8.64532458,15.975 8.40157458,15.990625 8.15313708,15.9953125 L8.12344958,15.9953125 C8.08126208,15.996875 8.03751208,15.996875 7.99532458,15.996875 C7.95001208,15.996875 7.90313708,15.996875 7.85782458,15.9953125 L7.82657458,15.9953125 C7.58126208,15.9890625 7.34063708,15.9734375 7.10313708,15.946875 C6.46876208,15.8765625 5.84376208,15.73125 5.24532458,15.5109375 C5.22188708,15.5015625 5.20001208,15.49375 5.17657458,15.484375 C5.16251208,15.4796875 5.14688708,15.4734375 5.13282458,15.4671875 C5.12188708,15.4640625 5.11251208,15.459375 5.10157458,15.4546875 C5.07501208,15.4453125 5.05001208,15.434375 5.02344958,15.4234375 C4.87501208,15.365625 4.72969958,15.303125 4.58751208,15.234375 L4.51719958,15.2015625 C4.49532458,15.1890625 4.47032458,15.178125 4.44532458,15.165625 C4.42032458,15.1546875 4.39688708,15.1421875 4.37188708,15.1296875 C4.11094958,14.996875 3.85938708,14.85 3.61407458,14.690625 C3.85313708,14.2078125 4.15313708,13.8046875 4.50313708,13.4765625 C4.66407458,13.325 4.83594958,13.1875 5.02032458,13.0671875 L5.02188708,13.065625 C5.08907458,13.0203125 5.15782458,12.978125 5.22813708,12.9359375 C5.27813708,12.90625 5.32813708,12.878125 5.37969958,12.8515625 C5.38126208,12.85 5.38282458,12.8484375 5.38438708,12.8484375 C5.45782458,12.8109375 5.53126208,12.7734375 5.60626208,12.7390625 C5.62344958,12.73125 5.63907458,12.7234375 5.65626208,12.7171875 C5.74532458,12.678125 5.83438708,12.640625 5.92657458,12.6078125 C5.95469958,12.596875 5.97969958,12.5875 6.00782458,12.578125 C6.01094958,12.578125 6.01407458,12.5765625 6.01719958,12.575 C6.05938708,12.5609375 6.10001208,12.546875 6.14219958,12.534375 C6.18282458,12.5203125 6.22344958,12.509375 6.26407458,12.496875 C6.26407458,12.5046875 6.26407458,12.5125 6.26563708,12.5203125 C6.27032458,12.5390625 6.27657458,12.5578125 6.28282458,12.575 C6.28751208,12.5859375 6.29219958,12.5953125 6.29688708,12.6078125 C6.32032458,12.659375 6.34688708,12.7078125 6.37657458,12.75625 C6.45001208,12.8765625 6.52969958,12.99375 6.61719958,13.1046875 C6.61719958,13.1046875 6.61876208,13.10625 6.61876208,13.1078125 C6.64532458,13.1421875 6.67501208,13.1765625 6.70313708,13.2125 L6.70313708,13.2140625 C6.70469958,13.2140625 6.70469958,13.215625 6.70626208,13.2171875 L6.81407458,13.34375 C6.85782458,13.390625 6.90313708,13.4390625 6.94844958,13.4859375 C6.96876208,13.50625 6.98907458,13.5265625 7.01094958,13.546875 C7.03126208,13.5671875 7.05469958,13.5890625 7.07813708,13.609375 C7.09688708,13.628125 7.11719958,13.6453125 7.13907458,13.6625 C7.17032458,13.6890625 7.20157458,13.715625 7.23438708,13.740625 C7.25938708,13.759375 7.28438708,13.7796875 7.31094958,13.7984375 C7.39844958,13.8625 7.49063708,13.91875 7.58907458,13.965625 C7.70157458,14.021875 7.82501208,14.05625 7.95001208,14.065625 C7.96251208,14.0671875 7.97657458,14.0671875 7.98907458,14.0671875 C8.00157458,14.0671875 8.01563708,14.0671875 8.02813708,14.065625 C8.14688708,14.05625 8.26251208,14.0265625 8.36876208,13.975 C8.47501208,13.9265625 8.57501208,13.8671875 8.66876208,13.7984375 C8.70157458,13.775 8.73438708,13.75 8.76719958,13.7234375 C8.81251208,13.6875 8.85626208,13.6484375 8.90157458,13.6078125 C8.92344958,13.5890625 8.94376208,13.56875 8.96563708,13.5484375 C8.99688708,13.5203125 9.02657458,13.4890625 9.05469958,13.459375 C9.09688708,13.4171875 9.13594958,13.3734375 9.17657458,13.3296875 C9.19688708,13.30625 9.21719958,13.2828125 9.23751208,13.2578125 C9.25782458,13.2328125 9.28126208,13.20625 9.30313708,13.1796875 C9.38126208,13.0828125 9.45469958,12.984375 9.52501208,12.88125 C9.58594958,12.79375 9.64063708,12.703125 9.68751208,12.6078125 C9.68907458,12.6015625 9.69376208,12.5953125 9.69532458,12.590625 C9.71251208,12.5484375 9.72344958,12.515625 9.72188708,12.496875 C9.80469958,12.5203125 9.88594958,12.5453125 9.96563708,12.575 C9.99532458,12.584375 10.0234496,12.5953125 10.0515746,12.60625 C10.1312621,12.634375 10.2093871,12.665625 10.2859496,12.7 C10.3906371,12.74375 10.4921996,12.79375 10.5921996,12.846875 L10.5937621,12.846875 C10.6500121,12.875 10.7046996,12.90625 10.7578246,12.9375 C11.4250121,13.328125 11.9796996,13.903125 12.3718871,14.6953125 L12.3734496,14.6921875 L12.3734496,14.6921875 Z" id="路径" fill="#FFFDF8"></path>
                    <polygon id="路径" fill="#FFE1CC" points="6.86563708 9.7453125 6.86563708 12.9953125 9.08438708 12.9953125 9.08438708 9.7453125"></polygon>
                    <path d="M9.72657458,12.878125 L9.72188708,12.890625 L9.55469958,13.5046875 L9.51563708,13.646875 L9.49844958,13.7125 L9.48438708,13.7640625 L9.46251208,13.8421875 L9.32969958,14.3296875 L9.13594958,15.0359375 L8.88594958,15.95 C8.64376208,15.978125 8.40001208,15.99375 8.15157458,15.9984375 L8.12188708,15.9984375 C8.07969958,16 8.03594958,16 7.99376208,16 C7.94844958,16 7.90157458,16 7.85626208,15.9984375 L7.82501208,15.9984375 C7.57969958,15.9921875 7.33907458,15.9765625 7.10157458,15.95 C7.02501208,15.6546875 6.94688708,15.3453125 6.86876208,15.040625 C6.80626208,14.7953125 6.74376208,14.55 6.67969958,14.3046875 C6.65469958,14.2078125 6.62969958,14.1109375 6.60469958,14.015625 C6.60313708,14.009375 6.60157458,14.003125 6.60001208,13.9984375 C6.58282458,13.9265625 6.56407458,13.859375 6.54688708,13.79375 C6.54063708,13.7671875 6.53282458,13.7421875 6.52657458,13.7171875 C6.52188708,13.7 6.51719958,13.68125 6.51251208,13.665625 C6.48438708,13.5546875 6.45626208,13.453125 6.43282458,13.359375 C6.38438708,13.175 6.34376208,13.0234375 6.31407458,12.9171875 C6.30782458,12.8953125 6.30157458,12.8734375 6.29532458,12.85 C6.28751208,12.815625 6.27657458,12.7828125 6.26251208,12.7515625 L6.37969958,12.7625 L6.86251208,12.80625 L7.87032458,12.8953125 L8.01876208,12.8953125 L9.08126208,12.8875 L9.52657458,12.884375 L9.69063708,12.8828125 L9.72344958,12.8828125 L9.72657458,12.878125 Z" id="路径" fill="#79C4FF"></path>
                    <path d="M7.82657458,15.996875 C7.58126208,15.990625 7.34063708,15.975 7.10313708,15.9484375 C6.46876208,15.878125 5.84532458,15.7328125 5.24532458,15.5125 C5.22188708,15.503125 5.20001208,15.4953125 5.17657458,15.4859375 C5.16251208,15.48125 5.14688708,15.475 5.13282458,15.46875 C5.12188708,15.465625 5.11251208,15.4609375 5.10157458,15.45625 C5.07501208,15.446875 5.05001208,15.4359375 5.02344958,15.425 C4.87501208,15.3671875 4.72969958,15.3046875 4.58751208,15.2359375 L4.51719958,15.203125 C4.49532458,15.190625 4.47032458,15.1796875 4.44532458,15.1671875 C4.45157458,15.1640625 4.45626208,15.159375 4.46094958,15.1546875 C4.49844958,15.1265625 4.53751208,15.096875 4.57501208,15.06875 C4.61719958,15.0359375 4.65782458,15.0046875 4.69844958,14.971875 C4.92657458,14.7921875 5.13282458,14.6171875 5.32188708,14.4453125 C5.38126208,14.390625 5.44063708,14.3359375 5.49844958,14.28125 C5.56876208,14.2125 5.63907458,14.14375 5.70782458,14.0734375 C5.76407458,14.015625 5.81876208,13.9578125 5.87344958,13.8984375 C5.89376208,13.8765625 5.91563708,13.8546875 5.96094958,13.8578125 C5.99063708,13.8625 6.02032458,13.8703125 6.04844958,13.8828125 C6.26876208,13.9734375 6.47344958,14.121875 6.65157458,14.278125 C6.66251208,14.2875 6.67188708,14.2953125 6.68126208,14.3046875 C6.94688708,14.5421875 7.18126208,14.8125 7.37657458,15.109375 C7.56094958,15.3859375 7.71251208,15.684375 7.82657458,15.996875 L7.82657458,15.996875 Z" id="路径" fill="#E5EAF9"></path>
                    <path d="M7.85782458,15.996875 L7.82657458,15.996875 C7.58126208,15.990625 7.34063708,15.975 7.10313708,15.9484375 C6.46876208,15.878125 5.84532458,15.7328125 5.24532458,15.5125 C5.22188708,15.503125 5.20001208,15.4953125 5.17657458,15.4859375 C5.16251208,15.48125 5.14688708,15.475 5.13282458,15.46875 C5.12344958,15.4625 5.11563708,15.4546875 5.10626208,15.4484375 C5.08282458,15.43125 5.06094958,15.4125 5.03751208,15.3953125 C4.90626208,15.29375 4.77501208,15.1984375 4.64063708,15.1125 C4.61876208,15.096875 4.59844958,15.084375 4.57501208,15.0703125 C4.53907458,15.046875 4.50313708,15.0234375 4.46563708,15.0015625 C4.57501208,14.921875 4.68438708,14.8390625 4.79063708,14.75625 C4.95157458,14.6296875 5.10313708,14.50625 5.24376208,14.3859375 C5.32657458,14.3140625 5.40938708,14.2421875 5.48907458,14.1671875 C5.55001208,14.1109375 5.61094958,14.053125 5.67032458,13.9953125 C5.74688708,13.9203125 5.82188708,13.84375 5.89376208,13.765625 C5.92032458,13.73125 5.95001208,13.7 5.97969958,13.6703125 C5.99376208,13.6546875 6.01251208,13.6453125 6.03282458,13.6421875 C6.05938708,13.64375 6.11251208,13.63125 6.14063708,13.6421875 C6.17344958,13.6546875 6.21094958,13.65 6.23751208,13.628125 L6.23907458,13.628125 C6.25626208,13.615625 6.27344958,13.6015625 6.28594958,13.5859375 C6.29376208,13.578125 6.30001208,13.5703125 6.30626208,13.5609375 C6.35313708,13.496875 6.39532458,13.428125 6.43126208,13.3578125 C6.47344958,13.2828125 6.51407458,13.209375 6.55469958,13.1609375 C6.56407458,13.15 6.57344958,13.1390625 6.58438708,13.1296875 C6.59376208,13.1203125 6.60626208,13.1125 6.61876208,13.1078125 C6.64376208,13.096875 6.67344958,13.103125 6.69219958,13.121875 C6.69688708,13.1546875 6.70313708,13.1859375 6.70938708,13.21875 L6.70938708,13.2203125 C6.71407458,13.2421875 6.71876208,13.265625 6.72344958,13.2890625 C6.75469958,13.4375 6.79376208,13.584375 6.84219958,13.7296875 L6.84688708,13.746875 C6.85313708,13.7625 6.85782458,13.7796875 6.86407458,13.7953125 C6.86719958,13.803125 6.87032458,13.809375 6.87188708,13.8171875 C6.87969958,13.8375 6.88594958,13.8578125 6.89376208,13.878125 C7.04688708,14.303125 7.25469958,14.7234375 7.44844958,15.11875 C7.60782458,15.43125 7.75469958,15.728125 7.85782458,15.996875 L7.85782458,15.996875 Z" id="路径" fill="#F3F7FF"></path>
                    <path d="M7.12344958,13.4734375 C6.71563708,13.7375 7.09219958,13.615625 6.75313708,13.9609375 C6.50313708,13.509375 5.14219958,13.759375 4.74532458,13.4703125 C6.36719958,11.7328125 5.87657458,13.075 7.12344958,13.4734375 L7.12344958,13.4734375 Z" id="路径" fill="#E5EAF9"></path>
                    <path d="M7.09063708,13.390625 C6.68282458,13.6546875 7.06094958,13.5328125 6.72032458,13.8765625 C6.47032458,13.4265625 5.10938708,13.675 4.71251208,13.3859375 C6.33438708,11.65 5.84376208,12.9921875 7.09063708,13.390625 Z" id="路径" fill="#F3F7FF"></path>
                    <path d="M11.4562621,15.2125 C11.3015746,15.2875 11.1437621,15.35625 10.9828246,15.4203125 C10.3125121,15.690625 9.60782458,15.86875 8.88751208,15.9484375 C8.64532458,15.9765625 8.40157458,15.9921875 8.15313708,15.996875 C8.27501208,15.6828125 8.43438708,15.384375 8.62813708,15.1078125 C8.82032458,14.83125 9.04532458,14.5796875 9.29844958,14.3578125 C9.30938708,14.3484375 9.32032458,14.340625 9.33126208,14.33125 C9.50157458,14.184375 9.69376208,14.0484375 9.90157458,13.9640625 C9.92969958,13.9515625 9.95782458,13.9421875 9.98907458,13.9390625 C10.0328246,13.9359375 10.0578246,13.959375 10.0765746,13.9796875 C10.2296996,14.1484375 10.4031371,14.3203125 10.5953246,14.496875 C10.8250121,14.7078125 11.0828246,14.925 11.3750121,15.15 C11.4015746,15.16875 11.4296996,15.1890625 11.4562621,15.2125 L11.4562621,15.2125 Z" id="路径" fill="#E5EAF9"></path>
                    <path d="M11.4843871,15.0796875 C11.4468871,15.1015625 11.4109496,15.125 11.3750121,15.1484375 C11.2437621,15.23125 11.1140746,15.321875 10.9843871,15.4203125 C10.3140746,15.690625 9.60938708,15.86875 8.88907458,15.9484375 C8.64688708,15.9765625 8.40313708,15.9921875 8.15469958,15.996875 L8.12501208,15.996875 C8.23438708,15.7265625 8.38282458,15.4296875 8.53751208,15.115625 C8.71251208,14.7609375 8.89532458,14.384375 9.03438708,14.00625 C9.04844958,13.96875 9.06251208,13.93125 9.07501208,13.89375 C9.08594958,13.8640625 9.09532458,13.834375 9.10469958,13.80625 C9.11094958,13.7859375 9.11876208,13.765625 9.12501208,13.7453125 C9.16407458,13.6171875 9.19844958,13.490625 9.22501208,13.3640625 C9.23126208,13.340625 9.23594958,13.3171875 9.23907458,13.29375 C9.24063708,13.28125 9.24376208,13.26875 9.24532458,13.25625 C9.24844958,13.2375 9.25313708,13.2171875 9.25626208,13.196875 C9.27032458,13.1828125 9.29063708,13.175 9.31094958,13.178125 C9.33126208,13.18125 9.35001208,13.190625 9.36407458,13.2046875 C9.37501208,13.2140625 9.38438708,13.225 9.39376208,13.2359375 C9.44688708,13.3 9.50157458,13.4078125 9.55782458,13.5046875 C9.57344958,13.53125 9.58751208,13.55625 9.60313708,13.58125 C9.61094958,13.5921875 9.61719958,13.603125 9.62344958,13.6125 C9.64688708,13.6484375 9.67657458,13.6796875 9.70938708,13.7046875 C9.73751208,13.728125 9.77501208,13.734375 9.80782458,13.7203125 C9.83751208,13.7078125 9.89063708,13.721875 9.91719958,13.7203125 C9.93751208,13.721875 9.95626208,13.73125 9.96876208,13.746875 C10.0000121,13.7765625 10.0281371,13.809375 10.0546996,13.8421875 C10.2515746,14.0515625 10.4578246,14.25 10.6750121,14.4375 C10.9140746,14.6453125 11.1828246,14.859375 11.4843871,15.0796875 L11.4843871,15.0796875 Z" id="路径" fill="#F3F7FF"></path>
                    <path d="M8.82657458,13.5515625 C9.23438708,13.815625 8.85782458,13.69375 9.19688708,14.0390625 C9.44688708,13.5875 10.8078246,13.8375 11.2046996,13.5484375 C9.58282458,11.8125 10.0718871,13.1546875 8.82657458,13.5515625 L8.82657458,13.5515625 Z" id="路径" fill="#E5EAF9"></path>
                    <path d="M8.85782458,13.4703125 C9.26563708,13.734375 8.88907458,13.6125 9.22813708,13.9578125 C9.47813708,13.50625 10.8390746,13.75625 11.2359496,13.4671875 C9.61407458,11.7296875 10.1046996,13.071875 8.85782458,13.4703125 L8.85782458,13.4703125 Z" id="路径" fill="#F3F7FF"></path>
                    <polygon id="路径" fill="#8FA5B0" points="6.99844958 12.2734375 5.73438708 12.6984375 6.65938708 14.0796875 8.03282458 12.896875 6.99844958 12.2734375"></polygon>
                    <path d="M6.87813708,12.125 L5.57501208,12.5859375 L6.52813708,14.08125 L7.99532458,12.8328125 C7.99532458,12.83125 6.87813708,12.125 6.87813708,12.125 L6.87813708,12.125 Z" id="路径" fill="#64C4F4"></path>
                    <polygon id="路径" fill="#64C4F4" points="9.11094958 12.125 10.3734496 12.5859375 9.16251208 14.146875 7.95157458 12.8328125"></polygon>
                    <path d="M7.84219958,13.1015625 C7.84219958,13.1859375 7.95501043,13.253125 8.0934601,13.253125 C8.23190977,13.253125 8.34472061,13.184375 8.34215673,13.1 C8.34215673,13.015625 8.22934589,12.9484375 8.09089621,12.9484375 C7.95244654,12.95 7.84219958,13.01875 7.84219958,13.1015625 L7.84219958,13.1015625 Z M7.84219958,14.2125 C7.84219958,14.296875 7.95501043,14.3640625 8.0934601,14.3640625 C8.23190977,14.3640625 8.34472061,14.2953125 8.34215673,14.2109375 C8.34215673,14.1265625 8.22934589,14.059375 8.09089621,14.059375 C7.95244654,14.059375 7.84219958,14.128125 7.84219958,14.2125 L7.84219958,14.2125 Z M7.84219958,15.48125 C7.84219958,15.565625 7.95501043,15.6328125 8.0934601,15.6328125 C8.23190977,15.6328125 8.34472061,15.5640625 8.34215673,15.4796875 C8.34215673,15.3953125 8.22934589,15.328125 8.09089621,15.328125 C7.95244654,15.328125 7.84219958,15.396875 7.84219958,15.48125 L7.84219958,15.48125 Z" id="形状" fill="#FFFDF8"></path>
                    <path d="M5.27969958,13.828125 L5.49063708,13.9265625 C5.96876208,12.8640625 6.38438708,12.3515625 6.85626208,12.1078125 L6.85626208,11.8421875 C6.38438708,12.08125 5.82188708,12.625 5.27969958,13.828125 Z M9.09063708,11.790625 L9.09063708,12.05625 C9.54532458,12.265625 9.91876208,12.771875 10.4171996,14.0046875 L10.6328246,13.915625 C10.0640746,12.5109375 9.63594958,11.9890625 9.09063708,11.790625 L9.09063708,11.790625 Z" id="形状" fill="#5A7C88"></path>
                    <path d="M4.54532458,15.2000473 C4.54340151,15.2182292 4.53763228,15.2333807 4.53378612,15.2515625 C4.50493997,15.2303504 4.47417074,15.206108 4.44532458,15.1818655 C4.44724766,15.1697443 4.44917074,15.1606534 4.45109381,15.1515625 L4.46455535,15.1576231 L4.54532458,15.2000473 L4.54532458,15.2000473 Z M5.20001208,15.6245436 L5.18572637,15.660441 C5.16965494,15.6527487 5.1517978,15.6424923 5.13572637,15.6322359 C5.12322637,15.6271077 5.11251208,15.6194154 5.10001208,15.6117231 L5.10536923,15.5963384 C5.11072637,15.5835179 5.1142978,15.5706974 5.11965494,15.560441 L5.20001208,15.6245436 Z" id="形状" fill="#879BA0"></path>
                    <path d="M5.70313708,14.428125 L5.61876208,14.628125 L5.24532458,15.5125 C5.22188708,15.503125 5.20001208,15.4953125 5.17657458,15.4859375 C5.16251208,15.48125 5.14688708,15.475 5.13282458,15.46875 C5.12188708,15.465625 5.11251208,15.4609375 5.10157458,15.45625 C5.07501208,15.446875 5.05001208,15.4359375 5.02344958,15.425 L5.03751208,15.39375 L5.41094958,14.50625 L5.48282458,14.334375 C5.49063708,14.3171875 5.49532458,14.3 5.49844958,14.28125 C5.51563708,14.1734375 5.45782458,14.0671875 5.35626208,14.0234375 C5.23594958,13.971875 5.09688708,14.028125 5.04532458,14.1484375 L5.04532458,14.15 L5.03282458,14.1796875 L4.79063708,14.7546875 L4.69844958,14.971875 L4.64063708,15.1109375 L4.58751208,15.2359375 L4.51719958,15.203125 C4.49532458,15.190625 4.47032458,15.1796875 4.44532458,15.1671875 C4.42032458,15.15625 4.39688708,15.14375 4.37188708,15.13125 L4.82501208,14.05625 C4.84063708,14.0203125 4.85938708,13.9859375 4.88282458,13.95625 C4.98126208,13.825 5.14063708,13.7546875 5.30469958,13.76875 C5.35469958,13.7734375 5.40313708,13.784375 5.44844958,13.8046875 C5.53907458,13.84375 5.61563708,13.909375 5.66876208,13.99375 C5.68438708,14.01875 5.69688708,14.0453125 5.70782458,14.0734375 C5.75157458,14.1890625 5.75001208,14.315625 5.70313708,14.428125 L5.70313708,14.428125 Z" id="路径" fill="#5A7C88"></path>
                    <path d="M9.07501208,11.1640625 L9.07501208,11.4828125 C8.44063708,11.8296875 7.64844958,11.7734375 6.85626208,11.49375 L6.85626208,11.1484375 C6.86876208,11.1515625 6.88282458,11.153125 6.89532458,11.1546875 C7.24532458,11.3078125 7.60782458,11.39375 7.99844958,11.39375 C8.37969958,11.3921875 8.75782458,11.3109375 9.07501208,11.1640625 L9.07501208,11.1640625 Z" id="路径" fill="#F4C7A8"></path>
                </g>
            </g>
        </g>
    </g>
</svg>