<?xml version="1.0" encoding="UTF-8"?>
<svg width="16px" height="16px" viewBox="0 0 16 16" version="1.1" xmlns="http://www.w3.org/2000/svg" xmlns:xlink="http://www.w3.org/1999/xlink">
    <title>15-图标/1框架/4男医生</title>
    <g id="平台icon231127" stroke="none" stroke-width="1" fill="none" fill-rule="evenodd">
        <g id="平台icon231128" transform="translate(-616, -40)">
            <g id="15-图标/1框架/4男医生" transform="translate(616, 40)">
                <rect id="_mockplus_fix_" x="0" y="0" width="16" height="16"></rect>
                <g id="男医生" fill-rule="nonzero">
                    <path d="M0,8 C0,12.41875 3.58125,16 8,16 C12.41875,16 16,12.41875 16,8 C16,3.58125 12.41875,0 8,0 C3.58125,0 0,3.58125 0,8 Z" id="路径" fill="#00B3C1"></path>
                    <path d="M7.9640625,8.2640625 C8.51875,8.5671875 9.36875,6.265625 7.9140625,6.396875 C6.459375,6.528125 7.9640625,8.2640625 7.9640625,8.2640625 Z" id="路径" fill="#FFE1CC"></path>
                    <path d="M7.609375,13.6578125 C7.609375,13.8734375 7.784375,14.0484375 8,14.0484375 C8.215625,14.0484375 8.390625,13.8734375 8.390625,13.6578125 C8.390625,13.4421875 8.215625,13.2671875 8,13.2671875 C7.784375,13.2671875 7.609375,13.4421875 7.609375,13.6578125 Z" id="路径" fill="#5A7C88"></path>
                    <path d="M4.765625,8.2625 C4.21875,8.58125 3.3078125,6.303125 4.765625,6.39375 C6.2234375,6.484375 4.765625,8.2625 4.765625,8.2625 Z M11.15,8.2625 C11.696875,8.58125 12.609375,6.303125 11.15,6.39375 C9.690625,6.484375 11.15,8.2625 11.15,8.2625 Z" id="形状" fill="#FFE1CC"></path>
                    <path d="M11.490625,7.0734375 C11.490625,8.9953125 9.9328125,11.075 8.0109375,11.075 C6.0890625,11.075 4.53125,8.9953125 4.53125,7.0734375 C4.53125,5.1515625 6.0890625,3.59375 8.0109375,3.59375 C9.9328125,3.59375 11.490625,5.1515625 11.490625,7.0734375 L11.490625,7.0734375 Z M11.2078125,13.2875 C11.2078125,14.134375 9.7765625,14.8203125 8.0109375,14.8203125 C6.2453125,14.8203125 4.8140625,14.134375 4.8140625,13.2875 C4.8140625,12.440625 6.2453125,12.178125 8.0109375,12.178125 C9.7765625,12.178125 11.2078125,12.4421875 11.2078125,13.2875 Z" id="形状" fill="#FFE1CC"></path>
                    <path d="M12.5015625,14.6140625 C11.9859375,14.9671875 11.4296875,15.25625 10.8453125,15.478125 C10.690625,15.5375 10.534375,15.5921875 10.3765625,15.640625 C9.86875,15.7984375 9.3453125,15.90625 8.815625,15.959375 C8.565625,15.984375 8.3140625,15.9984375 8.0609375,16 L7.946875,16 C7.6984375,15.9984375 7.4484375,15.9859375 7.2,15.9609375 C6.696875,15.9109375 6.1984375,15.8140625 5.7140625,15.66875 C5.5703125,15.6265625 5.428125,15.5796875 5.2875,15.5296875 C5.20625,15.5015625 5.1265625,15.4703125 5.0484375,15.4390625 C5.0234375,15.4296875 4.9984375,15.4203125 4.9734375,15.409375 C4.79375,15.3359375 4.615625,15.25625 4.4421875,15.16875 C4.4171875,15.1578125 4.39375,15.1453125 4.3703125,15.1328125 C4.075,14.9828125 3.7890625,14.8140625 3.5140625,14.6265625 C3.76875,14.03125 4.1109375,13.546875 4.51875,13.1640625 C4.68125,13.0109375 4.85625,12.871875 5.040625,12.75 C5.1078125,12.70625 5.175,12.6625 5.24375,12.621875 C5.2953125,12.5921875 5.346875,12.5625 5.4,12.534375 C5.4734375,12.4953125 5.546875,12.459375 5.621875,12.425 C5.6390625,12.4171875 5.6546875,12.409375 5.671875,12.403125 C5.7609375,12.3625 5.8515625,12.3265625 5.9421875,12.29375 C5.9734375,12.28125 6.003125,12.2703125 6.034375,12.2609375 L6.0359375,12.2609375 C6.0765625,12.246875 6.1171875,12.2328125 6.159375,12.2203125 C6.2,12.20625 6.240625,12.1953125 6.28125,12.1828125 C6.28125,12.190625 6.28125,12.1984375 6.2828125,12.20625 C6.2875,12.228125 6.29375,12.25 6.303125,12.2703125 C6.3078125,12.278125 6.3109375,12.2859375 6.3140625,12.2953125 C6.3375,12.346875 6.3640625,12.3953125 6.39375,12.44375 C6.4671875,12.5640625 6.546875,12.68125 6.634375,12.7921875 C6.634375,12.7921875 6.6359375,12.79375 6.6359375,12.7953125 C6.6625,12.8296875 6.6921875,12.8640625 6.7203125,12.9 L6.7203125,12.9015625 C6.721875,12.9015625 6.721875,12.903125 6.7234375,12.9046875 C6.759375,12.946875 6.7953125,12.9890625 6.8328125,13.03125 C6.8765625,13.078125 6.921875,13.1265625 6.9671875,13.1734375 C6.9875,13.19375 7.0078125,13.2140625 7.0296875,13.234375 C7.05,13.2546875 7.0734375,13.2765625 7.096875,13.296875 C7.1171875,13.315625 7.1359375,13.3328125 7.1578125,13.35 C7.1890625,13.3765625 7.2203125,13.403125 7.253125,13.428125 C7.278125,13.4484375 7.303125,13.4671875 7.3296875,13.4859375 C7.4171875,13.55 7.5109375,13.60625 7.6078125,13.653125 C7.7203125,13.7109375 7.84375,13.7453125 7.96875,13.753125 C7.9953125,13.7546875 8.0203125,13.7546875 8.046875,13.753125 C8.165625,13.7453125 8.2828125,13.7140625 8.390625,13.6625 C8.4953125,13.6125 8.596875,13.553125 8.690625,13.484375 C8.725,13.4609375 8.7578125,13.4359375 8.7890625,13.409375 C8.834375,13.371875 8.878125,13.334375 8.921875,13.29375 C8.94375,13.275 8.965625,13.2546875 8.9859375,13.2328125 C9.015625,13.2046875 9.046875,13.175 9.075,13.1453125 C9.1171875,13.103125 9.15625,13.0609375 9.1953125,13.0171875 C9.2171875,12.99375 9.2390625,12.96875 9.259375,12.94375 C9.28125,12.91875 9.303125,12.8921875 9.3234375,12.8671875 C9.4015625,12.7703125 9.475,12.671875 9.5453125,12.56875 C9.6046875,12.4828125 9.6578125,12.390625 9.703125,12.296875 C9.7078125,12.2875 9.7109375,12.2796875 9.7140625,12.271875 C9.728125,12.2453125 9.7359375,12.215625 9.7375,12.184375 C9.8234375,12.209375 9.909375,12.2375 9.99375,12.265625 C10.01875,12.275 10.04375,12.2828125 10.0671875,12.2921875 C10.146875,12.3203125 10.225,12.3515625 10.3015625,12.3859375 C10.40625,12.4296875 10.509375,12.4796875 10.6109375,12.5328125 L10.6125,12.5328125 C10.66875,12.5609375 10.721875,12.590625 10.775,12.621875 C11.509375,13.0484375 12.1078125,13.6984375 12.5015625,14.6140625 L12.5015625,14.6140625 Z" id="路径" fill="#FFFDF8"></path>
                    <polygon id="路径" fill="#FFE1CC" points="6.88125 9.4296875 6.88125 12.68125 9.1015625 12.68125 9.1015625 9.4296875"></polygon>
                    <path d="M9.74375,12.5609375 L9.7390625,12.5734375 L9.5703125,13.1890625 L9.5140625,13.3984375 L9.5,13.4484375 L9.478125,13.5265625 L9.3453125,14.0140625 L9.153125,14.7203125 L8.8140625,15.9578125 C8.5640625,15.9828125 8.3125,15.996875 8.059375,15.9984375 L7.9453125,15.9984375 C7.696875,15.996875 7.446875,15.984375 7.1984375,15.959375 C7.1,15.56875 6.990625,15.1421875 6.884375,14.7234375 C6.81875,14.471875 6.75625,14.2234375 6.6953125,13.9890625 C6.66875,13.8890625 6.6453125,13.7921875 6.6203125,13.6984375 C6.61875,13.69375 6.6171875,13.6875 6.615625,13.6828125 C6.596875,13.6109375 6.5796875,13.5421875 6.5625,13.475 C6.5546875,13.4484375 6.5484375,13.4234375 6.5421875,13.3984375 C6.509375,13.26875 6.4765625,13.15 6.4484375,13.040625 C6.409375,12.8921875 6.3703125,12.7453125 6.3296875,12.5984375 C6.3234375,12.5765625 6.3171875,12.5546875 6.3109375,12.53125 C6.303125,12.496875 6.2921875,12.4640625 6.278125,12.4328125 L6.3953125,12.44375 L6.8796875,12.4875 L7.8875,12.578125 L8.0359375,12.578125 L9.1,12.5703125 L9.5453125,12.5671875 L9.709375,12.565625 L9.7421875,12.565625 L9.74375,12.5609375 L9.74375,12.5609375 Z" id="路径" fill="#79C4FF"></path>
                    <path d="M7.946875,15.9984375 C7.6984375,15.996875 7.4484375,15.984375 7.2,15.959375 C6.696875,15.909375 6.1984375,15.8125 5.7140625,15.6671875 C5.5703125,15.625 5.428125,15.578125 5.2875,15.528125 C5.2234375,15.4703125 5.1578125,15.4140625 5.090625,15.359375 C5.0703125,15.3421875 5.0484375,15.325 5.0265625,15.309375 C5.0171875,15.3015625 5.0078125,15.29375 4.996875,15.2859375 C4.9890625,15.278125 4.9796875,15.271875 4.971875,15.265625 C4.84375,15.165625 4.7109375,15.0703125 4.575,14.98125 C4.5546875,14.96875 4.534375,14.9546875 4.5140625,14.9421875 C4.49375,14.9296875 4.4671875,14.9125 4.44375,14.8984375 L4.41875,14.8828125 C4.4328125,14.871875 4.4453125,14.8625 4.459375,14.853125 C4.465625,14.8484375 4.4703125,14.84375 4.475,14.840625 C4.5140625,14.8125 4.5515625,14.7828125 4.5890625,14.7546875 C4.6296875,14.721875 4.671875,14.690625 4.7109375,14.659375 C4.9390625,14.4796875 5.146875,14.3046875 5.3359375,14.1328125 C5.3953125,14.078125 5.4546875,14.0234375 5.5125,13.9671875 C5.5859375,13.8984375 5.6546875,13.8296875 5.721875,13.7625 C5.778125,13.7046875 5.8328125,13.646875 5.8875,13.5875 C5.9078125,13.565625 5.93125,13.54375 5.975,13.546875 C6.0046875,13.5515625 6.034375,13.559375 6.0625,13.571875 C6.284375,13.6625 6.4875,13.8109375 6.665625,13.9671875 C6.6765625,13.9765625 6.6859375,13.984375 6.6953125,13.99375 C6.9609375,14.23125 7.1953125,14.5015625 7.390625,14.7984375 C7.6390625,15.165625 7.8265625,15.571875 7.946875,15.9984375 L7.946875,15.9984375 Z" id="路径" fill="#E5EAF9"></path>
                    <path d="M7.46875,14.7984375 C7.6890625,15.2453125 7.8921875,15.65625 7.978125,15.9984375 L7.946875,15.9984375 C7.6984375,15.996875 7.4484375,15.984375 7.2,15.959375 C6.696875,15.909375 6.1984375,15.8125 5.7140625,15.6671875 C5.5609375,15.5125 5.4046875,15.3671875 5.24375,15.234375 C5.225,15.2171875 5.2046875,15.2 5.1828125,15.184375 C5.1625,15.1671875 5.140625,15.15 5.1203125,15.134375 C5.1,15.11875 5.075,15.0984375 5.0515625,15.08125 C4.9203125,14.978125 4.7890625,14.884375 4.6546875,14.796875 C4.634375,14.7828125 4.6125,14.76875 4.590625,14.75625 C4.5546875,14.7328125 4.5171875,14.709375 4.4796875,14.6875 C4.5921875,14.6046875 4.7,14.5234375 4.8046875,14.4421875 C4.9671875,14.315625 5.1171875,14.1921875 5.259375,14.071875 C5.3421875,14 5.425,13.928125 5.5046875,13.853125 C5.5671875,13.79375 5.628125,13.7375 5.684375,13.68125 C5.7640625,13.603125 5.8390625,13.5265625 5.909375,13.45 C5.9359375,13.415625 5.9640625,13.384375 5.9953125,13.3546875 C6.009375,13.3390625 6.028125,13.3296875 6.0484375,13.3265625 C6.075,13.328125 6.128125,13.315625 6.1578125,13.3265625 C6.190625,13.3390625 6.2265625,13.334375 6.2546875,13.3125 C6.2546875,13.3125 6.25625,13.3125 6.25625,13.3109375 C6.28125,13.2921875 6.3046875,13.2703125 6.3234375,13.24375 C6.3703125,13.1796875 6.4125,13.1109375 6.45,13.040625 C6.4921875,12.965625 6.5328125,12.8921875 6.5734375,12.84375 C6.5828125,12.83125 6.5921875,12.8203125 6.6046875,12.8109375 C6.6140625,12.8015625 6.6265625,12.79375 6.6390625,12.7890625 C6.6640625,12.778125 6.69375,12.784375 6.7125,12.803125 C6.7171875,12.8359375 6.7234375,12.8671875 6.7296875,12.9 L6.7296875,12.9015625 C6.734375,12.9234375 6.7390625,12.946875 6.74375,12.9703125 C6.775,13.11875 6.815625,13.2671875 6.8640625,13.4109375 C6.871875,13.4328125 6.878125,13.453125 6.8859375,13.4765625 C6.8875,13.484375 6.890625,13.490625 6.89375,13.4984375 C6.9,13.51875 6.9078125,13.5390625 6.915625,13.559375 C7.06875,13.984375 7.2765625,14.40625 7.4703125,14.8 L7.46875,14.7984375 L7.46875,14.7984375 Z" id="路径" fill="#F3F7FF"></path>
                    <path d="M7.1390625,13.15625 C6.73125,13.4203125 7.1078125,13.2984375 6.7671875,13.64375 C6.515625,13.1921875 5.1546875,13.4421875 4.7578125,13.1546875 C6.3828125,11.415625 5.8921875,12.7578125 7.1390625,13.15625 L7.1390625,13.15625 Z" id="路径" fill="#E5EAF9"></path>
                    <path d="M7.10625,13.075 C6.6984375,13.3390625 7.075,13.2171875 6.734375,13.5625 C6.484375,13.109375 5.1234375,13.3609375 4.7265625,13.071875 C6.35,11.334375 5.859375,12.6765625 7.10625,13.075 L7.10625,13.075 Z" id="路径" fill="#F3F7FF"></path>
                    <path d="M11.5625,14.9625 C11.3109375,15.115625 11.0703125,15.2875 10.8453125,15.4765625 C10.690625,15.5359375 10.534375,15.590625 10.3765625,15.6390625 C9.86875,15.796875 9.3453125,15.9046875 8.815625,15.9578125 C8.565625,15.9828125 8.3140625,15.996875 8.0609375,15.9984375 C8.190625,15.5671875 8.3875,15.159375 8.64375,14.790625 C8.8359375,14.5140625 9.0609375,14.2625 9.3140625,14.040625 C9.325,14.03125 9.334375,14.0234375 9.3453125,14.0140625 C9.515625,13.8671875 9.709375,13.73125 9.915625,13.646875 C9.94375,13.634375 9.971875,13.625 10.003125,13.621875 C10.0484375,13.61875 10.071875,13.6421875 10.090625,13.6625 C10.24375,13.83125 10.4171875,14.003125 10.6109375,14.18125 C10.840625,14.3921875 11.1,14.609375 11.3890625,14.834375 C11.446875,14.8765625 11.5046875,14.91875 11.5625,14.9625 Z" id="路径" fill="#E5EAF9"></path>
                    <path d="M11.503125,14.7640625 C11.465625,14.7859375 11.4296875,14.809375 11.3921875,14.834375 C11.0265625,15.06875 10.6859375,15.3390625 10.375,15.640625 C9.8671875,15.7984375 9.34375,15.90625 8.8140625,15.959375 C8.5640625,15.984375 8.3125,15.9984375 8.059375,16 L8.0265625,16 C8.1265625,15.653125 8.334375,15.2421875 8.5515625,14.8 C8.7265625,14.4453125 8.909375,14.06875 9.05,13.6890625 C9.0640625,13.6515625 9.078125,13.6140625 9.090625,13.5765625 C9.1015625,13.546875 9.1109375,13.5171875 9.1203125,13.4890625 C9.16875,13.3453125 9.2078125,13.1984375 9.240625,13.0484375 C9.246875,13.025 9.25,13.003125 9.2546875,12.9796875 C9.25625,12.965625 9.259375,12.953125 9.2609375,12.940625 C9.2640625,12.921875 9.2671875,12.9015625 9.2703125,12.8828125 C9.284375,12.86875 9.3046875,12.8609375 9.325,12.8640625 C9.3453125,12.8671875 9.3640625,12.8765625 9.378125,12.8921875 C9.3890625,12.9015625 9.4,12.9109375 9.4078125,12.9234375 C9.4609375,12.9875 9.515625,13.0953125 9.571875,13.1921875 C9.5875,13.21875 9.6015625,13.24375 9.61875,13.2671875 C9.646875,13.315625 9.6828125,13.35625 9.7265625,13.390625 C9.7546875,13.4140625 9.7921875,13.4203125 9.825,13.40625 C9.853125,13.39375 9.9078125,13.4078125 9.934375,13.40625 C9.95,13.4046875 9.96875,13.4171875 9.9875,13.4328125 C10.01875,13.4625 10.046875,13.4953125 10.0734375,13.528125 C10.2703125,13.7375 10.4765625,13.9359375 10.69375,14.1234375 C10.9328125,14.33125 11.2015625,14.54375 11.503125,14.7640625 L11.503125,14.7640625 Z" id="路径" fill="#F3F7FF"></path>
                    <path d="M8.84375,13.2359375 C9.2515625,13.5 8.875,13.378125 9.215625,13.7234375 C9.4671875,13.271875 10.828125,13.521875 11.225,13.2328125 C9.6,11.4953125 10.090625,12.8375 8.84375,13.2359375 L8.84375,13.2359375 Z" id="路径" fill="#E5EAF9"></path>
                    <path d="M8.875,13.1546875 C9.2828125,13.41875 8.90625,13.296875 9.246875,13.6421875 C9.4984375,13.190625 10.859375,13.440625 11.25625,13.1515625 C9.6328125,11.4140625 10.1234375,12.75625 8.875,13.1546875 L8.875,13.1546875 Z" id="路径" fill="#F3F7FF"></path>
                    <polygon id="路径" fill="#8FA5B0" points="7.0140625 11.9578125 5.7484375 12.3828125 6.6734375 13.7640625 8.0484375 12.58125 7.0140625 11.9578125"></polygon>
                    <polygon id="路径" fill="#64C4F4" points="6.8953125 11.8078125 5.590625 12.26875 6.54375 13.7640625 8.0125 12.515625 6.8953125 11.8078125"></polygon>
                    <polygon id="路径" fill="#64C4F4" points="9.128125 11.8078125 10.3921875 12.26875 9.18125 13.8296875 7.96875 12.515625"></polygon>
                    <path d="M7.8578125,12.7859375 C7.8578125,12.8703125 7.9700574,12.9390625 8.1078125,12.9390625 C8.2455676,12.9390625 8.3578125,12.8703125 8.3578125,12.7859375 C8.3578125,12.7015625 8.2455676,12.6328125 8.1078125,12.6328125 C7.9700574,12.6328125 7.8578125,12.7015625 7.8578125,12.7859375 L7.8578125,12.7859375 Z M7.8578125,13.8953125 C7.8578125,13.9796875 7.9700574,14.0484375 8.1078125,14.0484375 C8.2455676,14.0484375 8.3578125,13.9796875 8.3578125,13.8953125 C8.3578125,13.8109375 8.2455676,13.7421875 8.1078125,13.7421875 C7.9700574,13.74375 7.8578125,13.8109375 7.8578125,13.8953125 L7.8578125,13.8953125 Z M7.8578125,15.1640625 C7.8578125,15.2484375 7.9700574,15.3171875 8.1078125,15.3171875 C8.2455676,15.3171875 8.3578125,15.2484375 8.3578125,15.1640625 C8.3578125,15.0796875 8.2455676,15.0109375 8.1078125,15.0109375 C7.9700574,15.0125 7.8578125,15.0796875 7.8578125,15.1640625 L7.8578125,15.1640625 Z" id="形状" fill="#FFFDF8"></path>
                    <path d="M5.30625,13.5109375 L5.5234375,13.609375 C6.0015625,12.546875 6.4078125,12.034375 6.8953125,11.790625 L6.8953125,11.525 C6.40625,11.765625 5.846875,12.309375 5.30625,13.5109375 Z M9.1046875,11.475 L9.1046875,11.740625 C9.575,11.95 9.934375,12.4546875 10.434375,13.6890625 L10.6484375,13.6 C10.0796875,12.19375 9.665625,11.6734375 9.1046875,11.475 L9.1046875,11.475 Z" id="形状" fill="#5A7C88"></path>
                    <path d="M4.44375,15.165625 C4.41875,15.1546875 4.3953125,15.1421875 4.371875,15.1296875 C4.3828125,15.096875 4.3921875,15.065625 4.403125,15.0328125 C4.4109375,15.0078125 4.41875,14.9859375 4.4265625,14.9625 C4.434375,14.9390625 4.440625,14.91875 4.446875,14.8984375 C4.453125,14.8828125 4.4578125,14.8671875 4.4625,14.853125 C4.4640625,14.846875 4.465625,14.8421875 4.4671875,14.8375 L4.478125,14.840625 L4.54375,14.8609375 C4.534375,14.8875 4.5265625,14.9140625 4.5171875,14.9421875 C4.5125,14.95625 4.5078125,14.971875 4.503125,14.9875 C4.4953125,15.0125 4.4859375,15.0375 4.478125,15.065625 C4.465625,15.0984375 4.4546875,15.13125 4.44375,15.165625 Z M5.2015625,15.1484375 C5.1953125,15.159375 5.1890625,15.171875 5.1828125,15.184375 C5.1671875,15.2109375 5.153125,15.2390625 5.140625,15.265625 C5.1296875,15.2875 5.1171875,15.3078125 5.1046875,15.33125 C5.1,15.340625 5.09375,15.35 5.0890625,15.359375 C5.075,15.384375 5.0609375,15.409375 5.046875,15.4359375 C5.021875,15.4265625 4.996875,15.4171875 4.971875,15.40625 C4.9890625,15.3734375 5.0078125,15.340625 5.025,15.309375 L5.0296875,15.3 C5.0421875,15.275 5.0546875,15.2515625 5.0671875,15.228125 C5.084375,15.19375 5.103125,15.1625 5.1171875,15.1328125 C5.121875,15.125 5.125,15.1171875 5.1296875,15.1109375 L5.2015625,15.1484375 L5.2015625,15.1484375 Z" id="形状" fill="#879BA0"></path>
                    <path d="M5.1875,15.365625 L4.96875,15.2734375 L5.4984375,14.01875 C5.55,13.8984375 5.4953125,13.7578125 5.375,13.70625 C5.2546875,13.6546875 5.1140625,13.709375 5.0625,13.8296875 C5.0625,13.83125 5.0609375,13.8328125 5.0609375,13.834375 L4.53125,15.0890625 L4.3125,14.996875 L4.8421875,13.7421875 C4.9359375,13.496875 5.209375,13.3734375 5.45625,13.465625 C5.7015625,13.5578125 5.8265625,13.8328125 5.7328125,14.078125 C5.728125,14.0890625 5.7234375,14.1 5.71875,14.1125 L5.1875,15.365625 L5.1875,15.365625 Z" id="路径" fill="#5A7C88"></path>
                    <path d="M8.6,3.3765625 C8.746875,2.83125 9.2921875,2.5140625 9.83125,2.5546875 C10.3703125,2.5953125 10.8859375,2.9421875 11.26875,3.3890625 C11.390625,3.528125 11.49375,3.68125 11.5765625,3.8453125 C11.8421875,4.39375 11.8046875,6.2828125 11.5765625,6.8046875 L8.6,3.3765625 Z" id="路径" fill="#332115"></path>
                    <path d="M8.628125,2.3234375 C8.9375,2.56875 9.2234375,3.00625 9.0703125,3.4 C8.7046875,3.9328125 8.015625,3.9046875 7.4421875,4.0609375 C6.99375,4.184375 6.5828125,4.4453125 6.134375,4.5703125 C5.609375,4.71875 5.03125,4.6671875 4.5609375,4.3625 C4.090625,4.05625 3.7421875,3.48125 3.7203125,2.859375 C3.9390625,2.978125 4.165625,3.1 4.4078125,3.096875 C4.7359375,3.0921875 5.0234375,2.8609375 5.309375,2.671875 C5.60625,2.4765625 5.921875,2.321875 6.2359375,2.1671875 C6.478125,2.0484375 6.7234375,1.928125 6.98125,1.871875 C7.55,1.746875 8.15,1.94375 8.628125,2.321875 L8.628125,2.3234375 Z" id="路径" fill="#332115"></path>
                    <path d="M11.6859375,6.146875 C11.6796875,5.9640625 11.6609375,5.7953125 11.6609375,5.7125 C11.653125,5.1015625 11.4625,4.5671875 11.0984375,4.0765625 C10.465625,3.2234375 9.5109375,2.7046875 8.440625,2.7046875 L7.59375,2.7046875 C6.6390625,2.7046875 5.7296875,3.14375 5.0890625,3.8453125 C4.7015625,4.2734375 4.434375,4.7984375 4.31875,5.3640625 C4.259375,5.653125 4.2359375,5.95 4.25,6.2453125 C4.2609375,6.478125 4.2140625,6.9234375 4.5078125,6.7546875 C4.690625,6.6515625 4.871875,6.275 5.0265625,6.1140625 C5.2234375,5.9078125 5.44375,5.725 5.68125,5.56875 C6.1578125,5.2578125 6.7078125,5.0796875 7.2765625,5.053125 C8.190625,5.0109375 9.0578125,5.346875 9.84375,5.7875 C10.2921875,6.0375 10.7046875,6.1765625 11.01875,6.5953125 C11.096875,6.7 11.1765625,6.8171875 11.3,6.8609375 C11.659375,6.990625 11.6984375,6.534375 11.6859375,6.146875 L11.6859375,6.146875 Z" id="路径" fill="#332115"></path>
                    <path d="M4.2859375,5.9796875 C4.3203125,5.8890625 4.3890625,5.8140625 4.4625,5.7515625 C4.7203125,5.5328125 5.0515625,5.4234375 5.3890625,5.4453125 C5.0578125,5.7890625 4.7359375,6.1953125 4.7140625,6.6734375 C4.7,6.9859375 4.8171875,7.315625 4.69375,7.603125 C4.4640625,7.2 4.3171875,6.7546875 4.265625,6.29375 C4.2546875,6.1890625 4.2484375,6.0796875 4.2859375,5.9796875 L4.2859375,5.9796875 Z M11.6234375,5.9796875 C11.5890625,5.8890625 11.5203125,5.8140625 11.446875,5.7515625 C11.1890625,5.5328125 10.8578125,5.4234375 10.5203125,5.4453125 C10.8515625,5.7890625 11.1734375,6.1953125 11.1953125,6.6734375 C11.209375,6.9859375 11.0921875,7.315625 11.215625,7.603125 C11.446875,7.2 11.5921875,6.7546875 11.64375,6.29375 C11.6546875,6.1890625 11.6609375,6.0796875 11.6234375,5.9796875 L11.6234375,5.9796875 Z" id="形状" fill="#332115"></path>
                    <path d="M9.0859375,10.8484375 L9.0859375,11.1671875 C8.4515625,11.5140625 7.653125,11.4578125 6.85625,11.178125 L6.85625,10.8328125 C6.9453125,10.834375 6.8875,10.8375 6.8921875,10.8390625 C7.2421875,10.9953125 7.61875,11.0765625 8.0015625,11.078125 C8.375,11.0765625 8.7453125,10.9984375 9.0859375,10.8484375 L9.0859375,10.8484375 Z" id="路径" fill="#F4C7A8"></path>
                </g>
            </g>
        </g>
    </g>
</svg>