<?xml version="1.0" encoding="UTF-8"?>
<svg width="16px" height="16px" viewBox="0 0 16 16" version="1.1" xmlns="http://www.w3.org/2000/svg" xmlns:xlink="http://www.w3.org/1999/xlink">
    <title>15-图标/6标签/word</title>
    <g id="平台icon231127" stroke="none" stroke-width="1" fill="none" fill-rule="evenodd">
        <g id="平台icon231128" transform="translate(-232, -472)">
            <g id="15-图标/6标签/word" transform="translate(232, 472)">
                <rect id="_mockplus_fix_" x="0" y="0" width="16" height="16"></rect>
                <rect id="_mockplus_fix_" x="0" y="0" width="16" height="16"></rect>
                <g id="word" transform="translate(0.5688, 0)" fill-rule="nonzero">
                    <polygon id="路径" fill="#819292" points="11.2984375 0 2.259375 0 2.259375 4.4984375 3.490625 4.4984375 3.490625 1.2296875 10.28125 1.2296875 10.28125 4.5859375 13.63125 4.5859375 13.63125 14.7703125 3.490625 14.7703125 3.490625 10.9890625 2.259375 10.9890625 2.259375 16 14.8625 16 14.8625 3.4359375"></polygon>
                    <path d="M10.078125,6.33125 L12.39375,6.33125 L12.39375,7.5296875 L10.078125,7.5296875 L10.078125,6.33125 Z M10.078125,9.190625 L12.39375,9.190625 L12.39375,10.3890625 L10.078125,10.3890625 L10.078125,9.190625 Z M10.078125,12.05 L12.39375,12.05 L12.39375,13.2484375 L10.078125,13.2484375 L10.078125,12.05 Z" id="形状" fill="#819292"></path>
                    <polygon id="路径" fill="#287CB0" points="3.49375 13.2640625 8.75 13.2640625 8.75 6.159375 7.51875 6.159375 7.51875 12.034375 3.49375 12.034375 3.49375 13.2640625"></polygon>
                    <path d="M6.4984375,10.9890625 L6.4984375,4.4984375 L0,4.4984375 L0,10.9890625 L6.4984375,10.9890625 Z M2.2015625,10.0359375 L2.1953125,10.0296875 L2.1953125,10.0421875 L1.1171875,10.0421875 L1.1171875,5.44375 L2.19375,5.44375 L2.19375,8.303125 L3.2375,7.2609375 L3.2421875,7.265625 L3.2625,7.2453125 L4.303125,8.284375 L4.303125,5.44375 L5.3796875,5.44375 L5.3796875,10.028125 L4.303125,10.028125 L4.303125,10.0171875 L4.3,10.0203125 L3.2578125,8.9796875 L2.2015625,10.0359375 L2.2015625,10.0359375 Z" id="形状" fill="#287CB0"></path>
                    <polygon id="路径" fill="#FFFFFF" points="4.3 10.0203125 4.303125 10.0171875 4.303125 10.028125 5.3796875 10.028125 5.3796875 5.44375 4.303125 5.44375 4.303125 8.284375 3.2625 7.2453125 3.24375 7.265625 3.2390625 7.2609375 2.1953125 8.303125 2.1953125 5.44375 1.11875 5.44375 1.11875 10.0421875 2.1953125 10.0421875 2.1953125 10.0296875 2.2015625 10.0359375 3.259375 8.9796875 4.3 10.0203125"></polygon>
                </g>
            </g>
        </g>
    </g>
</svg>