<?xml version="1.0" encoding="UTF-8"?>
<svg width="16px" height="16px" viewBox="0 0 16 16" version="1.1" xmlns="http://www.w3.org/2000/svg" xmlns:xlink="http://www.w3.org/1999/xlink">
    <title>15-图标/6标签/png</title>
    <g id="平台icon231127" stroke="none" stroke-width="1" fill="none" fill-rule="evenodd">
        <g id="平台icon231128" transform="translate(-424, -472)">
            <g id="15-图标/6标签/png" transform="translate(424, 472)">
                <rect id="_mockplus_fix_" x="0" y="0" width="16" height="16"></rect>
                <rect id="_mockplus_fix_" x="0" y="0" width="16" height="16"></rect>
                <g id="png" transform="translate(0.5625, 0)" fill-rule="nonzero">
                    <polygon id="路径" fill="#819292" points="11.31875 0 2.2515625 0 2.2515625 4.503125 3.496875 4.503125 3.496875 1.184375 10.3109375 1.184375 10.3109375 4.5625 13.6890625 4.5625 13.6890625 14.7546875 3.496875 14.7546875 3.496875 10.9625 2.2515625 10.9625 2.2515625 16 14.875 16 14.875 3.5546875"></polygon>
                    <path d="M10.075,6.340625 L12.3859375,6.340625 L12.3859375,7.5265625 L10.075,7.5265625 L10.075,6.340625 L10.075,6.340625 Z M10.075,9.24375 L12.3859375,9.24375 L12.3859375,10.4296875 L10.075,10.4296875 L10.075,9.24375 Z M10.075,12.0296875 L12.3859375,12.0296875 L12.3859375,13.215625 L10.075,13.215625 L10.075,12.0296875 Z" id="形状" fill="#819292"></path>
                    <polygon id="路径" fill="#16CFD8" points="3.496875 13.2140625 8.7703125 13.2140625 8.7703125 6.1046875 7.5265625 6.1046875 7.5265625 11.9703125 3.496875 11.9703125"></polygon>
                    <path d="M6.51875,11.021875 L6.51875,4.503125 L0,4.503125 L0,11.021875 L6.51875,11.021875 Z M2.19375,10.0140625 L1.1265625,10.0140625 L1.1265625,5.3921875 L2.19375,5.3921875 L2.19375,8.296875 L3.2609375,7.2296875 L4.3265625,8.296875 L4.3265625,5.453125 L5.39375,5.453125 L5.39375,10.015625 L4.3265625,10.015625 L3.2609375,8.9484375 L2.19375,10.0140625 L2.19375,10.0140625 Z" id="形状" fill="#51B9ED"></path>
                    <polygon id="路径" fill="#16CFD8" points="0 4.44375 6.51875 4.44375 6.51875 11.021875 0 11.021875"></polygon>
                    <path d="M2.8453125,5.6890625 L3.734375,5.6890625 L3.734375,6.578125 L2.8453125,6.578125 L2.8453125,5.6890625 Z M3.734375,6.51875 L4.6234375,6.51875 L4.6234375,7.4078125 L3.734375,7.4078125 L3.734375,6.51875 Z M2.8453125,7.4671875 L3.734375,7.4671875 L3.734375,8.35625 L2.8453125,8.35625 L2.8453125,7.4671875 L2.8453125,7.4671875 Z M4.6234375,5.6890625 L5.5125,5.6890625 L5.5125,6.578125 L4.6234375,6.578125 L4.6234375,5.6890625 Z M4.6234375,7.4671875 L5.5125,7.4671875 L5.5125,8.35625 L4.6234375,8.35625 L4.6234375,7.4671875 L4.6234375,7.4671875 Z M1.0671875,5.6890625 L1.95625,5.6890625 L1.95625,6.578125 L1.0671875,6.578125 L1.0671875,5.6890625 L1.0671875,5.6890625 Z M2.8453125,9.1265625 L3.734375,9.1265625 L3.734375,10.015625 L2.8453125,10.015625 L2.8453125,9.1265625 Z M4.6234375,9.1265625 L5.5125,9.1265625 L5.5125,10.015625 L4.6234375,10.015625 L4.6234375,9.1265625 Z M1.0671875,9.1265625 L1.95625,9.1265625 L1.95625,10.015625 L1.0671875,10.015625 L1.0671875,9.1265625 Z M1.95625,6.51875 L2.8453125,6.51875 L2.8453125,7.4078125 L1.95625,7.4078125 L1.95625,6.51875 Z M3.734375,8.2375 L4.6234375,8.2375 L4.6234375,9.1265625 L3.734375,9.1265625 L3.734375,8.2375 Z M1.95625,8.2375 L2.8453125,8.2375 L2.8453125,9.1265625 L1.95625,9.1265625 L1.95625,8.2375 Z M1.0671875,7.4671875 L1.95625,7.4671875 L1.95625,8.35625 L1.0671875,8.35625 L1.0671875,7.4671875 L1.0671875,7.4671875 Z" id="形状" fill="#FFFFFF"></path>
                </g>
            </g>
        </g>
    </g>
</svg>