<?xml version="1.0" encoding="UTF-8"?>
<svg width="16px" height="16px" viewBox="0 0 16 16" version="1.1" xmlns="http://www.w3.org/2000/svg" xmlns:xlink="http://www.w3.org/1999/xlink">
    <title>15-图标/6标签/jpeg</title>
    <g id="平台icon231127" stroke="none" stroke-width="1" fill="none" fill-rule="evenodd">
        <g id="平台icon231128" transform="translate(-40, -472)">
            <g id="15-图标/6标签/jpeg" transform="translate(40, 472)">
                <rect id="_mockplus_fix_" x="0" y="0" width="16" height="16"></rect>
                <rect id="_mockplus_fix_" x="0" y="0" width="16" height="16"></rect>
                <g id="jpeg" transform="translate(1.6625, 0)" fill-rule="nonzero">
                    <path d="M0.528125,0.00625 C0.2375,0.00625 0,0.2671875 0,0.5875 L0,15.4171875 C0,15.7375 0.2375,15.9984375 0.528125,15.9984375 L12.146875,15.9984375 C12.4375,15.9984375 12.675,15.7375 12.675,15.4171875 L12.675,3.4953125 L9.50625,0.0078125 L0.528125,0.00625 Z" id="路径" fill="#30A6E5"></path>
                    <path d="M9.4953125,0 L9.4953125,2.9078125 C9.4953125,3.228125 9.7328125,3.4890625 10.0234375,3.4890625 L12.6640625,3.4890625 L9.4953125,0 Z" id="路径" fill="#86DDFF"></path>
                    <path d="M3.953125,5.6703125 C3.953125,6.028125 4.1265625,6.359375 4.4078125,6.5375 C4.684375,6.7171875 5.040625,6.7171875 5.3171875,6.5375 C5.5984375,6.3578125 5.771875,6.028125 5.771875,5.6703125 C5.771875,5.3125 5.5984375,4.98125 5.3171875,4.803125 C5.04069137,4.62343776 4.68430863,4.62343776 4.4078125,4.803125 C4.1265625,4.98125 3.953125,5.3125 3.953125,5.6703125 L3.953125,5.6703125 Z M8.0640625,6.4296875 L6.8421875,8.9875 C6.7796875,9.1140625 6.63125,9.15625 6.521875,9.0734375 L4.6546875,7.6484375 C4.5515625,7.571875 4.4109375,7.603125 4.3453125,7.71875 L2.490625,10.96875 C2.3859375,11.153125 2.5046875,11.39375 2.703125,11.39375 L10.5046875,11.39375 C10.696875,11.39375 10.81875,11.1671875 10.725,10.9828125 L8.45,6.425 C8.365625,6.25625 8.1453125,6.259375 8.0640625,6.4296875 Z" id="形状" fill="#FFFFFF"></path>
                </g>
            </g>
        </g>
    </g>
</svg>