<?xml version="1.0" encoding="UTF-8"?>
<svg width="16px" height="16px" viewBox="0 0 16 16" version="1.1" xmlns="http://www.w3.org/2000/svg" xmlns:xlink="http://www.w3.org/1999/xlink">
    <title>15-图标/6标签/txt</title>
    <g id="平台icon231127" stroke="none" stroke-width="1" fill="none" fill-rule="evenodd">
        <g id="平台icon231128" transform="translate(-280, -472)">
            <g id="15-图标/6标签/txt" transform="translate(280, 472)">
                <rect id="_mockplus_fix_" x="0" y="0" width="16" height="16"></rect>
                <rect id="_mockplus_fix_" x="0" y="0" width="16" height="16"></rect>
                <g id="txt" transform="translate(0.5609, 0)" fill-rule="nonzero">
                    <polygon id="路径" fill="#819292" points="11.2765625 0 2.303125 0 2.303125 4.4875 3.54375 4.4875 3.54375 1.240625 10.3328125 1.240625 10.3328125 4.60625 13.6984375 4.60625 13.6984375 14.7609375 3.5421875 14.7609375 3.5421875 10.98125 2.3015625 10.98125 2.3015625 16 14.8765625 16 14.8765625 3.4828125"></polygon>
                    <path d="M10.0953125,6.3171875 L12.3984375,6.3171875 L12.3984375,7.4984375 L10.0953125,7.4984375 L10.0953125,6.3171875 L10.0953125,6.3171875 Z M10.0953125,9.2109375 L12.3984375,9.2109375 L12.3984375,10.3921875 L10.0953125,10.3921875 L10.0953125,9.2109375 Z M10.0953125,12.04375 L12.3984375,12.04375 L12.3984375,13.225 L10.0953125,13.225 L10.0953125,12.04375 Z" id="形状" fill="#819292"></path>
                    <polygon id="路径" fill="#06AEA6" points="3.5421875 13.225 8.796875 13.225 8.796875 6.140625 7.55625 6.140625 7.55625 11.9859375 3.5421875 11.9859375"></polygon>
                    <path d="M6.49375,10.98125 L6.49375,4.4875 L0,4.4875 L0,10.98125 L6.49375,10.98125 Z M2.24375,10.0375 L1.18125,10.0375 L1.18125,5.43125 L2.24375,5.43125 L2.24375,8.325 L3.30625,7.2625 L4.36875,8.325 L4.36875,5.490625 L5.43125,5.490625 L5.43125,10.0359375 L4.36875,10.0359375 L3.30625,8.9734375 L2.24375,10.0375 Z" id="形状" fill="#51B9ED"></path>
                    <polygon id="路径" fill="#06AEA6" points="0 4.4875 6.4953125 4.4875 6.4953125 10.9828125 0 10.9828125"></polygon>
                    <polygon id="路径" fill="#FFFFFF" points="5.2546875 6.6609375 3.7625 6.6609375 3.7625 10.2734375 2.6453125 10.2734375 2.6453125 6.6609375 1.121875 6.6609375 1.121875 5.4921875 5.2546875 5.4921875"></polygon>
                </g>
            </g>
        </g>
    </g>
</svg>