<?xml version="1.0" encoding="UTF-8"?>
<svg width="16px" height="16px" viewBox="0 0 16 16" version="1.1" xmlns="http://www.w3.org/2000/svg" xmlns:xlink="http://www.w3.org/1999/xlink">
    <title>15-图标/6标签/rar</title>
    <g id="平台icon231127" stroke="none" stroke-width="1" fill="none" fill-rule="evenodd">
        <g id="平台icon231128" transform="translate(-568, -472)">
            <g id="15-图标/6标签/rar" transform="translate(568, 472)">
                <rect id="_mockplus_fix_" x="0" y="0" width="16" height="16"></rect>
                <rect id="_mockplus_fix_" x="0" y="0" width="16" height="16"></rect>
                <g id="rar" transform="translate(0.5, 0)" fill-rule="nonzero">
                    <polygon id="路径" fill="#819292" points="11.3186719 0 2.25167188 0 2.25167188 4.503 3.497 4.503 3.497 1.18432812 10.311 1.18432812 10.311 4.56267187 13.689 4.56267187 13.689 14.7546719 3.497 14.7546719 3.497 10.9626563 2.25167188 10.9626563 2.25167188 16 14.875 16 14.875 3.55467187"></polygon>
                    <path d="M10.075,6.34067187 L12.386,6.34067187 L12.386,7.52667187 L10.075,7.52667187 L10.075,6.34067187 Z M10.075,9.244 L12.386,9.244 L12.386,10.4296719 L10.075,10.4296719 L10.075,9.24367187 L10.075,9.244 Z M10.075,12.0296719 L12.386,12.0296719 L12.386,13.2156719 L10.075,13.2156719 L10.075,12.0296719 Z" id="形状" fill="#819292"></path>
                    <polygon id="路径" fill="#213A8A" points="3.497 13.214 8.77032813 13.214 8.77032813 6.10467188 7.52667188 6.10467188 7.52667188 11.9703125 3.497 11.9703125"></polygon>
                    <path d="M6.39667188,4.475 L6.39667188,11.005 L0,11.005 L0,4.462 L3.24667187,4.462 L3.24667187,4.94667187 L2.76265625,4.94667187 L2.76265625,5.431 L3.2473125,5.431 L3.2473125,5.91532812 L2.7623125,5.91532812 L2.7623125,6.4 L3.24698437,6.4 L3.24698437,6.88432812 L2.7623125,6.88432812 L2.7623125,7.36867187 L3.24698437,7.36867187 L3.24698437,7.853 L2.7623125,7.853 L2.7623125,8.33732812 L3.24698437,8.33732812 L3.24698437,7.85332812 L3.7313125,7.85332812 L3.7313125,7.369 L3.24665625,7.369 L3.24665625,6.88467187 L3.73098438,6.88467187 L3.73098438,6.4 L3.24665625,6.4 L3.24665625,5.91567187 L3.73098438,5.91567187 L3.73098438,5.43132812 L3.24665625,5.43132812 L3.24665625,4.94667187 L3.73098438,4.94667187 L3.73098438,4.47467187 L6.39667188,4.47467187 L6.39667188,4.475 Z M2.105,10.5 L2.105,10.4993281 L2.33332812,10.4993281 L2.017,9.84367187 C2.10854137,9.81324358 2.18390961,9.74712733 2.226,9.66032812 C2.25932813,9.59467187 2.276,9.519 2.276,9.433 C2.276,9.347 2.25865625,9.27132812 2.226,9.20534375 C2.19519358,9.14227233 2.14665247,9.08956078 2.08632813,9.05367187 C2.0229808,9.01706636 1.95081974,8.99850464 1.87767187,9 L1.33332812,9 L1.33332812,10.5 L1.526,10.5 L1.526,9.866 L1.812,9.866 L2.10465625,10.5 L2.105,10.5 Z M2.08367187,9.49967187 C2.08367187,9.54967187 2.07632812,9.59267187 2.06267187,9.63167187 C2.05110649,9.66584887 2.03034656,9.69617782 2.00267187,9.71932812 C1.97754473,9.73971724 1.94602544,9.75057966 1.91367187,9.75 L1.58367187,9.75 L1.58367187,9.25 L1.91367187,9.25 C1.948,9.25 1.977,9.26 2.003,9.28067187 C2.02832812,9.30067187 2.04832812,9.33067187 2.06267187,9.36832812 C2.07632812,9.40667187 2.08367187,9.45032812 2.08367187,9.49967187 L2.08367187,9.49967187 Z M3.56867188,10.5 L3.83367188,10.5 L3.18832812,9 L2.97832812,9 L2.33332812,10.5 L2.59832813,10.5 L2.73032813,10.1713281 L3.43632813,10.1713281 L3.56832813,10.5 L3.56867188,10.5 Z M2.83332812,10 L3.083,9.25 L3.33332812,10 L2.83332812,10 Z M4.77132812,10.5 L4.77132812,10.4993281 L5,10.4993281 L4.68367187,9.84367187 C4.77521324,9.81324358 4.85058149,9.74712733 4.89267187,9.66032812 C4.926,9.59467187 4.94267187,9.519 4.94267187,9.433 C4.94267187,9.347 4.92532812,9.27132812 4.89267187,9.20534375 C4.86186545,9.14227233 4.81332435,9.08956078 4.753,9.05367187 C4.68964811,9.01706359 4.61748127,8.99850177 4.54432812,9 L4,9 L4,10.5 L4.19265625,10.5 L4.19265625,9.866 L4.47867187,9.866 L4.77132813,10.5 L4.77132812,10.5 Z M4.75,9.49967187 C4.75,9.54967187 4.74332812,9.59267187 4.729,9.63167187 C4.71743461,9.66584887 4.69667469,9.69617782 4.669,9.71932812 C4.64387286,9.73971724 4.61235357,9.75057966 4.58,9.75 L4.25,9.75 L4.25,9.25 L4.58,9.25 C4.61432813,9.25 4.64332813,9.26 4.66932812,9.28067187 C4.69467188,9.30067187 4.71467187,9.33067187 4.729,9.36832812 C4.74267188,9.40667187 4.75,9.45032812 4.75,9.49967187 L4.75,9.49967187 Z" id="形状" fill="#213A8A"></path>
                </g>
            </g>
        </g>
    </g>
</svg>