<?xml version="1.0" encoding="UTF-8"?>
<svg width="16px" height="16px" viewBox="0 0 16 16" version="1.1" xmlns="http://www.w3.org/2000/svg" xmlns:xlink="http://www.w3.org/1999/xlink">
    <title>15-图标/6标签/pdf</title>
    <g id="平台icon231127" stroke="none" stroke-width="1" fill="none" fill-rule="evenodd">
        <g id="平台icon231128" transform="translate(-472, -472)">
            <g id="15-图标/6标签/pdf" transform="translate(472, 472)">
                <rect id="_mockplus_fix_" x="0" y="0" width="16" height="16"></rect>
                <rect id="_mockplus_fix_" x="0" y="0" width="16" height="16"></rect>
                <g id="pdf" transform="translate(0.5719, 0)" fill-rule="nonzero">
                    <polygon id="路径" fill="#DE5934" points="3.490625 13.2640625 8.7453125 13.2640625 8.7453125 6.159375 7.5140625 6.159375 7.5140625 12.034375 3.490625 12.034375 3.490625 13.2640625"></polygon>
                    <polygon id="路径" fill="#819292" points="11.29375 0 2.2578125 0 2.2578125 4.4984375 3.4890625 4.4984375 3.4890625 1.2296875 10.2765625 1.2296875 10.2765625 4.5859375 13.6265625 4.5859375 13.6265625 14.7703125 3.4890625 14.7703125 3.4890625 10.9890625 2.2578125 10.9890625 2.2578125 16 14.85625 16 14.85625 3.4359375"></polygon>
                    <path d="M10.0734375,6.33125 L12.3890625,6.33125 L12.3890625,7.5296875 L10.0734375,7.5296875 L10.0734375,6.33125 Z M10.0734375,9.190625 L12.3890625,9.190625 L12.3890625,10.3890625 L10.0734375,10.3890625 L10.0734375,9.190625 Z M10.0734375,12.05 L12.3890625,12.05 L12.3890625,13.25 L10.0734375,13.25 L10.0734375,12.05 Z" id="形状" fill="#819292"></path>
                    <path d="M0.9921875,9.8515625 C0.990625,9.8671875 0.9890625,9.8921875 1.053125,9.928125 C1.0859375,9.946875 1.1234375,9.95625 1.1625,9.95625 C1.446875,9.95625 1.8921875,9.5296875 2.309375,8.884375 C1.503125,9.234375 1.0078125,9.6609375 0.9921875,9.8515625 L0.9921875,9.8515625 Z" id="路径" fill="#DE5934"></path>
                    <path d="M6.4953125,10.9890625 L6.4953125,4.4984375 L0,4.4984375 L0,10.9890625 L6.4953125,10.9890625 Z M1.1609375,10.2625016 C1.0703125,10.2625016 0.98125,10.240625 0.903125,10.196875 C0.696875,10.0828125 0.678125,9.915625 0.6859375,9.8265625 C0.725,9.35625 1.6515625,8.784375 2.5640625,8.4484375 C2.8109375,7.9921875 3.00625,7.5125 3.1203125,7.084375 C2.8921875,6.7515625 2.7125,6.4515625 2.6,6.2109375 C2.4421875,5.878125 2.4046875,5.653125 2.4828125,5.50625 C2.5140625,5.446875 2.59375,5.346875 2.7734375,5.346875 C2.83125,5.3484375 2.8875,5.35625 2.9421875,5.3703125 C3.153125,5.4234375 3.4234375,5.5796875 3.5125,6.0203125 C3.565625,6.2890625 3.546875,6.625 3.453125,7.025 C3.709375,7.3890625 4.0109375,7.775 4.3109375,8.1234375 C5.00625,8.1515625 5.4796875,8.434375 5.68125,8.9453125 L5.6859375,8.9546875 L5.6890625,8.965625 C5.7390625,9.1703125 5.7296875,9.3015625 5.6578125,9.3921875 C5.6109375,9.4515625 5.5390625,9.484375 5.4640625,9.4828125 C5.3671875,9.4828125 5.2140625,9.44375 4.86875,9.1421875 C4.6671875,8.965625 4.4265625,8.7203125 4.1703125,8.4296875 C3.7609375,8.434375 3.28125,8.528125 2.7765625,8.7015625 C2.534375,9.128125 1.83125,10.2640625 1.1609375,10.2625016 L1.1609375,10.2625016 Z" id="形状" fill="#DE5934"></path>
                    <path d="M5.409375,9.1546875 C5.40625,9.11875 5.4,9.08125 5.3921875,9.0453125 C5.2671875,8.7359375 5.0078125,8.5421875 4.621875,8.4640625 C5.0515625,8.9234375 5.3,9.103125 5.409375,9.1546875 L5.409375,9.1546875 Z M3.9125,8.13125 L3.896875,8.1140625 L3.903125,8.1140625 C3.7140625,7.8859375 3.53125,7.653125 3.35625,7.4140625 L3.3546875,7.4203125 L3.346875,7.4078125 C3.2484375,7.7125 3.128125,8.009375 2.9875,8.296875 L3.0015625,8.2921875 L2.9921875,8.3078125 C3.29375,8.2203125 3.6015625,8.1609375 3.9125,8.13125 Z M2.8671875,5.6671875 C2.8359375,5.659375 2.8046875,5.653125 2.7734375,5.653125 C2.7671875,5.653125 2.759375,5.653125 2.753125,5.6546875 C2.746875,5.68125 2.740625,5.790625 2.88125,6.084375 C2.9796875,6.2828125 3.0890625,6.4765625 3.209375,6.6625 C3.2703125,6.2421875 3.2484375,5.7640625 2.8671875,5.6671875 L2.8671875,5.6671875 Z" id="形状" fill="#DE5934"></path>
                    <path d="M4.1703125,8.4265625 C4.4265625,8.7171875 4.6671875,8.9625 4.86875,9.1390625 C5.2125,9.440625 5.3671875,9.4796875 5.4640625,9.4796875 C5.5390625,9.48125 5.6109375,9.4484375 5.6578125,9.3890625 C5.728125,9.3 5.7375,9.16875 5.6890625,8.9625 L5.6859375,8.9515625 L5.68125,8.9421875 C5.4796875,8.43125 5.0078125,8.1484375 4.3109375,8.1203125 C4.009375,7.771875 3.7078125,7.3859375 3.453125,7.021875 C3.5453125,6.6234375 3.565625,6.2859375 3.5125,6.01875 C3.4234375,5.578125 3.153125,5.4234375 2.9421875,5.36875 C2.8875,5.353125 2.8296875,5.3453125 2.7734375,5.3453125 C2.5921875,5.3453125 2.5140625,5.4453125 2.4828125,5.5046875 C2.4046875,5.6515625 2.4421875,5.8765625 2.6,6.209375 C2.7140625,6.45 2.89375,6.7515625 3.1203125,7.0828125 C3.00625,7.5125 2.809375,7.9921875 2.5640625,8.446875 C1.6515625,8.7828125 0.725,9.35625 0.6859375,9.825 C0.678125,9.9140625 0.696875,10.08125 0.903125,10.1953125 C0.9828125,10.2390625 1.0703125,10.2625 1.1609375,10.2609375 C1.83125,10.2609375 2.534375,9.125 2.7765625,8.696875 C3.28125,8.525 3.7625,8.43125 4.1703125,8.4265625 L4.1703125,8.4265625 Z M5.3921875,9.0453125 C5.4,9.08125 5.40625,9.1171875 5.409375,9.1546875 C5.3015625,9.103125 5.05,8.925 4.6203125,8.465625 C5.0078125,8.5421875 5.265625,8.7359375 5.3921875,9.0453125 Z M1.1609375,9.9546875 C1.1234375,9.9546875 1.0859375,9.9453125 1.0515625,9.9265625 C0.9875,9.890625 0.9890625,9.865625 0.990625,9.85 C1.00625,9.659375 1.503125,9.2328125 2.30625,8.88125 C1.8921875,9.5296875 1.4453125,9.9546875 1.1609375,9.9546875 L1.1609375,9.9546875 Z M2.88125,6.084375 C2.740625,5.790625 2.7484375,5.68125 2.753125,5.6546875 C2.759375,5.653125 2.7671875,5.653125 2.7734375,5.653125 C2.8046875,5.6546875 2.8359375,5.659375 2.8671875,5.6671875 C3.2484375,5.7640625 3.2703125,6.240625 3.209375,6.6609375 C3.0890625,6.4765625 2.9796875,6.284375 2.88125,6.084375 L2.88125,6.084375 Z M2.9875,8.296875 C3.128125,8.009375 3.2484375,7.7125 3.346875,7.4078125 L3.3546875,7.4203125 L3.35625,7.4140625 C3.53125,7.653125 3.7140625,7.8859375 3.903125,8.1140625 L3.896875,8.1140625 L3.9125,8.13125 C3.6015625,8.1609375 3.29375,8.2203125 2.99375,8.3078125 L3.003125,8.2921875 L2.9875,8.296875 L2.9875,8.296875 Z" id="形状" fill="#FFFFFF"></path>
                </g>
            </g>
        </g>
    </g>
</svg>