<?xml version="1.0" encoding="UTF-8"?>
<svg width="16px" height="16px" viewBox="0 0 16 16" version="1.1" xmlns="http://www.w3.org/2000/svg" xmlns:xlink="http://www.w3.org/1999/xlink">
    <title>15-图标/6标签/zip</title>
    <g id="平台icon231127" stroke="none" stroke-width="1" fill="none" fill-rule="evenodd">
        <g id="平台icon231128" transform="translate(-520, -472)">
            <g id="15-图标/6标签/zip" transform="translate(520, 472)">
                <rect id="_mockplus_fix_" x="0" y="0" width="16" height="16"></rect>
                <g id="zip1" transform="translate(0.5312, 0)" fill-rule="nonzero">
                    <polygon id="路径" fill="#819292" points="11.31875 0 2.2515625 0 2.2515625 4.503125 3.496875 4.503125 3.496875 1.184375 10.3109375 1.184375 10.3109375 4.5625 13.6890625 4.5625 13.6890625 14.7546875 3.496875 14.7546875 3.496875 10.9625 2.2515625 10.9625 2.2515625 16 14.875 16 14.875 3.5546875"></polygon>
                    <path d="M10.075,6.340625 L12.3859375,6.340625 L12.3859375,7.5265625 L10.075,7.5265625 L10.075,6.340625 L10.075,6.340625 Z M10.075,9.24375 L12.3859375,9.24375 L12.3859375,10.4296875 L10.075,10.4296875 L10.075,9.24375 Z M10.075,12.0296875 L12.3859375,12.0296875 L12.3859375,13.215625 L10.075,13.215625 L10.075,12.0296875 Z" id="形状" fill="#819292"></path>
                    <polygon id="路径" fill="#D88316" points="3.496875 13.2140625 8.7703125 13.2140625 8.7703125 6.1046875 7.5265625 6.1046875 7.5265625 11.9703125 3.496875 11.9703125"></polygon>
                    <path d="M6.396875,4.475 L3.73125,4.475 L3.73125,4.946875 L3.246875,4.946875 L3.246875,5.43125 L3.73125,5.43125 L3.73125,5.915625 L3.246875,5.915625 L3.246875,6.4 L3.73125,6.4 L3.73125,6.884375 L3.246875,6.884375 L3.246875,7.36875 L3.73125,7.36875 L3.73125,7.853125 L3.246875,7.853125 L3.246875,8.3375 L2.7625,8.3375 L2.7625,7.853125 L3.246875,7.853125 L3.246875,7.36875 L2.7625,7.36875 L2.7625,6.884375 L3.246875,6.884375 L3.246875,6.4 L2.7625,6.4 L2.7625,5.915625 L3.246875,5.915625 L3.246875,5.43125 L2.7625,5.43125 L2.7625,4.946875 L3.246875,4.946875 L3.246875,4.4625 L0,4.4625 L0,11.0046875 L6.396875,11.0046875 L6.396875,4.475 Z M2.653125,10.53125 L1.465625,10.53125 L1.465625,10.3375 L2.2171875,9.3921875 C2.265625,9.33125 2.3140625,9.2828125 2.35,9.234375 L1.5390625,9.234375 L1.5390625,9.040625 L2.6171875,9.040625 L2.6171875,9.234375 L1.79375,10.2515625 L1.7203125,10.3359375 L2.653125,10.3359375 L2.653125,10.53125 Z M3.2109375,10.53125 L2.9921875,10.53125 L2.9921875,9.040625 L3.2109375,9.040625 L3.2109375,10.53125 Z M4.6765625,9.8046875 C4.5921875,9.8890625 4.446875,9.9375 4.240625,9.9375 L3.8765625,9.9375 L3.8765625,10.53125 L3.6578125,10.53125 L3.6578125,9.040625 L4.2265625,9.040625 C4.3234375,9.040625 4.396875,9.040625 4.45625,9.053125 C4.5296875,9.065625 4.5890625,9.0890625 4.6375,9.1265625 C4.6859375,9.1625 4.734375,9.2109375 4.759375,9.271875 C4.7953125,9.3328125 4.8078125,9.4046875 4.8078125,9.478125 C4.796875,9.5984375 4.7609375,9.7203125 4.6765625,9.8046875 L4.6765625,9.8046875 Z" id="形状" fill="#D88316"></path>
                    <path d="M4.353125,9.2703125 C4.315625,9.259375 4.2515625,9.259375 4.1625,9.259375 L3.7796875,9.259375 L3.7796875,9.6953125 L4.1625,9.6953125 C4.290625,9.6953125 4.3796875,9.675 4.4296875,9.6328125 C4.48125,9.590625 4.50625,9.5390625 4.50625,9.4671875 C4.50625,9.415625 4.49375,9.3734375 4.4546875,9.3328125 C4.4421875,9.3015625 4.4046875,9.2796875 4.353125,9.2703125 L4.353125,9.2703125 Z" id="路径" fill="#D88316"></path>
                </g>
            </g>
        </g>
    </g>
</svg>