<?xml version="1.0" encoding="UTF-8"?>
<svg width="16px" height="16px" viewBox="0 0 16 16" version="1.1" xmlns="http://www.w3.org/2000/svg" xmlns:xlink="http://www.w3.org/1999/xlink">
    <title>15-图标/6标签/PPT</title>
    <g id="平台icon231127" stroke="none" stroke-width="1" fill="none" fill-rule="evenodd">
        <g id="平台icon231128" transform="translate(-184, -472)">
            <g id="15-图标/6标签/PPT" transform="translate(184, 472)">
                <rect id="_mockplus_fix_" x="0" y="0" width="16" height="16"></rect>
                <rect id="_mockplus_fix_" x="0" y="0" width="16" height="16"></rect>
                <g id="ppt" transform="translate(0.5719, 0)" fill-rule="nonzero">
                    <polygon id="路径" fill="#BD3C20" points="3.4921875 13.2640625 8.746875 13.2640625 8.746875 6.159375 7.515625 6.159375 7.515625 12.034375 3.4921875 12.034375 3.4921875 13.2640625"></polygon>
                    <polygon id="路径" fill="#819292" points="11.29375 0 2.2578125 0 2.2578125 4.4984375 3.4890625 4.4984375 3.4890625 1.2296875 10.2765625 1.2296875 10.2765625 4.5859375 13.625 4.5859375 13.625 14.7703125 3.4890625 14.7703125 3.4890625 10.9890625 2.2578125 10.9890625 2.2578125 16 14.85625 16 14.85625 3.4359375"></polygon>
                    <path d="M10.0734375,6.33125 L12.3890625,6.33125 L12.3890625,7.5296875 L10.0734375,7.5296875 L10.0734375,6.33125 Z M10.0734375,9.190625 L12.3890625,9.190625 L12.3890625,10.3890625 L10.0734375,10.3890625 L10.0734375,9.190625 Z M10.0734375,12.05 L12.3890625,12.05 L12.3890625,13.2484375 L10.0734375,13.2484375 L10.0734375,12.05 Z" id="形状" fill="#819292"></path>
                    <polygon id="路径" fill="#BD3C20" points="2.2859375 6.5203125 4.3421875 6.5203125 4.3421875 7.46875 2.2859375 7.46875"></polygon>
                    <path d="M6.4953125,10.9890625 L6.4953125,4.4984375 L0,4.4984375 L0,10.9890625 L6.4953125,10.9890625 Z M2.2,8.54375 L2.2,10.0359375 L1.1171875,10.0359375 L1.1171875,5.44375 L4.5046875,5.44375 C5.009375,5.44375 5.4203125,5.88125 5.4203125,6.4171875 L5.4203125,7.56875 C5.4203125,8.10625 5.009375,8.5421875 4.5046875,8.5421875 L2.2,8.54375 Z" id="形状" fill="#BD3C20"></path>
                    <path d="M4.5046875,8.54375 C5.009375,8.54375 5.4203125,8.10625 5.4203125,7.5703125 L5.4203125,6.41875 C5.4203125,5.88125 5.009375,5.4453125 4.5046875,5.4453125 L1.1171875,5.4453125 L1.1171875,10.0375 L2.2,10.0375 L2.2,8.5453125 L4.5046875,8.54375 L4.5046875,8.54375 Z M2.2859375,6.5203125 L4.3421875,6.5203125 L4.3421875,7.46875 L2.2859375,7.46875 L2.2859375,6.5203125 L2.2859375,6.5203125 Z" id="形状" fill="#FFFFFF"></path>
                </g>
            </g>
        </g>
    </g>
</svg>