<?xml version="1.0" encoding="UTF-8"?>
<svg width="16px" height="16px" viewBox="0 0 16 16" version="1.1" xmlns="http://www.w3.org/2000/svg" xmlns:xlink="http://www.w3.org/1999/xlink">
    <title>15-图标/6标签/yasuo</title>
    <g id="平台icon231127" stroke="none" stroke-width="1" fill="none" fill-rule="evenodd">
        <g id="平台icon231128" transform="translate(-616, -472)">
            <g id="15-图标/6标签/yasuo" transform="translate(616, 472)">
                <rect id="_mockplus_fix_" x="0" y="0" width="16" height="16"></rect>
                <rect id="_mockplus_fix_" x="0" y="0" width="16" height="16"></rect>
                <g id="压缩" transform="translate(0.5625, 0)" fill-rule="nonzero">
                    <polygon id="路径" fill="#819292" points="11.3189062 0 2.25234375 0 2.25234375 4.50375 3.49671875 4.50375 3.49671875 1.18515625 10.3115625 1.18515625 10.3115625 4.56296875 13.689375 4.56296875 13.689375 14.755625 3.49671875 14.755625 3.49671875 10.9629687 2.25234375 10.9629687 2.25234375 16 14.8745312 16 14.8745312 3.49625"></polygon>
                    <path d="M10.0745313,6.34078125 L12.385625,6.34078125 L12.385625,7.5259375 L10.0745313,7.5259375 L10.0745313,6.34078125 Z M10.0745313,9.18453125 L12.385625,9.18453125 L12.385625,10.3703125 L10.0745313,10.3703125 L10.0745313,9.18453125 Z M10.0745313,12.0282812 L12.385625,12.0282812 L12.385625,13.2134375 L10.0745313,13.2134375 L10.0745313,12.0282812 Z" id="形状" fill="#819292"></path>
                    <polygon id="路径" fill="#646D6D" points="3.49671875 13.2148437 8.77078125 13.2148437 8.77078125 6.10375 7.52640625 6.10375 7.52640625 11.9703125 3.49671875 11.9703125"></polygon>
                    <path d="M6.51890625,10.9629688 L6.51890625,4.444375 L0,4.444375 L0,10.9629688 L6.51890625,10.9629688 Z M2.193125,10.0148438 L1.12640625,10.0148438 L1.12640625,5.39265625 L2.193125,5.39265625 L2.193125,8.296875 L3.25984375,7.23015625 L4.32640625,8.296875 L4.32640625,5.453125 L5.393125,5.453125 L5.393125,10.015625 L4.32640625,10.015625 L3.2596875,8.94890625 L2.19296875,10.015625 L2.193125,10.0148438 Z" id="形状" fill="#51B9ED"></path>
                    <polygon id="路径" fill="#646D6D" points="0.00046875 4.444375 6.5190625 4.444375 6.5190625 11.0221875 0.00046875 11.0221875"></polygon>
                    <path d="M3.55609375,5.09625 L4.2078125,5.09625 L4.2078125,5.51109375 L3.55609375,5.51109375 L3.55609375,5.09625 Z M2.90421875,5.5703125 L3.55609375,5.5703125 L3.55609375,5.98515625 L2.90421875,5.98515625 L2.90421875,5.5703125 Z M3.55609375,5.98515625 L4.2078125,5.98515625 L4.2078125,6.4 L3.55609375,6.4 L3.55609375,5.98515625 Z M2.90421875,6.4 L3.55609375,6.4 L3.55609375,6.81484375 L2.90421875,6.81484375 L2.90421875,6.4 Z M3.55609375,6.81484375 L4.2078125,6.81484375 L4.2078125,7.2296875 L3.55609375,7.2296875 L3.55609375,6.81484375 Z M2.90421875,7.28890625 L3.55609375,7.28890625 L3.55609375,7.703125 L2.90421875,7.703125 L2.90421875,7.28890625 Z M3.55609375,7.703125 L3.55609375,8.11796875 L2.90421875,8.11796875 L2.90421875,9.65875 C2.90421875,9.77734375 3.0228125,9.89578125 3.14125,9.89578125 L4.03015625,9.89578125 C4.14875,9.89578125 4.2671875,9.7771875 4.2671875,9.65875 L4.2671875,7.703125 L3.55609375,7.703125 Z M3.9709375,9.421875 L3.081875,9.421875 L3.081875,9.00734375 L3.97078125,9.00734375 L3.9709375,9.421875 Z" id="形状" fill="#FFFFFF"></path>
                </g>
            </g>
        </g>
    </g>
</svg>