<?xml version="1.0" encoding="UTF-8"?>
<svg width="16px" height="16px" viewBox="0 0 16 16" version="1.1" xmlns="http://www.w3.org/2000/svg" xmlns:xlink="http://www.w3.org/1999/xlink">
    <title>15-图标/6标签/excel</title>
    <g id="平台icon231127" stroke="none" stroke-width="1" fill="none" fill-rule="evenodd">
        <g id="平台icon231128" transform="translate(-136, -472)">
            <g id="15-图标/6标签/excel" transform="translate(136, 472)">
                <rect id="_mockplus_fix_" x="0" y="0" width="16" height="16"></rect>
                <rect id="_mockplus_fix_" x="0" y="0" width="16" height="16"></rect>
                <g id="excel" transform="translate(0.5719, 0)" fill-rule="nonzero">
                    <polygon id="路径" fill="#819292" points="11.29375 0 2.2578125 0 2.2578125 4.5953125 3.4890625 4.5953125 3.4890625 1.2296875 10.2765625 1.2296875 10.2765625 4.5859375 13.625 4.5859375 13.625 14.7703125 3.4890625 14.7703125 3.4890625 13.2640625 3.4765625 13.2640625 3.4765625 12.034375 3.4890625 12.034375 3.4890625 11.0859375 2.2578125 11.0859375 2.2578125 16 14.85625 16 14.85625 3.4359375"></polygon>
                    <path d="M10.0734375,6.33125 L12.3890625,6.33125 L12.3890625,7.5296875 L10.0734375,7.5296875 L10.0734375,6.33125 Z M10.0734375,9.190625 L12.3890625,9.190625 L12.3890625,10.3890625 L10.0734375,10.3890625 L10.0734375,9.190625 Z M10.0734375,12.05 L12.3890625,12.05 L12.3890625,13.2484375 L10.0734375,13.2484375 L10.0734375,12.05 Z" id="形状" fill="#819292"></path>
                    <polygon id="路径" fill="#50A135" points="8.7453125 6.159375 7.5140625 6.159375 7.5140625 12.034375 3.4765625 12.034375 3.4765625 13.2640625 8.746875 13.2640625 8.746875 6.159375"></polygon>
                    <path d="M6.4953125,11.0859375 L6.4953125,4.5953125 L0,4.5953125 L0,11.0859375 L6.4953125,11.0859375 Z M2.3015625,9.828125 L0.7640625,9.840625 L2.446875,7.859375 L0.765625,5.8390625 L2.23125,5.84375 L3.19375,6.9796875 L4.15625,5.84375 L5.621875,5.8390625 L3.940625,7.859375 L5.621875,9.8421875 L4.084375,9.828125 L3.19375,8.7578125 L2.3015625,9.828125 Z" id="形状" fill="#50A135"></path>
                    <polygon id="路径" fill="#FFFFFF" points="4.0859375 9.8296875 5.6234375 9.8421875 3.940625 7.859375 5.621875 5.8390625 4.15625 5.84375 3.19375 6.978125 2.23125 5.84375 0.765625 5.8390625 2.446875 7.859375 0.765625 9.8421875 2.303125 9.8296875 3.1953125 8.7578125"></polygon>
                </g>
            </g>
        </g>
    </g>
</svg>