<?xml version="1.0" encoding="UTF-8"?>
<svg width="16px" height="16px" viewBox="0 0 16 16" version="1.1" xmlns="http://www.w3.org/2000/svg" xmlns:xlink="http://www.w3.org/1999/xlink">
    <title>15-图标/6标签/jpg</title>
    <g id="平台icon231127" stroke="none" stroke-width="1" fill="none" fill-rule="evenodd">
        <g id="平台icon231128" transform="translate(-376, -472)">
            <g id="15-图标/6标签/jpg" transform="translate(376, 472)">
                <rect id="_mockplus_fix_" x="0" y="0" width="16" height="16"></rect>
                <rect id="_mockplus_fix_" x="0" y="0" width="16" height="16"></rect>
                <g id="jpg" fill-rule="nonzero">
                    <rect id="矩形" fill="#000000" opacity="0" x="0" y="0" width="16" height="16"></rect>
                    <polygon id="路径" fill="#819292" points="11.88125 0 2.8140625 0 2.8140625 4.503125 4.059375 4.503125 4.059375 1.1859375 10.8734375 1.1859375 10.8734375 4.5625 14.2515625 4.5625 14.2515625 14.7546875 4.059375 14.7546875 4.059375 10.9625 2.8140625 10.9625 2.8140625 16 15.4375 16 15.4375 3.496875"></polygon>
                    <path d="M10.6375,6.340625 L12.9484375,6.340625 L12.9484375,7.5265625 L10.6375,7.5265625 L10.6375,6.340625 L10.6375,6.340625 Z M10.6375,9.1859375 L12.9484375,9.1859375 L12.9484375,10.371875 L10.6375,10.371875 L10.6375,9.1859375 Z M10.6375,12.0296875 L12.9484375,12.0296875 L12.9484375,13.215625 L10.6375,13.215625 L10.6375,12.0296875 Z" id="形状" fill="#819292"></path>
                    <polygon id="路径" fill="#FF9B54" points="4.059375 13.2140625 9.3328125 13.2140625 9.3328125 6.103125 8.0890625 6.103125 8.0890625 11.9703125 4.059375 11.9703125"></polygon>
                    <path d="M7.08125,10.9625 L7.08125,4.44375 L0.5640625,4.44375 L0.5640625,10.9625 L7.08125,10.9625 L7.08125,10.9625 Z M2.7546875,10.015625 L1.6890625,10.015625 L1.6890625,5.3921875 L2.75625,5.3921875 L2.75625,8.296875 L3.8234375,7.2296875 L4.890625,8.296875 L4.890625,5.453125 L5.9578125,5.453125 L5.9578125,10.015625 L4.890625,10.015625 L3.8234375,8.9484375 L2.7546875,10.015625 Z" id="形状" fill="#51B9ED"></path>
                    <polygon id="路径" fill="#FF9B54" points="0.5625 4.4453125 7.08125 4.4453125 7.08125 10.9640625 0.5625 10.9640625"></polygon>
                    <path d="M5.7578125,5.690625 L1.8875,5.690625 C1.640625,5.690625 1.440625,5.8984375 1.440625,6.1546875 L1.440625,9.253125 C1.440625,9.509375 1.640625,9.7171875 1.8875,9.7171875 L5.7578125,9.7171875 C6.0046875,9.7171875 6.2046875,9.509375 6.2046875,9.253125 L6.2046875,6.1546875 C6.203125,5.8984375 6.003125,5.690625 5.7578125,5.690625 Z M5.83125,8.778125 L4.896875,7.4828125 C4.896875,7.4828125 4.8421875,7.378125 4.6515625,7.378125 C4.4359375,7.378125 4.3703125,7.4796875 4.3703125,7.4796875 L3.5515625,8.79375 C3.5203125,8.8484375 3.4609375,8.8828125 3.3984375,8.88125 C3.33125,8.88125 3.26875,8.8484375 3.2296875,8.79375 L2.8,8.28125 C2.8,8.28125 2.6890625,8.1296875 2.546875,8.1296875 C2.403125,8.1296875 2.2859375,8.296875 2.2859375,8.296875 L1.8125,8.909375 L1.8125,6.2375 C1.8125,6.1515625 1.8796875,6.0828125 1.9609375,6.0828125 L5.6828125,6.0828125 C5.765625,6.0828125 5.83125,6.1515625 5.83125,6.2375 L5.83125,8.778125 L5.83125,8.778125 Z M3.5984375,7.084375 C3.5984375,7.3875 3.3625,7.6328125 3.071875,7.6328125 C2.78125,7.6328125 2.5453125,7.3875 2.5453125,7.084375 C2.5453125,6.78125 2.78125,6.5359375 3.071875,6.5359375 C3.3625,6.5359375 3.5984375,6.78125 3.5984375,7.084375 Z" id="形状" fill="#FFFFFF"></path>
                </g>
            </g>
        </g>
    </g>
</svg>