<?xml version="1.0" encoding="UTF-8"?>
<svg width="16px" height="16px" viewBox="0 0 16 16" version="1.1" xmlns="http://www.w3.org/2000/svg" xmlns:xlink="http://www.w3.org/1999/xlink">
    <title>15-图标/6标签/html</title>
    <g id="平台icon231127" stroke="none" stroke-width="1" fill="none" fill-rule="evenodd">
        <g id="平台icon231128" transform="translate(-328, -472)">
            <g id="15-图标/6标签/html" transform="translate(328, 472)">
                <rect id="_mockplus_fix_" x="0" y="0" width="16" height="16"></rect>
                <rect id="_mockplus_fix_" x="0" y="0" width="16" height="16"></rect>
                <g id="html" transform="translate(0.57, 0)" fill-rule="nonzero">
                    <path d="M11.2981406,0 L14.8624062,3.43573438 L14.8624062,16 L2.25975,16 L2.25975,10.9887969 L3.49067187,10.9887969 L3.49067187,14.7701562 L13.6309375,14.7701562 L13.6309375,4.58667188 L10.2816094,4.58667188 L10.2816094,1.22984375 L3.49014062,1.22984375 L3.49014062,4.498125 L2.25920312,4.498125 L2.25920312,0 L11.2981406,0 L11.2981406,0 Z M12.3936094,12.0501406 L12.3936094,13.2485312 L10.0783906,13.2485312 L10.0783906,12.0501562 L12.3936094,12.0501562 L12.3936094,12.0501406 Z M12.3936094,9.19040625 L12.3936094,10.3887969 L10.0783906,10.3887969 L10.0783906,9.19040625 L12.3936094,9.19040625 L12.3936094,9.19040625 Z M12.3936094,6.3311875 L12.3936094,7.52959375 L10.0783906,7.52959375 L10.0783906,6.33120312 L12.3936094,6.33120312 L12.3936094,6.3311875 Z" id="形状" fill="#819292"></path>
                    <path d="M8.749875,6.15946875 L8.749875,13.264 L3.49385937,13.264 L3.49385937,12.0346719 L7.51892188,12.0346719 L7.51892188,6.15946875 L8.749875,6.15946875 L8.749875,6.15946875 Z M6.49867188,4.49867188 L6.49867188,10.9893281 L0,10.9893281 L0,4.49814063 L6.49867188,4.49814063 L6.49867188,4.49867188 Z M4.168,6.01440625 L3.35682813,6.01440625 L2.42989063,9.4730625 L3.24160938,9.4730625 L4.16909375,6.01440625 L4.168,6.01440625 Z M4.76640625,6.22879688 L4.21173437,6.78346875 L5.17014063,7.7850625 L4.21173437,8.69973438 L4.76640625,9.25440625 L6.27946875,7.7408125 L4.76640625,6.22879688 Z M1.73173437,6.22879688 L0.218671875,7.7850625 L1.73120312,9.25440625 L2.285875,8.69971875 L1.328,7.7408125 L2.285875,6.78346875 L1.73120312,6.22879688 L1.73173437,6.22879688 Z" id="形状" fill="#EA8B5B"></path>
                </g>
            </g>
        </g>
    </g>
</svg>