<?xml version="1.0" encoding="UTF-8"?>
<svg width="16px" height="16px" viewBox="0 0 16 16" version="1.1" xmlns="http://www.w3.org/2000/svg" xmlns:xlink="http://www.w3.org/1999/xlink">
    <title>15-图标/6标签/2文件关</title>
    <g id="平台icon231127" stroke="none" stroke-width="1" fill="none" fill-rule="evenodd">
        <g id="平台icon231128" transform="translate(-472, -424)">
            <g id="15-图标/6标签/2文件关" transform="translate(472, 424)">
                <rect id="_mockplus_fix_" x="0" y="0" width="16" height="16"></rect>
                <rect id="_mockplus_fix_" x="0" y="0" width="16" height="16"></rect>
                <g id="文件关" transform="translate(0, 1)" fill-rule="nonzero">
                    <path d="M5.885,0.17062655 L6.5334375,0.9726578 L15.5401563,0.9726578 C15.7928533,0.971446649 15.9987088,1.17527366 16,1.4279703 L16,1.4279703 L16,2.91062655 L0,2.91062655 L0,0.45531405 C0,0.334331079 0.0485628076,0.218408145 0.13453125,0.1332828 C0.221275728,0.0475960712 0.338383339,-0.000314140644 0.4603125,0 L5.52625,0 C5.6654588,-0.00019468816 5.79730464,0.0625124759 5.885,0.17062655 Z" id="路径" fill="#FFC652"></path>
                    <path d="M0,14.0000016 L0,3.87718905 C0.000206717412,3.83280658 0.0180360862,3.79032407 0.0495657451,3.75908744 C0.0810954041,3.7278508 0.123742532,3.71041887 0.168125,3.71062472 L15.831875,3.71062472 C15.8762575,3.71041887 15.9189046,3.7278508 15.9504343,3.75908744 C15.9819639,3.79032407 15.9997933,3.83280658 16,3.87718905 L16,3.87718905 L16,14.0000016 L0,14.0000016 Z" id="路径" fill="#FFE28B"></path>
                </g>
            </g>
        </g>
    </g>
</svg>