<?xml version="1.0" encoding="UTF-8"?>
<svg width="16px" height="16px" viewBox="0 0 16 16" version="1.1" xmlns="http://www.w3.org/2000/svg" xmlns:xlink="http://www.w3.org/1999/xlink">
    <title>15-图标/6标签/2文件开</title>
    <g id="平台icon231127" stroke="none" stroke-width="1" fill="none" fill-rule="evenodd">
        <g id="平台icon231128" transform="translate(-520, -424)">
            <g id="15-图标/6标签/2文件开" transform="translate(520, 424)">
                <rect id="_mockplus_fix_" x="0" y="0" width="16" height="16"></rect>
                <rect id="_mockplus_fix_" x="0" y="0" width="16" height="16"></rect>
                <g id="文件开" transform="translate(0, 1)" fill-rule="nonzero">
                    <path d="M2.31804878,2.984375 L12.1459609,2.984375 L12.1459609,2.3578125 C12.1471197,2.09348239 12.0427343,1.83964062 11.8560052,1.65272917 C11.6692761,1.46581773 11.415682,1.36133038 11.1516098,1.3625 L5.74126829,1.3625 C5.33697561,1.325 4.8577561,0.5890625 4.8577561,0.5890625 C4.71102439,0.2203125 4.34263415,0 3.9742439,0 L1.10360976,0 C0.588487805,0.0734375 0.146731707,0.515625 0.146731707,1.06875 L0,11.6046875 L1.28780488,3.8671875 C1.36117073,3.353125 1.80292683,2.984375 2.31804878,2.984375 Z" id="路径" fill="#FFC652"></path>
                    <path d="M13.5758049,14 L2.01990244,14 C1.35804878,14 0.878829268,13.4109375 0.989658537,12.746875 L2.31492683,4.9 C2.4257561,4.4203125 2.83004878,4.053125 3.34517073,4.053125 L14.9385366,4.053125 C15.6003902,4.053125 16.0796098,4.6421875 15.9687805,5.30625 L14.6435122,13.1171875 C14.4967805,13.63125 14.0909268,14 13.5758049,14 Z" id="路径" fill="#FFE28B"></path>
                </g>
            </g>
        </g>
    </g>
</svg>