<?xml version="1.0" encoding="UTF-8"?>
<svg width="150px" height="150px" viewBox="0 0 150 150" version="1.1" xmlns="http://www.w3.org/2000/svg" xmlns:xlink="http://www.w3.org/1999/xlink">
    <title>15-图标/2提示/3D提示/蓝404</title>
    <g id="平台icon231127" stroke="none" stroke-width="1" fill="none" fill-rule="evenodd">
        <g id="平台icon231128" transform="translate(-40, -728)">
            <g id="15-图标/2提示/3D提示/蓝404" transform="translate(40, 728)">
                <rect id="_mockplus_fix_" x="0" y="0" width="150" height="150"></rect>
                <rect id="_mockplus_fix_" x="0" y="0" width="150" height="150"></rect>
                <g id="404" transform="translate(11.5, 25.052)" fill-rule="nonzero">
                    <g id="404_画板-1">
                        <polygon id="路径" fill="#D4E1F8" points="53.5445545 57.2165842 42.7710396 63.9814356 42.6435644 64.0606436 42.4158416 64.2042079 42.289604 64.2834158 33.345297 69.9009901 33.2128713 69.9826733 32.9839109 70.1262376 32.8539604 70.2079208 24.7388614 75.3044554 21.075495 58.4096535 21.0160891 58.1324257 17.5086634 41.9628713 17.4455446 41.674505 14.125 26.3589109 21.3007426 18.6707921 21.5123762 18.4467822 29.3873762 10.009901 29.5977723 9.78589109 38.7314356 -5.04870979e-29 43.4195545 18.1076733 43.4220297 18.1175743 43.4888614 18.3762376 43.4925743 18.3873762 48.345297 37.1336634 48.3477723 37.1423267 48.4133663 37.3960396 48.414604 37.4022277"></polygon>
                        <polygon id="路径" fill="#98B5F3" points="99.6435644 53.5594059 87.5532178 59.7549505 86.9405941 60.0693069 76.5383663 65.3997525 75.9084158 65.7227723 67.1002475 70.2363861 54.5482673 71.7376238 53.8688119 71.8193069 40.1361386 73.4628713 39.4863861 73.539604 24.7388614 75.3044554 32.8539604 70.2079208 32.9839109 70.1262376 33.2128713 69.9826733 33.345297 69.9009901 42.289604 64.2834158 42.4158416 64.2042079 42.6435644 64.0606436 42.7710396 63.9814356 53.5445545 57.2165842 70.115099 55.9022277 70.355198 55.8824257 70.615099 55.8613861 70.7091584 55.8539604 85.0693069 54.7153465 85.2512376 54.7017327 85.5111386 54.6806931 85.6918317 54.6658416"></polygon>
                        <polygon id="路径" fill="#E6EFFE" points="99.6435644 53.5594059 85.6918317 54.6658416 85.5111386 54.6806931 85.2512376 54.7017327 85.0693069 54.7153465 70.7091584 55.8539604 70.615099 55.8613861 70.355198 55.8824257 70.115099 55.9022277 53.5445545 57.2165842 48.414604 37.4022277 48.4133663 37.3960396 48.3477723 37.1423267 48.345297 37.1336634 43.4925743 18.3873762 43.4888614 18.3762376 43.4220297 18.1175743 43.4195545 18.1076733 38.7314356 -5.04870979e-29 55.1138614 1.50742574 55.3836634 1.53341584 69.7227723 2.85148515 69.9975248 2.87747525 83.8663366 4.15346535 88.8304455 19.6980198 88.9133663 19.9579208 94.1064356 36.2178218 94.1856436 36.4727723"></polygon>
                        <path d="M38.134901,45.3019802 L48.414604,37.4022277 L48.414604,37.3960396 L48.3490099,37.1423267 L48.3490099,37.134901 L48.3403465,37.1423267 L47.9975248,37.4034653 L38.0717822,45.0309406 L33.7871287,27.1980198 L43.4925743,18.3886139 L43.4925743,18.3774752 L43.4257426,18.1188119 L43.4257426,18.1089109 L43.414604,18.1188119 L43.1435644,18.3663366 L33.720297,26.914604 L29.5977723,9.78589109 L29.3873762,10.009901 L33.4975248,27.1089109 L25.1905941,34.6460396 L21.5123762,18.4467822 L21.3007426,18.6707921 L24.9727723,34.8490099 L17.450495,41.674505 L17.5136139,41.9628713 L25.0433168,35.1311881 L28.8935644,52.0866337 L21.0210396,58.1336634 L21.0804455,58.4108911 L28.9554455,52.3601485 L32.9467822,69.9443069 L32.9888614,70.1274752 L33.2178218,69.9839109 L33.2042079,69.9170792 L29.1732673,52.1868812 L37.9121287,45.4727723 L42.3675743,64.0185644 L42.4121287,64.2042079 L42.6398515,64.0606436 L42.6237624,63.9950495 L38.134901,45.3019802 Z M29.1113861,51.9121287 L25.2549505,34.9331683 L33.5655941,27.3923267 L37.8477723,45.200495 L29.1113861,51.9121287 Z" id="形状" fill="#77849E" opacity="0.7"></path>
                        <path d="M86.9405941,60.0693069 L87.5532178,59.7549505 L74.0915842,61.0247525 L85.3032178,54.8799505 L85.5334158,54.7561881 L85.6918317,54.6695545 L85.5123762,54.6844059 L85.2512376,54.7054455 L85.0693069,54.7190594 L73.4492574,61.0866337 L59.3081683,62.4207921 L70.3972772,56.0346535 L70.6262376,55.9034653 L70.7091584,55.8539604 L70.615099,55.8613861 L70.355198,55.8824257 L70.115099,55.9009901 L58.6943069,62.4777228 L42.7710396,63.9814356 L42.6472772,64.0606436 L42.4195545,64.2042079 L42.2957921,64.2834158 L42.4381188,64.269802 L42.6955446,64.2450495 L58.1658416,62.7846535 L48.5594059,68.3143564 L33.345297,69.9009901 L33.2128713,69.9826733 L32.9839109,70.1212871 L32.8539604,70.2029703 L33,70.1881188 L33.2549505,70.1608911 L48.019802,68.6287129 L39.490099,73.539604 L40.1398515,73.4628713 L48.6386139,68.5643564 L62.4257426,67.1262376 L53.8663366,71.8193069 L54.5457921,71.7376238 L63.085396,67.0581683 L75.9084158,65.7227723 L76.5383663,65.3997525 L63.6670792,66.740099 L73.5259901,61.3341584 L86.9405941,60.0693069 Z M63.0074257,66.8094059 L49.1856436,68.25 L58.7747525,62.7277228 L72.8836634,61.3960396 L63.0074257,66.8094059 Z" id="形状" fill="#6786B2" opacity="0.7"></path>
                        <path d="M80.1435644,36.7561881 L94.1831683,36.4727723 L94.1014851,36.2178218 L80.0631188,36.5012376 L74.9641089,19.4727723 L88.9096535,19.9579208 L88.8267327,19.6980198 L74.8861386,19.2141089 L69.9938119,2.87747525 L69.7190594,2.85148515 L74.6163366,19.2042079 L60.1980198,18.7017327 L55.3836634,1.53341584 L55.1138614,1.50742574 L59.9306931,18.6930693 L43.7747525,18.1311881 L43.4220297,18.1175743 L43.4888614,18.3762376 L43.5037129,18.3762376 L60.0024752,18.9492574 L65.0074257,36.8044554 L48.7623762,37.1336634 L48.3440594,37.1423267 L48.4096535,37.3960396 L48.4207921,37.3960396 L65.0742574,37.0618812 L70.3217822,55.7809406 L70.3514851,55.8836634 L70.6113861,55.8626238 L70.5507426,55.6497525 L65.3465347,37.0532178 L79.8824257,36.7611386 L85.2326733,54.6274752 L85.2549505,54.7017327 L85.5160891,54.6806931 L85.4616337,54.5024752 L80.1435644,36.7561881 Z M65.2710396,36.799505 L60.2722772,18.960396 L74.6992574,19.4616337 L79.8019802,36.5074257 L65.2710396,36.799505 Z" id="形状" fill="#92A5C7" opacity="0.71"></path>
                        <polygon id="路径" fill="#C6D4EC" points="79.8019802 36.5074257 65.2710396 36.799505 63.0358911 28.8267327 74.6967822 19.4616337"></polygon>
                        <polygon id="路径" fill="#9CB0D8" points="74.6967822 19.4616337 63.0358911 28.8267327 60.269802 18.960396"></polygon>
                        <ellipse id="椭圆形" fill="#C9D7F1" cx="18.1311881" cy="94.8267327" rx="18.1311881" ry="3.05321782"></ellipse>
                        <ellipse id="椭圆形" fill="#C9D7F1" cx="61.0247525" cy="96.8428218" rx="20.9084158" ry="3.05321782"></ellipse>
                        <ellipse id="椭圆形" fill="#C9D7F1" cx="110.459158" cy="86.0878713" rx="16.2735149" ry="3.0519802"></ellipse>
                        <ellipse id="椭圆形" fill="#C9D7F1" cx="66.3118812" cy="85.5482673" rx="46.6732673" ry="4.83910891"></ellipse>
                        <polygon id="路径" fill="#E2A873" points="8.70173267 94.6410891 5.72029703 94.4071782 5.72029703 75.9282178 8.70173267 76.1633663"></polygon>
                        <polygon id="路径" fill="#FFDCBC" points="9.46163366 94.1868812 8.70173267 94.6410891 8.70173267 76.1633663 9.46163366 75.7091584"></polygon>
                        <polygon id="路径" fill="#FFDCBC" points="33.0507426 95.9034653 32.2908416 96.3576733 32.2908416 77.8799505 33.0507426 77.4257426"></polygon>
                        <polygon id="路径" fill="#E2A873" points="32.2908416 96.3576733 29.3094059 96.1237624 29.3094059 77.644802 32.2908416 77.8799505"></polygon>
                        <path d="M86.2289604,86.210396 C86.1907927,86.2153337 86.1523472,86.2178226 86.1138614,86.2178226 C85.7350013,86.218365 85.4128352,85.9414707 85.3564356,85.5668317 L79.4789604,46.8391089 C79.4258584,46.4964056 79.6103581,46.1609516 79.9282178,46.0222772 C79.9896104,45.9946588 80.054617,45.9759069 80.1212871,45.9665842 C80.5373886,45.9067307 80.923993,46.1933702 80.9876238,46.6089109 L86.865099,85.3366337 C86.9296487,85.753323 86.6453341,86.1438407 86.2289604,86.210396 L86.2289604,86.210396 Z" id="路径" fill="#FFCDA0"></path>
                        <path d="M85.8081683,86.154703 C85.5663344,86.0496996 85.3956288,85.8275485 85.3564356,85.5668317 L79.4789604,46.8391089 C79.3354417,46.656238 79.3345426,46.39923 79.4767783,46.2153594 C79.619014,46.0314889 79.8680037,45.9677858 80.0810676,46.0607545 C80.2941314,46.1537231 80.4167724,46.379584 80.3787129,46.6089109 L86.2623762,85.3366337 C86.3144365,85.6808504 86.1278605,86.0168905 85.8081683,86.154703 Z" id="路径" fill="#FF8F2C"></path>
                        <path d="M80.4938119,50.0074257 C80.4971452,50.0766748 80.4874906,50.145936 80.4653465,50.2116337 C80.3908266,50.438896 80.1832549,50.5961771 79.9443069,50.6064356 L69.1769802,51.0693069 L68.664604,51.0903465 L68.6398515,51.0903465 C68.3341584,51.0903465 68.4381188,50.9096535 68.424505,50.595297 C68.4108911,50.2809406 68.3007426,49.9517327 68.615099,49.9368812 L79.894802,49.4529703 C80.0480563,49.4459365 80.197731,49.5006507 80.3103186,49.604864 C80.4229062,49.7090773 80.4890029,49.8540854 80.4938119,50.0074257 Z" id="路径" fill="#F8C190"></path>
                        <path d="M80.4653465,50.2116337 C80.3908266,50.438896 80.1832549,50.5961771 79.9443069,50.6064356 L69.1769802,51.0693069 C69.1584158,50.8626238 69.1695545,50.6980198 69.3923267,50.6868812 L80.4653465,50.2116337 Z" id="路径" fill="#BE9075"></path>
                        <path d="M81.210396,55.0643564 C81.2170625,55.1458733 81.2056524,55.2278568 81.1769802,55.3044554 C81.0984605,55.514147 80.9052202,55.6590773 80.6819307,55.6757426 L70.0606436,56.4183168 L69.4777228,56.4591584 L69.4306931,56.4591584 C69.1299505,56.4591584 69.3564356,56.230198 69.3341584,55.9257426 C69.3118812,55.6212871 69.0742574,55.3316832 69.3910891,55.3069307 L80.5977723,54.5272277 C80.7503575,54.5167123 80.9008334,54.5675006 81.015837,54.668332 C81.1308406,54.7691635 81.2008691,54.9117063 81.210396,55.0643564 L81.210396,55.0643564 Z" id="路径" fill="#F8C190"></path>
                        <path d="M81.1769802,55.3044554 C81.0984605,55.514147 80.9052202,55.6590773 80.6819307,55.6757426 L70.0606436,56.4183168 C70.0024752,56.2264851 69.9517327,56.085396 70.1732673,56.0705446 L81.1769802,55.3044554 Z" id="路径" fill="#BE9075"></path>
                        <path d="M81.884901,59.9554455 C81.8013096,60.1455431 81.6223457,60.2763426 81.4158416,60.2982673 L70.7834158,61.3700495 L70.3539604,61.4133663 C70.3345906,61.4145991 70.3151619,61.4145991 70.2957921,61.4133663 C70.0037129,61.4133663 70.1831683,61.134901 70.1522277,60.8391089 C70.1200495,60.5235149 69.9220297,60.299505 70.2388614,60.2660891 L81.3007426,59.1522277 C81.5039726,59.1314977 81.7029152,59.2202941 81.8231907,59.3854182 C81.9434663,59.5505423 81.9669649,59.7671312 81.884901,59.9542079 L81.884901,59.9554455 Z" id="路径" fill="#F8C190"></path>
                        <path d="M81.884901,59.9554455 C81.8013096,60.1455431 81.6223457,60.2763426 81.4158416,60.2982673 L70.7834158,61.3700495 C70.7351485,61.1967822 70.7066832,61.0829208 70.9257426,61.0606436 L81.884901,59.9554455 Z" id="路径" fill="#BE9075"></path>
                        <path d="M82.5730198,65.2388614 C82.501345,65.4444113 82.3198241,65.591927 82.1039604,65.6200495 L71.4443069,67.019802 L71.414604,67.019802 C71.3886139,67.019802 71.3638614,67.019802 71.3391089,67.019802 C71.0361263,67.0192452 70.7854664,66.7838681 70.7658757,66.481519 C70.7462851,66.1791699 70.9644741,65.9134138 71.2648515,65.8737624 L81.9542079,64.470297 C82.1055268,64.4502683 82.2586041,64.4911743 82.3797615,64.5840152 C82.5009189,64.6768561 82.5802307,64.8140261 82.6002475,64.9653465 C82.6129603,65.0573879 82.6036282,65.1511326 82.5730198,65.2388614 L82.5730198,65.2388614 Z" id="路径" fill="#F8C190"></path>
                        <path d="M82.5730198,65.2388614 C82.501345,65.4444113 82.3198241,65.591927 82.1039604,65.6200495 L71.4443069,67.019802 C71.5153722,66.8140388 71.6973321,66.6666464 71.9133663,66.6398515 L82.5730198,65.2388614 Z" id="路径" fill="#BE9075"></path>
                        <path d="M83.6163366,70.7747525 C83.5417,70.9709539 83.3681076,71.1124695 83.1608911,71.1460396 L72.375,72.8787129 L72.1274752,72.9195545 C72.0963568,72.9244198 72.0649123,72.9269023 72.0334158,72.9269802 C71.75,72.9269802 71.9096535,72.8032178 71.8626238,72.5123762 C71.8106436,72.1918317 71.615099,71.8131188 71.9405941,71.7611386 L82.9789604,69.9863861 C83.1326286,69.9610538 83.2900569,69.998 83.4164119,70.0890499 C83.5427668,70.1800998 83.6276313,70.3177469 83.6522277,70.4715347 C83.6684171,70.5739838 83.6559968,70.678914 83.6163366,70.7747525 Z" id="路径" fill="#F8C190"></path>
                        <path d="M83.6163366,70.7747525 C83.5417,70.9709539 83.3681076,71.1124695 83.1608911,71.1460396 L72.375,72.8787129 C72.3490099,72.7128713 72.375,72.5816832 72.5482673,72.5532178 L83.5866337,70.7772277 L83.6163366,70.7747525 Z" id="路径" fill="#BE9075"></path>
                        <path d="M84.3725248,76.6806931 C84.2989204,76.8707052 84.1295653,77.0070384 83.9282178,77.0383663 L73.3910891,78.7376238 L73.1732673,78.7735149 C73.1425724,78.7784457 73.111534,78.7809406 73.0804455,78.7809406 C72.7833896,78.7770125 72.5381425,78.5476194 72.5144006,78.2514876 C72.4906587,77.9553559 72.6962257,77.6898195 72.9888614,77.6386139 L83.7487624,75.9059406 C83.8992764,75.8816946 84.0532543,75.9182944 84.1767601,76.0076736 C84.3002659,76.0970528 84.3831619,76.2318749 84.4071782,76.3824257 C84.4230887,76.4831471 84.4111039,76.5863025 84.3725248,76.6806931 L84.3725248,76.6806931 Z" id="路径" fill="#F8C190"></path>
                        <path d="M84.3725248,76.6806931 C84.2989204,76.8707052 84.1295653,77.0070384 83.9282178,77.0383663 L73.3910891,78.7376238 C73.4646181,78.5482789 73.6334582,78.4124522 73.8341584,78.3811881 L84.3725248,76.6806931 Z" id="路径" fill="#BE9075"></path>
                        <path d="M74.779703,88.1274752 C74.7473771,88.1376431 74.7142588,88.1450947 74.6806931,88.1497525 C74.6421366,88.1550997 74.6032796,88.1579933 74.5643564,88.1584158 C74.1855613,88.1584158 73.8639456,87.8808542 73.8081683,87.5061881 L67.6980198,47.2141089 C67.6493539,46.8906488 67.8107514,46.5718267 68.1002475,46.4195545 C68.1751644,46.3796212 68.2563742,46.3528303 68.3403465,46.3403465 C68.7589934,46.2781967 69.1492919,46.5656686 69.2141089,46.9839109 L75.3292079,87.2759901 C75.3873233,87.6578545 75.1516003,88.023119 74.779703,88.1274752 L74.779703,88.1274752 Z" id="路径" fill="#FFCDA0"></path>
                        <path d="M74.779703,88.1274752 C74.7473771,88.1376431 74.7142588,88.1450947 74.6806931,88.1497525 C74.6421366,88.1550997 74.6032796,88.1579933 74.5643564,88.1584158 C74.1855613,88.1584158 73.8639456,87.8808542 73.8081683,87.5061881 L67.6980198,47.2141089 C67.6493539,46.8906488 67.8107514,46.5718267 68.1002475,46.4195545 C68.3233386,46.5323692 68.4785462,46.7456069 68.5173267,46.9925743 L74.7970297,87.8193069 C74.8129022,87.9221094 74.8069991,88.0270999 74.779703,88.1274752 Z" id="路径" fill="#FF8F2C"></path>
                        <polygon id="路径" fill="#FF8F2C" points="49.7178218 97.1534653 61.0148515 98.7363861 71.7351485 97.1534653 71.7351485 96.115099 49.7178218 96.115099"></polygon>
                        <path d="M63.6844059,86.0866337 C61.6735661,86.3226099 59.642028,86.3226099 57.6311881,86.0866337 L58.25,84.1720297 C58.9925743,84.2425743 59.8069307,84.2821782 60.6596535,84.2821782 C61.5123762,84.2821782 62.3279703,84.2425743 63.0693069,84.1720297 L63.6844059,86.0866337 Z" id="路径" fill="#F8C190"></path>
                        <path d="M65.0086634,90.1967822 C62.1259642,90.6522282 59.1896298,90.6522282 56.3069307,90.1967822 L56.865099,88.4641089 C59.3827949,88.7941405 61.9327992,88.7941405 64.450495,88.4641089 L65.0086634,90.1967822 Z" id="路径" fill="#F8C190"></path>
                        <path d="M60.6571782,92.8935644 C60.3601485,92.8935644 60.0655941,92.8935644 59.779703,92.8836634 C60.0655941,92.8836634 60.3601485,92.875 60.6571782,92.875 C60.9542079,92.875 61.2487624,92.875 61.5371287,92.8836634 C61.2487624,92.8935644 60.9566832,92.8935644 60.6571782,92.8935644 Z" id="路径" fill="#F8C190"></path>
                        <path d="M60.6571782,92.8762376 C60.9566832,92.8762376 61.2487624,92.8762376 61.5371287,92.884901 C61.2487624,92.8923267 60.9566832,92.894802 60.6571782,92.894802 C60.3576733,92.894802 60.0655941,92.894802 59.779703,92.884901 C60.0655941,92.8787129 60.3601485,92.8762376 60.6571782,92.8762376 Z" id="路径" fill="#F8C190"></path>
                        <path d="M61.5371287,92.884901 C61.2487624,92.8923267 60.9566832,92.894802 60.6571782,92.894802 C60.3576733,92.894802 60.0655941,92.894802 59.779703,92.884901 C60.0655941,92.884901 60.3601485,92.8762376 60.6571782,92.8762376 C60.9542079,92.8762376 61.2487624,92.8787129 61.5371287,92.884901 Z" id="路径" fill="#F8C190"></path>
                        <polygon id="路径" fill="#FFCDA0" points="49.7178218 96.115099 60.9913366 97.5606436 71.7351485 96.115099 60.9665842 94.8267327"></polygon>
                        <path d="M63.0668317,84.174505 C62.3242574,84.2450495 61.5111386,84.2846535 60.6571782,84.2846535 C59.8032178,84.2846535 58.990099,84.2450495 58.2475248,84.174505 L58.4764851,83.4665842 L59.1299505,81.4381188 L60.2524752,77.9566832 C60.3090656,77.7806118 60.4728548,77.6612134 60.657797,77.6612134 C60.8427392,77.6612134 61.0065284,77.7806118 61.0631188,77.9566832 L62.1856436,81.4381188 L62.8391089,83.4665842 L63.0668317,84.174505 Z" id="路径" fill="#F8C190"></path>
                        <path d="M65.7574257,92.5222772 C64.7784653,92.7178218 63.2710396,92.855198 61.5371287,92.8935644 C61.2487624,92.8935644 60.9566832,92.884901 60.6571782,92.884901 C60.3576733,92.884901 60.0655941,92.884901 59.779703,92.8935644 C58.0470297,92.8589109 56.5371287,92.7215347 55.5581683,92.5222772 L55.9207921,91.3960396 L56.3069307,90.2017327 C59.1896298,90.6571787 62.1259642,90.6571787 65.0086634,90.2017327 L65.3935644,91.3960396 L65.7574257,92.5222772 Z" id="路径" fill="#F8C190"></path>
                        <path d="M66.2933168,94.1831683 C65.2685644,94.4839109 63.1299505,94.6893564 60.6571782,94.6893564 C58.1844059,94.6893564 56.0457921,94.4839109 55.0210396,94.1831683 L55.3044554,93.3081683 L55.5581683,92.5173267 C56.5371287,92.7128713 58.0445545,92.8502475 59.779703,92.8886139 C60.0655941,92.8960396 60.3601485,92.8985149 60.6571782,92.8985149 C60.9542079,92.8985149 61.2487624,92.8985149 61.5371287,92.8886139 C63.269802,92.8539604 64.7784653,92.7165842 65.7574257,92.5173267 L66.0049505,93.3081683 L66.2933168,94.1831683 Z" id="路径" fill="#FF8F2C"></path>
                        <path d="M66.9405941,96.1893564 C66.9405941,96.4368812 64.1262376,96.6460396 60.6571782,96.6460396 C57.1881188,96.6460396 54.375,96.4418317 54.375,96.1893564 L54.375,96.1707921 L54.375,96.1707921 L55.0136139,94.1905941 C56.0383663,94.4913366 58.1782178,94.6967822 60.6497525,94.6967822 C63.1212871,94.6967822 65.2611386,94.4913366 66.2858911,94.1905941 L66.924505,96.1707921 L66.924505,96.1707921 L66.9405941,96.1893564 Z" id="路径" fill="#F8C190"></path>
                        <path d="M65.0086634,90.1967822 C62.1259642,90.6522282 59.1896298,90.6522282 56.3069307,90.1967822 L56.865099,88.4641089 C59.3827949,88.7941405 61.9327992,88.7941405 64.450495,88.4641089 L65.0086634,90.1967822 Z" id="路径" fill="#FF8F2C"></path>
                        <path d="M64.450495,88.4628713 C61.9327992,88.7929029 59.3827949,88.7929029 56.865099,88.4628713 L56.9059406,88.3391089 L57.5247525,86.4331683 L57.634901,86.0928218 C59.6457409,86.328798 61.6772789,86.328798 63.6881188,86.0928218 L63.7982673,86.4331683 L64.4170792,88.3391089 L64.450495,88.4628713 Z" id="路径" fill="#F8C190"></path>
                        <path d="M63.6844059,86.0866337 C61.6735661,86.3226099 59.642028,86.3226099 57.6311881,86.0866337 L58.25,84.1720297 C58.9925743,84.2425743 59.8069307,84.2821782 60.6596535,84.2821782 C61.5123762,84.2821782 62.3279703,84.2425743 63.0693069,84.1720297 L63.6844059,86.0866337 Z" id="路径" fill="#FF8F2C"></path>
                        <polygon id="路径" fill="#FF8F2C" points="95.7623762 85.2425743 107.059406 86.825495 117.779703 85.2425743 117.779703 84.2042079 95.7623762 84.2042079"></polygon>
                        <path d="M109.72896,74.1794554 C107.717706,74.4154266 105.685759,74.4154266 103.674505,74.1794554 L104.293317,72.2648515 C105.035891,72.335396 105.850248,72.375 106.70297,72.375 C107.555693,72.375 108.371287,72.335396 109.112624,72.2648515 L109.72896,74.1794554 Z" id="路径" fill="#F8C190"></path>
                        <path d="M111.053218,78.289604 C108.170389,78.7433981 105.234314,78.7433981 102.351485,78.289604 L102.909653,76.5569307 C105.426935,76.8869671 107.976531,76.8869671 110.493812,76.5569307 L111.053218,78.289604 Z" id="路径" fill="#F8C190"></path>
                        <path d="M106.701733,80.9839109 C106.404703,80.9839109 106.110149,80.9839109 105.824257,80.9752475 C106.110149,80.9690594 106.404703,80.9665842 106.701733,80.9665842 C106.998762,80.9665842 107.293317,80.9665842 107.581683,80.9752475 C107.293317,80.9814356 107.001238,80.9839109 106.701733,80.9839109 Z" id="路径" fill="#F8C190"></path>
                        <path d="M106.701733,80.9665842 C107.001238,80.9665842 107.293317,80.9665842 107.581683,80.9752475 C107.293317,80.9752475 107.001238,80.9839109 106.701733,80.9839109 C106.402228,80.9839109 106.110149,80.9839109 105.824257,80.9752475 C106.110149,80.9690594 106.404703,80.9665842 106.701733,80.9665842 Z" id="路径" fill="#F8C190"></path>
                        <path d="M107.581683,80.9752475 C107.293317,80.9752475 107.001238,80.9839109 106.701733,80.9839109 C106.402228,80.9839109 106.110149,80.9839109 105.824257,80.9752475 C106.110149,80.9690594 106.404703,80.9665842 106.701733,80.9665842 C106.998762,80.9665842 107.293317,80.9690594 107.581683,80.9752475 Z" id="路径" fill="#F8C190"></path>
                        <polygon id="路径" fill="#FFCDA0" points="95.7623762 84.2042079 107.034653 85.6509901 117.779703 84.2042079 107.011139 82.9158416"></polygon>
                        <path d="M109.111386,72.2648515 C108.368812,72.335396 107.555693,72.375 106.701733,72.375 C105.847772,72.375 105.034653,72.335396 104.292079,72.2648515 L104.52104,71.5569307 L105.173267,69.5284653 L106.29703,66.0457921 C106.35362,65.8697207 106.517409,65.7503223 106.702351,65.7503223 C106.887294,65.7503223 107.051083,65.8697207 107.107673,66.0457921 L108.230198,69.5284653 L108.883663,71.5569307 L109.111386,72.2648515 Z" id="路径" fill="#F8C190"></path>
                        <path d="M111.80198,80.6076733 C110.82302,80.8019802 109.315594,80.9405941 107.581683,80.9789604 C107.293317,80.9727723 107.001238,80.970297 106.701733,80.970297 C106.402228,80.970297 106.110149,80.970297 105.824257,80.9789604 C104.091584,80.9443069 102.581683,80.8056931 101.602723,80.6076733 L101.965347,79.4814356 L102.351485,78.289604 C105.234314,78.7433981 108.170389,78.7433981 111.053218,78.289604 L111.438119,79.4839109 L111.80198,80.6076733 Z" id="路径" fill="#F8C190"></path>
                        <path d="M112.337871,82.2735149 C111.313119,82.5730198 109.174505,82.779703 106.701733,82.779703 C104.22896,82.779703 102.090347,82.5730198 101.065594,82.2735149 L101.347772,81.3985149 L101.602723,80.6076733 C102.581683,80.8019802 104.089109,80.9405941 105.824257,80.9789604 C106.110149,80.9789604 106.404703,80.9876238 106.701733,80.9876238 C106.998762,80.9876238 107.293317,80.9876238 107.581683,80.9789604 C109.314356,80.9443069 110.82302,80.8056931 111.80198,80.6076733 L112.049505,81.3985149 L112.337871,82.2735149 Z" id="路径" fill="#FF8F2C"></path>
                        <path d="M112.985149,84.279703 C112.985149,84.5272277 110.170792,84.7351485 106.701733,84.7351485 C103.232673,84.7351485 100.419554,84.5309406 100.419554,84.279703 L100.425743,84.259901 L100.425743,84.259901 L101.064356,82.279703 C102.089109,82.5792079 104.22896,82.7858911 106.700495,82.7858911 C109.17203,82.7858911 111.311881,82.5792079 112.336634,82.279703 L112.975248,84.259901 L112.975248,84.259901 L112.985149,84.279703 Z" id="路径" fill="#F8C190"></path>
                        <path d="M111.053218,78.289604 C108.170389,78.7433981 105.234314,78.7433981 102.351485,78.289604 L102.909653,76.5569307 C105.426935,76.8869671 107.976531,76.8869671 110.493812,76.5569307 L111.053218,78.289604 Z" id="路径" fill="#FF8F2C"></path>
                        <path d="M110.493812,76.5569307 C107.976531,76.8869671 105.426935,76.8869671 102.909653,76.5569307 L102.950495,76.4331683 L103.569307,74.5272277 L103.678218,74.1881188 C105.689472,74.42409 107.721419,74.42409 109.732673,74.1881188 L109.842822,74.5272277 L110.461634,76.4331683 L110.493812,76.5569307 Z" id="路径" fill="#F8C190"></path>
                        <path d="M109.72896,74.1794554 C107.717706,74.4154266 105.685759,74.4154266 103.674505,74.1794554 L104.293317,72.2648515 C105.035891,72.335396 105.850248,72.375 106.70297,72.375 C107.555693,72.375 108.371287,72.335396 109.112624,72.2648515 L109.72896,74.1794554 Z" id="路径" fill="#FF8F2C"></path>
                        <polygon id="路径" fill="#FF8F2C" points="3.42821782 70.8985149 1.65470297 72.8527228 1.65470297 70.7747525"></polygon>
                        <polygon id="路径" fill="#FF8F2C" points="8.59034653 71.2574257 3.54826733 76.8131188 1.65470297 76.6769802 1.65470297 75.1336634 5.375 71.0334158"></polygon>
                        <polygon id="路径" fill="#FF8F2C" points="13.7537129 71.6163366 8.70173267 77.1831683 8.70049505 77.1831683 5.49009901 76.9529703 10.5371287 71.3923267"></polygon>
                        <polygon id="路径" fill="#FF8F2C" points="18.9158416 71.9752475 13.8527228 77.5544554 10.6435644 77.3242574 15.700495 71.7512376"></polygon>
                        <polygon id="路径" fill="#FF8F2C" points="24.0792079 72.3341584 19.0049505 77.924505 15.7970297 77.6943069 20.8626238 72.1113861"></polygon>
                        <polygon id="路径" fill="#FF8F2C" points="29.2425743 72.6930693 24.1584158 78.2945545 20.9492574 78.0631188 26.0259901 72.470297"></polygon>
                        <polygon id="路径" fill="#FF8F2C" points="34.4034653 73.0519802 29.3094059 78.6658416 26.1014851 78.4344059 31.1893564 72.8292079"></polygon>
                        <polygon id="路径" fill="#FF8F2C" points="36.2636139 73.2846535 36.2636139 77.0519802 34.4628713 79.0358911 31.2537129 78.8044554"></polygon>
                        <polygon id="路径" fill="#FF8F2C" points="36.2636139 85.3811881 36.2636139 87.8960396 34.1200495 87.7413366"></polygon>
                        <polygon id="路径" fill="#FF8F2C" points="36.2636139 81.9108911 36.2636139 83.1002475 32.1769802 87.6014851 28.9678218 87.3725248 34.0631188 81.7574257"></polygon>
                        <polygon id="路径" fill="#FF8F2C" points="32.115099 81.6225248 27.0247525 87.2314356 23.8143564 87.0012376 28.8997525 81.3985149"></polygon>
                        <polygon id="路径" fill="#FF8F2C" points="26.9517327 81.2636139 21.8725248 86.8613861 18.6621287 86.6311881 23.7363861 81.039604"></polygon>
                        <polygon id="路径" fill="#FF8F2C" points="21.789604 80.9059406 16.720297 86.4913366 13.5111386 86.259901 18.5730198 80.6819307"></polygon>
                        <polygon id="路径" fill="#FF8F2C" points="16.6274752 80.5470297 11.5668317 86.1212871 8.35767327 85.8898515 13.4108911 80.3230198"></polygon>
                        <polygon id="路径" fill="#FF8F2C" points="11.4641089 80.1868812 6.41584158 85.75 3.20544554 85.519802 8.24752475 79.9641089"></polygon>
                        <polygon id="路径" fill="#FF8F2C" points="6.30074257 79.8279703 1.65470297 84.9480198 1.65470297 81.1806931 3.08415842 79.605198"></polygon>
                        <polygon id="路径" fill="#F8C190" points="5.375 71.0334158 1.65470297 75.1336634 1.65470297 72.8527228 3.42821782 70.8985149"></polygon>
                        <polygon id="路径" fill="#F8C190" points="10.5371287 71.3923267 5.49009901 76.9529703 3.54826733 76.8131188 8.59034653 71.2574257"></polygon>
                        <polygon id="路径" fill="#F8C190" points="3.08415842 79.605198 1.65470297 81.1806931 1.65470297 79.5049505"></polygon>
                        <polygon id="路径" fill="#F8C190" points="15.700495 71.7512376 10.6435644 77.3242574 8.70173267 77.1831683 13.7537129 71.6163366"></polygon>
                        <polygon id="路径" fill="#F8C190" points="8.24752475 79.9641089 3.20544554 85.519802 1.65470297 85.4084158 1.65470297 84.9480198 6.30074257 79.8279703"></polygon>
                        <polygon id="路径" fill="#F8C190" points="20.8626238 72.1113861 15.7970297 77.6943069 15.7957921 77.6943069 13.8527228 77.5544554 18.9158416 71.9752475"></polygon>
                        <polygon id="路径" fill="#F8C190" points="13.4108911 80.3230198 8.35767327 85.8898515 6.41584158 85.75 11.4641089 80.1868812"></polygon>
                        <polygon id="路径" fill="#F8C190" points="26.0259901 72.470297 20.9492574 78.0631188 20.9480198 78.0631188 19.0049505 77.924505 24.0792079 72.3341584"></polygon>
                        <polygon id="路径" fill="#F8C190" points="18.5730198 80.6819307 13.5111386 86.259901 11.5668317 86.1212871 16.6274752 80.5470297"></polygon>
                        <polygon id="路径" fill="#F8C190" points="31.1893564 72.8292079 26.1014851 78.4344059 24.1584158 78.2945545 29.2425743 72.6930693"></polygon>
                        <polygon id="路径" fill="#F8C190" points="23.7363861 81.039604 18.6621287 86.6311881 16.720297 86.4913366 21.789604 80.9059406"></polygon>
                        <polygon id="路径" fill="#F8C190" points="36.2636139 73.1819307 36.2636139 73.2846535 31.2537129 78.8044554 29.3094059 78.6658416 34.4034653 73.0519802"></polygon>
                        <polygon id="路径" fill="#F8C190" points="28.8997525 81.3985149 23.8143564 87.0012376 21.8725248 86.8613861 26.9517327 81.2636139"></polygon>
                        <polygon id="路径" fill="#F8C190" points="36.2636139 77.0519802 36.2636139 79.1658416 34.4628713 79.0358911"></polygon>
                        <polygon id="路径" fill="#F8C190" points="34.0631188 81.7574257 28.9678218 87.3725248 27.0247525 87.2314356 32.115099 81.6225248"></polygon>
                        <polygon id="路径" fill="#F8C190" points="36.2636139 83.1002475 36.2636139 85.3811881 34.1200495 87.7413366 32.1769802 87.6014851"></polygon>
                        <polygon id="路径" fill="#FFD5AF" points="36.2636139 73.1819307 1.6460396 70.7747525 2.6299505 69.5705446 37.2462871 71.9777228"></polygon>
                        <polygon id="路径" fill="#FFDCBC" points="37.2462871 77.9616337 36.2636139 79.1658416 36.2636139 73.1819307 37.2462871 71.9777228"></polygon>
                        <polygon id="路径" fill="#FFD5AF" points="36.2636139 81.9121287 1.6460396 79.5049505 2.6299505 78.3019802 37.2462871 80.7091584"></polygon>
                        <polygon id="路径" fill="#FFDCBC" points="37.2462871 86.6918317 36.2636139 87.8960396 36.2636139 81.9121287 37.2462871 80.7091584"></polygon>
                    </g>
                </g>
            </g>
        </g>
    </g>
</svg>