<?xml version="1.0" encoding="UTF-8"?>
<svg width="120px" height="120px" viewBox="0 0 120 120" version="1.1" xmlns="http://www.w3.org/2000/svg" xmlns:xlink="http://www.w3.org/1999/xlink">
    <title>15-图标/2提示/3D提示/灰404</title>
    <g id="平台icon231127" stroke="none" stroke-width="1" fill="none" fill-rule="evenodd">
        <g id="平台icon231128" transform="translate(-40, -548)">
            <g id="15-图标/2提示/3D提示/灰404" transform="translate(40, 548)">
                <rect id="_mockplus_fix_" x="0" y="0" width="120" height="120"></rect>
                <rect id="_mockplus_fix_" x="0" y="0" width="120" height="120"></rect>
                <g id="404" transform="translate(12, 12)">
                    <rect id="矩形" x="0" y="1.06254624e-05" width="96" height="96"></rect>
                    <ellipse id="椭圆形" fill="#F4F4F4" fill-rule="nonzero" cx="40.636875" cy="86.9868856" rx="27.79875" ry="7.21875"></ellipse>
                    <path d="M72.84375,38.2650106 C72.06375,42.2428231 64.45875,43.5215731 55.6875,41.8040731 C46.91625,40.0865731 40.5121875,35.2556356 41.2921875,31.2787606 C42.0721875,27.3018856 48.519375,25.3528231 58.509375,27.3993856 C67.4371875,29.2293856 73.62,34.2871981 72.84375,38.2650106 Z" id="路径" fill="#F4F4F4" fill-rule="nonzero" opacity="0.6"></path>
                    <path d="M61.9425,13.4775106 C69.605625,15.2371981 76.441875,18.0318856 81.568125,21.1893856 C81.2578125,14.4084481 74.7328125,7.83563563 65.5153125,5.50594813 L66.24,3.07407313 C66.913125,3.12469813 67.58625,2.65876063 67.794375,1.98657313 C68.0521875,1.15876063 67.58625,0.278448125 66.763125,0.0712606255 C65.9296875,-0.187489375 65.049375,0.281260625 64.8421875,1.10719813 C64.6510176,1.77815164 64.9251571,2.49480881 65.5153125,2.86688563 L64.7390625,5.35126063 C55.6246875,3.33282313 47.02875,6.02344813 43.4578125,11.6137606 C48.9478125,11.4065731 55.31625,11.9765731 61.9453125,13.4775106" id="路径" fill="#C8C8C8" fill-rule="nonzero"></path>
                    <path d="M81.568125,21.2409481 C76.3903125,18.0318856 69.605625,15.2887606 61.9425,13.5290731 C55.3134375,11.9756356 48.945,11.4065731 43.455,11.6653231 C33.8240625,12.0787606 26.833125,15.1340731 25.6425,20.1028231 C24.4078125,25.4587606 30.1875,31.7034481 39.75,36.4687606 C44.2340625,38.7009481 49.5496875,40.6087606 55.3678125,41.9465731 C60.965625,43.2328231 66.375,43.8459481 71.244375,43.8506613 C82.2196875,43.8609481 90.410625,40.7700106 91.6659375,35.3193856 C92.701875,30.8165731 88.7146875,25.5937606 81.568125,21.2409481 Z M48.11625,18.9112606 C48.219375,17.9803231 49.9284375,17.4112606 51.999375,17.5659481 C54.0703125,17.7206356 55.6246875,18.5971981 55.573125,19.5346981 C55.4690625,20.4656356 53.76,21.0346981 51.6890625,20.8809481 C49.618125,20.7271981 48.06375,19.7915731 48.11625,18.9112606 Z M37.5,23.4150106 C35.53125,23.9325106 33.72,23.6728231 33.46125,22.7934481 C33.2025,21.9140731 34.651875,20.7750106 36.620625,20.2059481 C38.589375,19.6884481 40.3996875,19.9462606 40.659375,20.8265731 C40.9190625,21.7068856 39.46875,22.8975106 37.5,23.4150106 Z M72.1959375,38.1656356 C71.3671875,41.8415731 63.8578125,43.2384481 55.520625,41.3231356 C47.1834375,39.4078231 41.07375,34.8543856 41.9025,31.1784481 C42.73125,27.5025106 50.2396875,26.1065731 58.5759375,28.0209481 C66.9646875,29.9362606 73.02375,34.4915731 72.1959375,38.1656356 Z M73.1278125,24.7593856 C72.765,25.5871981 70.9528125,25.5871981 69.0365625,24.7593856 C67.1728125,23.9315731 65.9296875,22.5853231 66.2915625,21.7059481 C66.6534375,20.8265731 68.4675,20.8771981 70.3828125,21.7059481 C72.2990625,22.5871981 73.4896875,23.9325106 73.125,24.7603231 L73.1278125,24.7593856 Z M84.313125,37.0312606 C83.6915625,37.7034481 81.9825,37.0828231 80.480625,35.6334481 C78.97875,34.1840731 78.305625,32.5275106 78.9271875,31.8553231 C79.54875,31.1831356 81.2578125,31.8037606 82.75875,33.2531356 C84.2615625,34.6471981 84.9375,36.3543856 84.313125,37.0312606 Z" id="形状" fill="#EFEFEF" fill-rule="nonzero"></path>
                    <path d="M72.1959375,38.1656356 L72.1959375,38.1656356 C71.3671875,41.8415731 63.8578125,43.2384481 55.520625,41.3231356 C47.1834375,39.4078231 41.07375,34.8543856 41.9025,31.1784481 L12.84,86.9868856 L68.420625,86.9868856 L72.1959375,38.1656356 Z" id="路径" fill="#F4F4F4" fill-rule="nonzero" opacity="0.6"></path>
                    <path d="M83.7890625,57.1996981 C83.8667275,57.1996981 83.9296875,57.1367382 83.9296875,57.0590731 C83.9296875,56.9814081 83.8667275,56.9184481 83.7890625,56.9184481 C83.7113975,56.9184481 83.6484375,56.9814081 83.6484375,57.0590731 C83.6484375,57.1367382 83.7113975,57.1996981 83.7890625,57.1996981 L83.7890625,57.1996981 Z" id="路径" fill="#F4F4F4" fill-rule="nonzero"></path>
                    <g id="编组" transform="translate(62.4024, 54.135)" fill-rule="nonzero">
                        <polygon id="路径" fill="#838383" points="23.7285397 25.4784375 22.6279147 25.284375 24.6744772 25.6453125 25.7741647 25.839375"></polygon>
                        <polygon id="矩形" fill="#C8C8C8" transform="translate(18.4427, 17.1522) rotate(-80) translate(-18.4427, -17.1522)" points="11.1606518 16.5939529 25.7247143 16.5939529 25.7247143 17.7105154 11.1606518 17.7105154"></polygon>
                        <polygon id="路径" fill="#838383" points="9.64541469 22.995 8.54572719 22.8009375 16.6279147 24.2259375 17.7276022 24.42"></polygon>
                        <path d="M27.7044772,27.0975 C28.1835397,27.7865625 28.3663522,28.5496875 28.2332272,29.3071875 C28.0962156,30.1128233 27.6390126,30.8287249 26.9657272,31.291875 C26.3181461,31.7651497 25.5057833,31.9543625 24.7157272,31.8159375 L22.6747897,31.45875 L21.9032272,35.8303125 C21.7588522,36.6478125 21.2863522,37.32375 20.5363522,37.783125 C19.876817,38.2008225 19.0859562,38.3594622 18.3163522,38.2284375 C17.557021,38.088424 16.8833993,37.6549485 16.4413522,37.021875 C15.9567496,36.3793978 15.7614418,35.5641997 15.9022897,34.771875 L16.6729147,30.399375 L3.49447719,28.0734375 C2.97306369,27.97702 2.48912558,27.7363501 2.09760219,27.37875 C1.67732861,27.0155327 1.37776452,26.532829 1.23885219,25.995 C1.09376921,25.5206511 1.05976718,25.0192815 1.13947719,24.5296875 C1.22013253,24.0656179 1.40862885,23.6269706 1.68978969,23.2490625 L19.5351022,1.3265625 C20.2588522,0.42375 21.3107272,0.0375 22.4901022,0.245625 L24.9351022,0.676875 C25.7021015,0.817536105 26.3897938,1.23736574 26.8654147,1.8553125 C27.5591647,2.7271875 27.5882272,3.5653125 27.4916647,4.1146875 L23.7285397,25.4784375 L25.7741647,25.839375 C26.5616564,25.9794664 27.2583996,26.4335847 27.7044772,27.0975 L27.7044772,27.0975 Z M17.7276022,24.42 L20.2588522,10.07625 L9.64541469,22.995 L17.7276022,24.42" id="形状" fill="#E2E2E2"></path>
                        <polygon id="路径" fill="#838383" points="22.4929147 0.245625 21.3932272 0.0515625 23.8382272 0.4828125 24.9388522 0.676875"></polygon>
                        <path d="M16.4413522,37.021875 C15.9567496,36.3793978 15.7614418,35.5641997 15.9022897,34.771875 L16.6729147,30.399375 L15.5732272,30.20625 L14.8026022,34.5778125 C14.6617543,35.3701372 14.8570621,36.1853353 15.3416647,36.8278125 C15.7837118,37.460886 16.4573335,37.8943615 17.2166647,38.034375 L18.3163522,38.2284375 C17.557021,38.088424 16.8833993,37.6549485 16.4413522,37.021875 Z" id="路径" fill="#C8C8C8"></path>
                        <path d="M1.69260219,23.2490625 L19.5351022,1.3265625 C19.5794772,1.2721875 19.6244772,1.2196875 19.6701022,1.1690625 C19.6851022,1.1521875 19.7010397,1.13625 19.7169772,1.1203125 C19.7479147,1.0865625 19.7797897,1.05375 19.8107272,1.0265625 L19.8697897,0.973125 C19.8997897,0.9459375 19.9288522,0.9178125 19.9635397,0.8915625 L20.0282272,0.8390625 L20.1219772,0.76875 L20.1922897,0.7190625 C20.2222897,0.6975 20.2522897,0.676875 20.2860397,0.6571875 L20.3601022,0.61125 L20.4538522,0.556875 L20.5307272,0.5165625 C20.5626022,0.4996875 20.5944772,0.48375 20.6244772,0.46875 L20.7032272,0.433125 L20.8185397,0.38625 L20.8644772,0.369375 C20.9207272,0.34875 20.9769772,0.33 21.0341647,0.313125 L21.0613522,0.3065625 C21.1110397,0.2925 21.1607272,0.2803125 21.2113522,0.2690625 L21.2657272,0.256875 C21.3135397,0.2475 21.3594772,0.2390625 21.4110397,0.2315625 L21.4447897,0.2259375 C21.5041647,0.2178125 21.5641647,0.21125 21.6247897,0.20625 L21.6688522,0.20625 C21.7185397,0.20625 21.7691647,0.200625 21.8197897,0.1996875 L21.8638522,0.1996875 C21.9257272,0.1996875 21.9885397,0.1996875 22.0513522,0.1996875 L22.0888522,0.1996875 C22.1413522,0.1996875 22.1947897,0.2071875 22.2482272,0.2128125 L22.3016647,0.2184375 C22.3663522,0.226875 22.4310397,0.2353125 22.4976022,0.2475 L21.3932272,0.0525 C21.3276022,0.04125 21.2629147,0.031875 21.1972897,0.0234375 L21.1447897,0.0178125 C21.0913522,0.0121875 21.0379147,0.0075 20.9854147,0.0046875 L20.9479147,0.0046875 C20.8926022,0.0046875 20.8382272,0 20.7838522,0 L20.7163522,0 C20.6657272,0 20.6151022,0 20.5654147,0.0065625 L20.5213522,0.0065625 C20.4604147,0.01125 20.4004147,0.0178125 20.3404147,0.02625 L20.3076022,0.031875 C20.2766647,0.0365625 20.2457272,0.0403125 20.2138522,0.0459375 L20.1594772,0.058125 L20.1051022,0.069375 C20.0554147,0.080625 20.0057272,0.0928125 19.9560397,0.106875 L19.9288522,0.114375 C19.8716647,0.1303125 19.8144772,0.1490625 19.7591647,0.1696875 L19.7132272,0.1865625 L19.6419772,0.21375 L19.5979147,0.234375 L19.5182272,0.2690625 C19.4863522,0.285 19.4544772,0.3 19.4244772,0.316875 L19.3476022,0.3571875 L19.2538522,0.4115625 L19.1807272,0.4575 C19.1497897,0.4771875 19.1197897,0.4978125 19.0869772,0.519375 L19.0176022,0.5690625 C18.9866647,0.5915625 18.9576022,0.6159375 18.9238522,0.639375 C18.8901022,0.6628125 18.8797897,0.6740625 18.8591647,0.6928125 C18.8385397,0.7115625 18.7982272,0.74625 18.7654147,0.7734375 L18.7063522,0.8278125 C18.6744772,0.85875 18.6426022,0.8915625 18.6126022,0.9215625 C18.5966647,0.9384375 18.5807272,0.954375 18.5657272,0.97125 C18.5194772,1.021875 18.4744772,1.074375 18.4307272,1.12875 L0.59197719,23.055 C0.311778218,23.4327614 0.123368271,23.8705658 0.0416646895,24.33375 C-0.0376972007,24.8231061 -0.00337389597,25.3241622 0.14197719,25.798125 C0.280667728,26.3360488 0.58027019,26.8188144 1.00072719,27.181875 C1.24982324,27.4060751 1.53511216,27.5864411 1.84447719,27.7153125 C2.02244962,27.7889889 2.20791869,27.8430578 2.39760219,27.8765625 L3.49728969,28.070625 C2.97518082,27.975508 2.49023724,27.7357971 2.09760219,27.37875 C1.67732861,27.0155327 1.37776452,26.532829 1.23885219,25.995 C1.09376921,25.5206511 1.05976718,25.0192815 1.13947719,24.5296875 C1.22097065,24.0653718 1.41043868,23.6267052 1.69260219,23.2490625 L1.69260219,23.2490625 Z" id="路径" fill="#C8C8C8"></path>
                    </g>
                    <g id="编组" transform="translate(35.5011, 48.4031)" fill-rule="nonzero">
                        <path d="M20.7657885,10.096875 C20.5134021,9.00802478 19.9651088,8.01006616 19.1814135,7.213125 C18.8493313,6.86939457 18.4675876,6.57739861 18.0489135,6.346875 C17.4680871,6.03415658 16.8391299,5.82059628 16.187976,5.715 L15.0882885,5.5209375 C16.336101,5.7403125 17.3157885,6.2296875 18.081726,7.0209375 C18.8654213,7.81787866 19.4137146,8.81583728 19.666101,9.9046875 C19.9472655,11.0669923 19.9836609,12.2750648 19.772976,13.4521875 L17.804226,24.62625 C17.5994974,25.7898249 17.1547473,26.8980284 16.4982885,27.8803125 C15.8854804,28.822505 15.031087,29.583009 14.024226,30.0825 C13.9670385,30.110625 13.9089135,30.1378125 13.851726,30.1640625 L13.7945385,30.1884375 C13.7570385,30.204375 13.7195385,30.22125 13.681101,30.23625 C13.6426635,30.25125 13.577976,30.2765625 13.525476,30.2953125 L13.472976,30.315 C13.403601,30.339375 13.332351,30.361875 13.2620385,30.3834375 L13.2114135,30.3965625 C13.156101,30.4125 13.1007885,30.4275 13.045476,30.440625 L12.9676635,30.4584375 L12.824226,30.4884375 L12.7370385,30.504375 C12.6939135,30.511875 12.6507885,30.519375 12.6076635,30.525 L12.5139135,30.538125 L12.379851,30.553125 L12.2907885,30.5615625 L12.145476,30.5709375 L12.0639135,30.5709375 L11.8839135,30.5709375 L11.8332885,30.5709375 C11.749851,30.5709375 11.665476,30.5709375 11.5801635,30.564375 L11.506101,30.564375 C11.444226,30.564375 11.3814135,30.556875 11.318601,30.55125 L11.224851,30.5428125 C11.162976,30.5371875 11.1001635,30.5296875 11.037351,30.5221875 L10.954851,30.5109375 C10.8657885,30.49875 10.7757885,30.4846875 10.6839135,30.46875 L11.783601,30.6628125 C11.877351,30.67875 11.965476,30.6928125 12.0545385,30.705 L12.137976,30.7153125 C12.2007885,30.72375 12.2626635,30.73125 12.325476,30.736875 L12.419226,30.7453125 C12.4820385,30.7509375 12.544851,30.755625 12.606726,30.7584375 L12.6807885,30.763125 C12.766101,30.763125 12.850476,30.7696875 12.9339135,30.7696875 L12.9864135,30.7696875 L13.1645385,30.7696875 L13.2470385,30.765 L13.3914135,30.755625 L13.4851635,30.7471875 L13.619226,30.7321875 L13.712976,30.7190625 L13.842351,30.6984375 L13.8920385,30.6909375 L13.930476,30.6825 L14.072976,30.6525 L14.151726,30.6346875 C14.2070385,30.6215625 14.2614135,30.6065625 14.3157885,30.590625 C14.3326635,30.590625 14.350476,30.5821875 14.367351,30.5765625 C14.438601,30.5559375 14.5089135,30.5334375 14.5782885,30.5090625 L14.631726,30.489375 C14.6832885,30.470625 14.7357885,30.4509375 14.787351,30.4303125 L14.809851,30.421875 L14.903601,30.3825 L14.959851,30.358125 C15.017976,30.331875 15.0751635,30.3046875 15.132351,30.2765625 C16.139212,29.7770715 16.9936054,29.0165675 17.6064135,28.074375 C18.259626,27.089643 18.7011418,25.9799474 18.902976,24.815625 L20.871726,13.6415625 C21.0823235,12.4654173 21.0462486,11.2583443 20.7657885,10.096875 L20.7657885,10.096875 Z" id="路径" fill="#9CA3AD"></path>
                        <path d="M26.1564135,7.83375 C26.9071592,9.74714958 27.1122674,11.831335 26.7489135,13.854375 L24.4989135,26.6259375 C24.1512819,28.6471126 23.2449096,30.5306523 21.882351,32.0634375 C20.5337807,33.5978573 18.8199891,34.7673629 16.8995385,35.46375 C12.9766378,36.910873 8.57854005,36.1354755 5.38703845,33.4340625 C3.82064816,32.1226363 2.61048281,30.4371755 1.86860095,28.53375 C1.11383033,26.6286187 0.906343493,24.5505032 1.26953845,22.53375 L3.51953845,9.7621875 C3.86822524,7.74134994 4.7744645,5.8580867 6.13610095,4.3246875 C7.47831358,2.79325522 9.18218582,1.62178264 11.0926635,0.916875 C13.0186328,0.195764978 15.1036119,0.00822374218 17.127351,0.3740625 C19.1535798,0.723573238 21.0512437,1.60302583 22.6276635,2.923125 C24.2065066,4.22942526 25.4218746,5.92073704 26.1564135,7.83375 L26.1564135,7.83375 Z M18.902976,24.815625 L20.871726,13.6415625 C21.0823235,12.4654173 21.0462486,11.2583443 20.7657885,10.096875 C20.5134021,9.00802478 19.9651088,8.01006616 19.1814135,7.213125 C18.415476,6.425625 17.4357885,5.93625 16.187976,5.713125 C14.9401635,5.49 13.8639135,5.619375 12.891726,6.095625 C11.8881524,6.58267572 11.0370757,7.33518967 10.4307885,8.2715625 C9.76934175,9.26735575 9.32236577,10.389904 9.11828845,11.5678125 L7.14953845,22.741875 C6.94423719,23.9052924 6.9831872,25.0986954 7.26391345,26.24625 C7.51695945,27.3415547 8.05999655,28.3486182 8.83610095,29.161875 C9.58610095,29.953125 10.549851,30.4434375 11.791101,30.661875 C13.060476,30.8859375 14.1507885,30.755625 15.124851,30.2709375 C16.131712,29.7714465 16.9861054,29.0109425 17.5989135,28.06875 C18.2540558,27.0863113 18.6981122,25.9785644 18.902976,24.815625" id="形状" fill="#C2C6CC"></path>
                        <path d="M3.52047595,9.7584375 C3.86916274,7.73759994 4.775402,5.8543367 6.13703845,4.3209375 C6.21953845,4.2271875 6.30297595,4.1334375 6.38735095,4.04625 L6.47266345,3.9525 C6.52891345,3.8925 6.58610095,3.8334375 6.64328845,3.7753125 L6.74735095,3.673125 L6.90672595,3.5175 L7.02016345,3.4115625 L7.17672595,3.2690625 L7.29672595,3.163125 L7.45328845,3.0290625 C7.49453845,2.994375 7.53578845,2.9596875 7.57797595,2.9259375 C7.62016345,2.8921875 7.68297595,2.8396875 7.73641345,2.7975 L7.86485095,2.6971875 L8.02610095,2.5753125 C8.06922595,2.5425 8.11328845,2.510625 8.15735095,2.4815625 C8.20141345,2.4525 8.26703845,2.4028125 8.32235095,2.364375 C8.37766345,2.3259375 8.41141345,2.3015625 8.45641345,2.270625 C8.50141345,2.2396875 8.56985095,2.1946875 8.62703845,2.1571875 L8.76110095,2.07 L8.93828845,1.9603125 L9.07235095,1.87875 L9.25985095,1.771875 L9.39110095,1.696875 C9.45860095,1.659375 9.52610095,1.62375 9.59453845,1.588125 C9.63391345,1.5665625 9.67328845,1.545 9.71360095,1.524375 C9.79610095,1.48125 9.87953845,1.4409375 9.96391345,1.3996875 L10.0426635,1.3603125 C10.1532885,1.3078125 10.264851,1.25625 10.377351,1.2065625 L10.471101,1.168125 C10.5545385,1.1315625 10.6370385,1.0959375 10.720476,1.0621875 C10.846101,1.010625 10.971726,0.961875 11.095476,0.9140625 C11.2032885,0.87375 11.3120385,0.83625 11.419851,0.7996875 L11.498601,0.7725 C11.607351,0.736875 11.7151635,0.7021875 11.8239135,0.6703125 L11.8482885,0.6628125 C11.950476,0.6328125 12.0526635,0.60375 12.154851,0.5765625 L12.233601,0.5559375 C12.3414135,0.5278125 12.4501635,0.500625 12.5589135,0.47625 L12.6020385,0.466875 C12.6957885,0.444375 12.7989135,0.42375 12.897351,0.4040625 L12.974226,0.3890625 C13.0839135,0.3684375 13.1945385,0.34875 13.3051635,0.3309375 L13.354851,0.3234375 C13.448601,0.3084375 13.547976,0.2953125 13.645476,0.283125 L13.731726,0.271875 C13.8432885,0.25875 13.9539135,0.2465625 14.065476,0.23625 L14.091726,0.23625 C14.1957885,0.226875 14.299851,0.219375 14.404851,0.2128125 L14.492976,0.208125 C14.601726,0.2025 14.710476,0.1978125 14.819226,0.195 L14.8314135,0.195 C14.944851,0.195 15.057351,0.195 15.1707885,0.195 L15.254226,0.195 C15.362351,0.195 15.4701635,0.1978125 15.5776635,0.2034375 L15.5964135,0.2034375 C15.7089135,0.2090625 15.822351,0.215625 15.934851,0.2240625 L16.019226,0.230625 C16.129851,0.24 16.2414135,0.2503125 16.3520385,0.2625 L16.3614135,0.2625 C16.474851,0.2746875 16.589226,0.2896875 16.7026635,0.305625 L16.7870385,0.3178125 C16.9014135,0.3346875 17.0157885,0.3525 17.1301635,0.3721875 L16.030476,0.178125 C15.916101,0.1584375 15.801726,0.140625 15.687351,0.12375 L15.602976,0.1115625 C15.488601,0.095625 15.3751635,0.080625 15.261726,0.0684375 L15.252351,0.0684375 C15.141726,0.05625 15.0301635,0.0459375 14.9195385,0.0365625 L14.8351635,0.03 C14.721726,0.0215625 14.609226,0.015 14.4957885,0.009375 L14.4789135,0.009375 C14.3701635,0.009375 14.262351,0.001875 14.1545385,0 L13.994226,0 C13.9070385,0 13.8189135,0 13.731726,0 L13.7176635,0 C13.6089135,0 13.5001635,0.0065625 13.3914135,0.0121875 L13.3032885,0.0178125 C13.199226,0.0234375 13.0951635,0.0309375 12.9920385,0.0403125 L12.964851,0.0403125 C12.8532885,0.050625 12.741726,0.0628125 12.631101,0.0759375 L12.5439135,0.0871875 C12.4501635,0.099375 12.3507885,0.1134375 12.254226,0.1275 L12.2045385,0.135 C12.1107885,0.15 12.021726,0.165 11.9307885,0.181875 L11.873601,0.193125 L11.796726,0.2090625 C11.697351,0.2278125 11.5989135,0.2484375 11.500476,0.2709375 L11.4582885,0.2803125 C11.3495385,0.3046875 11.2407885,0.331875 11.132976,0.36 L11.054226,0.380625 C10.9520385,0.4078125 10.849851,0.436875 10.7476635,0.466875 L10.722351,0.474375 C10.6145385,0.50625 10.5057885,0.5409375 10.397976,0.5775 L10.319226,0.60375 C10.210476,0.6403125 10.1026635,0.6778125 9.99391345,0.718125 C9.86641345,0.7659375 9.74078845,0.811875 9.61891345,0.86625 L9.60110095,0.87375 C9.52235095,0.905625 9.44547595,0.939375 9.36766345,0.973125 L9.27953845,1.010625 C9.16703845,1.0603125 9.05547595,1.111875 8.94485095,1.164375 L8.86703845,1.2028125 C8.78266345,1.2440625 8.69922595,1.2853125 8.61578845,1.3284375 C8.57547595,1.3490625 8.53610095,1.370625 8.49672595,1.3921875 C8.42828845,1.4278125 8.35985095,1.4634375 8.29328845,1.5009375 L8.16297595,1.575 C8.10016345,1.610625 8.03735095,1.64625 7.97547595,1.6828125 L7.84235095,1.764375 L7.66516345,1.8740625 L7.53110095,1.96125 L7.35953845,2.0746875 L7.22735095,2.1684375 C7.17110095,2.2078125 7.11578845,2.24625 7.06141345,2.2865625 C7.00703845,2.326875 6.97328845,2.3503125 6.93016345,2.3803125 L6.76797595,2.5021875 L6.64047595,2.6025 L6.48110095,2.7309375 L6.35641345,2.8340625 C6.30391345,2.878125 6.25235095,2.923125 6.19985095,2.9690625 L6.07985095,3.0740625 C6.02735095,3.1209375 5.97578845,3.1678125 5.92422595,3.2175 L5.81078845,3.3225 C5.75641345,3.3740625 5.70391345,3.4265625 5.65047595,3.478125 C5.61672595,3.5128125 5.58110095,3.545625 5.54735095,3.5803125 C5.48922595,3.6384375 5.43297595,3.6984375 5.37578845,3.7584375 C5.34766345,3.7875 5.31860095,3.8165625 5.29047595,3.8465625 C5.20703845,3.9403125 5.12360095,4.0284375 5.04110095,4.12125 C3.67908768,5.65439833 2.77279408,7.5377745 2.42453845,9.55875 L0.174538451,22.3303125 C-0.189297985,24.3485896 0.018194486,26.428385 0.773600951,28.335 C1.51551275,30.2381445 2.72568623,31.9232942 4.29203845,33.234375 C5.85006192,34.5629392 7.73587686,35.4493532 9.75297595,35.80125 L10.8526635,35.9953125 C8.83553651,35.6435038 6.94969932,34.7570794 5.39172595,33.4284375 C3.82533566,32.1170113 2.61517031,30.4315505 1.87328845,28.528125 C1.11851783,26.6229937 0.911030993,24.5448782 1.27422595,22.528125 L3.52047595,9.7584375 Z" id="路径" fill="#9CA3AD"></path>
                    </g>
                    <g id="编组" transform="translate(2.8137, 42.5484)" fill-rule="nonzero">
                        <polygon id="路径" fill="#838383" points="23.7269714 25.479375 22.6272839 25.2853125 24.6738464 25.64625 25.7744714 25.839375"></polygon>
                        <polygon id="路径" fill="#838383" points="22.4941589 0.2465625 21.3935339 0.0525 23.8375964 0.4828125 24.9372839 0.676875"></polygon>
                        <path d="M16.4435339,37.021875 C15.958076,36.3797909 15.7623698,35.5643484 15.9035339,34.771875 L16.6741589,30.4003125 L15.5744714,30.2015625 L14.8038464,34.5740625 C14.6626501,35.3663975 14.8579911,36.181734 15.3429089,36.8240625 C15.543214,37.1015714 15.786598,37.3452719 16.0638464,37.5459375 C16.2160071,37.6550272 16.3783186,37.7492118 16.5485339,37.8271875 C16.5907214,37.8459375 16.6338464,37.86375 16.6769714,37.880625 C16.8511061,37.9492143 17.0317044,38.0000959 17.2160339,38.0325 L18.3166589,38.2265625 C17.5581233,38.0870336 16.8851296,37.6542024 16.4435339,37.021875 Z" id="路径" fill="#C8C8C8"></path>
                        <polygon id="矩形" fill="#C8C8C8" transform="translate(18.4425, 17.1525) rotate(-80) translate(-18.4425, -17.1525)" points="11.1604983 16.5941852 25.7245608 16.5941852 25.7245608 17.7107477 11.1604983 17.7107477"></polygon>
                        <polygon id="路径" fill="#838383" points="9.64478389 22.9959375 8.54509639 22.801875 16.6282214 24.226875 17.7279089 24.4209375"></polygon>
                        <path d="M27.7047839,27.0984375 C28.1838464,27.7875 28.3657214,28.5496875 28.2325964,29.3071875 C28.0961531,30.113051 27.6392557,30.8293417 26.9660339,31.2928125 C26.3194805,31.7644259 25.5092479,31.9535365 24.7207214,31.816875 L22.6732214,31.4559375 L21.9025964,35.8265625 C21.7582214,36.6440625 21.2857214,37.32 20.5366589,37.7784375 C19.8777836,38.1978435 19.0868458,38.3581688 18.3166589,38.2284375 C17.5569869,38.0886725 16.883173,37.6547364 16.4416589,37.0209375 C15.956201,36.3788534 15.7604948,35.5634109 15.9016589,34.7709375 L16.6722839,30.399375 L3.49384639,28.0734375 C2.97357391,27.9774907 2.49079975,27.7370782 2.10072139,27.3796875 C1.68044781,27.0164702 1.38088373,26.5337665 1.24197139,25.9959375 C1.0964551,25.5216685 1.06244625,25.0201983 1.14259639,24.530625 C1.22294721,24.0664649 1.41147283,23.6277494 1.69290889,23.25 L19.5391589,1.3265625 C20.2619714,0.42375 21.3138464,0.0375 22.4941589,0.245625 L24.9363464,0.676875 C25.703793,0.817644372 26.3918451,1.23782379 26.8675964,1.85625 C27.5604089,2.728125 27.5904089,3.5653125 27.4929089,4.115625 L23.7269714,25.4784375 L25.7744714,25.839375 C26.5618753,25.9803082 27.2584239,26.4346379 27.7047839,27.0984375 Z M17.7279089,24.4209375 L20.2591589,10.0771875 L9.64478389,22.9959375 L17.7279089,24.4209375" id="形状" fill="#E2E2E2"></path>
                        <path d="M21.3935339,0.0525 C21.3279089,0.0403125 21.2622839,0.031875 21.1975964,0.0234375 L21.1441589,0.0178125 C21.0916589,0.0121875 21.0382214,0.0075 20.9857214,0.0046875 L20.9482214,0.0046875 C20.8929089,0.0046875 20.8375964,0 20.7832214,0 L20.7175964,0 C20.6669714,0 20.6163464,0 20.5666589,0.005625 L20.5225964,0.005625 C20.4616589,0.0103125 20.4016589,0.016875 20.3416589,0.0253125 L20.3088464,0.03 L20.2150964,0.045 L20.1607214,0.05625 L20.1072839,0.0684375 C20.0566589,0.0796875 20.0069714,0.091875 19.9572839,0.1059375 L19.9300964,0.1125 C19.8729089,0.129375 19.8157214,0.148125 19.7604089,0.16875 L19.7144714,0.185625 L19.6432214,0.2128125 L19.5991589,0.2325 L19.5204089,0.268125 C19.4875964,0.283125 19.4557214,0.2990625 19.4266589,0.3159375 L19.3497839,0.35625 L19.2560339,0.410625 L19.1829089,0.4565625 C19.1519714,0.47625 19.1219714,0.496875 19.0891589,0.5184375 C19.0563464,0.54 19.0422839,0.5503125 19.0188464,0.568125 L18.9250964,0.6384375 L18.8604089,0.6909375 C18.8304089,0.7171875 18.7991589,0.744375 18.7666589,0.7725 C18.7469714,0.7903125 18.7272839,0.8071875 18.7085339,0.8259375 C18.6757214,0.8578125 18.6447839,0.890625 18.6147839,0.924375 C18.5997839,0.9403125 18.5838464,0.95625 18.5688464,0.973125 C18.5229089,1.02375 18.4750964,1.07625 18.4338464,1.130625 L0.592283894,23.0559375 C0.311123059,23.4338456 0.122626739,23.8724929 0.0419713943,24.3365625 C-0.037841507,24.8262093 -0.00351226563,25.3276729 0.142283894,25.801875 C0.281196226,26.339704 0.580760311,26.8224077 1.00103389,27.185625 C1.39111225,27.5430157 1.87388641,27.7834282 2.39415889,27.879375 L3.49384639,28.0734375 C2.97357391,27.9774907 2.49079975,27.7370782 2.10072139,27.3796875 C1.68044781,27.0164702 1.38088373,26.5337665 1.24197139,25.9959375 C1.0964551,25.5216685 1.06244625,25.0201983 1.14259639,24.530625 C1.22294721,24.0664649 1.41147283,23.6277494 1.69290889,23.25 L19.5391589,1.3265625 C19.5832214,1.2721875 19.6282214,1.2196875 19.6741589,1.168125 L19.7200964,1.1203125 C19.7519714,1.0865625 19.7829089,1.05375 19.8138464,1.021875 C19.8447839,0.99 19.8522839,0.98625 19.8719714,0.9684375 L19.9657214,0.886875 C19.9872839,0.8690625 20.0088464,0.85125 20.0313464,0.834375 C20.0538464,0.8175 20.0904089,0.7865625 20.1250964,0.7640625 C20.1597839,0.7415625 20.1719714,0.7303125 20.1954089,0.714375 L20.2891589,0.6515625 L20.3632214,0.6065625 C20.3941589,0.5878125 20.4250964,0.5690625 20.4569714,0.5521875 L20.5338464,0.5109375 L20.6275964,0.4640625 L20.7063464,0.4284375 L20.8216589,0.3815625 L20.8675964,0.3646875 C20.9238464,0.3440625 20.9800964,0.3253125 21.0382214,0.3084375 L21.0644714,0.301875 C21.1141589,0.2878125 21.1638464,0.2746875 21.2144714,0.2634375 L21.2688464,0.2521875 C21.3166589,0.2428125 21.3625964,0.2334375 21.4141589,0.2259375 L21.4479089,0.2259375 C21.5066589,0.2171875 21.5666589,0.210625 21.6279089,0.20625 L21.6719714,0.20625 C21.7225964,0.20625 21.7722839,0.200625 21.8238464,0.1996875 L21.8669714,0.1996875 C21.9297839,0.1996875 21.9916589,0.1996875 22.0544714,0.204375 L22.0919714,0.204375 L22.2513464,0.2184375 L22.3038464,0.2240625 C22.3694714,0.2325 22.4341589,0.2409375 22.5007214,0.253125 L21.3935339,0.0525 Z" id="路径" fill="#C8C8C8"></path>
                    </g>
                </g>
            </g>
        </g>
    </g>
</svg>