<?xml version="1.0" encoding="UTF-8"?>
<svg width="150px" height="150px" viewBox="0 0 150 150" version="1.1" xmlns="http://www.w3.org/2000/svg" xmlns:xlink="http://www.w3.org/1999/xlink">
    <title>15-图标/2提示/3D提示/蓝500</title>
    <g id="平台icon231127" stroke="none" stroke-width="1" fill="none" fill-rule="evenodd">
        <g id="平台icon231128" transform="translate(-230, -728)">
            <g id="15-图标/2提示/3D提示/蓝500" transform="translate(230, 728)">
                <rect id="_mockplus_fix_" x="0" y="0" width="150" height="150"></rect>
                <rect id="_mockplus_fix_" x="0" y="0" width="150" height="150"></rect>
                <g id="500" transform="translate(15, 31)" fill-rule="nonzero">
                    <g id="500_画板-1">
                        <ellipse id="椭圆形" fill="#C9D7F1" cx="60" cy="77.8578306" rx="60" ry="10.1421694"></ellipse>
                        <polygon id="路径" fill="#D4E1F8" points="56.8148438 57.2028241 46.0054688 64.1160676 45.8941406 64.1878477 45.684375 64.321994 45.5742188 64.3925973 36.5414063 70.1703038 36.4242188 70.245614 36.2132813 70.3797604 36.0984375 70.4538939 27.9117188 75.6903081 24.2144531 58.8125802 24.159375 58.5584082 20.6261719 42.4302525 20.56875 42.1654899 17.1785156 26.6880616 24.6175781 18.6792897 24.8109375 18.4710098 32.7222656 9.95271716 32.9132813 9.74679076 41.9671875 0 46.7683594 18.4980745 46.8328125 18.7451861 37.1460938 27.5 41.3625 45.1814292 51.6152344 37.2091356 51.6257813 37.2091356 51.6878906 37.4503637"></polygon>
                        <polygon id="路径" fill="#E6EFFE" points="91.6042969 19.8513051 78.1558594 19.4806376 78.1546875 19.4806376 77.9085938 19.4735772 63.54375 19.0781985 63.2976563 19.0711382 46.8 18.6169234 46.7683594 18.4980745 41.9671875 0 58.4085938 1.59563543 58.659375 1.6203466 72.9960938 3.01240907 73.246875 3.03712024 86.5113281 4.32445443 91.565625 19.7324561"></polygon>
                        <polygon id="路径" fill="#E6EFFE" points="102.748828 53.8232777 88.875 54.8434959 88.7132812 54.8564399 88.4730469 54.8740907 88.3101563 54.8858579 74.00625 55.9378477 73.8574219 55.9484382 73.6183594 55.966089 73.4671875 55.9778562 56.8148437 57.2028241 51.6878906 37.4503637 51.65625 37.3268079 51.6257812 37.2091356 51.6539062 37.2091356 68.278125 36.8761232 68.5207031 36.8714163 83.0144531 36.5807659 83.2570312 36.5760591 97.0007813 36.300706 97.0769531 36.533697"></polygon>
                        <polygon id="路径" fill="#98B5F3" points="91.6042969 19.8513051 80.3707031 26.9022251 80.3695313 26.9022251 80.1644531 27.0304878 79.9886719 27.1410997 49.0710937 27.3693838 37.0160156 27.4588147 46.8 18.6169234 63.2976562 19.0711382 63.54375 19.0781985 77.9085938 19.4735772 78.1546875 19.4806376 78.1558594 19.4806376"></polygon>
                        <polygon id="路径" fill="#E6EFFE" points="79.9886719 27.1410997 37.0160156 27.4588147 41.2910156 45.3861789 51.65625 37.3268079 82.7835937 36.7019683"></polygon>
                        <polygon id="路径" fill="#98B5F3" points="102.748828 53.8232777 90.6328125 59.9798887 90.0644531 60.2681857 79.4601562 65.6563971 78.8753906 65.9541078 70.2773438 70.322101 57.8460937 71.8977321 57.2109375 71.9777493 42.9632812 73.7828412 42.35625 73.8605049 27.9117187 75.6903081 36.0984375 70.4538939 36.2132812 70.3797604 36.4242187 70.245614 36.5414062 70.1703038 45.5742187 64.3925973 45.684375 64.321994 45.8941406 64.1878477 46.0054687 64.1160676 56.8148437 57.2028241 73.4671875 55.9778562 73.6183594 55.966089 73.8574219 55.9484382 74.00625 55.9378477 88.3101563 54.8858579 88.4730469 54.8740907 88.7132812 54.8564399 88.875 54.8434959"></polygon>
                        <polygon id="路径" fill="#C8D7F0" points="58.659375 1.6203466 58.4085938 1.59563543 63.2648438 18.9522893 63.2976563 19.0711382 63.54375 19.0781985 63.5097656 18.9593496"></polygon>
                        <polygon id="路径" fill="#C8D7F0" points="68.5863281 37.1044074 68.5207031 36.8714163 68.278125 36.8761232 68.34375 37.110291 73.6007812 55.9013693 73.6183594 55.966089 73.8574219 55.9484382 73.8105469 55.7801669"></polygon>
                        <polygon id="路径" fill="#C8D7F0" points="73.246875 3.03712024 72.9960938 3.01240907 77.8734375 19.3547283 77.9085938 19.4735772 78.1546875 19.4806376 78.1195312 19.3617886"></polygon>
                        <polygon id="路径" fill="#C8D7F0" points="88.6640625 54.690522 83.3273437 36.8090501 83.2570312 36.5760591 83.0144531 36.5807659 83.0835937 36.8149337 88.453125 54.8070175 88.4730469 54.8740907 88.7132812 54.8564399"></polygon>
                        <path d="M90.0644531,60.2681857 L90.6328125,59.9798887 L77.2734375,61.2178006 L88.5175781,55.0376551 L88.7285156,54.9199829 L88.8703125,54.8411425 L88.7085938,54.8540864 L88.4742188,54.8717373 L88.3113281,54.8835045 L76.6910156,61.2695764 L62.4269531,62.5922122 L73.6652344,56.1320068 L73.875,56.0143346 L74.00625,55.9390244 L73.8574219,55.9496149 L73.6230469,55.9672657 L73.471875,55.9790329 L61.8703125,62.6475182 L46.0054688,64.1219512 L45.8941406,64.1937313 L45.684375,64.3278776 L45.5742188,64.398481 L45.6984375,64.3867137 L45.9328125,64.3655327 L61.3734375,62.9334617 L51.515625,68.5934959 L36.5414063,70.1703038 L36.4242188,70.245614 L36.2132813,70.3797604 L36.0960938,70.4538939 L36.225,70.4397732 L36.459375,70.415062 L51.009375,68.8853231 L42.3539063,73.8605049 L42.9609375,73.7828412 L51.5894531,68.8288404 L65.6378906,67.3461703 L57.2109375,71.9777493 L57.8460938,71.8977321 L66.2425781,67.2826273 L78.8753906,65.9541078 L79.4613281,65.6563971 L66.7734375,66.9908002 L76.7578125,61.5013907 L90.0644531,60.2681857 Z M66.16875,67.0543432 L52.0933594,68.5346598 L61.9371094,62.8758023 L76.171875,61.5566966 L66.16875,67.0543432 Z" id="形状" fill="#7793BF"></path>
                        <path d="M41.4222656,45.4332478 L51.6878906,37.4503637 L51.6152344,37.2150193 L41.3671875,45.1767223 L37.1484375,27.5 L46.8351563,18.7451861 L46.7707031,18.4980745 L46.7578125,18.4980745 L37.0851563,27.2399444 L32.9132813,9.74679076 L32.7222656,9.95271716 L36.8859375,27.4188062 L28.5152344,34.9839538 L24.8109375,18.4710098 L24.6175781,18.6792897 L28.3148438,35.165169 L20.56875,42.1654899 L20.6261719,42.4302525 L28.3746094,35.4275781 L32.165625,52.3323706 L24.159375,58.5584082 L24.2144531,58.8125802 L32.2265625,52.5900727 L36.1757813,70.2091356 L36.2132813,70.3797604 L36.4242188,70.245614 L36.4101563,70.1844245 L32.4257813,52.4265083 L41.2148438,45.5909285 L45.6398438,64.1501926 L45.6808594,64.321994 L45.890625,64.1878477 L45.8765625,64.1278348 L41.4222656,45.4332478 Z M32.3707031,52.1735131 L28.5738281,35.2475396 L36.9480469,27.6788618 L41.1585938,45.3402867 L32.3707031,52.1735131 Z" id="形状" fill="#B6C7E0"></path>
                        <polygon id="矩形" fill="#C8D7F0" transform="translate(68.5572, 32.0934) rotate(-16.5) translate(-68.5572, -32.0934)" points="68.4456985 27.0306141 68.6801517 27.0303501 68.668789 37.1562098 68.4343358 37.1564738"></polygon>
                        <polygon id="矩形" fill="#6A84B7" transform="translate(72.5541, 23.3542) rotate(-35.46) translate(-72.5541, -23.3542)" points="65.8817891 23.2497227 79.2269037 23.2236751 79.2264456 23.4586933 65.881331 23.4847409"></polygon>
                        <polygon id="矩形" fill="#C8D7F0" transform="translate(54.486, 32.3133) rotate(-14.75) translate(-54.486, -32.3133)" points="54.374037 27.1754694 54.6084749 27.1752307 54.59805 37.4511553 54.3636121 37.451394"></polygon>
                        <polygon id="矩形" fill="#6A84B7" transform="translate(58.2915, 23.1991) rotate(-38.9) translate(-58.2915, -23.1991)" points="51.7208898 23.0948832 64.8626031 23.0683609 64.8621293 23.303323 51.720416 23.3298454"></polygon>
                        <polygon id="路径" fill="#D4E1F8" points="55.134375 33.2694694 53.30625 34.1649551 51.0410156 36.300706 50.1175781 32.9823492 52.4214844 30.8571887 53.071875 31.525567 53.7246094 33.1929825"></polygon>
                        <polygon id="路径" fill="#98B5F3" points="60.1582031 27.4588147 57.6398438 29.6039795 49.3253906 29.6804664 51.7558594 27.5164741"></polygon>
                        <polygon id="路径" fill="#8098CA" points="60.6597656 24.6170304 54.3738281 24.6170304 53.6144531 21.2539581 62.8757812 22.4142062"></polygon>
                        <polygon id="路径" fill="#C4D2EC" points="50.034375 20.906825 47.653125 23.2037869 46.5761719 22.2588789 48.8636719 19.9395593 48.9339844 19.9513265"></polygon>
                        <polygon id="路径" fill="#D4E1F8" points="51.7558594 27.5164741 49.3253906 29.6804664 47.653125 23.2037869 50.034375 20.906825"></polygon>
                        <polygon id="路径" fill="#D4E1F8" points="61.2035156 31.7350235 58.1355469 31.7350235 57.6398438 29.6039795 60.1582031 27.4588147"></polygon>
                        <polygon id="路径" fill="#98B5F3" points="65.1609375 33.8119384 62.3695312 36.152439 55.1859375 36.2465768 51.0410156 36.300706 53.30625 34.1649551 55.134375 33.2694694"></polygon>
                        <path d="M64.4367188,34.0543432 C63.0070313,34.0543432 53.3039062,34.1649551 53.3039062,34.1649551 C53.3039062,34.1649551 52.6441406,31.5137997 52.4683594,31.1384253 C52.2925781,30.7630509 52.5128906,30.7854086 52.6886719,30.8289474 C52.8644531,30.8724861 53.5089844,31.3478819 53.6671875,31.7350235 L61.2011719,31.7350235 L60.1558594,27.4588147 L51.7535156,27.5164741 L50.0390625,20.906825 L48.9386719,19.9513265 L50.2101563,20.1607831 L62.2863281,20.4255456 L62.8804688,22.4142062 L54.609375,22.4142062 C54.609375,22.4142062 54.8730469,24.4464056 55.3125,25.1089003 L63.4746094,25.2195122 C63.4746094,25.2195122 63.7089844,25.2406932 63.8261719,25.7490372 C63.9433594,26.2573813 65.6519531,32.0915704 65.6519531,32.0915704 C65.6519531,32.0915704 65.8664063,34.0543432 64.4367188,34.0543432 Z" id="路径" fill="#FFFFFF"></path>
                        <path d="M86.4105469,33.3659606 L83.5980469,34.0378691 L81.290625,35.8876765 L78.1265625,24.6876337 C78.0914855,24.5402662 78.0679758,24.3903626 78.05625,24.2393025 L80.7515625,21.7517116 L81.80625,24.8511981 L84.1828125,33.3165383 L86.4105469,33.3659606 Z" id="路径" fill="#D4E1F8"></path>
                        <polygon id="路径" fill="#8098CA" points="85.2199219 25.31365 83.8558594 25.31365 84.1148438 22.4918699 87.9761719 23.1120026"></polygon>
                        <polygon id="路径" fill="#D4E1F8" points="90.3960938 31.5573385 87.0058594 31.9338896 85.2199219 25.31365 87.9761719 23.1120026"></polygon>
                        <path d="M80.75625,21.7517116 L78.0609375,24.2393025 C78.0375,23.9380616 78.0609375,23.5544501 78.2554688,23.3320496 C78.6222656,22.9225503 80.5734375,21.203359 80.5734375,21.203359 L80.75625,21.7517116 Z" id="路径" fill="#C3D3ED"></path>
                        <polygon id="路径" fill="#98B5F3" points="93.7875 33.5330552 90.8226563 35.8441378 87.9585938 35.8570817 81.2894531 35.8876765 83.596875 34.0390458 86.4105469 33.3659606 87.9585938 33.4012623"></polygon>
                        <path d="M94.1285156,32.2327771 C93.73125,30.8089431 90.9210938,21.2821994 90.9210938,21.2821994 L80.8042969,21.0115533 C80.8042969,21.0115533 80.1773438,21.2821994 80.428125,22.2706461 C80.6789063,23.2590929 83.5921875,34.0378691 83.5921875,34.0378691 L92.8160156,34.0378691 C92.8160156,34.0378691 94.5257813,33.6554343 94.1285156,32.2327771 Z M86.784375,31.6197047 L84.3609375,23.0543432 L87.9761719,23.1167095 L90.3960938,31.5620454 L86.784375,31.6197047 Z" id="形状" fill="#FFFFFF"></path>
                        <path d="M72.4441406,33.465982 L69.4851563,34.1649551 L67.0582031,36.0865426 L63.7335937,24.4464056 C63.6968594,24.2936592 63.6721736,24.1382427 63.6597656,23.9816003 L66.4980469,21.3928113 L67.6042969,24.6146769 L70.1039062,33.4094994 L72.4441406,33.465982 Z" id="路径" fill="#D4E1F8"></path>
                        <polygon id="路径" fill="#8098CA" points="71.465625 24.8817929 70.0300781 24.8817929 70.0300781 22.1647411 74.090625 22.8095849"></polygon>
                        <polygon id="路径" fill="#D4E1F8" points="76.6359375 31.5867565 73.4613281 31.6502995 71.465625 24.8817929 74.090625 22.8095849"></polygon>
                        <path d="M66.4980469,21.3951647 L63.6597656,23.9839538 C63.6351562,23.6697689 63.6597656,23.2720368 63.8648437,23.042576 C64.2503906,22.6177792 66.3023437,20.830338 66.3023437,20.830338 L66.4980469,21.3951647 Z" id="路径" fill="#C3D3ED"></path>
                        <polygon id="路径" fill="#98B5F3" points="80.2019531 33.6401369 77.0847656 36.0418271 74.071875 36.0547711 67.0582031 36.0865426 69.4851563 34.1649551 72.4441406 33.465982 74.071875 33.5024604"></polygon>
                        <path d="M80.5605469,32.2869063 C80.1433594,30.8077664 77.1867188,20.906825 77.1867188,20.906825 L66.5484375,20.6244116 C66.5484375,20.6244116 65.8886719,20.906825 66.1523438,21.9329268 C66.4160156,22.9590287 69.4851563,34.1708387 69.4851563,34.1708387 L79.1859375,34.1708387 C79.1859375,34.1708387 80.9765625,33.762516 80.5605469,32.2869063 Z M72.8378906,31.6444159 L70.2878906,22.7401583 L74.090625,22.804878 L76.640625,31.5867565 L72.8378906,31.6444159 Z" id="形状" fill="#FFFFFF"></path>
                        <polygon id="路径" fill="#FF8F2C" points="5.37773437 76.2351305 16.0746094 77.7401583 26.2253906 76.2351305 26.2253906 75.2478605 5.37773437 75.2478605"></polygon>
                        <path d="M18.6023438,65.7164099 C16.6979608,65.9411682 14.7739142,65.9411682 12.8695313,65.7164099 L13.4554688,63.8960205 C14.1585938,63.9630937 14.9296875,64.0007488 15.7371094,64.0007488 C16.5445313,64.0007488 17.3167969,63.9630937 18.01875,63.8960205 L18.6023438,65.7164099 Z" id="路径" fill="#F8C190"></path>
                        <path d="M19.85625,69.6243047 C17.1266018,70.056155 14.3464451,70.056155 11.6167969,69.6243047 L12.1453125,67.9768935 C14.5288378,68.2910792 16.9430372,68.2910792 19.3265625,67.9768935 L19.85625,69.6243047 Z" id="路径" fill="#F8C190"></path>
                        <path d="M15.7359375,72.1860291 C15.4546875,72.1860291 15.1757812,72.1860291 14.9050781,72.177792 C15.1757812,72.1719084 15.4546875,72.169555 15.7359375,72.169555 C16.0171875,72.169555 16.2960938,72.169555 16.5691406,72.177792 C16.2960938,72.1836757 16.0195312,72.1860291 15.7359375,72.1860291 Z" id="路径" fill="#F8C190"></path>
                        <path d="M15.7359375,72.169555 C16.0195312,72.169555 16.2960938,72.169555 16.5691406,72.177792 C16.2960938,72.177792 16.0195313,72.1860291 15.7359375,72.1860291 C15.4523437,72.1860291 15.1757812,72.1860291 14.9050781,72.177792 C15.1757812,72.1719084 15.4546875,72.169555 15.7359375,72.169555 Z" id="路径" fill="#F8C190"></path>
                        <path d="M16.5691406,72.177792 C16.2960938,72.177792 16.0195313,72.1860291 15.7359375,72.1860291 C15.4523437,72.1860291 15.1757812,72.1860291 14.9050781,72.177792 C15.1757812,72.1719084 15.4546875,72.169555 15.7359375,72.169555 C16.0171875,72.169555 16.2960938,72.1719084 16.5691406,72.177792 Z" id="路径" fill="#F8C190"></path>
                        <polygon id="路径" fill="#FFCDA0" points="5.37773437 75.2478605 16.0511719 76.6234489 26.2253906 75.2478605 16.0289062 74.0228926"></polygon>
                        <path d="M18.0175781,63.8960205 C17.3144531,63.9630937 16.5445313,64.0007488 15.7359375,64.0007488 C14.9273438,64.0007488 14.1574219,63.9630937 13.4542969,63.8960205 L13.6710938,63.2229354 L14.2886719,61.2978177 L15.3515625,57.982991 C15.420335,57.7705738 15.6470763,57.6538422 15.8589844,57.7217587 C15.9827354,57.7613621 16.0797003,57.8587281 16.1191406,57.982991 L17.1832031,61.2978177 L17.8019531,63.2264656 L18.0175781,63.8960205 Z" id="路径" fill="#F8C190"></path>
                        <path d="M20.5652344,71.8283055 C19.6382813,72.0130509 18.2109375,72.1448438 16.5691406,72.1813222 C16.2960938,72.1813222 16.0195313,72.1730852 15.7359375,72.1730852 C15.4523438,72.1730852 15.1757813,72.1730852 14.9050781,72.1813222 C13.2644531,72.148374 11.8347656,72.0165811 10.9078125,71.8283055 L11.2511719,70.7574882 L11.6167969,69.6243047 C14.3464451,70.056155 17.1266018,70.056155 19.85625,69.6243047 L20.2207031,70.7598417 L20.5652344,71.8283055 Z" id="路径" fill="#F8C190"></path>
                        <path d="M21.0726563,73.4180573 C20.1023438,73.7028241 18.0773438,73.8993368 15.7359375,73.8993368 C13.3945313,73.8993368 11.3671875,73.6969405 10.3992188,73.4180573 L10.6640625,72.5802311 L10.9054688,71.8283055 C11.8324219,72.0130509 13.2597656,72.1448438 14.9027344,72.1813222 C15.1734375,72.1813222 15.4523438,72.1895593 15.7335938,72.1895593 C16.0148438,72.1895593 16.29375,72.1895593 16.5667969,72.1813222 C18.2074219,72.148374 19.6359375,72.0165811 20.5628906,71.8283055 L20.7972656,72.5802311 L21.0726563,73.4180573 Z" id="路径" fill="#FF8F2C"></path>
                        <path d="M21.6855469,75.3196406 C21.6855469,75.554985 19.0207031,75.7526744 15.7359375,75.7526744 C12.4511719,75.7526744 9.7875,75.5585152 9.7875,75.3196406 L9.7875,75.300813 L9.7875,75.300813 L10.3921875,73.4180573 C11.3625,73.7028241 13.3886719,73.8993368 15.7289063,73.8993368 C18.0691406,73.8993368 20.0953125,73.7028241 21.065625,73.4180573 L21.6796875,75.300813 L21.6796875,75.300813 L21.6855469,75.3196406 Z" id="路径" fill="#F8C190"></path>
                        <path d="M19.85625,69.6243047 C17.1266018,70.056155 14.3464451,70.056155 11.6167969,69.6243047 L12.1453125,67.9768935 C14.5288378,68.2910792 16.9430372,68.2910792 19.3265625,67.9768935 L19.85625,69.6243047 Z" id="路径" fill="#FF8F2C"></path>
                        <path d="M19.3265625,67.9768935 C16.9430372,68.2910792 14.5288378,68.2910792 12.1453125,67.9768935 L12.1839844,67.8592212 L12.7699219,66.0470689 L12.8730469,65.724647 C14.7774299,65.9494053 16.7014764,65.9494053 18.6058594,65.724647 L18.7101562,66.0470689 L19.2960937,67.8592212 L19.3265625,67.9768935 Z" id="路径" fill="#F8C190"></path>
                        <path d="M18.6023438,65.7164099 C16.6979608,65.9411682 14.7739142,65.9411682 12.8695313,65.7164099 L13.4554688,63.8960205 C14.1585938,63.9630937 14.9296875,64.0007488 15.7371094,64.0007488 C16.5445313,64.0007488 17.3167969,63.9630937 18.01875,63.8960205 L18.6023438,65.7164099 Z" id="路径" fill="#FF8F2C"></path>
                        <polygon id="路径" fill="#FF8F2C" points="47.6777344 83.1001284 58.3746094 84.6051562 68.5253906 83.1001284 68.5253906 82.1128584 47.6777344 82.1128584"></polygon>
                        <path d="M60.9011719,72.5814078 C58.9967889,72.8061661 57.0727424,72.8061661 55.1683594,72.5814078 L55.7542969,70.7610184 C56.4574219,70.8280916 57.2296875,70.8657467 58.0359375,70.8657467 C58.8421875,70.8657467 59.615625,70.8280916 60.3175781,70.7610184 L60.9011719,72.5814078 Z" id="路径" fill="#F8C190"></path>
                        <path d="M62.1550781,76.4893025 C59.4254299,76.9211529 56.6452732,76.9211529 53.915625,76.4893025 L54.4453125,74.8418913 C56.8288378,75.156077 59.2430372,75.156077 61.6265625,74.8418913 L62.1550781,76.4893025 Z" id="路径" fill="#F8C190"></path>
                        <path d="M58.0359375,79.051027 C57.7535156,79.051027 57.4746094,79.051027 57.2039063,79.0427899 C57.4746094,79.0427899 57.7535156,79.0345528 58.0359375,79.0345528 C58.3183594,79.0345528 58.5960938,79.0345528 58.8691406,79.0427899 C58.59375,79.0486735 58.3183594,79.051027 58.0359375,79.051027 Z" id="路径" fill="#F8C190"></path>
                        <path d="M58.0359375,79.0345528 C58.3183594,79.0345528 58.5960938,79.0345528 58.8691406,79.0427899 C58.5949219,79.0427899 58.3183594,79.051027 58.0359375,79.051027 C57.7535156,79.051027 57.4746094,79.051027 57.2039063,79.0427899 C57.4746094,79.0369063 57.7535156,79.0345528 58.0359375,79.0345528 Z" id="路径" fill="#F8C190"></path>
                        <path d="M58.8691406,79.0427899 C58.5949219,79.0427899 58.3183594,79.051027 58.0359375,79.051027 C57.7535156,79.051027 57.4746094,79.051027 57.2039063,79.0427899 C57.4746094,79.0427899 57.7535156,79.0345528 58.0359375,79.0345528 C58.3183594,79.0345528 58.59375,79.0369063 58.8691406,79.0427899 Z" id="路径" fill="#F8C190"></path>
                        <polygon id="路径" fill="#FFCDA0" points="47.6777344 82.1128584 58.3511719 83.4884467 68.5253906 82.1128584 58.3289062 80.8878905"></polygon>
                        <path d="M60.3164063,70.7610184 C59.6132813,70.8280916 58.8433594,70.8657467 58.0359375,70.8657467 C57.2285156,70.8657467 56.4574219,70.8280916 55.7542969,70.7610184 L55.9710938,70.0879332 L56.5886719,68.1592854 L57.65625,64.8479889 C57.709834,64.6805817 57.8649219,64.5670587 58.0400391,64.5670587 C58.2151562,64.5670587 58.3702441,64.6805817 58.4238281,64.8479889 L59.4867188,68.1592854 L60.1054688,70.0879332 L60.3164063,70.7610184 Z" id="路径" fill="#F8C190"></path>
                        <path d="M62.8640625,78.6933034 C61.9382813,78.8780488 60.5097656,79.0098417 58.8691406,79.0463201 C58.5949219,79.0404365 58.3183594,79.038083 58.0359375,79.038083 C57.7535156,79.038083 57.4746094,79.038083 57.2039063,79.0463201 C55.5632813,79.0133718 54.1335938,78.8815789 53.2078125,78.6933034 L53.55,77.6224861 L53.915625,76.4893025 C56.6452732,76.9211529 59.4254299,76.9211529 62.1550781,76.4893025 L62.5195313,77.6248395 L62.8640625,78.6933034 Z" id="路径" fill="#F8C190"></path>
                        <path d="M63.3714844,80.2771716 C62.4011719,80.5619384 60.3761719,80.758451 58.0359375,80.758451 C55.6957031,80.758451 53.6695312,80.5619384 52.6992187,80.2771716 L52.9664062,79.4452289 L53.2078125,78.6933034 C54.1347656,78.8780488 55.5621094,79.0098417 57.2050781,79.0463201 C57.4757812,79.0463201 57.7546875,79.0545571 58.0359375,79.0545571 C58.3171875,79.0545571 58.5960937,79.0545571 58.8691406,79.0463201 C60.5097656,79.0133718 61.9382812,78.8815789 62.8652344,78.6933034 L63.0996094,79.4452289 L63.3714844,80.2771716 Z" id="路径" fill="#FF8F2C"></path>
                        <path d="M63.984375,82.1846384 C63.984375,82.4199829 61.3195313,82.6176722 58.0347656,82.6176722 C54.75,82.6176722 52.0863281,82.4235131 52.0863281,82.1846384 L52.0863281,82.1658109 L52.0863281,82.1658109 L52.6910156,80.2830552 C53.6613281,80.567822 55.6875,80.7643346 58.0277344,80.7643346 C60.3679688,80.7643346 62.3941406,80.567822 63.3644531,80.2830552 L63.9691406,82.1658109 L63.9691406,82.1658109 L63.984375,82.1846384 Z" id="路径" fill="#F8C190"></path>
                        <path d="M62.1550781,76.4893025 C59.4254299,76.9211529 56.6452732,76.9211529 53.915625,76.4893025 L54.4453125,74.8418913 C56.8288378,75.156077 59.2430372,75.156077 61.6265625,74.8418913 L62.1550781,76.4893025 Z" id="路径" fill="#FF8F2C"></path>
                        <path d="M61.6253906,74.8418913 C59.2422579,75.1560817 56.8284452,75.1560817 54.4453125,74.8418913 L54.4839844,74.7242191 L55.0699219,72.9120668 L55.1730469,72.5896448 C57.0774299,72.8144032 59.0014764,72.8144032 60.9058594,72.5896448 L61.0101563,72.9120668 L61.5960938,74.7242191 L61.6253906,74.8418913 Z" id="路径" fill="#F8C190"></path>
                        <path d="M60.9011719,72.5814078 C58.9967889,72.8061661 57.0727424,72.8061661 55.1683594,72.5814078 L55.7542969,70.7610184 C56.4574219,70.8280916 57.2296875,70.8657467 58.0359375,70.8657467 C58.8421875,70.8657467 59.615625,70.8280916 60.3175781,70.7610184 L60.9011719,72.5814078 Z" id="路径" fill="#FF8F2C"></path>
                        <line x1="72.4441406" y1="77.9860933" x2="77.7234375" y2="77.9860933" id="路径" fill="#8098CA"></line>
                        <path d="M96.6199219,59.2715019 C95.5652344,59.7139495 95.4480469,60.8800813 95.4480469,60.8800813 C94.9792969,59.3503423 91.7484375,58.3489516 91.6148438,58.3089431 L91.6148438,58.3089431 L91.6148438,58.3089431 C94.1929688,58.6195978 95.5183594,59.9222294 95.5183594,59.9222294 C95.8445235,59.6418809 96.21744,59.4215874 96.6199219,59.2715019 L96.6199219,59.2715019 Z" id="路径" fill="#FFFFFF" opacity="0.41"></path>
                        <path d="M109.335938,67.2991014 C109.335938,70.2209029 107.11875,72.4496149 104.391797,72.5943517 C102.570703,72.6884895 100.641797,73.5357296 98.9929688,72.5943517 C98.2230469,74.6512623 95.9273438,74.8465982 93.8109375,74.8465982 C92.4820313,74.8465982 91.1894531,75.4773214 90.2824219,74.5453573 C89.4304688,75.3690629 88.4285156,74.6689131 87.2460938,74.6689131 C85.828125,74.6689131 84.8050781,75.3749465 83.9027344,74.2370561 C82.8398438,75.9327129 80.671875,75.6408858 78.4886719,75.6408858 C76.9792969,75.6408858 75.5484375,76.3681001 74.4890625,75.4737912 C73.3828125,76.4834189 71.9484375,75.8268079 70.3113281,75.8268079 C66.8988281,75.8268079 64.1320313,73.1368207 64.1320313,69.8172871 C64.1332807,68.249548 64.7575836,66.7471413 65.8664063,65.6434531 C68.5898438,63.9960419 72.9046875,64.5667522 72.9046875,64.5667522 C72.9046875,64.5667522 72.9210938,64.5020325 72.9585938,64.385537 C73.228125,63.5618314 74.6144531,60.0987377 79.2867188,58.8549422 C79.3839844,58.8290543 79.48125,58.8043432 79.5761719,58.7819855 L79.5832031,58.7819855 C84.6785156,57.5664313 86.4574219,60.7565255 86.4574219,60.7565255 C86.566859,60.4966892 86.7069207,60.2509625 86.8746094,60.0246042 C87.4195313,59.2703252 88.55625,58.2089217 90.6339844,58.2383398 C90.9622442,58.2422892 91.2900576,58.2638934 91.6160156,58.3030595 L91.6160156,58.3030595 L91.6160156,58.3030595 C91.7496094,58.343068 94.9816406,59.3491656 95.4492188,60.8741977 C95.4492188,60.8741977 95.5664063,59.7080659 96.6210938,59.2656183 C96.6550781,59.2514976 96.6902344,59.2385537 96.7265625,59.2256098 L96.7265625,59.2256098 C97.6428405,58.9048128 98.6366445,58.8829847 99.5660156,59.1632435 C101.558203,59.72454 102.189844,61.0389388 102.365625,61.5555199 C102.389783,61.625647 102.40974,61.6971626 102.425391,61.7696834 C102.854479,61.681911 103.290682,61.6338562 103.728516,61.6261232 C106.316016,62.0132649 109.335938,63.8724861 109.335938,67.2991014 Z" id="路径" fill="#FFFFFF"></path>
                        <path d="M104.053125,75.0772358 C101.061328,75.5573385 98.4667969,74.983098 98.2464844,74.5406504 C98.2464844,74.5406504 94.33125,77.6330766 89.7117188,76.0868635 C89.7117188,76.0868635 85.5316406,77.4565682 82.7167969,76.1751177 C82.7167969,76.1751177 80.9132813,78.8239196 73.3019531,77.9860933 C65.690625,77.148267 63.2707031,74.8948438 63.7113281,69.1512623 C63.8425781,67.4403081 64.7121094,66.3412495 65.8675781,65.6434531 C64.7587555,66.7471413 64.1344526,68.249548 64.1332031,69.8172871 C64.1332031,73.1368207 66.9,75.8268079 70.3125,75.8268079 C71.6495801,75.8306694 72.953015,75.4060738 74.0332031,74.6147839 C74.3296937,74.3899404 74.7348653,74.3762846 75.0457031,74.580659 C77.6093214,76.3153785 81.0565056,75.8723138 83.1023438,73.5451433 C83.2464666,73.3768587 83.4521241,73.2740988 83.6727258,73.2601434 C83.8933275,73.2461881 84.1102024,73.3222183 84.2742188,73.4710098 C85.0843413,74.2277147 86.1467461,74.6532593 87.253125,74.6642062 C88.1539033,74.659753 89.0310518,74.3743846 89.7632813,73.847561 C90.1284145,73.5917404 90.6159859,73.6007629 90.9714844,73.8699187 C91.7893655,74.4969382 92.7889704,74.8382675 93.8179688,74.8418913 C95.8359375,74.8418913 97.5820313,73.5274925 98.4070313,71.6212024 C98.4375002,71.5505725 98.4956855,71.4957281 98.5678088,71.4696564 C98.6399321,71.4435846 98.7195795,71.4486039 98.7878906,71.4835259 C100.428516,72.3189987 102.673828,72.6790757 104.398828,72.5896448 C107.125781,72.4496149 109.342969,70.2209029 109.342969,67.2943945 C109.342969,63.8677792 106.321875,62.008558 103.734375,61.6261232 C105.529688,61.5790543 108.69375,62.0650407 110.042578,65.7893667 C111.972656,71.139923 107.044922,74.5947796 104.053125,75.0772358 Z" id="路径" fill="#DCF6FF"></path>
                        <path d="M86.8757813,60.0304878 L86.8757813,60.0304878 C86.7080926,60.2568461 86.5680309,60.5025728 86.4585938,60.7624091 C86.4585938,60.7624091 84.6796875,57.5723149 79.584375,58.7878691 C83.465625,58.1383184 84.6820313,60.0387249 85.14375,60.965982 C85.6054688,61.8932392 86.315625,61.9767865 86.315625,61.9767865 C86.3587113,61.9635519 86.3986084,61.9415177 86.4328125,61.9120668 C86.4285569,61.258335 86.580459,60.6131071 86.8757813,60.0304878 L86.8757813,60.0304878 Z" id="路径" fill="#DCF6FF"></path>
                        <path d="M96.6199219,59.2715019 C95.5652344,59.7139495 95.4480469,60.8800813 95.4480469,60.8800813 C94.9792969,59.3503423 91.7484375,58.3489516 91.6148438,58.3089431 L91.6148438,58.3089431 L91.6148438,58.3089431 C94.1929688,58.6195978 95.5183594,59.9222294 95.5183594,59.9222294 C95.8445235,59.6418809 96.21744,59.4215874 96.6199219,59.2715019 L96.6199219,59.2715019 Z" id="路径" fill="#DCF6FF"></path>
                        <path d="M87.0703125,64.1219512 C87.0703125,64.1219512 87.7734375,63.7018614 88.3054687,63.7901155 C88.8375,63.8783697 89.9554688,63.2605905 90.9234375,63.525353 C91.8914063,63.7901155 92.0472656,64.1878477 91.6171875,64.2537441 C91.1871094,64.3196406 90.2859375,64.2761018 89.625,64.6291185 C88.9640625,64.9821352 88.6570312,64.8503423 88.3488281,64.6291185 C88.040625,64.4078947 87.4113281,64.1819641 87.2179687,64.2443303 C87.0246094,64.3066966 86.9777344,64.1654899 87.0703125,64.1219512 Z" id="路径" fill="#DCF6FF"></path>
                        <path d="M88.9640625,42.5137997 L89.6238281,42.5137997 L89.6238281,64.1725503 C89.6238281,64.247937 89.5629668,64.3090501 89.4878906,64.3090501 L89.1011719,64.3090501 C89.0260957,64.3090501 88.9652344,64.247937 88.9652344,64.1725503 L88.9652344,42.5137997 L88.9640625,42.5137997 Z" id="路径" fill="#9E784F"></path>
                        <path d="M100.819922,50.0118742 C100.819922,50.0118742 100.137891,49.7471117 99.5003906,50.0118742 C98.8628906,50.2766367 97.7402344,51.6486949 95.2734375,51.6486949 C92.8066406,51.6486949 92.4140625,51.1332905 91.3136719,50.7732135 C90.6561568,50.5575513 89.9473589,50.5575513 89.2898438,50.7732135 L89.2898438,42.8338682 C89.6290633,42.2873996 90.2627052,41.9999203 90.8953125,42.1054771 C92.0179688,42.2596277 93.6234375,43.1868849 95.2511719,42.9444801 C96.8789063,42.7020753 99.4699219,41.3170732 100.618359,42.0866496 L100.819922,50.0118742 Z" id="路径" fill="#FF8F2C"></path>
                        <path d="M94.8914062,44.105905 C93.2086637,44.105905 91.8445313,45.4756799 91.8445313,47.165383 C91.8445313,48.855086 93.2086637,50.2248609 94.8914062,50.2248609 C96.5741488,50.2248609 97.9382812,48.855086 97.9382812,47.165383 C97.9382812,46.353959 97.6172721,45.5757688 97.0458722,45.0020054 C96.4744723,44.4282419 95.6994877,44.105905 94.8914062,44.105905 L94.8914062,44.105905 Z M94.8914063,44.4589159 C95.5506436,44.4575548 96.1872768,44.7001075 96.6796875,45.1402439 L92.8921875,48.9728284 C92.1822616,48.1783181 92.0037162,47.0390177 92.436326,46.0639707 C92.8689357,45.0889237 93.831884,44.4602807 94.8949219,44.4589159 L94.8914063,44.4589159 Z M94.8914062,49.871845 C94.2488564,49.8723122 93.6275244,49.640959 93.140625,49.2199401 L96.9234375,45.3920625 C97.6145008,46.192125 97.7773346,47.3234258 97.3401532,48.2872285 C96.9029718,49.2510311 95.9461116,49.8702278 94.8914062,49.871845 L94.8914062,49.871845 Z" id="形状" fill="#FFFFFF"></path>
                    </g>
                </g>
            </g>
        </g>
    </g>
</svg>