<?xml version="1.0" encoding="UTF-8"?>
<svg width="150px" height="150px" viewBox="0 0 150 150" version="1.1" xmlns="http://www.w3.org/2000/svg" xmlns:xlink="http://www.w3.org/1999/xlink">
    <title>15-图标/2提示/3D提示/蓝无数据</title>
    <g id="平台icon231127" stroke="none" stroke-width="1" fill="none" fill-rule="evenodd">
        <g id="平台icon231128" transform="translate(-990, -728)">
            <g id="15-图标/2提示/3D提示/蓝无数据" transform="translate(990, 728)">
                <rect id="_mockplus_fix_" x="0" y="0" width="150" height="150"></rect>
                <g id="空">
                    <rect id="矩形备份-3" fill-opacity="0" fill="#EFE9DE" x="0" y="0" width="150" height="150"></rect>
                    <g id="暂无数据_画板-1" transform="translate(30, 10)">
                        <polygon id="路径" fill="#FF8F2C" fill-rule="nonzero" points="90 0 71.7540297 3.57016602 71.7540297 3.88686523 73.9166397 6.59003906 75.3056877 11.9346191 77.6510376 10.1186523 81.4605496 12.0918457"></polygon>
                        <polygon id="路径" fill="#F0C6A0" fill-rule="nonzero" points="87.4270659 1.30947266 74.0455667 6.52939453 75.3056877 11.7380859 75.9032363 9.16518555"></polygon>
                        <polygon id="路径" fill="#B66D2C" fill-rule="nonzero" points="77.6521587 10.1186523 75.9693814 9.24604492 75.3056877 11.9334961"></polygon>
                        <polygon id="路径" fill="#98B5F3" fill-rule="nonzero" points="5.98445402 75.6506836 7.17282444 89.1878906 4.81850569 87.4595215 3.41264107 73.9200684 3.41376218 73.9223145"></polygon>
                        <polygon id="路径" fill="#98B5F3" fill-rule="nonzero" points="42.3194399 100.07583 42.3194399 115 28.7888338 105.063281 28.4435337 104.809473 16.4286604 95.9856934 16.0743915 95.7262695 11.7928947 92.5817383 31.1711801 92.5817383"></polygon>
                        <polygon id="路径" fill="#D4E1F8" fill-rule="nonzero" points="71.8975311 92.5817383 68.2348838 95.3579102 67.8772516 95.6296875 55.7648422 104.809473 55.4161788 105.073389 42.3194399 115 42.3194399 100.07583 52.9800194 92.5817383"></polygon>
                        <polygon id="路径" fill="#D4E1F8" fill-rule="nonzero" points="80.8047037 73.0227539 79.1566805 87.0799316 77.9144971 88.022168 79.3136351 74.2266602 79.0916565 74.2266602 79.2878497 74.0885254"></polygon>
                        <polygon id="路径" fill="#E6EFFE" fill-rule="nonzero" points="42.1097935 47.5228516 3.41376218 73.9223145 42.3194399 100.07583 80.8047037 73.0227539"></polygon>
                        <polygon id="路径" fill="#C8D6EF" fill-rule="nonzero" points="42.3194399 74.2266602 42.3194399 83.0010254 30.2922345 75.5451172 30.0624081 75.4024902 28.1654999 74.2266602"></polygon>
                        <polygon id="路径" fill="#D4E1F8" fill-rule="nonzero" points="28.1654999 74.2266602 5.86001146 74.2266602 7.96320287 62.890625 8.00468372 62.6660156 8.1605172 61.8259766 9.51593214 62.6660156 9.87916988 62.890625"></polygon>
                        <polygon id="路径" fill="#D4E1F8" fill-rule="nonzero" points="42.5873838 59.1317871 42.5873838 65.5803223 42.3194399 65.7364258 37.4403946 62.890625 37.0558559 62.6660156 30.6756521 58.9442383"></polygon>
                        <polygon id="路径" fill="#E6EFFE" fill-rule="nonzero" points="53.330925 59.3002441 47.5729341 62.6660156 47.1883953 62.890625 42.5873838 65.5803223 42.5873838 59.1317871"></polygon>
                        <polygon id="路径" fill="#E6EFFE" fill-rule="nonzero" points="79.2878497 74.0885254 79.0916565 74.2266602 56.3623907 74.2266602 56.8141957 73.9447754 57.1606169 73.7280273 70.2169959 65.5702148 70.5712649 65.3489746 74.5052194 62.890625 74.8650938 62.6660156 76.9200777 61.382373 77.1588729 62.6660156 77.2003538 62.890625"></polygon>
                        <polygon id="路径" fill="#E6EFFE" fill-rule="nonzero" points="79.3136351 74.2266602 79.0916565 74.2266602 79.2878497 74.0885254"></polygon>
                        <polygon id="路径" fill="#98B5F3" fill-rule="nonzero" points="42.3194399 65.7364258 42.3194399 83.0010254 30.2922345 75.5451172 30.0624081 75.4024902 28.1654999 74.2266602 27.7944144 73.9964355 27.4502354 73.7830566 14.3703132 65.6746582 14.0194076 65.4567871 9.87916988 62.890625 9.51593214 62.6660156 8.1605172 61.8259766 8.1605172 61.8248535 1.74443808 57.8481445 0 41.0518555 12.8713969 48.5594238 13.2223025 48.7638184 13.2223025 48.7649414 26.9053788 56.7464355 27.2484367 56.9452148 27.2484367 56.9463379 30.674531 58.9442383 30.6756521 58.9442383 37.0558559 62.6660156 37.4403946 62.890625"></polygon>
                        <polygon id="路径" fill="#E6EFFE" fill-rule="nonzero" points="84.553676 41.0518555 71.8459603 48.4785645 71.4961758 48.684082 57.9274521 56.613916 57.7906774 56.6936523 42.3194399 65.7364258 27.2484367 56.9452148 26.9064999 56.7464355 26.9053788 56.7464355 13.2223025 48.7638184 12.8713969 48.5594238 0 41.0518555 15.2458955 34.4067871 15.6405242 34.2338379 29.3572336 28.2558594 29.7630733 28.078418 42.3194399 22.6058105 54.955405 28.1244629 55.3612447 28.3019043 68.9445427 34.2338379 69.3369292 34.4067871 69.3380503 34.4067871"></polygon>
                        <polygon id="路径" fill="#D4E1F8" fill-rule="nonzero" points="42.4775156 58.9060547 33.1241436 53.7984375 32.7709958 53.6063965 18.8760308 46.0190918 18.512793 45.8203125 10.9744887 41.7043457 20.4780886 37.1762207 20.8570218 36.9942871 34.2351578 30.619873 34.624181 30.4345703 42.1613643 26.8430664 42.2331149 34.1226562 42.2353571 34.3012207 42.2364782 34.5 42.2387204 34.6751953 42.3732529 48.3819824 42.3743741 48.4628418 42.3777374 48.7660645 42.3777374 48.8424316"></polygon>
                        <polygon id="路径" fill="#98B5F3" fill-rule="nonzero" points="74.5164304 41.7043457 66.6193727 45.9449707 66.2527716 46.1415039 52.2961459 53.6344727 51.9396348 53.8253906 42.4775156 58.9060547 42.3777374 48.8424316 42.3777374 48.7660645 42.3743741 48.4628418 42.3732529 48.3819824 42.2387204 34.6751953 42.2364782 34.5 42.2353571 34.3012207 42.2331149 34.1226562 42.1613643 26.8430664 50.0920551 30.4862305 50.488926 30.6681641 64.0083211 36.8774902 64.3928598 37.0538086"></polygon>
                        <polygon id="路径" fill="#B9C7E1" fill-rule="nonzero" points="34.624181 30.4345703 34.2351578 30.619873 29.3572336 28.2558594 29.7630733 28.078418"></polygon>
                        <polygon id="路径" fill="#B9C7E1" fill-rule="nonzero" points="71.8829567 48.4965332 71.5298089 48.6998047 71.4961758 48.684082 69.5376068 47.7339844 66.2527716 46.1415039 66.6193727 45.9449707 69.8470316 47.509375 71.8459603 48.4785645"></polygon>
                        <polygon id="路径" fill="#B9C7E1" fill-rule="nonzero" points="20.8570218 36.9942871 20.4780886 37.1762207 15.2458955 34.4067871 15.6405242 34.2338379"></polygon>
                        <polygon id="路径" fill="#B9C7E1" fill-rule="nonzero" points="57.9285732 56.6150391 57.7906774 56.6936523 57.5832731 56.8126953 53.2995341 54.5452637 51.9396348 53.8253906 52.2961459 53.6344727 53.5551459 54.3004395 57.9274521 56.613916"></polygon>
                        <polygon id="路径" fill="#7085B1" fill-rule="nonzero" points="13.2223025 48.7649414 14.3703132 65.6746582 14.0194076 65.4567871 12.8713969 48.5594238 13.2223025 48.7638184"></polygon>
                        <polygon id="路径" fill="#D4E1F8" fill-rule="nonzero" points="84.553676 41.0518555 82.5850171 57.8425293 76.9200777 61.382373 74.8650938 62.6660156 74.5052194 62.890625 56.3623907 74.2266602 54.7199731 75.253125 54.4912678 75.395752 42.3194399 83.0010254 42.3194399 65.7364258 42.5873838 65.5803223 47.1883953 62.890625 47.5729341 62.6660156 53.330925 59.3002441"></polygon>
                        <polygon id="路径" fill="#C5D3E8" fill-rule="nonzero" points="56.3141832 92.5817383 55.7648422 104.809473 55.4161788 105.073389 55.9767309 92.5817383"></polygon>
                        <polygon id="路径" fill="#C5D3E8" fill-rule="nonzero" points="57.9285732 56.6150391 57.9240888 56.7217285 57.1606169 73.7280273 56.8141957 73.9447754 57.5832731 56.8126953"></polygon>
                        <polygon id="路径" fill="#C5D3E8" fill-rule="nonzero" points="68.4512569 92.5817383 68.2348838 95.3579102 67.8772516 95.6296875 68.1138045 92.5817383"></polygon>
                        <polygon id="路径" fill="#C5D3E8" fill-rule="nonzero" points="71.8829567 48.4965332 71.8739879 48.611084 70.5712649 65.3489746 70.2169959 65.5702148 71.5298089 48.6998047"></polygon>
                        <polygon id="路径" fill="#C8D6EF" fill-rule="nonzero" points="79.3136351 74.2266602 77.9144971 88.022168 77.4514811 92.5817383 7.46991704 92.5817383 7.17282444 89.1890137 7.17282444 89.1878906 5.98445402 75.6506836 5.86001146 74.2266602 28.1654999 74.2266602 30.0624081 75.4024902 30.2922345 75.5451172 42.3194399 83.0010254 54.4912678 75.395752 54.7199731 75.253125 56.3623907 74.2266602"></polygon>
                        <polygon id="路径" fill="#7085B1" fill-rule="nonzero" points="16.4286604 95.9856934 16.0743915 95.7262695 15.8613817 92.5817383 16.1977129 92.5817383"></polygon>
                        <polygon id="路径" fill="#B9C7E1" fill-rule="nonzero" points="33.1241436 53.7984375 32.2496824 54.266748 27.2484367 56.9452148 26.9064999 56.7464355 31.9245621 54.0589844 32.7709958 53.6063965"></polygon>
                        <polygon id="路径" fill="#B9C7E1" fill-rule="nonzero" points="69.3369292 34.4067871 64.3928598 37.0538086 64.0083211 36.8774902 68.9445427 34.2338379"></polygon>
                        <polygon id="路径" fill="#98B5F3" fill-rule="nonzero" points="27.801141 74.2266602 27.4648098 74.2266602 27.4502354 73.7830566 27.7944144 73.9964355"></polygon>
                        <polygon id="路径" fill="#7085B1" fill-rule="nonzero" points="27.7944144 73.9964355 27.4502354 73.7830566 26.9053788 56.7464355 27.2484367 56.9452148 27.2484367 56.9463379"></polygon>
                        <polygon id="路径" fill="#7085B1" fill-rule="nonzero" points="28.7888338 105.063281 28.4435337 104.809473 28.0522684 92.5817383 28.3885996 92.5817383"></polygon>
                        <g id="编组" opacity="0.5" transform="translate(30.0624, 75.4025)" fill="#7085B1" fill-rule="nonzero">
                            <polygon id="路径" points="1 17.1758789 0.881868132 17.179248 0.725274725 17.1837402 0.725274725 17.179248 0 0 0.281593407 0.142626953"></polygon>
                        </g>
                        <polygon id="路径" fill="#7085B1" fill-rule="nonzero" opacity="0.5" points="54.7199731 75.253125 54.1941752 92.5817383 54.1941752 92.5851074 54.0820648 92.5817383 53.9699544 92.5783691 54.4912678 75.395752"></polygon>
                        <polygon id="路径" fill="#B9C7E1" fill-rule="nonzero" points="9.87916988 62.890625 7.96320287 62.890625 8.00468372 62.6660156 9.51593214 62.6660156"></polygon>
                        <polygon id="路径" fill="#C5D3E8" fill-rule="nonzero" points="77.2003538 62.890625 74.5052194 62.890625 74.8650938 62.6660156 77.1588729 62.6660156"></polygon>
                        <polygon id="路径" fill="#B9C7E1" fill-rule="nonzero" points="18.8760308 46.0190918 17.867037 46.5087402 13.2223025 48.7638184 12.8713969 48.5594238 12.9734174 48.5100098 17.4656818 46.3290527 18.512793 45.8203125"></polygon>
                        <polygon id="路径" fill="#B9C7E1" fill-rule="nonzero" points="55.3612447 28.3019043 50.488926 30.6681641 50.0920551 30.4862305 54.955405 28.1244629"></polygon>
                        <path d="M77.0254615,13.3732422 C77.0254615,13.3732422 76.9794963,13.607959 76.879718,14.0302246" id="路径" stroke="#000666" stroke-width="2.64743638"></path>
                        <path d="M42.8199872,50.0918136 L43.108801,51.1138088 C42.9956594,51.1458136 42.8820774,51.1774511 42.768055,51.2087205 L42.4874322,50.1844436 C42.5987235,50.1539232 42.7095752,50.1230462 42.8199872,50.0918136 Z M47.724084,48.3494242 L48.149196,49.3226008 C47.344046,49.6746564 46.5090594,50.0038744 45.6442959,50.3095744 L45.290643,49.3081869 C46.1313979,49.0109742 46.9425486,48.6911542 47.724084,48.3494242 Z M52.3200545,45.8701121 L52.90466,46.7566066 C52.1679826,47.2428873 51.3942515,47.7045563 50.5836406,48.1404435 L50.0810862,47.2049425 C50.8637594,46.7840782 51.6101079,46.3387479 52.3200545,45.8701121 Z M56.3139185,42.6148138 L57.0683955,43.3619275 C56.4437239,43.9933701 55.7730291,44.6007247 55.0566923,45.1818346 L54.3881217,44.356882 C55.0745073,43.8000692 55.7165171,43.2186906 56.3139185,42.6148138 Z M59.5075968,38.4888009 L60.4227873,39.0269267 C59.9701958,39.7973988 59.4607566,40.5499567 58.8951339,41.2802913 L58.0560133,40.6297841 C58.5939183,39.9352387 59.0779476,39.220217 59.5075968,38.4888009 Z M56.2301476,36.7241135 L56.3581267,37.7784258 C55.3665603,37.8989056 54.4427297,37.9282634 53.6021151,37.8660152 L53.6804706,36.8068536 C54.4491536,36.8637752 55.3043911,36.8365972 56.2301476,36.7241135 Z M61.485994,33.6949229 L62.5160103,33.9518313 C62.2997349,34.8197832 62.0136834,35.6881008 61.6584611,36.5474426 L61.5603441,36.5068167 L61.1779819,36.6390161 C60.5920977,36.8362323 60.0162751,37.0108798 59.4524976,37.1625569 L59.031954,37.2720015 L58.7732918,36.2419541 C59.5772574,36.0398682 60.4104655,35.787246 61.2661597,35.4852927 L60.8836111,35.6168114 L60.9487761,35.4447712 C61.1189036,34.9793013 61.2675705,34.5122112 61.394693,34.0451693 L61.485994,33.6949229 Z M49.7708797,34.6388401 C50.0217091,35.3215054 50.5335641,35.8562172 51.3008603,36.2311222 L50.8350217,37.1854555 C49.8309932,36.6948818 49.1239369,35.956252 48.7745258,35.0052837 L49.7708797,34.6388401 Z M65.7755044,33.0512432 L66.4268196,33.8898994 C65.6903695,34.4623966 64.9268398,34.9650851 64.1357794,35.3943784 L63.6296439,34.460812 C64.3687561,34.05971 65.0839089,33.5888716 65.7755044,33.0512432 Z M49.7944549,29.4719806 L50.7213393,29.9896847 C50.253393,30.8282999 49.9315871,31.6054973 49.7535693,32.3124332 L48.7241936,32.0529674 C48.9263407,31.2502106 49.283433,30.3877925 49.7944549,29.4719806 Z M69.4084297,29.3527331 L70.2469456,30.0040204 C69.6781323,30.7370664 69.0857943,31.4217702 68.4693529,32.0548665 L67.7089722,31.313768 C68.2969872,30.7098662 68.8633873,30.0551449 69.4084297,29.3527331 Z M62.9283735,28.5067343 C63.027781,29.3847969 63.0398923,30.311553 62.962038,31.2649566 L61.9040211,31.1784755 C61.9763447,30.292802 61.9651344,29.4349968 61.8735762,28.6262666 L62.9283735,28.5067343 Z M53.045309,25.103666 L53.8312615,25.8175609 C53.2060117,26.5065912 52.6486886,27.1744608 52.1596178,27.819247 L51.3139981,27.177219 C51.8224592,26.506869 52.399686,25.8151479 53.045309,25.103666 Z M72.2255508,24.9614443 L73.1613897,25.462764 C72.7296866,26.269431 72.2767964,27.046408 71.8021768,27.79035 L70.9073763,27.2189297 C71.3670508,26.4984133 71.8063291,25.744789 72.2255508,24.9614443 Z M60.6823878,23.3569362 C61.3370356,23.9590433 61.8749593,24.7831885 62.2685945,25.7748143 L61.2820118,26.166829 C60.944455,25.316473 60.4939566,24.6262709 59.9639626,24.1388131 L60.6823878,23.3569362 Z M57.90875,22.2519882 L57.9230289,23.313951 C57.2310216,23.3232646 56.484916,23.5806155 55.7073132,24.1026205 L55.1158499,23.2206912 C56.0562331,22.5894116 56.9989843,22.2642326 57.90875,22.2519882 Z M74.4009329,20.1873619 L75.3909099,20.5707152 C75.0670314,21.4079185 74.7210053,22.2349322 74.3521703,23.0472507 L73.385679,22.6079857 C73.7459403,21.81455 74.0841795,21.0061471 74.4009329,20.1873619 Z M76.0366158,15.1966164 L77.0613688,15.4737938 C76.8407689,16.2901681 76.5849543,17.151332 76.2921191,18.0447397 L75.2834297,17.7137962 C75.5702547,16.8387249 75.8207601,15.995434 76.0366158,15.1966164 Z" id="路径" fill="#6F8DC3" fill-rule="nonzero"></path>
                        <path d="M41.9730188,50.8740234 C41.7577668,50.9301758 41.5402726,50.9844564 41.3205361,51.0368652" id="路径" stroke="#000666" stroke-width="2.64743638"></path>
                    </g>
                </g>
            </g>
        </g>
    </g>
</svg>