<?xml version="1.0" encoding="UTF-8"?>
<svg width="150px" height="150px" viewBox="0 0 150 150" version="1.1" xmlns="http://www.w3.org/2000/svg" xmlns:xlink="http://www.w3.org/1999/xlink">
    <title>15-图标/2提示/3D提示/蓝无结果</title>
    <g id="平台icon231127" stroke="none" stroke-width="1" fill="none" fill-rule="evenodd">
        <g id="平台icon231128" transform="translate(-800, -728)">
            <g id="15-图标/2提示/3D提示/蓝无结果" transform="translate(800, 728)">
                <rect id="_mockplus_fix_" x="0" y="0" width="150" height="150"></rect>
                <g id="没有搜素结果">
                    <rect id="矩形备份-4" fill-opacity="0" fill="#EFE9DE" x="0" y="0" width="150" height="150"></rect>
                    <g id="无搜索结果" transform="translate(29.7939, 25)">
                        <polygon id="路径" fill="#D4E1F8" fill-rule="nonzero" points="52.46875 47.3867188 52.0859375 27.9033203 40.9316406 39.3369141 41.2382812 58.9609375"></polygon>
                        <polygon id="路径" fill="#98B5F3" fill-rule="nonzero" points="52.46875 47.3867188 72.3085938 52.9941406 73.5039062 33.8603516 52.0859375 27.9033203"></polygon>
                        <polygon id="路径" fill="#E6EFFE" fill-rule="nonzero" points="41.2382812 58.9609375 52.46875 47.3867188 72.3085938 52.9941406 62.4423828 65.8857422"></polygon>
                        <polygon id="路径" fill="#E6EFFE" fill-rule="nonzero" points="90.4121094 13.2763672 82.328125 23.1181641 82.2373047 23.2275391 82.2373047 23.2285156 73.5380859 33.8183594 73.5039062 33.8603516 58.1689453 29.6494141 52.0917969 27.9804687 52.0371094 27.9658203 40.9316406 39.3369141 40.8828125 39.3222656 20.0449219 33.1484375 19.9394531 33.1162109 0 27.2080078 12.96875 17.0878906 13.0644531 17.0126953 24.3847656 8.1796875 24.4804688 8.10449219 34.8671875 0 52.2177734 4.14746094 52.3349609 4.17480469 70.875 8.60742188 70.8759766 8.60742188 70.9853516 8.6328125"></polygon>
                        <polygon id="路径" fill="#98B5F3" fill-rule="nonzero" points="62.4423828 65.8857422 61.6523438 83.5693359 61.6455078 83.7109375 60.9179688 100 41.8134766 92.7685547 41.7148437 92.7314453 23.4199219 85.8066406 23.3193359 85.7685547 5.82421875 79.1455078 4.08789062 63.6582031 4.07617188 63.5507812 2.13183594 46.2255859 2.12109375 46.1191406 0 27.2080078 19.9394531 33.1162109 20.0449219 33.1484375 40.8828125 39.3222656 40.9316406 39.3369141 41.2382812 58.9609375"></polygon>
                        <polygon id="路径" fill="#D4E1F8" fill-rule="nonzero" points="90.4121094 13.2763672 88.5419922 31.7226562 88.5234375 31.9082031 88.5224609 31.9091797 86.8847656 48.0722656 86.8847656 48.0732422 86.8642578 48.2695312 85.3857422 62.8525391 78.2001953 73.7626953 78.0869141 73.9326172 70.3134766 85.7363281 70.2041016 85.9003906 70.2041016 85.9013672 60.9179688 100 61.6455078 83.7109375 61.6523438 83.5693359 62.4423828 65.8857422 67.2724609 59.6582031 67.2939453 59.6308594 72.3085938 52.9941406 73.5039062 33.8603516 73.5380859 33.8183594 82.2373047 23.2285156 82.2373047 23.2275391 82.328125 23.1181641 82.3291016 23.1181641"></polygon>
                        <polygon id="路径" fill="#B5C4DF" fill-rule="nonzero" points="52.3349609 4.17480469 42.6884766 12.8300781 42.6005859 12.9091797 32.125 22.3095703 32.1240234 22.3095703 32.0371094 22.3876953 20.0449219 33.1484375 19.9394531 33.1162109 31.9248047 22.3564453 31.9257812 22.3564453 32.0107422 22.2783203 32.0117188 22.2783203 42.4873047 12.8779297 42.5742188 12.8007812 42.5751953 12.8007812 52.2177734 4.14746094"></polygon>
                        <polygon id="路径" fill="#B5C4DF" fill-rule="nonzero" points="70.9853516 8.6328125 61.9931641 17.8408203 61.9150391 17.921875 52.1845703 27.8837891 52.1064453 27.9648438 52.0917969 27.9804688 40.9814453 39.3564453 40.8828125 39.3232422 40.8828125 39.3173828 40.8964844 39.3027344 51.9990234 27.9355469 52.0771484 27.8544922 61.8066406 17.8935547 61.8847656 17.8125 61.8857422 17.8125 70.875 8.60742188 70.8759766 8.60742188"></polygon>
                        <polygon id="路径" fill="#B5C4DF" fill-rule="nonzero" points="82.3457031 23.1230469 82.3417969 23.1640625 80.8154297 41.8134766 80.8007813 41.9931641 79.4462891 58.5371094 79.4306641 58.7275391 78.2001953 73.7626953 78.0869141 73.9326172 79.3193359 58.8837891 79.3349609 58.6943359 80.6894531 42.1376953 80.7041016 41.9570312 82.2373047 23.2285156 82.2373047 23.2275391 82.2402344 23.1972656 61.9150391 17.921875 61.8066406 17.8935547 42.6005859 12.9091797 42.4873047 12.8779297 24.3847656 8.1796875 24.4804687 8.10449219 42.5742188 12.8007813 42.5751953 12.8007813 42.6884766 12.8300781 61.8847656 17.8125 61.8857422 17.8125 61.9931641 17.8408203 82.328125 23.1181641 82.3291016 23.1181641"></polygon>
                        <polygon id="路径" fill="#B5C4DF" fill-rule="nonzero" points="72.3671875 52.8457031 72.3554688 53.0205078 71.2958984 70.0029297 71.2841797 70.1875 70.3134766 85.7363281 70.2041016 85.9003906 71.1767578 70.3398438 71.1884766 70.1542969 72.25 53.1601562 72.2607422 52.9853516 73.4521484 33.8974609 58.1689453 29.6494141 52.1064453 27.9648438 51.9990234 27.9355469 32.0371094 22.3876953 31.9257812 22.3564453 31.9248047 22.3564453 12.96875 17.0878906 13.0644531 17.0126953 32.0107422 22.2783203 32.0117188 22.2783203 32.1240234 22.3095703 32.125 22.3095703 52.0771484 27.8544922 52.1845703 27.8837891 73.5380859 33.8183594"></polygon>
                        <polygon id="路径" fill="#B5C4DF" fill-rule="nonzero" points="88.5419922 31.7226562 88.5234375 31.9082031 88.5224609 31.9091797 80.8007812 41.9931641 80.6894531 42.1376953 72.3554688 53.0205078 72.25 53.1601563 67.2939453 59.6308594 67.2724609 59.6582031 63.0634766 65.1416016 62.4404297 65.9541016 62.4257812 65.828125 62.9873047 65.09375 72.2607422 52.9853516 72.3671875 52.8457031 80.7041016 41.9570312 80.8154297 41.8134766"></polygon>
                        <polygon id="路径" fill="#748EBF" fill-rule="nonzero" points="62.4404297 65.9541016 41.2880859 59.0234375 41.1894531 58.9912109 21.2822266 52.484375 21.1806641 52.4511719 2.13183594 46.2255859 2.12109375 46.1191406 21.1738281 52.3466797 21.2753906 52.3789062 41.1884766 58.8867188 41.2861328 58.9189453 62.4257812 65.828125"></polygon>
                        <polygon id="路径" fill="#B5C4DF" fill-rule="nonzero" points="86.8847656 48.0732422 86.8642578 48.2695312 79.4306641 58.7275391 79.3193359 58.8837891 71.2841797 70.1875 71.1767578 70.3398438 61.7490234 83.5654297 61.6455078 83.7109375 61.6523437 83.5693359 71.1884766 70.1542969 71.2958984 70.0029297 79.3349609 58.6943359 79.4462891 58.5371094"></polygon>
                        <polygon id="路径" fill="#748EBF" fill-rule="nonzero" points="61.6523438 83.5693359 61.6455078 83.7109375 41.5644531 76.7148437 41.4648438 76.6796875 22.4091797 70.0410156 22.3076172 70.0058594 4.08789063 63.6582031 4.07617188 63.5507812 22.3007813 69.8994141 22.4023438 69.9345703 41.4638672 76.5751953 41.5625 76.6103516"></polygon>
                        <polygon id="路径" fill="#748EBF" fill-rule="nonzero" points="23.4199219 85.8066406 23.3193359 85.7685547 22.3076172 70.0058594 22.3007812 69.8994141 21.1806641 52.4511719 21.1738281 52.3466797 19.9462891 33.2216797 19.9394531 33.1162109 20.0449219 33.1484375 20.0449219 33.1484375 20.046875 33.1826172 21.2753906 52.3789062 21.2822266 52.484375 22.4023438 69.9345703 22.4091797 70.0410156"></polygon>
                        <polygon id="路径" fill="#748EBF" fill-rule="nonzero" points="41.8134766 92.7685547 41.7148438 92.7314453 41.4648438 76.6796875 41.4638672 76.5751953 41.1894531 58.9912109 41.1884766 58.8867188 40.8886719 39.7226562 40.8828125 39.3232422 40.9814453 39.3564453 40.9873047 39.7226562 41.2861328 58.9189453 41.2880859 59.0234375 41.5625 76.6103516 41.5644531 76.7148438"></polygon>
                        <polygon id="路径" points="18.3476562 16.5537109 25.7617188 9.28417969 78.0761719 23.1982422 70.6621094 30.4677734"></polygon>
                        <polyline id="路径" fill="#385BA8" fill-rule="nonzero" points="30.3955078 10.6679687 29.2705078 10.3691406 24.4863281 15.0615234 26.8173828 9.71679688 25.6396484 9.40332031 18.4746094 16.4296875 19.5996094 16.7285156 24.2714844 12.1464844 22.0166016 17.3710938 23.2304688 17.6943359 30.3955078 10.6679687"></polyline>
                        <path d="M28.2890625,17.6503906 C27.8079427,17.5201823 27.6194661,17.2093099 27.7236328,16.7177734 C27.8277995,16.226237 28.2861328,15.5813802 29.0986328,14.7832031 C29.9228516,13.9772135 30.6923828,13.4134115 31.4072266,13.0917969 C32.1220703,12.7701823 32.7281901,12.6764323 33.2255859,12.8105469 C33.7249349,12.9407552 33.9231771,13.2451172 33.8203125,13.7236328 C33.7174479,14.2021484 33.2555339,14.8427734 32.4345703,15.6455078 C31.6031901,16.461263 30.8251953,17.03125 30.1005859,17.3554687 C29.3759766,17.6796875 28.7721354,17.7773437 28.2890625,17.6484375 M34.4501953,11.59375 C33.9353695,11.4628001 33.3989123,11.440517 32.875,11.5283203 C32.3859535,11.6111843 31.9090284,11.7541962 31.4550781,11.9541016 C30.9194009,12.181462 30.404173,12.4542681 29.9150391,12.7695312 C29.1545104,13.2730796 28.4468137,13.8521934 27.8027344,14.4980469 C26.6621094,15.6158854 26.0299479,16.5638021 25.90625,17.3417969 C25.7825521,18.1197917 26.1663411,18.6269531 27.0576172,18.8632812 C27.9371745,19.0976562 28.9667969,18.9645182 30.1464844,18.4638672 C31.3261719,17.9632161 32.4944661,17.1471354 33.6513672,16.015625 C34.8173828,14.8710937 35.4628906,13.9075521 35.5878906,13.125 C35.7128906,12.3424479 35.3336589,11.8333333 34.4501953,11.5976562" id="形状" fill="#385BA8" fill-rule="nonzero"></path>
                        <path d="M38.6982422,16.6542969 L40.5185547,14.8710938 L41.4628906,15.1230469 C41.7543068,15.1907007 42.0410389,15.2771444 42.3212891,15.3818359 C42.4702906,15.4519003 42.5448702,15.6210583 42.4960938,15.7783203 C42.4557292,15.9521484 42.3151042,16.1572266 42.0742188,16.3935547 C41.8790017,16.5897633 41.6562947,16.7565468 41.4130859,16.8886719 C41.2148804,16.9991252 40.9968671,17.0694735 40.7714844,17.0957031 C40.5683594,17.1139323 40.1777344,17.046224 39.5996094,16.8925781 L38.7041016,16.6542969 M43.0722656,14.0380859 L40.5185547,13.3603516 L33.3535156,20.3867188 L34.5615234,20.7080078 L37.5527344,17.7783203 L37.7978516,17.84375 C38.0761719,17.9179688 38.2519531,17.9980469 38.3271484,18.0849609 C38.4070408,18.1985205 38.4311056,18.3421911 38.3925781,18.4755859 C38.3619792,18.648763 38.2233073,19.0498047 37.9765625,19.6787109 L37.2929688,21.4365234 L38.7412109,21.8222656 L39.40625,20.2597656 C39.6751302,19.6373698 39.8333333,19.1962891 39.8808594,18.9365234 C39.9290122,18.6826818 39.912898,18.4208268 39.8339844,18.1748047 C40.468256,18.2225197 41.1042109,18.1075638 41.6816406,17.8408203 C42.32536,17.5480634 42.9109264,17.1414752 43.4101563,16.640625 C43.8339844,16.2259115 44.1230469,15.8336589 44.2773438,15.4638672 C44.4316406,15.0940755 44.4283854,14.8079427 44.2675781,14.6054688 C44.1054688,14.4016927 43.7044271,14.2145182 43.0644531,14.0439453" id="形状" fill="#385BA8" fill-rule="nonzero"></path>
                        <polyline id="路径" fill="#385BA8" fill-rule="nonzero" points="51.0058594 16.1503906 46.5615234 14.9677734 39.3964844 21.9941406 43.9560547 23.2060547 45.1630859 22.0224609 41.8144531 21.1318359 43.7646484 19.2197266 46.7734375 20.0205078 47.9804688 18.8359375 44.9716797 18.0361328 46.5595703 16.4785156 49.7939453 17.3388672 51.0058594 16.1503906"></polyline>
                        <path d="M54.3662109,16.8945313 C53.8996909,16.7720186 53.4127093,16.7484013 52.9365234,16.8251953 C52.419755,16.910473 51.921567,17.0842442 51.4638672,17.3388672 C50.9938231,17.5881866 50.5614678,17.902836 50.1796875,18.2734375 C49.6126302,18.828776 49.3160807,19.3496094 49.2900391,19.8359375 C49.2711589,20.1796875 49.4902344,20.5322266 49.9472656,20.8935547 C50.1781781,21.0670848 50.3974032,21.2556444 50.6035156,21.4580078 C50.7140659,21.5674914 50.760867,21.7259518 50.7275391,21.8779297 C50.6676001,22.0549842 50.5613901,22.2127819 50.4199219,22.3349609 C50.138927,22.6050138 49.8018141,22.809749 49.4326172,22.9345703 C49.0571447,23.0738505 48.647726,23.0932979 48.2607422,22.9902344 C47.8929036,22.8925781 47.711263,22.7063802 47.7158203,22.4316406 C47.7203776,22.156901 47.921875,21.7760417 48.3203125,21.2890625 L47.0058594,21.109375 C46.2845052,21.9166667 45.9169922,22.5794271 45.9033203,23.0976563 C45.8896484,23.6158854 46.2626953,23.976237 47.0224609,24.1787109 C47.5316032,24.31561 48.0634828,24.3461931 48.5849609,24.2685547 C49.1501432,24.1755724 49.6943692,23.9831425 50.1923828,23.7001953 C50.7188838,23.4167693 51.2036256,23.0618397 51.6328125,22.6455078 C52.0885417,22.2014974 52.3893229,21.8072917 52.5351563,21.4628906 C52.6809896,21.1184896 52.7027995,20.8219401 52.6005859,20.5732422 C52.4960938,20.3232422 52.2324219,20.0400391 51.8095703,19.7197266 C51.3867188,19.3994141 51.1757812,19.1455078 51.1767578,18.9541016 C51.1767578,18.804362 51.2620443,18.6464844 51.4326172,18.4804688 C51.6104008,18.3026004 51.8284907,18.1702724 52.0683594,18.0947266 C52.4194875,17.9789582 52.7965834,17.9670892 53.1542969,18.0605469 C53.4941406,18.1510417 53.6689453,18.2981771 53.6787109,18.5019531 C53.6884766,18.7057292 53.5348307,18.9947917 53.2177734,19.3691406 L54.4873047,19.6289063 C55.1259766,18.9778646 55.4514974,18.4088542 55.4638672,17.921875 C55.476237,17.4348958 55.1103516,17.0924479 54.3662109,16.8945313" id="路径" fill="#385BA8" fill-rule="nonzero"></path>
                        <path d="M62.5039062,19.2080078 L61.2929687,18.8867188 L57.3291016,22.7734375 C56.7626953,23.328776 56.3395182,23.7216797 56.0595703,23.9521484 C55.7826279,24.1809422 55.4667015,24.3579271 55.1269531,24.4746094 C54.7962781,24.5924824 54.4374719,24.606453 54.0986328,24.5146484 C53.7600911,24.4248047 53.5823568,24.2669271 53.5654297,24.0410156 C53.5485026,23.8151042 53.6604818,23.5514323 53.9013672,23.25 C54.0537109,23.063151 54.4378255,22.6679688 55.0537109,22.0644531 L58.9345703,18.2558594 L57.7246094,17.9335938 L53.8974609,21.6845703 C53.0966797,22.4703776 52.5302734,23.0751953 52.1982422,23.4990234 C51.9907426,23.7559081 51.8360841,24.0512861 51.7431641,24.3681641 C51.6593402,24.6317623 51.6901712,24.9184549 51.828125,25.1582031 C51.9667969,25.391276 52.3222656,25.5843099 52.8945312,25.7373047 C53.3389072,25.8623219 53.8040853,25.8955489 54.2617187,25.8349609 C54.7075536,25.76829 55.1416075,25.6384027 55.5507812,25.4492188 C56.0003031,25.239313 56.423478,24.9770822 56.8115234,24.6679688 C57.2327474,24.3365885 57.8733724,23.750651 58.7333984,22.9101563 L62.4970703,19.2197266" id="路径" fill="#385BA8" fill-rule="nonzero"></path>
                        <polyline id="路径" fill="#385BA8" fill-rule="nonzero" points="64.9628906 19.9355469 63.7529297 19.6142578 56.6464844 26.5820312 60.8662109 27.7041016 62.0732422 26.5205078 59.0644531 25.7197266 64.9628906 19.9355469"></polyline>
                        <polyline id="路径" fill="#385BA8" fill-rule="nonzero" points="72.6064453 21.8955078 67.84375 20.6289062 66.6308594 21.8173828 68.4091797 22.2900391 62.4560547 28.1269531 63.6669922 28.4492188 69.6191406 22.6123047 71.3945312 23.0839844 72.6064453 21.8955078"></polyline>
                        <path d="M75.6064453,22.5410156 C75.1402631,22.4184684 74.6535924,22.3948501 74.1777344,22.4716797 C73.6608152,22.5570352 73.1623731,22.7304494 72.7041016,22.984375 C72.23468,23.234615 71.8027274,23.5495393 71.4208984,23.9199219 C70.8531901,24.4752604 70.5563151,24.9960937 70.5302734,25.4824219 C70.5126953,25.8261719 70.7317708,26.1787109 71.1875,26.5400391 C71.418633,26.7132948 71.6378758,26.9018697 71.84375,27.1044922 C71.9536877,27.2143569 72.0007066,27.372311 71.96875,27.5244141 C71.9080524,27.7010922 71.8019668,27.8587051 71.6611328,27.9814453 C71.3799339,28.251723 71.0424514,28.4564801 70.6728516,28.5810547 C70.2973144,28.7200175 69.8879947,28.7394602 69.5009766,28.6367187 C69.1328125,28.5390625 68.9501953,28.3525391 68.9560547,28.078125 C68.9619141,27.8037109 69.1630859,27.4238281 69.5644531,26.9423828 L68.2470703,26.7578125 C67.5244141,27.5644531 67.156901,28.226888 67.1445313,28.7451172 C67.1321615,29.2633464 67.5048828,29.6233724 68.2626953,29.8251953 C68.7716931,29.9628934 69.3036718,29.9938147 69.8251953,29.9160156 C70.3906826,29.8235693 70.935266,29.6314606 71.4335938,29.3486328 C71.9596234,29.0645336 72.4439967,28.7093046 72.8730469,28.2929687 C73.328776,27.8483073 73.6295573,27.4541016 73.7753906,27.1103516 C73.921224,26.7666016 73.9433594,26.4700521 73.8417969,26.2207031 C73.7363281,25.9716797 73.4736328,25.6875 73.0507813,25.3671875 C72.6279297,25.046875 72.4169922,24.7929687 72.4179688,24.6015625 C72.4179688,24.4511719 72.5026042,24.2929687 72.671875,24.1269531 C72.850207,23.9492481 73.0690508,23.8175397 73.3095703,23.7431641 C73.6598527,23.6266244 74.036457,23.6144102 74.3935547,23.7080078 C74.7353516,23.7991536 74.9104818,23.9462891 74.9189453,24.1494141 C74.9274089,24.3525391 74.773763,24.6416016 74.4580078,25.0166016 L75.7275391,25.2763672 C76.366862,24.6253255 76.6923828,24.0563151 76.7041016,23.5693359 C76.7158203,23.0823568 76.3499349,22.7395833 75.6064453,22.5410156" id="路径" fill="#385BA8" fill-rule="nonzero"></path>
                        <path d="M57.2773438,24.0781229 C48.1843405,24.0741751 39.9846616,29.5490978 36.5030038,37.9491444 C33.021346,46.3491909 34.943629,56.0194722 41.3732141,62.4493368 C47.8027993,68.8792014 57.472997,70.8019047 65.8731949,67.320612 C74.2733928,63.8393193 79.7486718,55.6398784 79.7451189,46.546875 C79.7451189,34.1376953 69.6855469,24.0781229 57.2773438,24.0781229 Z M39.8564453,37.0205078 C43.3379664,30.6515249 50.0189056,26.6914234 57.2773438,26.6943343 C68.2402344,26.6943343 77.1289103,35.5810547 77.1289103,46.546875 C77.1322772,51.8128694 75.0418618,56.8641508 71.3182406,60.5877719 C67.5946195,64.311393 62.5433381,66.4018084 57.2773438,66.3984416 C46.3134766,66.3984416 37.4257556,57.5117187 37.4257556,46.546875 C37.4204219,43.2173443 38.2565255,39.9404496 39.8564453,37.0205078 Z" id="形状" fill="#C0610E" fill-rule="nonzero"></path>
                        <path d="M57.765625,23.1279249 C51.8056094,23.1240401 46.0885831,25.4899246 41.8742148,29.704293 C37.6598465,33.9186613 35.293962,39.6356876 35.2978468,45.5957031 C35.2978468,58.0078125 45.3574219,68.0664104 57.765625,68.0664104 C63.7261587,68.0700368 69.443579,65.703698 73.6581304,61.4887802 C77.8726818,57.2738624 80.2385236,51.5562365 80.2343804,45.5957031 C80.2343804,33.1865234 70.1748047,23.1279249 57.765625,23.1279249 Z M75.1806641,55.1328125 C71.6965877,61.4949673 65.0192996,65.4497431 57.765625,65.4472668 C46.8027344,65.4472668 37.9140578,56.5605469 37.9140578,45.5957031 C37.9104323,40.3295396 40.0007332,35.2780071 43.7243824,31.5541747 C47.4480317,27.8303423 52.4994613,25.7397929 57.765625,25.74316 C68.7304687,25.74316 77.6181866,34.6298828 77.6181866,45.5957031 C77.623198,48.9294598 76.7846795,52.2102976 75.1806641,55.1328125 Z" id="形状" fill="#FF8F2C" fill-rule="nonzero"></path>
                        <path d="M40.921875,61.2304688 L37.5947266,63.8447266 L35.9970703,65.0986328 C35.9365234,65.1044922 35.8759766,65.1074231 35.8144531,65.1074231 C35.2028222,65.1081203 34.6288825,64.8119829 34.2750152,64.3131134 C33.9211478,63.8142439 33.8313585,63.1746801 34.0341797,62.5976562 L35.6357422,61.3466797 L38.9560547,58.7314453 L40.921875,61.2304688 Z" id="路径" fill="#C0610E" fill-rule="nonzero"></path>
                        <path d="M30.6210937,70.6806641 L20.4345703,78.6816406 C19.6985812,79.2755535 18.6999393,79.4274722 17.8206332,79.0792864 C16.9413271,78.7311007 16.3174124,77.9366857 16.1875414,76.9999113 C16.0576705,76.063137 16.4419383,75.1289513 17.1933594,74.5546875 L27.3779297,66.5537109 C27.0469532,67.5062478 27.1970522,68.5600393 27.7808233,69.3822821 C28.3645943,70.2045249 29.30996,70.6936978 30.3183594,70.6953125 C30.4199219,70.6953125 30.5205078,70.6904297 30.6210937,70.6806641 Z" id="路径" fill="#926744" fill-rule="nonzero"></path>
                        <path d="M38.7539062,64.2919922 L33.2587891,68.609375 L30.6220703,70.6806641 C30.5244141,70.6904297 30.4208984,70.6953125 30.3193359,70.6953125 C29.3109366,70.6936978 28.3655709,70.2045249 27.7817999,69.3822821 C27.1980288,68.5600393 27.0479297,67.5062478 27.3789062,66.5537109 L30.015625,64.4833984 L35.5126953,60.1650391 L38.7539062,64.2919922 Z" id="路径" fill="#856041" fill-rule="nonzero"></path>
                        <path d="M77.1289232,46.546875 C77.1327941,49.5188772 76.4668851,52.45355 75.1806641,55.1328125 C71.6965877,61.4949673 65.0192996,65.4497431 57.765625,65.4472668 C46.8027344,65.4472668 37.9140417,56.5605469 37.9140417,45.5957031 C37.9097589,42.6277547 38.5736301,39.6969086 39.8564453,37.0205078 C43.3379664,30.6515249 50.0189056,26.6914234 57.2773438,26.6943343 C68.2402344,26.6943343 77.1289232,35.5830078 77.1289232,46.546875 Z" id="路径" fill="#FFFFFF" fill-rule="nonzero" opacity="0.4"></path>
                        <path d="M58.4980469,34.1572266 C59.3743378,34.541048 60.2099036,35.0118308 60.9921875,35.5625 C61.2099203,35.7036261 61.4614692,35.783879 61.7207031,35.7949219 C62.4980056,35.8892019 63.2595733,35.5247918 63.6738281,34.8603516 C63.9140625,34.4052734 64.0341797,33.8544922 63.8691406,33.3505859 L63.6738281,32.8828125 C63.5033109,32.5925195 63.2612329,32.3507777 62.9707031,32.1806641 C62.188321,31.6301503 61.3527713,31.1593766 60.4765625,30.7753906 C60.2591944,30.6342566 60.0079561,30.5539952 59.7490234,30.5429687 C58.9713943,30.446692 58.2088034,30.8115917 57.7958984,31.4775391 C57.5556641,31.9316406 57.4355469,32.4824219 57.6005859,32.9863281 L57.7958984,33.4541016 C57.9660121,33.7446313 58.2077538,33.9867093 58.4980469,34.1572266 L58.4980469,34.1572266 Z" id="路径" fill="#FFFFFF" fill-rule="nonzero"></path>
                        <path d="M64.6503906,38.6933594 C64.9375,38.8730469 65.2154948,39.0660807 65.484375,39.2724609 L65.0878906,38.9648438 C65.8020192,39.518484 66.4431844,40.1603054 66.9960937,40.875 L66.6904297,40.4804688 C67.2573617,41.2167637 67.7279636,42.0224315 68.0908203,42.8779297 L67.8955078,42.4101563 C68.1968994,43.1272107 68.4173388,43.8756564 68.5527344,44.6416016 C68.7082693,45.1246203 69.0264719,45.5387669 69.453125,45.8134766 C69.6712418,45.9537894 69.9225647,46.0339701 70.1816406,46.0458984 C70.4405601,46.1037479 70.7102136,46.0916134 70.9628906,46.0107422 C71.4365234,45.8574219 71.8935547,45.5634766 72.1347656,45.1103516 L72.3300781,44.6425781 C72.4228626,44.3017752 72.4228626,43.9423654 72.3300781,43.6015625 C72.2270331,43.0206843 72.0747922,42.4496176 71.875,41.8945313 C71.629664,41.2027915 71.3302359,40.5314455 70.9794922,39.8867188 C70.6158897,39.2518595 70.202138,38.6470702 69.7421875,38.078125 C69.3800001,37.6125669 68.9798689,37.1778121 68.5458984,36.7783203 C67.9524434,36.2319051 67.3097334,35.7415363 66.6259766,35.3134766 C66.408404,35.1727745 66.1572863,35.0925516 65.8984375,35.0810547 C65.6395057,35.0233467 65.3698896,35.0354795 65.1171875,35.1162109 C64.6339011,35.2712355 64.2195979,35.5895584 63.9453125,36.0166016 C63.7050781,36.4707031 63.5849609,37.0214844 63.75,37.5253906 C63.8973872,38.0123592 64.2171267,38.4289579 64.6494141,38.6972656 L64.6503906,38.6933594 Z" id="路径" fill="#FFFFFF" fill-rule="nonzero"></path>
                    </g>
                </g>
            </g>
        </g>
    </g>
</svg>