<?xml version="1.0" encoding="UTF-8"?>
<svg width="120px" height="120px" viewBox="0 0 120 120" version="1.1" xmlns="http://www.w3.org/2000/svg" xmlns:xlink="http://www.w3.org/1999/xlink">
    <title>15-图标/2提示/3D提示/灰无结果</title>
    <g id="平台icon231127" stroke="none" stroke-width="1" fill="none" fill-rule="evenodd">
        <g id="平台icon231128" transform="translate(-840, -548)">
            <g id="15-图标/2提示/3D提示/灰无结果" transform="translate(840, 548)">
                <rect id="_mockplus_fix_" x="0" y="0" width="120" height="120"></rect>
                <g id="没有搜素结果">
                    <rect id="矩形备份-4" fill-opacity="0" fill="#EFE9DE" x="0" y="0" width="120" height="120"></rect>
                    <g id="search_none" transform="translate(18, 21)">
                        <g id="矩形" transform="translate(38.4082, 3.1696)" fill="#E2E2E2">
                            <polygon id="路径" points="8.01097076 0 45.1907014 3.77664114 44.9413327 38.1490523 41.3500947 44.3977658 0 36.5287436 0.24936874 0"></polygon>
                        </g>
                        <g id="路径-6" transform="translate(35.1967, 3.1468)" fill="#D3D3D3">
                            <polygon id="路径" points="5.78879998 0.813417849 0.24936874 0 0 37.7786494 44.0127622 46.6503703 46.5786353 42.4323459 5.53943124 34.2663487"></polygon>
                        </g>
                        <g id="路径-6-2" transform="translate(35.1967, 3.1468)" fill="#D3D3D3">
                            <polygon id="路径" points="0 37.7786494 0.24936874 0 5.78879998 0.813417849 5.53943124 34.2663487"></polygon>
                        </g>
                        <g id="路径-7" transform="translate(35.4461, 0)" fill="#DDDDDD">
                            <polygon id="路径" points="0 2.9371156 44.208812 9.66637379 43.9602636 49.7971633 48.3045295 45.1801807 48.5538982 5.64334128 6.73377626 0"></polygon>
                        </g>
                        <polygon id="路径-7-2" fill="#EAEAEA" points="79.6549138 9.66637379 79.4063653 49.7971633 83.7506313 45.1801807 84 5.64334128"></polygon>
                        <g id="路径-8" transform="translate(0.6255, 41.8963)" fill="#B7B7B7">
                            <polygon id="路径" points="33.6516552 0 78.8948553 10.1346806 78.8948553 17.735283 48.7327219 36.1036777 0 23.3435421 0 14.6284674"></polygon>
                        </g>
                        <g id="路径-10" transform="translate(34.6488, 41.8963)" fill="#C8C8C8">
                            <polygon id="路径" points="0 0 0 7.29220535 45.0824229 17.0148739 45.0824229 9.11484875"></polygon>
                        </g>
                        <g id="路径-11" transform="translate(0.8372, 41.8963)" fill="#DDDDDD">
                            <polygon id="路径" points="33.8116121 0 33.8116121 7.53696498 0 23.2391113 0 14.4465294"></polygon>
                        </g>
                        <g id="路径-9" transform="translate(0.0021, 51.4411)" fill="#DDDDDD">
                            <polygon id="路径" points="79.7290921 0 49.3561437 16.3564704 0 5.51606627 0 15.0510857 49.3561437 26.5588678 79.7290921 8.70446843"></polygon>
                        </g>
                        <g id="路径-9-2" transform="translate(49.3583, 51.4411)" fill="#EAEAEA">
                            <polygon id="路径" points="0 16.3564704 30.3729484 1.41485794e-14 30.3729484 8.70446843 0 26.5588678"></polygon>
                        </g>
                        <g id="路径-12" transform="translate(0, 41.4818)" fill="#F4F4F4" fill-rule="nonzero">
                            <path d="M49.3123161,26.5613871 C49.2819701,26.5613871 49.2517133,26.5581182 49.222084,26.5515967 L0.330225536,15.8507055 C0.153339449,15.813082 0.0209285868,15.6664519 0.00224549248,15.4875046 C-0.0164376018,15.3085573 0.0828567458,15.1379963 0.248196345,15.0650271 L34.6102243,0.035153859 C34.6904304,2.85574505e-05 34.7796442,-0.00897384707 34.8653351,0.00904616477 L79.6097977,9.47798052 C79.7806183,9.51445372 79.9105443,9.65285277 79.9354317,9.82485035 C79.9603191,9.99684794 79.8749047,10.1660706 79.7213574,10.2489734 L49.5108268,26.5091717 C49.4499939,26.5425813 49.3818016,26.5605184 49.3123161,26.5613871 Z M1.75835375,15.3130502 L49.2532551,25.7055442 L78.3276815,10.0547974 L34.8259611,0.848571708 L1.75835375,15.3130502 Z" id="形状"></path>
                        </g>
                        <g id="路径-13" transform="translate(35.2, 2.7695)" fill="#F4F4F4" fill-rule="nonzero">
                            <path d="M43.9602894,47.4266626 C43.9327332,47.4266626 43.9052363,47.4240931 43.8782602,47.4184962 L0.320759988,38.5133249 C0.13288877,38.4751079 -0.00151037341,38.3099813 1.28165636e-05,38.1192618 L0.246113424,0.395275401 C0.247186805,0.279712659 0.298590532,0.170291083 0.387022807,0.095325813 C0.475455081,0.0203605434 0.592225581,-0.012781512 0.707117476,0.00447585305 L44.2646177,6.53139941 C44.4618947,6.56060564 44.6076293,6.72953806 44.6066841,6.92791002 L44.3605919,47.0268808 C44.3592386,47.2462629 44.1800456,47.4233955 43.9594691,47.4233914 L43.9602894,47.4266626 Z M0.803911921,37.7994426 L43.5591667,46.5389932 L43.8052542,7.27220524 L1.04589803,0.863582167 L0.803911921,37.7994426 Z" id="形状"></path>
                        </g>
                        <g id="矩形-2" transform="translate(44.8065, 41.6975)" fill="#B7B7B7">
                            <path d="M0.721802094,0.00955326246 L23.5808767,4.82968631 C23.6889117,4.85204741 23.7835827,4.9161959 23.844046,5.00800818 C23.9045094,5.09982046 23.9258075,5.21176883 23.9032514,5.31920558 L23.9032514,5.31920558 L23.6899755,6.31374556 C23.6411813,6.53609251 23.4221249,6.67843704 23.1978003,6.63356481 L0.330522855,1.81587936 C0.222529057,1.79353194 0.127920602,1.7293486 0.0675886747,1.63750212 C0.00725674719,1.54565564 -0.0138358739,1.43370114 0.00896842754,1.32636009 L0.00896842754,1.32636009 L0.222244323,0.331820113 C0.245066107,0.222945164 0.310679285,0.127652546 0.404493272,0.0671327423 C0.49830726,0.0066129384 0.612544627,-0.0141167977 0.721802094,0.00955326246 L0.721802094,0.00955326246 Z" id="路径"></path>
                        </g>
                        <g id="编组-8" transform="translate(16.6992, 62.2236)">
                            <g id="路径-14" transform="translate(0.6267, 0.2521)" fill="#F4F4F4">
                                <polygon id="路径" points="1.87846847 0 1.87846847 1.15608134 0.625882725 2.07474583 0 0.829735158"></polygon>
                            </g>
                            <g id="路径-16" transform="translate(1.2526, 1.8675)" fill="#EAEAEA">
                                <polygon id="路径" points="0.625882725 0 9.55640071 2.08208862 9.55640071 3.32709928 0 0.459332246"></polygon>
                            </g>
                            <g id="路径-14备份" transform="translate(11.8147, 2.7046)" fill="#F4F4F4">
                                <polygon id="路径" points="1.87846847 0 1.87846847 1.77858667 0.0820291907 3.11252667 0 1.08183758"></polygon>
                            </g>
                            <g id="路径-15" fill="#C8C8C8">
                                <polygon id="路径" points="1.25258574 0 0 0.770992845 0 2.94935358 11.8966935 5.81712062 11.8966935 3.78643153 13.6931328 2.70459395 12.3519555 2.41577758 10.7269573 3.32709928 10.7269573 4.57210995 1.25258574 2.32684825 1.25258574 1.14873855 2.50517148 0.252102422"></polygon>
                            </g>
                        </g>
                        <g id="路径-18" transform="translate(9.0696, 13.4585)" fill="#EAEAEA">
                            <path d="M4.38528053,6.4787875 C4.18348872,6.20683235 3.64565066,4.04723652 2.77176635,0 L0,1.82590687 C3.12749961,5.20141417 4.58925979,6.75237438 4.38528053,6.4787875 Z" id="路径"></path>
                        </g>
                        <g id="路径-19" transform="translate(4.3226, 16.0864)" fill="#EAEAEA">
                            <polygon id="路径" points="9.28078263 5.99416342 2.26974771 0 0 3.03828292"></polygon>
                        </g>
                        <g id="路径-20" transform="translate(6.046, 21.8758)" fill="#EAEAEA">
                            <polygon id="路径" points="7.02908135 0.969248149 0 0 0.597172508 1.7590059"></polygon>
                        </g>
                        <g id="编组" opacity="0.5" transform="translate(23.2874, 21.9)" fill="#F4F4F4" fill-rule="nonzero">
                            <path d="M8.2377122,1.4182079 C12.1332785,4.28352734 14.8000474,10.5420312 14.1938517,15.3964306 C13.587656,20.25083 9.93653673,21.8646118 6.04261105,18.9992924 C2.14868537,16.1339729 -0.519724198,9.8754691 0.0856512288,5.0210697 C0.691026656,0.166670303 4.34214593,-1.44711155 8.2377122,1.4182079 Z" id="路径"></path>
                        </g>
                        <path d="M26.1513742,22.1613531 L28.9338043,20.9032886 C28.1619096,21.252479 27.5237225,21.846429 27.0364691,22.6696373 C26.5590592,23.4765282 26.2440672,24.4686206 26.1005161,25.6198067 C25.9592818,26.8569957 25.9943535,28.1078206 26.2046931,29.3352579 C26.4369255,30.736256 26.838212,32.1042798 27.3998585,33.40969 C27.9494448,34.7139004 28.6565369,35.9467574 29.5055478,37.0810845 C30.2386597,38.0712353 31.1120317,38.9506118 32.0984905,39.6918539 C33.0221392,40.3714698 33.949069,40.8153006 34.8530307,41.0111083 C35.7881635,41.213443 36.6576729,41.1400151 37.4443328,40.7932722 L37.4738634,40.7802184 L34.6906129,42.0382829 L34.6619027,42.0513368 C33.8777036,42.3980796 33.0057333,42.4706916 32.0706006,42.268357 C31.1682795,42.0725493 30.2388887,41.6295343 29.3152401,40.9499184 C28.3289225,40.2069392 27.4556026,39.3262412 26.7222973,38.3350697 C25.8737145,37.2004643 25.1666531,35.9676608 24.616608,34.6636752 C24.0556651,33.3599932 23.6543956,31.9939445 23.4214427,30.5949542 C23.2113444,29.3677558 23.1765485,28.1171959 23.3180859,26.8803188 C23.461637,25.7291327 23.7766291,24.7370403 24.254039,23.9301494 C24.7412924,23.1044935 25.3794795,22.5105435 26.1513742,22.1613531 Z" id="路径" fill="#D3D3D3" fill-rule="nonzero"></path>
                        <path d="M42.6654908,37.823522 C42.6835373,37.6815614 42.6991228,37.5379691 42.7130678,37.3927451 C42.7130678,37.3772436 42.7130678,37.3625581 42.7179895,37.3470566 L42.7179895,37.3103427 C42.7311142,37.1675662 42.741778,37.0239739 42.7508012,36.8795657 C42.7508012,36.8697753 42.7508012,36.8599849 42.7508012,36.8501946 C42.7508012,36.8404042 42.7508012,36.8167441 42.7508012,36.8012426 C42.7590041,36.6527551 42.7655664,36.5042676 42.7696679,36.3533325 C42.7696679,36.3533325 42.7696679,36.3492532 42.7696679,36.3476214 L42.7696679,36.3476214 C42.7696679,36.1950546 42.7745897,36.0416719 42.7745897,35.8866575 C42.7745897,35.8695243 42.7745897,35.853207 42.7745897,35.8368897 C42.7745897,35.8205724 42.7745897,35.8140454 42.7745897,35.8034392 C42.7745897,35.6525041 42.7745897,35.501569 42.7663867,35.3490021 C42.7663867,35.3367642 42.7663867,35.3245262 42.7663867,35.3122882 C42.7663867,35.3000502 42.7663867,35.2788377 42.7663867,35.2617045 C42.7603713,35.1039705 42.7527152,34.9454207 42.7434186,34.786055 C42.7430143,34.7833503 42.7430143,34.780601 42.7434186,34.7778963 C42.743012,34.7700148 42.743012,34.7621177 42.7434186,34.7542362 C42.7327548,34.5959583 42.7204504,34.4376804 42.7065054,34.2777708 C42.7065054,34.2622694 42.7065054,34.2467679 42.7065054,34.2304506 L42.7065054,34.2076064 C42.6917402,34.0444333 42.674514,33.8861554 42.654827,33.7237982 L42.6499053,33.676478 C42.6499053,33.6609765 42.6458038,33.6446592 42.6433429,33.6291578 C42.6236559,33.4659847 42.6017815,33.3028116 42.5777196,33.1396385 C42.5777196,33.1314799 42.5777196,33.1233212 42.5777196,33.1151625 C42.5777196,33.1070039 42.5719776,33.0817121 42.5695167,33.0645789 C42.5454548,32.9079327 42.5197523,32.7504707 42.4924092,32.5921928 L42.4874875,32.5595582 L42.4874875,32.5473202 C42.4587773,32.3841471 42.4276062,32.220974 42.3947945,32.0618803 L42.384951,32.0080331 C42.384951,31.9925317 42.3775684,31.9762144 42.3742872,31.9598971 C42.3422958,31.8048826 42.3094841,31.6490523 42.2733913,31.493222 C42.2724175,31.4868884 42.2710476,31.4806213 42.2692898,31.4744571 C42.2692898,31.4581398 42.2610869,31.4410067 42.2578058,31.4246893 C42.2255409,31.2881679 42.1924558,31.1521903 42.1585504,31.0167566 C42.1528084,30.9955441 42.1487069,30.9751475 42.1437852,30.9547508 C42.1388634,30.9343542 42.1364026,30.929459 42.1331214,30.917221 C42.095388,30.7671018 42.0554671,30.6169826 42.0133588,30.4668633 C42.0133588,30.4578888 42.0133588,30.4489143 42.0059761,30.4399398 L41.98875,30.377934 C41.9526572,30.2517468 41.915744,30.1252876 41.8780106,29.9985565 C41.8714483,29.9765282 41.8657062,29.9544998 41.8591439,29.9324714 C41.8525816,29.9104431 41.850941,29.9079955 41.8476598,29.8957575 C41.8009032,29.7423748 41.7525059,29.589808 41.7024681,29.4364253 L41.6926246,29.4062382 C41.6868826,29.3874733 41.6795,29.3687084 41.6737579,29.3499435 C41.6237201,29.1998243 41.572862,29.049705 41.519543,28.8995858 C41.5146213,28.8840843 41.5096995,28.8685829 41.5039575,28.8530815 C41.4982154,28.83758 41.499856,28.8424752 41.4982154,28.8367642 C41.4260298,28.6360613 41.3511098,28.4348144 41.2734555,28.2330237 C41.2677134,28.2183381 41.263612,28.2044684 41.2578699,28.1905987 L41.243925,28.1563324 C41.2127539,28.0747458 41.1799422,27.9931593 41.1471305,27.9115727 C41.131545,27.8715953 41.1159594,27.8299862 41.0995536,27.7916405 C41.0503361,27.6698046 40.9997514,27.5487846 40.9477996,27.4285804 C40.9313937,27.388603 40.9141676,27.3469938 40.8977618,27.3102799 L40.8575675,27.2197188 C40.8236621,27.1430275 40.7900301,27.067152 40.7566716,26.9920924 C40.7345237,26.9431405 40.7131961,26.8950044 40.6910482,26.8468683 C40.656596,26.7718087 40.6221437,26.6967491 40.5868711,26.6225053 C40.5655436,26.576001 40.5433957,26.5286808 40.5212478,26.4821765 C40.4840612,26.4043973 40.4463278,26.3268901 40.4080475,26.2496548 C40.3883605,26.2080457 40.3678532,26.1680683 40.3473459,26.1248274 C40.299769,26.0293712 40.2513718,25.9339149 40.2029745,25.8392745 L40.173444,25.7813481 C40.173737,25.7791822 40.173737,25.776987 40.173444,25.7748211 C40.1056332,25.6431948 40.0367287,25.5126564 39.9667305,25.3832057 L39.9076694,25.2763274 C39.8535302,25.1767918 39.7985706,25.078072 39.7436111,24.9793523 L39.7066979,24.9124514 L39.6911124,24.8871595 C39.586115,24.7027739 39.4789302,24.5208359 39.369558,24.3413456 C39.361355,24.3291076 39.3539724,24.3160537 39.3465898,24.3029999 L39.3301839,24.2768922 C39.2361238,24.1229656 39.1404231,23.9709426 39.0430818,23.8208234 L39.0168324,23.7792143 L38.9889425,23.738421 C38.8943355,23.5942848 38.7989082,23.4515083 38.7026606,23.3100916 C38.6977389,23.3027488 38.6928171,23.2945902 38.6870751,23.2872474 C38.681333,23.2799046 38.6682084,23.2603238 38.6583649,23.2464541 C38.5561018,23.0968788 38.4521982,22.950295 38.3466539,22.8067026 L38.3466539,22.8067026 L38.3466539,22.8067026 C38.2372817,22.6554956 38.1259954,22.507552 38.0127951,22.3628718 L37.9865458,22.3277896 L37.9734211,22.3106565 C37.8618614,22.1670641 37.7486611,22.0267353 37.6354609,21.8880382 L37.6051101,21.8513242 L37.5846028,21.8268482 C37.4689416,21.6873353 37.3532804,21.5519016 37.2359787,21.4189155 L37.2072685,21.3846492 C37.1982453,21.3756747 37.1900424,21.3667001 37.1818394,21.3569098 C37.0637174,21.2239237 36.9455954,21.0933852 36.8258327,20.9661102 C36.8168095,20.9563198 36.8077863,20.9457136 36.7979428,20.9359232 L36.7700529,20.906552 C36.6511106,20.7817246 36.5321682,20.6617924 36.4115853,20.5385967 L36.3869766,20.5133049 L36.3410402,20.4782227 C36.2229182,20.360738 36.1031556,20.245701 35.983393,20.1347433 L35.9645262,20.1167943 L35.9325349,20.0874231 C35.8111317,19.9764654 35.6864473,19.8671395 35.567505,19.7610769 L35.5609426,19.7553659 C35.5550293,19.7497625 35.5487247,19.7445824 35.5420759,19.7398644 C35.4255945,19.6386971 35.3074724,19.5407933 35.1893504,19.445337 L35.1639213,19.4233086 L35.1524373,19.41515 C35.0375964,19.3221413 34.9219352,19.2321242 34.8054538,19.1450985 C34.7939697,19.136124 34.7824856,19.1263336 34.7701812,19.118175 L34.6799491,19.0504581 C34.589717,18.984373 34.4994849,18.9207355 34.4092528,18.8579139 L34.3805426,18.8367014 C34.3682382,18.8277269 34.3551135,18.8203841 34.3428091,18.8122254 C34.227148,18.7306389 34.1106665,18.6539475 33.9933648,18.5788879 L33.9933648,18.5788879 L33.9892633,18.5788879 C33.8744225,18.50546 33.7587613,18.4352956 33.6439204,18.3667629 L33.606187,18.3439187 L33.5823986,18.3308648 C33.4708389,18.2655956 33.3584589,18.2035898 33.2460789,18.1432158 L33.2173687,18.1268985 L33.1804555,18.1089494 C33.0645209,18.0480315 32.9488598,17.9895611 32.833472,17.9335383 L32.8260894,17.9335383 L32.8055821,17.9245638 C32.6907412,17.8701728 32.5761738,17.8187733 32.4618798,17.7703653 L32.4290681,17.7556797 L32.4052797,17.7458893 L32.3232505,17.7132547 C32.2773141,17.6944898 32.2313778,17.6757249 32.1854414,17.6585917 L32.0984905,17.6251412 L32.0230236,17.5965859 L31.9688844,17.577821 L31.8745508,17.5443705 L31.7482258,17.5019455 L31.6538923,17.4725744 L31.6071356,17.4570729 L31.5308485,17.4350446 L31.4307729,17.4064893 C31.388938,17.3942513 31.3487437,17.383645 31.3069088,17.3730388 L31.2084738,17.347747 L31.178123,17.3395883 L31.0960938,17.3208234 L30.9853544,17.2955316 L30.8705135,17.2726873 L30.7605944,17.2514748 L30.7327045,17.2465796 L30.6564173,17.2343417 L30.5169677,17.2066022 L30.4127906,17.1927325 C30.3701354,17.1878373 30.3307614,17.1821263 30.2848251,17.1780469 L30.2462714,17.1731518 L30.1896712,17.1690724 C30.1379928,17.1641772 30.0863144,17.1609138 30.0346361,17.1576503 L29.9403025,17.1519392 L29.7852673,17.1470441 L29.7245657,17.1470441 L29.6991367,17.1470441 C29.6105451,17.1470441 29.5219536,17.1470441 29.4341824,17.1470441 L29.4054722,17.1470441 C29.323443,17.1470441 29.2479761,17.1560186 29.1700484,17.1633614 L29.1364164,17.1633614 L29.0543872,17.1723359 L28.9797407,17.1813104 C28.9321637,17.1870215 28.8854071,17.1935484 28.8378302,17.2008912 L28.7787691,17.2098657 C28.7123255,17.2204719 28.6467021,17.2327099 28.5802585,17.2465796 L28.5482671,17.2531066 C28.4998699,17.2637128 28.452293,17.2735032 28.4038957,17.2857412 L28.3858493,17.2898205 L28.2636258,17.3224551 L28.1725734,17.347747 C28.1299182,17.3599849 28.0905442,17.3738547 28.0454282,17.3869085 L27.963399,17.4138321 L27.8239494,17.4644157 L27.7542246,17.4897075 C27.68532,17.5166311 27.6164155,17.5451864 27.5483313,17.5753734 L24.7659011,18.8334379 C24.8339854,18.8032509 24.9028899,18.7746956 24.9717944,18.7518514 L25.0415192,18.7265596 C25.0874556,18.7086105 25.1342122,18.6914773 25.1801486,18.6759759 C25.2080385,18.6661855 25.2359284,18.6580269 25.2621777,18.6490523 C25.3048329,18.6351826 25.3442069,18.6213129 25.3901433,18.6090749 C25.4196738,18.6001004 25.4500246,18.5927576 25.4803754,18.584599 C25.5107262,18.5764403 25.5624046,18.5617547 25.6034192,18.5519644 C25.6575584,18.5389105 25.712518,18.5266725 25.7674776,18.5152504 L25.7986486,18.5079076 C25.864272,18.4948538 25.9307156,18.4826158 25.9971593,18.4720095 L26.0554,18.463035 L26.1981308,18.4426384 L26.2727774,18.4344797 L26.3859777,18.4230576 C26.4639054,18.4165307 26.5426534,18.4108196 26.6214014,18.4075562 L26.6492914,18.4075562 C26.7378829,18.4034768 26.8256541,18.402661 26.9142456,18.4034768 L27.0011966,18.4034768 L27.1562318,18.408372 L27.2505653,18.4132672 L27.4047802,18.4255052 L27.5007544,18.4344797 L27.6287199,18.4491653 L27.7320767,18.4622192 L27.8633234,18.4826158 L27.9658599,18.499749 L28.075779,18.5209615 L28.1914401,18.5438057 C28.2283533,18.5511485 28.2644461,18.560123 28.3013593,18.5682817 L28.418661,18.5960211 L28.5162757,18.6213129 L28.6401398,18.6539475 L28.7402154,18.6833187 L28.8640795,18.7200326 L28.9575928,18.7502197 L29.084738,18.7926447 L29.1782513,18.8252793 L29.3086777,18.8734153 L29.3956287,18.90605 L29.5326174,18.9607129 L29.6146466,18.9941634 L29.6704264,19.0178235 C29.7852673,19.0667754 29.9001082,19.1184469 30.014949,19.172838 L30.0420187,19.1858918 C30.1585001,19.2405548 30.2741613,19.300113 30.3898225,19.360487 L30.4554458,19.3955692 C30.5680992,19.4548554 30.6802058,19.5174051 30.7917655,19.5832183 L30.8524671,19.6191164 C30.9681282,19.6876491 31.0837894,19.7569976 31.1994506,19.8312414 L31.203552,19.8312414 C31.3200335,19.9054851 31.4365149,19.9838082 31.5529964,20.0645789 L31.61944,20.1094515 C31.7096721,20.1722731 31.7999042,20.2367265 31.8893161,20.3028116 C31.9319712,20.3338145 31.9713452,20.3656332 32.015641,20.397452 C32.1313022,20.4847496 32.2477836,20.5744948 32.3626245,20.6666876 L32.3987173,20.6968746 C32.5176597,20.7923309 32.6349614,20.8910506 32.7530834,20.9922179 L32.7776922,21.0134304 C32.8999157,21.118677 33.0237798,21.228003 33.1427221,21.3397766 L33.1927599,21.3862809 C33.3133428,21.4980545 33.4322851,21.6130915 33.5512275,21.7305761 L33.6078276,21.786055 C33.7275902,21.9059872 33.8473528,22.0308146 33.9654749,22.1540103 L34.022075,22.2135685 C34.1412908,22.3408435 34.2599597,22.47111 34.3780817,22.604368 L34.432221,22.6655579 C34.5487024,22.7993599 34.6649104,22.9353374 34.780845,23.0734906 L34.8308828,23.1346806 C34.9449034,23.2733777 35.0572834,23.4137065 35.1688431,23.5572989 L35.2090374,23.6086984 C35.3216908,23.7550103 35.4329771,23.9029539 35.5428962,24.0525292 L35.5428962,24.0525292 C35.6478936,24.1969374 35.7512504,24.3437931 35.8546071,24.4922807 L35.8989029,24.556734 C35.9956973,24.6970629 36.0911246,24.8398393 36.1851848,24.9850634 C36.2032312,25.0119869 36.2212776,25.0397264 36.2385037,25.0666499 C36.3361185,25.2167692 36.4312723,25.3685201 36.5264262,25.5227187 L36.5649799,25.5871721 C36.6740787,25.7666625 36.781537,25.9477846 36.8873546,26.1321702 C36.9045808,26.1631731 36.9218069,26.194176 36.9398533,26.2251789 C36.9956332,26.3230827 37.0505927,26.4226183 37.1039117,26.5221539 C37.1235987,26.5572361 37.1432857,26.5931342 37.1621524,26.6290323 C37.2326975,26.7587549 37.3016021,26.8884775 37.3696863,27.0206477 L37.4016777,27.0826534 C37.4500749,27.1781097 37.4992924,27.2743818 37.5468693,27.3706539 C37.5673766,27.4114472 37.5870636,27.4522405 37.6075709,27.4946655 L37.7207712,27.728003 C37.7429191,27.7745073 37.7642467,27.8210117 37.7863946,27.8683319 C37.8208468,27.9425756 37.8561194,28.0168194 37.8897514,28.091879 L37.956195,28.2371031 C37.989827,28.3129785 38.0234589,28.388854 38.0562706,28.4655454 C38.0890823,28.5422367 38.1177925,28.6042425 38.147323,28.6735911 C38.198728,28.795427 38.2490392,28.916447 38.2982567,29.0366512 L38.3466539,29.1565834 C38.3794656,29.23817 38.411457,29.3197565 38.4434484,29.401343 L38.4729789,29.4788503 C38.5511801,29.6795532 38.6258266,29.8808 38.6969186,30.0825907 L38.7190665,30.1454123 C38.7737526,30.2955316 38.8248841,30.4453789 38.8724611,30.5949542 L38.9019916,30.6822518 C38.9520294,30.8356345 38.9996063,30.9882013 39.0463629,31.141584 L39.077534,31.2435672 C39.1152675,31.3708422 39.1521806,31.4973014 39.1874531,31.6229446 C39.1956561,31.6531317 39.2046793,31.6833187 39.2128822,31.7126898 C39.2547171,31.8628091 39.2949114,32.0129283 39.3326448,32.1622317 L39.3572536,32.2617673 C39.3917058,32.3988327 39.4253378,32.5358981 39.4565089,32.6697 C39.4622509,32.6925442 39.467993,32.7153885 39.4729147,32.7382327 C39.5079139,32.8937911 39.5415458,33.0490774 39.5738106,33.2040919 C39.580373,33.2383582 39.5877556,33.2726246 39.5943179,33.3068909 C39.6271296,33.470064 39.6583007,33.6332371 39.6861906,33.7923309 C39.6861906,33.8070164 39.6919327,33.8225179 39.6943935,33.8372035 C39.7214632,33.9954814 39.7477125,34.1529434 39.771501,34.3095896 C39.771501,34.3340655 39.7788836,34.3593573 39.7821648,34.3838333 C39.8067735,34.5470064 39.8289214,34.7101795 39.8486084,34.8733526 C39.8486084,34.9051713 39.8559911,34.9369901 39.8600925,34.9688088 C39.8789592,35.1319819 39.8970056,35.295155 39.9117709,35.4518012 C39.9117709,35.4754613 39.9158724,35.4991214 39.9175129,35.5219656 C39.9322782,35.6818752 39.9445826,35.840697 39.9544261,35.998431 L39.9544261,36.0302498 C39.9642696,36.1934229 39.9716522,36.3484373 39.9773943,36.5067152 C39.9773943,36.5352705 39.9773943,36.5646416 39.9773943,36.5940128 C39.982316,36.7457638 39.9855972,36.8975147 39.9864175,37.047634 L39.9864175,37.1292205 C39.9864175,37.2834191 39.9864175,37.4376177 39.9806754,37.5893686 L39.9806754,37.5975273 C39.9806754,37.7476465 39.9700116,37.8969499 39.9618087,38.0446216 L39.956887,38.1262081 C39.948684,38.2714322 39.9371999,38.4150245 39.9248956,38.5569851 C39.9248956,38.5847245 39.9199738,38.6124639 39.9166927,38.6385716 C39.903568,38.7829798 39.8879824,38.927388 39.869936,39.0693486 L39.8650143,39.1068784 C39.8458741,39.2510146 39.8250934,39.3937911 39.8026721,39.5352077 L39.7952895,39.5825279 C39.771501,39.7261202 39.7444314,39.8680808 39.7132603,40.0084097 L39.698495,40.0802058 C39.6689645,40.2232543 39.6369731,40.3638551 39.6025209,40.5020083 L39.5852947,40.5713568 C39.5492019,40.715765 39.5098279,40.8577256 39.4688133,40.9980545 C39.4581495,41.0323208 39.4474857,41.0665872 39.4376422,41.1008535 L39.3982682,41.2248651 C39.3851435,41.2656583 39.3720188,41.3064516 39.3580739,41.3472449 C39.3441289,41.3880382 39.3310042,41.4288314 39.3170593,41.467993 C39.3031143,41.5071545 39.2899896,41.5422367 39.276865,41.5789507 C39.2588185,41.6279026 39.2415924,41.6760387 39.2227257,41.7233589 C39.203859,41.7706791 39.1956561,41.7943391 39.1817111,41.8294214 C39.1677661,41.8645036 39.1431574,41.9240618 39.1242907,41.9705661 C39.1103457,42.0040166 39.0964007,42.0374671 39.0816355,42.0701017 C39.0570267,42.1280281 39.0315977,42.1859546 39.0053483,42.2422493 C38.993044,42.268357 38.9815599,42.2952805 38.9692555,42.3238358 C38.9304284,42.4054224 38.8910543,42.4870089 38.8511335,42.5685955 L38.8511335,42.5685955 C38.8068377,42.6550772 38.7609014,42.7399272 38.7141447,42.8231455 L38.6723098,42.8965734 C38.6345764,42.9618426 38.596843,43.026296 38.557469,43.0891176 L38.5213761,43.1478599 C38.4573934,43.2490272 38.3914966,43.3480189 38.3236858,43.4448349 C38.3113814,43.4619681 38.299077,43.4799172 38.2859523,43.4970503 C38.2178681,43.5925066 38.147323,43.6855153 38.0751373,43.7752604 L38.0333024,43.82666 C37.9824443,43.8886657 37.9299457,43.9498557 37.877447,44.0094138 C37.8626817,44.0249153 37.849557,44.0412326 37.8347918,44.056734 C37.770809,44.1268985 37.7051857,44.196247 37.638742,44.2623321 L37.5944463,44.3047571 C37.5397601,44.3591482 37.4823397,44.4135392 37.422185,44.4679302 L37.3713269,44.5136187 C37.3007818,44.5756245 37.2285961,44.6359985 37.1547698,44.6931091 C37.1424654,44.7037153 37.1293408,44.7126898 37.1162161,44.7224802 C37.0530536,44.772248 36.9882505,44.8195682 36.9226272,44.8652567 C36.9029402,44.8791264 36.8840735,44.8929961 36.8635662,44.90605 C36.7864587,44.9590812 36.708531,45.0096649 36.6281424,45.0586168 L36.6018931,45.0733024 C36.5288871,45.1165432 36.4550608,45.1548889 36.379594,45.1981298 L36.3139706,45.2323961 C36.2319414,45.2748211 36.1449905,45.3139827 36.0580395,45.354776 L38.8404697,44.0975273 C38.9274206,44.0591816 39.012731,44.0159408 39.0964007,43.9743316 L39.1628444,43.9400653 C39.237491,43.9000879 39.3113172,43.8584787 39.3843232,43.8160537 L39.4113928,43.8005523 C39.493422,43.7524162 39.5688889,43.7010167 39.6468166,43.6488013 L39.7058776,43.6071922 C39.771501,43.5615037 39.8354838,43.5141835 39.8986462,43.4652316 L39.9380202,43.4358604 C40.0110262,43.377934 40.0832119,43.3175599 40.153757,43.25637 L40.2054354,43.2098657 C40.2636761,43.1576503 40.3210966,43.1038032 40.3776967,43.0466926 C40.3916417,43.032007 40.4064069,43.0181373 40.4211722,43.0042676 C40.4884361,42.9373666 40.5532392,42.8688339 40.6172219,42.7978536 C40.6319872,42.7823522 40.6459322,42.7660349 40.6598771,42.7505335 C40.7131961,42.6909753 40.7648745,42.6297854 40.8157326,42.5677796 C40.8255761,42.5563575 40.8354196,42.5457512 40.8444428,42.5343291 L40.8575675,42.5171959 C40.9305734,42.4266349 41.0002983,42.3336262 41.0692028,42.2389858 L41.1061159,42.1859546 C41.1742001,42.0896824 41.2406438,41.9909627 41.3038063,41.8897954 L41.3144701,41.874294 L41.3407194,41.8302372 C41.3792731,41.7674156 41.4178268,41.7029622 41.45474,41.637693 L41.4965749,41.565081 C41.5433315,41.4834944 41.5892678,41.3970127 41.6335636,41.3105309 L41.6335636,41.3064516 L41.6335636,41.3064516 C41.6734845,41.2270407 41.7128585,41.1454542 41.7516856,41.061692 L41.7877785,40.9801054 C41.8140278,40.9229949 41.8394569,40.8658843 41.8648859,40.8079578 C41.8698077,40.794904 41.87637,40.782666 41.8812918,40.7696122 C41.8862135,40.7565583 41.8985179,40.728003 41.9067208,40.7076064 C41.9264078,40.661102 41.9452745,40.6145977 41.9641413,40.5672775 C41.983008,40.5199573 41.9920312,40.4962972 42.0051558,40.461215 C42.024296,40.4133509 42.0423424,40.3652148 42.0592951,40.3168068 C42.067498,40.2955943 42.075701,40.2743818 42.0830836,40.2531693 C42.0904662,40.2319568 42.0937474,40.2213506 42.0994894,40.2050333 C42.1134344,40.1650559 42.1273793,40.1234467 42.140504,40.0842852 C42.1536287,40.0451236 42.1683939,40.0026986 42.1815186,39.9619054 C42.1946433,39.9211121 42.2069477,39.8803188 42.2200723,39.8387097 C42.227455,39.8134178 42.2356579,39.7889419 42.2430405,39.7636501 C42.2462612,39.7542766 42.2489991,39.7447457 42.2512434,39.7350948 C42.2930783,39.5955818 42.3332726,39.4528053 42.3685452,39.3083971 C42.3685452,39.296975 42.3742872,39.2863688 42.3775684,39.2741308 C42.3808495,39.2618928 42.3824901,39.2512866 42.3857713,39.2398644 C42.4191298,39.1011673 42.4511212,38.9602945 42.4817454,38.8172461 C42.4817454,38.8074558 42.4858469,38.7976654 42.4883078,38.787875 L42.4956904,38.7462658 C42.5246741,38.605937 42.5520171,38.4637044 42.5777196,38.3195682 L42.5777196,38.3065144 L42.5826413,38.272248 C42.6056095,38.1308313 42.6263903,37.9880549 42.6449835,37.8439187 C42.6449835,37.8349441 42.6449835,37.8259696 42.649085,37.8169951 C42.6531865,37.8080206 42.6654908,37.8267855 42.6654908,37.823522 Z" id="路径" fill="#C8C8C8" fill-rule="nonzero"></path>
                        <path d="M38.1547056,28.6833814 C41.2759163,36.0082214 40.3432444,43.4766537 36.0719845,45.3645663 C33.9392255,46.3085227 31.3700713,45.6786745 28.9477493,43.8960085 C26.5254273,42.1133425 24.2474767,39.181938 22.6872814,35.519518 C19.5660707,28.194678 20.4987426,20.7262458 24.7700026,18.8383331 C26.9027616,17.8943768 29.4710955,18.5242249 31.8934175,20.3068909 C34.3157395,22.0895569 36.5945104,25.0209615 38.1547056,28.6833814 Z M36.5871278,40.2760136 C37.0645377,39.4699385 37.3795298,38.4770302 37.5230809,37.3258441 C37.6647699,36.0897903 37.6299731,34.8400168 37.4197241,33.6136563 C37.1877812,32.2111061 36.7867764,30.8414599 36.2253791,29.5343291 C35.6753747,28.230157 34.9680169,26.9973169 34.1188695,25.8629346 C33.3857048,24.8728285 32.5123399,23.9934591 31.5259267,23.2521652 C30.6022781,22.5733651 29.6753482,22.1295343 28.7713865,21.9337266 C27.8362537,21.731392 26.9667443,21.8048199 26.1800844,22.1507468 C25.3934244,22.4966738 24.7478547,23.0963349 24.254039,23.9301494 C23.7766291,24.7370403 23.461637,25.7291327 23.3180859,26.8803188 C23.1765485,28.1171959 23.2113444,29.3677558 23.4214427,30.5949542 C23.6539477,31.9958906 24.0552248,33.3638823 24.616608,34.6693862 C25.1666531,35.9733719 25.8737145,37.2061753 26.7222973,38.3407807 C27.4555414,39.3322412 28.3288642,40.2132169 29.3152401,40.9564453 C30.2388887,41.6360613 31.1658186,42.0790762 32.0706006,42.2748839 C33.0057333,42.4772185 33.8752428,42.4046065 34.6619027,42.0578637 C35.4485626,41.7111209 36.0949527,41.109828 36.5871278,40.2760136" id="形状" fill="#F4F4F4" fill-rule="nonzero"></path>
                        <path d="M33.0754582,42.4250086 C32.734694,42.4236283 32.3950623,42.3858823 32.0623976,42.3124137 C31.1526939,42.1149743 30.2208423,41.6695117 29.2930922,40.9866324 C28.3037387,40.2421506 27.4278906,39.3592122 26.6927668,38.3652567 C25.8418871,37.2280622 25.1331517,35.9922079 24.5821558,34.6848877 C24.0198888,33.3778094 23.6177902,32.0081901 23.3845296,30.6055604 C23.174025,29.3748349 23.1392295,28.1207178 23.2811728,26.8803188 C23.4247239,25.7250533 23.7413565,24.7272499 24.2220476,23.9162797 C24.7191445,23.0759382 25.3704563,22.4721978 26.1644988,22.1213757 C26.9585414,21.7705535 27.8362537,21.6971256 28.7787691,21.9019079 C29.6884729,22.0985314 30.6203245,22.543994 31.5480746,23.2268734 C32.5377085,23.9716215 33.4138282,24.8548299 34.1492203,25.8490649 C34.9993701,26.983957 35.7078186,28.2173257 36.259011,29.5220911 C36.8218042,30.8289817 37.2239217,32.1986652 37.4566372,33.6014184 C37.6678201,34.8320656 37.7028933,36.08624 37.5608143,37.32666 C37.4164429,38.4827413 37.0998102,39.4805447 36.6199395,40.2906991 L36.6199395,40.2906991 C36.1228426,41.1310405 35.4715308,41.734781 34.6774882,42.0856031 C34.1736501,42.3102393 33.6276017,42.425923 33.0754582,42.4250086 Z M27.7665289,21.8569868 C27.225355,21.8543226 26.6897293,21.9655408 26.1948496,22.1833814 C25.4180332,22.5268608 24.7757446,23.1208108 24.2860304,23.9472825 C23.8110814,24.7500941 23.4977299,25.7372913 23.3549991,26.8843981 C23.2153996,28.1174082 23.2515762,29.3638483 23.4624573,30.5867955 C23.6947421,31.9848634 24.0951837,33.3500843 24.6551617,34.6530689 C25.2036377,35.9546987 25.9093557,37.1850956 26.7567496,38.3171206 C27.4872152,39.3068154 28.3578144,40.186182 29.3414894,40.92789 C30.2610366,41.6042425 31.1830447,42.0456257 32.0829049,42.2406175 C33.0098348,42.4413204 33.8744225,42.3687084 34.6512389,42.0252291 C35.4280553,41.6817497 36.0703439,41.0877997 36.5592379,40.261328 L36.5592379,40.261328 C37.0341869,39.4593322 37.3475384,38.4721351 37.4910895,37.3242124 C37.6311074,36.0884705 37.5946534,34.839241 37.382811,33.6136563 C36.9108452,30.815317 35.7825296,28.166973 34.0893389,25.8833312 C33.3588164,24.8934149 32.4879122,24.0140195 31.5037789,23.2725618 C30.5842316,22.5962094 29.6622235,22.1548262 28.7631836,21.9606502 C28.4356726,21.8906011 28.101525,21.8558622 27.7665289,21.8569868 Z" id="形状" fill="#DDDDDD" fill-rule="nonzero"></path>
                        <path d="M41.6368448,41.4639136 C41.4727864,41.2566838 40.7238599,41.5854776 39.9650899,42.1981925 C39.2063199,42.8109075 38.7198868,43.4766537 38.8839451,43.6846994 C38.8865445,43.6878347 38.8895833,43.6905823 38.8929684,43.692858 L38.8929684,43.692858 L44.5603651,50.8610518 L47.1524876,49.1150998 L41.4850908,41.946906 L41.6434071,41.4720723 L41.6368448,41.4639136 Z" id="路径" fill="#DDDDDD" fill-rule="nonzero"></path>
                        <path d="M47.3329518,46.5859169 C47.0212409,46.2350948 45.7432261,46.7817246 44.4619301,47.8186896 C43.1642283,48.8670767 42.3504987,50.0215263 42.6449835,50.3911133 C42.6511769,50.3990229 42.6580375,50.4063925 42.6654908,50.4131417 L53.1996795,63.7394879 L57.8999521,59.9457136 L47.3329518,46.5859169 Z" id="路径" fill="#EAEAEA" fill-rule="nonzero"></path>
                        <ellipse id="椭圆形" fill="#DDDDDD" fill-rule="nonzero" transform="translate(55.5713, 61.8708) rotate(-39.14) translate(-55.5713, -61.8708)" cx="55.5713455" cy="61.8707582" rx="3.02118864" ry="1"></ellipse>
                        <circle id="椭圆形" fill="#FFFFFF" fill-rule="nonzero" transform="translate(26.7871, 26.6245) rotate(-15.7086) translate(-26.7871, -26.6245)" cx="26.7870922" cy="26.6244797" r="1"></circle>
                        <circle id="椭圆形" fill="#FFFFFF" fill-rule="nonzero" transform="translate(27.8858, 26.4532) rotate(-15.46) translate(-27.8858, -26.4532)" cx="27.8857554" cy="26.4532464" r="1"></circle>
                    </g>
                </g>
            </g>
        </g>
    </g>
</svg>