<?xml version="1.0" encoding="UTF-8"?>
<svg width="120px" height="120px" viewBox="0 0 120 120" version="1.1" xmlns="http://www.w3.org/2000/svg" xmlns:xlink="http://www.w3.org/1999/xlink">
    <title>15-图标/2提示/3D提示/灰没权限</title>
    <g id="平台icon231127" stroke="none" stroke-width="1" fill="none" fill-rule="evenodd">
        <g id="平台icon231128" transform="translate(-680, -548)">
            <g id="15-图标/2提示/3D提示/灰没权限" transform="translate(680, 548)">
                <rect id="_mockplus_fix_" x="0" y="0" width="120" height="120"></rect>
                <g id="没权限">
                    <rect id="矩形备份-2" fill-opacity="0" fill="#EFE9DE" x="0" y="0" width="120" height="120"></rect>
                    <g id="No" transform="translate(15, 15)">
                        <rect id="矩形" x="0" y="0" width="90" height="90"></rect>
                        <path d="M76.7865234,63.3990234 C68.2910156,60.46875 57.0058594,58.8594727 45,58.8594727 C32.9941406,58.8594727 21.7089844,60.46875 13.2134766,63.3990234 C4.69248047,66.3363281 0,70.2536133 0,74.4301758 C0,78.6067383 4.69248047,82.5231445 13.2134766,85.4604492 C21.7089844,88.3880859 32.9941406,90 45,90 C57.0058594,90 68.2910156,88.3880859 76.7865234,85.4604492 C85.3119141,82.5231445 90,78.6049805 90,74.4301758 C90,70.2553711 85.3075195,66.3363281 76.7865234,63.3990234 Z M45,89.8242188 C20.2833984,89.8242188 0.17578125,82.9186523 0.17578125,74.4301758 C0.17578125,65.9416992 20.2833984,59.0352539 45,59.0352539 C69.7166016,59.0352539 89.8242188,65.9408203 89.8242188,74.4301758 C89.8242188,82.9195313 69.7166016,89.8242188 45,89.8242188 Z" id="形状" fill="#EAEAEA" fill-rule="nonzero"></path>
                        <path d="M74.8001953,65.4512695 L67.0535156,65.4512695 C66.9243699,65.4515352 66.7961716,65.4292269 66.674707,65.3853516 C61.0936523,63.39375 53.4418945,62.165918 45,62.165918 C36.5581055,62.165918 28.9063477,63.3963867 23.325293,65.3853516 C23.2038284,65.4292269 23.0756301,65.4515352 22.9464844,65.4512695 L15.1998047,65.4512695 C14.576886,65.4517547 14.072168,65.9568663 14.072168,66.5797852 L14.072168,71.5666992 L14.0915039,71.5666992 C14.0800781,71.6941406 14.072168,71.8207031 14.072168,71.9490234 C14.072168,78.1523438 27.9193359,83.1823242 45,83.1823242 C62.0806641,83.1823242 75.927832,78.1523438 75.927832,71.9490234 C75.927832,71.8207031 75.9199219,71.6941406 75.9084961,71.5666992 L75.927832,71.5666992 L75.927832,66.5797852 C75.927832,65.9568663 75.423114,65.4517547 74.8001953,65.4512695 Z" id="路径" fill="#DDDDDD" fill-rule="nonzero"></path>
                        <ellipse id="椭圆形" fill="#F4F4F4" fill-rule="nonzero" cx="45" cy="66.3899414" rx="30.927832" ry="11.2333008"></ellipse>
                        <path d="M63.4245117,60.2103516 C58.5026367,58.6713867 51.9583008,57.8241211 45,57.8241211 C38.0416992,57.8241211 31.4982422,58.6713867 26.5754883,60.2103516 C21.6210938,61.7589844 18.8964844,63.8314453 18.8964844,66.0462891 C18.8964844,68.2611328 21.6210938,70.3327148 26.578125,71.8813477 C31.4982422,73.4203125 38.0416992,74.2675781 45,74.2675781 C51.9583008,74.2675781 58.5017578,73.4203125 63.4245117,71.8813477 C68.3789062,70.3327148 71.1035156,68.2602539 71.1035156,66.0462891 C71.1035156,63.8323242 68.3789062,61.7589844 63.4245117,60.2103516 Z M45,74.0917969 C30.7019531,74.0917969 19.0722656,70.4830078 19.0722656,66.0462891 C19.0722656,61.6095703 30.7054688,57.9999023 45,57.9999023 C59.2945312,57.9999023 70.9277344,61.6113281 70.9277344,66.0462891 C70.9277344,70.48125 59.2980469,74.0917969 45,74.0917969 Z" id="形状" fill="#DDDDDD" fill-rule="nonzero"></path>
                        <path d="M63.7022461,60.6295898 L58.2178711,60.6295898 C54.8332031,59.3991211 50.1609375,58.6423828 45,58.6423828 C39.8390625,58.6423828 35.1667969,59.4017578 31.7821289,60.6295898 L26.2977539,60.6295898 L26.2977539,65.1999023 L26.3100586,65.1999023 C26.3030273,65.2772461 26.2977539,65.3537109 26.2977539,65.4310547 C26.2977539,69.1831055 34.6710938,72.2241211 45,72.2241211 C55.3289063,72.2241211 63.7022461,69.1831055 63.7022461,65.4310547 C63.7022461,65.3537109 63.6969727,65.2772461 63.6899414,65.1999023 L63.7022461,65.1999023 L63.7022461,60.6295898 Z" id="路径" fill="#DDDDDD" fill-rule="nonzero"></path>
                        <ellipse id="椭圆形" fill="#F4F4F4" fill-rule="nonzero" cx="45" cy="61.1973633" rx="18.7022461" ry="6.79306641"></ellipse>
                        <ellipse id="椭圆形" fill="#EAEAEA" fill-rule="nonzero" cx="45" cy="60.9890625" rx="15.7333008" ry="4.91835937"></ellipse>
                        <path d="M41.7480469,28.5503906 C41.8208579,28.5503906 41.8798828,28.4913657 41.8798828,28.4185547 C41.8798828,28.3457437 41.8208579,28.2867187 41.7480469,28.2867187 C41.6752359,28.2867187 41.6162109,28.3457437 41.6162109,28.4185547 C41.6162109,28.4913657 41.6752359,28.5503906 41.7480469,28.5503906 L41.7480469,28.5503906 Z" id="路径" fill="#527CE2" fill-rule="nonzero"></path>
                        <path d="M27.421875,3.52441406 L32.6953125,0 C32.9853516,0.211816406 38.4820313,4.24072266 43.8161133,4.24072266 C45.0755859,4.24072266 46.3095703,4.00429687 47.437207,3.41982422 L42.1646484,6.94335937 C41.0370117,7.52871094 39.8030273,7.76513686 38.5435547,7.76513686 C33.2085937,7.76601562 27.7119141,3.73623047 27.421875,3.52441406 Z" id="路径" fill="#D3D3D3" fill-rule="nonzero"></path>
                        <g id="编组" transform="translate(27.4219, 0)" fill="#D3D3D3" fill-rule="nonzero">
                            <path d="M0,3.52441406 L5.2734375,0 C6.32803211,0.755188106 7.4373429,1.43088059 8.5921875,2.02148438 L3.32314453,5.54589844 C2.16669771,4.95565328 1.05589983,4.27994973 0,3.52441406" id="路径"></path>
                            <path d="M3.31875,5.54677734 L8.58779297,2.02148438 C9.49404423,2.49235761 10.4293312,2.90510509 11.3879883,3.25722656 L6.11894531,6.78164062 C5.16035385,6.42935666 4.22507707,6.01661367 3.31875,5.54589844" id="路径"></path>
                            <path d="M6.11894531,6.78251953 L11.3879883,3.25810547 C12.0334491,3.49395729 12.6916078,3.69348824 13.359375,3.85576172 L8.0859375,7.3828125 C7.41836509,7.22088162 6.76047977,7.02134459 6.11542969,6.78515625" id="路径"></path>
                            <path d="M8.0859375,7.3828125 L13.359375,3.85576172 C13.8586768,3.97738587 14.3642033,4.07186035 14.8737305,4.13876953 L9.60556641,7.66318359 C9.09431716,7.5973323 8.58702572,7.50373717 8.0859375,7.3828125" id="路径"></path>
                            <path d="M9.60380859,7.66318359 L14.8719727,4.13876953 C15.2868401,4.1937559 15.7043101,4.22690706 16.1226563,4.23808594 L10.8536133,7.7625 C10.435559,7.75132112 10.0183817,7.71816989 9.60380859,7.66318359" id="路径"></path>
                            <path d="M10.8536133,7.7625 L16.1226562,4.23808594 C16.2105469,4.23808594 16.2984375,4.23808594 16.3863281,4.23808594 C16.6561523,4.23808594 16.9242187,4.22753906 17.1905273,4.2046875 L11.925,7.734375 C11.6583984,7.75722656 11.390625,7.76865234 11.1216797,7.76865234 C11.0337891,7.76865234 10.9458984,7.76865234 10.8536133,7.76865234" id="路径"></path>
                            <path d="M11.925,7.734375 L17.194043,4.20996094 C17.5259213,4.1821179 17.8558175,4.13427708 18.1819336,4.06669922 L12.9128906,7.58935547 C12.5868224,7.65758921 12.2569219,7.70601766 11.925,7.734375" id="路径"></path>
                            <path d="M12.9128906,7.58935547 L18.1819336,4.0640625 C18.534741,3.99136583 18.8816846,3.89265876 19.2199219,3.76875 L13.9508789,7.29492188 C13.6125677,7.4188296 13.2656459,7.51782421 12.9128906,7.59111328" id="路径"></path>
                            <path d="M13.9508789,7.29492188 L19.2199219,3.77050781 C19.4907443,3.67012008 19.7549439,3.55269803 20.0109375,3.41894531 L14.7427734,6.94335938 C14.4869405,7.0774444 14.2227193,7.19487603 13.9517578,7.29492188" id="路径"></path>
                        </g>
                        <path d="M27.421875,3.52441406 C27.7110352,3.73623047 33.2077148,7.76601563 38.5426758,7.76601563 C39.8021484,7.76601563 41.0361328,7.52958984 42.1637695,6.94423828 C45.8806641,12.2554688 47.6068359,15.225293 57.1614258,21.075293 C57.309082,28.9959961 57.3082032,40.4683594 57.3082032,41.072168 C57.3011719,41.4 57.1763672,47.6270508 54.2267578,49.2459961 C51.8501953,50.5529297 49.0605469,51.2402344 46.0458984,51.2402344 C44.8897349,51.2382796 43.7356764,51.1415692 42.5953125,50.9510742 C41.0185547,49.4323242 35.1597656,43.040918 33.8888672,41.0563477 C32.6179688,39.0717773 29.8168945,34.322168 28.6716797,32.0642578 C27.5264648,29.8063477 27.5800781,25.6482422 27.5827148,25.4285156 L27.421875,3.52441406 Z" id="路径" fill="#EAEAEA" fill-rule="nonzero"></path>
                        <path d="M54.3383789,38.4688477 C54.3269531,39.0041016 54.1678711,43.7378906 51.9108398,44.9780273 C50.0071289,46.0230469 47.737793,46.5758789 45.3462891,46.5758789 C44.4308999,46.574025 43.5171327,46.4987839 42.6137695,46.3508789 C41.2875,45.0632812 36.6064453,39.9401367 35.6097656,38.3879883 C34.6130859,36.8358398 32.3244141,32.9589844 31.3901367,31.1132812 C30.5024414,29.3642578 30.5182617,26.1588867 30.5226562,25.7967773 L30.3952148,8.31445312 C31.425293,9.03427734 35.3970703,11.6244141 39.272168,11.6244141 C40.3453125,11.6244141 41.3165039,11.4125977 42.1628906,10.9959961 L42.6102539,11.6384766 C45.3243164,15.5381836 46.9652344,17.8962891 54.2241211,22.3479492 C54.3366211,28.6101562 54.3383789,37.4774414 54.3383789,38.4688477 Z" id="路径" fill="#EAEAEA" fill-rule="nonzero"></path>
                        <path d="M54.4833984,22.2706055 L54.4833984,22.1985352 L54.421875,22.1607422 C47.1568359,17.7134766 45.5273437,15.3703125 42.8238281,11.4873047 L42.3105469,10.7516602 L42.2446289,10.6567383 L42.1417969,10.7103516 C41.3103516,11.1418945 40.3435547,11.3607422 39.2695312,11.3607422 C35.1114258,11.3607422 30.815332,8.29951172 30.3389648,7.95058594 L30.1280273,7.79501953 L30.2589844,25.7976563 C30.2589844,26.1641602 30.2387695,29.4292969 31.1554687,31.2345703 C32.0923828,33.0802734 34.387207,36.9703125 35.3882812,38.5294922 C36.4236328,40.1422852 41.1328125,45.2891602 42.4599609,46.5679688 L42.4898437,46.5960938 L42.5302734,46.603125 C43.4598315,46.7578057 44.400436,46.8365813 45.3427734,46.8386719 C47.7782227,46.8386719 50.0888672,46.275293 52.0347656,45.2083008 C54.4209961,43.8969727 54.5835937,39.0243164 54.5985352,38.4706055 C54.6020508,37.4730469 54.600293,28.5389648 54.4833984,22.2706055 Z M51.9108398,44.9780273 C50.0071289,46.0230469 47.737793,46.5758789 45.3462891,46.5758789 C44.4308999,46.574025 43.5171327,46.4987839 42.6137695,46.3508789 C41.2875,45.0632813 36.6064453,39.9401367 35.6097656,38.3879883 C34.6130859,36.8358398 32.3244141,32.9589844 31.3901367,31.1132812 C30.5024414,29.3642578 30.5182617,26.1588867 30.5226562,25.7967773 L30.3952148,8.31445312 C31.425293,9.03427734 35.3970703,11.6244141 39.272168,11.6244141 C40.3453125,11.6244141 41.3165039,11.4125977 42.1628906,10.9959961 L42.6102539,11.6384766 C45.3243164,15.5381836 46.9652344,17.8962891 54.2241211,22.3479492 C54.3392578,28.6101562 54.3410156,37.4774414 54.3410156,38.4688477 C54.3269531,39.0041016 54.1678711,43.7378906 51.9108398,44.9780273 Z" id="形状" fill="#F4F4F4" fill-rule="nonzero"></path>
                        <g id="编组" transform="translate(37.0347, 19.2844)" fill-rule="nonzero">
                            <g transform="translate(3.8318, 11.2303)" fill="#DDDDDD" id="路径">
                                <path d="M1.23310832,0.87890625 L0.761135668,1.17333984 C0.729372452,1.19265712 0.69358128,1.204387 0.656545824,1.20761719 C0.584825125,1.21090005 0.513776126,1.19252531 0.452639574,1.15488281 C0.201272386,1.01074219 -0.000876051097,0.627539062 0,0.291796875 L0.483401293,0 C0.483401293,0.33046875 0.682034105,0.715429687 0.929885668,0.858691406 C0.989790187,0.897007048 1.06012834,0.915743411 1.1311552,0.912304688 C1.1672755,0.90925722 1.20218594,0.897821044 1.23310832,0.87890625 Z"></path>
                                <g transform="translate(0.0026, 0)">
                                    <path d="M0,0.291796875 L0.483398438,0 C0.483398438,0.0087890625 0.483398438,0.017578125 0.483398438,0.0263671875 L0,0.318164063 L0,0.291796875"></path>
                                    <path d="M0,0.318164062 L0.484277344,0.0263671875 C0.485023796,0.0607962092 0.48795941,0.095142893 0.493066406,0.129199219 L0.00966796875,0.421875 C0.00470433896,0.387489143 0.00147758649,0.352874889 0,0.318164062"></path>
                                    <path d="M0.010546875,0.422753906 L0.493945312,0.130078125 C0.500529119,0.177607674 0.510515712,0.224603405 0.523828125,0.270703125 L0.0404296875,0.564257812 C0.0270279102,0.51788254 0.017040263,0.470588093 0.010546875,0.422753906"></path>
                                    <path d="M0.0404296875,0.563378906 L0.523828125,0.269824219 C0.545707683,0.348645423 0.575140914,0.425171824 0.61171875,0.498339844 L0.130078125,0.792773437 C0.0933866063,0.719350701 0.0639501388,0.64252152 0.0421875,0.563378906"></path>
                                    <path d="M0.131835938,0.792773437 L0.613476563,0.498339844 C0.668336928,0.606677511 0.742158829,0.70431293 0.831445313,0.786621094 L0.3515625,1.08193359 C0.260495029,1.00006628 0.185397489,0.902022275 0.130078125,0.792773437"></path>
                                    <path d="M0.3515625,1.08193359 L0.8296875,0.786621094 C0.860380071,0.813805175 0.89364188,0.837942063 0.929003906,0.858691406 L0.9421875,0.865722656 L0.464941406,1.16191406 L0.451757813,1.15488281 C0.415904041,1.1341313 0.3823224,1.10968151 0.3515625,1.08193359"></path>
                                    <path d="M0.466699219,1.16191406 L0.943945312,0.865722656 C0.96358182,0.876897098 0.984170202,0.88630893 1.00546875,0.893847656 L0.52734375,1.19003906 C0.505978539,1.18197038 0.485137309,1.17257715 0.464941406,1.16191406"></path>
                                    <path d="M0.52734375,1.19003906 L1.00371094,0.893847656 C1.01802744,0.899053653 1.03271796,0.903166998 1.04765625,0.906152344 L0.572167969,1.20234375 C0.558105469,1.20234375 0.543164063,1.1953125 0.52734375,1.19003906"></path>
                                    <polyline points="0.573925781 1.20234375 1.04941406 0.906152344 1.08632813 0.912304687 0.615234375 1.20761719 0.578320313 1.20234375"></polyline>
                                    <path d="M0.615234375,1.20761719 L1.09072266,0.912304687 L1.12236328,0.912304687 L0.647753906,1.20761719 C0.636931349,1.20848295 0.626056932,1.20848295 0.615234375,1.20761719"></path>
                                    <polyline points="0.643359375 1.20849609 1.11796875 0.913183594 1.13203125 0.913183594 1.14697266 0.913183594 0.673242187 1.20849609 0.657421875 1.20849609 0.643359375 1.20849609"></polyline>
                                    <path d="M0.673242188,1.20585938 L1.14697266,0.910546875 L1.17597656,0.904394531 L0.703125,1.19970703 C0.693654013,1.20259609 0.683949364,1.20465465 0.674121094,1.20585938"></path>
                                    <path d="M0.703125,1.19970703 L1.17685547,0.904394531 C1.18799836,0.901510591 1.19887706,0.897688345 1.209375,0.89296875 L0.736523438,1.18740234 C0.725688802,1.19227189 0.714529159,1.19638334 0.703125,1.19970703"></path>
                                    <path d="M0.735644531,1.18740234 L1.20849609,0.89296875 C1.21727297,0.888809243 1.2257852,0.884112843 1.23398437,0.87890625 L0.762011719,1.17333984 C0.753600356,1.17870355 0.744784733,1.18340521 0.735644531,1.18740234"></path>
                                </g>
                            </g>
                            <polygon id="路径" fill="#DDDDDD" points="3.83971749 10.1712548 4.32399483 9.88912588 4.31872139 11.2303368 3.83532295 11.5221337"></polygon>
                            <g transform="translate(0.6554, 3.6203)" fill="#DDDDDD" id="路径">
                                <path d="M0,0.319408268 L0.52734375,0.0647082677 C0.627704632,0.0173057645 0.737749003,-0.00461386835 0.848144531,0.000808267737 C0.960484095,0.00777044375 1.07066217,0.0355186436 1.17333984,0.0827082677 L0.653027344,0.334708268 C0.548581761,0.287403361 0.436601304,0.259956237 0.322558594,0.253708268 C0.211449791,0.248805806 0.100819236,0.271339472 0,0.319408268 L0,0.319408268 Z"></path>
                                <g transform="translate(0, 0.0008)">
                                    <path d="M0,0.3186 L0.52734375,0.0639 C0.55595476,0.0509869478 0.585305744,0.0398664471 0.615234375,0.0306 L0.087890625,0.2844 C0.0577156207,0.293276341 0.0283167104,0.304716045 0,0.3186"></path>
                                    <path d="M0.0861328125,0.2844 L0.613476562,0.0306 C0.646989904,0.0196225183 0.681409131,0.011790232 0.716308594,0.0072 L0.188964844,0.2601 C0.153830029,0.26542598 0.119154515,0.273550629 0.0852539062,0.2844"></path>
                                    <path d="M0.190722656,0.2601 L0.718066406,0.0072 C0.747143666,0.00253051532 0.776524626,0.000123627044 0.805957031,0 L0.278613281,0.252 C0.249189505,0.252981052 0.219844662,0.255685473 0.190722656,0.2601"></path>
                                    <polyline points="0.278613281 0.252 0.805957031 0 0.85078125 0 0.89296875 0 0.365625 0.252 0.322558594 0.252 0.278613281 0.252"></polyline>
                                    <path d="M0.366503906,0.2556 L0.893847656,0.0036 C0.923372845,0.00680316585 0.952711046,0.0116099367 0.981738281,0.018 L0.454394531,0.27 C0.425362213,0.263637755 0.396025448,0.25883122 0.366503906,0.2556"></path>
                                    <path d="M0.459667969,0.27 L0.987011719,0.018 C1.02093527,0.0251958465 1.05439639,0.0345133025 1.08720703,0.0459 L0.565136719,0.2979 C0.531698773,0.286620003 0.497658969,0.277304834 0.463183594,0.27"></path>
                                    <path d="M0.561621094,0.2979 L1.08369141,0.0459 C1.11366383,0.0560925755 1.14301325,0.0681140955 1.17158203,0.0819 L0.651269531,0.3339 C0.620617359,0.320074878 0.589218487,0.308055272 0.557226562,0.2979"></path>
                                </g>
                            </g>
                            <g transform="translate(3.4012, 7.9309)" fill="#DDDDDD" id="路径">
                                <path d="M0.329557374,0.268066406 L0.814713624,0 C0.728115709,0.0481582107 0.656838048,0.119740477 0.609049561,0.206542969 C0.368229249,0.626660156 0.504459717,1.40712891 0.919303467,1.95732422 L0.435026124,2.23945313 C0.0149089361,1.68662109 -0.123958251,0.901757813 0.120377686,0.477246094 C0.169444933,0.389537076 0.241848356,0.317133653 0.329557374,0.268066406 Z"></path>
                                <g transform="translate(0.0044, 0)">
                                    <path d="M0.325195312,0.268066406 L0.810351562,0 C0.728357007,0.0466135231 0.660601661,0.114672705 0.614355469,0.196875 L0.1265625,0.470214844 C0.173976519,0.387552593 0.242533062,0.31899605 0.325195312,0.271582031"></path>
                                    <path d="M0.1265625,0.470214844 L0.614355469,0.200390625 C0.611982799,0.203708334 0.609923184,0.207239102 0.608203125,0.2109375 C0.592514789,0.237778344 0.578711964,0.265677671 0.566894531,0.294433594 L0.07734375,0.5625 C0.0892060865,0.53234407 0.103004356,0.502986049 0.118652344,0.474609375 L0.125683594,0.463183594"></path>
                                    <path d="M0.07734375,0.5625 L0.566015625,0.290917969 C0.553710937,0.321679687 0.542285156,0.353320312 0.532617187,0.38671875 L0.0430664062,0.659179687 C0.0523646102,0.626237876 0.0638150042,0.593941893 0.07734375,0.5625"></path>
                                    <path d="M0.0439453125,0.659179688 L0.533496094,0.38671875 C0.523828125,0.420996094 0.515917969,0.456152344 0.508886719,0.493066406 L0.0193359375,0.76640625 C0.0263671875,0.729492187 0.0342773437,0.693457031 0.0439453125,0.659179687"></path>
                                    <path d="M0.0193359375,0.76640625 L0.508886719,0.493066406 C0.501855469,0.533496094 0.496582031,0.575683594 0.493066406,0.619628906 L0.003515625,0.89296875 C0.003515625,0.849902344 0.0123046875,0.805078125 0.0193359375,0.76640625"></path>
                                    <path d="M0.003515625,0.89296875 L0.493066406,0.619628906 C0.490399341,0.670570584 0.490399341,0.721616916 0.493066406,0.772558594 L0.00263671875,1.04765625 C0.00263671875,0.994921875 0.00263671875,0.943066406 0.00263671875,0.89296875"></path>
                                    <path d="M0,1.04765625 L0.490429688,0.772558594 C0.492174098,0.83845187 0.497749922,0.904187893 0.507128906,0.969433594 L0.017578125,1.24541016 C0.00791616633,1.17988561 0.002047017,1.11385768 0,1.04765625"></path>
                                    <path d="M0.017578125,1.24541016 L0.507128906,0.969433594 C0.519721215,1.05852593 0.538516892,1.14663067 0.563378906,1.23310547 L0.07734375,1.51171875 C0.0530113184,1.42511235 0.0342232389,1.33704323 0.02109375,1.24804688"></path>
                                    <path d="M0.07734375,1.51171875 L0.566894531,1.23310547 C0.607245586,1.37767909 0.662012523,1.51783534 0.730371094,1.65146484 L0.244335938,1.93271484 C0.174868354,1.79825882 0.118929622,1.65723433 0.07734375,1.51171875"></path>
                                    <path d="M0.240820312,1.93271484 L0.726855469,1.65146484 C0.781712711,1.75907033 0.84582127,1.86170284 0.918457031,1.95820313 L0.434179687,2.24033203 C0.361164876,2.1434307 0.29648098,2.0405245 0.240820312,1.93271484"></path>
                                </g>
                            </g>
                            <g transform="translate(4.7476, 10.3287)" fill="#DDDDDD" id="路径">
                                <path d="M0.616992187,0 L0.14765625,0.288 C0.101984904,0.315638419 0.0520533739,0.335116471 0,0.3456 L0.47109375,0.0576 C0.522616513,0.0471947627 0.57198294,0.0277051353 0.616992187,0 Z"></path>
                                <g>
                                    <polyline points="0 0.3456 0.47109375 0.0576 0.497460938 0.0513 0.0272460938 0.3393 0 0.3456"></polyline>
                                    <path d="M0.0272460938,0.3393 L0.497460938,0.0513 C0.520033876,0.0454010253 0.542083831,0.0375735853 0.563378906,0.0279 L0.0940429688,0.3159 C0.0724460366,0.325574017 0.0501041241,0.333400741 0.0272460938,0.3393"></path>
                                    <path d="M0.0940429687,0.3159 L0.563378906,0.0279 C0.581851201,0.0198645604 0.599764229,0.010542738 0.616992187,0 L0.14765625,0.288 C0.130335941,0.298370467 0.112433809,0.307686619 0.0940429687,0.3159"></path>
                                </g>
                            </g>
                            <polygon id="路径" fill="#DDDDDD" points="2.5486042 3.95475088 3.05133858 3.71305166 3.04518624 4.28258291 2.54245186 4.52867666"></polygon>
                            <g transform="translate(8.7634, 15.5097)" fill="#DDDDDD" id="路径">
                                <path d="M0.41484375,1.11533203 L0,1.42207031 C0.263671875,1.22695312 0.420996094,0.839355469 0.408691406,0.297949219 L0.819140625,0 C0.830566406,0.537890625 0.675,0.922851562 0.41484375,1.11533203 Z"></path>
                                <g transform="translate(0.0035, 0)">
                                    <path d="M0.405175781,0.297949219 L0.815625,0 C0.815625,0.0755859375 0.815625,0.146777344 0.810351563,0.216210937 L0.40078125,0.515039062 C0.405175781,0.445605469 0.406933594,0.37265625 0.405175781,0.297949219"></path>
                                    <path d="M0.40078125,0.515039062 L0.810351563,0.216210937 C0.810351563,0.277734375 0.799804688,0.3375 0.791015625,0.391992187 L0.380566406,0.691699219 C0.389355469,0.634570312 0.396386719,0.574804687 0.40078125,0.515917969"></path>
                                    <path d="M0.380566406,0.694335937 L0.791015625,0.394628906 C0.782226562,0.446484375 0.772558594,0.496582031 0.760253906,0.544042969 L0.348925781,0.845507812 C0.361230469,0.797167969 0.371777344,0.747070312 0.380566406,0.694335937"></path>
                                    <path d="M0.348925781,0.845507812 L0.760253906,0.544042969 C0.747949219,0.591503906 0.733886719,0.636328125 0.718945312,0.678515625 L0.307617188,0.97734375 C0.323999824,0.933065799 0.337792657,0.887872262 0.348925781,0.841992187"></path>
                                    <path d="M0.307617188,0.97734375 L0.718945313,0.675 C0.702359176,0.71996964 0.683286803,0.76398281 0.661816406,0.806835937 L0.253125,1.11445312 C0.274890079,1.07101648 0.29425513,1.02641818 0.311132813,0.980859375"></path>
                                    <path d="M0.253125,1.11445312 L0.665332031,0.810351562 C0.606592702,0.930045832 0.520841189,1.03445206 0.41484375,1.11533203 L0,1.42207031 C0.106807552,1.34025674 0.193406842,1.23501454 0.253125,1.11445312"></path>
                                </g>
                            </g>
                            <g transform="translate(2.5486, 1.7461)" fill="#DDDDDD" id="路径">
                                <path d="M0.758496094,0.225 L1.24980469,0 C0.608203125,0.293554688 0.512402344,1.38515625 0.507128906,1.96699219 L0.00439453125,2.20869141 C0.00615234375,1.62246094 0.102832031,0.522949219 0.758496094,0.225 Z"></path>
                                <g>
                                    <path d="M0.758496094,0.225 L1.24980469,0 C1.08677357,0.0796237585 0.950312245,0.204789626 0.856933594,0.360351562 L0.360351562,0.588867187 C0.454852022,0.431436113 0.593216235,0.304984051 0.758496094,0.225"></path>
                                    <path d="M0.355957031,0.590625 L0.852539062,0.362109375 C0.810421634,0.429564863 0.773404479,0.50007373 0.741796875,0.573046875 L0.242578125,0.804199219 C0.275070073,0.730317741 0.312965793,0.658932781 0.355957031,0.590625"></path>
                                    <path d="M0.242578125,0.802441406 L0.741796875,0.571289062 C0.707287306,0.652563939 0.677932292,0.735932178 0.65390625,0.820898438 L0.153808594,1.05380859 C0.178091531,0.968349716 0.207440318,0.884412185 0.241699219,0.802441406"></path>
                                    <path d="M0.151171875,1.05380859 L0.651269531,0.820898437 C0.619578892,0.928338565 0.594049058,1.03750061 0.574804687,1.14785156 L0.0729492187,1.38164062 C0.0932021301,1.27076621 0.119312917,1.16104223 0.151171875,1.05292969"></path>
                                    <path d="M0.0729492188,1.38164062 L0.574804687,1.14697266 C0.548061341,1.29556983 0.529284524,1.44549097 0.518554687,1.59609375 L0.0158203125,1.83515625 C0.0272460937,1.69101563 0.0448242187,1.53720703 0.0729492187,1.38164063"></path>
                                    <path d="M0.0158203125,1.83603516 L0.518554688,1.59697266 C0.508007813,1.73232422 0.503613281,1.86064453 0.502734375,1.96699219 L0,2.20869141 C0,2.09970703 0.0052734375,1.97226562 0.0158203125,1.83603516"></path>
                                </g>
                            </g>
                            <polygon id="路径" fill="#DDDDDD" points="2.54245186 4.52867666 3.04518624 4.28258291 6.50280342 5.94635244 6.0501667 6.19156729"></polygon>
                            <polygon id="路径" fill="#DDDDDD" points="7.4564167 6.85865713 7.88971749 6.61432119 7.95036202 6.6433251 7.51794014 6.88766104"></polygon>
                            <polygon id="路径" fill="#DDDDDD" points="7.44850655 6.24605947 7.88180733 6.00611807 7.88971749 6.61432119 7.4564167 6.85865713"></polygon>
                            <polygon id="路径" fill="#DDDDDD" points="9.0305378 9.42066885 9.44186592 9.16578604 9.58249092 15.5097313 9.1720417 15.8076806"></polygon>
                            <g transform="translate(7.5179, 6.6433)" fill="#DDDDDD" id="路径">
                                <path d="M0,0.244335937 L0.432421875,0 C1.2234375,0.385839844 1.89316406,1.50820313 1.9265625,2.52246094 L1.51523438,2.77734375 C1.48095703,1.7578125 0.798925781,0.630175781 0,0.244335937 Z"></path>
                                <g>
                                    <path d="M0,0.244335937 L0.432421875,0 C0.500761156,0.0334035634 0.566822542,0.0712787585 0.630175781,0.113378906 L0.200390625,0.357714844 C0.136251453,0.315406105 0.0692989437,0.27752508 0,0.244335937"></path>
                                    <path d="M0.200390625,0.357714844 L0.630175781,0.113378906 C0.764983552,0.203038038 0.889901078,0.306743153 1.00283203,0.422753906 L0.579199219,0.66796875 C0.464155023,0.551557303 0.337187211,0.447567424 0.200390625,0.357714844"></path>
                                    <path d="M0.579199219,0.66796875 L1.00283203,0.422753906 C1.25933374,0.687614258 1.46913521,0.993995723 1.62333984,1.32890625 L1.20761719,1.58203125 C1.05088975,1.24556999 0.838425175,0.938016384 0.579199219,0.672363281"></path>
                                    <path d="M1.20761719,1.58203125 L1.62333984,1.33330078 C1.71233726,1.5221755 1.78325896,1.71904943 1.83515625,1.92128906 L1.42294922,2.17265625 C1.36945315,1.96958903 1.29737148,1.77187933 1.20761719,1.58203125"></path>
                                    <path d="M1.42294922,2.16826172 L1.83515625,1.91689453 C1.86490934,2.03263015 1.88780076,2.15002205 1.90371094,2.26845703 L1.49150391,2.52158203 C1.4754455,2.40317148 1.45255576,2.28578819 1.42294922,2.17001953"></path>
                                    <path d="M1.49150391,2.51982422 L1.90371094,2.26669922 C1.91425781,2.35458984 1.92128906,2.43720703 1.92392578,2.52246094 L1.51259766,2.77734375 C1.50990067,2.69120385 1.50286048,2.6052548 1.49150391,2.51982422"></path>
                                </g>
                            </g>
                            <g transform="translate(2.6523, 0)" fill="#DDDDDD" id="路径">
                                <path d="M0,0.340688381 L0.500976562,0.126235256 C0.761751478,0.018094884 1.04585448,-0.0215403595 1.32626953,0.0110985369 C1.58868576,0.0409019418 1.84537459,0.108700952 2.08828125,0.212368068 C3.92431641,0.969985256 5.18818359,3.23053213 5.22949219,6.00611807 L4.79619141,6.24605947 C4.75488281,3.45201651 3.47255859,1.17916494 1.61015625,0.422426662 C1.36359998,0.318865023 1.10340635,0.251374523 0.837597656,0.222036037 C0.552856149,0.190060435 0.26465754,0.230886052 0,0.340688381 L0,0.340688381 Z"></path>
                                <g transform="translate(0, 0.0017)">
                                    <path d="M0,0.33899945 L0.500976563,0.124546325 C0.567763164,0.0959865929 0.636490054,0.0721965157 0.706640625,0.0533549184 L0.209179687,0.266929137 C0.137820527,0.285923183 0.0679147981,0.31000835 0,0.33899945"></path>
                                    <path d="M0.209179688,0.266929137 L0.706640625,0.0533549184 C0.793082739,0.0307011132 0.881288838,0.015412056 0.9703125,0.00765179339 L0.476367188,0.2194682 C0.387318453,0.227992569 0.299127246,0.243866987 0.212695313,0.266929137"></path>
                                    <path d="M0.472851563,0.2194682 L0.966796875,0.00765179339 C1.04537798,0.00029565366 1.12436531,-0.00175977865 1.20322266,0.00149944964 L0.712792969,0.21243695 C0.632743938,0.209895891 0.552614432,0.212244009 0.472851563,0.2194682"></path>
                                    <path d="M0.712792969,0.21243695 L1.20322266,0.00149944964 C1.24365234,0.00149944964 1.28496094,0.00149944964 1.32626953,0.00940960589 C1.36757813,0.0173197621 1.40625,0.0181986684 1.44755859,0.0252299184 L0.960644531,0.236167418 L0.837597656,0.220347106 L0.712792969,0.21243695"></path>
                                    <path d="M0.960644531,0.236167418 L1.44755859,0.0252299184 C1.5387976,0.0395377088 1.62917124,0.0589034882 1.71826172,0.0832377309 L1.23574219,0.294175231 C1.14527289,0.269407421 1.05341178,0.250037346 0.960644531,0.236167418"></path>
                                    <path d="M1.23574219,0.294175231 L1.71826172,0.0832377309 C1.82802674,0.113491158 1.93600877,0.149876408 2.04169922,0.192222106 L1.56357422,0.401401793 C1.45648399,0.359044568 1.34702201,0.322948524 1.23574219,0.293296325"></path>
                                    <path d="M1.56357422,0.401401793 L2.04169922,0.1913432 L2.08828125,0.209800231 C2.2078125,0.259018981 2.32558594,0.315268981 2.43984375,0.376792418 L1.96699219,0.586851012 C1.85074457,0.524993077 1.73134343,0.46925299 1.60927734,0.419858825 L1.56269531,0.401401793"></path>
                                    <path d="M1.96787109,0.587729918 L2.44072266,0.377671325 C2.59561906,0.461904593 2.74503788,0.555841771 2.88808594,0.658921325 L2.42226562,0.869858825 C2.27715872,0.765942322 2.12536538,0.671695394 1.96787109,0.587729918"></path>
                                    <path d="M2.42226563,0.869858825 L2.88808594,0.658921325 C3.12328187,0.830285818 3.34138352,1.02395774 3.53935547,1.23724164 L3.08232422,1.44993695 C2.8817636,1.23549908 2.66068949,1.04121291 2.42226563,0.869858825"></path>
                                    <path d="M3.08232422,1.44993695 L3.53935547,1.23724164 C3.9433044,1.67832345 4.27494134,2.18052502 4.52197266,2.72522992 L4.08251953,2.94495648 C3.83086622,2.39700556 3.49353423,1.89263934 3.08320312,1.45081586"></path>
                                    <path d="M4.08251953,2.94495648 L4.52197266,2.72522992 C4.70568218,3.12112336 4.85277984,3.53299681 4.96142578,3.95569867 L4.52197266,4.18069867 C4.41366525,3.7556202 4.26656362,3.34138201 4.08251953,2.94319867"></path>
                                    <path d="M4.52197266,4.18069867 L4.96142578,3.95394086 C5.04498729,4.27881402 5.10896957,4.60841083 5.15302734,4.94095257 L4.71884766,5.17386273 C4.67390084,4.83904253 4.60814861,4.50734601 4.52197266,4.18069867"></path>
                                    <path d="M4.71884766,5.17562054 L5.15302734,4.94271039 C5.19403,5.2558614 5.21867284,5.57093776 5.22685547,5.8866557 L4.79355469,6.12659711 C4.78511478,5.80852628 4.76017892,5.49110749 4.71884766,5.17562054"></path>
                                    <path d="M4.79355469,6.12659711 L5.22685547,5.8866557 L5.22685547,6.00442914 L4.79355469,6.24437054 C4.79355469,6.20481976 4.79355469,6.16526898 4.79355469,6.12659711"></path>
                                </g>
                            </g>
                            <path d="M9.1720417,15.8076806 C9.18874092,16.5362938 8.89606514,16.9880517 8.45221749,17.0627587 C8.22633858,17.1005517 7.95915108,17.040786 7.67350655,16.8676415 L1.20387764,12.953872 C0.512178423,12.5355126 -0.0213176708,11.4342431 0.000654985413,10.4929345 L0.127217485,4.99010244 C0.143037798,4.28258291 0.498115923,3.84752432 0.980635454,3.86598135 C1.09467816,3.87208288 1.20665862,3.89888671 1.3111042,3.94508291 L1.32077217,3.38961416 C1.35680733,1.25650869 2.16627999,0.0954735369 3.4899128,0.221157131 C3.75572149,0.250495617 4.01591512,0.317986116 4.26247139,0.421547756 C6.12487374,1.17828604 7.40719795,3.4511376 7.44850655,6.24518057 L7.45729561,6.86041494 L7.51794014,6.88941885 C8.31862374,7.27525869 8.99889717,8.40201651 9.0305378,9.42242666 L9.1720417,15.8076806 Z M2.54245186,4.52867666 L6.0501667,6.19156729 L6.0501667,5.58424307 C6.04225655,4.52955557 5.7961628,2.69088369 4.2642292,2.03609854 C4.09972115,1.9615029 3.92382277,1.9151513 3.7439167,1.89898916 C2.69626045,1.82516104 2.56002999,3.25514151 2.55299874,3.95475088 L2.54684639,4.52867666 M4.75202217,10.6643212 C5.03590889,10.6089501 5.20905342,10.3083642 5.20026436,9.88033682 C5.18846099,9.41966651 5.02815797,8.9751339 4.74323311,8.61295401 C4.49274483,8.29654776 4.20358467,8.13482901 3.95749092,8.14010244 C3.77633209,8.14461143 3.61212904,8.24778624 3.52946358,8.40904776 C3.28512764,8.83355947 3.42399483,9.61842276 3.84411202,10.1712548 L3.83444405,11.5221337 C3.83444405,11.8552392 4.03571358,12.241079 4.28708077,12.3852196 C4.34821732,12.4228621 4.41926632,12.4412369 4.49098702,12.437954 C4.6430378,12.4247704 4.74762764,12.2771142 4.74762764,12.0362938 L4.74762764,10.6643212" id="形状" fill="#F4F4F4"></path>
                        </g>
                        <path d="M51.7807617,17.4963867 L51.9275391,17.6053711 L52.0892578,17.7222656 L52.2413086,17.8330078 L52.4047852,17.9499023 L52.5621094,18.0632813 L52.7326172,18.1836914 C52.7862305,18.2206055 52.8380859,18.2583984 52.8916992,18.2961914 L53.0674805,18.4192383 L53.2300781,18.5317383 L53.4058594,18.6530273 L53.5816406,18.7708008 L53.7697266,18.8982422 L53.9384766,19.0125 L54.140625,19.1478516 L54.3058594,19.2577148 L54.5106445,19.3930664 L54.6864258,19.5064453 L54.8956055,19.6426758 L55.0713867,19.7586914 L55.2867187,19.8975586 L55.4686523,20.0144531 L55.6962891,20.1594727 L55.8764648,20.2737305 L56.119043,20.4257813 L56.2948242,20.5365234 L56.5716797,20.7123047 L56.7246094,20.8072266 L57.1640625,21.0788086 L62.4375,17.5543945 L61.9980469,17.2828125 L61.8222656,17.1764648 L61.5647461,17.015625 L61.4003906,16.912793 C61.3125,16.8591797 61.2290039,16.8055664 61.1455078,16.7519531 L60.9785156,16.6456055 L60.7324219,16.4900391 L60.5566406,16.3775391 L60.3333984,16.2333984 L60.1576172,16.1217773 C60.0855469,16.0751953 60.0125977,16.0286133 59.9422852,15.9820313 L59.7665039,15.8668945 L59.5731445,15.7324219 L59.4035156,15.619043 L59.2057617,15.487207 L59.0378906,15.3738281 L58.8480469,15.2455078 L58.6801758,15.1303711 L58.5043945,15.0064453 L58.3453125,14.8957031 L58.1642578,14.7700195 L58.0078125,14.662793 L57.8320312,14.5379883 L57.6764648,14.4272461 L57.5112305,14.3085938 L57.3600586,14.1987305 L57.1974609,14.0800781 L57.0541992,13.9746094 L56.8933594,13.855957 L56.7518555,13.7496094 L56.6006836,13.6353516 C56.4706055,13.537793 56.344043,13.4411133 56.2192383,13.3444336 L56.1313477,13.2732422 L55.8026367,13.0148438 L55.7560547,12.9779297 C55.6388672,12.8830078 55.5216797,12.7886719 55.4044922,12.6949219 L55.3166016,12.6254883 L55.0089844,12.3706055 L54.9703125,12.3389648 C54.8595703,12.2458008 54.7514648,12.1535156 54.6442383,12.0612305 L54.5668945,11.9935547 C54.4702148,11.9056641 54.375293,11.8274414 54.2821289,11.7439453 L54.2460937,11.7131836 L53.9446289,11.4407227 L53.8716797,11.3739258 C53.7837891,11.2913086 53.6958984,11.2095703 53.6080078,11.1269531 L53.5772461,11.0988281 C53.4823242,11.0091797 53.3888672,10.9212891 53.296875,10.8351563 L53.2291992,10.7683594 C53.1413086,10.6866211 53.062207,10.6048828 52.9804687,10.5231445 C52.9716797,10.5143555 52.9620117,10.5055664 52.9541016,10.4967773 C52.8662109,10.4088867 52.7783203,10.3209961 52.6904297,10.2331055 L52.6271484,10.1680664 L52.3924805,9.92197266 L52.3696289,9.89824219 C52.2817383,9.81035156 52.2043945,9.72246094 52.1235352,9.63457031 L52.0628906,9.56777344 C51.9881836,9.48603516 51.9134766,9.40341797 51.8405273,9.32080078 L51.8211914,9.29970703 C51.7420898,9.21181641 51.6647461,9.12392578 51.5874023,9.03603516 L51.5311523,8.97011719 C51.459082,8.8875 51.3887695,8.80400391 51.318457,8.72050781 C51.3123047,8.71347656 51.3061523,8.70732422 51.3008789,8.70029297 C51.225293,8.61240234 51.1514648,8.52451172 51.0776367,8.43662109 C51.0600586,8.41376953 51.0416016,8.39179688 51.0231445,8.36982422 L50.8174805,8.11582031 L50.8007812,8.0859375 C50.727832,7.99804688 50.6566406,7.90488281 50.5854492,7.81435547 L50.5327148,7.74667969 C50.4650391,7.65878906 50.3982422,7.57089844 50.3314453,7.48300781 L50.3191406,7.4671875 C50.2488281,7.37929688 50.1785156,7.28261719 50.109082,7.19033203 C50.0915039,7.16748047 50.0739258,7.14462891 50.0572266,7.12089844 L49.8577148,6.85722656 L49.8480469,6.84404297 C49.7786133,6.75 49.7091797,6.65595703 49.640625,6.56103516 L49.5878906,6.48896484 L49.3892578,6.21474609 L49.3813477,6.20244141 L49.172168,5.91064453 L49.1203125,5.83681641 L48.9181641,5.55117188 L48.9120117,5.54326172 L48.6993164,5.24003906 L48.6457031,5.16357422 L48.20625,4.53164063 C48.1869141,4.50351563 48.1666992,4.47539063 48.1473633,4.44375 C48.0779297,4.3453125 48.009375,4.24599609 47.9390625,4.14492188 C47.86875,4.04384766 47.8001953,3.94628906 47.7298828,3.84521484 C47.709668,3.81621094 47.6894531,3.78632813 47.6683594,3.75732422 L47.4345703,3.42158203 L42.1646484,6.94335938 L42.3993164,7.28085938 L42.4564453,7.36171875 L42.7051758,7.71943359 L42.8589844,7.94003906 L42.9407227,8.0578125 L43.1639648,8.37773438 L43.1745117,8.39267578 C43.2418945,8.48994141 43.3095703,8.58662109 43.3775391,8.68271484 L43.4302734,8.75917969 C43.5023437,8.86113281 43.5726562,8.96220703 43.6438477,9.06240234 L43.6491211,9.0703125 L43.8512695,9.35595703 L43.9040039,9.42978516 L44.1123047,9.72158203 L44.1228516,9.73564453 C44.1878906,9.82353516 44.2538086,9.91757813 44.3188477,10.0081055 L44.371582,10.0801758 C44.4410156,10.1750977 44.5104492,10.2700195 44.5798828,10.3631836 L44.5895508,10.3763672 C44.6554687,10.4642578 44.7222656,10.5521484 44.7881836,10.6400391 L44.8400391,10.7094727 L45.0500977,10.9863281 L45.0641602,11.0039063 L45.2636719,11.2623047 L45.3172852,11.3299805 C45.3884766,11.4178711 45.459668,11.5119141 45.5317383,11.6015625 L45.5466797,11.6200195 C45.6143555,11.7079102 45.6829102,11.7896484 45.7523437,11.8740234 L45.8068359,11.9408203 L46.0291992,12.2088867 L46.0467773,12.2299805 L46.2594727,12.4787109 L46.3166016,12.5446289 L46.5495117,12.8083008 L46.5697266,12.8302734 C46.6426758,12.9128906 46.7173828,12.9946289 46.7920898,13.0772461 L46.8518555,13.1431641 C46.9335937,13.2310547 47.015332,13.3189453 47.0988281,13.4068359 L47.1208008,13.4305664 C47.1981445,13.5125977 47.2763672,13.5943359 47.3554687,13.6757813 C47.3774414,13.6977539 47.3985352,13.7206055 47.4196289,13.7425781 C47.5057617,13.8304688 47.5936523,13.9183594 47.6833008,14.00625 L47.7105469,14.0334961 C47.7922852,14.1152344 47.8749023,14.1960938 47.9583984,14.277832 L48.0269531,14.3446289 C48.1195312,14.4331055 48.2129883,14.5209961 48.3073242,14.6083008 L48.3380859,14.6373047 C48.4259766,14.719043 48.5138672,14.8007813 48.6017578,14.8833984 C48.6254883,14.90625 48.6500977,14.9282227 48.674707,14.9501953 C48.7731445,15.0404297 48.8736328,15.13125 48.9761719,15.2226563 L49.012207,15.2542969 C49.1053711,15.3369141 49.2,15.4198242 49.2960937,15.5030273 L49.3743164,15.5707031 C49.4806641,15.6585938 49.5896484,15.7552734 49.6995117,15.8484375 L49.7399414,15.8818359 L50.0458008,16.1349609 L50.1336914,16.2043945 C50.2488281,16.2984375 50.3657227,16.3924805 50.4852539,16.4882813 L50.530957,16.5243164 L50.8605469,16.7827148 L50.9484375,16.8539063 C51.0732422,16.9505859 51.1998047,17.0472656 51.3298828,17.1457031 L51.3413086,17.1544922 L51.4775391,17.2564453 C51.5258789,17.2924805 51.5733398,17.3293945 51.6225586,17.3654297 L51.7807617,17.4963867 Z" id="路径" fill="#DDDDDD" fill-rule="nonzero"></path>
                        <path d="M62.5456055,38.2526367 C62.5456055,38.2464844 62.5456055,38.2412109 62.5456055,38.2359375 C62.5456055,38.2113281 62.5456055,38.1875977 62.55,38.1647461 C62.5543945,38.1418945 62.55,38.1427734 62.55,38.1313477 C62.55,38.1199219 62.55,38.0970703 62.55,38.0803711 L62.55,38.0487305 L62.55,38.0012695 C62.55,37.9907227 62.55,37.9810547 62.55,37.9705078 L62.55,37.9256836 C62.55,37.9177734 62.55,37.9089844 62.55,37.9010742 C62.55,37.8931641 62.55,37.8720703 62.55,37.8580078 C62.55,37.8439453 62.55,37.8413086 62.55,37.8342773 C62.55,37.8140625 62.55,37.7947266 62.55,37.7762695 L62.55,37.7762695 C62.55,37.7586914 62.55,37.7419922 62.55,37.7261719 L62.55,37.7050781 C62.55,37.6945312 62.55,37.6848633 62.55,37.6751953 L62.55,37.6541016 C62.549563,37.647957 62.549563,37.6417891 62.55,37.6356445 L62.55,37.5477539 C62.55,36.9439453 62.55,25.471582 62.4041016,17.5508789 L57.1306641,21.075293 C57.2783203,28.9959961 57.2774414,40.4683594 57.2774414,41.072168 L57.2774414,41.0958984 C57.2778587,41.1020437 57.2778587,41.1082102 57.2774414,41.1143555 L57.2774414,41.1591797 C57.2774414,41.1662109 57.2774414,41.175 57.2774414,41.1837891 L57.2774414,41.2013672 C57.2770028,41.2095644 57.2770028,41.2177793 57.2774414,41.2259766 L57.2774414,41.2488281 C57.2774414,41.2637695 57.2774414,41.2787109 57.2774414,41.2945312 L57.2774414,41.3006836 C57.2774414,41.3200195 57.2774414,41.3393555 57.2774414,41.3604492 C57.2774414,41.3666016 57.2774414,41.3736328 57.2774414,41.3806641 C57.2774414,41.3876953 57.2774414,41.4087891 57.2774414,41.4237305 C57.2774414,41.4386719 57.2774414,41.4439453 57.2774414,41.4536133 C57.2774414,41.4632812 57.2774414,41.4808594 57.2774414,41.4949219 C57.2774414,41.5089844 57.2774414,41.5151367 57.2774414,41.5265625 C57.2774414,41.5379883 57.2774414,41.5582031 57.2774414,41.5749023 C57.2774414,41.5916016 57.2774414,41.5933594 57.2774414,41.6030273 L57.2774414,41.6583984 C57.2774414,41.6689453 57.2774414,41.6786133 57.2774414,41.6891602 C57.2774414,41.699707 57.2774414,41.7366211 57.272168,41.7612305 C57.2726041,41.7664949 57.2726041,41.7717864 57.272168,41.7770508 C57.272168,41.8069336 57.272168,41.8376953 57.2660156,41.8693359 C57.2660156,41.8798828 57.2660156,41.8904297 57.2660156,41.9009766 C57.2660156,41.9115234 57.2660156,41.9405273 57.2607422,41.9616211 C57.2607422,42.0205078 57.2519531,42.0829102 57.2466797,42.1461914 L57.2466797,42.1760742 C57.2414062,42.2393555 57.2352539,42.3052734 57.2291016,42.3729492 C57.2291016,42.384375 57.2291016,42.3949219 57.2291016,42.4063477 C57.2220703,42.4740234 57.2150391,42.5443359 57.2080078,42.6164062 C57.2080078,42.627832 57.2080078,42.6392578 57.2036133,42.6506836 C57.1957031,42.7236328 57.187793,42.7983398 57.178125,42.8748047 C57.178125,42.8853516 57.178125,42.8967773 57.178125,42.9073242 C57.168457,42.9855469 57.1579102,43.0655273 57.1473633,43.1472656 C57.1473633,43.1560547 57.1473633,43.1648437 57.1473633,43.1745117 C57.1359375,43.2624023 57.1236328,43.3441406 57.1113281,43.4311523 L57.1113281,43.4469727 C57.0981445,43.5348633 57.0832031,43.6280273 57.0682617,43.7211914 L57.0682617,43.7255859 C57.0533203,43.8134766 57.0375,43.9101562 57.0208008,44.0041992 C57.0208008,44.0112305 57.0208008,44.0191406 57.0164062,44.0261719 C56.9944336,44.1492187 56.9698242,44.2731445 56.9443359,44.3988281 C56.9443359,44.4084961 56.9443359,44.419043 56.9381836,44.4287109 C56.9135742,44.5491211 56.887207,44.6712891 56.859082,44.793457 L56.8520508,44.821582 C56.8230469,44.9490234 56.7914062,45.0773437 56.7580078,45.2056641 C56.7555534,45.2125712 56.7534992,45.2196142 56.7518555,45.2267578 C56.7193359,45.3506836 56.6841797,45.4754883 56.6481445,45.5994141 C56.6481445,45.6117187 56.6411133,45.6240234 56.6367187,45.6363281 C56.6112305,45.7242187 56.5839844,45.8121094 56.5558594,45.9 L56.540918,45.9439453 C56.512793,46.0318359 56.4829102,46.1197266 56.4530273,46.2076172 C56.4477539,46.2199219 56.4433594,46.2331055 56.4389648,46.2454102 C56.4064453,46.3333008 56.3739258,46.4211914 56.3387695,46.509082 C56.3387695,46.5169922 56.3326172,46.5240234 56.3299805,46.5319336 C56.2948242,46.6198242 56.2579102,46.7077148 56.2201172,46.7956055 C56.2197705,46.7991125 56.2197705,46.8026453 56.2201172,46.8061523 C56.1875977,46.8799805 56.1550781,46.9520508 56.1216797,47.0241211 C56.1137695,47.0408203 56.1058594,47.0566406 56.0988281,47.0724609 C56.0645508,47.1436523 56.0302734,47.2139648 55.9942383,47.2833984 C55.9942383,47.2930664 55.9845703,47.3018555 55.9801758,47.3106445 C55.9476563,47.3748047 55.9133789,47.437207 55.8791016,47.4987305 L55.85625,47.5391602 C55.818457,47.605957 55.7797852,47.671875 55.7402344,47.7360352 L55.7138672,47.7782227 C55.6822266,47.8283203 55.6505859,47.8775391 55.6180664,47.9258789 L55.5925781,47.9636719 C55.5530273,48.0216797 55.5134766,48.0779297 55.472168,48.1333008 L55.4449219,48.1693359 C55.4109375,48.2150391 55.3757813,48.2598633 55.3394531,48.3038086 L55.3078125,48.3424805 C55.2647461,48.3952148 55.2199219,48.4470703 55.1750977,48.4962891 L55.1504883,48.5226562 C55.1109375,48.5648437 55.0713867,48.6105469 55.030957,48.646582 L54.994043,48.6834961 C54.9457031,48.7300781 54.8973633,48.7713867 54.8472656,48.8197266 L54.8296875,48.8337891 C54.7848633,48.8733398 54.7417969,48.9111328 54.6908203,48.9480469 L54.6495117,48.9796875 C54.5967773,49.0201172 54.5431641,49.059668 54.487793,49.096582 L59.755957,45.572168 C59.8113281,45.5352539 59.8649414,45.4957031 59.9185547,45.4552734 L59.9598633,45.4236328 C60.0064453,45.3867187 60.0530273,45.3489258 60.0987305,45.309375 L60.1154297,45.2953125 C60.1655273,45.2513672 60.2147461,45.2074219 60.2630859,45.159082 L60.2991211,45.122168 C60.3395508,45.0817383 60.3799805,45.0404297 60.4186523,44.9982422 L60.4432617,44.971875 C60.4889648,44.9217773 60.5311523,44.8708008 60.5768555,44.8180664 L60.6084961,44.7793945 C60.6436523,44.7354492 60.6788086,44.6915039 60.7130859,44.6449219 L60.7412109,44.6088867 C60.7816406,44.5535156 60.8220703,44.4963867 60.8607422,44.4392578 L60.8862305,44.4014648 C60.91875,44.353125 60.9503906,44.3039062 60.9820313,44.2538086 C60.9873047,44.2450195 60.993457,44.2362305 60.9996094,44.2274414 L61.0083984,44.2116211 C61.0488281,44.146582 61.0875,44.081543 61.125293,44.0147461 L61.1472656,43.9751953 C61.181543,43.912793 61.2158203,43.8495117 61.2492188,43.7862305 C61.2536133,43.7774414 61.2588867,43.7686523 61.2632813,43.7589844 C61.2984375,43.6895508 61.3335938,43.6192383 61.3669922,43.5480469 C61.3749023,43.5322266 61.3819336,43.5164062 61.3898438,43.499707 C61.4232422,43.4276367 61.4566406,43.3555664 61.4882813,43.2817383 L61.4882813,43.2817383 C61.4887548,43.2794184 61.4887548,43.2770269 61.4882813,43.274707 C61.5263672,43.1862305 61.5632813,43.096582 61.5990234,43.0057617 L61.6078125,42.9837891 C61.6420898,42.8958984 61.6754883,42.8080078 61.7071289,42.7201172 C61.7124023,42.7078125 61.7167969,42.6946289 61.7211914,42.6823242 C61.7519531,42.5944336 61.7818359,42.506543 61.809082,42.4186523 C61.809082,42.4037109 61.81875,42.3887695 61.8231445,42.3738281 C61.8512695,42.2859375 61.8785156,42.1980469 61.9048828,42.1101562 L61.9101562,42.0925781 C61.9123173,42.0865482 61.9140789,42.0803825 61.9154297,42.0741211 C61.9523437,41.9501953 61.9866211,41.8253906 62.0200195,41.7014648 L62.025293,41.6803711 C62.0586914,41.5520508 62.090332,41.4228516 62.1202148,41.2954102 C62.1202148,41.2866211 62.1246094,41.277832 62.1263672,41.269043 C62.1544922,41.1459961 62.1808594,41.0238281 62.2063477,40.9025391 C62.2063477,40.8928711 62.2063477,40.8832031 62.2125,40.8735352 C62.2379883,40.7478516 62.2617188,40.6239258 62.2845703,40.5008789 L62.2845703,40.4956055 L62.2845703,40.4797852 C62.3012695,40.3848633 62.3179688,40.2916992 62.3329102,40.1994141 L62.3329102,40.1994141 C62.3487305,40.10625 62.362793,40.0148437 62.3759766,39.9243164 L62.3759766,39.9084961 C62.3891602,39.8206055 62.4005859,39.7327148 62.4120117,39.6518555 C62.4120117,39.6421875 62.4120117,39.6333984 62.4164063,39.6237305 C62.4269531,39.5428711 62.4366211,39.4628906 62.4462891,39.384668 C62.4462891,39.3741211 62.4462891,39.3626953 62.4506836,39.3521484 C62.4594727,39.2756836 62.4682617,39.2009766 62.4761719,39.1280273 L62.4761719,39.09375 C62.484082,39.0216797 62.4911133,38.9513672 62.4981445,38.8828125 L62.4981445,38.850293 C62.5042969,38.7826172 62.5104492,38.7166992 62.5157227,38.6525391 L62.5157227,38.6244141 C62.5209961,38.5602539 62.5262695,38.4987305 62.5306641,38.4389648 C62.5302375,38.4363454 62.5302375,38.4336742 62.5306641,38.4310547 C62.5306641,38.4117187 62.5306641,38.3923828 62.5306641,38.3739258 C62.5306641,38.3554687 62.5306641,38.3563477 62.5306641,38.3484375 C62.5412109,38.3141602 62.5429687,38.2825195 62.5456055,38.2526367 Z" id="路径" fill="#C8C8C8" fill-rule="nonzero"></path>
                        <path d="M66.8188477,23.3578125 C65.9399414,23.0835937 65.0170898,22.8304687 64.0564453,22.5914062 C64.0564453,22.6520508 64.0564453,22.7135742 64.0564453,22.7742187 C71.1615234,24.5241211 75.7265625,27.2276367 75.7265625,30.2563477 C75.7265625,33.2850586 71.1922852,35.9692383 64.125,37.7208984 C62.3601563,38.1603516 60.4335938,38.5365234 58.3875,38.8458984 C54.3383789,39.4611328 49.7935547,39.8012695 44.9956055,39.8012695 C39.9410156,39.8012695 35.1685547,39.4198242 30.9585938,38.746582 C21.0550781,37.1645508 14.2672852,33.9512695 14.2672852,30.2581055 C14.2672852,27.2179687 18.8701172,24.5039062 26.0244141,22.7548828 L26.0244141,22.5720703 C25.0330078,22.8140625 24.084375,23.0777344 23.1785156,23.3630859 C17.3170898,25.1956055 14.0897461,27.6459961 14.0897461,30.2616211 C14.0897461,32.8772461 17.3170898,35.3276367 23.1785156,37.1601562 C25.5313477,37.8958008 28.1970703,38.4978516 31.0816406,38.9548828 C35.343457,39.6290039 40.0833984,39.9858398 44.9973633,39.9858398 C49.7118164,39.9858398 54.2645508,39.6580078 58.3901367,39.0357422 C60.4168945,38.7298828 62.3390625,38.352832 64.1267578,37.9098633 C65.0613281,37.6790039 65.9578125,37.4291016 66.8162109,37.1601562 C72.6776367,35.3276367 75.9049805,32.8772461 75.9049805,30.2616211 C75.9049805,27.6459961 72.6802734,25.190332 66.8188477,23.3578125 Z" id="路径" fill="#DDDDDD" fill-rule="nonzero"></path>
                    </g>
                </g>
            </g>
        </g>
    </g>
</svg>