<?xml version="1.0" encoding="UTF-8"?>
<svg width="150px" height="150px" viewBox="0 0 150 150" version="1.1" xmlns="http://www.w3.org/2000/svg" xmlns:xlink="http://www.w3.org/1999/xlink">
    <title>15-图标/2提示/3D提示/蓝没权限</title>
    <g id="平台icon231127" stroke="none" stroke-width="1" fill="none" fill-rule="evenodd">
        <g id="平台icon231128" transform="translate(-610, -728)">
            <g id="15-图标/2提示/3D提示/蓝没权限" transform="translate(610, 728)">
                <rect id="_mockplus_fix_" x="0" y="0" width="150" height="150"></rect>
                <g id="没权限">
                    <rect id="矩形备份-2" fill-opacity="0" fill="#EFE9DE" x="0" y="0" width="150" height="150"></rect>
                    <g id="无权限_画板-1" transform="translate(29, 25)" fill-rule="nonzero">
                        <polygon id="路径" fill="#F9FCFF" points="46.0049029 0.24349691 0.244102498 20.4018301 5.96090383 69.9695328 46.0049029 99.7558578 86.2316754 70.1834013 91.7559293 20.4750728"></polygon>
                        <path d="M86.2893419,69.787891 L46.1954955,46.7525861 L46.1954955,0.271817405 C46.1954955,0.163948594 46.1079763,0.0765036449 46.0000159,0.0765036449 C45.8920555,0.0765036449 45.8045363,0.163948594 45.8045363,0.271817405 L45.8045363,46.7564924 L5.84654826,69.787891 C5.78292387,69.8211457 5.74266795,69.8865755 5.74167815,69.958312 C5.74072433,70.0300485 5.77919309,70.096543 5.84189334,70.1315061 C5.90459359,70.1664692 5.98143133,70.1642722 6.04202787,70.1257838 L46.0000159,47.0904789 L86.0938623,70.1257838 C86.1388062,70.1519475 86.1923332,70.1591349 86.2425958,70.1457551 C86.2928585,70.1323753 86.3357113,70.0995319 86.3616694,70.0544943 C86.3875792,70.0095578 86.3943345,69.9562235 86.3807703,69.9062252 C86.3672062,69.8562269 86.3343182,69.8136605 86.2893419,69.787891 Z" id="路径" fill="#C8DAFF"></path>
                        <path d="M46.0049029,100 C45.9523675,100 45.9012989,99.9826669 45.8592706,99.9511716 L5.81527152,70.1658231 C5.76083625,70.1257554 5.72545008,70.0649428 5.71753171,69.9978533 L0.00170777547,20.4301506 C-0.0109126034,20.3237657 0.047354067,20.2215885 0.145385292,20.1781959 L45.9022761,0.0198626544 C45.9647404,-0.0066208848 46.0352914,-0.0066208848 46.0977557,0.0198626544 L91.8546465,20.2514385 C91.9525234,20.2944743 92.0108179,20.3963042 91.9983241,20.5024167 L86.4740702,70.2146515 C86.4666725,70.2824458 86.4312328,70.3440586 86.3763303,70.3845745 L46.1505352,99.9521481 C46.1083536,99.9832331 46.0573167,100 46.0049029,100 Z M6.19254717,69.8367194 L46.0058803,99.4521449 L86.0000321,70.050588 L91.4930093,20.6264409 L46.0049029,0.509123624 L0.507999978,20.5531983 L6.19254717,69.8367194 Z" id="形状" fill="#6797FF"></path>
                        <polygon id="路径" fill="#D4E1F8" points="62.8337429 38.6656198 62.8337429 38.6665964 62.8259238 38.7710893 62.1104684 48.1715406 62.0078416 48.2369707 62.7311161 38.7251905 54.7174293 43.3482672 54.7135197 43.4566664 54.360679 53.1159084 54.2609844 53.1803619 54.2560974 53.2995033 46.0136995 58.5593029 45.9228015 58.6169205 45.9228015 58.617897 45.9550556 67.8728396 45.9550556 67.8738161 45.956033 67.8738161 53.9276917 62.3229991 53.9228047 62.4450702 46.0410666 67.9333868 45.9550556 67.9929575 45.9843776 76.2439873 53.6246983 70.6209042 53.7253703 70.5466849 60.7020377 65.4118862 60.8056419 65.3357138 67.2662432 60.5808003 68.1576303 52.5338734 68.1713138 52.4049663 69.1232995 43.813114 69.1369831 43.6881132 70.1612963 34.4390301"></polygon>
                        <polygon id="路径" fill="#D4E1F8" points="45.8866377 48.4420501 45.9218241 58.5007088 45.9228015 58.5007088 54.2609844 53.1803619 54.6167573 43.4058848"></polygon>
                        <polygon id="路径" fill="#98B5F3" points="45.9550556 67.9929575 45.870022 67.9333868 37.9325722 62.406984 37.9276852 62.2839363 45.9550556 67.8728396 45.9228015 58.617897 45.9228015 58.6169205 45.8309261 58.5593029 37.5386808 53.2946205 37.5337938 53.1754791 37.4331218 53.1110256 37.0128406 43.3863534 37.0079536 43.2789309 37.0079536 43.2779543 37.0069762 43.2779543 29.1252382 38.6939403 29.9110662 48.3356041 29.807462 48.270174 29.0304306 38.7388625 29.021634 38.6343696 29.021634 38.6333931 21.8387355 34.4566083 22.937331 43.9088177 22.9519919 44.032842 23.9411188 52.5455922 23.9567572 52.6754759 24.8735566 60.5641987 31.1914577 65.2566117 31.2950619 65.3337607 38.1827861 70.4490281 38.2834581 70.5242239 45.9843776 76.2439873"></polygon>
                        <polygon id="路径" fill="#98B5F3" points="45.8866377 48.4420501 37.1086256 43.337525 37.5337938 53.1754791 45.9218241 58.5007088"></polygon>
                        <polygon id="路径" fill="#E6EFFE" points="61.3324595 30.5688879 61.2181039 30.5190829 53.3969645 27.0903498 53.277722 27.0385917 46.056705 23.8725556 38.7184003 27.0796076 38.6011125 27.1313657 30.6900525 30.5884193 30.5766743 30.6382243 21.8387355 34.4566083 29.021634 38.6333931 29.1164416 38.5884709 37.7634824 34.4546552 37.8709961 34.5122727 29.1252382 38.6929638 29.1252382 38.6939403 37.0069762 43.2779543 37.0079536 43.2779543 37.1037387 43.2271727 45.7253671 38.6831981 45.8309261 38.7388625 45.9345302 38.6841746 54.6206669 43.2974857 54.7174293 43.3482672 62.7311161 38.7251905 53.9042341 34.4839522 54.0117479 34.4273112 62.7389353 38.6206977 62.8337429 38.6656198 70.1612963 34.4390301"></polygon>
                        <polygon id="路径" fill="#E6EFFE" points="37.1076482 43.3365484 37.1086256 43.337525 45.8866377 48.4420501 54.6167573 43.4058848 54.6167573 43.4049082 45.8309261 38.7388625 37.1086256 43.3355719"></polygon>
                        <path d="M62.7389353,38.6206977 L54.0146801,34.4273112 L61.3324595,30.5659582 L61.2181039,30.5161532 L53.9022793,34.3745765 L46.0498632,30.6020912 L53.3969645,27.0864436 L53.277722,27.0346854 L45.936485,30.5434971 L38.7184003,27.0796076 L38.6011125,27.1313657 L45.8240843,30.6020912 L37.8729509,34.402897 L30.6900525,30.5884193 L30.5766743,30.6382243 L37.7634824,34.4546552 L29.1164416,38.5884709 L29.0187018,38.6333931 L29.0187018,38.6333931 L29.1164416,38.6929638 L29.1164416,38.6929638 L37.8621996,34.5122727 L45.7165705,38.6831981 L37.1056935,43.2271727 L37.0079536,43.2779543 L37.0079536,43.2779543 L37.1056935,43.3355719 L37.1056935,43.3355719 L45.8279939,38.7388625 L54.6138251,43.4049082 L54.6138251,43.4049082 L54.711565,43.3472907 L54.6138251,43.2965091 L45.9276885,38.6831981 L53.8973924,34.4839522 L62.7242744,38.7251905 L62.8269012,38.6665964 L62.8269012,38.6665964 L62.7389353,38.6206977 Z M45.8299487,38.6285102 L37.9853517,34.459538 L45.9423494,30.6558025 L53.7996525,34.4312175 L45.8299487,38.6285102 Z" id="形状" fill="#AEBED3" opacity="0.6"></path>
                        <path d="M37.9276852,62.2839363 L37.536726,53.2995033 L45.8289713,58.5641857 L45.9208467,58.6218033 L45.9208467,58.5065682 L45.9208467,58.5065682 L37.5328164,53.1813385 L37.1056935,43.337525 L37.1056935,43.337525 L37.1056935,43.337525 L37.0079536,43.2799074 L37.0128406,43.38733 L37.4331218,53.1120021 L29.9071566,48.3365807 L29.1252382,38.6949169 L29.1252382,38.6949169 L29.0274984,38.6353462 L29.036295,38.7398391 L29.8133264,48.2711506 L22.9334214,43.9088177 L22.9480824,44.032842 L29.8133264,48.3912685 L30.5297592,57.1286296 L23.9411188,52.5387562 L23.9567572,52.6686399 L30.5395332,57.2526538 L31.1914577,65.2497758 L31.2950619,65.3269247 L30.6431374,57.3249199 L37.8319002,62.329835 L38.1808313,70.4490281 L38.2785711,70.5242239 L37.9276852,62.406984 L45.865135,67.9333868 L45.9501686,67.9929575 L45.9501686,67.8708864 L37.9276852,62.2839363 Z M30.6333634,57.2057785 L29.9208402,48.4586518 L37.4380088,53.2311435 L37.828968,62.2155765 L30.6333634,57.2057785 Z" id="形状" fill="#7495D1"></path>
                        <path d="M69.1232995,43.813114 L69.1369831,43.6881132 L62.1104684,48.1715406 L62.8259238,38.7691361 L62.8337429,38.6646433 L62.7311161,38.7232374 L62.0078416,48.2350175 L54.360679,53.1178615 L54.7135197,43.4566664 L54.7135197,43.3482672 L54.6157799,43.4058848 L54.6157799,43.4058848 L54.260007,53.1803619 L45.9218241,58.5007088 L45.9218241,58.5007088 L45.9218241,58.6159439 L46.0127221,58.5583263 L54.2551201,53.2985268 L53.9267143,62.3220225 L45.956033,67.8708864 L45.956033,67.8708864 L45.956033,67.9900278 L46.042044,67.9304571 L53.9237821,62.4421405 L53.6305627,70.6179745 L53.7283025,70.5437552 L54.0264089,62.3718275 L61.3217081,57.2936697 L60.7049699,65.409933 L60.8085741,65.3337607 L61.4223801,57.2262865 L68.1576303,52.5387562 L68.1713138,52.4098492 L61.4272671,57.0973794 L62.0967848,48.2936117 L69.1232995,43.813114 Z M61.3285499,57.1696455 L54.0273863,62.2526861 L54.3567695,53.2350498 L61.9980676,48.3590418 L61.3285499,57.1696455 Z" id="形状" fill="#91A7BC" opacity="0.7"></path>
                        <polyline id="路径" fill="#385BA8" points="48.3672741 58.4587163 47.9675182 58.717507 47.9186483 62.2526861 47.360554 59.1120408 46.7975727 59.4772776 46.9001995 59.7858733 46.8132111 65.0515323 47.2344697 64.778093 47.2852944 61.3308052 47.8199311 64.3982078 48.2881048 64.0944949 48.3672741 58.4587163"></polyline>
                        <path d="M49.1501699,62.5886258 L49.1951302,58.8678986 L49.7561567,58.504615 L49.6887163,62.2390141 L49.1501699,62.5886258 M50.0669693,57.3561701 L48.7553011,58.2028553 L48.6868832,63.1706608 C48.6814022,63.2571633 48.6814022,63.3439256 48.6868832,63.4304281 C48.6905722,63.4965023 48.7013862,63.5619859 48.7191374,63.6257418 C48.7281654,63.6637838 48.7458969,63.6992167 48.7709395,63.7292581 C48.7872107,63.7488563 48.815993,63.7522901 48.8364251,63.7370707 L50.1500481,62.8903855 L50.218466,57.92258 C50.2240256,57.8344508 50.2240256,57.7460592 50.218466,57.6579299 C50.2142892,57.5947971 50.2034784,57.5322784 50.1862119,57.4714053 C50.1771583,57.4330785 50.1594377,57.3973333 50.1344098,57.3669124 C50.1182017,57.3477546 50.089771,57.3447418 50.0699015,57.3600764" id="形状" fill="#385BA8"></path>
                        <path d="M52.5065549,58.5153573 L52.5202385,56.7106582 L53.0372821,56.3766716 L53.0011183,58.1960193 L52.5124193,58.5153573 M53.5122975,55.1237339 L51.9904887,56.1110449 L52.0667258,56.3385854 L52.0061271,61.6852996 L52.4498658,61.3972118 L52.4840747,59.4811839 L53.3031343,58.9499304 C53.3392981,58.9264928 53.3744844,58.8405547 53.4106481,58.6930928 C53.4496658,58.5231217 53.4722497,58.3497983 53.4780886,58.1755114 L53.5122975,55.1237339" id="形状" fill="#385BA8"></path>
                        <polyline id="路径" fill="#385BA8" points="55.1641003 54.0485316 53.8309293 54.9137716 53.9091211 55.2379924 53.8221327 60.5036514 55.1338009 59.6520834 55.1367331 58.7038351 54.3176735 59.2350885 54.3342893 57.7048052 55.0859084 57.2165208 55.0888406 56.2672959 54.365566 56.7370255 54.3880462 55.4987363 55.1601907 54.9977565 55.1641003 54.0485316"></polyline>
                        <path d="M55.981205,56.0739353 L55.9997756,54.4528311 L56.513887,54.1198211 L56.4982486,55.7379956 L55.981205,56.0739353 M56.9859703,52.8668834 L55.4641615,53.8532178 L55.5413759,54.1784153 L55.4807772,59.4274726 L55.9489509,59.1247362 L55.9792503,57.0231602 L56.4874973,58.774148 L57.002586,58.4411381 L56.4689267,56.7047987 L56.7738749,56.509485 C56.8052892,56.4838887 56.8289747,56.450081 56.8422928,56.4118281 C56.8669808,56.3555959 56.8859719,56.2970352 56.8989818,56.2370223 C56.9168346,56.1587888 56.9298908,56.0795393 56.9380778,55.9997161 C56.9471042,55.9104976 56.9506946,55.8208134 56.9488291,55.7311597 L56.9869477,52.8659068" id="形状" fill="#385BA8"></path>
                        <polyline id="路径" fill="#385BA8" points="59.1479748 51.463554 58.6553662 51.782892 58.2331302 55.5602601 57.9066793 52.2682467 57.2977603 52.663757 57.3994097 52.9723528 57.3133986 58.2380118 57.7346572 57.9645725 57.7717983 55.0993196 58.0083287 57.4128111 58.3836495 57.1686689 58.7061909 54.394237 58.6465696 57.3727718 59.0678282 57.0993325 59.1479748 51.463554"></polyline>
                        <polyline id="路径" fill="#385BA8" points="60.0354523 50.8873784 59.472471 51.2526151 59.5496854 51.5778125 59.4881093 56.8268698 59.9308707 56.5397586 60.0354523 50.8873784"></polyline>
                        <path d="M61.8338647,49.7203787 L60.4537786,50.6158923 L60.4009991,53.9645467 L61.3373465,53.3571209 L61.3138889,54.5084955 L60.4703944,55.055374 L60.3922026,54.7213875 L60.3746094,56.2497177 L61.59147,55.4596735 C61.6224523,55.4356933 61.6461424,55.4035697 61.6598879,55.3668995 C61.684214,55.3104373 61.7035109,55.2519423 61.7175543,55.1920937 C61.7354482,55.113911 61.7481818,55.0346383 61.7556729,54.9547875 C61.7641893,54.8655338 61.7677786,54.7758792 61.7664242,54.686231 L61.8094298,52.10223 L60.8730824,52.7096558 L60.9160879,51.2604277 L61.3627588,50.967457 L61.3510301,51.6364067 L61.8182263,51.3326938 L61.8338647,49.7145193" id="路径" fill="#385BA8"></path>
                        <path d="M63.6215258,48.5611915 L62.2414397,49.4567051 L62.1886602,52.8053595 L63.1240302,52.1979337 L63.1044822,53.3493083 L62.2609877,53.8961869 L62.1827958,53.5612238 L62.1652027,55.0924837 L63.3830407,54.3024395 C63.4137004,54.2783657 63.4370514,54.2462431 63.4504811,54.2096655 C63.4752267,54.1530264 63.4945355,54.0941683 63.5081476,54.0338831 C63.5261201,53.9557157 63.5388545,53.8764377 63.5462661,53.7965769 C63.5552722,53.7076836 63.5588626,53.6183255 63.5570175,53.528997 L63.600023,50.944996 L62.6636757,51.5524217 L62.7076586,50.1031936 L63.1533521,49.810223 L63.1416233,50.4781961 L63.609797,50.1754597 L63.6254354,48.5572852" id="路径" fill="#385BA8"></path>
                        <polyline id="路径" fill="#385BA8" points="64.5090032 47.9850159 63.9450446 48.3502526 64.0232364 48.6744735 63.9606829 53.9245074 64.4044216 53.6364196 64.5090032 47.9850159"></polyline>
                        <path d="M65.3036279,52.1071128 L65.3485882,48.3873623 L65.9086373,48.0231021 L65.8411968,51.7575012 L65.3026505,52.1071128 M66.2194499,46.8746572 L64.9087591,47.7252486 L64.8403412,52.6930541 C64.8343651,52.7795403 64.8343651,52.8663352 64.8403412,52.9528214 C64.8440302,53.0188956 64.8548441,53.0843792 64.8725953,53.1481352 C64.8816489,53.1864619 64.8993695,53.2222071 64.9243974,53.252628 C64.9406055,53.2717859 64.9690362,53.2747987 64.9889057,53.259464 L66.3005739,52.4088726 L66.3689918,47.4410671 C66.3740524,47.3529228 66.3740524,47.2645612 66.3689918,47.1764169 C66.3647299,47.1132943 66.3539206,47.0507844 66.3367376,46.9898923 C66.3280783,46.9515224 66.3099323,46.9159327 66.2839581,46.886376 C66.2680328,46.8669064 66.2395695,46.8634593 66.2194499,46.8785635" id="形状" fill="#385BA8"></path>
                        <polyline id="路径" fill="#385BA8" points="68.2455961 45.5601956 67.8458403 45.8189863 67.7969704 49.3541654 67.2388761 46.2135201 66.6758948 46.5787568 66.7785216 46.8873526 66.6915331 52.1530116 67.1127917 51.8795723 67.1636164 48.4322844 67.6982532 51.499687 68.1664268 51.1959741 68.2455961 45.5601956"></polyline>
                        <polygon id="路径" fill="#6797FF" points="45.8094233 99.7558578 45.7888979 47.1002446 0.145385292 20.5707765 0.342819703 20.2328837 46.1798572 46.8756338 46.1798572 46.9879392 46.2003825 99.7558578"></polygon>
                        <polygon id="矩形" fill="#6797FF" transform="translate(68.8702, 33.7248) rotate(-30.1) translate(-68.8702, -33.7248)" points="42.4220053 33.5196837 95.3182501 33.5391604 95.3183941 33.9298714 42.4221492 33.9103947"></polygon>
                    </g>
                </g>
            </g>
        </g>
    </g>
</svg>