<?xml version="1.0" encoding="UTF-8"?>
<svg width="16px" height="16px" viewBox="0 0 16 16" version="1.1" xmlns="http://www.w3.org/2000/svg" xmlns:xlink="http://www.w3.org/1999/xlink">
    <title>15-图标/1框架/4男患者</title>
    <g id="平台icon231127" stroke="none" stroke-width="1" fill="none" fill-rule="evenodd">
        <g id="平台icon231128" transform="translate(-520, -40)">
            <g id="15-图标/1框架/4男患者" transform="translate(520, 40)">
                <rect id="_mockplus_fix_" x="0" y="0" width="16" height="16"></rect>
                <g id="patient_male" fill-rule="nonzero">
                    <path d="M8,0 C3.58125,0 0,3.5796875 0,7.9953125 C0,10.7484375 1.390625,13.175 3.509375,14.6140625 C4.68790075,15.4157117 6.06027911,15.8857634 7.4828125,15.975 C7.653125,15.9859375 7.825,15.9921875 7.9984375,15.9921875 C8.1625,15.9921875 8.325,15.9875 8.4859375,15.978125 C10.378125,15.8640625 12.1671875,15.08125 13.534375,13.76875 C13.5515625,13.7515625 13.5703125,13.734375 13.5875,13.7171875 C13.6171875,13.6890625 13.6453125,13.659375 13.675,13.6296875 C13.703125,13.6 13.73125,13.5734375 13.759375,13.54375 C15.1984375,12.05625 16.0015625,10.065625 15.9984466,7.996875 C16.0015625,3.5796875 12.4203125,0 8,0 Z" id="路径" fill="#00B3C1"></path>
                    <path d="M11.209375,13.28125 C11.209375,14.1265625 9.778125,14.8125 8.0125,14.8125 C6.246875,14.8125 4.815625,14.1265625 4.815625,13.28125 C4.815625,12.4359375 6.246875,12.171875 8.0125,12.171875 C9.778125,12.171875 11.209375,12.4359375 11.209375,13.28125 Z" id="路径" fill="#FFE1CC"></path>
                    <path d="M6.88125,9.425 L9.1015625,9.425 L9.1015625,12.675 L6.88125,12.675 L6.88125,9.425 Z M7.9640625,8.259375 C8.51875,8.5625 9.36875,6.2625 7.9140625,6.39375 C6.459375,6.525 7.9640625,8.259375 7.9640625,8.259375 Z M4.7640625,8.2578125 C4.2171875,8.5765625 3.30625,6.3 4.7640625,6.390625 C6.221875,6.48125 4.7640625,8.2578125 4.7640625,8.2578125 Z M11.15,8.2578125 C11.696875,8.5765625 12.609375,6.3 11.15,6.390625 C9.690625,6.48125 11.15,8.2578125 11.15,8.2578125 Z" id="形状" fill="#FFE1CC"></path>
                    <path d="M11.4921875,7.0703125 C11.4921875,8.990625 9.934375,11.0703125 8.0125,11.0703125 C6.090625,11.0703125 4.534375,8.990625 4.534375,7.0703125 C4.534375,5.15 6.0921875,3.5921875 8.0140625,3.5921875 C9.9359375,3.5921875 11.4921875,5.15 11.4921875,7.0703125 L11.4921875,7.0703125 Z" id="路径" fill="#FFE1CC"></path>
                    <path d="M8.6015625,3.375 C8.7484375,2.8296875 9.29375,2.5140625 9.8328125,2.553125 C10.371875,2.5921875 10.8875,2.940625 11.2703125,3.3875 C11.3921875,3.525 11.4953125,3.6796875 11.578125,3.84375 C11.84375,4.3921875 11.80625,6.28125 11.578125,6.8015625 L8.6015625,3.375 Z" id="路径" fill="#332115"></path>
                    <path d="M8.6296875,2.3234375 C8.9390625,2.56875 9.225,3.00625 9.071875,3.3984375 C8.70625,3.9296875 8.0171875,3.903125 7.44375,4.059375 C6.996875,4.1828125 6.584375,4.4421875 6.1375,4.56875 C5.6125,4.7171875 5.034375,4.665625 4.5640625,4.3609375 C4.09375,4.05625 3.7453125,3.4796875 3.7234375,2.859375 C3.9421875,2.978125 4.16875,3.1 4.4109375,3.096875 C4.7390625,3.0921875 5.0265625,2.8609375 5.3125,2.671875 C5.609375,2.4765625 5.925,2.321875 6.2390625,2.1671875 C6.48125,2.0484375 6.7265625,1.928125 6.984375,1.871875 C7.553125,1.7453125 8.1546875,1.9421875 8.6296875,2.3234375 L8.6296875,2.3234375 Z" id="路径" fill="#332115"></path>
                    <path d="M11.6875,6.14375 C11.68125,5.9609375 11.6625,5.7921875 11.6625,5.709375 C11.6546875,5.0984375 11.4640625,4.565625 11.1,4.075 C10.4671875,3.2234375 9.5125,2.703125 8.4421875,2.703125 L7.59375,2.703125 C6.6390625,2.703125 5.7296875,3.1421875 5.0890625,3.8421875 C4.7,4.2703125 4.434375,4.79375 4.3171875,5.359375 C4.2578125,5.6484375 4.234375,5.9453125 4.246875,6.240625 C4.2578125,6.4734375 4.2109375,6.9171875 4.5046875,6.75 C4.6875,6.646875 4.86875,6.2703125 5.0234375,6.109375 C5.2203125,5.9046875 5.440625,5.721875 5.678125,5.565625 C6.1546875,5.2546875 6.7046875,5.0765625 7.2734375,5.05 C8.1875,5.0078125 9.0546875,5.34375 9.840625,5.784375 C10.2875,6.034375 10.7015625,6.1734375 11.015625,6.590625 C11.09375,6.6953125 11.1734375,6.8125 11.296875,6.85625 C11.6609375,6.9875 11.7,6.53125 11.6875,6.14375 L11.6875,6.14375 Z" id="路径" fill="#332115"></path>
                    <path d="M4.2859375,5.9765625 C4.3203125,5.8859375 4.3890625,5.8109375 4.4625,5.7484375 C4.7203125,5.5296875 5.0515625,5.4203125 5.3890625,5.4421875 C5.0578125,5.7859375 4.7359375,6.1921875 4.7140625,6.66875 C4.7,6.98125 4.8171875,7.3109375 4.69375,7.5984375 C4.4640625,7.1953125 4.3171875,6.75 4.2671875,6.290625 C4.2546875,6.1859375 4.2484375,6.0765625 4.2859375,5.9765625 L4.2859375,5.9765625 Z M11.625,5.9765625 C11.590625,5.8859375 11.521875,5.8109375 11.4484375,5.7484375 C11.190625,5.5296875 10.859375,5.4203125 10.521875,5.44375 C10.853125,5.7875 11.175,6.19375 11.196875,6.6703125 C11.2109375,6.9828125 11.09375,7.3125 11.2171875,7.6 C11.4484375,7.196875 11.59375,6.7515625 11.6453125,6.2921875 C11.65625,6.1859375 11.6625,6.0765625 11.625,5.9765625 L11.625,5.9765625 Z" id="形状" fill="#332115"></path>
                    <path d="M9.1078125,10.84375 L9.1078125,11.1609375 C8.4734375,11.5078125 7.675,11.45 6.878125,11.171875 L6.878125,10.8265625 C6.9671875,10.828125 6.909375,10.83125 6.9140625,10.8328125 C7.2625,10.9890625 7.640625,11.0703125 8.0234375,11.071875 C8.3953125,11.071875 8.765625,10.99375 9.1078125,10.84375 L9.1078125,10.84375 Z" id="路径" fill="#F4C7A8"></path>
                    <path d="M12.5046875,14.6234375 C12.4703125,14.54375 12.434375,14.4671875 12.396875,14.390625 C12.365625,14.3265625 12.3328125,14.2625 12.2984375,14.2 C12.284375,14.175 12.271875,14.1515625 12.2578125,14.128125 C12.15625,13.9515625 12.04375,13.7828125 11.9171875,13.6234375 C11.871875,13.565625 11.825,13.509375 11.778125,13.4546875 L11.734375,13.4046875 C11.640625,13.3015625 11.5421875,13.203125 11.4390625,13.1109375 C11.39375,13.0703125 11.346875,13.0296875 11.3,12.990625 C11.190625,12.9015625 11.078125,12.81875 10.959375,12.7421875 C10.9140625,12.7125 10.8671875,12.6828125 10.8203125,12.6546875 C10.80625,12.646875 10.79375,12.6390625 10.7796875,12.6296875 C10.7484375,12.6125 10.71875,12.59375 10.6875,12.578125 L10.6171875,12.540625 L10.615625,12.540625 C10.5703125,12.5171875 10.5265625,12.49375 10.48125,12.471875 C10.4359375,12.45 10.3890625,12.428125 10.3421875,12.4078125 C10.33125,12.403125 10.31875,12.3984375 10.30625,12.3921875 C10.246875,12.365625 10.1859375,12.340625 10.1234375,12.3171875 L10.071875,12.2984375 C10.05,12.290625 10.0265625,12.28125 10.003125,12.2734375 L9.9984375,12.271875 C9.953125,12.25625 9.909375,12.2421875 9.8625,12.2265625 C9.821875,12.2140625 9.78125,12.2015625 9.7421875,12.1890625 C9.740625,12.21875 9.7328125,12.2484375 9.71875,12.2765625 C9.7140625,12.284375 9.7109375,12.2921875 9.7078125,12.3015625 C9.6609375,12.3953125 9.6078125,12.4859375 9.55,12.5734375 C9.5421875,12.5859375 9.5328125,12.5984375 9.525,12.6109375 C9.48125,12.6765625 9.434375,12.7390625 9.3859375,12.8015625 C9.36875,12.825 9.3484375,12.8484375 9.3296875,12.8734375 C9.3109375,12.8984375 9.2875,12.925 9.265625,12.95 C9.24375,12.975 9.2234375,13 9.2015625,13.0234375 C9.1625,13.0671875 9.121875,13.1109375 9.08125,13.1515625 L9.0796875,13.153125 C9.06875,13.1640625 9.0578125,13.1765625 9.046875,13.1875 C9.0296875,13.2046875 9.0109375,13.2234375 8.9921875,13.240625 C8.971875,13.2609375 8.95,13.28125 8.928125,13.3015625 C8.921875,13.3078125 8.9140625,13.3140625 8.9078125,13.31875 C8.8703125,13.3515625 8.8328125,13.384375 8.7953125,13.415625 C8.7625,13.4421875 8.7296875,13.4671875 8.6953125,13.490625 C8.6546875,13.5203125 8.6109375,13.5484375 8.5671875,13.575 C8.55,13.5859375 8.5328125,13.5953125 8.515625,13.6046875 C8.4875,13.6203125 8.4578125,13.6359375 8.428125,13.6515625 C8.4171875,13.65625 8.40625,13.6625 8.3953125,13.6671875 C8.2984375,13.7125 8.1953125,13.7421875 8.0890625,13.753125 C8.0765625,13.7546875 8.0640625,13.75625 8.0515625,13.75625 C8.025,13.7578125 8,13.7578125 7.9734375,13.75625 L7.9484375,13.7546875 C7.83125,13.74375 7.7171875,13.709375 7.6125,13.65625 C7.6109375,13.65625 7.6109375,13.6546875 7.609375,13.6546875 C7.5625,13.63125 7.515625,13.60625 7.4703125,13.5796875 C7.4234375,13.5515625 7.378125,13.521875 7.334375,13.4890625 C7.309375,13.4703125 7.2828125,13.4515625 7.2578125,13.43125 C7.225,13.40625 7.19375,13.3796875 7.1625,13.353125 C7.1515625,13.34375 7.140625,13.3359375 7.13125,13.325 C7.121875,13.3140625 7.1125,13.3078125 7.103125,13.2984375 C7.08125,13.278125 7.0578125,13.2578125 7.0359375,13.2359375 L6.990625,13.1921875 L6.9734375,13.175 C6.95,13.1515625 6.928125,13.128125 6.9046875,13.1046875 C6.8828125,13.08125 6.859375,13.0578125 6.8375,13.0328125 C6.8015625,12.990625 6.7640625,12.95 6.7296875,12.90625 C6.6765625,12.8421875 6.728125,12.903125 6.7265625,12.903125 L6.7265625,12.9015625 C6.7046875,12.875 6.684375,12.8484375 6.6625,12.821875 C6.659375,12.8171875 6.65625,12.8125 6.6515625,12.8078125 L6.6515625,12.80625 C6.6484375,12.8015625 6.6453125,12.7984375 6.6421875,12.79375 C6.596875,12.7375 6.5546875,12.678125 6.5140625,12.61875 C6.475,12.5625 6.4375,12.5046875 6.403125,12.4453125 C6.3734375,12.396875 6.346875,12.3484375 6.3234375,12.296875 C6.3203125,12.2875 6.315625,12.2796875 6.3125,12.271875 C6.303125,12.2515625 6.296875,12.2296875 6.2921875,12.2078125 C6.290625,12.2 6.2890625,12.1921875 6.2890625,12.184375 C6.2515625,12.1953125 6.2140625,12.20625 6.175,12.21875 L6.1671875,12.221875 C6.1265625,12.234375 6.084375,12.2484375 6.04375,12.2625 L6.0421875,12.2625 L6.034375,12.265625 C6.00625,12.275 5.978125,12.2859375 5.95,12.296875 C5.921875,12.3078125 5.890625,12.31875 5.8609375,12.3296875 C5.8046875,12.3515625 5.75,12.375 5.6953125,12.3984375 L5.6796875,12.40625 C5.6625,12.4140625 5.646875,12.4203125 5.6296875,12.428125 C5.6046875,12.4390625 5.5796875,12.4515625 5.55625,12.4625 C5.50625,12.4859375 5.45625,12.5109375 5.4078125,12.5375 C5.3703125,12.55625 5.334375,12.5765625 5.296875,12.5984375 C5.28125,12.6078125 5.265625,12.615625 5.25,12.625 C5.2390625,12.63125 5.2265625,12.6390625 5.215625,12.6453125 C5.1671875,12.6734375 5.121875,12.703125 5.0765625,12.7328125 L5.046875,12.7515625 C4.9390625,12.8234375 4.8359375,12.8984375 4.7375,12.9796875 C4.690625,13.01875 4.64375,13.0578125 4.5984375,13.0984375 C4.5734375,13.1203125 4.55,13.1421875 4.525,13.165625 C4.4328125,13.253125 4.34375,13.34375 4.259375,13.440625 L4.2515625,13.4484375 C4.20625,13.5 4.1625,13.553125 4.11875,13.609375 C3.99375,13.7671875 3.8796875,13.934375 3.778125,14.109375 C3.746875,14.1640625 3.715625,14.2203125 3.6859375,14.2765625 C3.6703125,14.30625 3.6546875,14.3375 3.6390625,14.36875 C3.596875,14.4515625 3.5578125,14.5375 3.5203125,14.6265625 C3.559375,14.653125 3.6,14.6796875 3.6390625,14.70625 L3.6890625,14.7359375 C3.7203125,14.75625 3.75,14.775 3.78125,14.79375 C3.8921875,14.8640625 4.00625,14.9296875 4.121875,14.99375 C4.165625,15.01875 4.209375,15.0421875 4.2546875,15.065625 L4.2625,15.0703125 C4.3015625,15.090625 4.340625,15.1125 4.38125,15.1328125 C4.4046875,15.1453125 4.428125,15.1578125 4.453125,15.16875 C4.503125,15.19375 4.5515625,15.21875 4.6015625,15.2421875 C4.6484375,15.2640625 4.69375,15.2859375 4.740625,15.30625 C4.8203125,15.3421875 4.9015625,15.3765625 4.9828125,15.409375 C5.0078125,15.4203125 5.0328125,15.4296875 5.0578125,15.4390625 L5.08125,15.4484375 C5.128125,15.4671875 5.1734375,15.4859375 5.2203125,15.5015625 C5.2453125,15.5109375 5.271875,15.5203125 5.296875,15.5296875 L5.3,15.53125 C5.3859375,15.5625 5.471875,15.5921875 5.559375,15.61875 C5.60625,15.634375 5.653125,15.6484375 5.6984375,15.6609375 L5.7234375,15.66875 C5.7703125,15.6828125 5.8171875,15.696875 5.8640625,15.709375 L6.0375,15.75625 C6.084375,15.76875 6.13125,15.7796875 6.1765625,15.790625 C6.2890625,15.8171875 6.4015625,15.840625 6.5171875,15.8625 C6.5640625,15.871875 6.6109375,15.8796875 6.65625,15.8875 C6.740625,15.9015625 6.825,15.915625 6.9109375,15.9265625 L6.996875,15.9375 C7.04375,15.94375 7.090625,15.9484375 7.1359375,15.953125 C7.1609375,15.95625 7.1859375,15.9578125 7.209375,15.9609375 C7.296875,15.9703125 7.3859375,15.9765625 7.475,15.9828125 C7.521875,15.9859375 7.56875,15.9890625 7.6140625,15.990625 C7.7265625,15.9953125 7.840625,15.9984375 7.9546875,16 L8.09375,16 C8.2078125,15.9984375 8.3203125,15.9953125 8.434375,15.9890625 C8.4640625,15.9875 8.4921875,15.9859375 8.521875,15.984375 L8.5734375,15.98125 C8.65625,15.975 8.740625,15.96875 8.8234375,15.959375 C8.853125,15.95625 8.8828125,15.953125 8.9109375,15.95 C8.9578125,15.9453125 9.0046875,15.9390625 9.05,15.9328125 L9.0828125,15.928125 C9.184375,15.9140625 9.2875,15.8984375 9.3890625,15.88125 C9.4359375,15.8734375 9.4828125,15.8640625 9.528125,15.85625 C9.6421875,15.834375 9.7546875,15.8109375 9.86875,15.7828125 C9.915625,15.771875 9.9625,15.7609375 10.0078125,15.7484375 L10.1296875,15.715625 C10.203125,15.6953125 10.275,15.675 10.346875,15.6515625 L10.3828125,15.640625 L10.4859375,15.6078125 C10.5546875,15.5859375 10.6234375,15.5609375 10.6921875,15.5359375 C10.7375,15.5203125 10.78125,15.503125 10.825,15.4875 L10.8515625,15.4765625 C10.8890625,15.4625 10.9265625,15.4484375 10.9640625,15.4328125 C11.078125,15.3875 11.1921875,15.340625 11.3046875,15.290625 C11.3515625,15.2703125 11.3984375,15.2484375 11.44375,15.2265625 C11.54375,15.1796875 11.6421875,15.13125 11.7390625,15.0796875 L11.7828125,15.05625 C11.8296875,15.03125 11.8765625,15.00625 11.921875,14.9796875 C12.0359375,14.915625 12.15,14.8484375 12.2625,14.778125 C12.2765625,14.7703125 12.2890625,14.7609375 12.303125,14.753125 C12.3359375,14.7328125 12.36875,14.7109375 12.4015625,14.6890625 C12.4375,14.665625 12.4734375,14.640625 12.509375,14.6171875 L12.5046875,14.6234375 L12.5046875,14.6234375 Z" id="路径" fill="#FFFDF8"></path>
                    <polygon id="路径" fill="#E5EAF9" points="8.0171875 14.2734375 8.00105847 15.9921875 7.9171875 15.990625"></polygon>
                    <path d="M7.8625,14.6625 C7.8625,14.746875 7.9296875,14.815625 8.0140625,14.815625 C8.0984375,14.815625 8.1671875,14.7484375 8.1671875,14.6640625 C8.1671875,14.5796875 8.1,14.5109375 8.015625,14.5109375 C7.975,14.5109375 7.9359375,14.5265625 7.90625,14.55625 C7.878125,14.5828125 7.8625,14.621875 7.8625,14.6625 L7.8625,14.6625 Z" id="路径" fill="#5B5E63"></path>
                    <path d="M7.871875,14.6484375 C7.871875,14.7328125 7.9390625,14.8015625 8.0234375,14.8015625 C8.1078125,14.8015625 8.1765625,14.734375 8.1765625,14.65 C8.1765625,14.565625 8.109375,14.496875 8.025,14.496875 C7.984375,14.496875 7.9453125,14.5125 7.915625,14.5421875 C7.8875,14.56875 7.871875,14.6078125 7.871875,14.6484375 L7.871875,14.6484375 Z" id="路径" fill="#F2F2F2"></path>
                    <path d="M7.8625,15.359375 C7.8625,15.44375 7.9296875,15.5125 8.0140625,15.5125 C8.0984375,15.5125 8.1671875,15.4453125 8.1671875,15.3609375 C8.1671875,15.2765625 8.1,15.2078125 8.015625,15.2078125 C7.975,15.2078125 7.9359375,15.2234375 7.90625,15.253125 C7.878125,15.28125 7.8625,15.3203125 7.8625,15.359375 L7.8625,15.359375 Z" id="路径" fill="#5B5E63"></path>
                    <path d="M7.871875,15.346875 C7.871875,15.43125 7.9390625,15.5 8.0234375,15.5 C8.1078125,15.5 8.1765625,15.4328125 8.1765625,15.3484375 C8.1765625,15.2640625 8.109375,15.1953125 8.025,15.1953125 C7.984375,15.1953125 7.9453125,15.2109375 7.915625,15.240625 C7.8875,15.2671875 7.871875,15.30625 7.871875,15.346875 L7.871875,15.346875 Z" id="路径" fill="#F2F2F2"></path>
                    <path d="M4.2484375,13.45625 L4.2484375,15.0734375 C4.2046875,15.05 4.159375,15.0265625 4.115625,15.0015625 C4.0015625,14.9375 3.8875,14.871875 3.775,14.8015625 C3.74375,14.7828125 3.7125,14.7625 3.6828125,14.74375 L3.6828125,14.284375 C3.7125,14.2265625 3.74375,14.171875 3.775,14.1171875 C3.8765625,13.9421875 3.9890625,13.775 4.115625,13.6171875 C4.159375,13.5609375 4.203125,13.5078125 4.2484375,13.45625 Z M5.8578125,12.334375 L5.8578125,15.715625 C5.809375,15.703125 5.7625,15.6890625 5.7171875,15.675 L5.6921875,15.6671875 C5.6453125,15.653125 5.5984375,15.6390625 5.553125,15.625 C5.465625,15.596875 5.3796875,15.56875 5.29375,15.5375 L5.29375,12.603125 C5.3296875,12.5828125 5.3671875,12.5625 5.4046875,12.5421875 C5.453125,12.515625 5.503125,12.490625 5.553125,12.4671875 C5.578125,12.4546875 5.6015625,12.44375 5.6265625,12.4328125 C5.64375,12.425 5.659375,12.4171875 5.6765625,12.4109375 L5.6921875,12.403125 C5.746875,12.3796875 5.803125,12.35625 5.8578125,12.334375 Z M7.4671875,13.58125 L7.4671875,15.990625 C7.378125,15.984375 7.290625,15.978125 7.2015625,15.96875 C7.1765625,15.965625 7.1515625,15.9640625 7.128125,15.9609375 C7.08125,15.95625 7.034375,15.95 6.9890625,15.9453125 L6.903125,15.934375 L6.903125,13.109375 C6.925,13.1328125 6.9484375,13.15625 6.971875,13.1796875 L6.9890625,13.196875 L7.034375,13.240625 C7.0546875,13.2609375 7.078125,13.2828125 7.1015625,13.303125 C7.1109375,13.3125 7.1203125,13.3203125 7.1296875,13.3296875 C7.1390625,13.3375 7.15,13.346875 7.1609375,13.3578125 C7.1921875,13.384375 7.2234375,13.4109375 7.25625,13.4359375 C7.28125,13.45625 7.3078125,13.475 7.3328125,13.49375 C7.3765625,13.5234375 7.4203125,13.553125 7.4671875,13.58125 L7.4671875,13.58125 Z M9.0796875,13.153125 L9.0796875,15.9375 L9.046875,15.9421875 C9,15.9484375 8.953125,15.953125 8.9078125,15.959375 C8.878125,15.9625 8.8484375,15.965625 8.8203125,15.96875 C8.7375,15.9765625 8.653125,15.984375 8.5703125,15.990625 L8.51875,15.99375 L8.51875,13.60625 C8.5359375,13.596875 8.553125,13.5859375 8.5703125,13.5765625 C8.6140625,13.55 8.65625,13.521875 8.6984375,13.4921875 C8.7328125,13.46875 8.765625,13.44375 8.7984375,13.4171875 C8.8359375,13.3859375 8.8734375,13.353125 8.9109375,13.3203125 C8.9171875,13.3140625 8.925,13.3078125 8.93125,13.303125 C8.953125,13.284375 8.975,13.2640625 8.9953125,13.2421875 C9.0125,13.225 9.03125,13.20625 9.05,13.1890625 C9.0578125,13.175 9.06875,13.1640625 9.0796875,13.153125 Z M10.6890625,12.578125 L10.6890625,15.5453125 C10.6203125,15.5703125 10.5515625,15.59375 10.4828125,15.6171875 L10.3796875,15.65 L10.34375,15.6609375 C10.271875,15.6828125 10.1984375,15.7046875 10.1265625,15.725 L10.1265625,12.31875 C10.1875,12.3421875 10.25,12.3671875 10.309375,12.39375 C10.321875,12.3984375 10.3328125,12.403125 10.3453125,12.409375 C10.39375,12.4296875 10.4390625,12.4515625 10.484375,12.4734375 C10.5296875,12.4953125 10.5734375,12.51875 10.61875,12.5421875 L10.6203125,12.5421875 C10.6421875,12.5515625 10.665625,12.5640625 10.6890625,12.578125 Z M12.2984375,14.2015625 L12.2984375,14.759375 C12.284375,14.76875 12.271875,14.7765625 12.2578125,14.784375 C12.146875,14.8546875 12.0328125,14.921875 11.9171875,14.9859375 C11.8703125,15.0125 11.825,15.0375 11.778125,15.0625 L11.734375,15.0859375 L11.734375,13.4046875 L11.778125,13.4546875 C11.8265625,13.509375 11.871875,13.565625 11.9171875,13.6234375 C12.0421875,13.7828125 12.15625,13.9515625 12.2578125,14.128125 C12.271875,14.153125 12.2859375,14.178125 12.2984375,14.2015625 L12.2984375,14.2015625 Z" id="形状" fill="#79C4FF"></path>
                    <polygon id="路径" fill="#BEC4D3" points="6.40625 12.121875 8.0140625 14.271875 6.2125 13.228125 6.4609375 12.60625 6.0375 12.25 6.40625 12.121875"></polygon>
                    <polygon id="路径" fill="#FFFFFF" points="8.015625 14.2734375 7.659375 14.040625 7.5984375 14 7.478125 13.921875 7.2078125 13.7453125 7.1828125 13.728125 7.0625 13.65 6.771875 13.459375 6.678125 13.3984375 6.6515625 13.38125 6.396875 13.2140625 6.340625 13.1765625 6.3640625 13.1 6.3828125 13.0375 6.4421875 12.8359375 6.484375 12.6921875 6.5359375 12.51875 6.4609375 12.4640625 6.4375 12.446875 6.35 12.3828125 6.1703125 12.25 6.059375 12.16875 6.01875 12.1390625 5.90625 12.05625 6.6921875 11.7546875 6.7390625 11.8453125 6.7625 11.8890625 6.8171875 11.99375 6.90625 12.1625 6.946875 12.240625 6.9609375 12.2671875 7.0640625 12.4640625 7.11875 12.56875 7.1921875 12.7078125 7.2203125 12.759375 7.275 12.8640625 7.3921875 13.0859375 7.4 13.103125 7.446875 13.190625 7.5796875 13.4421875 7.634375 13.546875 7.64375 13.565625 7.76875 13.8046875 7.8234375 13.909375 7.85 13.9609375 8.015625 14.2734375"></polygon>
                    <path d="M6.946875,12.2390625 L6.4375,12.446875 L6.35,12.3828125 L6.1703125,12.25 L6.059375,12.16875 L6.01875,12.1390625 L6.740625,11.84375 L6.7640625,11.8875 L6.81875,11.9921875 L6.90625,12.1609375 L6.946875,12.2390625 L6.946875,12.2390625 Z M7.4,13.1015625 L6.678125,13.396875 L6.6515625,13.3796875 L6.396875,13.2125 L6.340625,13.175 L6.3640625,13.0984375 L6.3828125,13.0359375 L7.19375,12.7046875 L7.221875,12.75625 L7.2765625,12.8609375 L7.39375,13.0828125 L7.4,13.1015625 L7.4,13.1015625 Z M7.8515625,13.959375 L7.659375,14.0375 L7.5984375,13.996875 L7.478125,13.91875 L7.2078125,13.7421875 L7.64375,13.5640625 L7.76875,13.803125 L7.8234375,13.9078125 L7.8515625,13.959375 Z" id="形状" fill="#79C4FF"></path>
                    <polygon id="路径" fill="#BEC4D3" points="9.6671875 12.1609375 8.0015625 14.2453125 9.7296875 13.171875 9.55625 12.5796875 9.8484375 12.2234375 9.6671875 12.1609375"></polygon>
                    <polygon id="路径" fill="#FFFFFF" points="8.0015625 14.2453125 8.3578125 14.0125 8.41875 13.971875 8.5390625 13.89375 8.809375 13.7171875 8.834375 13.7 8.9546875 13.621875 9.24375 13.4328125 9.3375 13.371875 9.3640625 13.3546875 9.61875 13.1875 9.675 13.15 9.6515625 13.0734375 9.6328125 13.0109375 9.5734375 12.809375 9.53125 12.665625 9.4796875 12.4921875 9.5546875 12.4375 9.578125 12.4203125 9.665625 12.35625 9.8453125 12.2234375 9.95625 12.1421875 9.996875 12.1125 10.109375 12.0296875 9.3234375 11.728125 9.2765625 11.81875 9.253125 11.8625 9.1984375 11.9671875 9.109375 12.1359375 9.06875 12.2140625 9.0546875 12.240625 8.9515625 12.4375 8.896875 12.5421875 8.8234375 12.68125 8.796875 12.7328125 8.7421875 12.8375 8.6265625 13.059375 8.6171875 13.0765625 8.5703125 13.1640625 8.4375 13.415625 8.3828125 13.5203125 8.3734375 13.5390625 8.2484375 13.778125 8.19375 13.8828125 8.1671875 13.934375 8.0015625 14.2453125"></polygon>
                    <path d="M9.0703125,12.2125 L9.5796875,12.4203125 L9.6671875,12.35625 L9.846875,12.2234375 L9.9578125,12.1421875 L9.9984375,12.1125 L9.278125,11.8171875 L9.2546875,11.8609375 L9.2,11.965625 L9.1109375,12.134375 L9.0703125,12.2125 L9.0703125,12.2125 Z M8.6171875,13.075 L9.3390625,13.3703125 L9.365625,13.353125 L9.6203125,13.1859375 L9.6765625,13.1484375 L9.653125,13.071875 L9.634375,13.009375 L8.8234375,12.678125 L8.796875,12.7296875 L8.7421875,12.834375 L8.6265625,13.05625 L8.6171875,13.075 Z M8.165625,13.9328125 L8.3578125,14.0109375 L8.41875,13.9703125 L8.5390625,13.8921875 L8.809375,13.715625 L8.3734375,13.5375 L8.2484375,13.7765625 L8.19375,13.88125 L8.165625,13.9328125 Z" id="形状" fill="#79C4FF"></path>
                </g>
            </g>
        </g>
    </g>
</svg>