<?xml version="1.0" encoding="UTF-8"?>
<svg width="16px" height="16px" viewBox="0 0 16 16" version="1.1" xmlns="http://www.w3.org/2000/svg" xmlns:xlink="http://www.w3.org/1999/xlink">
    <title>15-图标/1框架/4男患者</title>
    <g id="平台icon231127" stroke="none" stroke-width="1" fill="none" fill-rule="evenodd">
        <g id="平台icon231128" transform="translate(-568, -40)">
            <g id="15-图标/1框架/4男患者" transform="translate(568, 40)">
                <rect id="_mockplus_fix_" x="0" y="0" width="16" height="16"></rect>
                <rect id="_mockplus_fix_" x="0" y="0" width="16" height="16"></rect>
                <g id="patient_female" fill-rule="nonzero">
                    <path d="M8,0 C3.58124797,0 0,3.57812297 0,7.99218296 C0,12.406243 3.58124797,15.9843751 8,15.9843751 C10.0640568,15.9874909 12.0484307,15.1906164 13.5359298,13.7609297 C13.5531173,13.7437422 13.5718673,13.7265547 13.5890548,13.7093672 C13.6187423,13.6812422 13.6484297,13.6515547 13.6765547,13.6218673 C13.7046797,13.5921798 13.7328047,13.5656173 13.7609297,13.5359298 C15.1999914,12.0484307 16.0031159,10.0593693 16,7.99062046 C16,3.57812297 12.4187429,0 8,0 Z" id="路径" fill="#FFD978"></path>
                    <path d="M10.7874939,11.9828057 C10.7859314,11.9843682 10.7843689,11.9859307 10.7812439,11.9874932 C10.2124942,12.4937429 9.49843211,12.8078052 8.70468256,12.8453052 C8.65312009,12.8468677 8.60155762,12.8499927 8.54843265,12.8499927 L7.50468324,12.8499927 C7.45312077,12.8499927 7.4015583,12.8484302 7.34999583,12.8453052 C7.30780835,12.8437427 7.26718337,12.8406177 7.2249959,12.8374927 C7.11093346,12.8281177 6.99843353,12.8124927 6.88749609,12.7906177 C6.8593711,12.7859302 6.83280862,12.7812427 6.80624614,12.7749927 C6.64374623,12.7406178 6.48280882,12.6921803 6.32812141,12.6328053 C6.22499647,12.5937428 6.12499652,12.5499929 6.02655908,12.4999929 C5.75468423,12.362493 5.50312188,12.1906181 5.2765595,11.9874932 C5.274997,11.9874932 5.27187201,11.9843682 5.27030951,11.9828057 C5.22187203,11.9406182 5.17499706,11.8953057 5.12812209,11.8499933 C4.27031008,11.0031188 3.77812285,9.70624449 3.88593529,8.31249528 L4.01562272,6.62968374 L4.0531227,6.15155901 L4.08749768,5.70624676 L4.11562266,5.34218447 C4.27031008,3.36406059 5.82655919,1.87187394 7.60468318,1.87187394 L8.4499952,1.87187394 C10.2265567,1.87187394 11.7843683,3.36406059 11.9374932,5.34062197 L11.9578057,5.60468432 L12.1687431,8.31093278 C12.284368,9.77968195 11.7312433,11.1406187 10.7874939,11.9828057 L10.7874939,11.9828057 Z" id="路径" fill="#332115"></path>
                    <path d="M7.96405798,8.25468281 C8.51874516,8.55780764 9.36874468,6.25780895 7.91405801,6.38905887 C6.45780883,6.5203088 7.96405798,8.25468281 7.96405798,8.25468281 Z" id="路径" fill="#FFE1CC"></path>
                    <path d="M7.60937068,13.6453048 C7.60937068,13.8609296 7.78437058,14.0359295 7.99999546,14.034367 C8.21562033,14.034367 8.39062024,13.8593671 8.39062024,13.6437423 C8.39062024,13.4281174 8.21562033,13.25468 7.99999546,13.25468 C7.78437058,13.25468 7.60937068,13.4296799 7.60937068,13.6453048 Z" id="路径" fill="#5A7C88"></path>
                    <path d="M4.76562229,8.25312031 C4.2187476,8.57187013 3.30781062,6.29530893 4.76562229,6.38593387 C6.22343397,6.47968382 4.76562229,8.25312031 4.76562229,8.25312031 Z M11.1499937,8.25312031 C11.6968684,8.57187013 12.6093678,6.29530893 11.1499937,6.38593387 C9.6906195,6.47968382 11.1499937,8.25312031 11.1499937,8.25312031 Z" id="形状" fill="#FFE1CC"></path>
                    <path d="M11.4906185,7.06718349 C11.4906185,8.9874949 9.93280686,11.0656187 8.01093295,11.0656187 C6.08905904,11.0656187 4.53124743,8.9874949 4.53124743,7.06718349 C4.53124743,5.14687208 6.08905904,3.59062296 8.01093295,3.59062296 C9.93280686,3.59062296 11.4906185,5.14687208 11.4906185,7.06718349 L11.4906185,7.06718349 Z M11.2078061,13.2749925 C11.2078061,14.1203045 9.77655695,14.8062416 8.00937045,14.8062416 C6.24218396,14.8062416 4.81249727,14.1203045 4.81249727,13.2749925 C4.81249727,12.4296804 6.24374645,12.1656181 8.00937045,12.1656181 C9.77499445,12.1656181 11.2078061,12.4296804 11.2078061,13.2749925 Z" id="形状" fill="#FFE1CC"></path>
                    <path d="M12.5031179,14.6156167 C12.4687429,14.5359292 12.4328054,14.4593668 12.3953055,14.3843668 C12.3640555,14.3203044 12.331243,14.2562419 12.296868,14.1937419 C12.2828055,14.168742 12.2703055,14.1453045 12.256243,14.121867 C12.1546806,13.9453046 12.0421807,13.7765547 11.9171807,13.6171798 C11.8718683,13.5593673 11.8249933,13.5031173 11.7781183,13.4484299 L11.7343683,13.3984299 C11.6406184,13.295305 11.5421809,13.1968675 11.439056,13.1046801 C11.3937435,13.0640551 11.3468686,13.0234301 11.2999936,12.9843676 C11.1906186,12.8953052 11.0781187,12.8124927 10.9609313,12.7359303 C10.9156188,12.7062428 10.8687438,12.6765556 10.8218689,12.6484303 C10.8078064,12.6406178 10.7953064,12.6328053 10.7812439,12.6234303 C10.7499939,12.6062428 10.7203064,12.5874929 10.6890564,12.5718679 L10.618744,12.5343679 L10.6171815,12.5343679 C10.5734315,12.5109304 10.528119,12.4874929 10.4828065,12.4656179 C10.4374941,12.4437429 10.3906191,12.4218679 10.3437441,12.4015555 C10.3328066,12.396868 10.3203066,12.3921805 10.3078066,12.3859305 C10.2484317,12.359368 10.1874942,12.334368 10.1249943,12.3109305 L10.0734318,12.2921805 C10.0515568,12.284368 10.0265568,12.274993 10.0046818,12.2671805 L9.99999432,12.265618 C9.95468185,12.249993 9.91093187,12.2359306 9.8656194,12.2203056 C9.82499442,12.2078056 9.78436944,12.1953056 9.74530697,12.1828056 C9.74374447,12.2124931 9.73593197,12.2421805 9.72186948,12.2703055 C9.71718198,12.278118 9.71405698,12.2859305 9.71093199,12.2953055 C9.66405701,12.3890555 9.61249454,12.4796804 9.55311958,12.5671804 C9.54530708,12.5796804 9.53593209,12.5921803 9.52811959,12.6046803 C9.48436961,12.6703053 9.43749464,12.7328053 9.38905717,12.7953052 C9.37186968,12.8187427 9.35155719,12.8421802 9.3328072,12.8671802 C9.31405721,12.8906177 9.29061972,12.9187427 9.26874474,12.9437426 C9.24686975,12.9687426 9.22655726,12.9937426 9.20468227,13.0171801 C9.1656198,13.0609301 9.12499482,13.1031176 9.08436984,13.145305 L9.08280734,13.1468675 C9.07186985,13.157805 9.06093235,13.170305 9.04999486,13.1812425 C9.03280737,13.19843 9.01405738,13.21718 8.99530739,13.2343675 C8.9749949,13.25468 8.95311992,13.2749925 8.93124493,13.295305 C8.92499493,13.3015549 8.91718244,13.3078049 8.91093244,13.3124924 C8.87499496,13.3453049 8.83749498,13.3781174 8.7984325,13.4093674 C8.76562002,13.4359299 8.73280754,13.4609299 8.69843256,13.4843673 C8.65780758,13.5140548 8.61405761,13.5421798 8.57030763,13.5687423 C8.55312014,13.5796798 8.53593265,13.5890548 8.518748,13.5984298 C8.49062018,13.6140548 8.4609327,13.6296798 8.43124521,13.6453048 C8.42030772,13.6499922 8.40937022,13.6562422 8.39843273,13.6609297 C8.30155779,13.7062422 8.19843284,13.7359297 8.0921829,13.7468672 C8.07968291,13.7484297 8.06718292,13.7499922 8.05468293,13.7499922 C8.02812044,13.7515547 8.00312046,13.7515547 7.97655797,13.7499922 L7.95155798,13.7484297 C7.83437055,13.7374922 7.72030812,13.7031172 7.61562068,13.6499922 C7.61405818,13.6499922 7.61405818,13.6484297 7.61249568,13.6484297 C7.5656207,13.6249923 7.518748,13.5999923 7.47343326,13.5734298 C7.42655828,13.5453048 7.38124581,13.5156173 7.33749583,13.4828048 C7.31249585,13.4640549 7.28749586,13.4453049 7.26093338,13.4249924 C7.2281209,13.3999924 7.19687091,13.3734299 7.16562093,13.3468674 C7.15468344,13.3374924 7.14374594,13.3296799 7.13437095,13.3187424 C7.12343345,13.3093674 7.11562096,13.3015549 7.10624596,13.29218 C7.08437098,13.2718675 7.05937099,13.2499925 7.0390585,13.22968 L6.99530853,13.18593 L6.97812104,13.1687425 C6.95468355,13.145305 6.93280856,13.1218675 6.91093358,13.0968676 C6.88905859,13.0718676 6.8656211,13.0499926 6.84374611,13.0249926 C6.80780863,12.9828051 6.77030866,12.9421802 6.73437118,12.8984302 C6.73280868,12.8968677 6.73280868,12.8953052 6.73124618,12.8953052 L6.73124618,12.8937427 C6.70937119,12.8671802 6.6890587,12.8406177 6.66718371,12.8140552 C6.66405872,12.8093677 6.66093372,12.8046802 6.65624622,12.7999927 L6.65468372,12.7984302 C6.65155872,12.7937427 6.64843372,12.7906177 6.64530873,12.7859302 C6.59999625,12.7296803 6.55780878,12.6703053 6.5171838,12.6109303 C6.47812132,12.5546804 6.44062134,12.4968679 6.40624636,12.4374929 C6.37655888,12.3890555 6.34999639,12.340618 6.32655891,12.2890555 C6.32343391,12.2796805 6.31874641,12.271868 6.31562141,12.2640555 C6.30624642,12.243743 6.29999642,12.2218681 6.29530893,12.1999931 C6.29374643,12.1921806 6.29218393,12.1843681 6.29218393,12.1765556 C6.25468395,12.1874931 6.21718397,12.1984306 6.17812149,12.2124931 L6.170309,12.2156181 C6.12968402,12.2281181 6.08749654,12.2421805 6.04687157,12.256243 L6.04530907,12.256243 L6.03124658,12.2640555 C6.00312159,12.2734305 5.97499661,12.284368 5.94687162,12.2953055 C5.91874664,12.306243 5.88749666,12.3171805 5.85780917,12.328118 C5.80155921,12.349993 5.74687174,12.3734305 5.69218427,12.396868 L5.67655928,12.4046805 C5.65937179,12.412493 5.6437468,12.4187429 5.6265593,12.4265554 C5.60155932,12.4374929 5.57655933,12.4499929 5.55312185,12.4609304 C5.50312188,12.4843679 5.4531219,12.5093679 5.40468443,12.5359304 C5.36718445,12.5546804 5.33124697,12.5749929 5.29374699,12.5968678 C5.278122,12.6062428 5.26249701,12.6140553 5.24687202,12.6234303 C5.23593453,12.6296803 5.22343453,12.6374928 5.21249704,12.6437428 C5.16562207,12.6718678 5.11874709,12.7015553 5.07343462,12.7312428 L5.04374714,12.7499928 C4.9359347,12.8218677 4.83280976,12.8968677 4.73437231,12.9781176 C4.68749734,13.0171801 4.64062236,13.0562426 4.59530989,13.0968676 C4.5703099,13.1187426 4.54687242,13.1406175 4.52187243,13.164055 C4.42968498,13.251555 4.34062254,13.3421799 4.25624758,13.4390549 L4.24843509,13.4468674 C4.20312261,13.4984298 4.15937264,13.5515548 4.11562266,13.6078048 C3.99062273,13.7671797 3.8765603,13.9343671 3.77656036,14.109367 C3.74531037,14.1640545 3.71406039,14.2203044 3.68437291,14.2765544 C3.66874792,14.3062419 3.65312293,14.3374919 3.63749793,14.3687418 C3.59531046,14.4515543 3.55624798,14.5374917 3.518748,14.6249917 C3.55781048,14.6515542 3.59843546,14.6781167 3.63749793,14.7046792 L3.68437291,14.7359291 C3.71562289,14.7562416 3.74531037,14.7749916 3.77656036,14.7937416 C3.88749779,14.8640541 4.00156023,14.929679 4.11562266,14.9937415 C4.15937264,15.0187415 4.20312261,15.042179 4.24843509,15.0656164 L4.25624758,15.0703039 C4.29531006,15.0906164 4.33437254,15.1124914 4.37499752,15.1328039 C4.398435,15.1453039 4.42187249,15.1578039 4.44687247,15.1687414 C4.49687245,15.1937414 4.54530992,15.2187414 4.59530989,15.2421788 C4.64218486,15.2640538 4.68749734,15.2859288 4.73437231,15.3062413 C4.81405977,15.3421788 4.89530972,15.3765538 4.97655967,15.4093662 C5.00155966,15.4203037 5.02655965,15.4296787 5.05155963,15.4390537 L5.07499712,15.4484287 C5.12187209,15.4671787 5.16718457,15.4859287 5.21405954,15.5015537 C5.23905953,15.5109287 5.26562201,15.5203037 5.290622,15.5296787 L5.29374699,15.5312412 C5.37968445,15.5624912 5.4656219,15.5921786 5.55312185,15.6187411 C5.59999682,15.6343661 5.64530929,15.6484286 5.69218427,15.6609286 L5.71718425,15.6687411 C5.76405923,15.6828036 5.8109342,15.6968661 5.85780917,15.7093661 L6.03124658,15.7562411 C6.07812155,15.768741 6.12499652,15.7796785 6.170309,15.790616 C6.28280893,15.8171785 6.39530887,15.840616 6.5093713,15.862491 C6.55624628,15.871866 6.60312125,15.8796785 6.64843372,15.887491 C6.73280868,15.9015535 6.81718363,15.915616 6.90312108,15.9265535 L6.98905853,15.9374909 C7.0359335,15.9437409 7.08280848,15.9484284 7.12812095,15.9531159 C7.15312094,15.9562409 7.17812092,15.9578034 7.20155841,15.9609284 C7.28905836,15.9703034 7.37812081,15.9765534 7.46718326,15.9828034 C7.51405823,15.9859284 7.56093321,15.9890534 7.60624568,15.9906159 C7.71874562,15.9953034 7.83280805,15.9984284 7.94530799,15.9999909 L8.08437041,15.9999909 C8.19843284,15.9984284 8.31093278,15.9953034 8.42343272,15.9890534 C8.4531202,15.9874909 8.48280768,15.9859284 8.51093267,15.9843659 L8.56249514,15.9812409 C8.64530759,15.9749909 8.72968254,15.9687409 8.812495,15.9593659 C8.84218248,15.9562409 8.87186996,15.9531159 8.89999495,15.9499909 C8.94686992,15.9453034 8.99374489,15.9390534 9.03905737,15.9328035 L9.07186985,15.928116 C9.17343229,15.9140535 9.27655723,15.8984285 9.37811967,15.881241 C9.42499465,15.8734285 9.47186962,15.8640535 9.5171821,15.856241 C9.63124453,15.834366 9.74374447,15.8109285 9.8562444,15.7828035 C9.90311938,15.771866 9.94999435,15.7609286 9.99530682,15.7484286 L10.1171818,15.7156161 C10.1906192,15.6953036 10.2624942,15.6749911 10.3343691,15.6515536 L10.3703066,15.6406161 L10.4734316,15.6078036 C10.5421815,15.5859286 10.6109315,15.5609287 10.6796814,15.5359287 C10.7234314,15.5203037 10.7687439,15.5031162 10.8124939,15.4874912 L10.8390563,15.4765537 C10.8765563,15.4624912 10.9140563,15.4484287 10.9515563,15.4328037 C11.0656187,15.3874913 11.1781187,15.3406163 11.2906186,15.2906163 C11.3374936,15.2703038 11.3843685,15.2484288 11.429681,15.2265539 C11.529681,15.1796789 11.6281184,15.1312414 11.7249933,15.0796789 L11.7687433,15.0562415 C11.8156183,15.0312415 11.8624933,15.0062415 11.9078057,14.979679 C12.0218682,14.9156165 12.1359306,14.8484291 12.246868,14.7781166 C12.2609305,14.7703041 12.2734305,14.7609291 12.287493,14.7531166 C12.3203055,14.7328041 12.353118,14.7109291 12.3859305,14.6890542 C12.4218679,14.6656167 12.4578054,14.6406167 12.4937429,14.6171792 L12.5031179,14.6156167 L12.5031179,14.6156167 Z" id="路径" fill="#FFFDF8"></path>
                    <polygon id="路径" fill="#FFE1CC" points="6.88124609 9.42030715 9.10155733 9.42030715 9.10155733 12.6687428 6.88124609 12.6687428"></polygon>
                    <path d="M4.28593507,5.97499661 C4.32031005,5.88437166 4.38906001,5.8093717 4.46249747,5.74687174 C4.72030982,5.52812186 5.05155963,5.41874692 5.38905944,5.44062191 C5.05780963,5.78437172 4.73593481,6.19062148 4.71405982,6.66718371 C4.69999733,6.97968354 4.81718476,7.30937085 4.69374733,7.59687069 C4.46405997,7.19374592 4.31874755,6.74999617 4.26718508,6.28905893 C4.25468508,6.18280899 4.24843509,6.07343405 4.28593507,5.97499661 L4.28593507,5.97499661 Z M11.6249934,5.97499661 C11.5906184,5.88437166 11.5218685,5.8093717 11.448431,5.74687174 C11.1906186,5.52812186 10.8593688,5.41874692 10.5234315,5.44218441 C10.8546813,5.78593421 11.1765562,6.19218398 11.1984311,6.66874621 C11.2124936,6.98124604 11.0953062,7.31093335 11.2187436,7.59843319 C11.4499935,7.19530841 11.5953059,6.74999617 11.6468684,6.29062143 C11.6562434,6.18280899 11.6624934,6.07343405 11.6249934,5.97499661 Z" id="形状" fill="#332115"></path>
                    <path d="M9.10311983,10.8390563 L9.10311983,11.1562437 C8.46874519,11.501556 7.67812064,11.445306 6.88124609,11.1671812 L6.88124609,10.8218689 C6.89843358,10.8281189 6.90468358,10.8312438 6.90937108,10.8312438 C7.25937088,10.9874938 7.63749566,11.0640562 8.02030795,11.0656187 C8.39374523,11.0656187 8.76249502,10.9890563 9.10311983,10.8390563 Z" id="路径" fill="#F4C7A8"></path>
                    <polygon id="路径" fill="#E5EAF9" points="8.0187455 14.2656169 8.00399141 15.9843659 7.9187455 15.9828034"></polygon>
                    <path d="M7.86249554,14.6546792 C7.86249554,14.7390541 7.9312455,14.8078041 8.01562045,14.8078041 C8.0999954,14.8078041 8.16874536,14.7390541 8.16874536,14.6546792 C8.16874536,14.5703042 8.0999954,14.5015543 8.01562045,14.5015543 C7.97499547,14.5015543 7.93593299,14.5171793 7.90780801,14.5468667 C7.87812053,14.5749917 7.86249554,14.6140542 7.86249554,14.6546792 L7.86249554,14.6546792 Z" id="路径" fill="#5B5E63"></path>
                    <path d="M7.87187053,14.6406167 C7.87187053,14.7249916 7.94062049,14.7937416 8.02499544,14.7937416 C8.1093704,14.7937416 8.17812036,14.7249916 8.17812036,14.6406167 C8.17812036,14.5562417 8.1093704,14.4874918 8.02499544,14.4874918 C7.98437047,14.4874918 7.94530799,14.5031168 7.917183,14.5328042 C7.88749552,14.5609292 7.87187053,14.5999917 7.87187053,14.6406167 L7.87187053,14.6406167 Z" id="路径" fill="#F2F2F2"></path>
                    <path d="M7.86249554,15.3515538 C7.86249554,15.4359287 7.9312455,15.5046787 8.01562045,15.5046787 C8.0999954,15.5046787 8.16874536,15.4359287 8.16874536,15.3515538 C8.16874536,15.2671788 8.0999954,15.1984289 8.01562045,15.1984289 C7.97499547,15.1984289 7.93593299,15.2140539 7.90780801,15.2437413 C7.87812053,15.2734288 7.86249554,15.3124913 7.86249554,15.3515538 L7.86249554,15.3515538 Z" id="路径" fill="#5B5E63"></path>
                    <path d="M7.87187053,15.3390538 C7.87187053,15.4234287 7.94062049,15.4921787 8.02499544,15.4921787 C8.1093704,15.4921787 8.17812036,15.4234287 8.17812036,15.3390538 C8.17812036,15.2546788 8.1093704,15.1859289 8.02499544,15.1859289 C7.98437047,15.1859289 7.94530799,15.2015539 7.917183,15.2312414 C7.88749552,15.2593663 7.87187053,15.2984288 7.87187053,15.3390538 L7.87187053,15.3390538 Z" id="路径" fill="#F2F2F2"></path>
                    <path d="M4.24843509,13.4484299 L4.24843509,15.0656164 C4.20468511,15.042179 4.15937264,15.0187415 4.11562266,14.9937415 C4.00156023,14.929679 3.88749779,14.8640541 3.77656036,14.7937416 C3.74531037,14.7749916 3.71406039,14.7546791 3.68437291,14.7359291 L3.68437291,14.2765544 C3.71406039,14.2187419 3.74531037,14.1640545 3.77656036,14.109367 C3.8781228,13.9343671 3.99062273,13.7671797 4.11562266,13.6078048 C4.15937264,13.5546798 4.20312261,13.5015548 4.24843509,13.4484299 L4.24843509,13.4484299 Z M5.85780917,12.328118 L5.85780917,15.7078036 C5.8109342,15.6953036 5.76249673,15.6812411 5.71718425,15.6671786 L5.69218427,15.6593661 C5.64530929,15.6453036 5.59843432,15.6312411 5.55312185,15.6171786 C5.4671844,15.5890536 5.37968445,15.5609287 5.29374699,15.5296787 L5.29374699,12.5968678 C5.32968447,12.5765554 5.36718445,12.5562429 5.40468443,12.5359304 C5.4531219,12.5093679 5.50312188,12.4843679 5.55312185,12.4609304 C5.57812183,12.4484304 5.60155932,12.4374929 5.6265593,12.4265554 C5.6437468,12.4187429 5.65937179,12.4109305 5.67655928,12.4046805 L5.69218427,12.396868 C5.74687174,12.3734305 5.8031217,12.349993 5.85780917,12.328118 L5.85780917,12.328118 Z M7.46718326,13.5749923 L7.46718326,15.9828034 C7.37812081,15.9765534 7.29062086,15.9703034 7.20155841,15.9609284 C7.17655842,15.9578034 7.15155844,15.9562409 7.12812095,15.9531159 C7.08124598,15.9484284 7.03437101,15.9421784 6.98905853,15.9374909 L6.90312108,15.9265535 L6.90312108,13.1015551 C6.92499607,13.1249925 6.94843355,13.14843 6.97030854,13.17343 L6.98749603,13.1906175 L7.03124601,13.2343675 C7.0515585,13.25468 7.07499598,13.276555 7.09843347,13.2968674 C7.10780846,13.3062424 7.11718346,13.3140549 7.12655845,13.3234299 C7.13593345,13.3312424 7.14687094,13.3406174 7.15780844,13.3515549 C7.18905842,13.3781174 7.2203084,13.4046799 7.25312088,13.4296799 C7.27812087,13.4499924 7.30312085,13.4687424 7.32968334,13.4874923 C7.37655831,13.5156173 7.42187079,13.5468673 7.46718326,13.5749923 L7.46718326,13.5749923 Z M9.07811985,13.1468675 L9.07811985,15.928116 L9.04530736,15.9328035 C8.99843239,15.9390534 8.95155742,15.9437409 8.90624494,15.9499909 C8.87655746,15.9531159 8.84686998,15.9562409 8.81874499,15.9593659 C8.73593254,15.9671784 8.65155759,15.9749909 8.56874513,15.9812409 L8.51718266,15.9843659 L8.51718266,13.5999923 C8.53437015,13.5906173 8.55155764,13.5796798 8.56874513,13.5703048 C8.61249511,13.5437423 8.65468259,13.5156173 8.69687006,13.4859298 C8.73124504,13.4624924 8.76405752,13.4374924 8.79687,13.4109299 C8.83436998,13.3796799 8.87186996,13.3468674 8.90936994,13.3140549 C8.91561994,13.3078049 8.92343243,13.3015549 8.92968243,13.2968674 C8.95155742,13.276555 8.9734324,13.257805 8.99374489,13.23593 C9.01093238,13.2187425 9.02968237,13.1999925 9.04843236,13.182805 C9.05624486,13.1687425 9.06718235,13.1593675 9.07811985,13.1468675 L9.07811985,13.1468675 Z M10.6874939,12.5718679 L10.6874939,15.5390537 C10.618744,15.5640537 10.549994,15.5874911 10.481244,15.6109286 L10.3781191,15.6437411 L10.3421816,15.6546786 C10.2703067,15.6765536 10.1968692,15.6984286 10.1249943,15.7187411 L10.1249943,12.312493 C10.1859317,12.3359305 10.2468692,12.3609305 10.3078066,12.387493 C10.3203066,12.3921805 10.3312441,12.396868 10.3437441,12.403118 C10.3906191,12.4234304 10.4374941,12.4453054 10.4828065,12.4671804 C10.528119,12.4890554 10.5734315,12.5124929 10.6171815,12.5359304 L10.618744,12.5359304 C10.640619,12.5453054 10.6656189,12.5578054 10.6874939,12.5718679 L10.6874939,12.5718679 Z M12.296868,14.1937419 L12.296868,14.7515541 C12.2828055,14.7609291 12.2703055,14.7687416 12.256243,14.7765541 C12.1453056,14.8468666 12.0312432,14.914054 11.9171807,14.9781165 C11.8703058,15.004679 11.8249933,15.029679 11.7781183,15.054679 L11.7343683,15.0781164 L11.7343683,13.3984299 L11.7781183,13.4484299 C11.8249933,13.5031173 11.8718683,13.5593673 11.9171807,13.6171798 C12.0421807,13.7765547 12.1562431,13.9453046 12.256243,14.121867 C12.2703055,14.1453045 12.284368,14.1703045 12.296868,14.1937419 Z" id="形状" fill="#79C4FF"></path>
                    <path d="M8.32343277,2.49843608 C8.6328076,2.74374844 8.91874806,3.18124819 8.76562002,3.57343547 C8.39999523,4.10468517 7.71093312,4.07812268 7.13749595,4.2343726 C6.6890587,4.35781003 6.27812143,4.61718488 5.82968419,4.74374731 C5.30468449,4.89218472 4.72655982,4.84062225 4.25781008,4.53593492 C3.78906035,4.2312476 3.43906055,3.65468542 3.41874806,3.03437328 C3.63749793,3.15312321 3.86406031,3.27499814 4.10624767,3.27187314 C4.43437248,3.26718564 4.72187232,3.03593578 5.00780966,2.84843588 C5.30468449,2.65312349 5.62030931,2.49843608 5.93437163,2.34374867 C6.17655899,2.22499874 6.42187135,2.1046863 6.67968371,2.04843634 C7.24843338,1.92343641 7.84843304,2.1203113 8.32655777,2.49843608 L8.32343277,2.49843608 L8.32343277,2.49843608 Z" id="路径" fill="#332115"></path>
                    <path d="M11.9437432,5.4593719 C11.7890558,3.48281052 10.2328067,1.99687387 8.4562452,1.99687387 L7.60937068,1.99687387 C5.83280919,1.99687387 4.27499757,3.48281052 4.12031016,5.4593719 L4.09218518,5.8187467 C4.20312261,5.84687168 4.31718505,5.87499666 4.43124748,5.89999665 C4.49062245,5.91405914 4.55155992,5.92655913 4.61405988,5.94062163 C4.85468474,5.9921841 5.0984346,6.03749657 5.34218447,6.07655905 C5.59999682,6.11718403 5.85780917,6.15312151 6.11718403,6.18124649 C6.22812146,6.19218398 6.32968391,6.11874653 6.35312139,6.00937159 L6.58905876,4.9328097 C6.58905876,4.9328097 6.6968712,5.49530938 6.94687106,5.95937162 C7.046871,6.14530901 7.23905839,6.26249644 7.44999577,6.26874644 C7.5796832,6.27187144 7.71093312,6.27345414 7.84218305,6.27345414 C8.81718249,6.27499644 9.79061944,6.18593399 10.7484314,6.00624659 C10.9718688,5.96405911 11.1921811,5.91718414 11.407806,5.86562167 L11.435931,5.85780917 C11.6140559,5.8156217 11.7906183,5.76874672 11.9656182,5.71874675 L11.9437432,5.4593719 L11.9437432,5.4593719 Z" id="路径" fill="#332115"></path>
                    <polygon id="路径" fill="#BEC4D3" points="6.40624636 12.1156181 8.01405795 14.2656169 6.21249647 13.2218675 6.46093383 12.5999928 6.03749657 12.2453055 6.40624636 12.1156181"></polygon>
                    <polygon id="路径" fill="#FFFFFF" points="8.01562045 14.2656169 7.65937065 14.0328045 7.59843319 13.9921796 7.47812075 13.9140546 7.20780841 13.7374922 7.18280842 13.7203047 7.06249599 13.6421798 6.77187115 13.4515549 6.67812121 13.3906174 6.65155872 13.3734299 6.39687137 13.2062425 6.3406214 13.1687425 6.36405889 13.0921801 6.38280888 13.0296801 6.44218384 12.8281177 6.48437132 12.6843678 6.53593379 12.5109304 6.46093383 12.4562429 6.43749634 12.4390554 6.34999639 12.374993 6.170309 12.2421805 6.05937156 12.1609306 6.01874658 12.1312431 5.90624665 12.0484307 6.6921837 11.7468683 6.73905867 11.8374933 6.76249616 11.8812433 6.81718363 11.9859307 6.90624608 12.1546806 6.94687106 12.2328056 6.96093355 12.259368 7.06405849 12.4562429 7.11874596 12.5609304 7.19218342 12.6999928 7.2187459 12.7515553 7.27343337 12.8562427 7.3906208 13.0781176 7.3984333 13.0953051 7.44530827 13.182805 7.5781207 13.4343674 7.63280817 13.5390548 7.64218316 13.5578048 7.76718309 13.7968672 7.82187056 13.9015546 7.84843304 13.9531171 8.01562045 14.2656169"></polygon>
                    <path d="M6.94687106,12.2328056 L6.43749634,12.4406179 L6.34999639,12.3765555 L6.170309,12.243743 L6.05937156,12.1624931 L6.01874658,12.1328056 L6.74062117,11.8374933 L6.76405866,11.8812433 L6.81874613,11.9859307 L6.90624608,12.1546806 L6.94687106,12.2328056 L6.94687106,12.2328056 Z M7.3999958,13.0953051 L6.67812121,13.3906174 L6.65155872,13.3734299 L6.39687137,13.2062425 L6.3406214,13.1687425 L6.36405889,13.0921801 L6.38280888,13.0296801 L7.19374592,12.6984303 L7.2203084,12.7499928 L7.27499587,12.8546802 L7.3921833,13.0765551 L7.3999958,13.0953051 L7.3999958,13.0953051 Z M7.85155804,13.9531171 L7.65937065,14.031242 L7.59843319,13.9906171 L7.47812075,13.9124921 L7.20780841,13.7359297 L7.64374566,13.5578048 L7.76874559,13.7968672 L7.82343306,13.9015546 L7.85155804,13.9531171 Z" id="形状" fill="#79C4FF"></path>
                    <polygon id="路径" fill="#BEC4D3" points="9.66561951 12.1546806 8.00155796 14.2374919 9.72811948 13.1656175 9.55468207 12.5734304 9.84686941 12.2171806 9.66561951 12.1546806"></polygon>
                    <polygon id="路径" fill="#FFFFFF" points="8.00155796 14.2374919 8.35780775 14.0046795 8.41874522 13.9640546 8.53905765 13.8859296 8.80937 13.7093672 8.83436998 13.6921797 8.95468242 13.6140548 9.24374475 13.4249924 9.3374947 13.3640549 9.36405718 13.3468674 9.61874454 13.17968 9.67499451 13.14218 9.65155702 13.0656176 9.63280703 13.0031176 9.57343206 12.8015552 9.53124459 12.6578053 9.47968212 12.4843679 9.55468207 12.4296804 9.57811956 12.412493 9.66561951 12.3484305 9.84530691 12.2156181 9.95624435 12.1343681 9.99686932 12.1046806 10.1093693 12.0218682 9.32186971 11.7203058 9.27499473 11.8109308 9.25155725 11.8546808 9.19686978 11.9593682 9.10780733 12.1281181 9.06561985 12.2062431 9.05155736 12.2328056 8.94843242 12.4296804 8.89374495 12.5343679 8.82030749 12.6734303 8.79374501 12.7249928 8.73905754 12.8296802 8.6234326 13.0515551 8.61405761 13.0687426 8.56718264 13.1562425 8.43437021 13.4078049 8.37968274 13.5124923 8.37030775 13.5312423 8.24530782 13.7703047 8.19062035 13.8749921 8.16405786 13.9265546 8.00155796 14.2374919"></polygon>
                    <path d="M9.06874485,12.2062431 L9.57811956,12.4140555 L9.66561951,12.349993 L9.84530691,12.2171806 L9.95624435,12.1359306 L9.99686932,12.1062431 L9.27655723,11.8109308 L9.25311975,11.8546808 L9.19843228,11.9593682 L9.10936983,12.1281181 L9.06874485,12.2062431 L9.06874485,12.2062431 Z M8.61562011,13.0687426 L9.3374947,13.3640549 L9.36405718,13.3468674 L9.61874454,13.17968 L9.67499451,13.14218 L9.65155702,13.0656176 L9.63280703,13.0031176 L8.82186999,12.6718678 L8.79530751,12.7234303 L8.74062004,12.8281177 L8.6249951,13.0499926 L8.61562011,13.0687426 Z M8.16562036,13.9265546 L8.35780775,14.0046795 L8.41874522,13.9640546 L8.53905765,13.8859296 L8.80937,13.7093672 L8.37343275,13.5312423 L8.24843282,13.7703047 L8.19374535,13.8749921 L8.16562036,13.9265546 Z" id="形状" fill="#79C4FF"></path>
                </g>
            </g>
        </g>
    </g>
</svg>