<?xml version="1.0" encoding="UTF-8"?>
<svg width="120px" height="120px" viewBox="0 0 120 120" version="1.1" xmlns="http://www.w3.org/2000/svg" xmlns:xlink="http://www.w3.org/1999/xlink">
    <title>15-图标/2提示/3D提示/灰敬请期待</title>
    <defs>
        <linearGradient x1="50.0192771%" y1="99.9976444%" x2="50.0192771%" y2="-0.00178435115%" id="linearGradient-1">
            <stop stop-color="#FFFFFF" stop-opacity="0.1" offset="0%"></stop>
            <stop stop-color="#FBFDFF" stop-opacity="0.19" offset="13%"></stop>
            <stop stop-color="#F1F7FF" stop-opacity="0.43" offset="41%"></stop>
            <stop stop-color="#DBDBDB" stop-opacity="0.82" offset="81%"></stop>
            <stop stop-color="#DBDBDB" offset="100%"></stop>
        </linearGradient>
        <linearGradient x1="50.0000502%" y1="99.7625274%" x2="50.0000502%" y2="-0.0112151171%" id="linearGradient-2">
            <stop stop-color="#FFFFFF" offset="0%"></stop>
            <stop stop-color="#E8EAF6" offset="21%"></stop>
            <stop stop-color="#D6DAEE" offset="46%"></stop>
            <stop stop-color="#CBCFEA" offset="72%"></stop>
            <stop stop-color="#C7CCE8" offset="100%"></stop>
        </linearGradient>
        <linearGradient x1="50%" y1="100.222626%" x2="50%" y2="-0.0580017622%" id="linearGradient-3">
            <stop stop-color="#FFFFFF" stop-opacity="0.1" offset="0%"></stop>
            <stop stop-color="#FBFDFF" stop-opacity="0.19" offset="13%"></stop>
            <stop stop-color="#F1F7FF" stop-opacity="0.43" offset="41%"></stop>
            <stop stop-color="#DBDBDB" stop-opacity="0.82" offset="81%"></stop>
            <stop stop-color="#DBDBDB" offset="100%"></stop>
        </linearGradient>
        <linearGradient x1="49.9999268%" y1="100%" x2="49.9999268%" y2="-0.10276895%" id="linearGradient-4">
            <stop stop-color="#FFFFFF" stop-opacity="0.1" offset="0%"></stop>
            <stop stop-color="#FBFDFF" stop-opacity="0.19" offset="13%"></stop>
            <stop stop-color="#F1F7FF" stop-opacity="0.43" offset="41%"></stop>
            <stop stop-color="#DBDBDB" stop-opacity="0.82" offset="81%"></stop>
            <stop stop-color="#DBDBDB" offset="100%"></stop>
        </linearGradient>
    </defs>
    <g id="平台icon231127" stroke="none" stroke-width="1" fill="none" fill-rule="evenodd">
        <g id="平台icon231128" transform="translate(-520, -548)">
            <g id="15-图标/2提示/3D提示/灰敬请期待" transform="translate(520, 548)">
                <rect id="_mockplus_fix_" x="0" y="0" width="120" height="120"></rect>
                <g id="敬请期待">
                    <rect id="矩形备份-5" fill-opacity="0" fill="#EFE9DE" x="0" y="0" width="120" height="120"></rect>
                    <g id="编组-2" opacity="0.4077" transform="translate(0, 67.0962)" fill="url(#linearGradient-1)" fill-rule="nonzero">
                        <ellipse id="椭圆形" cx="60" cy="23.9518959" rx="60" ry="23.9518959"></ellipse>
                    </g>
                    <g id="编组" transform="translate(40.4319, 21.2879)" fill-rule="nonzero">
                        <path d="M6.46170992,72.2747329 C13.8111075,76.4800276 25.7538786,76.4800276 33.1645212,72.2137866 C40.5751637,67.9475456 40.5751637,61.0606137 33.2257661,56.855319 C25.8763686,52.6500243 13.9335975,52.6500243 6.5229549,56.9162653 C-0.887687671,61.1825063 -0.948932651,68.0694382 6.46170992,72.2747329 Z" id="路径" fill="#C8C8C8"></path>
                        <rect id="矩形" fill="#C8C8C8" x="0.949661727" y="61.9138619" width="37.7881526" height="2.6816372"></rect>
                        <ellipse id="椭圆形" fill="#DDDDDD" transform="translate(19.814, 61.9151) rotate(-0.31) translate(-19.814, -61.9151)" cx="19.8139957" cy="61.915148" rx="18.8637272" ry="10.848602"></ellipse>
                        <path d="M30.2860071,9.98761432 C24.3452441,6.69651412 14.8522722,6.75746042 9.09524406,10.2313995 C3.33821594,13.7053386 3.4607059,19.1295593 9.34022398,22.4816058 C15.280987,25.772706 24.7739589,25.7117597 30.530987,22.2378206 C36.2880151,18.7638815 36.2267702,13.3396608 30.2860071,9.98761432 Z" id="路径" fill="url(#linearGradient-2)"></path>
                        <path d="M19.8131155,69.7759346 C17.9757661,69.7759346 16.1384167,69.5930957 14.4235573,69.1664716 C12.5862079,68.7398475 10.9938384,68.1303845 9.5852039,67.3380826 C8.48279426,66.7286196 7.56411956,65.997264 6.8291798,65.2049621 L6.76793482,65.1440158 C6.64544486,65.0221232 6.58419988,64.9002306 6.46170992,64.8392843 C6.40046494,64.778338 6.27797498,64.5954991 6.27797498,64.5954991 C6.21673,64.5345528 6.15548502,64.4736065 6.15548502,64.4126602 C6.09424004,64.3517139 6.09424004,64.2907676 6.03299506,64.2298213 C6.03299506,64.2298213 5.9105051,64.0469824 5.9105051,63.9860361 C5.84926012,63.9250898 5.84926012,63.8641435 5.78801514,63.7422509 L5.66552518,63.559412 C5.6042802,63.4984657 5.6042802,63.3765731 5.54303522,63.3156268 L5.48179024,63.1327879 C5.42054526,63.0718416 5.42054526,62.949949 5.35930028,62.8890027 L5.35930028,62.8890027 L5.35930028,62.8890027 C5.35930028,62.8280564 5.2980553,62.8280564 5.2980553,62.7671101 C5.2980553,62.7061638 5.23681032,62.6452175 5.23681032,62.5233249 L5.23681032,62.4623786 L5.23681032,62.4014323 C5.23681032,62.340486 5.17556534,62.2795397 5.17556534,62.2185934 C5.17556534,62.1576471 5.17556534,62.0967008 5.11432036,62.0357545 C5.11432036,61.9138619 5.05307538,61.8529156 5.05307538,61.731023 L5.05307538,61.6091304 C5.05307538,61.4872378 4.9918304,61.3653452 4.9918304,61.2434526 L4.9918304,61.1825063 C4.9918304,61.0606137 4.9918304,60.9387211 4.9918304,60.7558822 L4.9918304,60.5730433 C4.9918304,60.512097 4.9918304,60.4511507 4.9918304,60.3902044 C4.9918304,59.6588488 5.05307538,58.9884395 5.11432036,58.3180302 C5.17556534,57.7085672 5.2980553,56.9162653 5.42054526,56.245856 C5.48179024,55.8801782 5.6042802,55.4535541 5.66552518,55.1488226 C6.09424004,53.3813799 6.76793482,51.6139372 7.56411956,50.0293334 C7.93158944,49.2979778 8.3603043,48.6275685 8.78901916,47.9571592 C9.09524406,47.4695888 9.5852039,46.8601258 9.8914288,46.4335017 C10.0139188,46.2506628 10.1976537,46.0678239 10.3813886,45.884985 C10.5038786,45.7630924 10.6263686,45.6411998 10.6876135,45.5193072 C10.9325935,45.275522 11.2388184,44.9098442 11.6062882,44.6051127 C11.9737581,44.2394349 12.5249629,43.8128108 12.9536778,43.447133 C13.2599027,43.2033478 13.6886176,42.83767 14.0560874,42.6548311 C14.1785774,42.5938848 14.3623123,42.4110459 14.5460473,42.2891533 C14.7297822,42.1063144 14.8522722,41.9234755 14.9747621,41.7406366 C14.9747621,41.7406366 15.0360071,41.5577977 15.1584971,41.3749588 L15.219742,41.3140125 L15.280987,41.0702273 L15.280987,41.0702273 C15.280987,41.009281 15.280987,40.8873884 15.403477,40.7045495 L15.464722,40.5217106 C15.5259669,40.399818 15.5259669,40.2169791 15.5259669,40.0341402 C15.5872119,39.790355 15.6484569,39.5465698 15.6484569,39.3027846 L15.6484569,39.3027846 L15.6484569,39.180892 C15.6484569,38.9371068 15.6484569,38.6933216 15.5872119,38.3885901 C15.5872119,38.2666975 15.5259669,38.0838586 15.5259669,37.961966 L15.5259669,37.9010197 L15.5259669,37.9010197 C15.464722,37.6572345 15.403477,37.5353419 15.403477,37.4743956 L15.342232,37.2915567 C15.342232,37.2306104 15.342232,37.2306104 15.280987,37.1696641 L15.219742,37.0477715 C15.1584971,36.9868252 15.1584971,36.9258789 15.0972521,36.8649326 C15.0360071,36.8039863 15.0360071,36.74304 14.9747621,36.6820937 C14.8522722,36.4383085 14.6685372,36.2554696 14.5460473,36.133577 L14.5460473,36.133577 C14.3623123,36.0116844 14.1785774,35.8897918 13.9948424,35.7678992 C13.6886176,35.5850603 13.2599027,35.2193825 12.9536778,34.9755973 C12.5249629,34.6099195 11.9737581,34.1832954 11.6062882,33.8176176 C11.3000633,33.5738324 10.9325935,33.2081546 10.6876135,32.9034231 C10.5651236,32.7815305 10.5038786,32.6596379 10.3813886,32.5377453 C10.1976537,32.3549064 10.0751637,32.1720675 9.8914288,31.9892286 C9.52395892,31.5016582 9.09524406,30.8921952 8.72777418,30.4046248 C8.29905932,29.7342155 7.87034446,29.0638062 7.50287458,28.3324506 C6.64544486,26.7478468 6.03299506,25.0413504 5.54303522,23.2739077 C5.42054526,22.7863373 5.35930028,22.4206595 5.2980553,22.115928 C5.17556534,21.506465 5.05307538,20.7141631 4.9918304,20.0437538 C4.93058542,19.2514519 4.86934044,18.45915 4.86934044,17.6059018 C4.86934044,15.2289961 6.40046494,12.973983 9.21773402,11.3284329 C12.0350031,9.62193652 15.8321918,8.70774202 19.8743605,8.70774202 C23.7327943,8.70774202 27.3462481,9.56099022 30.1022722,11.0846477 L30.4084971,11.2674866 L30.4084971,11.2674866 C33.2257661,12.9130367 34.7568906,15.1071035 34.7568906,17.4840092 L34.7568906,17.849687 C34.7568906,18.0934722 34.7568906,18.3982037 34.7568906,18.6419889 C34.7568906,19.0076667 34.6956457,19.4952371 34.6956457,19.8609149 C34.6344007,20.4094316 34.5119107,21.2626798 34.3894208,21.9330891 C34.3281758,22.2987669 34.2056858,22.725391 34.1444408,23.0910688 C34.0831959,23.3958003 33.9607059,23.8833707 33.8382159,24.2490485 C33.654481,24.8585115 33.4095011,25.6508134 33.1645212,26.1993301 C32.8582963,26.9306857 32.5520714,27.6620413 32.1846015,28.3324506 C31.8783766,28.9419136 31.5109067,29.6123229 31.0821918,30.2217859 C30.714722,30.7093563 30.2860071,31.3797656 29.9185372,31.8063897 C29.6735573,32.1111212 29.4285774,32.4158527 29.1835975,32.7205842 L29.0611075,32.9034231 C28.8161276,33.1472083 28.5711477,33.3909935 28.3874127,33.6347787 C27.9586979,34.0614028 27.468738,34.5489732 27.0400232,34.8537047 C26.7950433,35.0974899 26.4275734,35.3412751 26.1213485,35.5850603 C25.9376135,35.7069529 25.7538786,35.8288455 25.5701437,35.9507381 C25.4476537,36.0116844 25.3251637,36.133577 25.2026738,36.1945233 C25.0189388,36.3773622 24.8964489,36.4992548 24.8352039,36.6820937 C24.7127139,36.9258789 24.590224,37.1696641 24.467734,37.4134493 C24.406489,37.5353419 24.3452441,37.7181808 24.3452441,37.8400734 C24.2227541,38.3276438 24.1615091,38.8152142 24.1615091,39.2418383 L24.1615091,39.2418383 L24.1615091,39.3027846 C24.1615091,39.4246772 24.1615091,39.5465698 24.1002641,39.6684624 L24.0390192,39.9731939 C24.0390192,39.9731939 24.1002641,40.0341402 24.1002641,40.1560328 C24.1615091,40.2169791 24.1615091,40.399818 24.1615091,40.4607643 L24.2227541,40.5826569 L24.2227541,40.6436032 L24.2227541,40.7045495 L24.2227541,40.7654958 L24.2227541,40.8264421 L24.2839991,41.1311736 L24.2839991,41.1311736 C24.2839991,41.1921199 24.2839991,41.1921199 24.3452441,41.2530662 C24.406489,41.3749588 24.467734,41.4968514 24.528979,41.6796903 L24.651469,41.8625292 L24.651469,41.8625292 L24.651469,41.9234755 C24.7127139,41.9844218 24.7127139,42.0453681 24.7739589,42.0453681 L24.7739589,42.0453681 C24.8964489,42.1063144 24.8964489,42.2891533 25.0189388,42.3500996 L25.0189388,42.3500996 C25.0801838,42.3500996 25.0801838,42.4110459 25.1414288,42.4110459 C25.4476537,42.5938848 25.7538786,42.7767237 25.9376135,42.9595626 L26.1213485,43.0814552 C26.3663284,43.2642941 26.6725533,43.5080793 26.9175332,43.6909182 C27.3462481,44.056596 27.8974529,44.5441664 28.2649228,44.9098442 C28.5711477,45.2145757 28.8773726,45.5193072 29.1223525,45.7630924 C29.1835975,45.8240387 29.3060874,45.9459313 29.3673324,46.0068776 C29.5510673,46.2506628 29.7348023,46.4335017 29.9185372,46.6772869 C30.2247621,47.103911 30.714722,47.713374 31.0209469,48.2009444 C31.0209469,48.2618907 31.5721517,48.9932463 32.1233565,50.0902797 C32.4908264,50.760689 32.7970513,51.4920446 33.1032762,52.2234002 C33.3482561,52.7719169 33.593236,53.5642188 33.776971,54.1736818 C33.8382159,54.417467 33.9607059,54.7831448 34.0219509,55.0878763 L34.0831959,55.3316615 C34.1444408,55.6973393 34.2669308,56.1239634 34.3281758,56.4896412 C34.4506657,57.0991042 34.5731557,57.9523524 34.6344007,58.5618154 C34.6344007,58.7446543 34.6956457,58.9884395 34.6956457,59.2322247 C34.8181356,59.7197951 34.9406256,60.2073655 34.9406256,60.6949359 L34.9406256,60.7558822 C34.9406256,60.8168285 34.9406256,60.9387211 34.9406256,60.9996674 L34.9406256,60.9996674 L34.9406256,60.9996674 C34.9406256,61.1825063 34.9406256,61.3043989 34.8793806,61.4262915 L34.8793806,61.5481841 C34.8793806,61.6700767 34.8181356,61.731023 34.8181356,61.8529156 L34.8181356,61.9748082 C34.8181356,62.0357545 34.7568906,62.1576471 34.7568906,62.2185934 C34.7568906,62.2795397 34.6956457,62.340486 34.6956457,62.4014323 C34.6956457,62.4623786 34.6344007,62.5233249 34.6344007,62.5842712 L34.6344007,62.6452175 L34.6344007,62.7061638 C34.6344007,62.7671101 34.5731557,62.8280564 34.5731557,62.8890027 C34.5731557,62.949949 34.5119107,63.0108953 34.5119107,63.0718416 L34.5119107,63.1327879 L34.5119107,63.1937342 C34.5119107,63.2546805 34.4506657,63.3156268 34.4506657,63.3765731 C34.4506657,63.4375194 34.3281758,63.559412 34.3281758,63.559412 C34.2669308,63.6813046 34.2669308,63.7422509 34.2056858,63.8031972 C34.2056858,63.8641435 34.1444408,63.9250898 34.1444408,63.9250898 L34.1444408,63.9250898 L34.1444408,63.9860361 C34.0831959,64.0469824 34.0831959,64.1079287 34.0219509,64.168875 C34.0219509,64.2298213 33.776971,64.5345528 33.715726,64.5954991 L33.593236,64.7173917 C33.531991,64.8392843 33.4707461,64.9002306 33.4095011,64.9611769 L33.3482561,65.0221232 C33.2257661,65.1440158 33.1645212,65.2659084 33.0420312,65.3268547 L32.6745613,65.5096936 C32.5520714,65.6315862 32.4295814,65.7534788 32.3070914,65.8144251 L32.2458465,65.8144251 C31.6946416,66.3019955 31.0821918,66.7286196 30.4084971,67.1552437 C29.9185372,67.4599752 29.3673324,67.7037604 28.6936376,68.0084919 C26.1825935,69.1664716 23.0590995,69.7759346 19.8131155,69.7759346 L19.8131155,69.7759346 Z" id="路径" fill="#F4F4F4"></path>
                        <path d="M31.3884167,26.6869005 C31.0209469,27.4182561 30.653477,28.0277191 30.4084971,28.3933969 C31.0209469,27.7839339 31.4496617,26.991632 31.6333967,26.1383838 C31.5721517,26.382169 31.4496617,26.5650079 31.3884167,26.6869005 Z" id="路径" fill="#F4F4F4"></path>
                        <path d="M8.11532438,26.6869005 C8.29905932,27.1744709 8.54403924,27.6620413 8.91150912,28.0277191 C8.72777418,27.7229876 8.42154928,27.2354172 8.17656936,26.7478468 L8.11532438,26.6869005 Z" id="路径" fill="#F4F4F4"></path>
                        <path d="M11.4225533,55.5145004 C12.9536778,54.6003059 17.7920312,51.4310983 18.9556858,48.9323 C20.1805854,46.3725554 19.8743605,38.9980531 18.7107059,37.4743956 C17.5470513,35.9507381 12.9536778,33.2081546 11.5450433,31.4407119 C10.1364087,29.6732692 8.91150912,28.0277191 8.91150912,28.0277191 L26.3050834,28.0277191 C26.5500633,27.9667728 30.592232,28.0886654 30.592232,28.0886654 C29.3060874,29.9170544 27.7749629,31.6235508 26.1213485,33.2081546 C23.7940392,35.2193825 21.1605051,36.6820937 20.9155252,37.5962882 C20.6705453,38.5104827 20.1193404,46.5553943 21.2829951,49.2370315 C22.3241597,51.6748835 26.4275734,54.5393596 27.8974529,55.3316615 C32.4908264,57.8914061 32.6133163,62.0967008 28.1424328,64.778338 C23.6715493,67.4599752 16.3221517,67.5209215 11.7287782,64.9611769 C7.1354047,62.4014323 6.95166976,58.1961376 11.4225533,55.5145004 Z" id="路径" fill="#C8C8C8"></path>
                        <path d="M8.11532438,26.6869005 L8.11532438,26.6869005 C8.48279426,27.2963635 8.72777418,27.7229876 8.91150912,28.0277191 C9.64644888,28.8809673 10.5038786,29.6123229 11.4837983,30.1608396 C16.1996617,32.7815305 23.7940392,32.7205842 28.3261678,29.9780007 C29.0611075,29.5513766 29.7348023,29.0028599 30.3472521,28.3933969 C30.592232,28.0277191 30.8984569,27.4182561 31.3271718,26.6869005 C31.4496617,26.5040616 31.5109067,26.3212227 31.5721517,26.1383838 C31.8171316,24.9804041 31.6333967,23.8224244 31.0209469,22.7863373 C30.2860071,21.6893039 29.3060874,20.8360557 28.1424328,20.2265927 C23.4265694,17.6059018 15.8321918,17.6668481 11.3000633,20.4094316 C10.1976537,21.0188946 9.278979,21.8721428 8.60528422,22.9082299 C7.80909948,24.0662096 7.68660952,25.4679745 8.11532438,26.6869005 Z" id="路径" fill="#F4F4F4"></path>
                        <path d="M5.78801514,20.8360557 C11.1163284,23.8833707 18.7107059,24.8585115 25.4476537,23.7005318 C28.3874127,23.2129614 31.2046818,22.2378206 33.776971,20.8360557 C34.2056858,20.5922705 34.6344007,20.3484853 35.0631155,20.0437538 C38.6765694,17.5449555 40.1464489,14.3148016 39.4727541,11.2674866 C38.9215493,8.89058092 37.0841999,6.57462152 33.8994609,4.74623252 C26.1825935,0.297152618 13.6273726,0.358098918 5.84926012,4.80717882 C2.5420312,6.69651412 0.643436827,9.13436612 0.153476988,11.5722181 C-0.520217791,14.802372 1.31713161,18.2763111 5.78801514,20.8360557 Z" id="路径" fill="#E0E0E0"></path>
                        <path d="M5.72677016,19.4342908 C13.4436376,23.8833707 25.9988585,23.8224244 33.776971,19.3733445 C41.5550834,14.9242646 41.5550834,7.67165492 33.8382159,3.28352132 C26.1213485,-1.10461228 13.5661276,-1.10461228 5.84926012,3.34446762 C-1.86760735,7.79354752 -1.99009731,14.9852109 5.72677016,19.4342908 Z" id="路径" fill="#D3D3D3"></path>
                    </g>
                    <path d="M20.313253,34.3837577 C19.8232932,31.8240131 17.5572289,29.9956241 14.9849398,29.9956241 C13.5763052,29.9956241 12.2289157,30.4831945 11.248996,31.4583353 C10.6977912,31.2145501 10.0240964,31.0317112 9.41164659,31.0317112 C7.39056225,30.9707649 5.67570281,32.3725298 5.18574297,34.3228114 C3.65461847,34.6884892 2.55220884,36.0293078 2.49096386,37.6139116 C2.55220884,39.5641932 4.14457831,41.0878507 6.04317269,41.0269044 L19.3945783,41.0269044 C21.2931727,41.0878507 22.8855422,39.5641932 22.9467871,37.6139116 C22.9467871,36.0293078 21.8443775,34.6884892 20.313253,34.3837577 Z" id="路径" fill="url(#linearGradient-3)" fill-rule="nonzero"></path>
                    <path d="M114.753012,11.6507878 C113.528112,9.15198946 110.955823,7.56738566 108.138554,7.50643936 C106.546185,7.50643936 105.076305,7.99400976 103.790161,8.96915056 C102.320281,6.10467446 99.0742972,4.52007066 95.8283133,5.12953366 C92.6435743,5.73899666 90.1937751,8.42063386 89.9487952,11.6507878 C86.5190763,12.7478212 84.375502,16.160814 84.9267068,19.6956994 C85.4779116,23.2305848 88.5401606,25.8512757 92.1536145,25.912222 L112.548193,25.912222 C116.161647,25.912222 119.285141,23.2915311 119.836345,19.6956994 C120.38755,16.0998677 118.243976,12.6868749 114.753012,11.6507878 L114.753012,11.6507878 Z" id="路径" fill="url(#linearGradient-4)" fill-rule="nonzero"></path>
                    <g id="树" opacity="0.8" transform="translate(10.4276, 66.4415)">
                        <g id="树1">
                            <line x1="5.04730687" y1="12.18926" x2="5.04730687" y2="18.2229437" id="直线" stroke="#DDDDDD" stroke-width="2.44120482" stroke-linecap="round"></line>
                            <path d="M4.86357193,0 C1.18887314,3.8396169 -0.403496338,6.8259856 0.0864635011,8.8372135 C0.82140326,11.8845285 3.88365226,12.3112579 4.61859202,12.3112579 C5.35353177,12.3112579 9.76317033,12.3720989 9.76317033,8.3496431 C9.76317033,5.6680059 8.10955587,2.8644761 4.86357193,0 Z" id="路径-15" fill="#EAEAEA" fill-rule="nonzero"></path>
                        </g>
                        <g id="树2" transform="translate(82.9458, 2.255)">
                            <line x1="3.43483168" y1="8.532482" x2="3.43483168" y2="12.798723" id="路径" stroke="#DDDDDD" stroke-width="1.83090361" stroke-linecap="round"></line>
                            <path d="M3.43483168,0 C0.862542519,2.7425835 -0.3011121,4.8147577 0.0663577797,6.2774689 C0.617562599,8.4105894 2.69989192,8.7762672 3.25109674,8.7762672 C3.80230155,8.7762672 6.80330557,8.8372135 6.80330557,5.9727374 C6.86455055,4.0224558 5.70089593,2.0112279 3.43483168,0 Z" id="路径" fill="#EAEAEA" fill-rule="nonzero"></path>
                        </g>
                        <g id="树3" transform="translate(94.3629, 10.3609)">
                            <line x1="2.4293842" y1="6.2774689" x2="2.4293842" y2="9.5685691" id="路径" stroke="#DDDDDD" stroke-width="1.83090361" stroke-linecap="round"></line>
                            <path d="M2.61311914,0 C0.653279786,2.0112279 -0.204149933,3.5958317 0.0408299866,4.6319188 C0.469544846,6.2165226 2.06191432,6.4603078 2.49062918,6.4603078 C2.91934404,6.4603078 5.24665328,6.4603078 5.24665328,4.3881336 C5.1854083,2.9863687 4.32797858,1.5236575 2.61311914,0 Z" id="路径" fill="#EAEAEA" fill-rule="nonzero"></path>
                        </g>
                    </g>
                </g>
            </g>
        </g>
    </g>
</svg>