<?xml version="1.0" encoding="UTF-8"?>
<svg width="16px" height="16px" viewBox="0 0 16 16" version="1.1" xmlns="http://www.w3.org/2000/svg" xmlns:xlink="http://www.w3.org/1999/xlink">
    <title>15-图标/1框架/4女工作人员</title>
    <g id="平台icon231127" stroke="none" stroke-width="1" fill="none" fill-rule="evenodd">
        <g id="平台icon231128" transform="translate(-424, -40)">
            <g id="15-图标/1框架/4女工作人员" transform="translate(424, 40)">
                <rect id="_mockplus_fix_" x="0" y="0" width="16" height="16"></rect>
                <g id="user_female" fill-rule="nonzero">
                    <path d="M8,0 C3.58125,0 0,3.58125 0,8 C0,10.753125 1.390625,13.1828125 3.509375,14.6203125 L3.5109375,14.621875 L3.58125,14.66875 C3.6828125,14.7359375 3.7859375,14.8015625 3.890625,14.865625 C3.909375,14.8765625 3.928125,14.8890625 3.9484375,14.9 C3.9546875,14.903125 3.9609375,14.9078125 3.9671875,14.9109375 C3.9890625,14.925 4.0125,14.9375 4.0359375,14.95 L4.0625,14.9640625 C4.084375,14.9765625 4.1046875,14.9875 4.1265625,15 C4.134375,15.0046875 4.1421875,15.009375 4.15,15.0125 C4.1703125,15.0234375 4.1890625,15.034375 4.209375,15.0453125 C4.2296875,15.05625 4.2484375,15.0671875 4.26875,15.0765625 L4.275,15.0796875 C4.3,15.0921875 4.325,15.10625 4.35,15.11875 C4.359375,15.1234375 4.3703125,15.1296875 4.3796875,15.134375 L4.4359375,15.1625 C4.4625,15.1765625 4.4890625,15.1890625 4.515625,15.2015625 C4.53125,15.209375 4.5484375,15.2171875 4.5640625,15.225 C4.58125,15.2328125 4.6015625,15.2421875 4.6203125,15.2515625 C4.678125,15.2796875 4.7375,15.30625 4.796875,15.33125 C4.8265625,15.34375 4.85625,15.3578125 4.8859375,15.3703125 L4.95625,15.4 C4.9640625,15.403125 4.9734375,15.4078125 4.9828125,15.4109375 L5.03125,15.4296875 C5.0484375,15.4359375 5.065625,15.44375 5.0828125,15.45 C5.1046875,15.4578125 5.1265625,15.4671875 5.1484375,15.475 C5.1546875,15.478125 5.1609375,15.4796875 5.165625,15.48125 L5.2171875,15.5015625 C5.2375,15.509375 5.2578125,15.5171875 5.278125,15.5234375 L5.325,15.540625 C5.334375,15.54375 5.3453125,15.5484375 5.3546875,15.5515625 L5.425,15.575 L5.4546875,15.584375 C5.4765625,15.5921875 5.5,15.6 5.5234375,15.60625 C5.5515625,15.615625 5.5796875,15.6234375 5.6078125,15.6328125 C5.6359375,15.6421875 5.6640625,15.65 5.69375,15.659375 C5.7640625,15.68125 5.834375,15.7 5.90625,15.7203125 C5.9375,15.7296875 5.9703125,15.7375 6.0015625,15.7453125 C6.0296875,15.753125 6.05625,15.759375 6.084375,15.765625 L6.103125,15.7703125 C6.125,15.775 6.1453125,15.78125 6.1671875,15.7859375 L6.2015625,15.79375 L6.2875,15.8125 L6.2921875,15.8140625 C6.3234375,15.8203125 6.35625,15.828125 6.3875,15.834375 C6.4203125,15.840625 6.45,15.846875 6.48125,15.8515625 L6.4953125,15.8546875 L6.559375,15.8671875 C6.584375,15.871875 6.609375,15.8765625 6.634375,15.8796875 L6.6515625,15.8828125 L6.6640625,15.884375 L6.7015625,15.890625 L6.7625,15.9 C6.775,15.9015625 6.7890625,15.9046875 6.8015625,15.90625 C6.8453125,15.9125 6.8890625,15.91875 6.9328125,15.9234375 L6.9640625,15.928125 L7.0140625,15.934375 C7.0375,15.9375 7.0625,15.940625 7.0859375,15.94375 C7.109375,15.946875 7.1328125,15.9484375 7.15625,15.9515625 C7.1890625,15.9546875 7.2203125,15.9578125 7.253125,15.9609375 C7.4984375,15.984375 7.746875,15.9953125 7.9984375,15.9953125 C8.2140625,15.9953125 8.4296875,15.9875 8.640625,15.9703125 C8.6734375,15.9671875 8.7078125,15.965625 8.740625,15.9625 L8.828125,15.9546875 L8.85625,15.9515625 C8.8796875,15.9484375 8.9046875,15.946875 8.928125,15.94375 L8.9484375,15.940625 C8.971875,15.9375 8.9953125,15.934375 9.0203125,15.93125 L9.0578125,15.9265625 L9.1109375,15.91875 C9.1265625,15.9171875 9.14375,15.9140625 9.159375,15.9125 L9.203125,15.90625 C9.2234375,15.903125 9.2421875,15.9 9.2625,15.896875 L9.2953125,15.8921875 C9.3140625,15.8890625 9.334375,15.8859375 9.353125,15.8828125 L9.4203125,15.871875 L9.4265625,15.8703125 L9.4296875,15.8703125 C9.4625,15.8640625 9.496875,15.8578125 9.5296875,15.8515625 C9.5984375,15.8390625 9.6671875,15.8234375 9.7359375,15.809375 C9.7703125,15.8015625 9.8046875,15.79375 9.8375,15.7859375 C9.8703125,15.778125 9.9046875,15.7703125 9.9390625,15.7609375 L10.0375,15.7359375 L10.040625,15.734375 C10.075,15.725 10.1078125,15.7171875 10.140625,15.7078125 C10.2078125,15.6890625 10.275,15.6703125 10.340625,15.65 C10.3734375,15.6390625 10.40625,15.6296875 10.4390625,15.61875 L10.5375,15.5859375 C10.6015625,15.5640625 10.665625,15.5421875 10.7296875,15.51875 L10.734375,15.5171875 C10.765625,15.50625 10.7984375,15.49375 10.8296875,15.48125 C10.8609375,15.46875 10.8921875,15.4578125 10.9234375,15.4453125 L10.928125,15.44375 C10.959375,15.43125 10.990625,15.41875 11.0234375,15.40625 C11.0546875,15.39375 11.0859375,15.3796875 11.11875,15.3671875 L11.1203125,15.365625 C11.1828125,15.3390625 11.2453125,15.3125 11.30625,15.284375 C11.36875,15.25625 11.4296875,15.228125 11.49375,15.2 C11.5234375,15.1859375 11.553125,15.1703125 11.5828125,15.15625 L11.5890625,15.153125 C11.6140625,15.140625 11.6390625,15.128125 11.6640625,15.1140625 L11.6859375,15.103125 L11.765625,15.0609375 C11.7953125,15.0453125 11.825,15.028125 11.8546875,15.0125 C11.884375,14.9953125 11.9140625,14.9796875 11.94375,14.9625 C11.9734375,14.9453125 12.003125,14.928125 12.03125,14.9109375 C12.178125,14.825 12.321875,14.734375 12.4625,14.640625 C12.84375,14.384375 13.2015625,14.0953125 13.534375,13.778125 C13.5515625,13.7609375 13.5703125,13.74375 13.5875,13.7265625 C13.6171875,13.6984375 13.6453125,13.66875 13.675,13.6390625 C13.703125,13.609375 13.73125,13.5828125 13.759375,13.553125 C15.1984375,12.0640625 16.0015625,10.0734375 15.9984466,8.003125 C16.0015625,3.58125 12.4203125,0 8,0 Z" id="路径" fill="#FFD978"></path>
                    <path d="M10.7890625,11.9953125 C10.7875,11.996875 10.7859375,11.9984375 10.7828125,12 C10.2140625,12.50625 9.5,12.821875 8.70625,12.859375 C8.6546875,12.8609375 8.603125,12.8640625 8.55,12.8640625 L7.50625,12.8640625 C7.4546875,12.8640625 7.403125,12.8625 7.3515625,12.859375 C7.309375,12.8578125 7.26875,12.8546875 7.2265625,12.8515625 C7.1125,12.8421875 7,12.8265625 6.8890625,12.8046875 C6.8625,12.8 6.834375,12.7953125 6.8078125,12.7890625 C6.6453125,12.7546875 6.484375,12.70625 6.3296875,12.646875 C6.2265625,12.6078125 6.1265625,12.5640625 6.028125,12.5140625 C5.75625,12.3765625 5.5046875,12.2046875 5.278125,12.0015625 C5.2765625,12.0015625 5.2734375,11.9984375 5.271875,11.996875 C5.2234375,11.953125 5.1765625,11.909375 5.1296875,11.8640625 C4.2703125,11.015625 3.778125,9.71875 3.8859375,8.3234375 L4.0171875,6.6390625 L4.0546875,6.159375 L4.0890625,5.7140625 L4.1171875,5.35 C4.2703125,3.3703125 5.8265625,1.8765625 7.6046875,1.8765625 L8.45,1.8765625 C10.2265625,1.8765625 11.784375,3.3703125 11.9375,5.3484375 L11.9578125,5.6125 L12.16875,8.321875 C12.2859375,9.790625 11.7328125,11.153125 10.7890625,11.9953125 Z" id="路径" fill="#332115"></path>
                    <polygon id="路径" fill="#FFE1CC" points="6.88125 9.4296875 9.1015625 9.4296875 9.1015625 12.68125 6.88125 12.68125"></polygon>
                    <path d="M10.0484375,12.68125 L9.4296875,15.8734375 C9.11875,15.9296875 8.8046875,15.9671875 8.4890625,15.9859375 C8.328125,15.9953125 8.165625,16 8.0015625,16 C7.828125,16 7.65625,15.99375 7.4859375,15.9828125 C7.2078125,15.965625 6.9296875,15.9328125 6.653125,15.8859375 L5.840625,12.6984375 L6.64375,12.2046875 L6.875,12.0625 L7.9625,12.68125 L9.1109375,12.0625 L9.3265625,12.2046875 L10.0484375,12.68125 Z" id="路径" fill="#FFFFFF"></path>
                    <path d="M7.9640625,8.2640625 C8.51875,8.5671875 9.36875,6.265625 7.9140625,6.396875 C6.459375,6.528125 7.9640625,8.2640625 7.9640625,8.2640625 Z M4.765625,8.2625 C4.21875,8.58125 3.3078125,6.303125 4.765625,6.39375 C6.2234375,6.4859375 4.765625,8.2625 4.765625,8.2625 Z M11.1515625,8.2625 C11.6984375,8.58125 12.6109375,6.303125 11.1515625,6.39375 C9.6921875,6.484375 11.1515625,8.2625 11.1515625,8.2625 Z" id="形状" fill="#FFE1CC"></path>
                    <path d="M11.4921875,7.0734375 C11.4921875,8.9953125 9.934375,11.075 8.0125,11.075 C6.090625,11.075 4.53125,8.996875 4.53125,7.0734375 C4.53125,5.15 6.0890625,3.59375 8.0109375,3.59375 C9.9328125,3.59375 11.4921875,5.1515625 11.4921875,7.0734375 Z" id="路径" fill="#FFE1CC"></path>
                    <path d="M4.2859375,5.9796875 C4.3203125,5.8890625 4.3890625,5.8140625 4.4625,5.75 C4.7203125,5.53125 5.0515625,5.421875 5.3890625,5.44375 C5.0578125,5.7875 4.7359375,6.19375 4.7140625,6.671875 C4.7,6.984375 4.8171875,7.3140625 4.69375,7.6015625 C4.4640625,7.1984375 4.31875,6.753125 4.2671875,6.2921875 C4.2546875,6.1890625 4.2484375,6.0796875 4.2859375,5.9796875 Z M11.625,5.9796875 C11.590625,5.8890625 11.521875,5.8140625 11.4484375,5.75 C11.190625,5.53125 10.859375,5.421875 10.521875,5.44375 C10.853125,5.7875 11.175,6.19375 11.196875,6.671875 C11.2109375,6.984375 11.09375,7.3140625 11.2171875,7.6015625 C11.4484375,7.1984375 11.59375,6.753125 11.6453125,6.2921875 C11.6578125,6.1890625 11.6640625,6.0796875 11.625,5.9796875 L11.625,5.9796875 Z" id="形状" fill="#332115"></path>
                    <path d="M9.103125,10.8484375 L9.103125,11.1671875 C8.46875,11.5140625 7.6796875,11.4609375 6.8828125,11.18125 L6.8828125,10.8328125 C6.8953125,10.8390625 6.903125,10.84375 6.909375,10.846875 C7.259375,11.003125 7.6375,11.0765625 8.0203125,11.078125 C8.3921875,11.0765625 8.7625,11 9.103125,10.8484375 L9.103125,10.8484375 Z" id="路径" fill="#F4C7A8"></path>
                    <path d="M8.325,2.5015625 C8.634375,2.746875 8.9203125,3.184375 8.7671875,3.578125 C8.4015625,4.1109375 7.7125,4.0828125 7.1390625,4.2390625 C6.690625,4.3625 6.2796875,4.6234375 5.83125,4.7484375 C5.30625,4.896875 4.728125,4.8453125 4.2578125,4.540625 C3.7875,4.234375 3.4390625,3.6609375 3.4171875,3.0390625 C3.6359375,3.1578125 3.8640625,3.2796875 4.1046875,3.2765625 C4.4328125,3.271875 4.7203125,3.0390625 5.00625,2.8515625 C5.303125,2.6546875 5.61875,2.5015625 5.9328125,2.346875 C6.175,2.228125 6.4203125,2.1078125 6.678125,2.0515625 C7.2453125,1.9265625 7.8453125,2.1234375 8.325,2.5015625 L8.325,2.5015625 Z" id="路径" fill="#332115"></path>
                    <path d="M11.9453125,5.4640625 C11.790625,3.484375 10.234375,1.996875 8.45625,1.996875 L7.609375,1.996875 C5.8328125,1.996875 4.275,3.484375 4.1203125,5.4625 L4.0921875,5.821875 C4.203125,5.85 4.3171875,5.878125 4.43125,5.903125 C4.490625,5.9171875 4.5515625,5.9296875 4.6140625,5.94375 C4.8546875,5.9953125 5.0984375,6.040625 5.3421875,6.0796875 C5.6,6.1203125 5.8578125,6.15625 6.1171875,6.184375 C6.228125,6.1953125 6.3296875,6.121875 6.353125,6.0125 L6.5890625,4.9359375 C6.5890625,4.9359375 6.696875,5.4984375 6.946875,5.9640625 C7.046875,6.15 7.2390625,6.2671875 7.45,6.2734375 C7.5796875,6.2765625 7.7109375,6.2781452 7.8421875,6.2781452 C8.8171875,6.2796875 9.790625,6.190625 10.7484375,6.0109375 C10.971875,5.96875 11.1921875,5.921875 11.409375,5.86875 L11.4375,5.8609375 C11.615625,5.81875 11.7921875,5.771875 11.9671875,5.721875 L11.9453125,5.4640625 Z" id="路径" fill="#332115"></path>
                    <path d="M12.4671875,14.6375 C12.3265625,14.7328125 12.1828125,14.8234375 12.0359375,14.9078125 C12.00625,14.925 11.9765625,14.9421875 11.9484375,14.959375 C11.91875,14.9765625 11.8890625,14.9921875 11.859375,15.009375 C11.8296875,15.0265625 11.8,15.0421875 11.7703125,15.0578125 L11.690625,15.1 L11.66875,15.1109375 C11.64375,15.1234375 11.61875,15.1375 11.59375,15.15 L11.5875,15.153125 C11.5578125,15.16875 11.528125,15.1828125 11.4984375,15.196875 C11.4375,15.2265625 11.375,15.25625 11.3125,15.284375 C11.25,15.3125 11.1875,15.340625 11.1265625,15.365625 L11.125,15.3671875 C11.09375,15.38125 11.0625,15.39375 11.0296875,15.40625 C10.9984375,15.41875 10.9671875,15.43125 10.934375,15.44375 L10.9296875,15.4453125 C10.8984375,15.4578125 10.8671875,15.46875 10.8359375,15.48125 C10.8046875,15.49375 10.7734375,15.5046875 10.740625,15.5171875 L10.7359375,15.51875 C10.671875,15.5421875 10.6078125,15.5640625 10.54375,15.5859375 L10.4453125,15.61875 L10.346875,15.65 C10.2796875,15.6703125 10.2140625,15.6890625 10.146875,15.7078125 C10.1140625,15.7171875 10.0796875,15.725 10.046875,15.734375 L10.04375,15.7359375 L9.9453125,15.7609375 C9.9109375,15.76875 9.878125,15.778125 9.84375,15.7859375 C9.809375,15.79375 9.775,15.8015625 9.7421875,15.809375 C9.6734375,15.825 9.6046875,15.8390625 9.5359375,15.8515625 C9.503125,15.8578125 9.46875,15.8640625 9.4359375,15.8703125 L9.4328125,15.8703125 L9.4265625,15.871875 L9.359375,15.8828125 C9.340625,15.8859375 9.3203125,15.8890625 9.3015625,15.8921875 L9.26875,15.896875 C9.2484375,15.9 9.2296875,15.903125 9.209375,15.90625 L9.165625,15.9125 C9.15,15.915625 9.134375,15.9171875 9.1171875,15.91875 L9.0640625,15.9265625 L9.0265625,15.93125 C9.003125,15.934375 8.9796875,15.9375 8.9546875,15.940625 L8.934375,15.94375 C8.9109375,15.946875 8.8859375,15.95 8.8625,15.9515625 L8.834375,15.9546875 L8.746875,15.9625 C8.7140625,15.965625 8.68125,15.96875 8.646875,15.9703125 C8.434375,15.9875 8.2203125,15.996875 8.0046875,15.9953125 C7.753125,15.9953125 7.5046875,15.984375 7.259375,15.9609375 C7.2265625,15.9578125 7.1953125,15.9546875 7.1625,15.9515625 C7.1390625,15.95 7.115625,15.946875 7.0921875,15.94375 C7.06875,15.940625 7.04375,15.9375 7.0203125,15.934375 L6.9703125,15.928125 L6.9390625,15.9234375 C6.8953125,15.9171875 6.8515625,15.9109375 6.8078125,15.90625 C6.7953125,15.9046875 6.78125,15.903125 6.76875,15.9 L6.7078125,15.890625 L6.6703125,15.884375 L6.6578125,15.8828125 L6.640625,15.8796875 C6.615625,15.875 6.590625,15.871875 6.565625,15.8671875 L6.5015625,15.8546875 L6.4875,15.8515625 C6.45625,15.8453125 6.425,15.8390625 6.39375,15.834375 C6.3625,15.828125 6.3296875,15.821875 6.2984375,15.8140625 L6.29375,15.8125 L6.2078125,15.79375 L6.1734375,15.7859375 C6.1515625,15.78125 6.13125,15.7765625 6.109375,15.7703125 L6.090625,15.765625 C6.0625,15.759375 6.0359375,15.7515625 6.0078125,15.7453125 C5.9765625,15.7375 5.94375,15.728125 5.9125,15.7203125 C5.840625,15.7015625 5.7703125,15.68125 5.7,15.659375 C5.671875,15.6515625 5.64375,15.6421875 5.6140625,15.6328125 C5.5859375,15.625 5.5578125,15.615625 5.5296875,15.60625 C5.50625,15.5984375 5.484375,15.5921875 5.4609375,15.584375 L5.43125,15.575 L5.3609375,15.5515625 C5.35,15.5484375 5.340625,15.5453125 5.33125,15.540625 L5.284375,15.5234375 C5.2640625,15.515625 5.24375,15.509375 5.2234375,15.5015625 L5.171875,15.48125 C5.165625,15.4796875 5.159375,15.4765625 5.1546875,15.475 C5.1328125,15.4671875 5.1109375,15.4578125 5.0890625,15.45 C5.071875,15.44375 5.0546875,15.4359375 5.0375,15.4296875 L4.9890625,15.4109375 C4.9796875,15.4078125 4.971875,15.403125 4.9625,15.4 L4.8921875,15.3703125 C4.8625,15.3578125 4.8328125,15.3453125 4.803125,15.33125 C4.74375,15.3046875 4.684375,15.278125 4.6265625,15.2515625 C4.6078125,15.2421875 4.5890625,15.234375 4.5703125,15.225 C4.5515625,15.215625 4.5375,15.209375 4.521875,15.2015625 C4.4953125,15.1890625 4.46875,15.1765625 4.4421875,15.1625 L4.3859375,15.134375 C4.3765625,15.1296875 4.365625,15.125 4.35625,15.11875 C4.33125,15.10625 4.30625,15.09375 4.28125,15.0796875 L4.275,15.0765625 C4.2546875,15.065625 4.2359375,15.05625 4.215625,15.0453125 C4.196875,15.034375 4.1765625,15.0234375 4.15625,15.0125 C4.1484375,15.0078125 4.140625,15.003125 4.1328125,15 C4.1109375,14.9875 4.090625,14.9765625 4.06875,14.9640625 L4.0421875,14.95 C4.01875,14.9375 3.996875,14.9234375 3.9734375,14.9109375 C3.9671875,14.9078125 3.9609375,14.903125 3.9546875,14.9 C3.9359375,14.8890625 3.915625,14.8765625 3.896875,14.865625 C3.7921875,14.803125 3.6890625,14.7375 3.5875,14.66875 L3.5171875,14.621875 C3.515625,14.621875 3.515625,14.6203125 3.515625,14.6203125 L3.7796875,13.371875 L6.646875,12.203125 L7.3078125,15.1390625 L7.315625,15.115625 L7.9453125,15.771875 L8.253125,15.3890625 L8.678125,15.0953125 L9.3296875,12.2046875 L12.196875,13.375 L12.4671875,14.6375 Z" id="路径" fill="#292D2D"></path>
                    <path d="M6.64375,12.2046875 L7.94375,15.7734375 L6.259375,14.34375 L6.6890625,13.659375 L6.084375,13.659375 L5.8015625,12.5484375 L6.64375,12.2046875 Z M9.3296875,12.2046875 L7.9453125,15.7734375 L9.7140625,14.34375 L9.2828125,13.659375 L9.8875,13.659375 L10.1703125,12.5484375 L9.3296875,12.2046875 L9.3296875,12.2046875 Z" id="形状" fill="#BCBCBC"></path>
                </g>
            </g>
        </g>
    </g>
</svg>