<?xml version="1.0" encoding="UTF-8"?>
<svg width="16px" height="16px" viewBox="0 0 16 16" version="1.1" xmlns="http://www.w3.org/2000/svg" xmlns:xlink="http://www.w3.org/1999/xlink">
    <title>15-图标/1框架/4未知性别</title>
    <g id="平台icon231127" stroke="none" stroke-width="1" fill="none" fill-rule="evenodd">
        <g id="平台icon231128" transform="translate(-472, -40)">
            <g id="15-图标/1框架/4未知性别" transform="translate(472, 40)">
                <rect id="_mockplus_fix_" x="0" y="0" width="16" height="16"></rect>
                <g id="性别未知头像" fill-rule="nonzero">
                    <path d="M8,0 C3.58124797,0 0,3.58124797 0,8 C0,10.7546814 1.39062421,13.182805 3.50937301,14.6218667 C4.68749734,15.4234287 6.06093406,15.893741 7.48437075,15.9828034 C7.65468315,15.9937409 7.82655806,16 8,16 C8.16405786,16 8.32655777,15.9953034 8.48749518,15.9859284 C10.3796816,15.8703035 12.1687431,15.0874914 13.5359298,13.7749922 L13.5890548,13.7234297 C13.6187423,13.6953047 13.6484297,13.6656172 13.6765547,13.6359298 C13.7046797,13.6062423 13.7328047,13.5796798 13.7609297,13.5499923 C15.1999914,12.0609307 16.0031159,10.0703068 16,8 C16,3.58124797 12.4187429,0 8,0 Z" id="路径" fill="#368FD8"></path>
                    <polygon id="路径" fill="#FFE1CC" points="6.88124609 9.42968215 9.10155733 9.42968215 9.10155733 12.6812428 6.88124609 12.6812428"></polygon>
                    <path d="M10.0468693,12.6796803 L9.42811965,15.871866 C9.11718232,15.928116 8.80312,15.9656159 8.48749518,15.9843659 C8.32655777,15.9937409 8.16405786,15.9984284 7.99999546,15.9984284 C7.82655806,15.9984284 7.65468315,15.9921784 7.48437075,15.9812409 C7.20624591,15.9640534 6.92812107,15.931241 6.65312122,15.884366 L5.84218418,12.6953053 L6.64530873,12.2015556 L6.87812109,12.0593682 L7.96718298,12.6781178 L9.11561982,12.0593682 L9.3312447,12.2015556 L10.0468693,12.6796803 L10.0468693,12.6796803 Z" id="路径" fill="#FFFFFF"></path>
                    <path d="M7.48437075,15.9828034 C6.06093406,15.893741 4.68905984,15.4234287 3.50937301,14.6218667 L3.77343536,13.3734299 L6.64218373,12.2046806 L7.47812075,15.918741 L7.48437075,15.9828034 Z M12.4656179,14.6374917 C11.2843686,15.4343662 9.91093187,15.899991 8.48749518,15.9843659 L8.49062018,15.918741 L9.3281197,12.2046806 L12.1968681,13.3734299 L12.4656179,14.6374917 L12.4656179,14.6374917 Z" id="形状" fill="#292D2D"></path>
                    <path d="M7.96405798,8.26405781 C8.51874516,8.56718264 9.36874468,6.26562144 7.91405801,6.39687137 C6.45937133,6.52655879 7.96405798,8.26405781 7.96405798,8.26405781 Z M4.76562229,8.26249531 C4.2187476,8.58124513 3.30781062,6.30312142 4.76562229,6.39374637 C6.22343397,6.48437132 4.76562229,8.26249531 4.76562229,8.26249531 Z M11.1499937,8.26249531 C11.6968684,8.58124513 12.6093678,6.30312142 11.1499937,6.39374637 C9.6906195,6.48437132 11.1499937,8.26249531 11.1499937,8.26249531 Z" id="形状" fill="#FFE1CC"></path>
                    <path d="M11.4906185,7.07343348 C11.4906185,8.99530739 9.93280686,11.0765562 8.01093295,11.0765562 C6.08905904,11.0765562 4.53280993,8.99686989 4.53280993,7.07499598 C4.53280993,5.15312207 6.09062154,3.59531046 8.01249545,3.59531046 C9.93436936,3.59531046 11.4906185,5.15312207 11.4906185,7.07343348 Z" id="路径" fill="#FFE1CC"></path>
                    <path d="M11.6859309,6.14687151 C11.6796809,5.96405911 11.6609309,5.79530921 11.6609309,5.71249676 C11.6531184,5.1015596 11.4624935,4.56718491 11.0984312,4.07656019 C10.4656191,3.22343567 9.5109321,2.70468596 8.44218271,2.70468596 L7.59374569,2.70468596 C6.63905873,2.70468596 5.72968425,3.14374821 5.08905961,3.84531032 C4.70155983,4.27343507 4.43437248,4.79843478 4.31874755,5.36405945 C4.25937258,5.65468429 4.23593509,5.94999662 4.24999759,6.24687145 C4.26093508,6.47968382 4.21406011,6.92499607 4.50780994,6.75624616 C4.69062234,6.65312122 4.87187223,6.27655894 5.02655965,6.11562153 C5.22343453,5.91093414 5.44374691,5.72812175 5.68280927,5.57187184 C6.1593715,5.26093451 6.70937119,5.08280961 7.27812087,5.05624713 C8.19218285,5.01405965 9.05936986,5.34999696 9.84530691,5.79062171 C10.2921817,6.04062157 10.7062439,6.17968399 11.0203062,6.59843375 C11.0984312,6.70312119 11.1781187,6.82030863 11.3015561,6.8640586 C11.6609309,6.99218353 11.6999934,6.53593379 11.6859309,6.14687151 Z" id="路径" fill="#332115"></path>
                    <path d="M4.28593507,5.9796841 C4.32031005,5.88905916 4.38906001,5.8140592 4.46249747,5.74999673 C4.72030982,5.53124686 5.05155963,5.42187192 5.38905944,5.44374691 C5.05780963,5.78749671 4.73593481,6.19530898 4.71405982,6.67187121 C4.69999733,6.98437103 4.81718476,7.31405835 4.69374733,7.60155818 C4.46405997,7.19843341 4.31874755,6.75312117 4.26718508,6.29218393 C4.25468508,6.18905899 4.24843509,6.07968405 4.28593507,5.9796841 Z M11.6234309,5.9796841 C11.5890559,5.88905916 11.520306,5.8140592 11.4468685,5.74999673 C11.1890561,5.53124686 10.8578063,5.42187192 10.521869,5.44374691 C10.8531188,5.78749671 11.1749937,6.19530898 11.1968686,6.67187121 C11.2109311,6.98437103 11.0937437,7.31405835 11.2171811,7.60155818 C11.448431,7.19843341 11.5937434,6.75312117 11.6453059,6.29218393 C11.6562434,6.18905899 11.6624934,6.07968405 11.6234309,5.9796841 Z" id="形状" fill="#332115"></path>
                    <path d="M9.10624483,10.8484313 L9.10624483,11.1671812 C8.47187019,11.514056 7.67343314,11.457806 6.8765586,11.1781187 L6.8765586,10.8328063 C6.96562104,10.8343688 6.90780858,10.8374938 6.91249607,10.8390563 C7.26093338,10.9953063 7.63905816,11.0765562 8.02187044,11.0781187 C8.39374523,11.0765562 8.76405752,10.9984313 9.10624483,10.8484313 L9.10624483,10.8484313 Z" id="路径" fill="#F4C7A8"></path>
                    <path d="M6.64374623,12.2046806 L7.47968325,15.918741 L6.25937145,14.3437419 L6.6890587,13.6593672 L6.08437155,13.6593672 L5.80155921,12.5484304 L6.64374623,12.2046806 Z M9.3281197,12.2046806 L8.49062018,15.918741 L9.71249448,14.3437419 L9.28280723,13.6593672 L9.88749439,13.6593672 L10.1703067,12.5484304 L9.3281197,12.2046806 L9.3281197,12.2046806 Z" id="形状" fill="#BCBCBC"></path>
                    <path d="M8.02030795,6.65624622 C8.23437032,6.65624622 8.40155773,6.71405869 8.52343266,6.83124612 C8.64530759,6.94687106 8.70624506,7.11562096 8.70624506,7.33593333 C8.70624506,7.43593328 8.68124507,7.53437072 8.6328076,7.62030817 C8.58437013,7.70780812 8.50780767,7.80312057 8.40624523,7.90468301 C8.34374526,7.96405798 8.29530836,8.01562045 8.25937031,8.05624543 C8.22812033,8.09062041 8.20155784,8.12812038 8.17812036,8.16874536 C8.16093287,8.19843284 8.14843287,8.23280783 8.14218288,8.26718281 C8.13593288,8.30312029 8.13437038,8.33905776 8.13437038,8.37655774 C8.13437038,8.51249517 8.07655791,8.58124513 7.96093298,8.58124513 C7.9249955,8.58280763 7.89062052,8.57968263 7.85468304,8.57187013 C7.83124555,8.56718264 7.81093306,8.55468264 7.79530836,8.53749515 C7.77968308,8.51874516 7.77030809,8.49687018 7.76874559,8.47343269 C7.76405809,8.44062021 7.76249559,8.40780773 7.76249559,8.37655774 C7.76249559,8.15937037 7.87343303,7.94062049 8.0953079,7.72343311 C8.14687037,7.67499564 8.18905785,7.63280817 8.22030783,7.59999568 C8.24843282,7.5718707 8.2734328,7.54062072 8.29530836,7.50780824 C8.31249528,7.48124575 8.32499527,7.45155827 8.33124527,7.42187079 C8.33749527,7.38749581 8.33905776,7.35312082 8.33905776,7.31718334 C8.33905776,7.2203084 8.31093278,7.14687094 8.25312031,7.09687097 C8.19530785,7.0453085 8.11562039,7.02030851 8.01249545,7.02030851 C7.90937051,7.02030851 7.82812055,7.049996 7.76562059,7.10780846 C7.70624562,7.16249593 7.67030814,7.23905839 7.66718315,7.32030834 C7.66093315,7.44530827 7.59843319,7.50937074 7.48124575,7.50937074 C7.35780832,7.50937074 7.29530836,7.44843327 7.29530836,7.32655834 C7.29530836,7.15155844 7.36405832,6.99530853 7.49999574,6.8593711 C7.63280817,6.72343368 7.80780807,6.65624622 8.02030795,6.65624622 L8.02030795,6.65624622 Z M7.93437049,8.78749501 C7.97187047,8.78749501 8.00780795,8.79530751 8.04218293,8.80937 C8.1078079,8.83905748 8.16093287,8.89218245 8.19062035,8.95780741 C8.22030783,9.02655737 8.22030783,9.10311983 8.19062035,9.17186979 C8.16093287,9.23749475 8.1078079,9.29061972 8.04218293,9.32030721 C7.97343297,9.34999469 7.89530802,9.34999469 7.82812055,9.32030721 C7.76249559,9.29061972 7.70937062,9.23749475 7.67968314,9.17186979 C7.64999566,9.10311983 7.64999566,9.02655737 7.67968314,8.95780741 C7.70937062,8.89218245 7.76249559,8.83905748 7.82812055,8.80937 C7.86093304,8.79374501 7.89687052,8.78749501 7.93437049,8.78749501 Z" id="形状" fill="#CE9C7A"></path>
                </g>
            </g>
        </g>
    </g>
</svg>