<?xml version="1.0" encoding="UTF-8"?>
<svg width="16px" height="16px" viewBox="0 0 16 16" version="1.1" xmlns="http://www.w3.org/2000/svg" xmlns:xlink="http://www.w3.org/1999/xlink">
    <title>15-图标/1框架/4男工作人员</title>
    <g id="平台icon231127" stroke="none" stroke-width="1" fill="none" fill-rule="evenodd">
        <g id="平台icon231128" transform="translate(-376, -40)">
            <g id="15-图标/1框架/4男工作人员" transform="translate(376, 40)">
                <rect id="_mockplus_fix_" x="0" y="0" width="16" height="16"></rect>
                <g id="user_male" fill-rule="nonzero">
                    <path d="M8,0 C3.58124785,0 0,3.58124785 0,8 C0,10.754681 1.39062417,13.1828046 3.5093729,14.6218662 C4.68749719,15.4234282 6.06093386,15.8937405 7.48437051,15.9828029 C7.65468291,15.9937404 7.82655781,16 8,16 C8.1640576,16 8.32655751,15.9953029 8.48749491,15.9859279 C10.3796813,15.870303 12.1687427,15.087491 13.5359294,13.7749917 C13.5531169,13.7578042 13.5718669,13.7406168 13.5890543,13.7234293 C13.6187418,13.6953043 13.6468668,13.6656168 13.6765543,13.6359293 C13.7046793,13.6062418 13.7328043,13.5796794 13.7609292,13.5499919 C15.1999909,12.0609303 16.0031154,10.0703065 16,8 C16,3.58124785 12.4187426,0 8,0 Z" id="路径" fill="#00B3C1"></path>
                    <polygon id="路径" fill="#FFE1CC" points="6.88124587 9.42968184 9.10155704 9.42968184 9.10155704 12.6812424 6.88124587 12.6812424"></polygon>
                    <path d="M10.046869,12.6812424 L9.42811935,15.873428 C9.11718203,15.9296779 8.80311972,15.9671779 8.48749491,15.9859279 C8.32655751,15.9953029 8.1640576,15.9999904 7.9999952,15.9999904 C7.82655781,15.9999904 7.65468291,15.9937404 7.48437051,15.9828029 C7.20624568,15.9656154 6.92812084,15.9328029 6.65312101,15.885928 L5.842184,12.6984299 L6.64530851,12.2046802 L6.87812087,12.0609303 L7.96562022,12.6796799 L9.11405703,12.0609303 L9.3296819,12.2046802 L10.046869,12.6812424 L10.046869,12.6812424 Z" id="路径" fill="#FFFFFF"></path>
                    <path d="M7.48437051,15.9828029 C6.06093386,15.8937405 4.68905969,15.4234282 3.5093729,14.6218662 L3.77343524,13.3734295 L6.64218352,12.2046802 L7.47812051,15.9187405 L7.48437051,15.9828029 Z M12.4656175,14.6374912 C11.2843682,15.4343657 9.91093156,15.8999905 8.48749491,15.9843654 L8.49061991,15.9187405 L9.32811941,12.2046802 L12.1968677,13.3734295 L12.4656175,14.6374912 L12.4656175,14.6374912 Z" id="形状" fill="#292D2D"></path>
                    <path d="M7.96405772,8.26405754 C8.51874489,8.56874486 9.36874438,6.26562124 7.91405775,6.39687116 C6.45937113,6.52812108 7.96405772,8.26405754 7.96405772,8.26405754 Z M4.76562214,8.26249504 C4.21874747,8.58124485 3.30781052,6.30312122 4.76562214,6.39374617 C6.22499627,6.48593361 4.76562214,8.26249504 4.76562214,8.26249504 Z M11.1499933,8.26249504 C11.696868,8.58124485 12.6093674,6.30312122 11.1499933,6.39374617 C9.69061919,6.48437111 11.1499933,8.26249504 11.1499933,8.26249504 Z" id="形状" fill="#FFE1CC"></path>
                    <path d="M11.4906181,7.07343326 C11.4906181,8.9953071 9.93280654,11.0765559 8.0109327,11.0765559 C6.08905885,11.0765559 4.53280978,8.9968696 4.53280978,7.07343326 C4.53280978,5.14999691 6.09062135,3.59374784 8.01249519,3.59374784 C9.93436904,3.59374784 11.4906181,5.15312191 11.4906181,7.07343326 Z" id="路径" fill="#FFE1CC"></path>
                    <path d="M8.59999484,3.37656047 C8.74686975,2.8312483 9.29218193,2.51406099 9.8312441,2.55312347 C10.3703063,2.59218595 10.885931,2.94062324 11.2687432,3.38749797 C11.3906182,3.52656038 11.4937431,3.67968529 11.5765556,3.84374769 C11.8421804,4.39218487 11.8046804,6.28124623 11.5765556,6.80312092 L8.59999484,3.37656047 Z" id="路径" fill="#332115"></path>
                    <path d="M8.62811982,2.32343611 C8.93749464,2.56874846 9.22343197,3.0062482 9.07030706,3.39999796 C8.70468228,3.93281014 8.01562019,3.90468516 7.44218304,4.06093506 C6.9953083,4.18280999 6.58280855,4.44374733 6.13593382,4.57030976 C5.61093413,4.71874717 5.03437198,4.6671847 4.56249726,4.36249738 C4.09218505,4.05781007 3.74531025,3.48124791 3.72187277,2.85937328 C3.94062264,2.97812321 4.167185,3.09999814 4.40937236,3.09687314 C4.73749716,3.09218565 5.02499699,2.86093578 5.31093431,2.6718734 C5.60780914,2.47656101 5.92343395,2.32187361 6.23749626,2.1671862 C6.47968361,2.04843627 6.72499597,1.92812384 6.98280831,1.87187388 C7.55155797,1.74687395 8.15155761,1.94374883 8.62811982,2.32343611 Z" id="路径" fill="#332115"></path>
                    <path d="M11.6859305,6.14687131 C11.6796805,5.96405892 11.6609305,5.79530902 11.6609305,5.71249657 C11.653118,5.10155944 11.4624931,4.56718476 11.0984308,4.07656005 C10.4656187,3.22343557 9.5109318,2.70468588 8.44218244,2.70468588 L7.59374545,2.70468588 C6.63905852,2.70468588 5.72968406,3.14374811 5.08905945,3.84531019 C4.70155968,4.27343494 4.43437234,4.79843462 4.31874741,5.36405928 C4.25937245,5.65468411 4.23593496,5.94999643 4.24843495,6.24687125 C4.25937245,6.47968361 4.21249747,6.92499585 4.5062473,6.75624595 C4.68905969,6.65312101 4.87030958,6.27499624 5.02499699,6.11562133 C5.22187187,5.90937146 5.44218424,5.72655907 5.67968409,5.57030916 C6.15624631,5.25937185 6.70624598,5.08124695 7.27499564,5.05468447 C8.18905759,5.01249699 9.05624457,5.34843429 9.8421816,5.78905903 C10.2890563,6.03905888 10.7031186,6.17812129 11.0171809,6.59687104 C11.0953058,6.70155848 11.1749933,6.81874591 11.2984307,6.86249588 C11.6609305,6.99062081 11.699993,6.53437108 11.6859305,6.14687131 L11.6859305,6.14687131 Z" id="路径" fill="#332115"></path>
                    <path d="M4.28593493,5.97968391 C4.32030991,5.88905897 4.38905987,5.81405901 4.46249732,5.74999655 C4.72030967,5.53124668 5.05155947,5.42187175 5.38905927,5.44374673 C5.05780947,5.78749653 4.73593466,6.19530878 4.71405967,6.671871 C4.69999718,6.98437081 4.81718461,7.31405811 4.69374718,7.60155794 C4.46405982,7.19843318 4.31874741,6.75312095 4.26718494,6.29218373 C4.25468495,6.18905879 4.24843495,6.07968385 4.28593493,5.97968391 Z M11.6234305,5.97968391 C11.5890555,5.88905897 11.5203056,5.81405901 11.4468681,5.74999655 C11.1890558,5.53124668 10.857806,5.42187175 10.5218687,5.44374673 C10.8531185,5.78749653 11.1749933,6.19530878 11.1968683,6.671871 C11.2109308,6.98437081 11.0937433,7.31405811 11.2171808,7.60155794 C11.4484306,7.19843318 11.593743,6.75312095 11.6453055,6.29218373 C11.656243,6.18905879 11.662493,6.07968385 11.6234305,5.97968391 Z" id="形状" fill="#332115"></path>
                    <path d="M9.10624454,10.848431 L9.10624454,11.1671808 C8.47186992,11.5140556 7.6734329,11.4578056 6.87655838,11.1781183 L6.87655838,10.832806 C6.96562082,10.8343685 6.90780836,10.8374935 6.91249585,10.839056 C7.26093314,10.9953059 7.63905792,11.0765559 8.02187019,11.0781184 C8.39374497,11.0765559 8.76405724,10.9999934 9.10624454,10.848431 L9.10624454,10.848431 Z" id="路径" fill="#F4C7A8"></path>
                    <path d="M6.64374602,12.2046802 L7.47968301,15.9187405 L6.25937125,14.3437414 L6.68905849,13.6593668 L6.08437135,13.6593668 L5.80155902,12.54843 C5.80312152,12.54843 6.64374602,12.2046802 6.64374602,12.2046802 Z M9.32811941,12.2046802 L8.49218241,15.9187405 L9.71249417,14.3437414 L9.28280693,13.6593668 L9.88749407,13.6593668 L10.1703064,12.54843 L9.32811941,12.2046802 L9.32811941,12.2046802 Z" id="形状" fill="#BCBCBC"></path>
                    <polygon id="路径" fill="#00B3C1" points="7.68280789 12.9828047 7.96562022 12.6999924 8.24843255 12.9828047 7.96562022 13.265617 7.68280789 12.9828047"></polygon>
                    <polygon id="路径" fill="#00B3C1" points="8.24999505 15.4953032 7.96718272 15.7781155 7.68437039 15.4953032 7.96718272 12.7687423"></polygon>
                </g>
            </g>
        </g>
    </g>
</svg>