<?xml version="1.0" encoding="UTF-8"?>
<svg width="16px" height="16px" viewBox="0 0 16 16" version="1.1" xmlns="http://www.w3.org/2000/svg" xmlns:xlink="http://www.w3.org/1999/xlink">
    <title>未知头像</title>
    <defs>
        <path d="M8,0 C12.418278,0 16,3.581722 16,8 C16,12.418278 12.418278,16 8,16 C3.581722,16 0,12.418278 0,8 C0,3.581722 3.581722,0 8,0 Z" id="path-1"></path>
        <path d="M6.01788574,0 C8.48819824,1.065625 9.21476075,1.528125 9.51476075,1.7875 C9.74733547,1.99639946 9.75151345,2.77629077 9.75083039,3.55075818 L9.75066385,3.66398925 C9.75061406,3.72051851 9.75059633,3.77686821 9.75069824,3.8328125 C8.71007324,4.66875 6.92882324,5.45625 4.91788574,5.45625 L4.83351075,5.45625 C2.82257324,5.45625 1.04132324,4.66875 0.000698241786,3.8328125 C0.000698241786,3.75822011 0.000497391125,3.68290702 0.000302190992,3.60740848 L-1.39280948e-16,3.49408851 L-1.39280948e-16,3.32446517 C0.00130965483,2.62955163 0.025188731,1.97601902 0.235073242,1.7875 C0.416391923,1.6307349 0.753531346,1.39976943 1.53764793,1.00629076 L1.62497505,0.962716893 C2.13003516,0.71209697 2.80995305,0.398145605 3.73351075,0 L6.01788574,0 Z" id="path-3"></path>
        <path d="M0,1.09921875 C0,-0.36640625 2.3984375,-0.36640625 2.3984375,1.09921875 L2.39687499,3.80703125 C2.1109375,4.17890626 1.6671875,4.39609374 1.1984375,4.39609374 C0.729687499,4.39609374 0.285937501,4.17890626 0,3.80703125 L0,1.09921875 Z" id="path-5"></path>
        <path d="M0,1.09921875 C0,-0.36640625 2.3984375,-0.36640625 2.3984375,1.09921875 L2.39687499,2.97265626 C2.05625,3.25859374 1.77812499,3.42265626 1.1984375,3.42265626 C0.595312501,3.42265626 0.342187499,3.25703125 0,2.97421875 L0,1.09921875 Z" id="path-7"></path>
        <path d="M2.78627904,0 C6.80502904,-0.00156174063 5.36440403,4.81875076 5.09409154,5.20312576 C4.81127904,5.62812576 4.14252904,6.67187576 2.78784154,6.67187576 C1.43315404,6.67187576 0.76596654,5.62968825 0.47846654,5.20312576 C0.19096654,4.77812576 -1.23090846,0 2.78627904,0 Z" id="path-9"></path>
        <path d="M0.639062501,2.11562499 C0.676562501,2.11562499 0.7125,2.1234375 0.746875,2.1375 C0.8125,2.1671875 0.865625,2.2203125 0.895312501,2.28437499 C0.925,2.35312499 0.925,2.42812499 0.895312501,2.49687499 C0.865625,2.5625 0.8125,2.6140625 0.746875,2.64375 C0.678125,2.6734375 0.6,2.6734375 0.532812501,2.64375 C0.467187501,2.6140625 0.414062499,2.5609375 0.384375,2.49687499 C0.354687501,2.42812499 0.354687501,2.35312499 0.384375,2.28437499 C0.414062499,2.21875 0.467187501,2.1671875 0.532812501,2.1375 C0.565625,2.12187499 0.601562501,2.11562499 0.639062501,2.11562499 Z M0.725,0 C0.939062501,0 1.10625,0.0578125 1.228125,0.173437501 C1.35,0.2875 1.4109375,0.45625 1.4109375,0.675 C1.4109375,0.775 1.3859375,0.871875 1.3375,0.957812501 C1.2890625,1.0453125 1.2125,1.1390625 1.1109375,1.240625 C1.0484375,1.3 1,1.35 0.964062501,1.390625 C0.932812501,1.425 0.90625,1.4625 0.882812501,1.5015625 C0.865625,1.53125 0.853125,1.565625 0.846875,1.6 C0.840625,1.6359375 0.839062501,1.67187501 0.839062501,1.7078125 C0.839062501,1.8421875 0.78125,1.9109375 0.665625,1.9109375 C0.629687501,1.9125 0.595312501,1.90937501 0.559375,1.9015625 C0.535937501,1.89687501 0.515625,1.88437501 0.5,1.8671875 C0.484375,1.8484375 0.475,1.8265625 0.473437501,1.80312501 C0.46875,1.7703125 0.467187501,1.7375 0.467187501,1.70625 C0.467187501,1.490625 0.578125,1.2734375 0.8,1.0578125 C0.851562501,1.009375 0.89375,0.967187501 0.925,0.935937501 C0.953125,0.907812501 0.978125,0.876562501 1,0.84375 C1.0171875,0.817187501 1.0296875,0.7875 1.0359375,0.757812501 C1.0421875,0.723437501 1.04375,0.689062501 1.04375,0.653125 C1.04375,0.55625 1.015625,0.484375 0.957812501,0.434375 C0.9,0.382812501 0.820312501,0.357812501 0.717187501,0.357812501 C0.614062499,0.357812501 0.532812499,0.3875 0.470312499,0.445312501 C0.410937499,0.5 0.375,0.575 0.371875,0.65625 C0.365625,0.779687501 0.303125,0.84375 0.185937499,0.84375 C0.0625,0.84375 0,0.782812501 0,0.6625 C0,0.489062501 0.06875,0.334375 0.204687501,0.198437501 C0.3375,0.0671875 0.5125,0 0.725,0 Z" id="path-11"></path>
        <path d="M0.221478662,0.01340531 C0.433978662,-0.0537821899 0.698041163,0.19621781 0.819916163,0.54621781 C0.943353662,0.89934281 0.871478662,1.26028031 0.657416163,1.33059281 C0.444916163,1.39934281 0.183978662,1.16340531 0.058978663,0.79778031 C-0.066021337,0.43215531 0.016791163,0.0852803101 0.221478662,0.01340531 Z M6.38554117,0.01184281 C6.59022866,0.0837178101 6.67147866,0.43059281 6.54491616,0.79621781 C6.41835366,1.16184281 6.16210366,1.39778031 5.94647866,1.32903031 C5.73085366,1.26028031 5.68085366,0.91028031 5.78710366,0.54465531 C5.89335366,0.18059281 6.16991616,-0.0569071899 6.38554117,0.01184281 Z" id="path-13"></path>
        <path d="M0.581499971,0.900521611 C1.21587497,0.139584111 3.26743747,-0.465103389 4.62056246,0.49270911 C6.11274997,0.813021611 5.51899997,4.17864661 5.51899997,3.8802091 C5.51899997,3.58177162 5.34712498,2.55677162 4.28462498,2.01302162 C3.54556246,1.65208411 2.97056246,1.53958411 1.85181246,1.70052162 C1.21118747,1.80208411 0.17681247,2.6927091 0.17681247,3.87864661 C0.173714883,3.86184288 0.170595654,3.84501848 0.167460968,3.8281739 L0.148516846,3.72686883 C0.145345071,3.70994574 0.142170207,3.69300354 0.13899844,3.67604274 L0.110703119,3.52290787 L0.0924272194,3.42030219 C-0.0509100018,2.59789003 -0.115868451,1.7386795 0.581499971,0.900521611 Z" id="path-15"></path>
        <path d="M3.0671875,0 L3.7234375,0.309375 C3.1265625,1.2375 2.49687499,1.7015625 1.8359375,1.7015625 C1.175,1.7015625 0.564062501,1.2453125 0,0.33125 L0.66875,0.0390625 C1.03125,0.704687501 1.4203125,1.0375 1.8359375,1.0375 C2.25312499,1.0375 2.6625,0.692187499 3.0671875,0 Z" id="path-17"></path>
    </defs>
    <g id="平台icon231127" stroke="none" stroke-width="1" fill="none" fill-rule="evenodd">
        <g id="平台icon231128" transform="translate(-808, -40)">
            <g id="未知头像" transform="translate(808, 40)">
                <rect id="_mockplus_fix_" x="0" y="0" width="16" height="16"></rect>
                <g id="编组-2">
                    <g id="Clipped">
                        <mask id="mask-2" fill="white">
                            <use xlink:href="#path-1"></use>
                        </mask>
                        <g id="路径"></g>
                        <polygon id="路径" fill="#DBEBFA" fill-rule="nonzero" mask="url(#mask-2)" points="0 0 16 0 16 16 0 16"></polygon>
                    </g>
                    <g id="Clipped" transform="translate(3.154, 10.5438)">
                        <mask id="mask-4" fill="white">
                            <use xlink:href="#path-3"></use>
                        </mask>
                        <g id="路径"></g>
                        <polygon id="路径" fill="#8AB1D8" fill-rule="nonzero" mask="url(#mask-4)" points="-6.17950941e-05 0 9.7508304 0 9.7508304 5.45625 -6.17950941e-05 5.45625"></polygon>
                    </g>
                    <g id="Clipped" transform="translate(6.7953, 7.1852)">
                        <mask id="mask-6" fill="white">
                            <use xlink:href="#path-5"></use>
                        </mask>
                        <g id="路径"></g>
                        <polygon id="路径" fill="#FFDECC" fill-rule="nonzero" mask="url(#mask-6)" points="0 -3.99999749e-10 2.3984375 -3.99999749e-10 2.3984375 4.39609374 0 4.39609374"></polygon>
                    </g>
                    <g id="Clipped" transform="translate(6.7953, 7.1852)">
                        <mask id="mask-8" fill="white">
                            <use xlink:href="#path-7"></use>
                        </mask>
                        <g id="路径"></g>
                        <polygon id="路径" fill="#F7C5AA" fill-rule="nonzero" mask="url(#mask-8)" points="0 -3.99999891e-10 2.3984375 -3.99999891e-10 2.3984375 3.42265626 0 3.42265626"></polygon>
                    </g>
                    <g id="Clipped" transform="translate(5.2184, 3.6141)">
                        <mask id="mask-10" fill="white">
                            <use xlink:href="#path-9"></use>
                        </mask>
                        <g id="路径"></g>
                        <polygon id="路径" fill="#FFDECC" fill-rule="nonzero" mask="url(#mask-10)" points="5.0260951e-10 0 5.56599699 0 5.56599699 6.67187576 5.0260951e-10 6.67187576"></polygon>
                    </g>
                    <g id="Clipped" transform="translate(7.3234, 6.3531)">
                        <mask id="mask-12" fill="white">
                            <use xlink:href="#path-11"></use>
                        </mask>
                        <g id="形状"></g>
                        <polygon id="路径" fill="#DCA883" fill-rule="nonzero" mask="url(#mask-12)" points="0 0 1.4109375 0 1.4109375 2.66601563 0 2.66601563"></polygon>
                    </g>
                    <g id="Clipped" transform="translate(4.6973, 6.7725)">
                        <mask id="mask-14" fill="white">
                            <use xlink:href="#path-13"></use>
                        </mask>
                        <g id="形状"></g>
                        <polygon id="路径" fill="#FFDECC" fill-rule="nonzero" mask="url(#mask-14)" points="-3.46176421e-11 -5.1159077e-12 6.6053611 -5.1159077e-12 6.6053611 1.3424918 -3.46176421e-11 1.3424918"></polygon>
                    </g>
                    <g id="Clipped" transform="translate(5.1373, 3.3682)">
                        <mask id="mask-16" fill="white">
                            <use xlink:href="#path-15"></use>
                        </mask>
                        <g id="路径"></g>
                        <polygon id="路径" fill="#DEB59E" fill-rule="nonzero" mask="url(#mask-16)" points="-2.99223757e-12 -4.55656846e-11 5.63560104 -4.55656846e-11 5.63560104 3.89892048 -2.99223757e-12 3.89892048"></polygon>
                    </g>
                    <g id="Clipped" transform="translate(6.125, 10.5438)">
                        <mask id="mask-18" fill="white">
                            <use xlink:href="#path-17"></use>
                        </mask>
                        <g id="路径"></g>
                        <polygon id="路径" fill="#FFFFFF" fill-rule="nonzero" mask="url(#mask-18)" points="0 0 3.7234375 0 3.7234375 1.7015625 0 1.7015625"></polygon>
                    </g>
                </g>
            </g>
        </g>
    </g>
</svg>