<?xml version="1.0" encoding="UTF-8"?>
<svg width="16px" height="16px" viewBox="0 0 16 16" version="1.1" xmlns="http://www.w3.org/2000/svg" xmlns:xlink="http://www.w3.org/1999/xlink">
    <title>女头像</title>
    <defs>
        <path d="M8.00468674,0 C12.4249974,0.00312908669 16.0031208,3.58593952 16,8.00468695 C15.9984334,10.7812478 14.582809,13.2249964 12.4406224,14.6578081 L12.4421849,12.3906219 C12.4421849,11.9906221 12.2624975,11.6265599 11.9796851,11.38281 L11.8468726,11.5515599 C11.7999977,11.6234348 10.6624981,13.2796839 7.99531175,13.2781214 C5.41537861,13.2766082 4.270046,11.7217996 4.15770904,11.5583241 L4.15000086,11.5468724 L4.0187509,11.3781225 C3.73437604,11.6218723 3.55625111,11.9828096 3.55625111,12.3859344 L3.5546886,14.6531206 C1.40937701,13.2156214 -0.00155990882,10.7687478 0,7.99531196 C0.00312758981,3.57500202 3.5843761,-0.00312091049 8.00468674,0 Z" id="path-1"></path>
        <path d="M1.77812427,0.349613275 C1.58333971,-0.103617037 1.94555935,-0.0304669154 2.36584063,0.0964737371 L2.42217839,0.113676427 C2.43161076,0.116582838 2.44106085,0.119505441 2.4505232,0.122439048 L2.50740039,0.140131258 C2.73514655,0.211096411 2.96363897,0.282425806 3.1171862,0.282425806 C3.2574733,0.282425811 3.46114949,0.222765511 3.66966672,0.15846198 L3.78353161,0.123257522 C3.8024718,0.117423591 3.82136404,0.111633957 3.8401643,0.105929955 L3.89624527,0.0891161781 C4.3048375,-0.0316947097 4.64763319,-0.0910536991 4.45624814,0.351175776 C4.13437328,1.09492535 4.12968578,2.0308623 4.45468565,2.14179974 C4.5882646,2.18723013 4.94076924,2.19352463 5.29703256,2.18609463 L5.38991462,2.18386175 C5.82244162,2.1721447 6.23280992,2.14336223 6.23280992,2.14336223 C6.23280992,2.14336223 5.33593527,3.47461145 3.1156237,3.4730517 C0.893749631,3.4730517 0,2.13867473 0,2.13867473 C0,2.13867473 1.4687494,2.24492467 1.77656176,2.14023724 C2.10156163,2.02929979 2.09843662,1.09336285 1.77812427,0.349613275 Z" id="path-3"></path>
        <path d="M0,1.09921811 C0,-0.366406038 2.39843649,-0.366406038 2.39843649,1.09921811 L2.396874,1.09921811 L2.396874,2.90702956 C2.05624914,3.1914044 1.6390618,3.37109179 1.19843699,3.42265427 C0.759374686,3.3695293 0.342187354,3.18984191 0,2.90702956 L0,1.09921811 Z" id="path-5"></path>
        <path d="M0.0406249882,1.09843718 C0.0421874722,-0.367186975 2.44062397,-0.365624476 2.43906301,1.09999967 L2.43749898,2.90937363 C2.09687412,3.19374847 1.67968679,3.37343586 1.23906198,3.42499833 C0.798437174,3.37187336 0.342187354,3.13437351 0,2.84999866 L0.0406249882,1.09843718 Z" id="path-7"></path>
        <path d="M2.78603385,0 C6.80478216,0 5.36259528,4.8203097 5.09228289,5.20312198 C4.80634551,5.62968424 3.43759607,6.74530859 2.78603385,6.74530859 C2.13447163,6.74530859 0.764159692,5.62968424 0.476659822,5.20312198 C0.190722437,4.77655972 -1.22958946,0 2.78603385,0 Z" id="path-9"></path>
        <path d="M0.871874637,0 C0.871874637,0 1.75624927,1.33437422 3.97812335,1.33437422 C6.19843492,1.33593672 7.09062206,0.00468749788 7.09062206,0.00468749788 C7.4234344,0.00468749788 7.72812178,0.126562427 7.96093418,0.32968732 L7.82812174,0.498437212 C7.78124676,0.570312163 6.64530973,2.22656121 3.97656085,2.22500092 C1.31093696,2.22343622 0.178124932,0.565624666 0.131249946,0.493749715 L0,0.324999822 C0.2359374,0.121874945 0.54062478,0 0.871874637,0 Z" id="path-11"></path>
        <path d="M0.465624802,0 L0.596874749,0.168749893 C0.597363029,0.16949859 0.597968973,0.170419372 0.598693088,0.171508575 L0.604459938,0.180035524 C0.715952769,0.342620635 1.85834884,1.89848522 4.44218565,1.8999989 C6.29218488,1.90312389 7.40468441,1.10624936 7.9296842,0.593749654 C8.1578091,0.370312269 8.27499655,0.201562378 8.29062155,0.176562389 L8.29062155,0.17499989 L8.42343399,0.00624999717 C8.43437147,0.014062478 8.44374646,0.0234374737 8.45468396,0.0328124696 C8.6328089,0.196874879 8.76562134,0.407812254 8.83437131,0.646874613 C8.83593381,0.653124611 8.8374963,0.659374609 8.83905881,0.667187105 C8.84687131,0.695312077 8.8546838,0.723437063 8.8593713,0.75468705 C8.87499629,0.839061995 8.8843713,0.923436957 8.8843713,1.0124994 L8.88280879,3.2796856 C8.59999641,3.468748 8.30312153,3.64062289 7.99530916,3.7937478 C6.92343462,4.32499749 5.71718513,4.62187232 4.44062315,4.62187232 C2.79687383,4.62187232 1.27031198,4.1234351 0,3.2734356 L0.00312499909,1.0078119 C0.00312499909,0.606249648 0.181249916,0.243749859 0.465624802,0 Z" id="path-13"></path>
        <path d="M4.25624822,2.26512518e-16 C5.30312278,2.26512518e-16 6.2281224,0.534377416 6.76874718,1.34531444 C7.08749703,1.82656416 7.27499695,2.40156382 7.27499695,3.02500097 C7.27499695,3.19843838 7.27968445,3.36562575 7.28280944,3.52812568 C7.34949757,5.87258297 8.14145907,7.7939644 8.22292739,7.98581566 L8.22721848,7.9958622 C8.22884561,7.99964602 8.22968406,8.00156056 8.22968406,8.00156056 C8,7.79999819 7.70155927,7.67968576 7.37187192,7.67656077 L7.35937192,7.67656077 L7.35937192,7.67812326 C7.29001826,7.68334343 6.95123273,7.70564778 6.58440227,7.71683771 L6.47903897,7.71970803 C6.10905607,7.72852516 5.73401749,7.72354227 5.59531016,7.67656077 C5.34843525,7.59218582 5.29218528,7.02656113 5.42343522,6.43281148 C6.21249739,5.92343677 6.77343465,5.17187472 6.77343465,4.20312527 L6.77343465,3.67656309 L6.76956057,3.67521877 C6.69655484,3.64964734 5.60894893,3.25842243 4.97343541,2.4296888 L4.91562294,2.39062632 C4.15937326,3.27343832 2.88437378,4.37968768 1.76249925,4.58750005 C1.88593669,5.39374959 2.45468646,6.02968672 3.09687369,6.45312397 C3.22343616,7.04531113 3.16562368,7.59218582 2.91718627,7.67656077 C2.6093739,7.7812482 1.14062451,7.67499827 1.14062451,7.67499827 C0.807812156,7.67499829 0.504687276,7.79687322 0.270312374,7.99843559 C0.164062436,8.09062303 0.0718749636,8.19843547 0,8.3140604 C0.31874986,7.5984358 1.14062453,5.57812449 1.21718699,3.69218806 C1.22656199,3.48125069 1.23124949,3.25781333 1.23124949,3.02031346 C1.23281199,1.35000192 2.58593642,-0.00155979483 4.25624822,2.26512518e-16 Z" id="path-15"></path>
        <path d="M2.17656161,0 C2.8718738,0 3.49218606,0.328124805 3.88906088,0.837499512 C3.47968606,0.531249698 2.97187378,0.349999795 2.42187401,0.349999795 C1.22031199,0.348437295 0.218749905,1.2109368 0.00781249773,2.35312364 C0.00312499909,2.29374867 0,2.2343737 0,2.17343624 C0.00156251517,0.971874435 0.974999608,0 2.17656161,0 Z" id="path-17"></path>
        <path d="M0.849999644,0.718749582 C0.924999607,0.76718706 0.989062088,0.828124516 1.03749956,0.898436984 C0.840624647,1.16249933 0.4703123,1.23437429 0.187499914,1.05624938 C0.112499952,1.0078119 0.0484374704,0.946874446 0,0.876561994 C0.198437411,0.612499645 0.565624757,0.540624693 0.849999644,0.718749582 Z M1.69218678,0 C1.72499927,0.0765624497 1.74374925,0.162499911 1.74374925,0.253124855 C1.74374925,0.587499656 1.48437437,0.8624995 1.15781201,0.889061989 C1.12499953,0.812499539 1.10624954,0.726562078 1.10624954,0.635937134 C1.10624954,0.299999833 1.36249943,0.0265624879 1.69218678,0 Z" id="path-19"></path>
    </defs>
    <g id="平台icon231127" stroke="none" stroke-width="1" fill="none" fill-rule="evenodd">
        <g id="平台icon231128" transform="translate(-760, -40)">
            <g id="女头像" transform="translate(760, 40)">
                <rect id="_mockplus_fix_" x="0" y="0" width="16" height="15.9999974"></rect>
                <g id="编组-2">
                    <g id="Clipped">
                        <mask id="mask-2" fill="white">
                            <use xlink:href="#path-1"></use>
                        </mask>
                        <g id="路径"></g>
                        <polygon id="路径" fill="#DBEBFA" fill-rule="nonzero" mask="url(#mask-2)" points="0 0 16 0 16 14.6578081 0 14.6578081"></polygon>
                    </g>
                    <g id="Clipped" transform="translate(4.8875, 8.9144)">
                        <mask id="mask-4" fill="white">
                            <use xlink:href="#path-3"></use>
                        </mask>
                        <g id="路径"></g>
                        <polygon id="路径" fill="#FFDECC" fill-rule="nonzero" mask="url(#mask-4)" points="0 8.28268702e-12 6.23280992 8.28268702e-12 6.23280992 3.47305171 0 3.47305171"></polygon>
                    </g>
                    <g id="Clipped" transform="translate(6.8125, 7.1961)">
                        <mask id="mask-6" fill="white">
                            <use xlink:href="#path-5"></use>
                        </mask>
                        <g id="路径"></g>
                        <polygon id="路径" fill="#F7C5AA" fill-rule="nonzero" mask="url(#mask-6)" points="0 -3.99995622e-10 2.39843649 -3.99995622e-10 2.39843649 3.42265427 0 3.42265427"></polygon>
                    </g>
                    <g id="Clipped" transform="translate(6.7391, 6.9078)">
                        <mask id="mask-8" fill="white">
                            <use xlink:href="#path-7"></use>
                        </mask>
                        <g id="路径"></g>
                        <polygon id="路径" fill="#F7C5AA" fill-rule="nonzero" mask="url(#mask-8)" points="0 -6.68478498e-11 2.43906301 -6.68478498e-11 2.43906301 3.42499833 0 3.42499833"></polygon>
                    </g>
                    <g id="Clipped" transform="translate(5.2171, 3.6047)">
                        <mask id="mask-10" fill="white">
                            <use xlink:href="#path-9"></use>
                        </mask>
                        <g id="路径"></g>
                        <polygon id="路径" fill="#FFDECC" fill-rule="nonzero" mask="url(#mask-10)" points="-1.00039067e-10 0 5.56484063 0 5.56484063 6.74530859 -1.00039067e-10 6.74530859"></polygon>
                    </g>
                    <g id="Clipped" transform="translate(4.0156, 11.0531)">
                        <mask id="mask-12" fill="white">
                            <use xlink:href="#path-11"></use>
                        </mask>
                        <g id="路径"></g>
                        <polygon id="路径" fill="#F5F7FA" fill-rule="nonzero" mask="url(#mask-12)" points="0 0 7.96093418 0 7.96093418 2.22500092 0 2.22500092"></polygon>
                    </g>
                    <g id="Clipped" transform="translate(3.5547, 11.3781)">
                        <mask id="mask-14" fill="white">
                            <use xlink:href="#path-13"></use>
                        </mask>
                        <g id="路径"></g>
                        <polygon id="路径" fill="#E591AB" fill-rule="nonzero" mask="url(#mask-14)" points="0 0 8.8843713 0 8.8843713 4.62187232 0 4.62187232"></polygon>
                    </g>
                    <g id="Clipped" transform="translate(3.7516, 3.3859)">
                        <mask id="mask-16" fill="white">
                            <use xlink:href="#path-15"></use>
                        </mask>
                        <g id="路径"></g>
                        <polygon id="路径" fill="#AF919B" fill-rule="nonzero" mask="url(#mask-16)" points="0 2.21010465e-15 8.22968406 2.21010465e-15 8.22968406 8.3140604 0 8.3140604"></polygon>
                    </g>
                    <g id="Clipped" transform="translate(5.875, 4.0922)">
                        <mask id="mask-18" fill="white">
                            <use xlink:href="#path-17"></use>
                        </mask>
                        <g id="路径"></g>
                        <polygon id="路径" fill="#FFFFFF" fill-rule="nonzero" mask="url(#mask-18)" points="0 0 3.88906088 0 3.88906088 2.35312364 0 2.35312364"></polygon>
                    </g>
                    <g id="Clipped" transform="translate(6.0766, 3.4563)">
                        <mask id="mask-20" fill="white">
                            <use xlink:href="#path-19"></use>
                        </mask>
                        <g id="形状"></g>
                        <polygon id="路径" fill="#FFFFFF" fill-rule="nonzero" mask="url(#mask-20)" points="0 0 1.74374925 0 1.74374925 1.154225 0 1.154225"></polygon>
                    </g>
                </g>
            </g>
        </g>
    </g>
</svg>