<?xml version="1.0" encoding="UTF-8"?>
<svg width="16px" height="16px" viewBox="0 0 16 16" version="1.1" xmlns="http://www.w3.org/2000/svg" xmlns:xlink="http://www.w3.org/1999/xlink">
    <title>男头像</title>
    <defs>
        <path d="M0.0468750773,8.865625 C0.0156250258,8.58281249 0,8.29531249 0,8.00156249 C0,7.70625 0.0156250258,7.41875 0.0468750773,7.13593749 L0.0467200871,7.13744152 L0.0582084114,7.03789728 C0.312948724,4.91699647 1.3955614,3.05109747 2.97408718,1.77500841 L3.04844253,1.71562501 C4.41094478,0.6421875 6.13126012,0 7.9984507,0 C9.86564129,0 11.5843941,0.640624999 12.9468964,1.7125 C14.8062744,3.1765625 16.0000298,5.4484375 16.0000298,8.00156249 C16.0015889,10.4140625 14.9343997,12.578125 13.2437719,14.0453125 C13.0734591,13.246875 12.8812713,12.540625 12.6109583,12.3046875 C12.3156453,12.0578125 11.6093942,11.496875 9.13907758,10.4328125 L6.88438635,10.4328125 C4.41563228,11.4984375 3.68750609,12.0734375 3.3875056,12.3328125 C3.12813017,12.5671875 2.92656733,13.2546875 2.75000453,14.0390625 C1.2718771,12.75 0.268750443,10.9265625 0.0468750773,8.86718749 L0.0468750773,8.865625 Z" id="path-1"></path>
        <path d="M6.38751055,0 C8.85782712,1.0640625 9.56251578,1.6234375 9.85939128,1.87187499 C10.1297042,2.1078125 10.321892,2.8140625 10.4937673,3.61093749 C9.0890775,4.8296875 7.25626198,5.56875 5.25157117,5.56875 C3.24063035,5.56875 1.40625232,4.828125 0,3.60625 C0.175000289,2.821875 0.376563121,2.134375 0.637501053,1.90000001 C0.937501548,1.64062501 1.66406525,1.065625 4.13438182,0 L6.38751055,0 Z" id="path-3"></path>
        <path d="M0,1.09921875 C0,-0.36640625 2.39844146,-0.36640625 2.39844146,1.09921875 L2.39687895,3.80703124 C2.11094099,4.17890625 1.66719024,4.39609375 1.19843948,4.39609375 C0.729688704,4.39609375 0.285937971,4.17890625 0,3.80703124 L0,1.09921875 Z" id="path-5"></path>
        <path d="M0,1.09921875 C0,-0.36640625 2.39844146,-0.36640625 2.39844146,1.09921875 L2.39687895,2.90546875 C2.0562534,3.19140625 1.6390652,3.37109374 1.19843948,3.42265625 C0.759376253,3.36953125 0.342188065,3.18984375 0,2.90703124 L0,1.09921875 Z" id="path-7"></path>
        <path d="M0.85468891,0 L2.16562858,1.340625 L1.23281454,2.22031251 L0,0.5265625 L0.85468891,0 Z M3.41094313,0.0375 L4.32813215,0.525 L3.09531761,2.22031251 L2.16562858,1.340625 L3.41094313,0.0375 Z" id="path-9"></path>
        <path d="M2.78628364,0 C6.80504027,-0.00156174063 5.3644129,4.81875075 5.09409994,5.20312576 C4.81128699,5.62812576 3.44097222,6.74531326 2.78784614,6.74531326 C2.13472006,6.74531326 0.765967804,5.62968825 0.478467328,5.20312576 C0.190966855,4.77812575 -1.23091049,0 2.78628364,0 Z" id="path-11"></path>
        <path d="M0.221479029,0.01340531 C0.433979379,-0.0537821899 0.698042316,0.19621781 0.819917516,0.546217809 C0.943355219,0.89934281 0.871480101,1.26028031 0.657417248,1.33059281 C0.444916897,1.39934281 0.183978967,1.16340531 0.0589787603,0.797780309 C-0.066021446,0.43215531 0.0167911906,0.08528031 0.221479029,0.01340531 Z M6.3855517,0.01184281 C6.59023953,0.08371781 6.67148967,0.43059281 6.54492697,0.79621781 C6.41836425,1.16184281 6.16211384,1.39778031 5.94648848,1.32903031 C5.73086312,1.26028031 5.68086304,0.91028031 5.78711322,0.54465531 C5.89336339,0.18059281 6.16992635,-0.0569071899 6.3855517,0.01184281 Z" id="path-13"></path>
        <path d="M0.526177026,0.923013426 C1.16211558,0.116763426 3.25743153,-0.458236573 4.61055877,0.499575926 C6.10274874,0.819888426 5.64181047,3.84488842 5.44337264,4.41363843 C5.29962241,3.49645092 4.98712189,3.10895092 4.59337124,2.01520093 C4.05587035,2.40582592 1.66836641,2.48707592 0.977740273,1.99645092 L0.973052765,1.99645092 C0.737114875,3.26051343 0.158988921,3.14332592 0.204301495,4.62613843 C0.0168011859,3.46988842 -0.25976177,1.93551342 0.526177026,0.923013426 Z" id="path-15"></path>
    </defs>
    <g id="平台icon231127" stroke="none" stroke-width="1" fill="none" fill-rule="evenodd">
        <g id="平台icon231128" transform="translate(-717, -40)">
            <g id="编组-2" transform="translate(717, 40)">
                <g id="Clipped">
                    <mask id="mask-2" fill="white">
                        <use xlink:href="#path-1"></use>
                    </mask>
                    <g id="路径"></g>
                    <polygon id="路径" fill="#DBEBFA" fill-rule="nonzero" mask="url(#mask-2)" points="0 0 16.0000298 0 16.0000298 14.0453125 0 14.0453125"></polygon>
                </g>
                <g id="Clipped" transform="translate(2.7516, 10.4312)">
                    <mask id="mask-4" fill="white">
                        <use xlink:href="#path-3"></use>
                    </mask>
                    <g id="路径"></g>
                    <polygon id="路径" fill="#707C92" fill-rule="nonzero" mask="url(#mask-4)" points="0 0 10.4937673 0 10.4937673 5.56875 0 5.56875"></polygon>
                </g>
                <g id="Clipped" transform="translate(6.7938, 7.1852)">
                    <mask id="mask-6" fill="white">
                        <use xlink:href="#path-5"></use>
                    </mask>
                    <g id="路径"></g>
                    <polygon id="路径" fill="#FFDECC" fill-rule="nonzero" mask="url(#mask-6)" points="0 -3.99999692e-10 2.39844146 -3.99999692e-10 2.39844146 4.39609375 0 4.39609375"></polygon>
                </g>
                <g id="Clipped" transform="translate(6.7938, 7.1852)">
                    <mask id="mask-8" fill="white">
                        <use xlink:href="#path-7"></use>
                    </mask>
                    <g id="路径"></g>
                    <polygon id="路径" fill="#F7C5AA" fill-rule="nonzero" mask="url(#mask-8)" points="0 -3.9999622e-10 2.39844146 -3.9999622e-10 2.39844146 3.42265625 0 3.42265625"></polygon>
                </g>
                <g id="Clipped" transform="translate(5.8391, 10.325)">
                    <mask id="mask-10" fill="white">
                        <use xlink:href="#path-9"></use>
                    </mask>
                    <g id="形状"></g>
                    <polygon id="路径" fill="#FFFFFF" fill-rule="nonzero" mask="url(#mask-10)" points="0 0 4.32813215 0 4.32813215 2.22031251 0 2.22031251"></polygon>
                </g>
                <g id="Clipped" transform="translate(5.2169, 3.6141)">
                    <mask id="mask-12" fill="white">
                        <use xlink:href="#path-11"></use>
                    </mask>
                    <g id="路径"></g>
                    <polygon id="路径" fill="#FFDECC" fill-rule="nonzero" mask="url(#mask-12)" points="-4.17924777e-10 0 5.56600617 0 5.56600617 6.74531326 -4.17924777e-10 6.74531326"></polygon>
                </g>
                <g id="Clipped" transform="translate(4.6957, 6.7725)">
                    <mask id="mask-14" fill="white">
                        <use xlink:href="#path-13"></use>
                    </mask>
                    <g id="形状"></g>
                    <polygon id="路径" fill="#FFDECC" fill-rule="nonzero" mask="url(#mask-14)" points="-2.23344207e-11 -1.2972012e-11 6.60537201 -1.2972012e-11 6.60537201 1.3424918 -2.23344207e-11 1.3424918"></polygon>
                </g>
                <g id="Clipped" transform="translate(5.1926, 3.2239)">
                    <mask id="mask-16" fill="white">
                        <use xlink:href="#path-15"></use>
                    </mask>
                    <g id="路径"></g>
                    <polygon id="路径" fill="#768195" fill-rule="nonzero" mask="url(#mask-16)" points="1.86951216e-10 -3.36221346e-10 5.66903497 -3.36221346e-10 5.66903497 4.62613843 1.86951216e-10 4.62613843"></polygon>
                </g>
            </g>
        </g>
    </g>
</svg>