<?xml version="1.0" encoding="UTF-8"?>
  <svg version="1.1" width="100px" height="100px" viewBox="0 0 100.0 100.0" xmlns="http://www.w3.org/2000/svg" xmlns:xlink="http://www.w3.org/1999/xlink">
    <defs>
      <clipPath id="i0">
        <path d="M1280,0 L1280,2420 L0,2420 L0,0 L1280,0 Z"></path>
      </clipPath>
      <clipPath id="i1">
        <path d="M71.5625,0 C73.7695312,0 75.5175781,1.74804687 75.5175781,3.95507812 L75.5175781,7.55859375 L96.0351562,7.55859375 C98.2421875,7.55859375 99.9902344,9.30664063 99.9902344,11.5136719 L99.9902344,96.0449219 C100.107422,98.1347656 98.3691406,100 96.1621094,100 L3.95507812,100 C1.74804687,100 0,98.2519531 0,96.0449219 L0,11.5136719 C0,9.30664062 1.74804687,7.55859375 3.95507812,7.55859375 L24.5898437,7.55859375 L24.5898437,3.95507812 C24.5898437,1.74804687 26.3378906,0 28.5449219,0 C30.7519531,0 32.5,1.74804687 32.5,3.95507812 L32.5,7.55859375 L67.6074219,7.55859375 L67.6074219,3.95507812 C67.6074219,1.74804687 69.3554687,0 71.5625,0 Z M92.2070312,39.53125 L8.02734375,39.53125 L8.02734375,92.0898438 L92.2070312,92.0898438 L92.2070312,39.53125 Z M30.2050781,70.6542969 C30.8984375,70.6542969 31.4648438,71.2207031 31.4648438,71.9140625 L31.4648438,81.1230469 C31.4648438,81.8164062 30.8984375,82.3828125 30.2050781,82.3828125 L20.9960938,82.3828125 C20.3027344,82.3828125 19.7363281,81.8164062 19.7363281,81.1230469 L19.7363281,71.9140625 C19.7363281,71.2207031 20.3027344,70.6542969 20.9960938,70.6542969 L30.2050781,70.6542969 Z M54.5996094,70.6542969 C55.2929687,70.6542969 55.859375,71.2207031 55.859375,71.9140625 L55.859375,81.1230469 C55.859375,81.8164062 55.2929687,82.3828125 54.5996094,82.3828125 L45.390625,82.3828125 C44.6972656,82.3828125 44.1308594,81.8164062 44.1308594,81.1230469 L44.1308594,71.9140625 C44.1308594,71.2207031 44.6972656,70.6542969 45.390625,70.6542969 L54.5996094,70.6542969 Z M79.2285156,70.6542969 C79.921875,70.6542969 80.4882812,71.2207031 80.4882812,71.9140625 L80.4882812,81.1230469 C80.4882812,81.8164062 79.921875,82.3828125 79.2285156,82.3828125 L70.0195312,82.3828125 C69.3261719,82.3828125 68.7597656,81.8164062 68.7597656,81.1230469 L68.7597656,71.9140625 C68.7597656,71.2207031 69.3261719,70.6542969 70.0195312,70.6542969 L79.2285156,70.6542969 Z M30.2050781,49.2285156 C30.8984375,49.2285156 31.4648438,49.7949219 31.4648438,50.4882812 L31.4648438,59.6972656 C31.4648438,60.390625 30.8984375,60.9570313 30.2050781,60.9570313 L20.9960938,60.9570313 C20.3027344,60.9570313 19.7363281,60.390625 19.7363281,59.6972656 L19.7363281,50.4882812 C19.7363281,49.7949219 20.3027344,49.2285156 20.9960938,49.2285156 L30.2050781,49.2285156 Z M54.5996094,49.2285156 C55.2929687,49.2285156 55.859375,49.7949219 55.859375,50.4882812 L55.859375,59.6972656 C55.859375,60.390625 55.2929687,60.9570313 54.5996094,60.9570313 L45.390625,60.9570313 C44.6972656,60.9570313 44.1308594,60.390625 44.1308594,59.6972656 L44.1308594,50.4882812 C44.1308594,49.7949219 44.6972656,49.2285156 45.390625,49.2285156 L54.5996094,49.2285156 Z M79.2285156,49.2285156 C79.921875,49.2285156 80.4882812,49.7949219 80.4882812,50.4882812 L80.4882812,59.6972656 C80.4882812,60.390625 79.921875,60.9570313 79.2285156,60.9570313 L70.0195312,60.9570313 C69.3261719,60.9570313 68.7597656,60.390625 68.7597656,59.6972656 L68.7597656,50.4882812 C68.7597656,49.7949219 69.3261719,49.2285156 70.0195312,49.2285156 L79.2285156,49.2285156 Z M24.5898438,15.46875 L8.02734375,15.46875 L8.02734375,31.6308594 L92.2070312,31.6308594 L92.2070312,15.46875 L75.5273438,15.46875 L75.5273438,18.9550781 C75.6445312,21.1621094 73.7792969,23.0273438 71.5722656,23.0273438 C69.3652344,23.0273438 67.6171875,21.2792969 67.6171875,19.0722656 L67.6171875,15.46875 L32.5,15.46875 L32.5,18.9550781 C32.5,21.1621094 30.7519531,23.0273438 28.5449219,23.0273438 C26.3378906,23.0273438 24.5898438,21.2792969 24.5898438,19.0722656 L24.5898438,15.46875 Z"></path>
      </clipPath>
    </defs>
    <g transform="translate(-215.0 -320.0)">
      <g clip-path="url(#i0)">
        <g transform="translate(215.0 320.0)">
          <g clip-path="url(#i1)">
            <polygon points="0,0 99.9958298,0 99.9958298,100 0,100 0,0" stroke="none" fill="#999999"></polygon>
          </g>
        </g>
      </g>
    </g>
  </svg>