<?xml version="1.0" encoding="UTF-8"?>
<svg width="16px" height="16px" viewBox="0 0 16 16" version="1.1" xmlns="http://www.w3.org/2000/svg" xmlns:xlink="http://www.w3.org/1999/xlink">
    <title>复制</title>
    <g id="20231109" stroke="none" stroke-width="1" fill="none" fill-rule="evenodd">
        <g id="06-预览数据" transform="translate(-746, -135)" fill="#3B8FD9" fill-rule="nonzero">
            <g id="2-按钮/图标+文字" transform="translate(746, 135)">
                <g id="复制" transform="translate(0, 0)">
                    <path d="M10,8.38059004 L7.56,8.38059004 L7.56,5.94059004 C7.55999999,5.46562517 7.17496487,5.08059007 6.7,5.08059007 C6.22503513,5.08059007 5.84000001,5.46562517 5.84,5.94059004 L5.84,8.38059004 L3.4,8.38059004 C2.96342973,8.42787305 2.6326013,8.79646674 2.6326013,9.23559004 C2.6326013,9.67471335 2.96342973,10.043307 3.4,10.09059 L5.84,10.09059 L5.84,12.53059 C5.84000001,13.0055549 6.22503513,13.39059 6.7,13.39059 C7.17496487,13.39059 7.55999999,13.0055549 7.56,12.53059 L7.56,10.09059 L10,10.09059 C10.4365703,10.043307 10.7673987,9.67471335 10.7673987,9.23559004 C10.7673987,8.79646674 10.4365703,8.42787305 10,8.38059004 L10,8.38059004 Z M14.65,0.000590044199 L5,0.000590044199 C4.63415462,-0.0101835412 4.27940894,0.1269561 4.01594306,0.381012481 C3.75247719,0.635068863 3.60253261,0.984594826 3.6,1.35059004 L3.6,2.06059004 L5.28,2.06059004 L5.28,1.68059004 L13.93,1.68059004 C14.1398682,1.68059004 14.31,1.85072184 14.31,2.06059004 L14.31,10.85059 L13.84,10.85059 L13.84,12.53059 L14.65,12.53059 C15.3955844,12.53059 16,11.9261745 16,11.18059 L16,1.35059004 C15.9945542,0.607273027 15.393317,0.00603580879 14.65,0.000590044199 Z M12.05,2.47059004 L1.35,2.47059004 C0.604415588,2.47059004 0,3.07500563 0,3.82059004 L0,14.65059 C0.00544576459,15.3939071 0.606682983,15.9951443 1.35,16.00059 L12.05,16.00059 C12.793317,15.9951443 13.3945542,15.3939071 13.4,14.65059 L13.4,3.82059004 C13.4,3.07500563 12.7955844,2.47059004 12.05,2.47059004 Z M11.72,14.05059 C11.7146186,14.1957877 11.5952974,14.3105901 11.45,14.3105901 L2,14.3105901 C1.85470264,14.3105901 1.73538135,14.1957877 1.73,14.05059 L1.73,4.42059004 C1.73,4.27147316 1.85088312,4.15059004 2,4.15059004 L11.5,4.15059004 C11.6491169,4.15059004 11.77,4.27147316 11.77,4.42059004 L11.72,14.05059 Z"></path>
                </g>
            </g>
        </g>
    </g>
</svg>