<?xml version="1.0" encoding="UTF-8"?>
<svg width="16px" height="16px" viewBox="0 0 16 16" version="1.1" xmlns="http://www.w3.org/2000/svg" xmlns:xlink="http://www.w3.org/1999/xlink">
    <title>Fill 1</title>
    <g id="v1.1.0_20230417" stroke="none" stroke-width="1" fill="none" fill-rule="evenodd">
        <g id="Fill-1" transform="translate(-1174.000000, -118.000000)" fill="#3B8FD9">
            <g id="Fill-2" transform="translate(1174.000000, 118.000000)">
                <path d="M2.09283515,3.32806181 L13.7881813,3.32806181 L13.7881813,1.97385163 L2.09283515,1.97385163 L2.09283515,3.32806181 Z M2.09283515,14.0259552 L4.27915736,14.0259552 L4.27915736,5.42089696 L2.09283515,5.42089696 L2.09283515,14.0259552 Z M6.37179936,14.0259552 L13.7881813,14.0259552 L13.7881813,5.42089696 L6.37179936,5.42089696 L6.37179936,14.0259552 Z M1.7001509,15.9998068 C0.74673749,15.9998068 0,15.3052212 0,14.4184463 L0,1.58116738 C0,0.694585622 0.74673749,-3.55271368e-15 1.7001509,-3.55271368e-15 L14.2998491,-3.55271368e-15 C15.2530694,-3.55271368e-15 16,0.694585622 16,1.58116738 L16,14.4184463 C16,15.3052212 15.2530694,15.9998068 14.2998491,15.9998068 L1.7001509,15.9998068 Z" id="Fill-3"></path>
            </g>
        </g>
    </g>
</svg>