<?xml version="1.0" encoding="UTF-8"?>
<svg width="100px" height="100px" viewBox="0 0 100 100" version="1.1" xmlns="http://www.w3.org/2000/svg" xmlns:xlink="http://www.w3.org/1999/xlink">
    <g id="平台icon" stroke="none" stroke-width="1" fill="none" fill-rule="evenodd">
        <g transform="translate(-215.000000, -1020.000000)" fill-rule="nonzero" id="错误">
            <g transform="translate(215.000000, 1020.000000)">
                <rect id="矩形" fill="#000000" opacity="0" x="0" y="0" width="100" height="100"></rect>
                <path d="M50,0 C22.3828125,0 0,22.3828125 0,50 C0,77.6171875 22.3828125,100 50,100 C77.6171875,100 100,77.6074219 100,50 C100,22.3925781 77.6171875,0 50,0 Z M50,91.6210938 C27.0117188,91.6210938 8.37890625,72.9882812 8.37890625,50 C8.37890625,27.0117188 27.0214844,8.37890625 50,8.37890625 C72.9785156,8.37890625 91.6210938,27.0117188 91.6210938,50 C91.6210938,72.9882812 72.9882812,91.6210938 50,91.6210938 Z" id="形状" fill="#EC6A69"></path>
                <path d="M56.8652344,50 L69.8242188,37.0214844 C71.71875,35.1269531 71.71875,32.0507813 69.8242188,30.15625 C67.9296875,28.2617187 64.8535156,28.2617188 62.9589844,30.15625 L50,43.1347656 L37.03125,30.15625 C35.1367187,28.2617188 32.0605469,28.2617188 30.1660156,30.15625 C28.2714844,32.0507812 28.2714844,35.1269531 30.1660156,37.0214844 L43.1347656,50 L30.1757812,62.9785156 C28.28125,64.8730469 28.28125,67.9492188 30.1757812,69.84375 C32.0703125,71.7382812 35.1464844,71.7382812 37.0410156,69.84375 L50,56.8652344 L62.96875,69.84375 C64.8632812,71.7382812 67.9394531,71.7382812 69.8339844,69.84375 C71.7285156,67.9492188 71.7285156,64.8730469 69.8339844,62.9785156 L56.8652344,50 Z" id="路径" fill="#EC6A69"></path>
            </g>
        </g>
    </g>
</svg>