<?xml version="1.0" encoding="UTF-8"?>
<svg width="100px" height="100px" viewBox="0 0 100 100" version="1.1" xmlns="http://www.w3.org/2000/svg" xmlns:xlink="http://www.w3.org/1999/xlink">
    <g id="平台icon" stroke="none" stroke-width="1" fill="none" fill-rule="evenodd">
        <g transform="translate(-1115.000000, -740.000000)" fill-rule="nonzero" id="女">
            <g transform="translate(1115.000000, 740.000000)">
                <rect id="矩形" fill="#000000" opacity="0" x="0" y="0" width="100" height="100"></rect>
                <path d="M84.4628906,37.4902344 C84.4628906,18.4863281 68.9941406,3.02734375 50,3.02734375 C30.9960937,3.02734375 15.5371094,18.4863281 15.5371094,37.4902344 C15.5371094,54.8925781 28.515625,69.2871094 45.2929687,71.5917969 L45.2929687,75.8007812 L32.0117187,75.8007812 C29.4140625,75.8007812 27.3144531,77.9003906 27.3144531,80.4980469 C27.3144531,83.0957031 29.4140625,85.1953125 32.0117187,85.1953125 L45.3027344,85.1953125 L45.3027344,92.2753906 C45.3027344,94.8730469 47.4023437,96.9726562 50,96.9726562 C52.5976562,96.9726562 54.6972656,94.8730469 54.6972656,92.2753906 L54.6972656,85.1953125 L67.9882812,85.1953125 C70.5859375,85.1953125 72.6855469,83.0957031 72.6855469,80.4980469 C72.6855469,77.9003906 70.5859375,75.8007812 67.9882812,75.8007812 L54.6972656,75.8007812 L54.6972656,71.5820312 C71.4746094,69.2773438 84.4628906,54.8828125 84.4628906,37.4902344 Z M24.9414062,37.4902344 C24.9414062,23.671875 36.1816406,12.4316406 50,12.4316406 C63.8183594,12.4316406 75.0585937,23.671875 75.0585937,37.4902344 C75.0585937,51.3085938 63.8183594,62.5488281 50,62.5488281 C36.1816406,62.5488281 24.9414062,51.3085938 24.9414062,37.4902344 Z" id="形状" fill="#F1949F"></path>
            </g>
        </g>
    </g>
</svg>