<?xml version="1.0" encoding="UTF-8"?>
  <svg version="1.1" width="100px" height="100px" viewBox="0 0 100.0 100.0" xmlns="http://www.w3.org/2000/svg" xmlns:xlink="http://www.w3.org/1999/xlink">
    <defs>
      <clipPath id="i2">
        <path d="M1280,0 L1280,2420 L0,2420 L0,0 L1280,0 Z"></path>
      </clipPath>
      <clipPath id="i3">
        <path d="M47.6682666,0.604909858 C49.1137191,-0.201636619 50.8814686,-0.201636619 52.3269211,0.604909858 L79.243592,18.3003452 L79.243592,10.3514896 C79.243592,8.0581767 81.1090071,6.20214806 83.413918,6.20214806 C85.7188289,6.20214806 87.584244,8.0581767 87.584244,10.3514896 L87.584244,23.7809743 L98.1223746,30.7095001 C100.046389,31.9824831 100.583551,34.5673188 99.3041297,36.5010868 C99.2943632,36.5108042 99.2943632,36.5205217 99.2845966,36.5302391 C98.0247089,38.4348549 95.4561006,38.9693134 93.5418526,37.7157652 L91.7350369,36.5302391 L91.7350369,87.8674083 C91.7350369,91.7932489 88.199538,95 83.8436471,95 L16.2296731,95 C11.8737822,95 8.33828338,91.8029664 8.33828338,87.8674083 L8.33828338,36.4719345 L6.4533351,37.7157652 C6.44356853,37.7157652 6.42403538,37.7254827 6.41426881,37.7352001 C4.49025424,38.9693134 1.92164595,38.41542 0.681291379,36.5010868 C-0.578596336,34.5673188 -0.0414349074,31.9824831 1.88257967,30.7095001 Z M50.0415434,54.3034139 C40.9488654,54.3034139 33.5555708,61.6692239 33.3895391,70.764736 C33.3895391,70.8619102 33.3602394,70.9590845 33.3602394,71.0659762 L33.3602394,86.6138601 L66.7228474,86.6138601 L66.7228474,71.0659762 C66.7228474,70.9590845 66.6935477,70.8619102 66.6935477,70.764736 C66.527516,61.6692239 59.1342214,54.3034139 50.0415434,54.3034139 Z"></path>
      </clipPath>
    </defs>
    <g transform="translate(-815.0 -1860.0)">
      <g clip-path="url(#i2)">
        <g transform="translate(815.0 1860.0)">
          <g transform="translate(0.0 2.500056784607523)">
            <g clip-path="url(#i3)">
              <polygon points="-6.66133815e-16,0 100,0 100,95 -6.66133815e-16,95 -6.66133815e-16,0" stroke="none" fill="#666666"></polygon>
            </g>
          </g>
        </g>
      </g>
    </g>
  </svg>
