<?xml version="1.0" encoding="UTF-8"?>
<svg width="100px" height="100px" viewBox="0 0 100 100" version="1.1" xmlns="http://www.w3.org/2000/svg" xmlns:xlink="http://www.w3.org/1999/xlink">
    <g id="平台icon" stroke="none" stroke-width="1" fill="none" fill-rule="evenodd">
        <g transform="translate(-665.000000, -1020.000000)" fill-rule="nonzero" id="信息">
            <g transform="translate(665.000000, 1020.000000)">
                <rect id="矩形" fill="#000000" opacity="0" x="0" y="0" width="100" height="100"></rect>
                <path d="M50,0 C22.3828125,0 0,22.3828125 0,50 C0,77.6171875 22.3828125,100 50,100 C77.6171875,100 100,77.6171875 100,50 C100,22.3828125 77.6171875,0 50,0 Z M50,91.6210938 C27.0117188,91.6210938 8.37890625,72.9882812 8.37890625,50 C8.37890625,27.0117188 27.0214844,8.37890625 50,8.37890625 C72.9785156,8.37890625 91.6210938,27.0117188 91.6210938,50 C91.6210938,72.9882812 72.9882812,91.6210938 50,91.6210938 Z" id="形状" fill="#45A8E6"></path>
                <path d="M55.1171875,41.1035156 L55.1171875,72.734375 C55.1171875,75.9765625 53.4960937,77.5878906 50.2636719,77.5878906 C47.03125,77.5878906 45.4101562,75.9667969 45.4101562,72.734375 L45.4101562,41.1035156 C45.4101562,37.8613281 47.03125,36.25 50.2636719,36.25 C53.4960938,36.25 55.1171875,37.8710938 55.1171875,41.1035156 L55.1171875,41.1035156 Z" id="路径" fill="#45A8E6"></path>
                <path d="M44.0722656,36.2402344 L50.15625,36.2402344 C53.3886719,36.2402344 55.0097656,37.8613281 55.0097656,41.09375 C55.0097656,44.3359375 53.3886719,45.9472656 50.15625,45.9472656 L44.0722656,45.9472656 C40.8398437,45.9472656 39.21875,44.3261719 39.21875,41.09375 C39.21875,37.8515625 40.8398438,36.2402344 44.0722656,36.2402344 Z M42.6464844,70.4003906 L57.3632812,70.4003906 C60.5175781,70.4003906 62.0996094,71.9824219 62.0996094,75.1367188 C62.0996094,78.3007812 60.5175781,79.8730469 57.3632812,79.8730469 L42.6464844,79.8730469 C39.4921875,79.8730469 37.9101562,78.2910156 37.9101562,75.1367188 C37.9101562,71.9824219 39.4824219,70.4003906 42.6464844,70.4003906 Z M41.796875,26.4746094 C41.796875,29.9804688 44.6386719,32.8320313 48.1445312,32.8320313 C51.6503906,32.8320313 54.4921875,29.9902344 54.4921875,26.4746094 C54.4921875,22.96875 51.6503906,20.1171875 48.1445312,20.1171875 C44.6484375,20.1171875 41.796875,22.9589844 41.796875,26.4746094 Z" id="形状" fill="#45A8E6"></path>
            </g>
        </g>
    </g>
</svg>