<?xml version="1.0" encoding="UTF-8"?>
<svg width="100px" height="100px" viewBox="0 0 100 100" version="1.1" xmlns="http://www.w3.org/2000/svg" xmlns:xlink="http://www.w3.org/1999/xlink">
    <g id="平台icon" stroke="none" stroke-width="1" fill="none" fill-rule="evenodd">
        <g transform="translate(-965.000000, -740.000000)" fill-rule="nonzero" id="男">
            <g transform="translate(965.000000, 740.000000)">
                <rect id="矩形" fill="#000000" opacity="0" x="0" y="0" width="100" height="100"></rect>
                <path d="M89.2675781,11.9628906 C88.4179688,11.0644531 87.2265625,10.4980469 85.8886719,10.4980469 L67.7539062,10.4980469 C65.1660156,10.4980469 63.0664062,12.5976562 63.0664062,15.1855469 C63.0664062,17.7734375 65.1660156,19.8730469 67.7539062,19.8730469 L75.0585937,19.8730469 L65.9765625,28.9550781 C59.9609375,23.8085938 52.1777344,20.6835938 43.6621094,20.6835938 C24.6875,20.6835938 9.2578125,36.1132813 9.2578125,55.0878906 C9.2578125,74.0527344 24.6875,89.4921875 43.6621094,89.4921875 C62.6269531,89.4921875 78.0664062,74.0527344 78.0664062,55.0878906 C78.0664062,48.0078125 75.9179687,41.4355469 72.2363281,35.9570313 L81.3476562,26.8457031 L81.3476562,33.4765625 C81.3476562,36.0644531 83.4472656,38.1640625 86.0351562,38.1640625 C88.6230469,38.1640625 90.7231377,36.0644531 90.7231377,33.4765625 L90.7231377,15.3515625 C90.7421875,14.0136719 90.1660156,12.8222656 89.2675781,11.9628906 L89.2675781,11.9628906 Z M43.6621094,80.1171875 C29.8632813,80.1171875 18.6425781,68.8964844 18.6425781,55.0976563 C18.6425781,41.2988281 29.8632813,30.078125 43.6621094,30.078125 C57.4609375,30.078125 68.681647,41.2988281 68.681647,55.0976563 C68.6914063,68.8964844 57.4609375,80.1171875 43.6621094,80.1171875 L43.6621094,80.1171875 Z" id="形状" fill="#198EEB"></path>
            </g>
        </g>
    </g>
</svg>