<?xml version="1.0" encoding="UTF-8"?><svg version="1.1" width="100px" height="100px" viewBox="0 0 100.0 100.0" xmlns="http://www.w3.org/2000/svg" xmlns:xlink="http://www.w3.org/1999/xlink"><defs><clipPath id="i0"><path d="M1280,0 L1280,2420 L0,2420 L0,0 L1280,0 Z"></path></clipPath><clipPath id="i1"><path d="M50,0 C77.5703125,0 100,22.4296875 100,50 C100,77.5703125 77.5703125,100 50,100 C22.4296875,100 0,77.5703125 0,50 C0,22.4296875 22.4296875,0 50,0 Z M50,9.99902344 C27.9443359,9.99902344 10,27.9433594 10,49.9990234 C10,72.0546875 27.9443359,90.0009766 50,90.0009766 C72.0556641,90.0009766 90.0009766,72.0556641 90.0009766,50 C90.0009766,27.9443359 72.0556641,9.99902344 50,9.99902344 Z"></path></clipPath><clipPath id="i2"><path d="M45.0195696,0 C46.343863,0 47.6136336,0.527396501 48.5482162,1.46564408 C49.4827987,2.40389166 50.0052317,3.67571676 50.0000767,5 C50.0000767,7.76171875 47.721718,10 45.0195696,10 L4.9805071,10 C3.65621368,10 2.38644306,9.4726035 1.45186051,8.53435592 C0.517277959,7.59610834 -0.00515495636,6.32428324 0,5 C0,2.23828125 2.27835866,0 4.9805071,0 L45.0195696,0 Z"></path></clipPath></defs><g transform="translate(-515.0 -600.0)"><g clip-path="url(#i0)"><g transform="translate(515.0 600.0)"><g clip-path="url(#i1)"><polygon points="0,0 100,0 100,100 0,100 0,0" stroke="none" fill="#EC6969"></polygon></g><g transform="translate(24.99996164879594 44.99999999999999)"><g clip-path="url(#i2)"><polygon points="-3.77895125e-05,0 50.0001145,0 50.0001145,10 -3.77895125e-05,10 -3.77895125e-05,0" stroke="none" fill="#EC6969"></polygon></g></g></g></g></g></svg>