<?xml version="1.0" encoding="UTF-8"?>
<svg width="62px" height="50px" viewBox="0 0 62 50" version="1.1" xmlns="http://www.w3.org/2000/svg" xmlns:xlink="http://www.w3.org/1999/xlink">
    <title>Page 1</title>
    <g id="9-列表&amp;表格" stroke="none" stroke-width="1" fill="none" fill-rule="evenodd">
        <g id="03-空页面提示" transform="translate(-482.000000, -552.000000)">
            <g id="编组-10" transform="translate(145.000000, 396.000000)">
                <g id="Group-7" transform="translate(337.500000, 156.500000)">
                    <g id="Page-1" transform="translate(0.423029, 0.500000)">
                        <polygon id="Fill-1" fill="#C8C8C8" points="31.3337647 -3.91050192e-05 31.3337647 16.4889833 52.5443529 8.12676597"></polygon>
                        <polygon id="Fill-2" fill="#D3D3D3" points="31.3337647 -3.91050192e-05 6.47101961 8.12676597 5.98631373 8.91121266 26.5282745 18.3847946 31.3337647 16.4889833"></polygon>
                        <polygon id="Fill-3" fill="#F4F4F4" points="26.5281176 47.8324773 53.6069412 36.2863294 54.0085991 21.1030227 31.0849804 30.5652651 26.5281176 18.2462148"></polygon>
                        <polygon id="Fill-4" fill="#EAEAEA" points="26.2330588 18.5027744 26.5279608 18.9341028 31.0848235 30.5654997 59.7569804 19.2414683 52.5444314 8.12664866"></polygon>
                        <polygon id="Fill-5" fill="#DDDDDD" points="22.430218 30.3412458 6.078 20.561031 6.078 35.8937932 26.5281961 47.570943 26.5281961 18.2776667"></polygon>
                        <polygon id="Fill-6" fill="#EAEAEA" points="0 17.3649357 22.4364706 30.5718738 26.5282353 18.3847946 5.98627451 8.91121266"></polygon>
                    </g>
                </g>
            </g>
        </g>
    </g>
</svg>