<?xml version="1.0" encoding="UTF-8"?>
<svg width="16px" height="16px" viewBox="0 0 16 16" version="1.1" xmlns="http://www.w3.org/2000/svg" xmlns:xlink="http://www.w3.org/1999/xlink">
    <title>dayin</title>
    <g id="v1.3.0_20230720" stroke="none" stroke-width="1" fill="none" fill-rule="evenodd">
        <g id="01-单据打印管理" transform="translate(-1174.000000, -417.000000)" fill="#3B8FD9" fill-rule="nonzero">
            <g id="dayin" transform="translate(1174.000000, 417.000000)">
                <path d="M13.6470312,3.7646875 L13.4870312,3.7646875 L13.4870312,2.35296875 C13.4866001,1.05363864 12.4333926,0.000431198425 11.1340625,0 L4.8659375,0 C3.56660739,0.000431198425 2.51339995,1.05363864 2.51296875,2.35296875 L2.51296875,3.7646875 L2.35296875,3.7646875 C1.05363864,3.7651187 0.000431198425,4.81832614 0,6.11765625 L0,9.88234375 C0.000431198425,11.1816739 1.05363864,12.2348813 2.35296875,12.2353125 L2.51296875,12.2353125 L2.51296875,13.6470313 C2.51339995,14.9463614 3.56660739,15.9995688 4.8659375,16 L11.1340625,16 C12.4333926,15.9995688 13.4866001,14.9463614 13.4870312,13.6470312 L13.4870312,12.2353125 L13.6470312,12.2353125 C14.9463614,12.2348813 15.9995688,11.1816739 16,9.88234375 L16,6.11765625 C15.9995688,4.81832614 14.9463614,3.7651187 13.6470312,3.7646875 Z M4.7059375,2.35296875 C4.70846704,2.26567242 4.77864117,2.19549829 4.8659375,2.19296245 L11.1340625,2.19296245 C11.1766122,2.19258976 11.2175294,2.20932513 11.2476178,2.23941349 C11.2777061,2.26950186 11.2944415,2.31041906 11.2940688,2.35296875 L11.2940688,3.7646875 L4.7059375,3.7646875 L4.7059375,2.35296875 Z M11.7646875,13.6470313 C11.7646875,13.9953158 11.4823471,14.2776562 11.1340625,14.2776562 L4.8659375,14.2776562 C4.51765293,14.2776562 4.2353125,13.9953158 4.2353125,13.6470312 L4.2353125,9.25171875 C4.2353125,8.91296875 4.51765625,8.630625 4.8659375,8.630625 L11.1340625,8.630625 C11.4823437,8.630625 11.7646875,8.91296875 11.7646875,9.25171875 L11.7646875,13.6470313 Z M13.8070313,9.88234375 C13.8044247,9.96960682 13.7342943,10.0397372 13.6470312,10.0423438 L13.4870312,10.0423438 L13.4870312,9.25171875 C13.4870312,7.96234375 12.4329687,6.89890625 11.1340625,6.89890625 L4.8659375,6.89890625 C3.56703125,6.89890625 2.51296875,7.96234375 2.51296875,9.25171875 L2.51296875,10.0423438 L2.35296875,10.0423438 C2.26570568,10.0397372 2.19557534,9.96960682 2.19296875,9.88234375 L2.19296875,6.11765625 C2.19557534,6.03039318 2.26570568,5.96026284 2.35296875,5.95765625 L13.6470313,5.95765625 C13.7342943,5.96026284 13.8044247,6.03039318 13.8070313,6.11765625 L13.8070313,9.88234375 Z M8.630625,11.7646875 L6.11765625,11.7646875 C5.76937168,11.7646875 5.48703125,12.0470279 5.48703125,12.3953125 C5.48703125,12.7342188 5.769375,13.0165627 6.11765625,13.0165627 L8.630625,13.0165627 C8.79541453,13.016687 8.95348823,12.9512691 9.0699974,12.8347306 C9.18650658,12.7181921 9.25188475,12.560102 9.25171907,12.3953125 C9.25171907,12.046875 8.97875,11.7646875 8.630625,11.7646875 L8.630625,11.7646875 Z M9.88234375,9.88234375 L6.11765625,9.88234375 C5.76937168,9.88234375 5.48703125,10.1646842 5.48703125,10.5129688 C5.48703125,10.8517187 5.769375,11.1340625 6.11765625,11.1340625 L9.88234375,11.1340625 C10.230625,11.1340625 10.5129688,10.8517187 10.5129688,10.5129688 C10.5129688,10.1646842 10.2306283,9.88234375 9.88234375,9.88234375 Z" id="形状"></path>
            </g>
        </g>
    </g>
</svg>