<?xml version="1.0" encoding="UTF-8"?>
<svg width="100px" height="100px" viewBox="0 0 100 100" version="1.1" xmlns="http://www.w3.org/2000/svg" xmlns:xlink="http://www.w3.org/1999/xlink">
    <g id="平台icon" stroke="none" stroke-width="1" fill="none" fill-rule="evenodd">
        <g transform="translate(-815.000000, -1020.000000)" fill-rule="nonzero" id="疑问">
            <g transform="translate(815.000000, 1020.000000)">
                <rect id="矩形" fill="#000000" opacity="0" x="0" y="0" width="100" height="100"></rect>
                <path d="M50,0 C22.3828125,0 0,22.3828125 0,50 C0,77.6171875 22.3828125,100 50,100 C77.6171875,100 100,77.6074219 100,50 C100,22.3925781 77.6171875,0 50,0 Z M50,91.6210938 C27.0117188,91.6210938 8.37890625,72.9882812 8.37890625,50 C8.37890625,27.0117188 27.0214844,8.37890625 50,8.37890625 C72.9785156,8.37890625 91.6210938,27.0117188 91.6210938,50 C91.6210938,72.9882812 72.9882812,91.6210938 50,91.6210938 Z" id="形状" fill="#24BEE8"></path>
                <path d="M50.6054688,78.203125 C48.0078125,78.203125 45.8984375,76.09375 45.8984375,73.4863281 C45.8984375,70.8789062 48.0078125,68.7792969 50.6152344,68.7792969 C53.2128906,68.7792969 55.3222656,70.8886719 55.3222656,73.4960937 C55.3222656,74.7460937 54.8242188,75.9472656 53.9453125,76.8261719 C53.0566406,77.7148438 51.8554688,78.2128906 50.6054688,78.203125 Z M54.5117188,57.8027344 L54.4433594,63.1054687 C54.4433594,63.9355469 53.3398438,65.078125 52.4804688,65.5957031 C51.7675781,66.0253906 50.5859375,66.1523437 49.7460938,66.1523437 C48.0078125,66.1523437 45.9472656,64.7460937 45.9472656,63.0078125 L45.9472656,57.6855469 C45.9472656,52.9882812 48.7109375,49.7167969 51.8945313,45.9863281 C54.140625,43.3496094 55.7421875,42.0117187 56.6601562,39.3359375 C58.4082031,34.2382812 55.5957031,30.1074219 50.1074219,30.2929687 C44.8242187,30.4785156 43.0664062,34.2773437 42.8222656,37.4804687 C42.5585937,40.9375 39.7460937,41.40625 37.9101562,41.3378906 C36.2109375,41.2792969 34.1796875,39.3359375 34.2285156,37.6367187 C34.5703125,27.0898437 40.8984375,22.265625 49.5410156,21.8164062 C58.2617188,21.3574219 66.8164062,27.5390625 65.6640625,38.7304687 C65.1855469,43.4179687 62.0117188,46.953125 59.0722656,50.078125 C59.0722656,50.078125 54.7363281,54.0625 54.5117187,57.8027344 L54.5117188,57.8027344 Z" id="形状" fill="#24BEE8"></path>
            </g>
        </g>
    </g>
</svg>