<?xml version="1.0" encoding="UTF-8"?>
<svg width="100px" height="100px" viewBox="0 0 100 100" version="1.1" xmlns="http://www.w3.org/2000/svg" xmlns:xlink="http://www.w3.org/1999/xlink">
    <g id="平台icon" stroke="none" stroke-width="1" fill="none" fill-rule="evenodd">
        <g transform="translate(-1115.000000, -460.000000)" fill-rule="nonzero" id="搜索">
            <g transform="translate(1115.000000, 460.000000)">
                <rect id="矩形" fill="#000000" opacity="0" x="0" y="0" width="100" height="100"></rect>
                <path d="M97.5332344,85.9702658 L71.4999849,60.503381 C75.9820785,54.2538388 78.6283691,46.6665039 78.6283691,38.4737446 C78.6283691,17.2643605 60.9929421,0 39.3148423,0 C17.6367425,0 0.00131542969,17.2741254 0.00131542969,38.4835095 C0.00131542969,59.6928935 17.6367425,76.9572541 39.3148423,76.9572541 C46.2869879,76.9572541 53.1321896,75.131216 59.1669039,71.6451431 C59.2157284,71.6939677 59.2450231,71.7427923 59.2938477,71.7916168 L85.668869,97.5905085 C88.9694086,100.803164 94.2326949,100.803164 97.5332344,97.5905085 C100.736125,94.4852672 100.824009,89.3586895 97.7090028,86.1557991 C97.6601783,86.0874447 97.5918239,86.0288553 97.5332344,85.9702658 Z M14.3850275,38.4835095 C14.3850275,25.0274638 25.5658492,14.0907648 39.3148423,14.0907648 C53.0638353,14.0907648 64.2446569,25.0274638 64.2446569,38.4835095 C64.2446569,51.9395552 53.0638352,62.8762542 39.3148423,62.8762542 C25.5658493,62.8762542 14.3850275,51.9395553 14.3850275,38.4835095 Z" id="形状" fill="#CCCCCC"></path>
            </g>
        </g>
    </g>
</svg>