<?xml version="1.0" encoding="UTF-8"?>
<svg width="100px" height="100px" viewBox="0 0 100 100" version="1.1" xmlns="http://www.w3.org/2000/svg" xmlns:xlink="http://www.w3.org/1999/xlink">
    <g id="平台icon" stroke="none" stroke-width="1" fill="none" fill-rule="evenodd">
        <g transform="translate(-1115.000000, -1300.000000)" fill-rule="nonzero" id="设置">
            <g transform="translate(1115.000000, 1300.000000)">
                <rect id="矩形" fill="#000000" opacity="0" x="0" y="0" width="100" height="100"></rect>
                <path d="M43.325,91.2 C47.50625,91.8 51.75625,91.8 55.9375,91.2 C58.16875,86.09375 62.0625,81.825 67.025,79.05 C72.0051602,76.2833747 77.7299964,75.1550266 83.3875,75.825 C86.0233444,72.6332489 88.1620441,69.0617257 89.73125,65.23125 C82.6530108,56.2242265 82.6530108,43.5445235 89.73125,34.5375 C88.1615303,30.7072816 86.022875,27.1358326 83.3875,23.94375 C77.7294347,24.6092565 72.0053421,23.4788684 67.025,20.7125 C62.1002431,17.9835693 58.2056293,13.71574 55.9375,8.5625 C51.7527138,7.96155983 47.5035362,7.96155983 43.31875,8.5625 C41.0875,13.675 37.19375,17.9375 32.23125,20.7125 C27.2535886,23.4799845 21.531107,24.6104862 15.875,23.94375 C13.2365583,27.1348147 11.0957016,30.7064211 9.525,34.5375 C16.6022301,43.5425399 16.6022301,56.2199601 9.525,65.225 C11.0875,69.04375 13.225,72.61875 15.875,75.825 C21.530561,75.1533614 27.2539202,76.2818495 32.23125,79.05 C37.1578943,81.7794341 41.0529319,86.0499235 43.31875,91.20625 L43.325,91.2 Z M49.63125,99.73125 C46.2014948,99.7309419 42.7796422,99.4023604 39.4125,98.75 L36.99375,98.275 L36.24375,95.99375 C34.8716194,91.7638777 31.945471,88.212293 28.05625,86.05625 C24.1196774,83.8670791 19.5203455,83.1871778 15.11875,84.14375 L12.7125,84.65625 L11.0875,82.875 C6.52733532,77.9197895 3.03423872,72.0802339 0.825,65.71875 L0.04375,63.45625 L1.70625,61.7 C4.76875,58.48125 6.48125,54.2625 6.48125,49.8875 C6.48125,45.5 4.775,41.28125 1.70625,38.0625 L0.04375,36.3125 L0.825,34.04375 C3.03472473,27.6824929 6.52776505,21.8430315 11.0875,16.8875 L12.7125,15.1125 L15.11875,15.625 C19.5202469,16.58449 24.120616,15.9044354 28.05625,13.7125 C31.9474253,11.5571836 34.8757873,8.00562324 36.25,3.775 L37,1.5 L39.41875,1.025 C46.16875,-0.2875 53.10625,-0.2875 59.85625,1.025 L62.275,1.5 L63.01875,3.78125 C65.79375,12.4625 74.99375,17.6125 84.15,15.625 L86.55,15.1125 L88.175,16.89375 C92.7365476,21.8490392 96.2316827,27.6884462 98.44375,34.05 L99.225,36.3125 L97.55625,38.0625 C94.5032164,41.2434963 92.7931137,45.4784626 92.78125,49.8875 C92.78125,54.2625 94.48125,58.4625 97.5625,61.7125 L99.225,63.4625 L98.44375,65.73125 C96.2330938,72.0902106 92.7401118,77.9274473 88.18125,82.88125 L86.55625,84.6625 L84.15625,84.15 C79.7526483,83.1924342 75.1510115,83.8723477 71.2125,86.0625 C67.3201812,88.2180656 64.3899068,91.7692366 63.0125,96 L62.275,98.28125 L59.85625,98.75625 C56.4894758,99.4118493 53.0675113,99.7425345 49.6375,99.74375 L49.63125,99.73125 Z M49.63125,37.75625 C42.7125,37.75625 37.1125,43.1875 37.10625,49.88125 C37.10625,56.56875 42.73125,62.00625 49.63125,62.00625 C56.5375,62.00625 62.15625,56.56875 62.15625,49.88125 C62.15625,43.19375 56.5375,37.75625 49.63125,37.75625 Z M49.63125,70.09375 C38.11875,70.09375 28.75625,61.03125 28.75625,49.88125 C28.75625,38.7375 38.11875,29.66875 49.63125,29.66875 C61.14375,29.66875 70.50625,38.73125 70.50625,49.88125 C70.50625,61.03125 61.14375,70.09375 49.63125,70.09375 Z" id="形状" fill="#198EEB"></path>
            </g>
        </g>
    </g>
</svg>