<?xml version="1.0" encoding="UTF-8"?>
<svg width="100px" height="100px" viewBox="0 0 100 100" version="1.1" xmlns="http://www.w3.org/2000/svg" xmlns:xlink="http://www.w3.org/1999/xlink">
    <g id="平台icon" stroke="none" stroke-width="1" fill="none" fill-rule="evenodd">
        <g transform="translate(-65.000000, -1020.000000)" fill-rule="nonzero" id="未知">
            <g transform="translate(65.000000, 1020.000000)">
                <rect id="矩形" fill="#000000" opacity="0" x="0" y="0" width="100" height="100"></rect>
                <path d="M70.9960937,15.4199219 C67.6757812,11.4941406 61.328125,6.82617188 49.921875,6.82617188 C30.6640625,6.82617188 23.828125,20.8886719 23.828125,32.9199219 C23.828125,35.5078125 25.9277344,37.6171875 28.5253906,37.6171875 C31.1230469,37.6171875 33.2226562,35.5175781 33.2226562,32.9199219 C33.2226562,27.9003906 34.8535156,16.2109375 49.9316406,16.2109375 C56.1035156,16.2109375 60.9179687,18.0371094 63.8378906,21.484375 C66.25,24.3261719 67.2460937,28.2128906 66.5917969,32.1484375 C65.2441406,40.1953125 62.7929687,42.2851563 55.6054687,46.6796875 C46.1132812,52.4707031 44.5117187,57.96875 44.5117187,68.0957031 C44.5117187,70.6835938 46.6113281,72.7929688 49.2089844,72.7929688 C51.796875,72.7929688 53.90625,70.6933594 53.90625,68.0957031 C53.90625,59.9511719 54.7753906,58.1933594 60.5078125,54.6875 C68.7109375,49.6777344 73.8378906,45.7617188 75.859375,33.6914063 C76.9628906,27.0410156 75.1953125,20.3808594 70.9960937,15.4199219 Z M49.1992188,78.7890625 C45.2246094,78.7890625 42.0019531,82.0117187 42.0019531,85.9863281 C42.0019531,89.9609375 45.2246094,93.1835938 49.1992188,93.1835938 C53.1738281,93.1835938 56.3964844,89.9609375 56.3964844,85.9863281 C56.3964844,82.0019531 53.1738281,78.7890625 49.1992188,78.7890625 Z" id="形状" fill="#999999"></path>
            </g>
        </g>
    </g>
</svg>