<?xml version="1.0" encoding="UTF-8"?>
<svg width="16px" height="16px" viewBox="0 0 16 16" version="1.1" xmlns="http://www.w3.org/2000/svg" xmlns:xlink="http://www.w3.org/1999/xlink">
    <title>API管理</title>
    <g id="平台icon231127" stroke="none" stroke-width="1" fill="none" fill-rule="evenodd">
        <g id="平台icon231128" transform="translate(-280, -136)">
            <g id="API管理" transform="translate(280.0002, 136)">
                <rect id="_mockplus_fix_" x="0" y="0" width="16" height="16"></rect>
                <path d="M16,4.7 L16,14.5 C16,15.0522847 15.5522847,15.5 15,15.5 L1,15.5 C0.44771525,15.5 6.76353751e-17,15.0522847 0,14.5 L0,4.7 L16,4.7 Z M5.40930957,7.1 L3.8630911,7.1 L1.9,12.5761904 L3.09756136,12.5761904 L3.5523315,11.218979 L5.68975115,11.218979 L6.13694179,12.5761904 L7.35724166,12.5761904 L5.40930957,7.1 Z M9.63458712,7.1 L7.83824508,7.1 L7.83824508,12.5761904 L8.99032943,12.5761904 L8.99032943,10.8875669 L9.63458712,10.8875669 C10.0034562,10.8875669 10.3192688,10.8546887 10.5820249,10.7889323 C10.844781,10.7231759 11.0595336,10.6140204 11.2262826,10.4614656 C11.3930317,10.3089108 11.5143037,10.1103266 11.5900987,9.86571288 C11.6658937,9.62109919 11.7037913,9.31993502 11.7037913,8.96222037 C11.7037913,8.63080827 11.6696835,8.34805589 11.601468,8.11396321 C11.5332525,7.87987054 11.4195599,7.68786194 11.2603904,7.53793742 C11.1012208,7.3880129 10.8889948,7.2775422 10.6237122,7.20652532 C10.3584296,7.13550844 10.0287212,7.1 9.63458712,7.1 Z M13.4,7.1 L12.2479156,7.1 L12.2479156,12.5761904 L13.4,12.5761904 L13.4,7.1 Z M4.67409784,8.14947165 L5.35625305,10.2247427 L3.8858296,10.2247427 L4.58314382,8.14947165 L4.67409784,8.14947165 Z M9.48299695,8.04689171 C9.67501101,8.04689171 9.83797031,8.06267324 9.97187485,8.0942363 C10.1057794,8.12579936 10.2144189,8.17840445 10.2977935,8.25205159 C10.381168,8.32569872 10.4405407,8.42301815 10.4759118,8.54400986 C10.5112828,8.66500158 10.5289683,8.81229585 10.5289683,8.98589267 C10.5289683,9.1700105 10.5112828,9.32125015 10.4759118,9.43961161 C10.4405407,9.55797308 10.381168,9.65397737 10.2977935,9.72762451 C10.2144189,9.80127164 10.1070426,9.85256161 9.9756646,9.88149441 C9.84428656,9.91042721 9.68006401,9.92489362 9.48299695,9.92489362 L8.9903293,9.92489362 L8.9903293,8.04689171 L9.48299695,8.04689171 Z M15,0.5 C15.5522847,0.5 16,0.94771525 16,1.5 L16,3.5 L0,3.5 L0,1.5 C-6.76353751e-17,0.94771525 0.44771525,0.5 1,0.5 L15,0.5 Z M2.2,1.3 L1.2,1.3 C1.08954305,1.3 1,1.38954305 1,1.5 L1,2.5 C1,2.61045695 1.08954305,2.7 1.2,2.7 L2.2,2.7 C2.31045695,2.7 2.4,2.61045695 2.4,2.5 L2.4,1.5 C2.4,1.38954305 2.31045695,1.3 2.2,1.3 Z M4.4,1.3 L3.4,1.3 C3.28954305,1.3 3.2,1.38954305 3.2,1.5 L3.2,2.5 C3.2,2.61045695 3.28954305,2.7 3.4,2.7 L4.4,2.7 C4.51045695,2.7 4.6,2.61045695 4.6,2.5 L4.6,1.5 C4.6,1.38954305 4.51045695,1.3 4.4,1.3 Z M6.6,1.3 L5.6,1.3 C5.48954305,1.3 5.4,1.38954305 5.4,1.5 L5.4,2.5 C5.4,2.61045695 5.48954305,2.7 5.6,2.7 L6.6,2.7 C6.71045695,2.7 6.8,2.61045695 6.8,2.5 L6.8,1.5 C6.8,1.38954305 6.71045695,1.3 6.6,1.3 Z" id="形状结合" fill="#666666" fill-rule="nonzero"></path>
            </g>
        </g>
    </g>
</svg>