<?xml version="1.0" encoding="UTF-8"?>
<svg width="16px" height="16px" viewBox="0 0 16 16" version="1.1" xmlns="http://www.w3.org/2000/svg" xmlns:xlink="http://www.w3.org/1999/xlink">
    <title>应用管理</title>
    <g id="平台icon231127" stroke="none" stroke-width="1" fill="none" fill-rule="evenodd">
        <g id="平台icon231128" transform="translate(-904, -88)">
            <g id="应用管理" transform="translate(904.0002, 88)">
                <rect id="_mockplus_fix_" x="0" y="0" width="16" height="16"></rect>
                <path d="M5.58458748,9.41457915 C6.13677141,9.41457915 6.58542085,9.86322859 6.58542085,10.4154125 L6.58542085,14.9991666 C6.58542085,15.5513506 6.13677141,16 5.58458748,16 L1.00083337,16 C0.448649444,16 0,15.554488 0,15.002304 L0,10.4154125 C0,9.86322859 0.448649444,9.41457915 1.00083337,9.41457915 L5.58458748,9.41457915 L5.58458748,9.41457915 Z M14.0524536,9.41457915 C14.6046375,9.41457915 15.0532869,9.86322859 15.0532869,10.4154125 L15.0532869,14.9991666 C15.0532869,15.5513506 14.6046375,16 14.0524536,16 L9.46556204,16 C8.91337811,16 8.46472866,15.5513506 8.46472866,14.9991666 L8.46472866,10.4154125 C8.46472866,9.86322859 8.91337811,9.41457915 9.46556204,9.41457915 L14.0524536,9.41457915 L14.0524536,9.41457915 Z M12.4680622,0.294132065 L15.7058679,3.53507525 C16.098044,3.92725134 16.098044,4.56100789 15.7058679,4.95318398 L12.4680622,8.19098975 C12.0758861,8.58316584 11.4421295,8.58316584 11.0499534,8.19098975 L7.80901025,4.95004657 C7.41683416,4.55787048 7.41683416,3.92411393 7.80901025,3.53193784 L11.0499534,0.294132065 C11.4421295,-0.0980440218 12.0758861,-0.0980440218 12.4680622,0.294132065 Z M5.58458748,0.949850483 C6.13677141,0.949850483 6.58542085,1.39849993 6.58542085,1.95068386 L6.58542085,6.53443796 C6.58542085,7.08662189 6.13677141,7.53527134 5.58458748,7.53527134 L1.00083337,7.53527134 C0.448649444,7.53527134 0,7.08662189 0,6.53443796 L0,1.95068386 C0,1.39849993 0.448649444,0.949850483 1.00083337,0.949850483 L5.58458748,0.949850483 Z M11.7590078,1.85342419 L9.36830237,4.24412961 L11.7590078,6.63483504 L14.1497132,4.24412961 L11.7590078,1.85342419 Z" id="形状" fill="#666666" fill-rule="nonzero"></path>
            </g>
        </g>
    </g>
</svg>