<?xml version="1.0" encoding="UTF-8"?>
<svg width="16px" height="16px" viewBox="0 0 16 16" version="1.1" xmlns="http://www.w3.org/2000/svg" xmlns:xlink="http://www.w3.org/1999/xlink">
    <title>应用管理</title>
    <g id="平台icon231127" stroke="none" stroke-width="1" fill="none" fill-rule="evenodd">
        <g id="平台icon231128" transform="translate(-520, -136)">
            <g id="应用管理" transform="translate(520, 136)">
                <rect id="_mockplus_fix_" x="0" y="0" width="16" height="16"></rect>
                <path d="M6.56287424,0.323699417 L0.814371258,2.97495183 C-0.271457086,3.46820809 -0.271457086,4.57803468 0.814371258,5.07129094 L6.56287424,7.72254335 C7.39321357,8.09248555 8.60678641,8.09248555 9.43712574,7.72254335 L15.1856287,5.07129094 C16.2714571,4.57803468 16.2714571,3.46820809 15.1856287,2.97495183 L9.43712574,0.323699417 C8.60678641,-0.107899806 7.3293413,-0.107899806 6.56287424,0.323699417 Z" id="Shape" fill="#666666" fill-rule="nonzero"></path>
                <path d="M9.43426295,15.6728972 C8.60557768,16.1090343 7.39442232,16.1090343 6.56573705,15.6728972 L0.54601406,12.6453296 C0.211249414,12.4769626 4.5889921e-17,12.134254 0,11.7595343 L0,11.7595343 L0,11.7595343 C-3.18222507e-17,11.4996859 0.210648746,11.2890372 0.470497143,11.2890372 C0.543212901,11.2890372 0.614939051,11.3058916 0.680044688,11.3382774 L7.13944223,14.5514019 L7.13944223,14.5514019 C7.58565736,14.8006231 8.35059761,14.8006231 8.79681274,14.5514019 L15.2538195,11.3394667 C15.5097196,11.2121732 15.8203593,11.3164295 15.9476528,11.5723297 C15.97677,11.6308645 15.9945324,11.6943864 16,11.7595343 L16,11.7595343 L16,11.7595343 L15.9927205,11.82933 C15.9575156,12.1668718 15.7535207,12.4635222 15.4509353,12.6171968 L9.43426295,15.6728972 L9.43426295,15.6728972 Z" id="Shape" fill="#666666" fill-rule="nonzero"></path>
                <path d="M9.43426295,11.6728972 C8.60557768,12.1090343 7.39442232,12.1090343 6.56573705,11.6728972 L0.474299612,8.60926139 C0.183503544,8.46300802 3.9862658e-17,8.16531135 0,7.83980805 L0,7.83980805 L0,7.83980805 C-3.51854836e-17,7.55249677 0.232911809,7.31958496 0.520223087,7.31958496 C0.600624035,7.31958496 0.679930785,7.33822074 0.751917312,7.3740293 L7.13944223,10.5514019 L7.13944223,10.5514019 C7.58565736,10.8006231 8.35059761,10.8006231 8.79681274,10.5514019 L15.303193,7.31490662 C15.5422549,7.19598905 15.8324547,7.29338532 15.9513723,7.5324473 C15.9780995,7.58617754 15.9945897,7.64441422 16,7.70418055 L16,7.70418055 L16,7.70418055 L15.988606,7.82331956 C15.9560071,8.16418246 15.7512686,8.46466594 15.4459679,8.61971968 L9.43426295,11.6728972 L9.43426295,11.6728972 Z" id="Shape" fill="#666666" fill-rule="nonzero"></path>
            </g>
        </g>
    </g>
</svg>