<?xml version="1.0" encoding="UTF-8"?>
<svg width="16px" height="16px" viewBox="0 0 16 16" version="1.1" xmlns="http://www.w3.org/2000/svg" xmlns:xlink="http://www.w3.org/1999/xlink">
    <title>应用</title>
    <g id="平台icon231127" stroke="none" stroke-width="1" fill="none" fill-rule="evenodd">
        <g id="平台icon231128" transform="translate(-472, -136)">
            <g id="应用" transform="translate(472, 136)">
                <rect id="_mockplus_fix_" x="0" y="0" width="16" height="16"></rect>
                <g id="编组" transform="translate(1, 0)" fill="#198EEB">
                    <path d="M0.749386013,3.45284004 L6.38066505,0.200588219 C6.84369466,-0.0668627397 7.41426636,-0.0668627397 7.87729597,0.200588219 L13.5091103,3.45284004 C13.9721034,3.72022735 14.2574257,4.21424053 14.2574257,4.74888772 L14.2574257,11.2510719 C14.2574257,11.7857487 13.9721842,12.2798131 13.5091103,12.5471196 L7.87729597,15.7995498 C7.41421704,16.0668167 6.84374398,16.0668167 6.38066505,15.7995498 L0.749386013,12.5471196 C0.285899968,12.2800853 0.000197987617,11.7859696 0,11.2510719 L0,4.74799562 C0.000627007902,4.21344641 0.286256621,3.7197959 0.749386013,3.45284004 Z M7.16520083,14.5648788 L12.8318081,11.2512503 L12.796123,4.68679733 L7.09347389,1.43508078 L1.42615295,4.74799562 L1.461838,11.3124486 L7.09347389,14.5639867 C7.10429907,14.5703386 7.11660795,14.5737999 7.12915893,14.5737999 L7.16520083,14.5648788 Z" id="形状" fill-rule="nonzero"></path>
                    <path d="M6.77420124,7.03442123 L4.55242053,5.75904212 C4.07988623,5.48769988 4.07988623,4.8095207 4.55242053,4.53817846 L6.77420124,3.26279935 C6.99351299,3.13682266 7.26377967,3.13682266 7.48309142,3.26279935 L9.70487213,4.53817846 C10.1775839,4.8095207 10.1775839,5.48769988 9.70487213,5.75904212 L7.48309142,7.03442123 C7.26371111,7.16014342 6.99358155,7.16014342 6.77420124,7.03442123 Z" id="路径"></path>
                    <path d="M7.11515216,5.60799521 L7.92079208,5.14080999 L7.11515216,4.67326733 L6.30951223,5.14080999 L7.11515216,5.60799521 Z M6.5006961,8.74049531 L6.5006961,11.3243119 C6.5006961,11.8740678 5.90847072,12.2179332 5.43486827,11.9426979 L3.20717606,10.6507002 C2.98719334,10.523321 2.85158914,10.2876347 2.85148515,10.032493 L2.85148515,7.44849763 C2.85148515,6.89874181 3.44371052,6.55487633 3.91731298,6.83011169 L6.14500518,8.12210937 C6.36504295,8.24952045 6.50065567,8.48528976 6.5006961,8.74049531 Z" id="形状" fill-rule="nonzero"></path>
                    <path d="M5.08552441,9.1524122 L4.27740615,8.68478061 L4.27722772,9.61986503 L5.08570284,10.0871391 L5.08552441,9.1524122 L5.08552441,9.1524122 Z M8.10245165,8.12151336 L10.336598,6.82944871 C10.8119407,6.55451852 11.4059406,6.89809188 11.4059406,7.44795226 L11.4059406,10.0322603 C11.4059406,10.2874704 11.2698388,10.5232358 11.0490767,10.6505851 L8.81510882,11.9428285 C8.33976614,12.2177587 7.7457662,11.8741853 7.7457662,11.324325 L7.7457662,8.74001691 C7.7457662,8.48478983 7.88172999,8.2489671 8.10245165,8.12151336 Z" id="形状" fill-rule="nonzero"></path>
                </g>
            </g>
        </g>
    </g>
</svg>