<?xml version="1.0" encoding="UTF-8"?>
<svg width="16px" height="16px" viewBox="0 0 16 16" version="1.1" xmlns="http://www.w3.org/2000/svg" xmlns:xlink="http://www.w3.org/1999/xlink">
    <title>15-图标/4操作/下移</title>
    <g id="平台icon231127" stroke="none" stroke-width="1" fill="none" fill-rule="evenodd">
        <g id="平台icon231128" transform="translate(-664, -280)">
            <g id="15-图标/4操作/下移" transform="translate(664, 280)">
                <rect id="_mockplus_fix_" x="0" y="0" width="16" height="16"></rect>
                <rect id="_mockplus_fix_" x="0" y="0" width="16" height="16"></rect>
                <g id="下移" transform="translate(2.9998, 0.0156)" fill="#3B8FD9" fill-rule="nonzero">
                    <path d="M9.53612175,8.16609375 L6.98924675,8.16609375 L6.98924675,0.453125 C6.98924675,0.201875 6.691278,0 6.32330925,0 L3.66143425,0 C3.293778,0 2.9959655,0.203125 2.9959655,0.45390625 L2.9959655,8.16609375 L0.449090502,8.16609375 C0.0909655017,8.16609375 -0.122628248,8.56984375 0.0761217517,8.87140625 L4.6190905,15.7667188 C4.70141343,15.8927347 4.84177095,15.9686961 4.99229363,15.9686961 C5.14281631,15.9686961 5.28317382,15.8927347 5.36549675,15.7667188 L9.9097155,8.87140625 C10.1079968,8.56984375 9.8947155,8.16609375 9.53612175,8.16609375 Z"></path>
                </g>
            </g>
        </g>
    </g>
</svg>