<?xml version="1.0" encoding="UTF-8"?>
<svg width="16px" height="16px" viewBox="0 0 16 16" version="1.1" xmlns="http://www.w3.org/2000/svg" xmlns:xlink="http://www.w3.org/1999/xlink">
    <title>15-图标/4操作/上移</title>
    <g id="平台icon231127" stroke="none" stroke-width="1" fill="none" fill-rule="evenodd">
        <g id="平台icon231128" transform="translate(-616, -280)">
            <g id="15-图标/4操作/上移" transform="translate(616, 280)">
                <rect id="_mockplus_fix_" x="0" y="0" width="16" height="16"></rect>
                <rect id="_mockplus_fix_" x="0" y="0" width="16" height="16"></rect>
                <g id="上移" transform="translate(2.9992, 0.0145)" fill="#3B8FD9" fill-rule="nonzero">
                    <path d="M0.449378242,7.8027155 L2.99625324,7.8027155 L2.99625324,15.516778 C2.99625324,15.768028 3.29422199,15.969903 3.66219074,15.969903 L6.32406574,15.969903 C6.69172199,15.969903 6.98953449,15.766778 6.98953449,15.516778 L6.98953449,7.8027155 L9.53640949,7.8027155 C9.89453449,7.8027155 10.1081282,7.3989655 9.90937824,7.097403 L5.36656574,0.202246754 C5.28438067,0.0760862242 5.14400921,0 4.99344074,0 C4.84287227,0 4.70250081,0.0760862242 4.62031574,0.202246754 L0.076096992,7.097403 C-0.122496758,7.3989655 0.090628242,7.8027155 0.449378242,7.8027155 Z"></path>
                </g>
            </g>
        </g>
    </g>
</svg>