<?xml version="1.0" encoding="UTF-8"?>
<svg width="16px" height="16px" viewBox="0 0 16 16" version="1.1" xmlns="http://www.w3.org/2000/svg" xmlns:xlink="http://www.w3.org/1999/xlink">
    <title>权限管理</title>
    <g id="平台icon231127" stroke="none" stroke-width="1" fill="none" fill-rule="evenodd">
        <g id="平台icon231128" transform="translate(-40, -136)">
            <g id="权限管理" transform="translate(40.0002, 136)">
                <rect id="_mockplus_fix_" x="0" y="0" width="16" height="16"></rect>
                <path d="M11.9153841,3.58995772 C11.5310091,1.22589522 9.44038407,-0.349104782 7.24507157,0.0665202179 C5.05444657,0.482145218 3.20288407,2.30089522 3.59038407,4.66183272 C3.67319657,5.17277022 3.90444657,5.96808272 4.17788407,6.54152022 L0.198196566,12.6665202 C0.0513215662,12.8915202 -0.0330534338,13.2993327 0.0122590662,13.5727702 L0.184134066,14.6212077 C0.0200715662,13.6118327 0.229446566,14.9868327 0.356009066,14.9805827 L1.66694657,15.0008952 C1.92007157,14.9540202 2.23725907,14.7243327 2.37632157,14.4930827 L3.95132157,11.8649577 L3.96538407,11.8477702 L5.34038407,11.9618327 L7.18100907,8.88527022 C7.18100907,8.88527022 7.59038407,7.99152022 9.10757157,7.13214522 C10.4950716,6.44620772 11.6591341,6.58995772 11.6591341,6.58995772 C11.9981966,5.68995772 12.0856966,4.62589522 11.9153841,3.58995772 Z M1.27319657,13.0868327 L0.929446566,13.3180827 L1.00913407,12.9024577 L4.74663407,7.20089522 L5.00444657,7.39464522 L1.27319657,13.0868327 Z M9.97475907,4.79777022 C9.37007157,5.72433272 8.75600907,5.07120772 7.89507157,4.42120772 C7.03413407,3.77120772 6.25288407,3.37277022 6.85600907,2.44464522 C7.46069657,1.51808272 8.64663407,1.28995772 9.50600907,1.93995772 C10.3669466,2.59308272 10.5778841,3.87277022 9.97475907,4.79777022 Z M11.4997591,6.99933272 C9.01382157,6.99933272 6.99975907,9.01339522 6.99975907,11.4993327 C6.99975907,13.9852702 9.01382157,15.9993327 11.4997591,15.9993327 C13.9856966,15.9993327 15.9997591,13.9852702 15.9997591,11.4993327 C15.9997591,9.01339522 13.9856966,6.99933272 11.4997591,6.99933272 Z M13.9966341,13.1555827 C13.9966341,13.8415202 12.7122591,13.9993327 11.5060091,13.9993327 C10.2997591,13.9993327 8.99975907,13.8415202 8.99975907,13.1555827 L8.99975907,12.9649577 C8.99975907,12.4602702 9.88882157,11.9477702 10.6435091,11.6696452 C10.6981966,11.6493327 10.9606966,11.5024577 10.8138216,11.1102702 C10.4372591,10.7196452 10.1560091,10.0821452 10.1560091,9.45714522 C10.1560091,8.49933272 10.7731966,7.99777022 11.4997591,7.99777022 C12.2216341,7.99777022 12.8466341,8.49933272 12.8466341,9.45714522 C12.8466341,10.0790202 12.5622591,10.7118327 12.1888216,11.1071452 L12.1919466,11.1071452 C12.0481966,11.5508952 12.2763216,11.6587077 12.3122591,11.6696452 C13.1060091,11.9368327 13.9981966,12.4462077 13.9981966,12.9649577 L13.9966341,13.1555827 L13.9966341,13.1555827 Z" id="形状" fill="#666666" fill-rule="nonzero"></path>
            </g>
        </g>
    </g>
</svg>