<?xml version="1.0" encoding="UTF-8"?>
<svg width="16px" height="16px" viewBox="0 0 16 16" version="1.1" xmlns="http://www.w3.org/2000/svg" xmlns:xlink="http://www.w3.org/1999/xlink">
    <title>基础组件</title>
    <g id="平台icon231127" stroke="none" stroke-width="1" fill="none" fill-rule="evenodd">
        <g id="平台icon231128" transform="translate(-664, -88)">
            <g id="基础组件" transform="translate(664.0002, 88)">
                <rect id="_mockplus_fix_" x="0" y="0" width="16" height="16"></rect>
                <path d="M4.93846154,6.30153846 C5.37349199,6.30153846 5.72615385,6.65420032 5.72615385,7.08923077 L5.72615385,14.9661538 C5.72615385,15.4011843 5.37349199,15.7538462 4.93846154,15.7538462 L1.78769231,15.7538462 C1.35266186,15.7538462 1,15.4011843 1,14.9661538 L1,7.08923077 C1,6.65420032 1.35266186,6.30153846 1.78769231,6.30153846 L4.93846154,6.30153846 L4.93846154,6.30153846 Z M14.3907692,6.30153846 C14.8257997,6.30153846 15.1784615,6.65420032 15.1784615,7.08923077 L15.1784615,14.9661538 C15.1784615,15.4011843 14.8257997,15.7538462 14.3907692,15.7538462 L8.08923077,15.7538462 C7.65420032,15.7538462 7.30153846,15.4011843 7.30153846,14.9661538 L7.30153846,7.08923077 C7.30153846,6.65420032 7.65420032,6.30153846 8.08923077,6.30153846 L14.3907692,6.30153846 L14.3907692,6.30153846 Z M14.3907692,0 C14.8257997,0 15.1784615,0.352661859 15.1784615,0.787692308 L15.1784615,3.93846154 C15.1784615,4.37349199 14.8257997,4.72615385 14.3907692,4.72615385 L1.78769231,4.72615385 C1.35266186,4.72615385 1,4.37349199 1,3.93846154 L1,0.787692308 C1,0.352661859 1.35266186,0 1.78769231,0 L14.3907692,0 Z" id="形状" fill="#666666" fill-rule="nonzero"></path>
            </g>
        </g>
    </g>
</svg>