<?xml version="1.0" encoding="UTF-8"?>
<svg width="16px" height="16px" viewBox="0 0 16 16" version="1.1" xmlns="http://www.w3.org/2000/svg" xmlns:xlink="http://www.w3.org/1999/xlink">
    <title>15-图标/1框架/2业务处理</title>
    <g id="平台icon231127" stroke="none" stroke-width="1" fill="none" fill-rule="evenodd">
        <g id="平台icon231128" transform="translate(-424, -88)">
            <g id="15-图标/1框架/2业务处理" transform="translate(424, 88)">
                <rect id="_mockplus_fix_" x="0" y="0" width="16" height="16"></rect>
                <rect id="_mockplus_fix_" x="0" y="0" width="16" height="16"></rect>
                <path d="M6.3921875,8.4640625 L6.3921875,8.571875 C6.3921875,9.14375 6.85625,9.6078125 7.428125,9.6078125 L8.5703125,9.6078125 C9.1421875,9.6078125 9.6046875,9.14375 9.60625,8.571875 L9.60625,8.4640625 L16,8.4640625 L16,14.3703125 C16,14.95 15.5296875,15.41875 14.95,15.4203125 L1.05,15.4203125 C0.4703125,15.4203125 0,14.95 0,14.3703125 L0,8.4640625 L6.3921875,8.4640625 Z M8.678125,7.3203125 L8.678125,8.678125 L7.3203125,8.678125 L7.3203125,7.3203125 L8.678125,7.3203125 Z M11.475,0.578125 C12.0546875,0.5796875 12.5234375,1.0484375 12.525,1.628125 L12.525,4.05 L14.95,4.05 C15.5296875,4.05 15.9984375,4.5203125 16,5.1 L16,7.5359375 L9.6078125,7.5359375 L9.6078125,7.428125 C9.6078125,6.85625 9.14375,6.39375 8.571875,6.3921875 L7.4296875,6.3921875 C6.8578125,6.3921875 6.39375,6.85625 6.39375,7.428125 L6.39375,7.5359375 L0,7.5359375 L0,5.1 C0,4.5203125 0.4703125,4.05 1.05,4.05 L3.475,4.05 L3.475,1.628125 C3.475,1.0484375 3.9453125,0.578125 4.525,0.578125 Z M11.5359375,1.6078125 L4.4640625,1.6078125 L4.4640625,4.103125 L11.5359375,4.103125 L11.5359375,1.6078125 Z" id="形状" fill="#666666" fill-rule="nonzero"></path>
            </g>
        </g>
    </g>
</svg>