<?xml version="1.0" encoding="UTF-8"?>
<svg width="16px" height="16px" viewBox="0 0 16 16" version="1.1" xmlns="http://www.w3.org/2000/svg" xmlns:xlink="http://www.w3.org/1999/xlink">
    <title>业务组件库</title>
    <g id="平台icon231127" stroke="none" stroke-width="1" fill="none" fill-rule="evenodd">
        <g id="平台icon231128" transform="translate(-664, -136)">
            <g id="业务组件库" transform="translate(664, 136)">
                <rect id="_mockplus_fix_" x="0" y="0" width="16" height="16"></rect>
                <path d="M1,0 L15,0 C15.5522847,-1.01453063e-16 16,0.44771525 16,1 L16,3 C16,3.55228475 15.5522847,4 15,4 L1,4 C0.44771525,4 6.76353751e-17,3.55228475 0,3 L0,1 C-6.76353751e-17,0.44771525 0.44771525,1.01453063e-16 1,0 Z M1,5 L4,5 C4.55228475,5 5,5.44771525 5,6 L5,15 C5,15.5522847 4.55228475,16 4,16 L1,16 C0.44771525,16 6.76353751e-17,15.5522847 0,15 L0,6 C-6.76353751e-17,5.44771525 0.44771525,5 1,5 Z M7,5 L15,5 C15.5522847,5 16,5.44771525 16,6 L16,9 C16,9.55228475 15.5522847,10 15,10 L7,10 C6.44771525,10 6,9.55228475 6,9 L6,6 C6,5.44771525 6.44771525,5 7,5 Z M7,11 L15,11 C15.5522847,11 16,11.4477153 16,12 L16,15 C16,15.5522847 15.5522847,16 15,16 L7,16 C6.44771525,16 6,15.5522847 6,15 L6,12 C6,11.4477153 6.44771525,11 7,11 Z" fill="#666666"></path>
            </g>
        </g>
    </g>
</svg>