<?xml version="1.0" encoding="UTF-8"?>
<svg width="16px" height="16px" viewBox="0 0 16 16" version="1.1" xmlns="http://www.w3.org/2000/svg" xmlns:xlink="http://www.w3.org/1999/xlink">
    <title>CA认证</title>
    <g id="平台icon231127" stroke="none" stroke-width="1" fill="none" fill-rule="evenodd">
        <g id="平台icon231128" transform="translate(-280, -184)">
            <g id="CA认证" transform="translate(280, 184)">
                <rect id="_mockplus_fix_" x="0" y="0" width="16.0015451" height="16"></rect>
                <path d="M9.91650706,12.524745 C9.91650706,13.5445745 9.93113461,14.5489653 9.90913077,15.552481 C9.90062928,15.9414489 9.51718737,16.117025 9.18075367,15.9125716 C8.86157297,15.7185565 8.54739315,15.513853 8.24709074,15.2921482 C8.08381225,15.1717014 7.96854214,15.1833273 7.81220236,15.2986488 C7.54521827,15.4957891 7.25991848,15.6679275 6.98418287,15.853442 C6.80452652,15.9743264 6.62474515,16.0619583 6.40595697,15.9446366 C6.19185711,15.8298152 6.14453635,15.6391753 6.14478541,15.4195332 L6.14534407,14.4718158 L6.14522397,12.544059 C7.6571753,13.6116423 8.27584576,13.6072044 9.91650706,12.524745 Z M7.99969757,9.26332206 C8.8594726,9.25007103 9.56940899,9.95206325 9.57317496,10.8192558 C9.5769103,11.6942615 8.89147819,12.3845654 8.01838834,12.3851282 C7.15029936,12.3856904 6.44586393,11.6832607 6.45096203,10.8222561 C6.4559907,9.97825279 7.15317486,9.27651059 7.99969757,9.26332206 Z M15.3333398,1.99355506e-14 C15.8632448,1.99355506e-14 16.0028941,0.137135689 16.0030903,0.658551333 C16.0030903,4.28370891 16.0030903,7.90874147 16.0028941,11.5338365 C16.0028941,12.0408136 15.8585564,12.1878875 15.3596569,12.188075 L10.1284315,12.1883251 C10.4743669,11.584403 10.6055148,10.9622295 10.4538008,10.2966776 C10.3008366,9.62550029 9.93833586,9.09789666 9.36336053,8.72261741 C8.45864016,8.13207138 7.25230466,8.20951492 6.42472274,8.90294397 C5.48212076,9.69281804 5.29127496,10.8066549 5.88412841,12.1880125 L2.29543274,12.188457 C1.70068313,12.1881514 1.10694063,12.1874292 0.513191188,12.1859499 C0.175944839,12.1850748 0.00191447077,12.0005604 0.00172693804,11.6533459 C-0.000523454647,7.9449943 -0.000710987371,4.23651773 0.00197698168,0.528103665 C0.00222702531,0.162200143 0.185821562,0.00106258283 0.58151561,0.000562543849 L15.3333398,1.99355506e-14 Z M12.5955433,6.59374522 L8.0035545,6.59346395 L3.56778046,6.59443277 C3.44344626,6.59443277 3.31623657,6.59399524 3.19546549,6.61887218 C3.00336947,6.65837526 2.89059979,6.78994801 2.85865672,6.98327558 C2.8270262,7.17491552 2.89016222,7.33155273 3.04987759,7.4453116 C3.18671396,7.5428192 3.34549167,7.53213087 3.50133136,7.53219337 L10.2955716,7.53288874 L12.5915426,7.53069325 C12.9562312,7.52975568 13.1624547,7.34349116 13.1541408,7.04878069 C13.1462644,6.76763377 12.9456669,6.60393351 12.5955433,6.59374522 Z M12.4355154,4.71834904 C9.47837435,4.71828653 6.52117082,4.71803651 3.56396729,4.71928661 C3.43969561,4.71934911 3.31179829,4.7179115 3.19190237,4.74497611 C2.9714264,4.794855 2.85665637,4.95449244 2.85190554,5.17369703 C2.84684216,5.40665269 2.96104959,5.57535334 3.19540298,5.63110768 C3.30492209,5.65710971 3.4224426,5.65610963 3.53633747,5.65623464 C5.0253473,5.65773476 6.51435713,5.65723472 8.00336696,5.65723472 L12.439141,5.65717222 C12.928914,5.65710971 13.1446391,5.51903645 13.1541408,5.20113667 C13.16408,4.86954832 12.9396658,4.71841154 12.4355154,4.71834904 Z M8.90070949,1.90440313 L8.02653351,1.90559854 C7.4333675,1.90559854 6.84013898,1.90284832 6.24697298,1.90659862 C5.87353281,1.9089113 5.66743435,2.07523676 5.66162083,2.36550939 C5.65580732,2.65953231 5.86209332,2.84185902 6.22834473,2.84304661 C7.41467674,2.84692191 8.60107126,2.84717193 9.78740328,2.84279659 C10.1359641,2.84148399 10.3355614,2.66622033 10.3412499,2.38407333 C10.3471885,2.08923785 10.1419026,1.91003638 9.77483858,1.90691114 C9.1921119,1.90197326 8.6093227,1.90559854 8.02653351,1.90559854 Z" id="形状结合" fill="#666666"></path>
            </g>
        </g>
    </g>
</svg>