<?xml version="1.0" encoding="UTF-8"?>
<svg width="16px" height="16px" viewBox="0 0 16 16" version="1.1" xmlns="http://www.w3.org/2000/svg" xmlns:xlink="http://www.w3.org/1999/xlink">
    <title>图标库管理</title>
    <g id="平台icon231127" stroke="none" stroke-width="1" fill="none" fill-rule="evenodd">
        <g id="平台icon231128" transform="translate(-568, -136)">
            <g id="图标库管理" transform="translate(568, 136)">
                <rect id="_mockplus_fix_" x="0" y="0" width="16" height="16"></rect>
                <path d="M10.1075955,1 C10.7326405,1 11.366809,1.44490997 11.5855841,2.03512015 C11.7136839,2.37920175 11.8419699,2.72002465 11.9637392,3.06717327 C11.9877579,3.13982337 12.0222033,3.15554186 12.0940733,3.15554186 C12.7189322,3.15247484 13.3439773,3.14614911 13.9688362,3.15880058 C14.6156657,3.17451907 15.1342092,3.4714452 15.5404792,3.96983638 C15.8624044,4.36739919 15.9998138,4.83128637 16,5.34252071 L16,12.8632437 C16,13.911207 15.2148302,14.8263298 14.1907765,14.9746971 C14.0862454,14.9900002 13.9807627,14.9973682 13.8751818,14.9967413 C11.9181843,14.9989138 9.96013173,15 8.00102405,15 L2.13598967,15 C1.11435653,15 0.24577287,14.2874923 0.045244551,13.2736496 C0.0176879412,13.1366329 0.00408445863,12.9970314 0.0046547892,12.8571096 C-0.0015515964,10.3459848 -0.0015515964,7.83588234 0.0046547892,5.32680222 C0.00819242899,4.38005066 0.473671349,3.7204491 1.30799576,3.31962758 C1.56736062,3.19387965 1.84850989,3.15554186 2.13598967,3.15554186 L3.91169865,3.15554186 C3.98077572,3.15554186 4.01168352,3.13982337 4.03663319,3.07043198 C4.16156773,2.72328336 4.29059849,2.37613473 4.42093259,2.03205313 C4.64901726,1.4324502 5.2707109,1 5.90823083,1 Z M8.08220358,5.29728213 C5.98252127,5.25376874 4.29525328,7.03072499 4.26080784,8.99687821 C4.22319714,11.1054563 5.95124108,12.8760868 8.00083786,12.8477168 C10.038146,12.8760868 11.8065935,11.0993222 11.7378888,8.94243856 C11.6757008,7.01098104 10.0349807,5.33830355 8.08220358,5.29728213 Z M8.00400312,6.65558979 C9.31311603,6.63910454 10.4099706,7.77006914 10.4045909,9.08888889 C10.3984267,10.3986993 9.30157216,11.522188 7.97681915,11.5064695 C6.66770624,11.4874923 5.59896664,10.405025 5.60212488,9.07623742 C5.60753145,7.72904772 6.67608486,6.65252276 8.00400312,6.65558979 Z" fill="#666666" fill-rule="nonzero"></path>
            </g>
        </g>
    </g>
</svg>