<?xml version="1.0" encoding="UTF-8"?>
<svg width="16px" height="16px" viewBox="0 0 16 16" version="1.1" xmlns="http://www.w3.org/2000/svg" xmlns:xlink="http://www.w3.org/1999/xlink">
    <title>15-图标/6标签/3图表</title>
    <g id="平台icon231127" stroke="none" stroke-width="1" fill="none" fill-rule="evenodd">
        <g id="平台icon231128" transform="translate(-616, -424)">
            <g id="15-图标/6标签/3图表" transform="translate(616, 424)">
                <rect id="_mockplus_fix_" x="0" y="0" width="16" height="16"></rect>
                <path d="M1,8 L3,8 C3.55228475,8 4,8.44771525 4,9 L4,15 C4,15.5522847 3.55228475,16 3,16 L1,16 C0.44771525,16 6.76353751e-17,15.5522847 0,15 L0,9 C-6.76353751e-17,8.44771525 0.44771525,8 1,8 Z M7,0 L9,0 C9.55228475,-1.01453063e-16 10,0.44771525 10,1 L10,15 C10,15.5522847 9.55228475,16 9,16 L7,16 C6.44771525,16 6,15.5522847 6,15 L6,1 C6,0.44771525 6.44771525,1.01453063e-16 7,0 Z M13,3 L15,3 C15.5522847,3 16,3.44771525 16,4 L16,15 C16,15.5522847 15.5522847,16 15,16 L13,16 C12.4477153,16 12,15.5522847 12,15 L12,4 C12,3.44771525 12.4477153,3 13,3 Z" id="图表" fill="#999999"></path>
            </g>
        </g>
    </g>
</svg>