<?xml version="1.0" encoding="UTF-8"?>
<svg width="16px" height="16px" viewBox="0 0 16 16" version="1.1" xmlns="http://www.w3.org/2000/svg" xmlns:xlink="http://www.w3.org/1999/xlink">
    <title>15-图标/2提示/成功</title>
    <g id="平台icon231127" stroke="none" stroke-width="1" fill="none" fill-rule="evenodd">
        <g id="平台icon231128" transform="translate(-88, -232)">
            <g id="15-图标/2提示/成功" transform="translate(88, 232)">
                <rect id="_mockplus_fix_" x="0" y="0" width="16" height="16"></rect>
                <path d="M8,0 C12.41875,0 16,3.5828125 16,8 C16,12.4171875 12.41875,16 8,16 C3.58125,16 0,12.41875 0,8 C0,3.58125 3.58125,0 8,0 Z M11.7734375,5.321875 C11.415625,4.9640625 11.059375,4.9640625 10.7015625,5.321875 L6.94220312,9.08251563 L5.2984375,7.4375 C4.940625,7.0796875 4.584375,7.0796875 4.2265625,7.4375 C3.86875,7.79375 3.86875,8.1515625 4.2265625,8.509375 L6.3953125,10.6796875 C6.57744031,10.8626141 6.7599765,10.9520221 6.94265273,10.9479114 C7.12518015,10.9520221 7.30769838,10.8626141 7.490625,10.6796875 L11.7734375,6.39375 C12.13125,6.0359375 12.13125,5.678125 11.7734375,5.321875 Z" id="成功" fill="#4ACFB1" fill-rule="nonzero"></path>
            </g>
        </g>
    </g>
</svg>