<?xml version="1.0" encoding="UTF-8"?>
<svg width="16px" height="16px" viewBox="0 0 16 16" version="1.1" xmlns="http://www.w3.org/2000/svg" xmlns:xlink="http://www.w3.org/1999/xlink">
    <title>15-图标/2提示/错误</title>
    <g id="平台icon231127" stroke="none" stroke-width="1" fill="none" fill-rule="evenodd">
        <g id="平台icon231128" transform="translate(-136, -232)">
            <g id="15-图标/2提示/错误" transform="translate(136, 232)">
                <rect id="_mockplus_fix_" x="0" y="0" width="16" height="16"></rect>
                <g id="错误" fill-rule="nonzero">
                    <path d="M8,0 C3.58125,0 0,3.58125 0,8 C0,12.41875 3.58125,16 8,16 C12.41875,16 16,12.4171875 16,8 C16,3.5828125 12.41875,0 8,0 Z" id="路径" fill="#F36969"></path>
                    <path d="M9.0984375,7.99375 L11.171875,5.9203125 C11.475,5.6171875 11.475,5.125 11.171875,4.821875 C10.86875,4.51875 10.3765625,4.51875 10.0734375,4.821875 L8,6.896875 L5.925,4.821875 C5.621875,4.51875 5.1296875,4.51875 4.8265625,4.821875 C4.5234375,5.125 4.5234375,5.6171875 4.8265625,5.9203125 L6.9015625,7.9953125 L4.828125,10.06875 C4.525,10.371875 4.525,10.8640625 4.828125,11.1671875 C5.13125,11.4703125 5.6234375,11.4703125 5.9265625,11.1671875 L8,9.0921875 L10.075,11.1671875 C10.378125,11.4703125 10.8703125,11.4703125 11.1734375,11.1671875 C11.4765625,10.8640625 11.4765625,10.371875 11.1734375,10.06875 L9.0984375,7.99375 Z" id="路径" fill="#FFFFFF"></path>
                </g>
            </g>
        </g>
    </g>
</svg>