<?xml version="1.0" encoding="UTF-8"?>
<svg width="16px" height="16px" viewBox="0 0 16 16" version="1.1" xmlns="http://www.w3.org/2000/svg" xmlns:xlink="http://www.w3.org/1999/xlink">
    <title>合同中心</title>
    <g id="平台icon231127" stroke="none" stroke-width="1" fill="none" fill-rule="evenodd">
        <g id="平台icon231128" transform="translate(-40, -184)">
            <g id="合同中心" transform="translate(40, 184)">
                <rect id="_mockplus_fix_" x="0" y="0" width="16" height="16.0001206"></rect>
                <path d="M1.64562207,2.16640424 C2.00968953,2.16688721 3.05681039,2.171532 3.42080955,2.1761085 C3.44027657,2.17638172 3.45960698,2.1935948 3.5122704,2.21907288 C3.5122704,2.5191405 3.51042616,2.83512338 3.51268023,3.15110627 C3.51807635,3.90834497 3.95912393,4.34830298 4.73411632,4.35014724 C6.63505393,4.35472373 8.53605984,4.35178658 10.4370658,4.35164997 C10.6760661,4.35164997 10.915613,4.36073465 11.1540669,4.34823468 C11.8178582,4.31326208 12.2431272,3.86633687 12.25269,3.19939851 C12.2574031,2.87112057 12.2535097,2.54277433 12.2535097,2.1749473 C12.7730401,2.1749473 13.9529465,2.15623149 14.446316,2.18935983 C14.5559461,2.19673687 14.6791689,2.37296597 14.7474059,2.49796568 C14.795971,2.58696821 14.7656435,2.72057447 14.7656435,2.83423541 C14.7661216,7.00041441 14.7661216,11.1666617 14.765985,15.332909 C14.7659167,15.9379623 14.7044419,16.0001206 14.1051308,16.0001206 L1.64056748,16.0000523 C1.06885178,16.0000523 1.00006831,15.9296973 1,15.3469117 L1,2.81408518 C1.00006831,2.23690071 1.07049111,2.16572601 1.64562207,2.16640424 Z M10.4598114,13.1314796 C10.0352254,12.6098961 9.71371221,12.5941175 9.25681779,13.0490345 C9.0958221,13.2093483 8.9359193,13.370755 8.77526514,13.5314787 C8.60258924,13.7042242 8.57465236,13.8919287 8.75470524,14.0680212 C8.93516794,14.2444552 9.13079444,14.2116684 9.29219996,14.0358491 C9.43673406,13.8784725 9.56180113,13.7031996 9.69998284,13.5301809 C10.1562625,14.059278 10.3140478,14.0667917 11.0258578,13.6547708 C11.3576851,14.1419281 11.7522851,14.31119 12.3099299,14.1682942 C12.4319915,14.1370101 12.5882741,13.9801799 12.6037111,13.8645381 C12.6192165,13.7475984 12.4968133,13.5941835 12.4001612,13.4883777 C12.3550114,13.4389243 12.2261875,13.4480773 12.1386884,13.4585964 C11.8844559,13.4891974 11.7315886,13.411397 11.6106881,13.1604413 C11.4524246,12.8319585 11.0848736,12.7590078 10.7615844,12.9380374 C10.656121,12.9965073 10.5579662,13.0680918 10.4598114,13.1314796 Z M3.89751252,9.45396071 C3.59437342,9.45116017 3.32887056,9.5180316 3.32907536,9.86632316 C3.3292804,10.2144781 3.6005209,10.2836719 3.89922015,10.2831962 C5.56395789,10.2808714 7.22876394,10.2820326 8.89356999,10.2821009 C9.1853704,10.2821009 9.45913821,10.2295737 9.45777719,9.86509365 C9.45633769,9.50102344 9.18735126,9.45361918 8.89179405,9.45512191 C8.05942518,9.45935687 7.226988,9.45662464 6.39461913,9.45662464 C5.56225026,9.45662464 4.72981308,9.46154266 3.89751252,9.45396071 Z M8.52574574,7.81851363 C7.756491,7.82486607 6.98716796,7.82063111 6.21791322,7.82056281 C5.43581708,7.82056281 4.65365263,7.82466116 3.87162479,7.81851363 C3.58351287,7.81632784 3.34061908,7.87595885 3.3368904,8.21687337 C3.33337872,8.5543726 3.56568518,8.62875768 3.85939814,8.62801295 C5.41074902,8.62342982 6.9621682,8.62356643 8.51345078,8.62801295 C8.80217745,8.62875768 9.04623243,8.56612121 9.05017198,8.22923673 C9.05395093,7.89487958 8.819527,7.81612292 8.52574574,7.81851363 Z M9.33304655,6.16380385 C7.51291416,6.16530703 5.69271346,6.16530703 3.87251276,6.16380385 C3.58679153,6.16359938 3.33945789,6.23347627 3.33642324,6.56967769 C3.33331041,6.92739545 3.58399101,6.99508655 3.89027215,6.99255923 C4.78746279,6.9851822 5.68479004,6.98996361 6.58204899,6.98996361 C7.49214933,6.98996361 8.40224968,6.98531881 9.31228173,6.99249093 C9.61719676,6.99488163 9.86992652,6.93163041 9.86721625,6.57179517 C9.8645987,6.23579867 9.61951914,6.16359938 9.33304655,6.16380385 Z M7.85307475,0.000225493668 C8.82219091,-0.0124793953 9.41412499,0.512246181 9.68666329,1.43218943 C10.1522325,1.43218943 10.606463,1.43601456 11.0606252,1.43082332 C11.3711413,1.42733972 11.5246917,1.56723011 11.5217959,1.88225671 C11.5177928,2.31429124 11.5190223,2.74639408 11.5212764,3.17849692 C11.5227791,3.47330498 11.3819335,3.61968443 11.0852834,3.61954792 L4.67229999,3.61913798 C4.39593658,3.61913798 4.24703094,3.48539512 4.24600636,3.20424822 C4.24443534,2.74946784 4.24347906,2.29461916 4.2464845,1.83983877 C4.24839705,1.55671101 4.40488458,1.43130146 4.67940374,1.43191621 C5.14476802,1.43314571 5.61020061,1.43225774 6.08068779,1.43225774 C6.34373165,0.533216078 6.91455938,0.0124522417 7.85307475,0.000225493668 Z" id="形状结合" fill="#666666"></path>
            </g>
        </g>
    </g>
</svg>