<?xml version="1.0" encoding="UTF-8"?>
<svg width="16px" height="16px" viewBox="0 0 16 16" version="1.1" xmlns="http://www.w3.org/2000/svg" xmlns:xlink="http://www.w3.org/1999/xlink">
    <title>数据源</title>
    <g id="平台icon231127" stroke="none" stroke-width="1" fill="none" fill-rule="evenodd">
        <g id="平台icon231128" transform="translate(-616, -88)">
            <g id="数据源" transform="translate(616.0002, 88)">
                <rect id="_mockplus_fix_" x="0" y="0" width="16" height="16"></rect>
                <path d="M12.7301956,9.22066075 C12.8890242,9.22066075 12.9957638,9.32654646 12.9957638,9.48622895 L12.9957638,9.8038861 C12.9957638,9.91062573 13.1545924,10.0694543 13.2604781,10.1223972 L13.631932,10.2812257 C13.7916145,10.3341686 13.9504431,10.3341686 14.0563288,10.2282829 L14.2681002,10.0165114 C14.3164646,9.96560155 14.3836067,9.93677665 14.4538272,9.93677665 C14.5240477,9.93677665 14.5911899,9.96560155 14.6395542,10.0165114 L15.0110081,10.3879654 C15.0616454,10.4363041 15.0902945,10.5032599 15.0902945,10.5732654 C15.0902945,10.6432708 15.0616454,10.7102267 15.0110081,10.7585654 L14.7983827,10.9711907 C14.692497,11.0241336 14.692497,11.235905 14.7454399,11.3426447 L14.9051224,11.7670414 C14.9580652,11.92587 15.063951,12.0317557 15.2227795,12.0317557 L15.5412906,12.0317557 C15.7009731,12.0317557 15.8068588,12.1376414 15.9656874,12.2443811 L15.9656874,12.6687779 C15.9656874,12.8276064 15.8598017,12.9343461 15.7001192,12.9343461 L15.382462,12.9343461 C15.2765763,12.9343461 15.1168938,13.0931746 15.063951,13.1990603 L14.9051224,13.6234571 C14.8521795,13.7831396 14.8521795,13.9411143 14.9580652,14.0478539 L15.1698367,14.2596253 C15.2207466,14.3079897 15.2495715,14.3751318 15.2495715,14.4453523 C15.2495715,14.5155728 15.2207466,14.582715 15.1698367,14.6310793 L14.7983827,15.0025332 C14.750044,15.0531705 14.6830882,15.0818196 14.6130827,15.0818196 C14.5430773,15.0818196 14.4761214,15.0531705 14.4277827,15.0025332 L14.2151574,14.7899078 C14.1092717,14.6840221 13.8966463,14.6840221 13.7907606,14.736965 L13.3663638,14.8966475 C13.2075352,14.9495903 13.1016495,15.0554761 13.1016495,15.2143046 L13.1016495,15.5328157 C13.1016495,15.6916443 12.9949099,15.79753 12.8369352,15.79753 L12.3587417,15.79753 C12.1999131,15.79753 12.0931735,15.6916443 12.0931735,15.5328157 L12.0931735,15.2143046 C12.0931735,15.1084189 11.9343449,14.9495903 11.8284592,14.8966475 L11.4040624,14.736965 C11.2814264,14.6747706 11.1329851,14.6959277 11.0326085,14.7899078 L10.8208371,15.0025332 C10.7724727,15.0534431 10.7053306,15.082268 10.6351101,15.082268 C10.5648896,15.082268 10.4977474,15.0534431 10.4493831,15.0025332 L10.0779292,14.6310793 C10.0270193,14.582715 9.9981944,14.5155728 9.9981944,14.4453523 C9.9981944,14.3751318 10.0270193,14.3079897 10.0779292,14.2596253 L10.2897006,14.1537396 C10.3964403,14.0478539 10.3964403,13.8352286 10.3434974,13.7293428 L10.1838149,13.3049461 C10.1308721,13.1461175 10.0249863,13.0393779 9.86615777,13.0393779 L9.5476467,13.0393779 C9.38796421,13.0393779 9.28293242,12.9334921 9.28293242,12.7746636 L9.28293242,12.29647 C9.28293242,12.1376414 9.38796421,12.0317557 9.5476467,12.0317557 L9.86615777,12.0317557 C9.9720435,12.0317557 10.1308721,11.8729271 10.1838149,11.7670414 L10.3434974,11.3426447 C10.3964403,11.235905 10.3964403,11.0770764 10.2897006,10.9711907 L10.0779292,10.7585654 C10.0272919,10.7102267 9.99864275,10.6432708 9.99864275,10.5732654 C9.99864275,10.5032599 10.0272919,10.4363041 10.0779292,10.3879654 L10.3434974,10.0165114 C10.3918361,9.96587415 10.4587919,9.93722499 10.5287974,9.93722499 C10.5988029,9.93722499 10.6657587,9.96587415 10.7140974,10.0165114 L10.9267228,10.2282829 C10.9796656,10.3341686 11.1914371,10.3341686 11.2981767,10.2812257 L11.7225735,10.1223972 C11.8814021,10.0686004 11.9872878,9.96356859 11.9872878,9.8038861 L11.9872878,9.48537503 C11.9872877,9.32654646 12.0931735,9.22066075 12.252002,9.22066075 Z M0,10.1223972 C0,11.3426447 2.65141247,12.29647 5.8348153,12.29647 C6.89538031,12.29647 7.85005958,12.1914382 8.69885315,12.0317557 C8.69885315,12.2443811 8.64505637,12.4561525 8.64505637,12.615835 C8.63959778,13.2825844 8.80417619,13.9397224 9.12324993,14.5251936 C8.22151351,14.736965 7.10715173,14.8966475 5.88775817,14.8966475 C2.65141249,14.8966475 0,13.9411143 0,12.7217207 Z M12.5175703,11.235905 C11.8284592,11.235905 11.2452338,11.8199843 11.2452338,12.5099493 C11.2452338,13.1990603 11.8284592,13.7822857 12.5184242,13.7822857 C13.2075352,13.7822857 13.7907606,13.1990603 13.7907606,12.5099493 C13.7907606,11.8199843 13.2604781,11.235905 12.5175703,11.235905 Z M11.7755163,6.19694041 L11.7755163,8.69037825 C10.6611546,8.95509253 9.75941814,9.64505752 9.22913564,10.5997368 C8.27445636,10.8123622 7.10715173,10.9711907 5.88775817,10.9711907 C2.65141249,10.9711907 0,10.0165114 0,8.79626396 L0,6.19694041 C0,7.41718789 2.65055857,8.37186718 5.88690425,8.37186718 C9.12324993,8.37186718 11.7755163,7.41718789 11.7755163,6.19694041 Z M5.88690425,1.00000057 C9.12324993,1.00000057 11.7755163,1.95468043 11.7755163,3.17322009 L11.7755163,4.92375007 C11.7755163,6.14399755 9.12324993,7.09953075 5.88690425,7.09953075 C2.65141249,7.09867684 0,6.0910547 0,4.92460399 L0,3.17407401 C0,1.95382651 2.65055857,0.99914724 5.88690425,1.00000057 Z" id="形状结合" fill="#666666" fill-rule="nonzero"></path>
            </g>
        </g>
    </g>
</svg>