<?xml version="1.0" encoding="UTF-8"?>
<svg width="16px" height="16px" viewBox="0 0 16 16" version="1.1" xmlns="http://www.w3.org/2000/svg" xmlns:xlink="http://www.w3.org/1999/xlink">
    <title>15-图标/6标签/1默认</title>
    <g id="平台icon231127" stroke="none" stroke-width="1" fill="none" fill-rule="evenodd">
        <g id="平台icon231128" transform="translate(-280, -424)">
            <g id="15-图标/6标签/1默认" transform="translate(280, 424)">
                <rect id="_mockplus_fix_" x="0" y="0" width="16" height="16"></rect>
                <g id="默认">
                    <circle id="椭圆形" fill="#A5B8D1" cx="8" cy="8" r="8"></circle>
                    <g id="默" transform="translate(3.584, 3.3472)" fill="#FFFFFF" fill-rule="nonzero">
                        <path d="M4.6176,5.6736 C4.1184,5.712 3.5136,5.7408 2.8032,5.7792 L2.8032,5.232 L4.4736,5.232 L4.4736,4.4448 L2.8032,4.4448 L2.8032,3.8784 L4.5696,3.8784 L4.5696,0.2592 L0.2016,0.2592 L0.2016,3.8784 L1.92,3.8784 L1.92,4.4448 L0.2688,4.4448 L0.2688,5.232 L1.92,5.232 L1.92,5.808 C1.3728,5.8272 0.7776,5.8368 0.1344,5.8464 L0.2592,6.672 C2.3232,6.5952 3.7728,6.5184 4.6176,6.432 L4.6176,5.6736 Z M0.3264,6.912 C0.2784,7.5648 0.1728,8.1504 0,8.6592 L0.8064,8.928 C0.9792,8.3712 1.0944,7.728 1.1424,7.008 L0.3264,6.912 Z M2.1504,6.9984 L1.4016,7.0848 C1.4592,7.488 1.5072,8.0544 1.5264,8.784 L2.352,8.6784 C2.3136,7.968 2.2464,7.4016 2.1504,6.9984 Z M4.2528,6.768 L3.5808,6.96 C3.7728,7.4592 3.9456,7.9776 4.08,8.5152 L4.6464,8.2944 L5.2032,8.9184 C5.8464,7.9392 6.336,6.7296 6.6624,5.28 C6.9696,6.6912 7.4976,7.9008 8.2272,8.9088 L8.928,8.1408 C7.9968,7.0176 7.3728,5.4432 7.056,3.4176 L8.592,3.4176 L8.592,2.4672 L7.0176,2.4672 C7.0176,1.488 7.0272,0.672 7.0272,0 L6.0576,0 C6.0576,0.576 6.048,1.392 6.0288,2.4672 L4.9056,2.4672 L4.9056,3.4176 L5.9808,3.4176 C5.856,5.0976 5.4336,6.6048 4.704,7.9392 C4.5888,7.5744 4.4352,7.1904 4.2528,6.768 Z M3.2064,6.8736 L2.5056,7.104 C2.64,7.5936 2.7648,8.1024 2.8608,8.6304 L3.648,8.4288 C3.5136,7.8432 3.3696,7.3248 3.2064,6.8736 Z M7.8432,0.24 L7.1616,0.6624 C7.5264,1.2096 7.824,1.7088 8.0352,2.16 L8.7264,1.6704 C8.5152,1.2576 8.2272,0.7776 7.8432,0.24 Z M3.7824,3.1296 L2.7264,3.1296 L2.7264,1.008 L3.7824,1.008 L3.7824,3.1296 Z M2.0352,3.1296 L0.9888,3.1296 L0.9888,1.008 L2.0352,1.008 L2.0352,3.1296 Z M3.1296,1.4016 C3.0816,1.8624 2.9952,2.2944 2.8704,2.6976 L3.3408,2.8608 C3.4752,2.4288 3.5712,1.9872 3.6192,1.5264 L3.1296,1.4016 Z M1.5552,1.4208 L1.0848,1.5744 C1.2192,1.9872 1.3344,2.4192 1.4304,2.8608 L1.8912,2.736 C1.7952,2.2368 1.6896,1.8048 1.5552,1.4208 Z" id="形状"></path>
                    </g>
                </g>
            </g>
        </g>
    </g>
</svg>