<?xml version="1.0" encoding="UTF-8"?>
<svg width="16px" height="16px" viewBox="0 0 16 16" version="1.1" xmlns="http://www.w3.org/2000/svg" xmlns:xlink="http://www.w3.org/1999/xlink">
    <title>字典管理</title>
    <g id="平台icon231127" stroke="none" stroke-width="1" fill="none" fill-rule="evenodd">
        <g id="平台icon231128" transform="translate(-88, -136)">
            <g id="字典管理" transform="translate(88.0002, 136)">
                <rect id="_mockplus_fix_" x="0" y="0" width="16" height="16"></rect>
                <path d="M4.57142858,5.71428572 L4.57142858,14.8571429 C4.57142858,15.1602474 4.45102076,15.4509376 4.23669347,15.6652649 C4.02236617,15.8795922 3.73167598,16 3.42857142,16 L1.14285714,16 C0.511674571,16 0,15.4883254 0,14.8571429 L0,5.71428572 L4.57142858,5.71428572 Z M10.2857143,8 L10.2857143,14.8571429 C10.2857143,15.1602474 10.1653065,15.4509376 9.95097917,15.6652649 C9.73665189,15.8795922 9.4459617,16 9.14285714,16 L6.85714286,16 C6.22596029,16 5.71428572,15.4883254 5.71428572,14.8571429 L5.71428572,8 L10.2857143,8 L10.2857143,8 Z M16,5.71428572 L16,14.8571429 C16,15.4883254 15.4883254,16 14.8571429,16 L12.5714286,16 C12.268324,16 11.9776338,15.8795922 11.7633065,15.6652649 C11.5489792,15.4509376 11.4285714,15.1602474 11.4285714,14.8571429 L11.4285714,5.71428572 L16,5.71428572 Z M14.8571429,11.4285714 L12.5714286,11.4285714 L12.5714286,13.7142857 L14.8571429,13.7142857 L14.8571429,11.4285714 Z M14.8571429,8 L12.5714286,8 L12.5714286,10.2857143 L14.8571429,10.2857143 L14.8571429,8 Z M9.14285714,2.28571428 C9.4459617,2.28571428 9.73665189,2.4061221 9.95097917,2.62044939 C10.1653065,2.83477668 10.2857143,3.12546686 10.2857143,3.42857142 L10.2857143,5.71428572 L5.71428572,5.71428572 L5.71428572,3.42857142 C5.71428572,2.79738885 6.22596029,2.28571428 6.85714286,2.28571428 L9.14285714,2.28571428 Z M3.42857142,0 C3.73167598,0 4.02236617,0.120407811 4.23669347,0.334735101 C4.45102076,0.549062391 4.57142858,0.839752579 4.57142858,1.14285714 L4.57142858,3.42857142 L0,3.42857142 L0,1.14285714 C0,0.511674571 0.511674571,0 1.14285714,0 L3.42857142,0 Z M14.8571429,0 C15.4883254,0 16,0.511674571 16,1.14285714 L16,3.42857142 L11.4285714,3.42857142 L11.4285714,1.14285714 C11.4285714,0.839752579 11.5489792,0.549062391 11.7633065,0.334735101 C11.9776338,0.120407811 12.268324,0 12.5714286,0 L14.8571429,0 L14.8571429,0 Z" id="形状" fill="#666666" fill-rule="nonzero"></path>
            </g>
        </g>
    </g>
</svg>