<?xml version="1.0" encoding="UTF-8"?>
<svg width="16px" height="16px" viewBox="0 0 16 16" version="1.1" xmlns="http://www.w3.org/2000/svg" xmlns:xlink="http://www.w3.org/1999/xlink">
    <title>15-图标/1框架/2基础字典</title>
    <g id="平台icon231127" stroke="none" stroke-width="1" fill="none" fill-rule="evenodd">
        <g id="平台icon231128" transform="translate(-88, -88)">
            <g id="15-图标/1框架/2基础字典" transform="translate(88, 88)">
                <rect id="_mockplus_fix_" x="0" y="0" width="16" height="16"></rect>
                <rect id="_mockplus_fix_" x="0" y="0" width="16" height="16"></rect>
                <path d="M14.3203125,0 L6.85625,0 L6.85625,4.571875 L5.1421875,3.4296875 L3.428125,4.571875 L3.428125,0 L1.678125,0 C1.3828125,0 1.1421875,0.240625 1.14374243,0.5359375 L1.14374243,15.4640625 C1.14374243,15.759375 1.384375,16 1.6796875,16 L14.321875,16 C14.6171875,16 14.8578125,15.759375 14.8578125,15.4640625 L14.8578125,0.5359375 C14.85625,0.240625 14.6171875,0 14.3203125,0 Z M4,6.8578125 L9.7140625,6.8578125 C10.0296875,6.8578125 10.2859375,7.1140625 10.2859375,7.4296875 C10.2859375,7.7453125 10.0296875,8.0015625 9.7140625,8.0015625 L4,8.0015625 C3.684375,8.0015625 3.428125,7.7453125 3.428125,7.4296875 C3.4296875,7.1125 3.684375,6.8578125 4,6.8578125 Z M4,9.7140625 L10.859375,9.7140625 C11.175,9.7140625 11.43125,9.9703125 11.43125,10.2859375 C11.43125,10.6015625 11.175,10.8578125 10.859375,10.8578125 L4,10.8578125 C3.684375,10.8578125 3.428125,10.6015625 3.428125,10.2859375 C3.4296875,9.9703125 3.684375,9.7140625 4,9.7140625 Z M12,13.715625 L4,13.715625 C3.684375,13.715625 3.428125,13.459375 3.428125,13.14375 C3.428125,12.8265625 3.684375,12.571875 4,12.571875 L12,12.571875 C12.315625,12.571875 12.571875,12.828125 12.571875,13.14375 C12.571875,13.459375 12.315625,13.715625 12,13.715625 Z" id="形状" fill="#666666" fill-rule="nonzero"></path>
            </g>
        </g>
    </g>
</svg>