<?xml version="1.0" encoding="UTF-8"?>
<svg width="16px" height="16px" viewBox="0 0 16 16" version="1.1" xmlns="http://www.w3.org/2000/svg" xmlns:xlink="http://www.w3.org/1999/xlink">
    <title>文档管理</title>
    <g id="平台icon231127" stroke="none" stroke-width="1" fill="none" fill-rule="evenodd">
        <g id="平台icon231128" transform="translate(-712, -88)">
            <g id="文档管理" transform="translate(712.0002, 88)">
                <rect id="_mockplus_fix_" x="0" y="0" width="16" height="16"></rect>
                <rect id="矩形" x="0" y="0" width="16" height="16"></rect>
                <path d="M10.0507692,7.44307692 C10.1164103,7.44307692 10.1820513,7.44307692 10.2476923,7.50871794 C10.3133333,7.57435896 10.3133333,7.57435896 10.3133333,7.64 C10.3789743,7.77128206 10.4446154,7.9025641 10.6415385,8.03384615 C10.8384615,8.16512821 10.9697436,8.23076923 11.1666667,8.23076923 C11.3635898,8.23076923 11.5605128,8.16512821 11.6917949,8.03384615 C11.8230769,7.9025641 11.954359,7.77128206 12.02,7.64 C12.02,7.57435898 12.085641,7.57435898 12.1512821,7.50871794 C12.2169231,7.44307692 12.2169231,7.44307692 12.2825641,7.44307692 C12.3482051,7.44307692 12.4794872,7.44307692 12.5451282,7.50871794 C12.6107693,7.57435896 12.7420513,7.57435896 12.8076923,7.57435898 C12.8733333,7.64 13.0046154,7.64 13.0702564,7.70564102 L13.2671795,7.9025641 C13.2671795,7.96820512 13.3328205,7.96820512 13.2671795,8.03384615 C13.2671795,8.09948717 13.2671795,8.09948717 13.2015385,8.16512821 C13.1358974,8.29641027 13.1358974,8.49333335 13.1358974,8.6902564 C13.1358974,8.88717946 13.2671795,9.01846154 13.3984615,9.1497436 C13.5297436,9.28102565 13.7266667,9.34666667 13.9235898,9.34666667 C14.1205128,9.34666667 14.3174359,9.34666667 14.4487179,9.28102563 C14.514359,9.28102563 14.58,9.21538462 14.645641,9.21538462 C14.711282,9.21538462 14.7769231,9.21538462 14.8425641,9.28102563 C14.9082051,9.34666665 14.9738462,9.47794871 15.0394872,9.60923077 C15.1051282,9.74051283 15.1707692,9.9374359 15.1707692,10.0687179 C15.1707692,10.134359 15.1707692,10.265641 15.1051282,10.265641 L14.9738462,10.3969231 C14.7769231,10.4625641 14.645641,10.5938462 14.514359,10.7251282 C14.3830769,10.8564103 14.3174359,11.0533333 14.3174359,11.2502564 C14.3174359,11.4471795 14.3830769,11.5784615 14.4487179,11.7753846 C14.58,11.9066667 14.711282,12.0379487 14.8425641,12.1035897 C14.9082051,12.1035897 14.9082051,12.1692308 14.9738462,12.1692308 C15.0394872,12.4317949 15.0394872,12.4974359 15.1051282,12.5630769 L15.1051282,12.825641 C15.1051282,12.891282 15.0394872,13.0225641 15.0394872,13.0882051 C15.0394872,13.1538462 14.9738462,13.2851282 14.9082051,13.3507692 L14.7112821,13.5476923 C14.645641,13.6133333 14.58,13.6133333 14.514359,13.6133333 C14.448718,13.6133333 14.3830769,13.6133333 14.3174359,13.5476923 C14.2517949,13.5476923 14.1861538,13.5476923 14.1205128,13.4820513 C14.0548718,13.4164103 13.9235898,13.4820513 13.8579487,13.4820513 C13.7923077,13.4820513 13.6610256,13.4820513 13.5953846,13.5476923 C13.5297436,13.6133333 13.4641026,13.6133333 13.3984615,13.6789744 C13.2671795,13.8102564 13.2015385,14.0071795 13.1358974,14.1384615 C13.1358974,14.3353846 13.1358974,14.4666667 13.2015385,14.6635897 C13.2671795,14.7948718 13.2671795,14.8605128 13.2015385,14.9917949 L13.0702564,15.1230769 C13.0046154,15.1887179 12.9389743,15.1887179 12.8076923,15.254359 C12.7420513,15.32 12.6107692,15.32 12.5451282,15.32 C12.4794872,15.32 12.3482051,15.385641 12.2825641,15.385641 C12.2169231,15.385641 12.151282,15.385641 12.1512821,15.32 C12.085641,15.254359 12.085641,15.254359 12.085641,15.1887179 C12.02,14.9917949 11.8887179,14.8605128 11.7574359,14.7292308 C11.6261539,14.5979487 11.4292308,14.5323077 11.2323077,14.5323077 C11.0353846,14.5323077 10.8384615,14.5979487 10.7071795,14.7292308 C10.5758974,14.8605128 10.4446154,14.9917949 10.3789744,15.1887179 C10.3789744,15.254359 10.3133333,15.32 10.2476923,15.32 C10.1820513,15.32 10.1164103,15.385641 10.0507692,15.385641 C9.98512821,15.385641 9.85384615,15.385641 9.78820513,15.32 C9.65692308,15.32 9.59128206,15.254359 9.46,15.1887179 C9.32871794,15.1230769 9.26307692,15.1230769 9.1974359,15.0574359 L9.00051283,14.8605128 C9.00051283,14.7948718 8.93487181,14.7948718 8.93487179,14.7292308 C8.93487177,14.6635897 8.93487179,14.5979487 9.00051283,14.5323077 C9.06615385,14.4010256 9.06615385,14.2697436 9.06615385,14.0728205 C9.06615385,13.8758974 9.00051283,13.7446154 8.86923077,13.6133333 C8.80358975,13.5476923 8.67230769,13.4820513 8.60666667,13.4164102 C8.47538462,13.4164102 8.4097436,13.3507692 8.27846154,13.4164102 C8.14717948,13.4164102 8.01589744,13.4164102 7.88461538,13.4820513 L7.62205129,13.4820513 C7.55641027,13.4820513 7.49076923,13.4164103 7.42512821,13.3507692 C7.35948719,13.2851282 7.29384615,13.1538462 7.29384615,13.0882051 C7.22820513,12.9569231 7.22820513,12.8912821 7.22820513,12.76 L7.22820513,12.4974359 C7.22820513,12.3661538 7.29384615,12.3005128 7.42512821,12.2348718 C7.62205129,12.1692308 7.75333335,12.0379487 7.88461538,11.9066667 C8.01589744,11.7753846 8.08153846,11.5784615 8.08153846,11.3815385 C8.08153846,11.1846154 8.01589744,10.9876923 7.88461538,10.8564102 C7.75333333,10.7251282 7.62205129,10.5938462 7.42512821,10.5282051 C7.35948719,10.5282051 7.35948719,10.4625641 7.29384615,10.3969231 C7.22820513,10.331282 7.22820513,10.265641 7.22820513,10.2 C7.22820513,10.134359 7.22820513,10.0687179 7.29384615,9.9374359 C7.29384615,9.87179488 7.35948717,9.74051283 7.35948717,9.67487179 C7.35948717,9.60923075 7.42512819,9.54358973 7.49076923,9.41230769 L7.62205129,9.28102563 C7.68769231,9.28102563 7.68769231,9.21538462 7.75333333,9.21538462 C7.81897435,9.21538462 7.81897435,9.21538462 7.88461538,9.28102563 C8.08153846,9.34666665 8.21282052,9.34666665 8.4097436,9.34666667 C8.60666667,9.34666667 8.73794873,9.21538462 8.86923077,9.08410256 C8.93487179,9.01846154 9.00051283,8.9528205 9.00051283,8.82153846 C9.00051283,8.69025642 9.06615385,8.62461538 9.06615385,8.55897437 L9.06615385,7.83692308 C9.13179487,7.77128206 9.13179487,7.70564102 9.26307692,7.64 C9.32871794,7.57435898 9.46,7.50871794 9.52564102,7.50871794 C9.65692308,7.44307692 9.7225641,7.44307692 9.85384615,7.44307692 L10.0507692,7.44307692 Z M5.8497436,1.07589744 C6.11230769,1.07589744 6.30923077,1.2071795 6.44051283,1.4697436 C6.50615385,1.4697436 6.50615385,1.53538462 6.50615385,1.53538462 L7.03128206,2.7825641 L7.22820513,3.17641025 C7.29384615,3.43897437 7.55641025,3.63589744 7.88461538,3.63589744 L15.0394872,3.63589744 C15.4333333,3.63589742 15.7615385,3.96410256 15.7615385,4.35794871 L15.7615385,8.95282052 C14.8425641,7.3774359 13.1358974,6.26153846 11.1666667,6.26153846 C8.27846154,6.26153846 5.91538462,8.62461538 5.91538462,11.5784615 C5.91538462,12.3005128 6.04666667,12.9569231 6.30923077,13.5476923 L0.729743596,13.5476923 C0.335897442,13.5476923 0.00769230769,13.2194872 0.00769230769,12.825641 L0.00769230769,1.79794871 C0.00769230769,1.40410258 0.335897442,1.07589744 0.729743596,1.07589744 L5.8497436,1.07589744 Z M11.1666667,9.67487179 C10.9041026,9.67487179 10.7071795,9.74051281 10.4446154,9.80615385 C10.2476923,9.87179487 10.0507692,10.0030769 9.85384615,10.2 C9.65692308,10.3969231 9.52564102,10.5282051 9.46,10.7907692 C9.39435898,10.9876923 9.32871794,11.2502564 9.32871794,11.5128205 C9.32871794,11.7753846 9.39435896,11.9723077 9.46,12.2348718 C9.52564104,12.4974359 9.65692308,12.6287179 9.85384615,12.825641 C10.0507692,13.0225641 10.1820513,13.1538462 10.4446154,13.2194872 C10.6415385,13.2851282 10.9041026,13.3507692 11.1666667,13.3507692 C11.4292308,13.3507692 11.6917949,13.2851282 11.8887179,13.2194872 C12.085641,13.1538462 12.2825641,13.0225641 12.4794872,12.825641 C12.6764103,12.6287179 12.8076923,12.4317949 12.8733333,12.2348718 C12.9389743,12.0379487 13.0046154,11.7753846 13.0046154,11.5128205 C13.0046154,11.2502564 12.9389744,11.0533333 12.8733333,10.7907692 C12.8076923,10.5938462 12.6764103,10.3969231 12.4794872,10.2 C12.2825641,10.0030769 12.085641,9.87179487 11.8887179,9.80615385 C11.6917949,9.74051283 11.4292308,9.67487179 11.1666667,9.67487179 Z M15.0394872,1.0102564 C15.4333333,1.0102564 15.7615385,1.33846154 15.6958974,1.73230769 L15.6958974,2.2574359 C15.6958974,2.65128204 15.3676923,2.97948717 14.9738462,2.97948717 L8.08153846,2.97948717 C7.81897437,2.97948717 7.62205129,2.84820512 7.49076923,2.58564102 L7.42512821,2.38871794 L7.29384615,1.99487179 C7.22820513,1.92923077 7.22820513,1.86358975 7.22820513,1.73230769 C7.22820513,1.33846154 7.49076923,1.0102564 7.88461538,1.0102564 L15.0394872,1.0102564 Z" id="形状结合" fill="#646464" fill-rule="nonzero"></path>
            </g>
        </g>
    </g>
</svg>