<?xml version="1.0" encoding="UTF-8"?>
<svg width="16px" height="16px" viewBox="0 0 16 16" version="1.1" xmlns="http://www.w3.org/2000/svg" xmlns:xlink="http://www.w3.org/1999/xlink">
    <title>企业用户管理</title>
    <g id="平台icon231127" stroke="none" stroke-width="1" fill="none" fill-rule="evenodd">
        <g id="平台icon231128" transform="translate(-472, -88)">
            <g id="企业用户管理" transform="translate(472, 88)">
                <rect id="_mockplus_fix_" x="0" y="0" width="16" height="16"></rect>
                <path d="M8.43719338,5.72650629e-05 C8.71831147,-0.00167800205 8.99760411,0.0360496649 9.26776954,0.109708443 C9.52515687,0.183367221 9.77524244,0.276788111 10.0162008,0.389971112 C10.2352539,0.497764446 10.4378779,0.630709558 10.6258985,0.785213336 C10.7938391,0.909175671 10.9435254,1.05649323 11.0694809,1.22177634 C11.3195665,1.5631219 11.5094124,1.94219512 11.6298916,2.34642012 C11.7540217,2.72190024 11.8434683,3.10636313 11.8927553,3.49801224 C11.9529949,3.9202028 11.9785511,4.34598647 11.9694238,4.77177014 C12.0387906,4.82027714 12.089903,4.88854625 12.1154592,4.96939125 C12.1592698,5.05921903 12.1921278,5.15623303 12.2122076,5.25504359 C12.2359384,5.39697148 12.2359384,5.54249248 12.2122076,5.68442037 C12.1939532,5.86766904 12.1483172,6.04732459 12.073474,6.21620082 C12.0187108,6.33118037 11.9438677,6.43717715 11.8525956,6.52880149 C11.7850542,6.60605337 11.7029093,6.66533971 11.6098118,6.70666049 C11.5678266,6.87014704 11.5331432,7.06058193 11.4783799,7.19712016 C11.4217912,7.33365838 11.367028,7.4701966 11.3049629,7.60673483 C11.2501997,7.72171438 11.1753565,7.82411805 11.0840844,7.91394583 C11.0055904,7.99299427 10.9197946,8.06665305 10.8285225,8.13132905 C10.7536794,8.18342916 10.6824872,8.2427155 10.6204221,8.30918805 C10.5565317,8.37745716 10.5054193,8.45470905 10.4689104,8.54094372 C10.3666857,8.80144428 10.3210496,9.07991039 10.3374786,9.3583765 C10.3447804,9.52725273 10.3849401,9.69433239 10.4543069,9.84883617 C10.5346264,10.0284917 10.6532801,10.1883852 10.8011409,10.3195337 C10.9909869,10.48841 11.2100399,10.6249482 11.445522,10.7219622 C11.713862,10.8315521 11.9895037,10.924973 12.2687963,11.0022248 C12.5663434,11.0507318 13.7565317,11.6220365 14.0266971,11.7316264 C14.2894017,11.8394019 14.5362155,11.9814004 14.7605248,12.153817 C14.9741015,12.3352691 15.1310896,12.5706179 15.2168853,12.8347115 L15.1968055,12.8041701 C15.2552196,13.0035877 15.2935539,13.2083951 15.3081574,13.4167955 C15.3329313,13.5913181 15.3400095,13.5403546 15.3420319,13.5866826 L15.3428408,13.7096341 C15.3428408,13.948576 15.3282373,14.1875179 15.2935539,14.4246632 C15.2752995,14.6025222 15.2223617,14.7749915 15.1420422,14.934885 C15.0197376,15.0444749 14.8718768,15.1235233 14.7130633,15.1666407 C12.7196805,15.743335 10.6496292,16.0235977 8.5722761,15.9984459 C6.45476326,15.9930562 4.34090131,15.7792661 2.26537365,15.3570755 C1.99338277,15.3031789 1.72869367,15.2151477 1.48225898,15.0911853 C1.31979464,14.8648193 1.23399886,14.5935394 1.23947519,14.3150733 C1.18836281,13.9054586 1.21026811,13.4904543 1.30154022,13.0880259 C1.34352539,12.7484769 1.50233885,12.4322831 1.75242442,12.1951377 C2.00616087,11.9885339 2.29458072,11.8286404 2.60490588,11.7244402 C2.93166001,11.6004779 4.44130063,11.0489353 4.79361095,10.9537178 C5.11860222,10.8693267 5.42578541,10.7288108 5.70085568,10.5387135 C5.88157444,10.4291236 6.04403879,10.2961785 6.18642327,10.1434713 C6.28864803,10.0302883 6.37079293,9.90273284 6.42920707,9.76260151 C6.47301768,9.63324951 6.49674843,9.49671128 6.49857387,9.36017306 L6.49857387,8.91103417 C6.49309755,8.6954475 6.41095265,8.48704705 6.26309184,8.32535705 C6.12070736,8.17624294 5.96919566,8.03251849 5.80673132,7.89598027 C5.71363377,7.80794905 5.64061609,7.70195227 5.59132915,7.5833796 C5.53656589,7.4540276 5.48180262,7.31748938 5.43251569,7.18095116 L5.28100399,6.68330526 C5.20250998,6.65995004 5.1294923,6.62401893 5.06560183,6.57371537 C4.99440958,6.50364971 4.93051911,6.42999093 4.87210496,6.34914593 C4.78630918,6.22338704 4.72606959,6.08145915 4.6913862,5.93414159 C4.64209926,5.77784126 4.6220194,5.6143547 4.63662293,5.45086814 C4.66217912,5.33229548 4.69868796,5.21551937 4.7479749,5.10413292 C4.78996007,4.9837637 4.8520251,4.8705807 4.92869367,4.76997358 C4.89583571,3.99745469 4.97615516,3.2249358 5.1641757,2.47397557 C5.25909869,2.10568168 5.41426127,1.7571499 5.62053622,1.43736301 C5.97284655,0.923548115 6.47119224,0.522916224 7.05350827,0.285770889 C7.27438677,0.186960333 7.50621791,0.113301554 7.74535083,0.0683876651 C7.97353109,0.027066887 8.20536224,0.00371166466 8.43719338,5.72650629e-05 Z M8.94284084,10.9501247 L8.19440958,10.9501247 C8.10313748,11.0201904 8.0173417,11.0974423 7.93884769,11.1818804 C7.87495722,11.2465564 7.81836851,11.3202152 7.77273246,11.3992636 C7.72527096,11.4783121 7.69788933,11.5663433 7.69606389,11.6579676 C7.69788933,11.7477954 7.72709641,11.8358266 7.78003423,11.9094854 C7.8567028,12.0226684 7.9479749,12.1268686 8.05019966,12.2166964 C8.01003993,12.3514381 7.98996007,12.4466555 7.93337136,12.6317007 C7.87678266,12.816746 7.82749572,13.0071809 7.787336,13.1976158 C7.74717627,13.3880506 7.6705077,13.5784855 7.6705077,13.7491583 C7.64130063,13.8785103 7.62487165,14.0114554 7.62122076,14.1444005 C7.63399886,14.2252455 7.67233314,14.3024974 7.73257273,14.3617838 C7.81289218,14.4677805 7.90416429,14.5647945 8.00273816,14.6546223 C8.10131204,14.7444501 8.20536224,14.8270917 8.31488876,14.9007504 C8.37877924,14.9492574 8.4554478,14.9815954 8.53576726,14.9959679 C8.62338848,14.9851885 8.70370793,14.9492574 8.77124929,14.8935642 C8.88077581,14.8199054 8.98300057,14.7390604 9.07609812,14.6474361 C9.17102111,14.5594049 9.25864233,14.4641874 9.33896178,14.3617838 L9.34261266,14.3761562 C9.40285225,14.3150733 9.44118654,14.2360249 9.45396463,14.1515868 C9.44848831,14.0384038 9.43388477,13.9270173 9.41197946,13.8174274 C9.38459783,13.6539409 9.30792926,13.4760819 9.30792926,13.2928332 L9.1837992,12.7269182 C9.1491158,12.5364833 9.079749,12.3927589 9.079749,12.2705931 C9.18562464,12.186155 9.28054763,12.0909375 9.36451797,11.9849407 C9.42840844,11.8933164 9.46491728,11.7837265 9.46856817,11.6723401 C9.46856817,11.5789192 9.4393611,11.4890914 9.38459783,11.4136361 C9.33896178,11.3256048 9.27507131,11.2465564 9.19840274,11.1818804 L8.94284084,10.9501247 Z M4.08351398,2.3068959 C3.98859099,2.66800357 3.91922419,3.03809402 3.87541358,3.40998102 C3.82612664,3.76929213 3.80057045,4.1303998 3.79874501,4.49330403 C3.75310896,4.58492836 3.71477467,4.67834925 3.68191671,4.7735667 C3.61254991,4.96579814 3.56508842,5.16341925 3.54318311,5.36643003 C3.51032516,5.70597904 3.55048488,6.04732459 3.66001141,6.36890804 C3.72572732,6.6294086 3.83890473,6.87733327 3.99224187,7.0983096 C4.09446663,7.24023749 4.21312037,7.36958949 4.3445522,7.4863656 L4.3445522,7.60853138 C4.39931546,7.77920416 4.46868226,7.93550449 4.53804906,8.09899105 C4.64209926,8.33613639 4.79543639,8.5499265 4.98893326,8.72598894 L5.26640046,8.97750672 C5.25909869,9.0349965 5.25909869,9.09248628 5.26640046,9.1481795 C5.27187678,9.25417628 5.29560753,9.36017306 5.33576726,9.46078017 L5.33576726,9.50210095 C5.24814604,9.59552184 5.14774672,9.67636684 5.03822019,9.74104284 C4.84472333,9.86859828 4.63297205,9.96201917 4.40844267,10.0213055 C4.16748431,10.0967608 3.49572162,10.3213303 2.24894467,10.7776554 L2.24894467,10.8010106 L2.159498,10.8010106 C1.71591557,10.9357523 1.29971477,11.151339 0.934626355,11.4351947 C0.489218483,11.8250473 0.204449515,12.364014 0.1387336,12.9478945 L0.1387336,13.0161636 C0.1040502,13.2676814 0.0620650314,13.4581163 0.0620650314,13.6287891 L0,13.6287891 L0,10.7399277 C0.421677125,10.5908136 1.04415288,10.3662442 1.22487165,10.3177372 C1.46948089,10.2530612 1.70313748,10.1524541 1.9167142,10.0177124 C2.04997148,9.9368674 2.17045066,9.83805684 2.2763263,9.72487384 C2.35116942,9.64223228 2.40958357,9.54701484 2.4497433,9.44461117 C2.4844267,9.35119028 2.50085568,9.25237973 2.49903023,9.15177261 L2.49903023,8.83198572 C2.50085568,8.67388883 2.44244153,8.51938505 2.332915,8.40260894 C2.2288648,8.29301905 2.11751284,8.18702227 2.00068454,8.09000827 C1.93679407,8.02533227 1.88385625,7.94987694 1.84917285,7.86543883 C1.80171135,7.76303516 1.76702795,7.66781771 1.72504278,7.56541405 L1.62099258,7.2114926 C1.56440388,7.19173049 1.51146606,7.16478216 1.46217912,7.12885104 C1.41106674,7.07854749 1.36543069,7.02285427 1.32344552,6.96536449 C1.26138049,6.8719436 1.21574444,6.77133649 1.18471192,6.66533971 C1.16463206,6.5485636 1.16463206,6.42819437 1.18471192,6.31141826 C1.19931546,6.12457648 1.26503137,5.94492093 1.37820878,5.79401026 C1.37090702,5.49757859 1.38551055,5.20294348 1.42019395,4.90830836 C1.45122647,4.63882503 1.50598973,4.37113825 1.57900742,4.11063769 C1.65385054,3.84295091 1.76702795,3.58784002 1.91853965,3.3542878 C2.04266971,3.15666669 2.19965773,2.9824008 2.38220194,2.83687979 C2.54284084,2.71291746 2.71625784,2.60512413 2.9006275,2.5170929 C3.06856817,2.44523068 3.24563605,2.39313057 3.42635482,2.36079257 C3.59612094,2.32665801 3.76953793,2.30869246 3.94478038,2.3068959 Z M12.7123788,2.32126835 C12.9168283,2.32126835 13.1194524,2.35001324 13.3147747,2.4039099 C13.6725613,2.50811013 14.0084427,2.67698635 14.3041643,2.90155579 C14.4246435,2.99138357 14.5323446,3.09917691 14.6217912,3.22134269 C14.8152881,3.46567424 14.9667998,3.73875069 15.0726754,4.03158925 C15.1548203,4.30646225 15.2168853,4.58672492 15.2588705,4.8705807 C15.3008557,5.1777917 15.3191101,5.48859581 15.3136338,5.79760337 C15.3647461,5.83353448 15.401255,5.88383804 15.417684,5.94132781 C15.4487165,6.00780037 15.4742727,6.07606948 15.4943525,6.14613515 C15.5089561,6.24853882 15.5089561,6.35453559 15.4943525,6.45873582 C15.4815744,6.59347749 15.446891,6.72462604 15.3903023,6.84679182 C15.3519681,6.93122993 15.3008557,7.01027838 15.2387906,7.07854749 C15.1767256,7.13244416 15.1037079,7.17556149 15.0233885,7.20071327 C14.9960068,7.32287905 14.92664,7.44684138 14.92664,7.56182094 C14.8919566,7.66242805 14.8517969,7.75944205 14.80251,7.85465949 C14.7660011,7.94269072 14.7130633,8.02173916 14.6436965,8.08641516 L14.4629778,8.2427155 C14.4045636,8.27864661 14.3516258,8.32176394 14.3041643,8.3720675 C14.2567028,8.42237105 14.220194,8.47986083 14.1928123,8.54274028 C14.1234455,8.72958205 14.0942384,8.92899972 14.108842,9.12841739 C14.1161438,9.25237973 14.1453508,9.3745455 14.1928123,9.48952506 C14.2530519,9.62067362 14.3406731,9.73565317 14.4483742,9.83087062 C14.5889333,9.9530364 14.7477467,10.051847 14.9193383,10.1237092 C15.1146606,10.1991645 15.3118083,10.2656371 15.5144324,10.3213303 L15.3081574,10.3213303 C15.5436395,10.4003787 15.7736452,10.4920031 16,10.5944067 L16,13.5641131 L15.9580148,13.5641131 C15.9598403,13.4491335 15.9452367,13.334154 15.9160297,13.2227675 C15.8941244,12.9478945 15.843012,12.6766146 15.764518,12.412521 C15.6276098,11.9813476 15.3738734,11.5950882 15.0306902,11.2950634 C14.7422704,11.0651043 14.4209926,10.8800591 14.075984,10.7435208 L13.6816885,10.5728481 L12.989846,10.2602474 C12.767142,10.1542506 12.5353109,10.0662194 12.2980034,9.99435717 C12.0625214,9.93507084 11.8306902,9.85781895 11.6061609,9.76260151 C11.4710782,9.70870484 11.3451226,9.63504606 11.2319452,9.54521828 C11.2921848,9.42664562 11.3213919,9.29729361 11.3213919,9.1643485 L11.3213919,8.86432372 C11.6061609,8.6469405 11.8288648,8.35949161 11.965773,8.03251849 C12.0406161,7.86903194 12.1099829,7.70554538 12.1738734,7.54205882 L12.1738734,7.50073805 L12.2231603,7.35162393 C12.4495151,7.16657871 12.6302339,6.93302649 12.7561894,6.67072937 C12.8730177,6.4030426 12.9496863,6.12098337 12.9843697,5.83173792 C13.0227039,5.57842359 13.0227039,5.32151614 12.9843697,5.06820181 C12.9387336,4.82925992 12.8547633,4.59930081 12.7342841,4.38730725 C12.7269823,4.04057202 12.6996007,3.6938368 12.6503137,3.35069469 C12.6046777,3.00216291 12.5334855,2.65902079 12.4349116,2.32126835 Z" id="形状结合" fill="#666666" fill-rule="nonzero"></path>
            </g>
        </g>
    </g>
</svg>