<?xml version="1.0" encoding="UTF-8"?>
<svg width="16px" height="16px" viewBox="0 0 16 16" version="1.1" xmlns="http://www.w3.org/2000/svg" xmlns:xlink="http://www.w3.org/1999/xlink">
    <title>企业管理</title>
    <g id="平台icon231127" stroke="none" stroke-width="1" fill="none" fill-rule="evenodd">
        <g id="平台icon231128" transform="translate(-520, -88)">
            <g id="企业管理" transform="translate(520, 88)">
                <rect id="_mockplus_fix_" x="0" y="0" width="16" height="16"></rect>
                <path d="M13.1703291,8.61475803 C13.6334635,8.61475803 13.9948689,8.79938908 14.0796431,8.99515366 C14.2572225,9.37462149 13.9020636,9.93964817 14.4455103,10.3200438 C14.9041829,10.5983821 15.3530396,10.2216976 15.6341327,10.3200438 C15.8117122,10.4174622 15.9063023,10.7004394 16,11.0799073 C15.8215282,11.6291614 14.9969883,11.5326708 15.0826548,12.4010862 C15.1763525,13.0626035 15.7233687,12.9661129 15.8126046,13.2583681 C15.8126046,13.4429991 15.7153374,14.1147222 15.4476297,14.2019348 C15.1763525,14.2019348 14.8069158,14.1091554 14.539208,14.2019348 C14.3616286,14.3039922 14.1733408,14.3874937 14.0796431,14.5823304 C13.9011712,15.0592167 14.2581149,15.4386845 14.0796431,15.6242433 C13.8083659,15.8098022 13.2551032,16.0964906 13.0766313,15.9025816 C12.8053542,15.6196044 12.8053542,15.2392087 12.2529838,15.2392087 C11.5212493,15.2392087 11.523034,16 11.1571668,16 C10.7912995,16 10.1550474,15.7133116 10.1550474,15.4349733 C10.2523146,15.0545777 10.4307864,14.7725283 10.0658115,14.3921326 C9.60713887,14.011737 9.06369214,14.3921326 8.87629671,14.2065738 C8.60858896,14.0219427 8.5157836,13.5450565 8.60858896,13.2620793 C8.70139431,12.979102 9.33943112,12.979102 9.33943112,12.2201664 C9.33943112,11.6551397 8.69782487,11.5567935 8.60858896,11.1782535 C8.51399888,10.8952762 8.70585611,10.41839 8.97356386,10.3209716 C9.43134412,10.1354128 9.70351366,10.5065304 10.1630786,10.1354128 C10.4307864,9.85243552 10.3415505,9.18999045 10.3415505,8.99515366 C10.4352482,8.71310422 10.8002231,8.61475803 11.0723926,8.61475803 C11.6158394,8.61475803 11.4382599,9.28184207 12.1691021,9.37462149 C12.9026213,9.37462149 12.8053542,9.09257205 13.1703291,8.61475803 Z M7.58505298,0.0604953478 C7.75163026,-0.0275955511 7.95033142,-0.0190060022 8.10930051,0.0831577704 C8.26826959,0.185321543 8.36449928,0.366273554 8.36319018,0.560576431 L8.36319018,3.85610149 L8.37568321,3.86259605 L8.37568321,10.0277886 C8.28438967,10.1295311 8.20828773,10.2449332 8.14991634,10.3701447 C7.99892902,10.6720126 7.96415078,11.0223262 8.05264919,11.3498954 C8.14723926,11.6978182 8.39799219,11.8963662 8.57646403,12.0429577 C8.64182635,12.0914434 8.70169831,12.1474679 8.75493586,12.2099606 C8.75493586,12.3658301 8.73708868,12.3816026 8.54969325,12.5031436 C8.39263804,12.6014898 8.15616286,12.7545758 8.05532627,13.0598201 C7.8884551,13.5599012 8.03747909,14.3216203 8.52292248,14.68346 C8.67354626,14.8061332 8.86085631,14.8698451 9.05209147,14.8634521 C9.14682718,14.8619006 9.24134586,14.8535304 9.33496933,14.8384016 C9.40650095,14.8271598 9.47861149,14.820344 9.55092025,14.8179902 C9.59645171,14.8127629 9.64248461,14.8207933 9.68388176,14.841185 L9.70619074,14.8708744 C9.69375632,14.936304 9.6770605,15.0007795 9.65621863,15.0638556 C9.63747909,15.1260178 9.61695482,15.1965302 9.59821528,15.2735371 L9.5803681,15.3477607 L9.5803681,15.4526014 L0.754935862,15.4526014 C0.337996298,15.4526014 0,15.1011835 0,14.6676875 C0,14.2258414 0.337996298,13.8744234 0.754935862,13.8744234 L0.754935862,4.33205992 C0.754952413,3.8869661 0.996752252,3.48005471 1.37958728,3.28086908 Z M12.534077,14.0061702 C14.6453988,13.529284 14.3607362,10.0129439 11.8023424,10.4944691 C9.61160067,11.0604236 10.4352482,14.3819269 12.534077,14.0108092 Z M5.31489124,11.5122594 L3.79788065,11.5122594 L3.79788065,13.0895095 L5.31489124,13.0895095 L5.31489124,11.5122594 Z M5.31489124,8.34848109 L3.79788065,8.34848109 L3.79788065,9.92573126 L5.31489124,9.92573126 L5.31489124,8.34848109 Z M9.2340558,4.63362177 C9.40655149,4.52268842 9.62198617,4.51249759 9.80345789,4.60668701 L13.8172895,6.68680165 C14.2001245,6.88598728 14.4419409,7.29289867 14.4419409,7.7379925 L14.4419409,8.48022787 C14.1706637,8.19075607 13.7012828,8.00519723 13.1747909,8.00519723 L12.8928054,8.00519723 L12.7143335,8.2352902 C12.619221,8.36150576 12.5327471,8.4945072 12.4555494,8.63331392 C12.4332404,8.67135348 12.4046849,8.72052657 12.3868377,8.7483604 C12.3280029,8.75988806 12.2682349,8.76548078 12.2083659,8.76506069 C12.1226994,8.75021599 12.1102064,8.72794893 12.0209704,8.59249097 C11.8987172,8.40229316 11.6443949,8.00519723 11.073285,8.00519723 C10.8476057,8.0040858 10.6238927,8.04884014 10.4147239,8.13694401 C10.2933777,8.18924224 10.180974,8.26161845 10.081874,8.35126447 L9.8775237,8.60269671 C9.84065811,8.66319488 9.81071018,8.72796014 9.78828779,8.7956779 L9.75616286,8.88845732 L9.75616286,8.99051469 C9.75616286,9.03968778 9.76240937,9.09349985 9.76240937,9.15473427 C9.78214498,9.33245553 9.77643127,9.51223693 9.74545455,9.68821594 C9.73495366,9.69248744 9.72369831,9.69438511 9.71243726,9.69378271 C9.66610667,9.69145366 9.61993282,9.68649806 9.57412158,9.678938 C9.47074391,9.66240742 9.36638055,9.65341679 9.26179587,9.65203197 C9.15908861,9.65224431 9.05672536,9.66438084 8.95660903,9.68821594 L8.95660903,5.15130222 C8.95660903,4.94042078 9.0615601,4.74455512 9.2340558,4.63362177 Z M5.31489124,5.19398075 L3.79788065,5.19398075 L3.79788065,6.77123092 L5.31489124,6.77123092 L5.31489124,5.19398075 Z" id="形状结合" fill="#666666" fill-rule="nonzero"></path>
            </g>
        </g>
    </g>
</svg>