<?xml version="1.0" encoding="UTF-8"?>
<svg width="16px" height="16px" viewBox="0 0 16 16" version="1.1" xmlns="http://www.w3.org/2000/svg" xmlns:xlink="http://www.w3.org/1999/xlink">
    <title>审核管理</title>
    <g id="平台icon231127" stroke="none" stroke-width="1" fill="none" fill-rule="evenodd">
        <g id="平台icon231128" transform="translate(-568, -88)">
            <g id="审核管理" transform="translate(568, 88)">
                <rect id="_mockplus_fix_" x="0" y="0" width="16.0002099" height="16"></rect>
                <path d="M10.3851123,9.17387318 C10.0356459,9.17324943 9.75214711,8.89316762 9.75024494,8.54665698 L9.75024494,8.03389628 C9.7507859,7.80953317 9.87171917,7.60241382 10.0676791,7.49023259 C11.3408754,6.75657275 12.2458483,5.43461157 12.1754358,3.82193339 C12.1061776,2.22527898 11.0095902,0.798018727 9.44320092,0.24634314 C6.62900994,-0.74026338 3.85060252,1.38403095 3.85060253,3.99705032 C3.85060253,5.5307542 4.73595305,6.78289751 5.96297725,7.49137713 C6.15920878,7.60468809 6.27925582,7.81185258 6.28156443,8.03504083 L6.28156443,8.54894608 C6.28156472,8.71549266 6.21476242,8.87520126 6.095885,8.99286008 C5.97700757,9.11051889 5.81581687,9.17646622 5.64785212,9.1761623 L1.53645371,9.1761623 C0.69265815,9.1761623 5.97398406e-07,9.83771516 5.97398406e-07,10.6492047 L5.97398406e-07,12.2801958 C-0.000229952965,12.4467421 0.0662790841,12.6065712 0.184939979,12.7244447 C0.303600875,12.8423183 0.464669825,12.9085566 0.632634854,12.9085566 L15.3677002,12.9085566 C15.535465,12.9085566 15.6963594,12.8424751 15.8149871,12.7248492 C15.9336147,12.6072234 16.000408,12.4476885 16.000408,12.2813404 L16.000408,10.6469156 C16.0037214,9.83657061 15.3134486,9.17272864 14.4673444,9.17272862 L10.3851123,9.17387318 Z M14.4130917,14.3335277 L1.56069403,14.3335277 C0.999702722,14.3335277 0.718052974,14.6105101 0.718052974,15.1667639 C0.718052974,15.7218731 0.999702737,16 1.56069403,16 L14.4130917,16 C14.974083,16 15.2557327,15.7230177 15.2557327,15.1667639 C15.2557327,14.6105101 14.974083,14.3335277 14.4130917,14.3335277 Z" id="形状" fill="#666666" fill-rule="nonzero"></path>
            </g>
        </g>
    </g>
</svg>