<?xml version="1.0" encoding="UTF-8"?>
<svg width="16px" height="16px" viewBox="0 0 16 16" version="1.1" xmlns="http://www.w3.org/2000/svg" xmlns:xlink="http://www.w3.org/1999/xlink">
    <title>15-图标/2提示/警告</title>
    <g id="平台icon231127" stroke="none" stroke-width="1" fill="none" fill-rule="evenodd">
        <g id="平台icon231128" transform="translate(-232, -232)">
            <g id="15-图标/2提示/警告" transform="translate(232, 232)">
                <rect id="_mockplus_fix_" x="0" y="0" width="16" height="16"></rect>
                <g id="警告" fill-rule="nonzero">
                    <path d="M8,0 C3.58125,0 0,3.58125 0,8 C0,12.41875 3.58125,16 8,16 C12.41875,16 16,12.4171875 16,8 C16,3.5828125 12.41875,0 8,0 Z" id="路径" fill="#FF9B54"></path>
                    <path d="M8,13.0109375 C7.5375,13.0109375 7.1640625,12.6359375 7.1640625,12.1734375 C7.1640625,11.7109375 7.5390625,11.3359375 8.0015625,11.3374951 C8.4640625,11.3374951 8.8375,11.7125 8.8375,12.175 C8.8375,12.396875 8.75,12.609375 8.5921875,12.7671875 C8.434375,12.921875 8.221875,13.0109375 8,13.0109375 Z M8.7765625,4.0390625 L8.7765625,9.815625 C8.7765625,10.334375 8.5171875,10.5921875 8,10.5921875 C7.4828125,10.5921875 7.2234375,10.3328125 7.2234375,9.815625 L7.2234375,4.0390625 C7.2234375,3.5203125 7.4828125,3.26249298 8,3.26249298 C8.5171875,3.2609375 8.7765625,3.5203125 8.7765625,4.0390625 Z" id="形状" fill="#FFFFFF"></path>
                </g>
            </g>
        </g>
    </g>
</svg>