<?xml version="1.0" encoding="UTF-8"?>
<svg width="16px" height="16px" viewBox="0 0 16 16" version="1.1" xmlns="http://www.w3.org/2000/svg" xmlns:xlink="http://www.w3.org/1999/xlink">
    <title>意见反馈</title>
    <g id="平台icon231127" stroke="none" stroke-width="1" fill="none" fill-rule="evenodd">
        <g id="平台icon231128" transform="translate(-616, -136)">
            <g id="意见反馈" transform="translate(616, 136)">
                <rect id="_mockplus_fix_" x="0" y="0" width="16" height="16"></rect>
                <path d="M13.7756897,5.56915663 L13.7756897,1.44385542 C13.7756897,0.645783133 13.1299843,0 12.3320082,0 L3.66606433,0 C2.86808818,0 2.22238285,0.647710843 2.22238285,1.44385542 L2.22238285,5.56915663 L7.99903626,9.67710843 L13.7756897,5.56915663 Z M4.44476569,1.7773494 L11.5552343,1.7773494 C11.8000241,1.7773494 12.0004819,1.97590361 12.0004819,2.2226506 C12.0004819,2.46746988 11.8019516,2.66795181 11.5552343,2.66795181 L4.44476569,2.66795181 C4.19997591,2.66795181 3.99951813,2.46939759 3.99951813,2.2226506 C3.99951813,1.97590361 4.19804843,1.7773494 4.44476569,1.7773494 Z M3.99951813,4 C3.99951813,3.75518072 4.19804843,3.5546988 4.44476569,3.5546988 L8.88953138,3.5546988 C9.13432117,3.5546988 9.33477894,3.75325301 9.33477894,4 C9.33477894,4.24481928 9.13624864,4.4453012 8.88953138,4.4453012 L4.44476569,4.4453012 C4.19804843,4.4453012 3.99951813,4.24481928 3.99951813,4 Z M15.8535116,5.18361446 L8.76617275,10.2226506 L15.8535116,15.2616867 C15.9441031,15.0824096 16,14.8819277 16,14.6679518 L16,5.7773494 C15.9980725,5.56337349 15.9421756,5.36289157 15.8535116,5.18361446 Z M0,5.7773494 L0,14.6660241 C0,15.4024096 0.597518371,16 1.3338152,16 L14.6661848,16 C14.8570052,16 15.0362607,15.9595181 15.2000964,15.8862651 L0.146488375,5.18168675 C0.0558968799,5.36289157 0,5.56337349 0,5.7773494 L0,5.7773494 Z" fill="#666666" fill-rule="nonzero"></path>
            </g>
        </g>
    </g>
</svg>