<?xml version="1.0" encoding="UTF-8"?>
<svg width="16px" height="16px" viewBox="0 0 16 16" version="1.1" xmlns="http://www.w3.org/2000/svg" xmlns:xlink="http://www.w3.org/1999/xlink">
    <title>15-图标/6标签/1女</title>
    <g id="平台icon231127" stroke="none" stroke-width="1" fill="none" fill-rule="evenodd">
        <g id="平台icon231128" transform="translate(-184, -424)">
            <g id="15-图标/6标签/1女" transform="translate(184, 424)">
                <rect id="_mockplus_fix_" x="0" y="0" width="16" height="16"></rect>
                <rect id="_mockplus_fix_" x="0" y="0" width="16" height="16"></rect>
                <g id="女" fill-rule="nonzero">
                    <path d="M2,0 L14,0 C15.3333333,0 16,0.666666667 16,2 L16,14 C16,15.3333333 15.3333333,16 14,16 L2,16 C0.666666667,16 0,15.3333333 0,14 L0,2 C0,0.666666667 0.666666667,0 2,0 Z" id="路径" fill="#FF82AA"></path>
                    <path d="M12.356,13.212 L13.22,12.36 C12.212,11.496 11.132,10.728 10.004,10.056 L9.572,9.804 C10.448,8.724 11.036,7.416 11.348,5.868 L13.34,5.868 L13.34,4.776 L7.112,4.776 C7.412,4.056 7.724,3.276 8.048,2.436 L6.896,2.1 C6.56,3 6.2,3.888 5.816,4.776 L2.66,4.776 L2.66,5.868 L5.324,5.868 C4.916,6.768 4.472,7.668 4.016,8.556 C5.396,9.048 6.608,9.552 7.652,10.08 C6.44,11.04 4.808,11.712 2.768,12.12 L3.26,13.212 C5.564,12.732 7.388,11.892 8.744,10.668 C8.768,10.668 8.804,10.692 8.84,10.716 C10.088,11.448 11.252,12.276 12.356,13.212 Z M8.516,9.264 C7.676,8.856 6.692,8.46 5.588,8.064 C5.924,7.404 6.284,6.672 6.644,5.868 L10.208,5.868 C9.944,7.176 9.38,8.304 8.516,9.264 Z" id="形状" fill="#FFFFFF"></path>
                </g>
            </g>
        </g>
    </g>
</svg>