<?xml version="1.0" encoding="UTF-8"?>
<svg width="16px" height="16px" viewBox="0 0 16 16" version="1.1" xmlns="http://www.w3.org/2000/svg" xmlns:xlink="http://www.w3.org/1999/xlink">
    <title>15-图标/6标签/2文件</title>
    <g id="平台icon231127" stroke="none" stroke-width="1" fill="none" fill-rule="evenodd">
        <g id="平台icon231128" transform="translate(-376, -424)">
            <g id="15-图标/6标签/2文件" transform="translate(376, 424)">
                <rect id="_mockplus_fix_" x="0" y="0" width="16" height="16"></rect>
                <rect id="_mockplus_fix_" x="0" y="0" width="16" height="16"></rect>
                <path d="M9.6,1 L9.6,4.525 C9.6,5.00824916 9.99175084,5.4 10.475,5.4 L10.475,5.4 L14,5.399 L14,14.125 C14,14.6082492 13.6082492,15 13.125,15 L2.875,15 C2.39175084,15 2,14.6082492 2,14.125 L2,1.875 C2,1.39175084 2.39175084,1 2.875,1 L9.6,1 Z M11,11 L5,11 C4.72385763,11 4.5,11.2238576 4.5,11.5 C4.5,11.7761424 4.72385763,12 5,12 L5,12 L11,12 C11.2761424,12 11.5,11.7761424 11.5,11.5 C11.5,11.2238576 11.2761424,11 11,11 L11,11 Z M11,8 L5,8 C4.72385763,8 4.5,8.22385763 4.5,8.5 C4.5,8.77614237 4.72385763,9 5,9 L5,9 L11,9 C11.2761424,9 11.5,8.77614237 11.5,8.5 C11.5,8.22385763 11.2761424,8 11,8 L11,8 Z M8,5 L5,5 C4.72385763,5 4.5,5.22385763 4.5,5.5 C4.5,5.77614237 4.72385763,6 5,6 L5,6 L8,6 C8.27614237,6 8.5,5.77614237 8.5,5.5 C8.5,5.22385763 8.27614237,5 8,5 L8,5 Z M10.5,1 L14,4.5 L10.9375,4.5 C10.6958754,4.5 10.5,4.30412458 10.5,4.0625 L10.5,1 Z" id="文件" fill="#198EEB" fill-rule="nonzero"></path>
            </g>
        </g>
    </g>
</svg>