<?xml version="1.0" encoding="UTF-8"?>
<svg width="16px" height="16px" viewBox="0 0 16 16" version="1.1" xmlns="http://www.w3.org/2000/svg" xmlns:xlink="http://www.w3.org/1999/xlink">
    <title>15-图标/1框架/2首页</title>
    <g id="平台icon231127" stroke="none" stroke-width="1" fill="none" fill-rule="evenodd">
        <g id="平台icon231128" transform="translate(-184, -88)">
            <g id="15-图标/1框架/2首页" transform="translate(184, 88)">
                <rect id="_mockplus_fix_" x="0" y="0" width="16" height="16"></rect>
                <rect id="_mockplus_fix_" x="0" y="0" width="16" height="16"></rect>
                <path d="M5.3376383,14.1758727 L5.3376383,11.7209436 C5.3376383,11.704066 5.34232626,11.6887227 5.34232626,11.6733794 C5.36889133,10.2372459 6.55181846,9.07422325 8.00664695,9.07422325 C9.46147543,9.07422325 10.6444026,10.2372459 10.6709676,11.6733794 C10.6709676,11.6887227 10.6756556,11.704066 10.6756556,11.7209436 L10.6756556,14.1758727 M15.6995799,5.34886843 L14.013479,4.25489068 L14.013479,2.13444572 C14.013479,1.77234369 13.7150126,1.47928654 13.3462269,1.47928654 C12.9774411,1.47928654 12.6789747,1.77234369 12.6789747,2.13444572 L12.6789747,3.38952819 L8.37230738,0.595512083 C8.14103497,0.468162639 7.85819506,0.468162639 7.62692265,0.595512083 L0.301212746,5.34886843 C-0.00662958519,5.54986575 -0.0925754138,5.9579977 0.109006621,6.2633295 C0.307463352,6.56559264 0.718440678,6.65304948 1.02628301,6.45818949 C1.02784566,6.45665516 1.03097096,6.45512083 1.03253362,6.45512083 L1.33412534,6.25872651 L1.33412534,14.3738013 C1.33412534,14.9952052 1.89980516,15.5 2.5967477,15.5 L13.4149835,15.5 C14.1119261,15.5 14.6776059,14.9936709 14.6776059,14.3738013 L14.6776059,6.26793249 L14.9666964,6.45512083 C15.2729761,6.65304948 15.6839534,6.5686613 15.8855355,6.26793249 C15.8870981,6.26639816 15.8870981,6.26486383 15.8886608,6.2633295 C16.0933681,5.9579977 16.0074223,5.54986575 15.6995799,5.34886843 Z" id="首页" fill="#666666" fill-rule="nonzero"></path>
            </g>
        </g>
    </g>
</svg>