<?xml version="1.0" encoding="UTF-8"?>
<svg width="16px" height="16px" viewBox="0 0 16 16" version="1.1" xmlns="http://www.w3.org/2000/svg" xmlns:xlink="http://www.w3.org/1999/xlink">
    <title>15-图标/6标签/2医院</title>
    <g id="平台icon231127" stroke="none" stroke-width="1" fill="none" fill-rule="evenodd">
        <g id="平台icon231128" transform="translate(-424, -424)">
            <g id="15-图标/6标签/2医院" transform="translate(424, 424)">
                <rect id="_mockplus_fix_" x="0" y="0" width="16" height="16"></rect>
                <rect id="_mockplus_fix_" x="0" y="0" width="16" height="16"></rect>
                <path d="M9.28762542,1 L1.88963211,1 C1.42140468,1 1,1.42281879 1,1.89261745 L1,14.1073826 C1,14.6241611 1.37458194,15 1.88963211,15 L9.28762542,15 C9.75585284,15 10.1772575,14.5771812 10.1772575,14.1073826 L10.1772575,1.89261745 C10.1304348,1.37583893 9.75585284,1 9.28762542,1 Z M5.12040134,12.9798658 C5.12040134,13.1208054 4.97993311,13.261745 4.83946488,13.261745 L3.06020067,13.261745 C2.91973244,13.261745 2.77926421,13.1208054 2.77926421,12.9798658 L2.77926421,11.147651 C2.77926421,11.0067114 2.91973244,10.8657718 3.06020067,10.8657718 L4.83946488,10.8657718 C4.97993311,10.8657718 5.12040134,11.0067114 5.12040134,11.147651 L5.12040134,12.9798658 L5.12040134,12.9798658 Z M5.12040134,9.69127517 C5.12040134,9.83221477 4.97993311,9.97315436 4.83946488,9.97315436 L3.06020067,9.97315436 C2.91973244,9.97315436 2.77926421,9.83221477 2.77926421,9.69127517 L2.77926421,7.8590604 C2.77926421,7.71812081 2.91973244,7.57718121 3.06020067,7.57718121 L4.83946488,7.57718121 C4.97993311,7.57718121 5.12040134,7.71812081 5.12040134,7.8590604 L5.12040134,9.69127517 L5.12040134,9.69127517 Z M5.54180602,6.02684564 C5.30769231,6.02684564 5.12040134,5.83892617 5.12040134,5.60402685 L5.12040134,4.7114094 L4.23076923,4.7114094 C3.99665552,4.7114094 3.80936455,4.52348993 3.80936455,4.2885906 C3.80936455,4.05369128 3.99665552,3.81879195 4.23076923,3.81879195 L5.12040134,3.81879195 L5.12040134,2.9261745 C5.12040134,2.69127517 5.30769231,2.5033557 5.54180602,2.5033557 C5.77591973,2.5033557 5.9632107,2.69127517 5.9632107,2.9261745 L5.9632107,3.81879195 L6.85284281,3.81879195 C7.08695652,3.81879195 7.27424749,4.00671141 7.27424749,4.2885906 C7.27424749,4.5704698 7.08695652,4.7114094 6.85284281,4.7114094 L5.9632107,4.7114094 L5.9632107,5.60402685 C6.01003344,5.83892617 5.77591973,6.02684564 5.54180602,6.02684564 Z M8.30434783,12.9798658 C8.30434783,13.1208054 8.1638796,13.261745 8.02341137,13.261745 L6.24414716,13.261745 C6.10367893,13.261745 5.9632107,13.1208054 5.9632107,12.9798658 L5.9632107,11.147651 C5.9632107,11.0067114 6.10367893,10.8657718 6.24414716,10.8657718 L8.02341137,10.8657718 C8.1638796,10.8657718 8.30434783,11.0067114 8.30434783,11.147651 L8.30434783,12.9798658 Z M8.30434783,9.69127517 C8.30434783,9.83221477 8.1638796,9.97315436 8.02341137,9.97315436 L6.24414716,9.97315436 C6.10367893,9.97315436 5.9632107,9.83221477 5.9632107,9.69127517 L5.9632107,7.8590604 C5.9632107,7.71812081 6.10367893,7.57718121 6.24414716,7.57718121 L8.02341137,7.57718121 C8.1638796,7.57718121 8.30434783,7.71812081 8.30434783,7.8590604 L8.30434783,9.69127517 Z M14.1103679,7.71812081 L11.6755853,7.71812081 L10.7859532,7.71812081 L10.7859532,15 L14.1103679,15 C14.6254181,15 15,14.5771812 15,14.0604027 L15,8.65771812 C15,8.1409396 14.6254181,7.71812081 14.1103679,7.71812081 Z" id="医院" fill="#198EEB" fill-rule="nonzero"></path>
            </g>
        </g>
    </g>
</svg>