<?xml version="1.0" encoding="UTF-8"?>
<svg width="16px" height="16px" viewBox="0 0 16 16" version="1.1" xmlns="http://www.w3.org/2000/svg" xmlns:xlink="http://www.w3.org/1999/xlink">
    <title>15-图标/2提示/提示</title>
    <g id="平台icon231127" stroke="none" stroke-width="1" fill="none" fill-rule="evenodd">
        <g id="平台icon231128" transform="translate(-328, -232)">
            <g id="15-图标/2提示/提示" transform="translate(328, 232)">
                <rect id="_mockplus_fix_" x="0" y="0" width="16" height="16"></rect>
                <g id="提示" fill-rule="nonzero">
                    <path d="M8,0 C3.58125,0 0,3.58125 0,8 C0,12.41875 3.58125,16 8,16 C12.41875,16 16,12.4171875 16,8 C16,3.5828125 12.41875,0 8,0 Z" id="路径" fill="#45A8E6"></path>
                    <path d="M7.0515625,5.7984375 L8.08544728,5.79966667 L8.0421875,5.8 C8.559375,5.8 8.81875,6.059375 8.81875,6.5765625 L8.818425,11.26355 L9.178125,11.2640625 C9.6828125,11.2640625 9.9359375,11.5171875 9.9359375,12.021875 C9.9359375,12.528125 9.6828125,12.7796875 9.178125,12.7796875 L6.8234375,12.7796875 C6.31875,12.7796875 6.065625,12.5265625 6.065625,12.021875 C6.065625,11.5171875 6.3171875,11.2640625 6.8234375,11.2640625 L7.264825,11.26355 L7.264825,7.35155 L7.0515625,7.3515625 C6.534375,7.3515625 6.275,7.0921875 6.275,6.575 C6.275,6.05625 6.534375,5.7984375 7.0515625,5.7984375 Z M7.703125,3.21875 C8.2640625,3.21875 8.71875,3.675 8.71875,4.2359375 C8.71875,4.7984375 8.2640625,5.253125 7.703125,5.253125 C7.1421875,5.253125 6.6875,4.796875 6.6875,4.2359375 C6.6875,3.6734375 7.14375,3.21875 7.703125,3.21875 Z" id="形状" fill="#FFFFFF"></path>
                </g>
            </g>
        </g>
    </g>
</svg>