<?xml version="1.0" encoding="UTF-8"?>
<svg width="16px" height="16px" viewBox="0 0 16 16" version="1.1" xmlns="http://www.w3.org/2000/svg" xmlns:xlink="http://www.w3.org/1999/xlink">
    <title>发票管理</title>
    <defs>
        <polygon id="path-1" points="0 0 16 0 16 15.9999844 0 15.9999844"></polygon>
    </defs>
    <g id="平台icon231127" stroke="none" stroke-width="1" fill="none" fill-rule="evenodd">
        <g id="平台icon231128" transform="translate(-232, -184)">
            <g id="发票管理" transform="translate(232, 184)">
                <rect id="_mockplus_fix_" x="0" y="0" width="16" height="15.9999922"></rect>
                <mask id="mask-2" fill="white">
                    <use xlink:href="#path-1"></use>
                </mask>
                <g id="Clip-2"></g>
                <path d="M10.0601656,9.43654227 C10.298525,9.43654227 10.4943219,9.63440155 10.4943219,9.8752608 C10.4943219,10.1161201 10.298525,10.3139637 10.0601656,10.3139637 L8.61294688,10.3139637 L8.61294688,11.7677286 C8.61294688,12.0085879 8.41715,12.2064315 8.178775,12.2064315 C7.9404,12.2064315 7.74460313,12.0085879 7.74460313,11.7677286 L7.74460313,10.3053543 L6.29738438,10.3053543 C6.059025,10.3053543 5.86322813,10.1075107 5.86322813,9.86665143 C5.86322813,9.62579217 6.059025,9.42794852 6.29738438,9.42794852 L7.74460313,9.42794852 L7.74460313,8.46451149 L6.29738438,8.46451149 C6.059025,8.46451149 5.86322813,8.26665221 5.86322813,8.02579296 C5.86322813,7.7849337 6.059025,7.58709005 6.29738438,7.58709005 L7.44665,7.58709005 L6.32293125,6.46880934 C6.16118125,6.29676255 6.15266563,6.03009081 6.31441563,5.85805964 L6.33144688,5.84945027 L6.33144688,5.8408409 C6.50169688,5.68601285 6.76560313,5.68601285 6.93586875,5.84945027 L8.178775,7.10537153 L9.42168125,5.84945027 C9.59193125,5.6774191 9.86436875,5.6774191 10.0346188,5.84945027 C10.2048844,6.01288769 10.2048844,6.28815318 10.0431344,6.46019997 L8.9109,7.60429316 L10.0601656,7.60429316 C10.298525,7.60429316 10.4858063,7.80213682 10.4943219,8.03440233 C10.4943219,8.27526158 10.298525,8.47310524 10.0601656,8.47310524 L8.61294688,8.47310524 L8.61294688,9.43654227 L10.0601656,9.43654227 Z M15.4829781,6.35698127 L15.4829781,3.68170133 L0.49999375,3.68170133 L0.49999375,6.35698127 C1.5300875,6.35698127 2.37286875,7.26019958 2.37286875,8.36987091 C2.37286875,9.47955787 1.5385875,10.3827918 0.49999375,10.3827918 L0.49999375,14.0731025 C0.49999375,14.9591177 1.0448375,15.7505236 1.83654063,15.9999922 L3.30930625,14.4085867 L4.865525,15.9999922 L6.40805625,14.4085867 L7.99999375,15.9999922 L9.54938438,14.4085867 L11.12115,15.9999922 L12.6906969,14.4085867 L14.1644313,15.9999922 C14.95615,15.7419142 15.4999938,14.9419302 15.4999938,14.0558994 L15.4999938,10.3655731 C14.4699313,10.3655731 13.6271188,9.46235475 13.6271188,8.35268342 C13.6271188,7.24299646 14.4443844,6.35698127 15.4829781,6.35698127 L15.4829781,6.35698127 Z M15.4829781,2.0042959 C15.4829781,0.894608938 14.6401813,0 13.6101031,0 L2.37286875,0 C1.34279063,0 0.49999375,0.894608938 0.49999375,2.0042959 L0.49999375,2.67526432 L15.4829781,2.67526432 L15.4829781,2.0042959 Z" id="Fill-1" fill="#666666" mask="url(#mask-2)"></path>
            </g>
        </g>
    </g>
</svg>