<?xml version="1.0" encoding="UTF-8"?>
<svg width="16px" height="16px" viewBox="0 0 16 16" version="1.1" xmlns="http://www.w3.org/2000/svg" xmlns:xlink="http://www.w3.org/1999/xlink">
    <title>15-图标/2提示/Loading绿</title>
    <g id="平台icon231127" stroke="none" stroke-width="1" fill="none" fill-rule="evenodd">
        <g id="平台icon231128" transform="translate(-568, -232)">
            <g id="15-图标/2提示/Loading绿" transform="translate(568, 232)">
                <rect id="_mockplus_fix_" x="0" y="0" width="16" height="16"></rect>
                <g id="loading_蓝" fill-rule="nonzero">
                    <rect id="矩形" fill="#000000" opacity="0" x="0" y="0" width="16" height="16"></rect>
                    <path d="M13.44375,8.4146875 C13.4436121,8.96879328 13.8349296,9.445825 14.3783686,9.55402516 C14.9218076,9.66222533 15.4659964,9.3714554 15.6781035,8.85955327 C15.8902107,8.34765114 15.711155,7.75720414 15.2504487,7.44933573 C14.7897424,7.14146732 14.1757126,7.20193244 13.7839062,7.59375 C13.5673662,7.81240338 13.4452337,8.10727174 13.44375,8.415 L13.44375,8.4146875 Z" id="路径" fill="#D1E8FB"></path>
                    <path d="M0.234375,8.4146875 C0.234633623,9.25548446 0.916078114,9.93706882 1.756875,9.93750008 C2.44645275,9.93772398 3.05017344,9.47467249 3.22871034,8.80860786 C3.40724724,8.14254323 3.11606435,7.43961516 2.51882368,7.09491079 C1.92158301,6.75020642 1.16726614,6.8497122 0.67984375,7.3375 C0.396119369,7.62443698 0.236188078,8.01116666 0.234375,8.4146875 Z" id="路径" fill="#5EAFF0"></path>
                    <path d="M7.0196875,14.83875 C7.01992245,15.3928446 7.41154541,15.8696066 7.95504343,15.9774528 C8.49854145,16.0852989 9.04253272,15.7941906 9.25431724,15.282167 C9.46610175,14.7701434 9.28669066,14.1798195 8.82581012,13.8722321 C8.36492959,13.5646447 7.75094976,13.6254667 7.359375,14.0175 C7.14291528,14.2361431 7.02079338,14.5309298 7.01921875,14.8385937 L7.0196875,14.83875 Z" id="路径" fill="#A3D2F7"></path>
                    <path d="M6.1903125,1.990625 C6.1903125,3.09001683 7.08154567,3.98125 8.1809375,3.98125 C9.28032933,3.98125 10.1715625,3.09001683 10.1715625,1.990625 C10.1715625,0.89123317 9.28032933,0 8.1809375,0 C7.08154567,0 6.1903125,0.89123317 6.1903125,1.990625 Z" id="路径" fill="#198EEB"></path>
                    <path d="M11.5625,12.9570312 C11.5625,13.5111077 11.9539165,13.9880174 12.4973485,14.0961021 C13.0407805,14.2041869 13.5848864,13.9133436 13.7969134,13.4014401 C14.0089404,12.8895366 13.8298363,12.2991446 13.3691337,11.9913235 C12.9084312,11.6835024 12.2944418,11.7439844 11.9026562,12.1357812 C11.6861588,12.3544629 11.5640338,12.6493131 11.5625,12.9570312 Z" id="路径" fill="#BADCFA"></path>
                    <path d="M1.8953125,3.8721875 C1.8953125,4.57723749 2.32003309,5.2128605 2.97142277,5.4826511 C3.62281246,5.75244169 4.37258078,5.60326579 4.87109375,5.1046875 C5.53903062,4.42188461 5.53304978,3.32870755 4.85768182,2.65325396 C4.18231385,1.97780037 3.08913756,1.97168095 2.40625,2.63953125 C2.0813141,2.96776525 1.89804032,3.41032627 1.89578125,3.8721875 L1.8953125,3.8721875 Z" id="路径" fill="#47A5EE"></path>
                    <path d="M2.47703125,12.9570312 C2.47703125,13.5111077 2.86844774,13.9880174 3.41187977,14.0961021 C3.95531179,14.2041869 4.49941763,13.9133436 4.71144465,13.4014401 C4.92347166,12.8895366 4.74436755,12.2991446 4.28366497,11.9913235 C3.8229624,11.6835024 3.20897308,11.7439844 2.8171875,12.1357812 C2.60070419,12.3544723 2.47858173,12.6493164 2.47703125,12.9570312 L2.47703125,12.9570312 Z" id="路径" fill="#8CC6F5"></path>
                    <path d="M11.5625,3.8721875 C11.5624367,4.4262786 11.953798,4.90324932 12.4972336,5.01139177 C13.0406691,5.11953422 13.5848164,4.82872762 13.7968835,4.31682479 C14.0089506,3.80492195 13.8298706,3.21450247 13.3691662,2.90665773 C12.9084618,2.59881299 12.2944522,2.65928656 11.9026562,3.05109375 C11.6861682,3.26971799 11.5640413,3.56451679 11.5625,3.8721875 L11.5625,3.8721875 Z" id="路径" fill="#E8F3FE"></path>
                </g>
            </g>
        </g>
    </g>
</svg>