<?xml version="1.0" encoding="UTF-8"?>
<svg width="16px" height="16px" viewBox="0 0 16 16" version="1.1" xmlns="http://www.w3.org/2000/svg" xmlns:xlink="http://www.w3.org/1999/xlink">
    <title>日志管理</title>
    <g id="平台icon231127" stroke="none" stroke-width="1" fill="none" fill-rule="evenodd">
        <g id="平台icon231128" transform="translate(-136, -136)">
            <g id="日志管理" transform="translate(136.0002, 136)">
                <rect id="_mockplus_fix_" x="2.84217094e-14" y="0" width="16" height="16"></rect>
                <path d="M15.7455926,9.51809388 C15.908712,9.68109444 16.0003615,9.90224196 16.0003615,10.1328436 C16.0003615,10.3634452 15.908712,10.5845927 15.7455926,10.7475933 L10.8869646,15.6058002 L9.84273226,15.9750711 C9.68478519,16.0309937 9.50875752,15.9911228 9.39032334,15.8725987 C9.27188916,15.7540746 9.23215181,15.5780167 9.28819434,15.4201121 L9.65746523,14.3758797 L14.5165142,9.51767282 C14.6795148,9.35455345 14.9006623,9.26290395 15.131264,9.26290395 C15.3618656,9.26290395 15.5830131,9.35455345 15.7460137,9.51767282 L15.7455926,9.51809388 Z M2.52636864,1.26318433 L2.52636864,2.1053072 C2.52635422,3.01909273 3.25499535,3.76620101 4.1684951,3.78905279 C5.08199484,3.81190457 5.84708,3.1021628 5.89275487,2.1895195 L5.89486018,2.1053072 L5.89486018,1.26318433 L8.00016738,1.26318433 L8.00016738,2.1053072 C8.00016668,3.00275815 8.70387244,3.74257513 9.60020087,3.78744767 L9.68441315,3.78955297 C10.5818641,3.78955367 11.3216811,3.08584793 11.3665536,2.1895195 L11.3686589,2.1053072 L11.3686589,1.26318433 L12.2107818,1.26318433 C13.1409651,1.26318433 13.8950276,2.01724684 13.8950276,2.94743009 L13.8950276,8.41912353 L8.00016738,14.316089 L1.68424576,14.316089 C0.754062514,14.316089 2.84217094e-14,13.5620265 2.84217094e-14,12.6318432 L2.84217094e-14,2.94743009 C2.84217094e-14,2.01724684 0.754062514,1.26318433 1.68424576,1.26318433 L2.52636864,1.26318433 Z M8.63175955,8.84229028 L2.73689936,8.84229028 C2.40000135,8.84245717 2.12254003,9.10702134 2.10634982,9.44353014 C2.09015962,9.78003895 2.34094062,10.070018 2.67626651,10.1025272 L2.73689936,10.1054746 L8.63175955,10.1054746 C8.96865756,10.1053077 9.24611889,9.84074353 9.26230909,9.50423472 C9.27849929,9.16772592 9.0277183,8.87774682 8.6923924,8.8452377 L8.63175955,8.84229028 Z M11.1581282,5.47379873 L2.73689936,5.47379873 C2.40000128,5.47396553 2.12253984,5.73852972 2.10634964,6.07503859 C2.09015943,6.41154747 2.34094054,6.70152661 2.67626651,6.73403563 L2.73689936,6.73698306 L11.1581282,6.73698306 C11.4950263,6.73681625 11.7724877,6.47225206 11.7886779,6.13574318 C11.8048681,5.79923431 11.554087,5.50925518 11.218761,5.47674616 L11.1581282,5.47379873 L11.1581282,5.47379873 Z M4.21061442,0 C4.62645549,0 4.98005295,0.30350014 5.04305287,0.714541263 L5.05063198,0.779384725 L5.05273733,0.842122873 L5.05273733,2.1053072 C5.05286025,2.54567404 4.71368307,2.91177796 4.27458876,2.94523172 C3.83549445,2.97868547 3.44476857,2.66819147 3.37817595,2.23288883 L3.37059684,2.16804537 L3.36849153,2.1053072 L3.36849153,0.842122873 C3.36849153,0.37703125 3.7455228,0 4.21061442,0 Z M9.68441315,0 C10.1002542,0 10.4538517,0.303500133 10.5168516,0.714541263 L10.5244307,0.779384725 L10.5265361,0.842122873 L10.5265361,2.1053072 C10.5266591,2.54567408 10.1874819,2.91177808 9.74838751,2.94523184 C9.30929315,2.9786856 8.91856724,2.66819153 8.85197468,2.23288883 L8.84439557,2.16804537 L8.84229028,2.1053072 L8.84229028,0.842122873 C8.84229028,0.377031257 9.21932153,0 9.68441315,0 L9.68441315,0 Z" id="形状" fill="#666666" fill-rule="nonzero"></path>
            </g>
        </g>
    </g>
</svg>