<?xml version="1.0" encoding="UTF-8"?>
<svg width="16px" height="16px" viewBox="0 0 16 16" version="1.1" xmlns="http://www.w3.org/2000/svg" xmlns:xlink="http://www.w3.org/1999/xlink">
    <title>15-图标/1框架/2退出登录</title>
    <g id="平台icon231127" stroke="none" stroke-width="1" fill="none" fill-rule="evenodd">
        <g id="平台icon231128" transform="translate(-280, -88)">
            <g id="15-图标/1框架/2退出登录" transform="translate(280, 88)">
                <rect id="_mockplus_fix_" x="0" y="0" width="16" height="16"></rect>
                <rect id="_mockplus_fix_" x="0" y="0" width="16" height="16"></rect>
                <path d="M13.0731562,6.79805795 L13.0731562,4.82941864 C13.0731562,4.70910622 12.9747187,4.61068441 12.8544219,4.61068441 C12.8122344,4.61068441 12.7700469,4.6231844 12.7356719,4.64662189 L10.1514531,6.32777701 C10.0889531,6.36840198 10.0514531,6.43715194 10.0514531,6.51058939 L10.0514531,9.57291546 C10.0514531,9.64635291 10.0889531,9.71510287 10.1498906,9.75571221 L12.7341094,11.4571798 C12.8356719,11.5243673 12.9716094,11.4962423 13.0372344,11.3946799 C13.0606719,11.3587424 13.0731719,11.3165549 13.0731719,11.2743674 L13.0731719,9.30888439 C13.0731719,9.18857197 13.1715937,9.09013454 13.2919062,9.09013454 L15.4011562,9.09013454 C15.5214687,9.09013454 15.6199062,8.9916971 15.6199062,8.87140031 L15.6199062,7.23554203 C15.6199062,7.11522961 15.5214687,7.01679217 15.4011562,7.01679217 L13.2919062,7.01679217 C13.1715937,7.01679217 13.0731562,6.91835474 13.0731562,6.79805795 Z M9.92645312,10.6712897 L9.92645312,14.4007716 C9.92645312,14.4617091 9.97645312,14.5101465 10.0358281,14.5101465 L12.1716406,14.5101465 C12.2310156,14.5101465 12.2810156,14.4617091 12.2810156,14.4023341 L12.2747656,11.9993357 C12.2747656,11.9602732 12.2544531,11.9227733 12.2200781,11.9040233 L10.0920781,10.5775398 C10.0389531,10.5462898 9.97176562,10.5650398 9.94207812,10.6166023 C9.93270312,10.6322273 9.92801562,10.6525397 9.92645312,10.6712897 Z M10.0905156,0.61246834 L10.0952031,5.37001203 C10.0952031,5.45126197 10.1608281,5.51688693 10.2420781,5.51688693 C10.2702031,5.51688693 10.2983125,5.50907443 10.3233125,5.49344945 L12.2028906,4.26226277 C12.2435156,4.23570029 12.2685156,4.19038782 12.2700781,4.14038785 L12.2575781,0.148421776 C12.2591406,0.06717183 12.1935156,0 12.1122656,0 L8.3609375,0 C8.1828125,0 8.1578125,0.257812327 8.3328125,0.292171679 L9.97178125,0.468734061 C10.0405312,0.481234053 10.0905312,0.542171512 10.0905312,0.61246834 L10.0905156,0.61246834 Z M9.05775,15.3928959 L9.05775,1.96863931 C9.05775,1.67646763 8.84995312,1.42648342 8.56246875,1.37335846 L1.29879687,0.168749887 L1.094125,0.131249912 C0.766015625,0.0703124529 0.45040625,0.287499807 0.39103125,0.615608963 C0.38478125,0.651546439 0.38165625,0.689046413 0.38165625,0.726546388 L0.38009375,14.138303 C0.38009375,14.4289122 0.58790625,14.6804589 0.873828125,14.7335839 L8.34373437,15.9897549 C8.67184375,16.0506924 8.98745312,15.833505 9.048375,15.5054115 C9.0530625,15.466349 9.05775,15.4304115 9.05775,15.3929116 L9.05775,15.3928959 Z" id="形状" fill="#666666" fill-rule="nonzero"></path>
            </g>
        </g>
    </g>
</svg>