<?xml version="1.0" encoding="UTF-8"?>
<svg width="16px" height="16px" viewBox="0 0 16 16" version="1.1" xmlns="http://www.w3.org/2000/svg" xmlns:xlink="http://www.w3.org/1999/xlink">
    <title>邮件设置</title>
    <g id="平台icon231127" stroke="none" stroke-width="1" fill="none" fill-rule="evenodd">
        <g id="平台icon231128" transform="translate(-424, -184)">
            <g id="邮件设置" transform="translate(424, 184)">
                <rect id="_mockplus_fix_" x="0" y="0" width="16" height="16"></rect>
                <g id="编组" transform="translate(0, 1)" fill="#666666" fill-rule="nonzero">
                    <path d="M8.84257249,6.17551985 L15.4387996,0.280986151 C15.2983065,0.140493083 14.8775993,0 14.5966131,0 L1.54387997,0 C1.12317267,0 0.70169345,0.140493083 0.420707285,0.420707285 L7.01770638,6.17551985 C7.553214,6.59633766 8.30706486,6.59633766 8.84257249,6.17551985 Z M14.8775993,5.19284026 C15.2984259,5.34209067 15.6815125,5.58158564 16,5.8945337 L16,1.82486612 L15.8595069,1.82486612 L12.6320259,4.77213296 C13.400979,4.76280643 14.1641721,4.90579037 14.8775993,5.19284026 L14.8775993,5.19284026 Z M0,1.82486612 L0,11.227867 C0,12.4915328 1.12317267,12.6320259 1.54387997,12.6320259 L7.29869253,12.6320259 C7.024372,11.963624 6.88127572,11.2486667 6.8772133,10.5261736 C6.86776396,9.75713668 7.01102404,8.99387004 7.29869253,8.28060018 C7.29869253,8.1401071 7.43841367,8.00038597 7.43841367,7.8598929 C7.01770638,7.71939982 6.59622715,7.57890673 6.17551985,7.29869253 L0,1.82486612 Z" id="形状"></path>
                    <path d="M12.9841312,5.98301638 C13.3638097,6.08080394 13.7275593,6.23236628 14.0643418,6.43310413 C13.8797052,6.8457384 13.9689028,7.32951534 14.2885571,7.64916963 C14.6082114,7.96882392 15.0919883,8.05802157 15.5046226,7.8733849 C15.70443,8.21010127 15.8545111,8.57393416 15.9502095,8.95359549 C15.5275268,9.11431408 15.2481134,9.519487 15.2481134,9.97169397 C15.2481134,10.4239009 15.5275268,10.8290739 15.9502095,10.9897925 C15.8579627,11.3698187 15.7063396,11.733714 15.5046226,12.070003 C15.0919883,11.8853664 14.6082114,11.974564 14.2885571,12.2942183 C13.9689028,12.6138726 13.8797051,13.0976495 14.0643418,13.5102838 C13.7276765,13.7112546 13.3638925,13.8628312 12.9841312,13.9603715 C12.8234127,13.5376888 12.4182397,13.2582755 11.9660328,13.2582755 C11.5138258,13.2582755 11.1086529,13.5376888 10.9479343,13.9603715 C10.568373,13.8622348 10.2046717,13.7106926 9.86772369,13.5102838 C10.0534575,13.0976033 9.96466358,12.6130667 9.64466182,12.2930649 C9.32466006,11.9730631 8.84012344,11.8842692 8.42744292,12.070003 C8.22647215,11.7333378 8.07489547,11.3695538 7.97735517,10.9897925 C8.40085016,10.8298216 8.68109114,10.4243955 8.68109114,9.97169397 C8.68109114,9.51899243 8.40085016,9.11356636 7.97735517,8.95359549 C8.07452615,8.57371062 8.22612435,8.20987494 8.42744292,7.8733849 C8.84012344,8.0591187 9.32466005,7.97032477 9.6446618,7.65032301 C9.96466356,7.33032125 10.0534575,6.84578465 9.86772369,6.43310413 C10.204545,6.23244344 10.5682833,6.08088583 10.9479343,5.98301638 C11.1086529,6.4056991 11.5138258,6.68511246 11.9660328,6.68511246 C12.4182397,6.68511246 12.8234127,6.4056991 12.9841312,5.98301638 Z M12.0110415,8.92208934 C11.4890307,8.92208934 11.0658573,9.34526275 11.0658573,9.86727361 C11.0658573,10.3892845 11.4890307,10.8124579 12.0110415,10.8124579 C12.5330524,10.8124579 12.9562258,10.3892845 12.9562258,9.86727361 C12.9562258,9.34526275 12.5330524,8.92208934 12.0110415,8.92208934 Z" id="形状结合"></path>
                </g>
            </g>
        </g>
    </g>
</svg>