<?xml version="1.0" encoding="UTF-8"?>
<svg width="16px" height="16px" viewBox="0 0 16 16" version="1.1" xmlns="http://www.w3.org/2000/svg" xmlns:xlink="http://www.w3.org/1999/xlink">
    <title>消息</title>
    <g id="平台icon231127" stroke="none" stroke-width="1" fill="none" fill-rule="evenodd">
        <g id="平台icon231128" transform="translate(-760, -136)">
            <g id="消息" transform="translate(760, 136)">
                <rect id="_mockplus_fix_" x="0" y="0" width="16" height="16"></rect>
                <path d="M15.119375,6.83720312 C13.1720938,8.152 11.6960937,9.18142187 10.6790625,9.91320312 C10.3317813,10.1612812 10.0589062,10.3596719 9.84801563,10.4960781 C9.63721875,10.6450469 9.35192188,10.7814375 9.00465625,10.9302344 C8.657375,11.0790469 8.3348125,11.1535156 8.0248125,11.1535156 L8.00001562,11.1535156 C7.70234375,11.1535156 7.36745312,11.0790469 7.02017187,10.9302344 C6.67289062,10.7814375 6.38760938,10.6325625 6.17673437,10.4960781 C5.9659375,10.3596719 5.68065625,10.1612812 5.34578125,9.91320312 C4.53953125,9.33023437 3.06353125,8.30079687 0.90546875,6.83720312 C0.5705625,6.60157812 0.260484375,6.35351562 0,6.05584375 L0,13.1504062 C0,13.534875 0.13640625,13.8822344 0.4216875,14.1550469 C0.6945625,14.4403125 1.0294375,14.5767187 1.42632812,14.5767187 L14.5736719,14.5767187 C14.9580781,14.5767187 15.2930469,14.4403125 15.5782344,14.1550469 C15.8635937,13.8822344 16,13.5472812 16,13.1504062 L16,6.05584375 C15.7395313,6.341125 15.4418438,6.60159375 15.119375,6.83720312 M1.53792187,5.86976562 C1.73640625,6.01864062 2.34417187,6.45273438 3.36120312,7.15967188 C4.37825,7.86673438 5.1596875,8.40001562 5.70545312,8.7845625 C5.76745312,8.82175 5.89145312,8.92096875 6.0899375,9.05735937 C6.28834375,9.19384375 6.449625,9.3054375 6.57360937,9.39223437 C6.72300299,9.49690068 6.87609032,9.59619325 7.03257812,9.68992188 C7.20617187,9.789125 7.37985937,9.87592188 7.5410625,9.92551563 C7.70234375,9.97520313 7.85114062,10 7.987625,10 L8.01242187,10 C8.14882812,10 8.29770312,9.97520313 8.45889062,9.92551563 C8.60770312,9.87592188 8.78139062,9.80160938 8.96745312,9.68992188 C9.14104687,9.5783125 9.30234375,9.47904688 9.42634375,9.39223438 C9.55040625,9.3054375 9.71160937,9.19384375 9.91009375,9.05735938 C10.1085,8.92095313 10.2325781,8.82176563 10.2945781,8.78454688 C10.8403437,8.4 12.2294531,7.4325625 14.4744219,5.88215625 C14.9084844,5.57215625 15.2681719,5.21240625 15.5658594,4.7783125 C15.8511406,4.34415625 16.0000156,3.8976875 16.0000156,3.42640625 C16.0000156,3.04192187 15.8636094,2.70703125 15.57825,2.42176562 C15.2930625,2.13648438 14.9580937,2 14.5737031,2 L1.42634375,2 C0.967453125,2 0.620171875,2.148875 0.37209375,2.458875 C0.124015625,2.76895312 1.56249998e-05,3.16590625 1.56249998e-05,3.6248125 C1.56249998e-05,3.99695312 0.173609375,4.40623438 0.496109375,4.8403125 C0.818578125,5.27440625 1.1659375,5.62176562 1.5379375,5.86976562" id="形状" fill="#666666" fill-rule="nonzero"></path>
            </g>
        </g>
    </g>
</svg>