<?xml version="1.0" encoding="UTF-8"?>
<svg width="16px" height="16px" viewBox="0 0 16 16" version="1.1" xmlns="http://www.w3.org/2000/svg" xmlns:xlink="http://www.w3.org/1999/xlink">
    <title>系统维护</title>
    <g id="平台icon231127" stroke="none" stroke-width="1" fill="none" fill-rule="evenodd">
        <g id="平台icon231128" transform="translate(-808, -136)">
            <g id="系统维护" transform="translate(808, 136)">
                <rect id="_mockplus_fix_" x="0" y="0" width="16" height="16.0011499"></rect>
                <path d="M11.0448308,8.04993192 C12.0409024,7.45609658 13.3514966,7.5891157 14.2090582,8.44648892 C15.0313673,9.26685682 15.1876285,10.5035346 14.6778419,11.4821752 L15.7696703,12.5740821 C16.0764424,12.8808762 16.0764424,13.3749472 15.7716705,13.6817413 C15.4648984,13.9862851 14.9708629,13.9862851 14.666091,13.6817413 L13.5742626,12.5895844 C12.5956922,13.0996577 11.3611035,12.9433852 10.5387944,12.121017 C9.68123281,11.2633938 9.54847327,9.95270539 10.1422659,8.95631219 L11.757632,10.5717944 C11.8338875,10.6480553 11.9568963,10.6480553 12.0331518,10.5717944 L12.6599469,9.9409537 C12.7362023,9.86469274 12.7362023,9.74167506 12.6599469,9.6654141 Z M13.4969699,0 C13.9462522,0 14.3135286,0.367302788 14.3135286,0.816617363 L14.3135286,6.83298202 C12.8134208,6.01836495 10.8972831,6.24689779 9.62969201,7.51483002 C8.13533462,9.00704448 8.08658112,11.4001384 9.48118133,12.9531116 L0.816558679,12.9531116 C0.367276393,12.9531116 0,12.5858088 0,12.1364942 L0,0.816617363 C0,0.367302788 0.367276393,0 0.816558679,0 Z M7.31952599,2.23657144 L2.52493145,2.23657144 C2.19640784,2.23657144 1.92788854,2.50536007 1.92788854,2.83365725 L1.92788854,4.8762008 C1.92788854,5.20449798 2.19640784,5.47328661 2.52493145,5.47328661 L7.31952599,5.47328661 C7.6480496,5.47328661 7.9165689,5.20449798 7.9165689,4.8762008 L7.9165689,2.83365725 C7.9165689,2.50536007 7.6480496,2.23657144 7.31952599,2.23657144 Z M13.5165713,14.4395752 L2.68579301,14.4395752 C2.25401198,14.4395752 1.90448686,14.7891255 1.90448686,15.2209375 C1.90448686,15.6527496 2.25401198,16.0022998 2.68579301,16.0022998 L13.5165713,16.0022998 C13.9483524,16.0022998 14.2978775,15.6527496 14.2978775,15.2209375 C14.2978775,14.7891255 13.9483524,14.4395752 13.5165713,14.4395752" id="形状结合" fill="#666666"></path>
            </g>
        </g>
    </g>
</svg>