<?xml version="1.0" encoding="UTF-8"?>
<svg width="16px" height="16px" viewBox="0 0 16 16" version="1.1" xmlns="http://www.w3.org/2000/svg" xmlns:xlink="http://www.w3.org/1999/xlink">
    <title>15-图标/6标签/1男</title>
    <g id="平台icon231127" stroke="none" stroke-width="1" fill="none" fill-rule="evenodd">
        <g id="平台icon231128" transform="translate(-136, -424)">
            <g id="15-图标/6标签/1男" transform="translate(136, 424)">
                <rect id="_mockplus_fix_" x="0" y="0" width="16" height="16"></rect>
                <rect id="_mockplus_fix_" x="0" y="0" width="16" height="16"></rect>
                <g id="男" fill-rule="nonzero">
                    <path d="M2,0 L14,0 C15.3333333,0 16,0.666666667 16,2 L16,14 C16,15.3333333 15.3333333,16 14,16 L2,16 C0.666666667,16 0,15.3333333 0,14 L0,2 C0,0.666666667 0.666666667,0 2,0 Z" id="路径" fill="#09BBFC"></path>
                    <path d="M12.26,7.62 L12.26,2.544 L3.86,2.544 L3.86,7.62 L12.26,7.62 Z M11.132,4.62 L8.624,4.62 L8.624,3.6 L11.132,3.6 L11.132,4.62 L11.132,4.62 Z M7.52,4.62 L4.988,4.62 L4.988,3.6 L7.52,3.6 L7.52,4.62 Z M11.132,6.612 L8.624,6.612 L8.624,5.604 L11.132,5.604 L11.132,6.612 L11.132,6.612 Z M7.52,6.612 L4.988,6.612 L4.988,5.604 L7.52,5.604 L7.52,6.612 Z M3.164,13.284 C4.94,12.828 6.2,12.216 6.932,11.436 C7.34,10.98 7.676,10.428 7.928,9.792 L11.564,9.792 C11.564,10.344 11.528,10.848 11.456,11.328 C11.384,11.784 11.108,12.024 10.628,12.048 C10.124,12.048 9.584,12.012 8.984,11.952 L9.272,13.044 C9.656,13.068 10.124,13.092 10.688,13.092 C11.456,13.092 11.996,12.828 12.284,12.324 C12.572,11.796 12.728,10.596 12.728,8.712 L8.24,8.712 C8.288,8.472 8.324,8.22 8.36,7.956 L7.22,7.956 C7.184,8.22 7.136,8.472 7.076,8.712 L3.116,8.712 L3.116,9.792 L6.68,9.792 C6.5,10.152 6.272,10.464 5.996,10.728 C5.324,11.376 4.232,11.868 2.72,12.216 L3.164,13.284 L3.164,13.284 Z" id="形状" fill="#FFFFFF"></path>
                </g>
            </g>
        </g>
    </g>
</svg>