<?xml version="1.0" encoding="UTF-8"?>
<svg width="16px" height="16px" viewBox="0 0 16 16" version="1.1" xmlns="http://www.w3.org/2000/svg" xmlns:xlink="http://www.w3.org/1999/xlink">
    <title>菜单管理</title>
    <g id="平台icon231127" stroke="none" stroke-width="1" fill="none" fill-rule="evenodd">
        <g id="平台icon231128" transform="translate(-856, -88)">
            <g id="菜单管理" transform="translate(856.0002, 88)">
                <rect id="_mockplus_fix_" x="0" y="0" width="16" height="16"></rect>
                <path d="M5.93580659,8.99708212 C6.5227178,8.99708212 6.99958316,9.47394748 6.99958316,10.0608587 L6.99958316,14.9328887 C6.99958316,15.5197999 6.5227178,15.9966653 5.93580659,15.9966653 L1.06377657,15.9966653 C0.476865361,15.9966653 0,15.5231346 0,14.9362234 L0,10.0608587 C0,9.47394748 0.476865361,8.99708212 1.06377657,8.99708212 L5.93580659,8.99708212 L5.93580659,8.99708212 Z M5.93580659,0 C6.5227178,0 6.99958316,0.476865361 6.99958316,1.06377657 L6.99958316,5.93580659 C6.99958316,6.5227178 6.5227178,6.99958316 5.93580659,6.99958316 L1.06377657,6.99958316 C0.476865361,6.99958316 0,6.5227178 0,5.93580659 L0,1.06377657 C0,0.476865361 0.476865361,0 1.06377657,0 L5.93580659,0 Z M16,1.04668612 L16,1.48579765 C16,2.0380824 15.5522847,2.48579765 15,2.48579765 L9.99708212,2.48579765 C9.44479737,2.48579765 8.99708212,2.0380824 8.99708212,1.48579765 L8.99708212,1.04668612 C8.99708212,0.494401369 9.44479737,0.0466861192 9.99708212,0.0466861192 L15,0.0466861192 C15.5522847,0.0466861192 16,0.494401369 16,1.04668612 Z M16,14.52642 L16,14.9655315 C16,15.5178162 15.5522847,15.9655315 15,15.9655315 L9.99708212,15.9655315 C9.44479737,15.9655315 8.99708212,15.5178162 8.99708212,14.9655315 L8.99708212,14.52642 C8.99708212,13.9741352 9.44479737,13.52642 9.99708212,13.52642 L15,13.52642 C15.5522847,13.52642 16,13.9741352 16,14.52642 Z M16,9.99708212 L16,10.4361936 C16,10.9884784 15.5522847,11.4361936 15,11.4361936 L9.99708212,11.4361936 C9.44479737,11.4361936 8.99708212,10.9884784 8.99708212,10.4361936 L8.99708212,9.99708212 C8.99708212,9.44479737 9.44479737,8.99708212 9.99708212,8.99708212 L15,8.99708212 C15.5522847,8.99708212 16,9.44479737 16,9.99708212 Z M16,5.52052181 L16,5.95963334 C16,6.51191809 15.5522847,6.95963334 15,6.95963334 L9.99708212,6.95963334 C9.44479737,6.95963334 8.99708212,6.51191809 8.99708212,5.95963334 L8.99708212,5.52052181 C8.99708212,4.96823706 9.44479737,4.52052181 9.99708212,4.52052181 L15,4.52052181 C15.5522847,4.52052181 16,4.96823706 16,5.52052181 Z" id="形状" fill="#666666" fill-rule="nonzero"></path>
            </g>
        </g>
    </g>
</svg>