<?xml version="1.0" encoding="UTF-8"?>
<svg width="16px" height="16px" viewBox="0 0 16 16" version="1.1" xmlns="http://www.w3.org/2000/svg" xmlns:xlink="http://www.w3.org/1999/xlink">
    <title>商户管理</title>
    <g id="平台icon231127" stroke="none" stroke-width="1" fill="none" fill-rule="evenodd">
        <g id="平台icon231128" transform="translate(-88, -184)">
            <g id="商户管理" transform="translate(88, 184)">
                <rect id="_mockplus_fix_" x="0" y="0" width="16" height="16"></rect>
                <rect id="矩形" x="0" y="0" width="16" height="16"></rect>
                <path d="M4.43382954,12.7005838 C4.12025237,12.7006038 3.8653757,12.4425468 3.86300659,12.1226381 C3.86300659,11.8041159 4.11987206,11.5438203 4.43381012,11.5438203 L11.5663483,11.5438203 C11.8802864,11.5438203 12.1371519,11.8041159 12.1371519,12.1222021 C12.1350165,12.4422736 11.8800834,12.7005838 11.5663483,12.7005838 L4.43382954,12.7005838 Z M13.9378132,9.3333895 C13.7791024,9.35290779 13.6193938,9.362775 13.4595341,9.36293881 C12.6031064,9.36382825 11.7703643,9.07613642 11.0906723,8.54455561 C10.8784621,8.37647889 10.5815883,8.37647889 10.3693782,8.54455561 C9.68957007,9.07622742 8.85666294,9.36392434 8.00008895,9.36293881 C7.1435083,9.36392871 6.31059367,9.07623156 5.63078031,8.54455561 C5.4182454,8.37649815 5.12116638,8.37649815 4.90863147,8.54455561 C4.09936255,9.17685223 3.07928447,9.46007978 2.06755131,9.3333895 C1.90621135,9.31238938 1.74379632,9.36304374 1.62154394,9.47249126 C1.49929156,9.58193877 1.4289606,9.73965231 1.42840831,9.90558787 L1.42840831,13.827798 C1.42840831,14.4749894 1.93306748,15 2.5566311,15 L13.4444015,15 C14.0671104,15 14.5717502,14.4750092 14.5717502,13.827798 L14.5717502,9.90735171 C14.5717502,9.56235208 14.2751009,9.28970963 13.9378132,9.33380568 M14.5090441,1.96970454 C14.2073324,1.37306705 13.6038562,0.99872353 12.9458032,1 L3.0543553,1 C2.39639595,0.99863945 1.79294317,1.37280013 1.49111434,1.96926854 L0.222366343,4.48706427 C-0.482066289,6.12117499 0.560528195,8.05309761 2.31619973,8.19692013 C3.29477259,8.280687 4.24222091,7.82263899 4.79835202,6.9969128 C4.9051626,6.8384204 5.08160614,6.74373232 5.27013326,6.74373232 C5.45866037,6.74373232 5.63510391,6.8384204 5.7419145,6.9969128 C6.25294681,7.75545268 7.09789602,8.20792677 8.00008895,8.20617534 C8.902275,8.20792023 9.74721554,7.75544689 10.258244,6.9969128 C10.3647781,6.83786483 10.5414189,6.74274395 10.7302389,6.74274395 C10.9190589,6.74274395 11.0956996,6.83786483 11.2022338,6.9969128 C11.7582867,7.8224962 12.7055328,8.28052534 13.6839587,8.19692013 C15.4396497,8.05309761 16.4817974,6.12117499 15.7778115,4.48662826 L14.5090441,1.96970454 Z" fill="#666666" fill-rule="nonzero"></path>
            </g>
        </g>
    </g>
</svg>