<?xml version="1.0" encoding="UTF-8"?>
<svg width="16px" height="16px" viewBox="0 0 16 16" version="1.1" xmlns="http://www.w3.org/2000/svg" xmlns:xlink="http://www.w3.org/1999/xlink">
    <title>消息管理</title>
    <g id="平台icon231127" stroke="none" stroke-width="1" fill="none" fill-rule="evenodd">
        <g id="平台icon231128" transform="translate(-184, -136)">
            <g id="消息管理" transform="translate(184.0002, 136)">
                <rect id="_mockplus_fix_" x="0" y="0" width="16" height="16"></rect>
                <path d="M14.5248227,4 L1.36170213,4 C0.567375887,4 0,4.57142857 0,5.25714286 L0,7.88571429 C0,8.57142857 0.567375887,9.25714286 1.36170213,9.25714286 L14.6382979,9.25714286 C15.3191489,9.25714286 16,8.68571429 16,7.88571429 L16,5.25714286 C15.8865248,4.57142857 15.3191489,4 14.5248227,4 Z M9.87234043,7.31428571 L6.0141844,7.31428571 C5.67375887,7.31428571 5.33333333,6.97142857 5.33333333,6.62857143 C5.33333333,6.28571429 5.67375887,5.94285714 6.0141844,5.94285714 L9.9858156,5.94285714 C10.3262411,5.94285714 10.6666667,6.28571429 10.6666667,6.62857143 C10.5531915,6.97142857 10.3262411,7.31428571 9.87234043,7.31428571 Z M14.5248227,10.6285714 L1.36170213,10.6285714 C0.567375887,10.6285714 0,11.2 0,12 L0,14.6285714 C0,15.3142857 0.567375887,16 1.36170213,16 L14.6382979,16 C15.3191489,16 16,15.4285714 16,14.6285714 L16,12 C15.8865248,11.2 15.3191489,10.6285714 14.5248227,10.6285714 Z M9.87234043,13.9428571 L6.0141844,13.9428571 C5.67375887,13.9428571 5.33333333,13.6 5.33333333,13.2571429 C5.33333333,12.9142857 5.67375887,12.5714286 6.0141844,12.5714286 L9.9858156,12.5714286 C10.3262411,12.5714286 10.6666667,12.9142857 10.6666667,13.2571429 C10.5531915,13.7142857 10.3262411,13.9428571 9.87234043,13.9428571 Z M11.9148936,0 L3.97163121,0 L1.36170213,2.62857143 L14.5248227,2.62857143 L11.9148936,0 Z" id="消息类别管理" fill="#666666" fill-rule="nonzero"></path>
            </g>
        </g>
    </g>
</svg>