<?xml version="1.0" encoding="UTF-8"?>
<svg width="16px" height="16px" viewBox="0 0 16 16" version="1.1" xmlns="http://www.w3.org/2000/svg" xmlns:xlink="http://www.w3.org/1999/xlink">
    <title>元数据管理</title>
    <g id="平台icon231127" stroke="none" stroke-width="1" fill="none" fill-rule="evenodd">
        <g id="平台icon231128" transform="translate(-328, -136)">
            <g id="元数据管理" transform="translate(328.0002, 136)">
                <rect id="_mockplus_fix_" x="0" y="0" width="16" height="16"></rect>
                <path d="M15,0 C15.5522847,-1.01453063e-16 16,0.44771525 16,1 L16,12 C16,12.5522847 15.5522847,13 15,13 L1,13 C0.44771525,13 6.76353751e-17,12.5522847 0,12 L0,1 C-6.76353751e-17,0.44771525 0.44771525,1.01453063e-16 1,0 L15,0 Z M9.30871543,2 C8.62521833,2.00050618 8.02045189,2.42274351 7.81280492,3.0444185 C7.60515794,3.66609349 7.84225906,4.34461061 8.39928267,4.72275387 L7.0657229,8.04334548 C6.61679232,7.93707658 6.14161473,8.02597824 5.76790803,8.28615554 L4.42472464,6.54711052 C4.6989101,6.14645007 4.63734208,5.61650086 4.27785635,5.28293589 C3.91837062,4.94937093 3.36173281,4.90569011 2.95001702,5.17873688 C2.53830124,5.45178365 2.38691343,5.96502166 2.58888691,6.40304755 C2.79086039,6.84107343 3.28958098,7.08110639 3.77856681,6.97563747 L5.25441879,8.88793074 C4.92779463,9.58608739 5.20345598,10.4070541 5.8943707,10.7938171 C6.58528541,11.1805801 7.47034662,11.0093673 7.94905339,10.3963441 C8.42776016,9.78332088 8.34691652,8.92466719 7.76137367,8.40296686 L9.13274054,4.99050118 C9.31430018,5.01014334 9.49805507,4.99948457 9.67578807,4.9590015 L10.6862689,6.58057894 C10.2019617,7.17737238 10.2576458,8.02477892 10.8162806,8.55911152 C11.3749155,9.09344412 12.262449,9.14822255 12.8885022,8.68700869 C13.5145553,8.22579484 13.6840707,7.39228758 13.2842883,6.74092827 C12.8845059,6.08956897 12.0399846,5.82329948 11.3124921,6.11923983 L10.3707514,4.6052863 C10.8478782,4.18712943 11.0073816,3.53233476 10.7724817,2.95610054 C10.5375818,2.37986632 9.95640633,2.00025503 9.30871543,2 Z M3.8,14.4 L12.2,14.4 C12.6418278,14.4 13,14.7581722 13,15.2 C13,15.6418278 12.6418278,16 12.2,16 L3.8,16 C3.3581722,16 3,15.6418278 3,15.2 C3,14.7581722 3.3581722,14.4 3.8,14.4 Z" id="元数据管理备份" fill="#666666" fill-rule="nonzero"></path>
            </g>
        </g>
    </g>
</svg>