<?xml version="1.0" encoding="UTF-8"?>
<svg width="16px" height="16px" viewBox="0 0 16 16" version="1.1" xmlns="http://www.w3.org/2000/svg" xmlns:xlink="http://www.w3.org/1999/xlink">
    <title>通知公告</title>
    <g id="平台icon231127" stroke="none" stroke-width="1" fill="none" fill-rule="evenodd">
        <g id="平台icon231128" transform="translate(-712, -136)">
            <g id="通知公告" transform="translate(712, 136)">
                <rect id="_mockplus_fix_" x="0" y="0" width="16" height="16"></rect>
                <path d="M8,0 C8.82842712,0 9.5,0.671572875 9.5,1.5 C9.5,1.54873101 9.49767622,1.59691927 9.49313342,1.64446001 L11.7071068,3.85857864 C11.7498381,3.90130992 11.7847766,3.94888302 11.8119223,3.99953195 L15,4 C15.5522847,4 16,4.44771525 16,5 L16,15 C16,15.5522847 15.5522847,16 15,16 L1,16 C0.44771525,16 6.76353751e-17,15.5522847 0,15 L0,5 C-6.76353751e-17,4.44771525 0.44771525,4 1,4 L4.18807772,3.99953195 C4.21522344,3.94888302 4.25016194,3.90130992 4.29289322,3.85857864 L6.50686658,1.64446001 L6.5,1.5 C6.5,0.671572875 7.17157288,0 8,0 Z M12.5,11 L3.5,11 C3.22385763,11 3,11.2238576 3,11.5 C3,11.7761424 3.22385763,12 3.5,12 L12.5,12 C12.7761424,12 13,11.7761424 13,11.5 C13,11.2238576 12.7761424,11 12.5,11 Z M8.5,8 L3.5,8 C3.22385763,8 3,8.22385763 3,8.5 C3,8.77614237 3.22385763,9 3.5,9 L8.5,9 C8.77614237,9 9,8.77614237 9,8.5 C9,8.22385763 8.77614237,8 8.5,8 Z M8.87154061,2.72096932 C8.62589314,2.89662858 8.32501841,3 8,3 C7.67454649,3 7.37330135,2.89635164 7.12747315,2.72026347 L5.848,4 L10.151,4 Z" id="形状结合" fill="#666666"></path>
            </g>
        </g>
    </g>
</svg>