<?xml version="1.0" encoding="UTF-8"?>
<svg width="16px" height="16px" viewBox="0 0 16 16" version="1.1" xmlns="http://www.w3.org/2000/svg" xmlns:xlink="http://www.w3.org/1999/xlink">
    <title>机构管理</title>
    <g id="平台icon231127" stroke="none" stroke-width="1" fill="none" fill-rule="evenodd">
        <g id="平台icon231128" transform="translate(-760, -88)">
            <g id="机构管理" transform="translate(760.0002, 88)">
                <rect id="_mockplus_fix_" x="0" y="0" width="16" height="16"></rect>
                <path d="M2.50453333,8.23253595 L7.4848,8.23253595 L7.4848,10.8373359 L8.5728,10.8373359 L8.5728,8.23253595 L13.5626667,8.23253595 L13.5626667,11.2704026 L14.6709333,11.2704026 L14.6709333,7.14666929 L8.57386667,7.14666929 L8.57386667,5.10293595 L7.4848,5.10293595 L7.4848,7.14666929 L1.41546667,7.14666929 L1.41546667,11.2704026 L2.50453333,11.2704026 L2.50453333,8.23253595 Z M3.6,12.3925344 L0.3616,12.3925344 C0.162309649,12.3925344 0.000587871398,12.5537798 0,12.7530693 L0,15.6394693 C0,15.8378693 0.162133328,16.0000026 0.362666672,16.0000026 L3.6,16.0000026 C3.79946667,16.0000026 3.9616,15.8378693 3.9616,15.6394693 L3.9616,12.7530693 C3.96131752,12.6571669 3.92294931,12.5653046 3.85493603,12.4976914 C3.78692274,12.4300782 3.69483574,12.3922526 3.59893333,12.3925344 L3.6,12.3925344 Z M9.632,12.3925344 L6.39466667,12.3925344 C6.29876426,12.3922526 6.20667726,12.4300782 6.13866397,12.4976914 C6.07065069,12.5653046 6.03228248,12.6571669 6.032,12.7530693 L6.032,15.6394693 C6.032,15.8378693 6.1952,16.0000026 6.39466667,16.0000026 L9.632,16.0000026 C9.83253333,16.0000026 9.99466667,15.8378693 9.99466667,15.6394693 L9.99466667,12.7530693 C9.99438419,12.6571669 9.95601598,12.5653046 9.8880027,12.4976914 C9.81998941,12.4300782 9.72790241,12.3922526 9.632,12.3925344 L9.632,12.3925344 Z M15.6373333,12.3925344 L12.4,12.3925344 C12.2007096,12.3925344 12.0389879,12.5537798 12.0384,12.7530693 L12.0384,15.6394693 C12.0384,15.8378693 12.2005333,16.0000026 12.4010667,16.0000026 L15.6384,16.0000026 C15.8378667,16.0000026 16,15.8378693 16,15.6394693 L16,12.7530693 C15.9997175,12.6571669 15.9613493,12.5653046 15.893336,12.4976914 C15.8253227,12.4300782 15.7332357,12.3922526 15.6373333,12.3925344 L15.6373333,12.3925344 Z M3.8432,4.55253595 L12.1802667,4.55253595 C12.4200319,4.55253595 12.6144,4.35816784 12.6144,4.11840262 L12.6144,0.433069291 C12.6141175,0.317929863 12.5681073,0.207618527 12.4864914,0.126402697 C12.4048755,0.0451868657 12.2943394,-0.000280627926 12.1792,1.30334588e-06 L3.84213333,1.30334588e-06 C3.60278405,1.30334588e-06 3.40858808,0.193720735 3.408,0.433069291 L3.408,4.11840262 C3.408,4.35840262 3.60213333,4.55253595 3.84213333,4.55253595 L3.8432,4.55253595 Z" id="形状" fill="#666666" fill-rule="nonzero"></path>
            </g>
        </g>
    </g>
</svg>