<?xml version="1.0" encoding="UTF-8"?>
<svg width="16px" height="16px" viewBox="0 0 16 16" version="1.1" xmlns="http://www.w3.org/2000/svg" xmlns:xlink="http://www.w3.org/1999/xlink">
    <title>页面设计管理</title>
    <g id="平台icon231127" stroke="none" stroke-width="1" fill="none" fill-rule="evenodd">
        <g id="平台icon231128" transform="translate(-424, -136)">
            <g id="页面设计管理" transform="translate(424.0002, 136)">
                <rect id="_mockplus_fix_" x="0" y="0" width="16" height="16"></rect>
                <path d="M2.67787875,0.639443701 C3.21605859,0.109068993 4.09277092,0.109068993 4.62227045,0.639443701 L15.594195,11.4436898 C16.1323749,11.9740645 16.1323749,12.8295076 15.594195,13.3598823 L13.3199512,15.6011431 L13.3112709,15.6096976 C12.773091,16.1315179 11.905059,16.1315179 11.3668792,15.6011431 L10.2037163,14.4548494 L12.2001899,12.5044392 C12.4692798,12.2392518 12.4692798,11.8115303 12.2001899,11.546343 C11.9311,11.2811556 11.497084,11.2811556 11.227994,11.546343 L9.24020073,13.5053076 L8.26800488,12.5472114 L8.2766852,12.5386569 L9.45720873,11.3838088 C9.72629866,11.1186214 9.72629866,10.6908999 9.45720873,10.4257125 C9.18811881,10.1605252 8.75410281,10.1605252 8.48501288,10.4257125 L7.31316967,11.5891151 L7.30448935,11.5976695 L6.32361318,10.6224644 L8.33744744,8.67205421 C8.60653737,8.40686685 8.60653737,7.97914531 8.33744744,7.71395796 C8.06835752,7.44877061 7.63434152,7.44877061 7.36525159,7.71395796 L5.37745829,9.68147704 L4.40526244,8.72338079 L5.58578598,7.55142378 C5.8548759,7.28623642 5.8548759,6.85851488 5.58578598,6.59332753 L5.57710566,6.5847731 C5.30801573,6.31958574 4.87399973,6.32814017 4.61359013,6.59332753 L3.42438627,7.76528455 L2.45219042,6.8071883 L4.44866404,4.84822365 C4.71775397,4.58303629 4.71775397,4.15531475 4.44866404,3.8901274 C4.17957412,3.62494005 3.74555812,3.62494005 3.47646819,3.8901274 L1.47999457,5.86620091 L0.403634884,4.79689706 C-0.134544961,4.26652235 -0.134544961,3.41107928 0.403634884,2.88070457 L2.66919843,0.647998132 Z M2.59975587,9.08266689 L6.78367015,13.214457 L5.83751526,14.1468899 C5.57710566,14.4035228 5.26461413,14.5831659 4.91740133,14.6943735 L1.13278177,15.7123507 C0.96785569,15.7636773 0.785568968,15.7636773 0.620642886,15.7123507 C0.169266242,15.5669254 -0.0824630408,15.0964317 0.0564220806,14.6516013 L1.08938017,10.9218695 C1.20222433,10.5882467 1.39319137,10.2717328 1.64492066,10.0236543 L2.59975587,9.08266689 Z M11.445002,0.365701916 C11.9397803,-0.121900639 12.7383697,-0.121900639 13.2244677,0.365701916 L15.6289163,2.73527924 C16.1236946,3.2228818 16.1236946,4.001335 15.6289163,4.48893755 L13.1810661,6.90984147 L8.99715177,2.7780514 Z" id="页面设计管理备份" fill="#666666" fill-rule="nonzero"></path>
            </g>
        </g>
    </g>
</svg>