<?xml version="1.0" encoding="UTF-8"?>
<svg width="16px" height="16px" viewBox="0 0 16 16" version="1.1" xmlns="http://www.w3.org/2000/svg" xmlns:xlink="http://www.w3.org/1999/xlink">
    <title>参数管理</title>
    <g id="平台icon231127" stroke="none" stroke-width="1" fill="none" fill-rule="evenodd">
        <g id="平台icon231128" transform="translate(-232, -136)">
            <g id="参数管理" transform="translate(232.0002, 136)">
                <rect id="_mockplus_fix_" x="0" y="0" width="16" height="16"></rect>
                <path d="M15,0 L1,0 C0.4484375,0 0,0.4484375 0,1 L0,11 C0,11.5515625 0.4484375,12 1,12 L7,12 L7,14 L3,14 C2.4484375,14 2,14.4484375 2,15 C2,15.5515625 2.4484375,16 3,16 L13,16 C13.5515625,16 14,15.5515625 14,15 C14,14.4484375 13.5515625,14 13,14 L9,14 L9,12 L15,12 C15.5515625,12 16,11.5515625 16,11 L16,1 C16,0.4484375 15.5515625,0 15,0 Z M11.0171875,2.3046875 C11.0171875,2.1296875 11.159375,1.9875 11.334375,1.9875 L11.6515625,1.9875 C11.8265625,1.9875 11.96875,2.1296875 11.96875,2.3046875 L11.96875,3.7703125 L11.0171875,3.7703125 L11.0171875,2.3046875 L11.0171875,2.3046875 Z M7.5234375,2.3046875 C7.5234375,2.1296875 7.665625,1.9875 7.840625,1.9875 L8.159375,1.9875 C8.334375,1.9875 8.4765625,2.1296875 8.4765625,2.3046875 L8.475,2.3046875 L8.475,5.84375 L7.5234375,5.84375 L7.5234375,2.3046875 Z M4.034375,2.3046875 C4.034375,2.1296875 4.1765625,1.9875 4.3515625,1.9875 L4.66875,1.9875 C4.84375,1.9875 4.9859375,2.1296875 4.9859375,2.3046875 L4.9859375,3.1671875 L4.034375,3.1671875 L4.034375,2.3046875 L4.034375,2.3046875 Z M4.984375,9.6390625 C4.984375,9.8140625 4.8421875,9.95625 4.6671875,9.95625 L4.35,9.95625 C4.175,9.95625 4.0328125,9.8140625 4.0328125,9.6390625 L4.0328125,5.70625 L4.984375,5.70625 L4.984375,9.6390625 Z M6.09531891,4.7546875 C6.09531891,5.10625 5.8109375,5.3890625 5.4609375,5.3890625 L3.55625,5.3890625 C3.20625,5.3890625 2.921875,5.1046875 2.921875,4.7546875 L2.921875,4.1203125 C2.921875,3.76875 3.20625,3.4859375 3.55625,3.4859375 L5.4625,3.4859375 C5.8125,3.4859375 6.096875,3.7703125 6.09531891,4.1203125 L6.09531891,4.7546875 Z M8.4765625,9.7953125 C8.4765625,9.9703125 8.334375,10.1125 8.159375,10.1125 L7.840625,10.1125 C7.665625,10.1125 7.5234375,9.9703125 7.5234375,9.7953125 L7.5234375,8.384375 L8.4765625,8.384375 L8.4765625,9.7953125 Z M9.5875,7.43125 C9.5875,7.7828125 9.303125,8.065625 8.953125,8.065625 L7.0484375,8.065625 C6.6984375,8.065625 6.4140625,7.78125 6.4140625,7.43125 L6.4140625,6.796875 C6.4140625,6.4453125 6.6984375,6.1625 7.0484375,6.1625 L8.953125,6.1625 C9.303125,6.1625 9.5875,6.446875 9.5875,6.796875 L9.5875,7.43125 L9.5875,7.43125 Z M11.96875,9.6546875 C11.96875,9.8296875 11.8265625,9.971875 11.6515625,9.971875 L11.334375,9.971875 C11.159375,9.971875 11.0171875,9.8296875 11.0171875,9.6546875 L11.0171875,6.3078125 L11.96875,6.3078125 L11.96875,9.6546875 Z M13.0781504,5.3578125 C13.0781504,5.709375 12.79375,5.9921875 12.44375,5.9921875 L10.5390625,5.9921875 C10.1890625,5.9921875 9.9046875,5.7078125 9.9046875,5.3578125 L9.9046875,4.7234375 C9.9046875,4.371875 10.1890625,4.0890625 10.5390625,4.0890625 L12.4453125,4.0890625 C12.7953125,4.0890625 13.08125,4.3734375 13.0781504,4.7234375 L13.0781504,5.3578125 Z" fill="#666666" fill-rule="nonzero"></path>
            </g>
        </g>
    </g>
</svg>