<?xml version="1.0" encoding="UTF-8"?>
<svg width="16px" height="16px" viewBox="0 0 16 16" version="1.1" xmlns="http://www.w3.org/2000/svg" xmlns:xlink="http://www.w3.org/1999/xlink">
    <title>15-图标/6标签/1未知</title>
    <g id="平台icon231127" stroke="none" stroke-width="1" fill="none" fill-rule="evenodd">
        <g id="平台icon231128" transform="translate(-232, -424)">
            <g id="15-图标/6标签/1未知" transform="translate(232, 424)">
                <rect id="_mockplus_fix_" x="0" y="0" width="16" height="16"></rect>
                <rect id="_mockplus_fix_" x="0" y="0" width="16" height="16"></rect>
                <g id="性别未知" fill-rule="nonzero">
                    <path d="M2.0015625,0 L14,0 C15.1046875,0 16,0.8953125 16,2.0015625 L16,13.9984375 C16,15.103125 15.1046875,16 13.9984375,16 L2.0015625,16 C0.8953125,15.9984375 0,15.103125 0,13.996875 L0,2.0015625 C0,0.8953125 0.8953125,0 2.0015625,0 Z" id="路径" fill="#FF9B54"></path>
                    <path d="M8.0828125,2.653125 C8.9296875,2.653125 9.59375,2.8859375 10.0765625,3.3515625 C10.559375,3.8171875 10.8015625,4.48125 10.8,5.3453125 C10.803125,5.740625 10.7015625,6.13125 10.5078125,6.4765625 C10.3125,6.8234375 10.0125,7.2015625 9.60625,7.6078125 C9.3609375,7.8453125 9.165625,8.0453125 9.021875,8.2109375 C8.878125,8.3765625 8.7703125,8.525 8.6984375,8.65625 C8.6296875,8.7765625 8.5828125,8.9078125 8.5578125,9.04375 C8.5359375,9.1859375 8.525,9.33125 8.5265625,9.475 C8.5265625,10.0171875 8.2984375,10.2875 7.840625,10.2875 C7.6625,10.2875 7.5234375,10.275 7.421875,10.25 C7.3203125,10.225 7.2421875,10.1796875 7.1875,10.1171875 C7.1328125,10.053125 7.096875,9.96875 7.0796875,9.8625 C7.0609375,9.734375 7.0515625,9.6046875 7.053125,9.475 C7.053125,8.6109375 7.49375,7.7484375 8.3734375,6.884375 C8.5765625,6.6890625 8.7421875,6.525 8.86875,6.39375 C8.98125,6.28125 9.08125,6.1578125 9.1671875,6.025 C9.234375,5.9203125 9.2828125,5.8046875 9.30625,5.68125 C9.3296875,5.5453125 9.3390625,5.40625 9.3375,5.26875 C9.3375,4.8875 9.2234375,4.5953125 8.99375,4.3921875 C8.765625,4.1890625 8.446875,4.0875 8.040625,4.0875 C7.634375,4.0875 7.3078125,4.2046875 7.0625,4.4375 C6.8171875,4.6703125 6.6859375,4.9515625 6.66875,5.2828125 C6.64375,5.7828125 6.3984375,6.0328125 5.93125,6.0328125 C5.440625,6.0328125 5.1953125,5.7921875 5.19375,5.309375 C5.19375,4.615625 5.4640625,3.996875 6.00625,3.4546875 C6.5453125,2.91875 7.2359375,2.653125 8.0828125,2.653125 L8.0828125,2.653125 Z M7.8671875,11.1359375 C8.0140625,11.134375 8.159375,11.165625 8.2921875,11.225 C8.5546875,11.34375 8.7640625,11.553125 8.8828125,11.815625 C9.0015625,12.0875 9.0015625,12.3953125 8.8828125,12.6671875 C8.7640625,12.9296875 8.5546875,13.1390625 8.2921875,13.2578125 C8.0203125,13.3765625 7.7125,13.3765625 7.440625,13.2578125 C7.178125,13.1390625 6.96875,12.9296875 6.85,12.6671875 C6.73125,12.3953125 6.73125,12.0875 6.85,11.815625 C6.96875,11.553125 7.178125,11.34375 7.440625,11.225 C7.575,11.165625 7.7203125,11.134375 7.8671875,11.1359375 Z" id="形状" fill="#FFFFFF"></path>
                </g>
            </g>
        </g>
    </g>
</svg>