<?xml version="1.0" encoding="UTF-8"?>
<svg width="16px" height="16px" viewBox="0 0 16 16" version="1.1" xmlns="http://www.w3.org/2000/svg" xmlns:xlink="http://www.w3.org/1999/xlink">
    <title>15-图标/2提示/疑问</title>
    <g id="平台icon231127" stroke="none" stroke-width="1" fill="none" fill-rule="evenodd">
        <g id="平台icon231128" transform="translate(-472, -232)">
            <g id="15-图标/2提示/疑问" transform="translate(472, 232)">
                <rect id="_mockplus_fix_" x="0" y="0" width="16" height="16"></rect>
                <g id="疑问" fill-rule="nonzero">
                    <path d="M8,0 C3.58125,0 0,3.58125 0,8 C0,12.41875 3.58125,16 8,16 C12.41875,16 16,12.4171875 16,8 C16,3.5828125 12.41875,0 8,0 Z" id="路径" fill="#45A8E6"></path>
                    <path d="M8.1078125,13.0109375 C7.6453125,13.0109375 7.271875,12.6359375 7.271875,12.1734375 C7.271875,11.7109375 7.646875,11.3359375 8.109375,11.3374951 C8.571875,11.3374951 8.9453125,11.7125 8.9453125,12.175 C8.9453125,12.396875 8.8578125,12.609375 8.7,12.7671875 C8.54375,12.921875 8.3296875,13.0109375 8.1078125,13.0109375 Z M8.8015625,9.3859375 L8.7890625,10.328125 C8.7890625,10.4765625 8.5921875,10.678125 8.440625,10.7703125 C8.3140625,10.846875 8.1015625,10.86875 7.9546875,10.86875 C7.646875,10.86875 7.28125,10.61875 7.28125,10.309375 L7.28125,9.365625 C7.28125,8.5328125 7.771875,7.95 8.3375,7.2875 C8.7375,6.81875 9.021875,6.5828125 9.1828125,6.10625 C9.4921875,5.2 8.99375,4.4671875 8.01875,4.5 C7.0796875,4.5328125 6.76875,5.2078125 6.725,5.7765625 C6.6765625,6.390625 6.1796875,6.4734375 5.8515625,6.4625 C5.55,6.4515625 5.1890625,6.1078125 5.1984375,5.8046875 C5.259375,3.928125 6.3828125,3.071875 7.91875,2.9921875 C9.46875,2.9109375 10.9875,4.009375 10.7828125,5.996875 C10.696875,6.828125 10.134375,7.45625 9.6109375,8.0125 C9.6109375,8.0140625 8.8421875,8.721875 8.8015625,9.3859375 L8.8015625,9.3859375 Z" id="形状" fill="#FFFFFF"></path>
                </g>
            </g>
        </g>
    </g>
</svg>