<?xml version="1.0" encoding="UTF-8"?>
<svg width="16px" height="16px" viewBox="0 0 16 16" version="1.1" xmlns="http://www.w3.org/2000/svg" xmlns:xlink="http://www.w3.org/1999/xlink">
    <title>交易对账</title>
    <g id="平台icon231127" stroke="none" stroke-width="1" fill="none" fill-rule="evenodd">
        <g id="平台icon231128" transform="translate(-184, -184)">
            <g id="交易对账" transform="translate(184, 184)">
                <rect id="_mockplus_fix_" x="0" y="0" width="15.99996" height="15.99986"></rect>
                <path d="M2.5983935,14.4703334 C1.94579514,14.4703334 1.61959595,14.1439362 1.61959595,13.4913419 L1.61959595,2.59783727 L0.978797553,2.59783727 C0.326199185,2.59783727 0,2.92423441 0,3.5766287 L0,15.0209286 C0,15.6735229 0.326199185,15.99972 0.978797553,15.99972 L12.4231689,15.99972 C13.0757673,15.99972 13.4021665,15.6735229 13.4021665,15.0209286 L13.4021665,14.4703334 L2.5983935,14.4703334 Z" id="Fill-1" fill="#727272"></path>
                <path d="M11.5001312,8.93952178 L10.0813348,8.93952178 L10.0813348,9.82031407 C10.0811348,10.2529103 9.73033567,10.6033072 9.29793676,10.6031073 C8.86573784,10.6031073 8.51533871,10.2527103 8.51513871,9.82031407 L8.51513871,8.93812179 L7.09774226,8.93812179 C6.66534334,8.93812179 6.31454421,8.58752486 6.31454421,8.15512864 C6.31454421,7.72273243 6.66534334,7.37213549 7.09774226,7.37213549 L8.51573871,7.37213549 L8.51573871,6.68874147 L7.09774226,6.68874147 C6.66534334,6.68854147 6.31474421,6.33774454 6.31494421,5.90534833 C6.31514421,5.47315211 6.66554334,5.12275518 7.09774226,5.12255518 L7.63294092,5.12255518 L6.65974335,4.17896343 C6.32994418,3.89916588 6.28954428,3.40497021 6.56934358,3.07517309 C6.84914288,2.74537598 7.34314164,2.70477633 7.67294082,2.98457388 C7.70014075,3.00737369 7.72534069,3.03217347 7.74894063,3.05837324 L9.27213682,4.53456032 L10.794733,3.05837324 C11.1145322,2.76737579 11.609731,2.79077558 11.9009302,3.11057278 C12.1791296,3.41617011 12.1717296,3.885366 11.8845303,4.18216341 L10.9107327,5.12595515 L11.4981313,5.12595515 C11.9305302,5.12595515 12.2809293,5.47675208 12.2807293,5.90934829 C12.2807293,6.34154451 11.9303302,6.69194144 11.4981313,6.69194144 L10.0813348,6.69194144 L10.0813348,7.37653545 L11.5001312,7.37333548 C11.9325302,7.37333548 12.2831293,7.72393241 12.2831293,8.15632863 C12.2831293,8.58892485 11.9325302,8.93952178 11.5001312,8.93952178 M15.0209224,0 L3.57675106,0 C2.92415269,0 2.59775351,0.326197146 2.59775351,0.978791435 L2.59775351,12.4230913 C2.59775351,13.0756856 2.92415269,13.4018827 3.57675106,13.4018827 L15.0209224,13.4018827 C15.6735208,13.4018827 15.99992,13.0756856 15.99992,12.4230913 L15.99992,0.978791435 C15.99992,0.326197146 15.6735208,0 15.0209224,0" id="Fill-3" fill="#727272"></path>
            </g>
        </g>
    </g>
</svg>