<?xml version="1.0" encoding="UTF-8"?>
<svg width="16px" height="16px" viewBox="0 0 16 16" version="1.1" xmlns="http://www.w3.org/2000/svg" xmlns:xlink="http://www.w3.org/1999/xlink">
    <title>资源管理</title>
    <g id="平台icon231127" stroke="none" stroke-width="1" fill="none" fill-rule="evenodd">
        <g id="平台icon231128" transform="translate(-904, -136)">
            <g id="资源管理" transform="translate(904, 136)">
                <rect id="_mockplus_fix_" x="0" y="0" width="16" height="16"></rect>
                <rect id="矩形" x="0" y="0" width="16" height="16"></rect>
                <path d="M12.1044248,10.68 C11.520354,10.68 11.0442478,11.1543363 11.0442478,11.7384071 C11.0442478,12.3224779 11.5185841,12.7968142 12.1044248,12.7968142 C12.6884956,12.7968142 13.1646018,12.3224779 13.1646018,11.7384071 C13.1646018,11.1543363 12.6902655,10.68 12.1044248,10.68 Z" id="路径" fill="#666666" fill-rule="nonzero"></path>
                <path d="M15.640708,12.4681415 L15.1876106,12.117699 C15.2035398,11.9884955 15.2123894,11.8646017 15.2123894,11.7407078 C15.2123894,11.616814 15.2035398,11.4929202 15.1876106,11.3637167 L15.640708,11.0132742 C15.8530973,10.8752211 15.9221239,10.5955751 15.7946903,10.3761061 L15.1327434,9.22920345 C15.0690265,9.11946894 14.9663717,9.03982292 14.8442478,9.00796451 C14.7292035,8.97787602 14.6088496,8.9902654 14.5026549,9.04513265 L13.9716814,9.26106185 C13.7716814,9.11061938 13.5522124,8.98495566 13.3185841,8.88584062 L13.240708,8.31769903 C13.2283186,8.06283178 13.0212389,7.86460169 12.7663717,7.86460169 L11.440708,7.86460169 C11.1858407,7.86460169 10.9787611,8.06283178 10.9663717,8.31769903 L10.8884956,8.88584062 C10.6548673,8.98495566 10.4353982,9.11061938 10.2353982,9.26106185 L9.70442478,9.04513265 C9.47787611,8.93008841 9.20176991,9.00973442 9.07610619,9.23097336 L8.41238938,10.3796459 C8.28672566,10.5991149 8.3539823,10.878761 8.56637168,11.0150441 L9.01946903,11.3654866 C9.00353982,11.4946901 8.99469027,11.618584 8.99469027,11.7424778 C8.99469027,11.8663716 9.00353982,11.9902654 9.01946903,12.1194689 L8.56637168,12.4699114 C8.35221239,12.6079645 8.28495575,12.8876105 8.41238938,13.1070795 L9.07610619,14.2539822 C9.13982301,14.3637167 9.24247788,14.4433627 9.36460177,14.4752211 C9.47964602,14.5053096 9.6,14.4929202 9.70442478,14.438053 L10.2336283,14.2221237 C10.4336283,14.3725662 10.6530973,14.4982299 10.8867257,14.597345 L10.9646018,15.1654866 C10.9769912,15.4185839 11.1840708,15.616814 11.4389381,15.616814 L12.7646018,15.616814 C13.019469,15.616814 13.2265487,15.4185839 13.2389381,15.1654866 L13.3168142,14.597345 C13.5504425,14.4982299 13.7699115,14.3725662 13.9699115,14.2221237 L14.500885,14.438053 C14.7274336,14.5530972 15.0017699,14.4734512 15.1309735,14.2522122 L15.7929204,13.1053096 C15.8566372,12.9955751 15.8725664,12.8681415 15.840708,12.7442477 C15.8123894,12.6309733 15.7415929,12.5318583 15.640708,12.4681415 L15.640708,12.4681415 Z M12.1044248,13.3619468 C11.2106195,13.3619468 10.4814159,12.6345131 10.4814159,11.7407078 C10.4814159,10.8469025 11.2088496,10.1194689 12.1044248,10.1194689 C13,10.1194689 13.7274336,10.8469025 13.7274336,11.7407078 C13.7274336,12.6345131 13,13.3619468 12.1044248,13.3619468 Z M12.2265487,0.5 L1.36283186,0.5 C0.610619469,0.5 0.0017699115,1.10884955 0.0017699115,1.86106193 L0.0017699115,3.66637165 C0.0017699115,4.41858403 0.610619469,5.02743358 1.36283186,5.02743358 L12.2265487,5.02743358 C12.9787611,5.02743358 13.5876106,4.41858403 13.5876106,3.66637165 L13.5876106,1.86106193 C13.5876106,1.10884955 12.9787611,0.5 12.2265487,0.5 Z M3.16637168,3.04159289 C3.16637168,3.32300882 2.9380531,3.55309731 2.65486726,3.55309731 L1.97699115,3.55309731 C1.69380531,3.55309731 1.46548673,3.32477873 1.46548673,3.04159289 L1.46548673,2.36371679 C1.46548673,2.08230087 1.69380531,1.85221238 1.97699115,1.85221238 L2.65486726,1.85221238 C2.9380531,1.85221238 3.16637168,2.08053096 3.16637168,2.36371679 L3.16637168,3.04159289 L3.16637168,3.04159289 Z" id="形状" fill="#666666" fill-rule="nonzero"></path>
                <path d="M12.2265487,5.6 L1.36283186,5.6 C0.610619469,5.6 0.0017699115,6.20884956 0.0017699115,6.96106195 L0.0017699115,8.76637168 C0.0017699115,9.51858407 0.610619469,10.1274336 1.36283186,10.1274336 L7.29557522,10.1274336 C7.32920354,10.0212389 7.37345133,9.91681416 7.43185841,9.8159292 L8.09734513,8.66371681 C8.46548673,8.02654867 9.20707965,7.73274336 9.8920354,7.90973451 C10.0814159,7.22654867 10.7044248,6.73274336 11.4424779,6.73274336 L12.7681416,6.73274336 C13.0672566,6.73274336 13.3469027,6.8159292 13.5876106,6.95752212 C13.5858407,6.20884956 12.9769912,5.6 12.2265487,5.6 L12.2265487,5.6 Z M3.16637168,8.25486726 C3.16637168,8.53628319 2.9380531,8.76637168 2.65486726,8.76637168 L1.97699115,8.76637168 C1.69380531,8.76637168 1.46548673,8.5380531 1.46548673,8.25486726 L1.46548673,7.57699115 C1.46548673,7.29557522 1.69380531,7.06548673 1.97699115,7.06548673 L2.65486726,7.06548673 C2.9380531,7.06548673 3.16637168,7.29380531 3.16637168,7.57699115 L3.16637168,8.25486726 Z M8.09557522,14.8212389 L7.43362832,13.6743363 C7.06371681,13.0371681 7.18053097,12.2477876 7.67964602,11.7433628 C7.39823009,11.4584071 7.24070796,11.0849558 7.21946903,10.6973451 L1.36283186,10.6973451 C0.610619469,10.6973451 0.0017699115,11.3061947 0.0017699115,12.0584071 L0.0017699115,13.8637168 C0.0017699115,14.6159292 0.610619469,15.2247788 1.36283186,15.2247788 L8.42831858,15.2247788 C8.29734513,15.1097345 8.18584071,14.9752212 8.09557522,14.8212389 L8.09557522,14.8212389 Z M3.16637168,13.3522124 C3.16637168,13.6336283 2.9380531,13.8637168 2.65486726,13.8637168 L1.97699115,13.8637168 C1.69380531,13.8637168 1.46548673,13.6353982 1.46548673,13.3522124 L1.46548673,12.6743363 C1.46548673,12.3929204 1.69380531,12.1628319 1.97699115,12.1628319 L2.65486726,12.1628319 C2.9380531,12.1628319 3.16637168,12.3911504 3.16637168,12.6743363 L3.16637168,13.3522124 L3.16637168,13.3522124 Z" id="形状" fill="#666666" fill-rule="nonzero"></path>
            </g>
        </g>
    </g>
</svg>