<?xml version="1.0" encoding="UTF-8"?>
<svg width="16px" height="16px" viewBox="0 0 16 16" version="1.1" xmlns="http://www.w3.org/2000/svg" xmlns:xlink="http://www.w3.org/1999/xlink">
    <title>15-图标/1框架/2业务查询</title>
    <g id="平台icon231127" stroke="none" stroke-width="1" fill="none" fill-rule="evenodd">
        <g id="平台icon231128" transform="translate(-376, -88)">
            <g id="15-图标/1框架/2业务查询" transform="translate(376, 88)">
                <rect id="_mockplus_fix_" x="0" y="0" width="16" height="16"></rect>
                <rect id="_mockplus_fix_" x="0" y="0" width="16" height="16"></rect>
                <path d="M2,2.9109375 L13.9984375,2.9109375 C14.371875,2.9375 14.7,2.6609375 14.7359375,2.2875 L14.7359375,1.95 C14.7078125,1.5703125 14.378125,1.284375 13.9984375,1.309375 L2,1.309375 C1.6203125,1.2828125 1.290625,1.56875 1.2625,1.95 L1.2625,2.2875 C1.2984375,2.6609375 1.6265625,2.9375 2,2.9109375 Z M15.140625,3.5515625 C15.6140625,3.5515625 15.9984375,3.934375 16,4.4078125 L16,13.834375 C16,14.3078125 15.615625,14.6921875 15.1421875,14.6921875 L0.8578125,14.6921875 C0.384375,14.6921875 0,14.3078125 0,13.834375 L0,4.4078125 C0,3.934375 0.384375,3.5515625 0.8578125,3.5515625 Z M11.05625,6.8515625 C10.025,5.078125 7.7515625,4.478125 5.978125,5.509375 C4.2046875,6.540625 3.6046875,8.8140625 4.6359375,10.5875 C5.6671875,12.3609375 7.940625,12.9609375 9.7140625,11.9296875 L10.590625,12.809375 C10.8796875,13.0984375 11.3484375,13.0984375 11.6390625,12.809375 C11.928125,12.5203125 11.9296875,12.0515625 11.6421875,11.7609375 L10.821875,10.940625 C11.7125,9.7484375 11.8046875,8.1390625 11.05625,6.8515625 Z M7.8515625,6.484375 C9.08125901,6.484375 10.078125,7.48124099 10.078125,8.7109375 C10.078125,9.94063401 9.08125901,10.9375 7.8515625,10.9375 C6.62186599,10.9375 5.625,9.94063401 5.625,8.7109375 C5.625,7.48124099 6.62186599,6.484375 7.8515625,6.484375 Z" id="形状" fill="#666666" fill-rule="nonzero"></path>
            </g>
        </g>
    </g>
</svg>