<?xml version="1.0" encoding="UTF-8"?>
<svg width="16px" height="16px" viewBox="0 0 16 16" version="1.1" xmlns="http://www.w3.org/2000/svg" xmlns:xlink="http://www.w3.org/1999/xlink">
    <title>15-图标/4操作/自定义列表</title>
    <g id="平台icon231127" stroke="none" stroke-width="1" fill="none" fill-rule="evenodd">
        <g id="平台icon231128" transform="translate(-40, -328)">
            <g id="15-图标/4操作/自定义列表" transform="translate(40, 328)">
                <rect id="_mockplus_fix_" x="0" y="0" width="16" height="16"></rect>
                <rect id="_mockplus_fix_" x="0" y="0" width="16" height="16"></rect>
                <path d="M5.82203385,15.8604758 C4.9275447,15.6080397 4.08406,15.2012887 3.32968899,14.6584441 L3.36359525,13.0389121 C3.37804027,12.336935 2.88963755,11.7245592 2.20203223,11.5825052 L0.613594024,11.25438 C0.253286334,10.3976679 0.0456250711,9.48452946 0,8.55625383 L1.28671933,7.57312839 C1.8448261,7.14677424 2.01921051,6.38287327 1.70140701,5.75656507 L0.967812933,4.31109568 C1.41403436,3.49585207 1.99820407,2.76413324 2.6943762,2.14843846 L4.26562691,2.54171989 C4.94684712,2.71216863 5.65268286,2.37219525 5.94406516,1.73328202 L6.61703421,0.258593866 C7.53246038,0.100050699 8.46832803,0.100050699 9.3837542,0.258593866 L10.056567,1.73328202 C10.3479975,2.37182005 11.0533738,2.71169871 11.7343802,2.54171989 L13.3056309,2.14843846 C14.0018926,2.76404808 14.5860757,3.4957836 15.0321942,4.31109568 L14.2990689,5.75656507 C13.9810979,6.38275636 14.15529,7.14667847 14.7132878,7.57312839 L16,8.55625383 C15.9544136,9.48446715 15.7468057,10.3975508 15.3865694,11.2542238 L13.7982874,11.5823489 C13.1107095,11.7244115 12.622358,12.3368055 12.6368806,13.0387558 L12.6703182,14.6586003 C11.9159077,15.2012463 11.0725011,15.6079322 10.1781296,15.8604758 L8.93141024,14.8231316 C8.39160135,14.3742397 7.6084058,14.3742397 7.06859691,14.8231316 L5.82203385,15.8604758 L5.82203385,15.8604758 Z M8.00000358,11.4268801 C9.80969189,11.4268801 11.27688,9.9595357 11.27688,8.14969114 C11.27688,6.33984658 9.80969189,4.87297093 8.00000358,4.87297093 C6.19031527,4.87297093 4.72312711,6.34015908 4.72312711,8.14969114 C4.72312711,9.9592232 6.19031527,11.4268801 8.00000358,11.4268801 Z" id="自定义列表" fill="#3B8FD9" fill-rule="nonzero"></path>
            </g>
        </g>
    </g>
</svg>