<?xml version="1.0" encoding="UTF-8"?>
<svg width="16px" height="16px" viewBox="0 0 16 16" version="1.1" xmlns="http://www.w3.org/2000/svg" xmlns:xlink="http://www.w3.org/1999/xlink">
    <title>15-图标/4操作/设置</title>
    <g id="平台icon231127" stroke="none" stroke-width="1" fill="none" fill-rule="evenodd">
        <g id="平台icon231128" transform="translate(-1048, -280)">
            <g id="15-图标/4操作/设置" transform="translate(1048, 280)">
                <rect id="_mockplus_fix_" x="0" y="0" width="16" height="16"></rect>
                <rect id="_mockplus_fix_" x="0" y="0" width="16" height="16"></rect>
                <path d="M11.5235466,7.97891264 C11.5235466,9.88024072 9.97531228,11.4284751 8.0739842,11.4284751 C6.17265612,11.4284751 4.62442177,9.87867822 4.62442177,7.97891264 C4.62442177,6.07914706 6.17109362,4.52935022 8.0739842,4.52935022 C9.97687478,4.52935022 11.5235466,6.07602206 11.5235466,7.97891264 M15.6949059,5.75263144 C15.6105309,5.44017832 15.3246403,5.23394395 15.010609,5.25581895 C14.8949997,5.26363145 14.7778278,5.25425645 14.6637809,5.23081895 C14.2841403,5.15113145 13.9576247,4.91055333 13.7701403,4.57310021 C13.5154841,4.1200221 13.5326716,3.56385024 13.8138903,3.12795962 C13.9872966,2.85924088 13.9560622,2.50616276 13.7373278,2.27181901 C13.3295778,1.84063152 12.8702497,1.47349091 12.3874997,1.14697529 C11.642281,0.639209675 10.8267654,0.247069058 9.95343728,0.0205378134 C9.64878104,-0.0575871849 9.33320292,0.0924128118 9.19415605,0.381428431 C8.9707498,0.848569045 8.50831231,1.14539716 8.00056233,1.14383466 L7.99587483,1.14383466 C7.48968734,1.14539716 7.02723422,0.848569045 6.8022811,0.381428431 C6.66321861,0.0924128118 6.34607799,-0.0575715599 6.04298424,0.0205378134 C5.17121864,0.248631558 4.35414053,0.639209675 3.6089218,1.14539716 C3.12617181,1.47192841 2.66685932,1.83906902 2.25907808,2.27025651 C2.04037496,2.50460026 2.00912496,2.85767838 2.1809687,3.12639712 C2.46374995,3.56228774 2.47937495,4.1184596 2.2247187,4.57153771 C2.03724996,4.91055333 1.71228121,5.14958458 1.3326406,5.22769395 C1.21882012,5.25261024 1.10216041,5.26207041 0.985812479,5.25581895 C0.67179686,5.23081895 0.385890617,5.44017832 0.303093743,5.75263144 C-0.0999809108,7.22377158 -0.0999809108,8.7762412 0.303093743,10.2473813 C0.387453117,10.558272 0.67335936,10.7660688 0.985812479,10.7441938 C1.10299998,10.7379438 1.21859372,10.7473188 1.3326406,10.7723188 C1.76853121,10.8598032 2.13254683,11.1660219 2.30439057,11.5893969 C2.47470307,12.0112251 2.42939057,12.49085 2.1825312,12.8736157 C2.00912496,13.1438969 2.04037496,13.4954125 2.2606562,13.7297563 C2.66842182,14.1609438 3.12773431,14.5280844 3.6104843,14.8546 C4.35726553,15.3623656 5.17121864,15.7529437 6.04610924,15.9779125 C6.35076549,16.0576 6.66634361,15.9060375 6.80539048,15.6170218 C7.02879672,15.1483187 7.49281234,14.8530531 8.0005467,14.8561781 C8.51142169,14.8561781 8.9691873,15.1483187 9.19571855,15.6185843 C9.33476542,15.9076 9.65034354,16.0575843 9.95499978,15.979475 C10.8283279,15.7545062 11.6438435,15.3639281 12.3890622,14.8561781 C12.8718122,14.5280844 13.3311403,14.1625063 13.738906,13.7297563 C13.9576247,13.4954125 13.9888591,13.1423344 13.8154528,12.8736157 C13.5326716,12.437725 13.5170466,11.8815532 13.7717028,11.4284751 C14.0185466,10.9816626 14.5012966,10.7160688 15.0121715,10.7457563 C15.3262028,10.7645063 15.6105309,10.558272 15.6964684,10.2489438 C16.0995309,8.77413137 16.0995309,7.22275641 15.6949059,5.75263144" id="设置" fill="#3B8FD9" fill-rule="nonzero"></path>
            </g>
        </g>
    </g>
</svg>