<?xml version="1.0" encoding="UTF-8"?>
<svg width="16px" height="16px" viewBox="0 0 16 16" version="1.1" xmlns="http://www.w3.org/2000/svg" xmlns:xlink="http://www.w3.org/1999/xlink">
    <title>签名管理</title>
    <g id="平台icon231127" stroke="none" stroke-width="1" fill="none" fill-rule="evenodd">
        <g id="平台icon231128" transform="translate(-328, -184)">
            <g id="签名管理" transform="translate(328.0015, 184)">
                <rect id="_mockplus_fix_" x="5.68434189e-14" y="0" width="16.0000054" height="16"></rect>
                <rect id="矩形" x="5.68434189e-14" y="0" width="16.0000054" height="16"></rect>
                <path d="M4.5834445,1.6 C4.88115293,1.6 5.20974679,1.67453125 5.56922608,1.82328125 C5.92870537,1.97203125 6.2151638,2.15317708 6.42860138,2.36671875 L12.4526659,8.38234375 C12.6604785,8.60192708 12.7643848,8.85755208 12.7643848,9.14921875 C12.7646973,9.4465625 12.6607389,9.69932292 12.4531347,9.90765625 L8.31578952,14.0528125 C8.09631028,14.2605208 7.84073727,14.364375 7.54907051,14.364375 C7.25198707,14.364375 6.99927865,14.2605208 6.79094525,14.0528125 L0.766724451,8.02078125 C0.553286878,7.81328125 0.372140983,7.52963542 0.223286766,7.16984375 C0.0744325487,6.81005208 2.7081481e-06,6.48130208 2.7081481e-06,6.18359375 L2.7081481e-06,2.67875 C-0.000619560155,2.38625 0.105995059,2.13333333 0.319849299,1.92 C0.533703538,1.70666667 0.786464041,1.6 1.07813081,1.6 Z M7.8187581,1.6003125 C8.1162582,1.6003125 8.44474789,1.6746875 8.80422718,1.8234375 C9.16370647,1.9721875 9.4501649,2.15333333 9.66360248,2.366875 L15.6875108,8.38265625 C15.8958442,8.60213542 16.0000109,8.85770833 16.0000109,9.149375 C16.0000109,9.4465625 15.8958442,9.69932292 15.6875108,9.90765625 L11.5512594,14.0529687 C11.3318843,14.2606771 11.0763634,14.3645312 10.7846966,14.3645312 C10.5821965,14.3645312 10.4164152,14.3252083 10.2873527,14.2465625 C10.1582901,14.1679167 10.009488,14.0415104 9.84094629,13.8673437 L13.8007914,9.90765625 C14.0091248,9.69973958 14.1132915,9.44697917 14.1132915,9.149375 C14.1132915,8.85697917 14.0091248,8.60140625 13.8007914,8.38265625 L7.77657058,2.36703125 C7.56313301,2.15359375 7.27667458,1.97244792 6.91719529,1.82359375 C6.557716,1.67473958 6.22912214,1.6003125 5.93141371,1.6003125 Z M2.69610011,3.21781242 C2.39860001,3.21791667 2.14443325,3.32328125 1.93359985,3.53390625 C1.72297478,3.74453125 1.61766224,3.99864583 1.61766224,4.29625 C1.61766224,4.59385417 1.72297478,4.84802083 1.93359985,5.05875 C2.14412075,5.26958333 2.39828751,5.37494792 2.69610011,5.37484383 C2.99391271,5.37473958 3.24813154,5.269375 3.45875662,5.05875 C3.66938169,4.848125 3.77464214,4.59395833 3.77453805,4.29625 C3.77443381,3.99854167 3.66917335,3.74442708 3.45875662,3.53390625 C3.24781904,3.32307292 2.99360021,3.21770833 2.69610011,3.21781242 Z" id="形状结合" fill="#666666" fill-rule="nonzero"></path>
            </g>
        </g>
    </g>
</svg>