<?xml version="1.0" encoding="UTF-8"?>
<svg width="16px" height="16px" viewBox="0 0 16 16" version="1.1" xmlns="http://www.w3.org/2000/svg" xmlns:xlink="http://www.w3.org/1999/xlink">
    <title>15-图标/1框架/2统计报表</title>
    <g id="平台icon231127" stroke="none" stroke-width="1" fill="none" fill-rule="evenodd">
        <g id="平台icon231128" transform="translate(-232, -88)">
            <g id="15-图标/1框架/2统计报表" transform="translate(232, 88)">
                <rect id="_mockplus_fix_" x="0" y="0" width="16" height="16"></rect>
                <rect id="_mockplus_fix_" x="0" y="0" width="16" height="16"></rect>
                <g id="统计报表" transform="translate(0, 1)" fill-rule="nonzero">
                    <path d="M15.4869325,10.7708429 L15.3133271,10.7708429 L15.3133271,1.07853524 L15.4869325,1.07853524 C15.776275,1.06886228 16.003057,0.81897743 15.9936729,0.522339936 C15.9842888,0.236987563 15.7637629,0.00967296177 15.4869325,0 L0.513067452,0 C0.223724958,0.0128972824 0.00163504296,0.267618609 0.0157111643,0.564256103 C0.0282232722,0.841547674 0.244057133,1.06402579 0.513067452,1.07692308 L0.686672949,1.07692308 L0.686672949,10.7692308 L0.513067452,10.7692308 C0.223724958,10.7740673 -0.00462101098,11.0207278 0,11.3173653 C0.00476306993,11.6075541 0.231545025,11.8413174 0.513067452,11.8461538 L7.304014,11.8461538 L7.304014,12.9214648 L5.55075488,12.9214648 C5.26141239,12.934362 5.03775846,13.1874712 5.05183458,13.4857209 C5.06434669,13.7646246 5.28018055,13.9887149 5.55075488,14 L10.0504217,14 C10.3397642,13.9871027 10.5634181,13.7339936 10.549342,13.4357439 C10.5368299,13.1568402 10.320996,12.9327499 10.0504217,12.9214648 L8.34877501,12.9214648 L8.34877501,11.8445417 L15.4869325,11.8445417 C15.776275,11.8397052 16.004621,11.5930447 16,11.2964072 C15.9952369,11.0094427 15.768455,10.7756794 15.4869325,10.7708429 Z" id="路径" fill="#666666"></path>
                    <path d="M3.5,5.5 L4.5,5.5 L4.5,9 L3.5,9 L3.5,5.5 Z M5.9046875,2.8921875 L7.046875,2.8921875 L7.046875,9.284375 L5.9046875,9.284375 L5.9046875,2.8921875 Z M8.9515625,4.5 L10.09375,4.5 L10.09375,9.2859375 L8.9515625,9.2859375 L8.9515625,4.5 Z M12,3.571875 L13.1421875,3.571875 L13.1421875,9.2859375 L12,9.2859375 L12,3.571875 Z" id="形状" fill="#FFFFFF"></path>
                </g>
            </g>
        </g>
    </g>
</svg>