<?xml version="1.0" encoding="UTF-8"?>
<svg width="16px" height="16px" viewBox="0 0 16 16" version="1.1" xmlns="http://www.w3.org/2000/svg" xmlns:xlink="http://www.w3.org/1999/xlink">
    <title>15-图标/1框架/2切换医院</title>
    <g id="平台icon231127" stroke="none" stroke-width="1" fill="none" fill-rule="evenodd">
        <g id="平台icon231128" transform="translate(-136, -88)">
            <g id="15-图标/1框架/2切换医院" transform="translate(136, 88)">
                <rect id="_mockplus_fix_" x="0" y="0" width="16" height="16"></rect>
                <rect id="_mockplus_fix_" x="0" y="0" width="16" height="16"></rect>
                <path d="M1.096875,16 L6.928125,16 C7.478125,16 7.925,15.553125 7.925,15.003125 L7.925,0.996875 C7.925,0.4453125 7.478125,0 6.928125,0 L1.096875,0 C0.546875,0 0.1,0.446875 0.1,0.996875 L0.1,15.0015625 C0.1,15.553125 0.546875,16 1.096875,16 Z M5.409375,6 L6.528125,6 C6.759375,6 6.946875,6.1875 6.946875,6.41875 L6.946875,7.5796875 C6.946875,7.8109375 6.759375,8 6.528125,8 L5.409375,8 C5.178125,8 4.9890625,7.8125 4.9890625,7.58125 L4.9890625,6.4203125 C4.9921875,6.1890625 5.1796875,6 5.409375,6 L5.409375,6 Z M1.5171875,6 L2.634375,6 C2.865625,6 3.0546875,6.1875 3.0546875,6.41875 L3.0546875,7.5796875 C3.0546875,7.8109375 2.8671875,8 2.6359375,8 L1.5171875,8 C1.2859375,8 1.096875,7.8125 1.096875,7.58125 L1.096875,6.4203125 C1.096875,6.1890625 1.284375,6 1.5171875,6 C1.515625,6 1.5171875,6 1.5171875,6 Z M5.409375,2.034375 L6.528125,2.034375 C6.759375,2.034375 6.946875,2.221875 6.946875,2.4546875 L6.946875,3.615625 C6.946875,3.846875 6.759375,4.0359375 6.528125,4.0359375 L5.409375,4.0359375 C5.178125,4.0359375 4.9890625,3.8484375 4.9890625,3.6171875 L4.9890625,2.45625 C4.9921875,2.2234375 5.1796875,2.034375 5.409375,2.034375 L5.409375,2.034375 Z M1.5171875,2.034375 L2.634375,2.034375 C2.865625,2.034375 3.0546875,2.221875 3.0546875,2.453125 L3.0546875,3.6140625 C3.0546875,3.8453125 2.8671875,4.034375 2.6359375,4.034375 L1.5171875,4.034375 C1.2859375,4.034375 1.096875,3.846875 1.096875,3.615625 L1.096875,2.4546875 C1.096875,2.2234375 1.284375,2.034375 1.5171875,2.034375 Z M5.3421875,10 L6.596875,10 C6.790625,10 6.946875,10.15625 6.9484375,10.35 L6.9484375,11.6484375 C6.9484375,11.8421875 6.790625,12 6.596875,12 L5.3421875,12 C5.1484375,12 4.990625,11.84375 4.990625,11.6484375 L4.990625,10.35 C4.9921875,10.15625 5.1484375,10 5.3421875,10 Z M1.4484375,10 L2.7046875,10 C2.8984375,10 3.0546875,10.15625 3.05625,10.35 L3.05625,11.6484375 C3.05625,11.8421875 2.8984375,12 2.7046875,12 L1.4484375,12 C1.2546875,12 1.096875,11.8421875 1.096875,11.6484375 L1.096875,10.35 C1.096875,10.15625 1.2546875,10 1.4484375,10 Z M9.4375,16 L10.33125,16 C10.625,16 10.8640625,15.7625 10.8640625,15.46875 L10.8640625,13.0609375 C10.8640625,12.7671875 11.1015625,12.528125 11.396875,12.528125 L13.265625,12.528125 C13.559375,12.528125 13.7984375,12.765625 13.7984375,13.059375 L13.7984375,15.4671875 C13.7984375,15.7609375 14.0359375,16 14.33125,16 L15.225,16 C15.51875,16 15.7578125,15.7625 15.7578125,15.4671875 L15.7578125,10.9046875 C15.7578125,10.6109375 15.5203125,10.371875 15.225,10.371875 L9.4375,10.371875 C9.14375,10.371875 8.9046875,10.609375 8.9046875,10.9046875 L8.9046875,15.465625 C8.9046875,15.7609375 9.14375,15.9984375 9.4375,16 Z M9.85625,6.078125 L15.6125,6.078125 C15.8046875,6.078125 15.9015625,6.175 15.9015625,6.3671875 L15.9015625,6.946875 C15.9015625,7.1390625 15.8046875,7.2359375 15.6125,7.2359375 L9.85625,7.2359375 C9.6640625,7.2359375 9.56716919,7.1390625 9.56716919,6.946875 L9.56716919,6.3671875 C9.565625,6.175 9.6640625,6.078125 9.85625,6.078125 Z M10.09375,7.234375 L9.1109375,7.234375 C8.9953125,7.234375 8.9015625,7.140625 8.9015625,7.025 C8.9015625,6.971875 8.921875,6.91875 8.959375,6.8796875 L9.9421875,5.553125 C10.021875,5.46875 10.1546875,5.465625 10.2390625,5.5453125 C10.28125,5.584375 10.3046875,5.640625 10.3046875,5.696875 L10.3046875,7.0234375 C10.3046875,7.140625 10.2109375,7.234375 10.09375,7.234375 L10.09375,7.234375 Z M14.8984375,9.040625 L9.190625,9.040625 C8.9984375,9.040625 8.9015625,8.94375 8.9015625,8.7515625 L8.9015625,8.171875 C8.9015625,7.9796875 8.9984375,7.8828125 9.190625,7.8828125 L14.9,7.8828125 C15.0921875,7.8828125 15.1890625,7.9796875 15.1890625,8.171875 L15.1890625,8.7515625 C15.1875,8.9453125 15.0921875,9.040625 14.8984375,9.040625 Z M14.70625,7.884375 L15.6890625,7.884375 C15.8046875,7.884375 15.8984375,7.978125 15.8984375,8.09375 C15.8984375,8.146875 15.878125,8.2 15.840625,8.2390625 L14.859375,9.565625 C14.7796875,9.65 14.646875,9.653125 14.5625,9.5734375 C14.5203125,9.534375 14.496875,9.478125 14.496875,9.4203125 L14.496875,8.09375 C14.496875,7.978125 14.590625,7.884375 14.70625,7.884375 L14.70625,7.884375 Z" id="形状" fill="#666666" fill-rule="nonzero"></path>
            </g>
        </g>
    </g>
</svg>