<?xml version="1.0" encoding="UTF-8"?>
<svg width="16px" height="16px" viewBox="0 0 16 16" version="1.1" xmlns="http://www.w3.org/2000/svg" xmlns:xlink="http://www.w3.org/1999/xlink">
    <title>系统信息管理 </title>
    <g id="平台icon231127" stroke="none" stroke-width="1" fill="none" fill-rule="evenodd">
        <g id="平台icon231128" transform="translate(-856, -136)">
            <g id="系统信息管理-" transform="translate(856, 136)">
                <rect id="_mockplus_fix_" x="0" y="0" width="16" height="16"></rect>
                <path d="M11.0523567,7.2147813 C10.8127813,7.2147813 10.5871762,7.14328809 10.4180467,7.00030166 C10.2489172,6.85731524 10.1502335,6.65701357 10.1502335,6.45671191 C10.1502335,5.44072398 9.17736729,4.62533936 8.00713376,4.62533936 C6.82292994,4.62533936 5.86403396,5.44102564 5.86403396,6.45671191 C5.86403396,6.74298642 5.69490446,6.98612367 5.3988535,7.1291101 C5.10280255,7.27209652 4.77851381,7.27209652 4.49643312,7.1291101 C4.21435244,6.98612367 4.03125264,6.74268476 4.03125264,6.45671191 C4.03125264,4.59668173 5.80755837,3.10859728 7.97889595,3.10859728 C10.1502335,3.10859728 11.9405095,4.62533936 11.9405096,6.47119155 C11.9547771,6.87119155 11.545775,7.21478128 11.0523567,7.2147813 L11.0523567,7.2147813 Z M13.8297664,6.47058823 C13.5901911,6.47058823 13.364586,6.39909502 13.1954565,6.25610859 C13.026327,6.09864253 12.9276433,5.9128205 12.9276433,5.71251886 C12.9276433,4.21025641 11.9969851,2.83650076 10.4745223,2.09260935 C8.95205944,1.34871795 7.07677282,1.34871795 5.55401274,2.09260935 C4.03125266,2.83650076 3.10089172,4.21025641 3.10089172,5.71251886 C3.10089172,6.12760181 2.6918896,6.4708899 2.19847134,6.4708899 C1.70505307,6.4708899 1.29605096,6.12760181 1.29605096,5.71251886 C1.29605096,3.66636501 2.57893842,1.77767723 4.66556263,0.761990946 C6.73821656,-0.253996982 9.31825901,-0.253996982 11.3906157,0.761990946 C13.4629724,1.77797887 14.7318897,3.65218702 14.7318897,5.69834087 C14.7321868,6.12730014 14.3231847,6.47058823 13.8297664,6.47058823 Z M15.1258174,9.18914027 L0.874182579,9.18914027 C0.394734601,9.18914027 0,9.66123679 0,10.2479638 L0,14.9411765 C0,15.5134238 0.394734601,16 0.874182579,16 L15.1258174,16 C15.6052654,16 16,15.5279035 16,14.9411765 L16,10.2479638 C16,9.66123679 15.6052654,9.18914027 15.1258174,9.18914027 Z M4.03125264,13.0953243 C3.87609341,13.2383107 3.6787261,13.3242836 3.49562632,13.3242836 C3.07265392,13.3242836 2.72012739,12.9665158 2.72012739,12.5372549 C2.72012739,12.107994 3.07265393,11.7502262 3.49562632,11.7502262 C3.91859871,11.7502262 4.27112525,12.107994 4.27112525,12.5372549 C4.25685774,12.7375566 4.17214436,12.9378582 4.03125264,13.0953243 L4.03125264,13.0953243 Z M6.37171975,13.0953243 C6.21656051,13.2383107 6.0191932,13.3242836 5.83609341,13.3242836 C5.39915073,13.3242836 5.06059447,12.9665158 5.06059447,12.5372549 C5.06059447,12.107994 5.41312102,11.7502262 5.83609341,11.7502262 C6.27303608,11.7502262 6.61159236,12.107994 6.61159236,12.5372549 C6.59732484,12.7375566 6.51261146,12.9378582 6.37171975,13.0953243 L6.37171975,13.0953243 Z M8.7543949,13.0953243 C8.59923567,13.2383107 8.40186836,13.3242836 8.21876857,13.3242836 C7.78182589,13.3242836 7.44326963,12.9665158 7.44326963,12.5372549 C7.44326963,12.107994 7.79579618,11.7502262 8.21876857,11.7502262 C8.65571124,11.7502262 8.99426752,12.107994 8.99426752,12.5372549 C8.99397027,12.7375566 8.90925689,12.9378582 8.7543949,13.0953243 L8.7543949,13.0953243 Z M6.97779193,7.60090498 C6.97779193,8.15897435 7.42900212,8.60241327 7.99286624,8.60241327 C8.55673037,8.60241327 9.00794054,8.15897435 9.00794054,7.60090498 C9.00794054,7.0428356 8.55673035,6.59939669 7.99286624,6.59939669 C7.42900212,6.61357466 6.97779193,7.05731524 6.97779193,7.60090498 Z" id="系统信息管理" fill="#666666" fill-rule="nonzero"></path>
            </g>
        </g>
    </g>
</svg>