<?xml version="1.0" encoding="UTF-8"?>
<svg width="16px" height="16px" viewBox="0 0 16 16" version="1.1" xmlns="http://www.w3.org/2000/svg" xmlns:xlink="http://www.w3.org/1999/xlink">
    <title>模板管理</title>
    <g id="平台icon231127" stroke="none" stroke-width="1" fill="none" fill-rule="evenodd">
        <g id="平台icon231128" transform="translate(-376, -184)">
            <g id="模板管理" transform="translate(376.0015, 184)">
                <rect id="_mockplus_fix_" x="0" y="0" width="15.9991116" height="16.0010992"></rect>
                <path d="M2.12832714,11.1557226 C2.32313775,11.1262562 2.52455514,11.1189343 2.7116876,11.0632162 C3.25397892,10.9024909 3.39611388,10.4858551 2.98881507,10.1033288 C2.43402445,9.58186444 1.81709442,9.12736893 1.22659149,8.64412145 C0.906966385,8.38213917 0.588412645,8.11747813 0.26700192,7.85924611 C-0.0120897255,7.63601649 -0.0767289934,7.32099485 0.0936186905,7.05561947 C0.620375156,6.23324155 1.14391751,5.39943427 1.7647759,4.65063284 C2.17743155,4.15309866 2.60580063,4.30668064 2.84293032,4.92850907 C2.90774814,5.09834216 2.94113915,5.28014037 2.99363623,5.45515239 C3.14916331,5.97500953 3.47682369,6.16109374 3.97572456,5.94804339 C4.83281982,5.58158964 5.55170848,5.01940817 6.04703812,4.21703162 C6.40416114,3.63859903 6.25024112,3.24839365 5.61170514,3.01837785 C5.31618584,2.91104905 4.99888203,2.85979553 4.71675484,2.72817935 C4.28302892,2.52548685 4.16321415,2.14260341 4.52515833,1.85669091 C5.3395774,1.21200377 6.20649355,0.62714216 7.09215865,0.0838905563 C7.43321115,-0.125230952 7.79872656,0.0838905563 8.04424864,0.410877304 C8.50493735,1.02234788 8.96062633,1.63792588 9.42792181,2.24421753 C9.60023367,2.46762573 9.77111704,2.71032098 9.99503318,2.87015338 C10.1982362,3.01534193 10.5012551,3.17535292 10.7092792,3.12320648 C11.0780088,3.0310573 11.2110371,2.68067608 11.1822887,2.28707762 C11.1692537,2.10849392 11.1592542,1.9170522 11.2076444,1.74882636 C11.3519221,1.24629184 11.8535014,0.997167579 12.3070477,1.24379166 C13.1752137,1.71560979 13.8673182,2.38422715 14.2233698,3.32964924 C14.5319241,4.14881265 14.2499755,4.51026605 13.3816308,4.56991301 C13.1316447,4.58777138 12.7250602,4.71438722 12.6852409,4.86743344 C12.6272085,5.09459191 12.7545228,5.4835472 12.9396911,5.63927218 C13.6885781,6.26842254 14.4854981,6.83989037 15.2704545,7.42278755 C16.132371,8.06372444 16.2087953,8.38249634 15.6050788,9.28791568 C15.1906375,9.90956552 14.7647683,10.533537 14.2658675,11.0858963 C13.7160766,11.6954025 13.1793207,11.5575359 13.03665,10.7531949 C12.7913065,9.36988559 11.9409966,9.35613465 11.0903295,10.2108362 C10.620177,10.6833687 10.2257347,11.2621584 9.91432338,11.8552349 C9.61844695,12.418845 9.8720043,12.8051216 10.482149,12.9770977 C10.8712345,13.0867481 11.4463812,13.104785 11.444417,13.5889254 C11.4426314,13.9184123 11.0853298,14.3114751 10.7898105,14.5591706 C10.2701965,14.9947363 9.68969299,15.3627973 9.11043944,15.7199647 C8.36048109,16.1817821 8.00335806,16.0858827 7.47088762,15.365476 C6.90949023,14.6025665 6.34380735,13.8421571 5.76848215,13.0903197 C5.65664022,12.945504 5.51769806,12.8238311 5.35939773,12.7320808 C4.95924137,12.5031365 4.63354517,12.6904708 4.59658294,13.1510382 C4.52337272,14.0630651 3.91001392,14.4463057 3.07148905,14.0589577 C2.2045729,13.6585731 1.62103388,12.9504887 1.24766175,12.0891795 C0.984819205,11.4830665 1.3740833,11.0814317 2.12832714,11.1557226 L2.12832714,11.1557226 Z" id="路径" fill="#666666" fill-rule="nonzero"></path>
            </g>
        </g>
    </g>
</svg>