<?xml version="1.0" encoding="UTF-8"?>
<svg width="16px" height="16px" viewBox="0 0 16 16" version="1.1" xmlns="http://www.w3.org/2000/svg" xmlns:xlink="http://www.w3.org/1999/xlink">
    <title>15-图标/4操作/置顶</title>
    <g id="平台icon231127" stroke="none" stroke-width="1" fill="none" fill-rule="evenodd">
        <g id="平台icon231128" transform="translate(-760, -280)">
            <g id="15-图标/4操作/置顶" transform="translate(760, 280)">
                <rect id="_mockplus_fix_" x="0" y="0" width="16" height="16"></rect>
                <rect id="_mockplus_fix_" x="0" y="0" width="16" height="16"></rect>
                <g id="置顶" transform="translate(2.9998, 0)" fill="#3B8FD9" fill-rule="nonzero">
                    <path d="M5.00020696,3 C5.15176946,3 5.29083196,3.0765625 5.37364446,3.203125 L9.92364446,10.1109375 C10.122082,10.4125 9.90801946,10.8171875 9.55020696,10.8171875 L7.00020696,10.8171875 L7.00020696,15.5453125 C7.00020696,15.7953125 6.70176946,16 6.33301946,16 L3.66739446,16 C3.29864446,16 3.00020696,15.7984375 3.00020696,15.5453125 L3.00020696,10.8171875 L0.450206956,10.8171875 C0.0908319557,10.8171875 -0.123230544,10.4125 0.0767694557,10.1109375 L4.62676946,3.203125 C4.70958196,3.0765625 4.85020696,3 5.00020696,3 Z M9.00020696,0 C9.55176946,0 10.000207,0.4484375 10.000207,1 C10.000207,1.5515625 9.55176946,2 9.00020696,2 L1.00020696,2 C0.448644456,2 0.000206955669,1.5515625 0.000206955669,1 C0.000206955669,0.4484375 0.448644456,0 1.00020696,0 L9.00020696,0 Z"></path>
                </g>
            </g>
        </g>
    </g>
</svg>