<?xml version="1.0" encoding="UTF-8"?>
<svg width="16px" height="16px" viewBox="0 0 16 16" version="1.1" xmlns="http://www.w3.org/2000/svg" xmlns:xlink="http://www.w3.org/1999/xlink">
    <title>交易管理</title>
    <g id="平台icon231127" stroke="none" stroke-width="1" fill="none" fill-rule="evenodd">
        <g id="平台icon231128" transform="translate(-136, -184)">
            <g id="交易管理" transform="translate(136, 184)">
                <rect id="_mockplus_fix_" x="0" y="0" width="16" height="16"></rect>
                <rect id="矩形" fill="#000000" fill-rule="nonzero" opacity="0" x="0" y="0" width="16" height="16"></rect>
                <path d="M2,2.91089062 L13.9984375,2.91089062 C14.296875,2.93276562 14.5671875,2.75932812 14.68125,2.49839062 C14.71875,2.41245312 14.7359375,2.31870312 14.7359375,2.22339062 L14.7359375,1.99214062 C14.7359375,1.94995312 14.7328125,1.90932812 14.725,1.86714062 C14.659375,1.52964062 14.35,1.28432812 13.9984375,1.30776562 L2,1.30776562 C1.6390625,1.28276562 1.3234375,1.53901562 1.26875,1.89214062 C1.2640625,1.92339062 1.2625,1.95620312 1.2625,1.98745312 L1.2625,2.22182812 C1.2625,2.31557812 1.2796875,2.40932812 1.3171875,2.49682812 C1.43125,2.75932812 1.7015625,2.93276562 2,2.91089062 Z M15.140625,3.55151562 C15.6140625,3.55151562 15.9984375,3.93432812 16,4.40776562 L16,13.8343281 L15.99375,13.9421406 C15.940625,14.3655781 15.5796875,14.6921406 15.1421875,14.6921406 L0.8578125,14.6921406 L0.75,14.6858906 C0.328125,14.6327656 0,14.2718281 0,13.8343281 L0,4.40776562 C0,3.93432812 0.384375,3.55151562 0.8578125,3.55151562 L15.140625,3.55151562 Z M9.703125,5.24682812 L8,7.30307812 L6.296875,5.24682812 C6.1390625,5.05932812 5.871875,5.01557812 5.6671875,5.13432812 L5.59375,5.18589062 C5.3828125,5.36401562 5.3546875,5.67807812 5.5328125,5.89057812 L7.240625,7.95307812 L5.0015625,7.95307812 C4.75625,7.95307812 4.5515625,8.12964062 4.509375,8.36245312 L4.5015625,8.45307812 C4.5015625,8.72964062 4.725,8.95307812 5.0015625,8.95307812 L7.5015625,8.95307812 L7.5015625,9.90151562 L5.5015625,9.90151562 C5.25625,9.90151562 5.0515625,10.0780781 5.009375,10.3108906 L5.0015625,10.4015156 C5.0015625,10.6780781 5.225,10.9015156 5.5015625,10.9015156 L7.5015625,10.9015156 L7.5015625,12.6999531 C7.5015625,12.9312031 7.678125,13.1249531 7.9109375,13.1640156 L8.0015625,13.1718281 C8.278125,13.1718281 8.5015625,12.9608906 8.5015625,12.6999531 L8.5015625,10.8999531 L10.5015625,10.8999531 C10.746875,10.8999531 10.9515625,10.7233906 10.99375,10.4905781 L11.0015625,10.3999531 C11.0015625,10.1233906 10.778125,9.89995312 10.5015625,9.89995312 L8.5015625,9.89995312 L8.5015625,8.95151562 L11.0015625,8.95151562 C11.246875,8.95151562 11.4515625,8.77495312 11.49375,8.54214062 L11.5015625,8.45151562 C11.5015625,8.17495312 11.278125,7.95151562 11.0015625,7.95151562 L8.7609375,7.95151562 L10.4703125,5.88901562 C10.6484375,5.67807812 10.6203125,5.36245312 10.409375,5.18432812 C10.1953125,5.00776562 9.8796875,5.03432812 9.703125,5.24682812 Z" id="形状" fill="#666666" fill-rule="nonzero"></path>
            </g>
        </g>
    </g>
</svg>