<?xml version="1.0" encoding="UTF-8"?>
<svg width="16px" height="16px" viewBox="0 0 16 16" version="1.1" xmlns="http://www.w3.org/2000/svg" xmlns:xlink="http://www.w3.org/1999/xlink">
    <title>15-图标/1框架/2修改密码</title>
    <g id="平台icon231127" stroke="none" stroke-width="1" fill="none" fill-rule="evenodd">
        <g id="平台icon231128" transform="translate(-328, -88)">
            <g id="15-图标/1框架/2修改密码" transform="translate(328, 88)">
                <rect id="_mockplus_fix_" x="0" y="0" width="16" height="16"></rect>
                <rect id="_mockplus_fix_" x="0" y="0" width="16" height="16"></rect>
                <path d="M12.9265625,6.94375 L5.371875,6.94375 C5.3078125,6.634375 5.275,6.31875 5.2765625,6.003125 C5.2765625,3.91875 6.6359375,2.228125 8.315625,2.228125 C9.75625,2.228125 10.9625,3.4703125 11.275,5.140625 L13.4359375,5.140625 C13.0625,2.23125 10.9125,0 8.3140625,0 C5.453125,0 3.1359375,2.70625 3.1359375,6.0453125 C3.1359375,6.346875 3.15625,6.6484375 3.19375,6.946875 L3.0734375,6.946875 C1.928125,6.946875 1,7.6953125 1,8.61875 L1,14.3296875 C1,15.253125 1.928125,16 3.0734375,16 L12.9265625,16 C14.071875,16 15,15.2515625 15,14.3296875 L15,8.6171875 C15,7.69375 14.071875,6.94375 12.9265625,6.94375 Z" id="路径" fill="#666666" fill-rule="nonzero"></path>
            </g>
        </g>
    </g>
</svg>