<?xml version="1.0" encoding="UTF-8"?>
<svg width="16px" height="16px" viewBox="0 0 16 16" version="1.1" xmlns="http://www.w3.org/2000/svg" xmlns:xlink="http://www.w3.org/1999/xlink">
    <title>15-图标/6标签/2人员</title>
    <g id="平台icon231127" stroke="none" stroke-width="1" fill="none" fill-rule="evenodd">
        <g id="平台icon231128" transform="translate(-328, -424)">
            <g id="15-图标/6标签/2人员" transform="translate(328, 424)">
                <rect id="_mockplus_fix_" x="0" y="0" width="16" height="16"></rect>
                <rect id="_mockplus_fix_" x="0" y="0" width="16" height="16"></rect>
                <path d="M13.8395444,11.9463047 C13.8901783,12.1226309 13.9281397,12.3030723 13.9520361,12.4848672 C13.9843855,12.7035762 13.9999323,12.9236523 13.9999323,13.145082 C14.0012635,13.3569551 13.982979,13.5674609 13.9435971,13.7752324 C13.9056357,13.9734473 13.8493899,14.1224434 13.7748596,14.2235879 C13.7214127,14.2946816 13.5850105,14.3630137 13.3642466,14.428625 C13.1434687,14.49425 12.8678373,14.5557461 12.5345677,14.6104336 C12.201298,14.6664746 11.8314594,14.7197813 11.4222389,14.7703535 C11.014439,14.8209395 10.606639,14.8646758 10.1974185,14.900209 C9.78961853,14.9357559 9.39166406,14.9603652 9.00494751,14.9767715 C8.61823095,14.9918105 8.27933532,15 7.98965304,15 C7.69997077,15 7.36388813,14.9904297 6.98279757,14.9699219 C6.601707,14.9494141 6.20936446,14.9248184 5.80719049,14.8933867 C5.40501652,14.8633086 5.00424906,14.8277617 4.60768702,14.7867598 C4.20973255,14.7457441 3.84831888,14.7006406 3.51926874,14.6487012 C3.19162509,14.5981152 2.9117883,14.5502773 2.68116486,14.5038066 C2.45054142,14.4586895 2.30851328,14.4094844 2.25367393,14.3589121 C2.15663966,14.287832 2.08210934,14.0622871 2.02867649,13.6836582 C1.97522958,13.3036484 1.99632704,12.8101895 2.09336132,12.2032813 C2.14680824,11.8588184 2.2944483,11.596373 2.53632372,11.4131973 C2.78943706,11.2259336 3.07208684,11.0796719 3.3744276,10.981248 C3.69083333,10.8746348 4.02410297,10.7816797 4.37284409,10.6996621 C4.72159927,10.6190254 5.02533246,10.4973594 5.28267935,10.3347051 C5.48657933,10.2130391 5.64548544,10.0968555 5.75797713,9.98614063 C5.87048289,9.87541211 5.95062513,9.76333008 5.99844605,9.65260156 C6.04626698,9.54188672 6.07156987,9.42296875 6.07156987,9.30403711 C6.07156987,9.18238477 6.06594388,9.04569336 6.0560984,8.89396289 C6.03500093,8.67115234 5.95625112,8.49892773 5.82266197,8.37727539 C5.68766631,8.25560938 5.54001218,8.12985547 5.37969957,7.99726563 C5.29393133,7.93710938 5.22221401,7.84826953 5.16173461,7.73208594 C5.10211037,7.61470083 5.04584294,7.49573267 4.99299708,7.37531836 C4.93533067,7.23179102 4.88752381,7.08416211 4.84815594,6.93516602 C4.82705847,6.9146582 4.79470902,6.879125 4.75112166,6.82855273 C4.71877221,6.7779668 4.68221733,6.70962109 4.63862997,6.62351562 C4.58237006,6.5032168 4.5331567,6.37883008 4.49378883,6.25170898 C4.44456141,6.11091602 4.40939897,5.96602148 4.38972206,5.81975977 C4.37425059,5.69263867 4.37565708,5.5846582 4.39816105,5.49307031 C4.40519354,5.3932793 4.43332349,5.29486914 4.47831735,5.20464844 C4.47831735,4.84924805 4.49941482,4.49521484 4.54300219,4.14254883 C4.59222961,3.81996094 4.66252636,3.50010742 4.75112166,3.18570898 C4.84393644,2.85081641 5.00143606,2.53643164 5.21799452,2.26030078 C5.41204901,2.00742578 5.62016849,1.79691992 5.84655836,1.63015039 C6.06031789,1.4702168 6.29656732,1.33899414 6.54686766,1.24331836 C6.78311708,1.15308398 7.02919793,1.0902207 7.27951233,1.05330664 C7.51435526,1.01914062 7.75059062,1.00136719 7.98824655,1 C8.23574795,1.02050781 8.43683494,1.04785156 8.59292806,1.08338477 C8.74902118,1.11893164 8.87557784,1.16130078 8.97120563,1.21187305 C9.06400635,1.25972461 9.14838215,1.3212207 9.22009947,1.39366797 C9.29042435,1.46476172 9.36212761,1.53582813 9.43806442,1.60554102 L9.74462467,1.60554102 C9.84023839,1.60554102 9.93445967,1.6178457 10.0272745,1.64245508 C10.1271077,1.6725332 10.2199225,1.72173828 10.3014853,1.78734961 C10.3928935,1.85842969 10.4927268,1.95957422 10.5996065,2.09079687 C10.8428345,2.38731164 11.0282228,2.72456704 11.1466216,3.08591797 C11.2591274,3.42081055 11.3449097,3.76390625 11.4039685,4.11111719 C11.4573442,4.4786155 11.4897339,4.84870602 11.5009887,5.2196875 C11.5248992,5.27846289 11.5403707,5.33997266 11.5488097,5.40148242 C11.5600616,5.47257617 11.5670941,5.55868164 11.5727201,5.65982617 C11.5769396,5.78696094 11.5685006,5.91408203 11.5488097,6.03983594 C11.5277122,6.24213867 11.4953627,6.40207227 11.4517754,6.51825586 C11.4095804,6.63445313 11.3603671,6.72329297 11.3069342,6.78343555 C11.2619814,6.84772476 11.2010331,6.89991963 11.1297577,6.93516602 C11.0903758,7.08416211 11.0425549,7.23179102 10.9849166,7.37531836 C10.9314697,7.4969707 10.8738173,7.61588867 10.8147585,7.73208594 C10.7556996,7.8482832 10.6825758,7.93712305 10.5967935,7.99726563 C10.4139769,8.13942578 10.2635239,8.25834375 10.1453921,8.3540332 C10.0272745,8.44972266 9.94711815,8.61511133 9.90493728,8.84749219 C9.87258784,8.98691797 9.86274235,9.13044531 9.87258784,9.27260547 C9.88524632,9.42296875 9.92603475,9.56923047 9.99351851,9.70455469 C10.0638434,9.85081641 10.1763351,9.99024219 10.3324282,10.1214648 C10.4885073,10.2526875 10.7050657,10.3688711 10.9849025,10.4700293 C11.2517052,10.5669607 11.5234734,10.6504518 11.7991241,10.7201699 C12.0944183,10.7967188 12.3784745,10.8814707 12.6526853,10.9785137 C12.9142517,11.068748 13.1603326,11.1931211 13.38533,11.3503203 C13.5990755,11.5006836 13.7565751,11.7084551 13.8395444,11.9463047 L13.8395444,11.9463047 Z M8.6688508,11.4473633 C8.70120025,11.3885742 8.70401325,11.318875 8.67728979,11.2573516 C8.64802335,11.1879721 8.60715734,11.1237737 8.55634505,11.0673535 C8.5029122,11.0072109 8.43822737,10.9402324 8.36369705,10.8705195 L7.62261339,10.8705195 C7.55792856,10.9306758 7.49746322,10.9962734 7.44543687,11.0673535 C7.40183544,11.1179395 7.366673,11.1739805 7.3413701,11.234123 C7.31464664,11.2942656 7.31745964,11.3503066 7.34980909,11.4008789 C7.4243394,11.5430391 7.48902424,11.6660723 7.54245708,11.7726855 C7.595904,11.8793125 7.65496284,11.9626836 7.71964767,12.0228398 C7.6985502,12.1144141 7.66620076,12.2429023 7.62261339,12.4096719 C7.58041846,12.5764414 7.53964409,12.748666 7.50168271,12.926373 C7.46582597,13.0924717 7.43347442,13.2592671 7.40464844,13.4266543 C7.37792498,13.5838535 7.36386,13.7027852 7.36386,13.7834219 C7.36386,13.8340078 7.38777046,13.8941504 7.43699788,13.9652305 C7.4890383,14.0417793 7.54527008,14.1142266 7.60573542,14.1853066 C7.66480832,14.2563867 7.73230615,14.3192637 7.80683647,14.3753047 C7.87714729,14.4258906 7.93901912,14.4518535 7.99245197,14.4518535 C8.04588482,14.4518535 8.11056965,14.425877 8.18509997,14.375291 C8.26245735,14.3233652 8.3355671,14.2645898 8.40306493,14.2016992 C8.47057682,14.1388223 8.52963566,14.066375 8.58025551,13.9898262 C8.62807643,13.913291 8.65337933,13.8504004 8.65337933,13.7998281 C8.65337933,13.7396855 8.63790785,13.635793 8.60555841,13.4881777 C8.57322302,13.341916 8.53807464,13.1765137 8.5015057,12.9947188 C8.46353026,12.8129102 8.42416239,12.6352168 8.38057503,12.4643457 C8.3369736,12.2921211 8.30040466,12.1554297 8.26806927,12.0542715 C8.33276817,12.0036855 8.39464,11.9298848 8.45369884,11.8341953 C8.51135119,11.7371523 8.584475,11.6072832 8.6688508,11.4473633 L8.6688508,11.4473633 Z" id="人员" fill="#198EEB" fill-rule="nonzero"></path>
            </g>
        </g>
    </g>
</svg>