<?xml version="1.0" encoding="UTF-8"?>
<svg width="16px" height="16px" viewBox="0 0 16 16" version="1.1" xmlns="http://www.w3.org/2000/svg" xmlns:xlink="http://www.w3.org/1999/xlink">
    <title>用户管理</title>
    <g id="平台icon231127" stroke="none" stroke-width="1" fill="none" fill-rule="evenodd">
        <g id="平台icon231128" transform="translate(-808, -88)">
            <g id="用户管理" transform="translate(808.0002, 88)">
                <rect id="_mockplus_fix_" x="0" y="0" width="16" height="16"></rect>
                <path d="M5.1191706,0.00214173405 C5.36369701,0.00225551757 5.60733009,0.0316498884 5.84486682,0.0896971005 C6.07852015,0.145135467 6.30599044,0.223984339 6.52382848,0.325048099 C6.72365863,0.416633798 6.91307373,0.529418006 7.08881472,0.661460175 C7.23275016,0.769581056 7.3617217,0.896300684 7.47236093,1.03830947 C7.68878686,1.32274222 7.85209862,1.64390254 7.95444289,1.98634645 C7.99356108,2.12009746 8.02865973,2.25499143 8.05969153,2.39084648 C7.67171801,2.54748077 7.57613913,2.62931419 7.31280174,2.81737122 C7.09314614,3.01957329 6.95313427,3.14846093 6.77367614,3.42957151 C6.63857108,3.59854474 6.45190457,4.01794102 6.37457838,4.31746412 C6.33979918,4.44961231 6.21655357,4.9538788 6.19305843,5.24528249 C6.17637208,5.38865081 6.12449097,5.74659211 6.14127322,6.26738511 C6.06835836,6.36395494 6.01884275,6.44930464 5.97538473,6.54987024 C5.93889534,6.65724464 5.9246544,6.74438444 5.90795207,6.8728725 C5.89428653,7.03040183 5.9149207,7.09497352 5.96499572,7.2875218 C6.02996698,7.48539245 6.02072876,7.4630481 6.11531668,7.63743959 C6.25230774,7.84112809 6.36433322,7.88006289 6.45746669,7.91992472 C6.49806373,8.06609008 6.58186308,8.35012557 6.58186308,8.35012557 C6.58186308,8.35012557 6.65960482,8.54251402 6.72179503,8.69317063 C6.81238718,8.88694961 6.89805654,8.95545313 6.89805654,8.95545313 C6.89805654,8.95545313 7.10591663,9.1435741 7.29192783,9.32549363 C7.34577486,9.39022514 7.4875129,9.54922492 7.49404998,9.81641423 C7.51476407,10.0271353 7.50960153,9.99146103 7.50960153,10.2067692 C7.51041667,10.3753429 7.49355451,10.3961209 7.44216887,10.5431813 C7.39102298,10.6517065 7.35443769,10.741052 7.24004672,10.8660877 C7.14470759,10.9737817 7.02523399,11.0839372 6.83570651,11.2025157 C6.6690828,11.3138859 6.42866516,11.4519478 6.05296665,11.5524335 C5.75999661,11.6277139 5.54470439,11.7052958 5.19771151,11.8281418 C4.7941225,12.0017022 4.76269975,12.0382715 4.53340634,12.197511 C4.11432973,12.531158 4.10123957,13.0343537 4.10402063,13.0026912 C4.10680169,12.9710287 4.05958764,13.3065297 4.04616185,13.4348419 C3.78321448,13.4180092 3.52050812,13.3976022 3.2581156,13.3736267 C2.91380701,13.3423192 2.56993678,13.3063646 2.22659894,13.2657728 C1.91478383,13.2295184 1.60372759,13.1870108 1.29361804,13.1382757 C1.01375413,13.0936829 0.780432988,13.0485946 0.583473372,13.0035063 C0.454425981,12.9844395 0.330811129,12.9385229 0.220609282,12.8687209 C0.0912126858,12.673434 0.022667024,12.4441456 0.0236496651,12.2098819 C-0.0212974109,11.7341574 -0.00211656839,11.2545504 0.0806773298,10.7839346 C0.10224285,10.4919445 0.235966733,10.2196283 0.453834529,10.0240346 C0.668412109,9.84549096 0.91212878,9.7052256 1.17430427,9.60938527 C1.45481256,9.50384787 1.74022619,9.41183918 2.02955941,9.33367697 C2.3077433,9.26033121 2.57211584,9.14214311 2.81228329,8.98375918 C2.96238923,8.89144637 3.09853907,8.77816488 3.21660752,8.64734711 C3.30218855,8.55223467 3.37058106,8.44296673 3.41872967,8.32442476 C3.46428196,8.21817299 3.48725068,8.10361242 3.48617831,7.98801268 C3.48560748,7.8577565 3.48041504,7.72756159 3.47061078,7.59767366 C3.46496437,7.4149445 3.39313655,7.24048684 3.26848863,7.10675306 C3.14202687,6.97836022 3.01063789,6.85491547 2.87461734,6.73669658 C2.79960185,6.66136954 2.73976271,6.57232707 2.69835583,6.47441407 C2.65086822,6.360417 2.60422296,6.24607086 2.55842387,6.13138499 C2.51457917,5.98868341 2.47310799,5.84526334 2.43402749,5.70118415 C2.37015021,5.6804703 2.31048614,5.64851378 2.25784589,5.60681998 C2.19527207,5.55093108 2.13958791,5.48777801 2.09197338,5.41869902 C2.02234907,5.31144004 1.97150926,5.19310208 1.94163644,5.06876525 C1.8918131,4.93656402 1.87232409,4.79485903 1.88460877,4.65411595 C1.89337161,4.54404179 1.91602364,4.43551825 1.95202544,4.33112966 C1.98943712,4.22754303 2.04567856,4.13176624 2.11791393,4.04862855 C2.10925119,3.70711299 2.12656281,3.36543301 2.16969914,3.02654192 C2.20679304,2.71314005 2.26747179,2.40298224 2.3512191,2.09870757 C2.43314897,1.78232671 2.56809121,1.482114 2.75031685,1.21081496 C2.89511702,0.978479457 3.07726764,0.771633462 3.28942647,0.598614666 C3.47432065,0.448974114 3.67826145,0.324540398 3.89590482,0.228574169 C4.09457349,0.141589365 4.3036386,0.0806109218 4.51791873,0.0471501152 C4.71687526,0.0162384751 4.91789153,0.000476473968 5.11923454,0 L5.11923454,0.00214173405 L5.1191706,0.00214173405 Z M10.5541244,2.5275978 C10.7986562,2.52771031 11.0422947,2.55710469 11.2798366,2.61515317 C11.51349,2.67059153 11.7409602,2.74944041 11.9587983,2.85050417 C12.1586291,2.94209492 12.3480443,3.0548845 12.5237845,3.18693223 C12.6677189,3.29504818 12.7966904,3.42176239 12.9073307,3.56376554 C13.1237584,3.84820311 13.2870702,4.16936898 13.3894127,4.5118185 C13.4842159,4.83569342 13.5552471,5.16605761 13.6019398,5.50027671 C13.6478545,5.8612647 13.6703525,6.22484639 13.6692926,6.58874111 C13.7282516,6.63593279 13.7760607,6.69556322 13.8093044,6.76337235 C13.8450869,6.84055133 13.8711986,6.92185494 13.8870462,7.00543625 C13.90939,7.12510592 13.9128953,7.24753229 13.8974352,7.36828436 C13.8849817,7.52319524 13.8482517,7.67518522 13.7885904,7.81868783 C13.7420017,7.91622669 13.6788795,8.00496433 13.6020197,8.08097033 C13.5350982,8.1480821 13.4534461,8.19866042 13.363552,8.22868605 C13.3244878,8.37276822 13.2830219,8.51618847 13.2391716,8.6588869 C13.1924371,8.77549952 13.1457984,8.88957083 13.0939972,9.00193196 C13.0474237,9.09950398 12.9842637,9.18824928 12.9073307,9.26421446 C12.7737796,9.37596206 12.6424684,9.49035976 12.5134754,9.60733943 C12.3971354,9.74099167 12.3263408,9.90819612 12.3113373,10.0847543 C12.2871284,10.2199786 12.2784253,10.3575233 12.2853967,10.4947206 C12.2974225,10.638228 12.33425,10.7785619 12.3942416,10.9094818 C12.4649803,11.0588431 12.5634815,11.1933873 12.6844945,11.3059423 C12.8478773,11.4502213 13.0357202,11.5641536 13.2391716,11.6423704 C13.4636376,11.7374709 13.6938782,11.8183193 13.9285223,11.8844343 C14.174531,11.9548957 14.4167547,12.0379576 14.6542345,12.133291 C14.8785779,12.2201341 15.0896797,12.3379131 15.281411,12.4832088 C15.4670632,12.628266 15.6029476,12.8275258 15.6701996,13.0533256 C15.7171052,13.2272751 15.7483226,13.4050793 15.7634769,13.5846035 C15.7842753,13.7969796 15.7946264,14.0102473 15.7946264,14.2236394 C15.795593,14.4263769 15.7799946,14.6288567 15.7479414,14.8290469 C15.7321637,14.9793107 15.6882162,15.1252566 15.6183984,15.2592477 C15.5174005,15.3546424 15.391704,15.4198437 15.2555503,15.4474646 C15.0153718,15.5209412 14.7714293,15.5814973 14.5247715,15.6288727 C14.2292761,15.6869872 13.907984,15.7387084 13.545056,15.7843721 C13.1864756,15.8295121 12.8270552,15.8677082 12.4669966,15.8989389 C12.1183969,15.9292314 11.7693348,15.9539445 11.4199444,15.9730685 C11.0881834,15.9911614 10.7979145,16 10.5543002,16 C10.31067,16 10.0255796,15.9911614 9.6990451,15.9730685 C9.37246262,15.9549117 9.04070162,15.9305215 8.69348498,15.8989389 C8.34917631,15.8676261 8.00530609,15.8316662 7.66196832,15.791069 C7.35015321,15.7548146 7.03909697,15.7123071 6.72898742,15.6635719 C6.44912351,15.6189791 6.21581835,15.5738908 6.01884275,15.5288025 C5.8898009,15.5097336 5.7661917,15.4638171 5.65599464,15.3940171 C5.52659544,15.1987366 5.45804431,14.9694541 5.45901904,14.7351942 C5.4140758,14.2594637 5.43326203,13.7798511 5.51606269,13.3092308 C5.53762821,13.0172408 5.6713521,12.7449245 5.88921989,12.5493308 C6.10379265,12.3707888 6.34750379,12.2305235 6.60967365,12.1346815 C6.89018194,12.0291441 7.17559557,11.9371354 7.46492879,11.8589732 C7.74311268,11.7856275 8.00748521,11.6674393 8.24765267,11.5090554 C8.39776425,11.4167438 8.53391954,11.3034623 8.65199288,11.1726433 C8.7375796,11.0775321 8.80597756,10.9682641 8.85413102,10.849721 C8.89967234,10.7434669 8.92263016,10.6289064 8.92154769,10.5133089 C8.9209875,10.3830531 8.91580572,10.2528582 8.90601213,10.1229699 C8.90036134,9.94023863 8.82852774,9.76578071 8.70387399,9.63204929 C8.57741745,9.50365677 8.44603381,9.38021202 8.31001869,9.26199281 C8.23499747,9.18666717 8.17515284,9.09762461 8.13374119,8.99971031 C8.08625358,8.88571324 8.03960833,8.7713671 7.99380924,8.65668123 C7.94996988,8.51397955 7.90850403,8.37055948 7.86942883,8.22648038 C7.80554594,8.20576828 7.74587632,8.17381169 7.69323125,8.13211622 C7.63065744,8.07622732 7.57497327,8.01307425 7.52735874,7.94399525 C7.45774005,7.83673519 7.40690566,7.71839729 7.37703778,7.59406148 C7.32720902,7.46186149 7.30771454,7.32015647 7.31999413,7.17941218 C7.32876214,7.06933733 7.35141955,6.96081378 7.38742679,6.8564259 C7.42483365,6.75284047 7.48106962,6.65706375 7.5532993,6.57392479 C7.54464185,6.23240883 7.56195881,5.89072884 7.60510049,5.55183816 C7.64218993,5.23844208 7.70286333,4.92828965 7.78660446,4.62401979 C7.86853264,4.30763336 8.00347494,4.00741512 8.18570221,3.73611119 C8.3305072,3.50377446 8.51266329,3.29692839 8.72482782,3.1239109 C8.90971705,2.97427156 9.1136524,2.84983788 9.33129018,2.75387041 C9.52995885,2.6668856 9.73902397,2.60590716 9.95330409,2.57244635 C10.1522606,2.54153471 10.3532769,2.52577271 10.5546199,2.52529624 L10.5546199,2.5275978 L10.5541244,2.5275978 Z" id="形状" fill="#666666" fill-rule="nonzero"></path>
            </g>
        </g>
    </g>
</svg>