<?xml version="1.0" encoding="UTF-8"?>
<svg width="16px" height="16px" viewBox="0 0 16 16" version="1.1" xmlns="http://www.w3.org/2000/svg" xmlns:xlink="http://www.w3.org/1999/xlink">
    <title>15-图标/4操作/看见</title>
    <g id="平台icon231127" stroke="none" stroke-width="1" fill="none" fill-rule="evenodd">
        <g id="平台icon231128" transform="translate(-1000, -280)">
            <g id="15-图标/4操作/看见" transform="translate(1000, 280)">
                <rect id="_mockplus_fix_" x="0" y="0" width="16" height="16"></rect>
                <rect id="_mockplus_fix_" x="0" y="0" width="16" height="16"></rect>
                <path d="M8.00029502,5.82833993 C6.76431194,5.82833993 5.81896458,6.76899962 5.81896458,8.00029502 C5.81896458,9.23159043 6.76431194,10.1722501 8.00029502,10.1722501 C9.2362781,10.1722501 10.1816255,9.23159043 10.1816255,8.00029502 C10.1816255,6.76899962 9.2362781,5.82833993 8.00029502,5.82833993 Z M8.00029502,11.6191785 C5.96428244,11.6191785 4.36422344,10.0269323 4.36422344,8.00029502 C4.36422344,5.97365779 5.96428244,4.38141157 8.00029502,4.38141157 C10.0363076,4.38141157 11.6363666,5.97365779 11.6363666,8.00029502 C11.6363666,10.0269323 10.0363076,11.6191785 8.00029502,11.6191785 Z M8.00029502,2.57196984 C4.36422344,2.57196984 1.23598308,4.81580259 0,8.00029502 C1.23598308,11.1847875 4.36266088,13.4286202 8.00029502,13.4286202 C11.6379292,13.4286202 14.764607,11.1847875 16.00059,8.00029502 C14.764607,4.81580259 11.6363666,2.57196984 8.00029502,2.57196984 Z" id="看见" fill="#3B8FD9" fill-rule="nonzero"></path>
            </g>
        </g>
    </g>
</svg>