<?xml version="1.0" encoding="UTF-8"?>
<svg width="16px" height="16px" viewBox="0 0 16 16" version="1.1" xmlns="http://www.w3.org/2000/svg" xmlns:xlink="http://www.w3.org/1999/xlink">
    <title>wowjoy</title>
    <g id="平台icon231127" stroke="none" stroke-width="1" fill="none" fill-rule="evenodd">
        <g id="平台icon231128" transform="translate(-40, -40)">
            <g id="wowjoy" transform="translate(40, 40)">
                <rect id="_mockplus_fix_" x="1.0658141e-13" y="0" width="16" height="16"></rect>
                <path d="M8,12 L10,14 L8,16 L6,14 L8,12 Z M5,9 L7,11 L5,13 L3,11 L5,9 Z M11,9 L13,11 L11,13 L9,11 L11,9 Z M2,6 L4,8 L2,10 L-3.10862447e-15,8 L2,6 Z M8,6 L10,8 L8,10 L6,8 L8,6 Z M14,6 L16,8 L14,10 L12,8 L14,6 Z M11,3 L13,5 L11,7 L9,5 L11,3 Z M5,3 L7,5 L5,7 L3,5 L5,3 Z M8,3.52951785e-14 L10,2 L8,4 L6,2 L8,3.52951785e-14 Z" id="魔方" fill="#198EEB"></path>
            </g>
        </g>
    </g>
</svg>