<?xml version="1.0" encoding="UTF-8"?>
<svg width="16px" height="16px" viewBox="0 0 16 16" version="1.1" xmlns="http://www.w3.org/2000/svg" xmlns:xlink="http://www.w3.org/1999/xlink">
    <title>15-图标/6标签/1是</title>
    <g id="平台icon231127" stroke="none" stroke-width="1" fill="none" fill-rule="evenodd">
        <g id="平台icon231128" transform="translate(-40, -424)">
            <g id="15-图标/6标签/1是" transform="translate(40, 424)">
                <rect id="_mockplus_fix_" x="0" y="0" width="16" height="16"></rect>
                <rect id="_mockplus_fix_" x="0" y="0" width="16" height="16"></rect>
                <g id="是">
                    <rect id="矩形" fill="#4ACFB1" x="0" y="0" width="16" height="16" rx="2"></rect>
                    <g transform="translate(2.552, 2.496)" fill="#FFFFFF" fill-rule="nonzero" id="形状">
                        <path d="M1.716,0 L1.716,4.38 L9.228,4.38 L9.228,0 L1.716,0 Z M7.992,3.324 L2.964,3.324 L2.964,2.676 L7.992,2.676 L7.992,3.324 Z M2.964,1.692 L2.964,1.056 L7.992,1.056 L7.992,1.692 L2.964,1.692 Z M4.956,6.144 L4.956,9.228 C4.812,9.192 4.68,9.156 4.56,9.12 C3.972,8.928 3.444,8.484 2.988,7.776 C3.132,7.404 3.264,7.008 3.372,6.588 L2.184,6.384 C1.8,7.776 1.08,8.88 0,9.72 L0.816,10.764 C1.5,10.224 2.076,9.552 2.532,8.748 C2.988,9.42 3.492,9.888 4.068,10.128 C4.812,10.416 6.168,10.572 8.16,10.584 C8.832,10.596 9.588,10.608 10.428,10.608 L10.776,9.432 C10.044,9.456 9.144,9.48 8.076,9.48 C7.38,9.48 6.756,9.456 6.216,9.408 L6.216,8.256 L9.528,8.256 L9.528,7.152 L6.216,7.152 L6.216,6.144 L10.812,6.144 L10.812,5.016 L0.096,5.016 L0.096,6.144 L4.956,6.144 Z"></path>
                    </g>
                </g>
            </g>
        </g>
    </g>
</svg>