<?xml version="1.0" encoding="UTF-8"?><svg version="1.1" width="100px" height="100px" viewBox="0 0 100.0 100.0" xmlns="http://www.w3.org/2000/svg" xmlns:xlink="http://www.w3.org/1999/xlink"><defs><clipPath id="i0"><path d="M1280,0 L1280,2420 L0,2420 L0,0 L1280,0 Z"></path></clipPath><clipPath id="i1"><path d="M31.0042888,0 C31.9391689,0 32.8107358,0.476435105 33.3210231,1.26642443 L61.5273598,44.4423676 C62.7613992,46.3306853 61.4351949,48.8588785 59.2115957,48.8588785 L43.398041,48.8588785 L43.398041,97.1626315 C43.398041,98.7280762 41.5489223,100 39.2661435,100 L22.7385535,100 C20.4538344,100 18.6037455,98.7359034 18.6037455,97.1626315 L18.6037455,48.8588785 L2.79019088,48.8588785 C0.562711032,48.8588785 -0.760582745,46.3306853 0.472486456,44.4423676 L28.6875546,1.26642443 C29.1978419,0.476435105 30.0694087,0 31.0042888,0 Z"></path></clipPath></defs><g transform="translate(-965.0 -460.0)"><g clip-path="url(#i0)"><g transform="translate(965.0 460.0)"><g transform="translate(19.0 0.0)"><g clip-path="url(#i1)"><polygon points="4.99600361e-16,0 62,0 62,100 4.99600361e-16,100 4.99600361e-16,0" stroke="none" fill="currentColor"></polygon></g></g></g></g></g></svg>