<?xml version="1.0" encoding="UTF-8"?>
<svg width="16px" height="16px" viewBox="0 0 16 16" version="1.1" xmlns="http://www.w3.org/2000/svg" xmlns:xlink="http://www.w3.org/1999/xlink">
    <title>箭头备份</title>
    <g id="03-开发平台" stroke="none" stroke-width="1" fill="none" fill-rule="evenodd">
        <g id="02-添加自定义查询" transform="translate(-1138.000000, -691.000000)">
            <g id="编组-2" transform="translate(222.000000, 586.000000)">
                <g id="编组-11备份-7" transform="translate(916.000000, 32.000000)">
                    <g id="箭头备份" transform="translate(0.000000, 73.000000)">
                        <rect id="矩形" x="0" y="0" width="16" height="16"></rect>
                        <path d="M3.45003079,7.81742056 L6.00060412,7.81742056 L6.00060412,15.546021 C6.00060412,15.7977445 6.29900555,16 6.66750863,16 L9.33324896,16 C9.70143908,16 9.99968404,15.7964922 9.99968404,15.546021 L9.99968404,7.81742056 L12.5502574,7.81742056 C12.9089024,7.81742056 13.1228063,7.41290965 12.9237677,7.11077882 L8.37435857,0.202627909 C8.29205416,0.0762296168 8.15147886,0 8.00069175,0 C7.84990464,0 7.70932934,0.0762296168 7.62702493,0.202627909 L3.07620749,7.11077882 C2.87732536,7.41290965 3.09075984,7.81742056 3.45003079,7.81742056 Z" id="路径" fill="currentColor" fill-rule="nonzero"></path>
                    </g>
                </g>
            </g>
        </g>
    </g>
</svg>