<?xml version="1.0" encoding="UTF-8"?>
<svg width="40px" height="40px" viewBox="0 0 40 40" version="1.1" xmlns="http://www.w3.org/2000/svg" xmlns:xlink="http://www.w3.org/1999/xlink">
    <g id="医疗信息平台" stroke="none" stroke-width="1" fill-rule="evenodd">
        <g id="06-图例" transform="translate(-1240.000000, 0.000000)">
            <g id="编组-16" transform="translate(1240.000000, 0.000000)">
                <path d="M40,40 C40,29.6820985 40,16.3487651 40,0 C19.4714693,0 6.13813594,0 0,0 C0,22.09139 17.90861,40 40,40 Z" id="椭圆形" opacity="0.600000024"></path>
                <path d="M31.6041896,8.39680679 C32.1319368,8.92451541 32.1319368,9.45359113 31.6041896,9.98129973 L26.585,15 L31.6041896,20.0187003 C32.1319368,20.5464089 32.1319368,21.0754846 31.6041896,21.6031932 C31.0764423,22.1309018 30.5473278,22.1309018 30.0195806,21.6031932 L25,16.584 L19.9814449,21.6031932 C19.4536976,22.1322689 18.9245831,22.1322689 18.3968359,21.6031932 C17.8690886,21.0754846 17.8690886,20.5464089 18.3968359,20.0187003 L23.415,15 L18.3968359,9.98129973 C17.8677214,9.45222401 17.8677214,8.92451541 18.3968359,8.39680679 C18.9245831,7.86909818 19.4536976,7.86909818 19.9814449,8.39680679 L25,13.415 L30.0195806,8.39680679 C30.548695,7.86773107 31.0764423,7.86773107 31.6041896,8.39680679 Z" id="形状结合" fill="#FFFFFF" fill-rule="nonzero"></path>
            </g>
        </g>
    </g>
</svg>