<?xml version="1.0" encoding="UTF-8"?>
<svg width="100px" height="100px" viewBox="0 0 100 100" version="1.1" xmlns="http://www.w3.org/2000/svg" xmlns:xlink="http://www.w3.org/1999/xlink">
    <g id="平台icon" stroke="none" stroke-width="1" fill="none" fill-rule="evenodd">
        <g transform="translate(-65.000000, -1160.000000)" fill-rule="nonzero" id="excle">
            <g transform="translate(65.000000, 1160.000000)">
                <rect id="矩形" fill="#000000" opacity="0" x="0" y="0" width="100" height="100"></rect>
                <polygon id="路径" fill="#819292" points="74.1601562 0 17.6855469 0 17.6855469 28.7207031 25.3808594 28.7207031 25.3808594 7.68554688 67.8027344 7.68554688 67.8027344 28.6621094 88.7304688 28.6621094 88.7304688 92.3144531 25.3808594 92.3144531 25.3808594 82.9003906 25.3027344 82.9003906 25.3027344 75.2148438 25.3808594 75.2148438 25.3808594 69.2871094 17.6855469 69.2871094 17.6855469 100 96.4257812 100 96.4257812 21.4746094"></polygon>
                <path d="M66.5332031,39.5703125 L81.0058594,39.5703125 L81.0058594,47.0605469 L66.5332031,47.0605469 L66.5332031,39.5703125 Z M66.5332031,57.4414063 L81.0058594,57.4414063 L81.0058594,64.9316406 L66.5332031,64.9316406 L66.5332031,57.4414063 Z M66.5332031,75.3125 L81.0058594,75.3125 L81.0058594,82.8027344 L66.5332031,82.8027344 L66.5332031,75.3125 Z" id="形状" fill="#819292"></path>
                <polygon id="路径" fill="#50A135" points="58.2324219 38.4960938 50.5371094 38.4960938 50.5371094 75.2148438 25.3027344 75.2148438 25.3027344 82.9003906 58.2421875 82.9003906 58.2421875 38.4960938"></polygon>
                <path d="M44.1699219,69.2871094 L44.1699219,28.7207031 L3.57421875,28.7207031 L3.57421875,69.2871094 L44.1699219,69.2871094 Z M17.9589844,61.4257812 L8.34960937,61.5039062 L18.8671875,49.1210938 L8.359375,36.4941406 L17.5195312,36.5234375 L23.5351562,43.6230469 L29.5507812,36.5234375 L38.7109375,36.4941406 L28.203125,49.1210938 L38.7109375,61.5136719 L29.1015625,61.4257812 L23.5351562,54.7363281 L17.9589844,61.4257812 Z" id="形状" fill="#50A135"></path>
                <polygon id="路径" fill="#FFFFFF" points="29.1113281 61.4355469 38.7207031 61.5136719 28.203125 49.1210937 38.7109375 36.4941406 29.5507812 36.5234375 23.5351562 43.6132812 17.5195312 36.5234375 8.359375 36.4941406 18.8671875 49.1210937 8.359375 61.5136719 17.96875 61.4355469 23.5449219 54.7363281"></polygon>
            </g>
        </g>
    </g>
</svg>