<?xml version="1.0" encoding="UTF-8"?>
<svg width="148px" height="95px" viewBox="0 0 148 95" version="1.1" xmlns="http://www.w3.org/2000/svg" xmlns:xlink="http://www.w3.org/1999/xlink">
    <title>shenfenzhengzhengmian</title>
    <g id="02-控制台" stroke="none" stroke-width="1" fill="none" fill-rule="evenodd">
        <g id="05-个人认证" transform="translate(-425.000000, -375.000000)">
            <g id="编组-6备份-6" transform="translate(234.000000, 322.000000)">
                <g id="编组-5" transform="translate(115.000000, 0.000000)">
                    <g id="shenfenzhengzhengmian" transform="translate(76.000000, 53.000000)">
                        <path d="M146.199687,1.77255487 C147.354847,2.90662904 148.003476,4.45428335 148,6.06813874 L148,88.9284747 C148,92.2798699 145.249113,94.9972907 141.856346,95 L6.14363996,95 C2.75155487,94.9952588 0.00340707161,92.2791926 0,88.9284747 L0,6.06813874 C0.00476985686,2.71809807 2.75291766,0.00406402001 6.14363996,0 L141.859072,0 C143.493787,0 145.035148,0.628555993 146.199687,1.77255487 Z" id="路径" fill="#CCCCCC"></path>
                        <path d="M6.14363996,2.68626396 C4.25339401,2.69032787 2.72157251,4.20346794 2.71952833,6.07084805 L2.71952833,88.931184 C2.71952833,90.7951775 4.25611969,92.3164453 6.14363996,92.3164453 L141.856346,92.3164453 C143.743866,92.3164453 145.283183,90.7978867 145.283183,88.931184 L145.283183,6.06813874 C145.283183,5.16526689 144.926803,4.31387163 144.28014,3.6744785 C143.634436,3.04474568 142.767071,2.69021194 141.862479,2.68626396 L6.14363996,2.68626396 Z" id="路径" fill="#FFFFFF"></path>
                        <path d="M95.2057634,63.877767 C95.3089325,58.9847794 96.2204689,50.6344974 101.149308,46.3861962 L107.935191,46.4474757 L114.290154,56.8049769 L115.487921,49.0599871 L114.621679,47.655559 L114.686474,46.2123622 C115.943953,46.1299251 117.205585,46.1315964 118.462839,46.2173646 L118.533296,47.6605615 L117.66957,49.0643643 L118.87237,56.8718841 L123.808129,46.3980768 L131.314937,46.1454549 C135.194471,49.7690796 137.682481,58.3075774 137.072274,63.877767 L95.2057634,63.877767 L95.2057634,63.877767 Z M126.770466,35.1438927 C126.253362,36.9691491 125.648816,38.6605907 124.782574,40.0787755 C123.793031,41.715816 122.484546,42.975174 120.635051,43.6530014 C119.808441,43.9481439 117.697249,44.0894622 115.665951,44.0544453 C113.707626,44.0300585 111.739236,43.8368401 110.956031,43.4791675 C109.273872,42.7175497 108.091203,41.4306784 107.199797,39.831156 C106.43169,38.464246 105.886907,36.8722273 105.40692,35.1907904 C104.621199,34.7843441 104.031122,34.0921349 103.631657,33.1473036 C103.197592,32.1205578 102.999432,30.7711563 103.024595,29.171634 L103.032144,28.6257454 L103.491372,28.3230993 C103.607123,28.2461871 103.72476,28.1717763 103.843027,28.1054942 C103.325924,21.8205844 103.521568,19.4969625 105.884391,16.84068 C110.491141,13.1151311 121.051502,13.2470698 125.716128,16.6243255 C128.894868,19.5907579 129.115674,22.9142376 128.139343,28.0429641 C128.292209,28.129881 128.442559,28.2218005 128.596055,28.3230993 L129.055283,28.6282467 L129.060945,29.171634 C129.087995,30.7386407 128.897384,32.0661567 128.480933,33.0904012 C128.096565,34.0252276 127.531652,34.7224392 126.770466,35.1438927 L126.770466,35.1438927 Z M126.713219,29.6975129 C126.538653,29.6354843 126.353649,29.6076668 126.168436,29.6155984 L125.231737,29.6750021 L125.05874,28.7645624 C124.86644,27.7426288 124.539657,26.7502985 124.086812,25.8131374 C121.099312,26.3915417 116.65801,26.8974109 113.147745,24.9433424 C111.794595,24.1917295 109.818026,25.7318481 108.196888,25.5730214 C107.684024,26.5809031 107.315585,27.6551683 107.102289,28.7645624 L106.921114,29.7093936 L105.961768,29.6180996 C105.77275,29.6041888 105.582814,29.6269122 105.402516,29.6850069 C105.314378,29.7144252 105.227864,29.7484472 105.143335,29.7869311 C105.165982,30.8330612 105.313816,31.6984791 105.590611,32.3487931 C105.831548,32.9190685 106.16559,33.288622 106.6028,33.4249377 L107.164568,33.5987717 L107.319951,34.156541 C107.79239,35.875496 108.314526,37.5050328 109.058098,38.8262958 C109.745682,40.0518876 110.627023,41.0311104 111.839259,41.5820014 C112.351959,41.8146138 113.983792,41.9440512 115.688598,41.9690633 C117.500976,41.9940753 119.306435,41.902156 119.904061,41.6833003 C121.247146,41.1949395 122.216558,40.2451059 122.96705,39.0051321 C123.770384,37.673239 124.345363,35.9817972 124.849885,34.1265265 L124.995832,33.5937692 L125.528033,33.4099305 C125.949517,33.2636098 126.278525,32.8815504 126.516946,32.3062726 C126.778015,31.6665888 126.921445,30.8130516 126.949124,29.7894323 C126.873042,29.7526768 126.794163,29.7219417 126.713219,29.6975129 L126.713219,29.6975129 Z M28.8306794,36.2336347 L60.1655599,36.2336347 L60.1655599,39.2831598 L28.8306794,39.2831598 L28.8306794,36.2336347 Z M28.8306794,46.4525247 L77.8981661,46.4525247 L77.8981661,49.5020498 L28.8306794,49.5020498 L28.8306794,46.4525247 Z M28.8306794,26.0147448 L60.1655599,26.0147448 L60.1655599,29.0642699 L28.8306794,29.0642699 L28.8306794,26.0147448 Z M28.8306794,15.7958548 L60.1655599,15.7958548 L60.1655599,18.8453799 L28.8306794,18.8453799 L28.8306794,15.7958548 Z M14.5965962,36.2336347 L25.0018071,36.2336347 L25.0018071,39.2831598 L14.5965962,39.2831598 L14.5965962,36.2336347 L14.5965962,36.2336347 Z M14.5965962,46.4525247 L25.0018071,46.4525247 L25.0018071,49.5020498 L14.5965962,49.5020498 L14.5965962,46.4525247 L14.5965962,46.4525247 Z M14.5965962,26.0147448 L25.0018071,26.0147448 L25.0018071,29.0642699 L14.5965962,29.0642699 L14.5965962,26.0147448 L14.5965962,26.0147448 Z M14.5965962,15.7958548 L25.0018071,15.7958548 L25.0018071,18.8453799 L14.5965962,18.8453799 L14.5965962,15.7958548 L14.5965962,15.7958548 Z M42.2245776,74.8438458 L14.5965962,74.8438458 L14.5965962,71.7943207 L42.2245776,71.7943207 L42.2245776,74.8438458 Z M137.164112,74.8438458 L45.4551674,74.8438458 L45.4551674,71.7943207 L137.164112,71.7943207 L137.164112,74.8438458 Z" id="形状" fill="#CCCCCC" fill-rule="nonzero"></path>
                    </g>
                </g>
            </g>
        </g>
    </g>
</svg>