<?xml version="1.0" encoding="UTF-8"?>
<svg width="100px" height="100px" viewBox="0 0 100 100" version="1.1" xmlns="http://www.w3.org/2000/svg" xmlns:xlink="http://www.w3.org/1999/xlink">
    <g id="平台icon" stroke="none" stroke-width="1" fill="none" fill-rule="evenodd">
        <g transform="translate(-965.000000, -1160.000000)" fill-rule="nonzero" id="jpg">
            <g transform="translate(965.000000, 1160.000000)">
                <rect id="矩形" fill="#000000" opacity="0" x="0" y="0" width="100" height="100"></rect>
                <polygon id="路径" fill="#819292" points="74.2578125 0 17.5878906 0 17.5878906 28.1445312 25.3710938 28.1445312 25.3710938 7.41210938 67.9589844 7.41210938 67.9589844 28.515625 89.0722656 28.515625 89.0722656 92.2167969 25.3710938 92.2167969 25.3710938 68.515625 17.5878906 68.515625 17.5878906 100 96.484375 100 96.484375 21.8554688"></polygon>
                <path d="M66.484375,39.6289062 L80.9277344,39.6289062 L80.9277344,47.0410156 L66.484375,47.0410156 L66.484375,39.6289062 L66.484375,39.6289062 Z M66.484375,57.4121094 L80.9277344,57.4121094 L80.9277344,64.8242187 L66.484375,64.8242187 L66.484375,57.4121094 Z M66.484375,75.1855469 L80.9277344,75.1855469 L80.9277344,82.5976562 L66.484375,82.5976562 L66.484375,75.1855469 Z" id="形状" fill="#819292"></path>
                <polygon id="路径" fill="#F7A937" points="25.3710938 82.5878906 58.3300781 82.5878906 58.3300781 38.1445313 50.5566406 38.1445313 50.5566406 74.8144531 25.3710938 74.8144531"></polygon>
                <path d="M44.2578125,68.515625 L44.2578125,27.7734375 L3.52539062,27.7734375 L3.52539062,68.515625 L44.2578125,68.515625 L44.2578125,68.515625 Z M17.2167969,62.5976562 L10.5566406,62.5976562 L10.5566406,33.7011719 L17.2265625,33.7011719 L17.2265625,51.8554688 L23.8964844,45.1855469 L30.5664062,51.8554688 L30.5664062,34.0820312 L37.2363281,34.0820312 L37.2363281,62.5976562 L30.5664062,62.5976562 L23.8964844,55.9277344 L17.2167969,62.5976562 Z" id="形状" fill="#51B9ED"></path>
                <polygon id="路径" fill="#F7A937" points="3.515625 27.7832031 44.2578125 27.7832031 44.2578125 68.5253906 3.515625 68.5253906"></polygon>
                <path d="M35.9863281,35.5664063 L11.796875,35.5664063 C10.2539062,35.5664063 9.00390625,36.8652344 9.00390625,38.4667969 L9.00390625,57.8320312 C9.00390625,59.4335938 10.2539062,60.7324219 11.796875,60.7324219 L35.9863281,60.7324219 C37.5292969,60.7324219 38.7792969,59.4335938 38.7792969,57.8320312 L38.7792969,38.4667969 C38.7695312,36.8652344 37.5195312,35.5664063 35.9863281,35.5664063 Z M36.4453125,54.8632812 L30.6054688,46.7675781 C30.6054688,46.7675781 30.2636719,46.1132812 29.0722656,46.1132812 C27.7246094,46.1132812 27.3144531,46.7480469 27.3144531,46.7480469 L22.1972656,54.9609375 C22.0019531,55.3027344 21.6308594,55.5175781 21.2402344,55.5078125 C20.8203125,55.5078125 20.4296875,55.3027344 20.1855469,54.9609375 L17.5,51.7578125 C17.5,51.7578125 16.8066406,50.8105469 15.9179688,50.8105469 C15.0195312,50.8105469 14.2871094,51.8554688 14.2871094,51.8554688 L11.328125,55.6835938 L11.328125,38.984375 C11.328125,38.4472656 11.7480469,38.0175781 12.2558594,38.0175781 L35.5175781,38.0175781 C36.0351562,38.0175781 36.4453125,38.4472656 36.4453125,38.984375 L36.4453125,54.8632813 L36.4453125,54.8632812 Z M22.4902344,44.2773438 C22.4902344,46.171875 21.015625,47.7050781 19.1992188,47.7050781 C17.3828125,47.7050781 15.9082031,46.171875 15.9082031,44.2773438 C15.9082031,42.3828125 17.3828125,40.8496094 19.1992188,40.8496094 C21.015625,40.8496094 22.4902344,42.3828125 22.4902344,44.2773438 Z" id="形状" fill="#FFFFFF"></path>
            </g>
        </g>
    </g>
</svg>