<?xml version="1.0" encoding="UTF-8"?>
<svg width="100px" height="100px" viewBox="0 0 100 100" version="1.1" xmlns="http://www.w3.org/2000/svg" xmlns:xlink="http://www.w3.org/1999/xlink">
    <title>json</title>
    <g id="v1.3.0_20230720" stroke="none" stroke-width="1" fill="none" fill-rule="evenodd">
        <g id="01-单据打印管理" transform="translate(-603.000000, -201.000000)">
            <g id="json" transform="translate(603.000000, 201.000000)">
                <rect id="矩形" transform="translate(50.000000, 50.000000) scale(-1, 1) translate(-50.000000, -50.000000) " x="0" y="0" width="100" height="100"></rect>
                <g id="编组-9" transform="translate(3.000000, 0.000000)" fill-rule="nonzero">
                    <path d="M70.6125,0 L92.9125,21.475 L92.9125,100 L14.1625,100 L14.1625,68.675 L21.85,68.675 L21.85,92.3125 L85.225,92.3125 L85.225,28.6625 L64.25,28.6625 L64.25,7.6875 L21.8125,7.6875 L21.8125,28.1125 L14.1625,28.1125 L14.1625,0 L70.6125,0 Z M77.45,75.3125 L77.45,82.8125 L62.9875,82.8125 L62.9875,75.3125 L77.45,75.3125 Z M77.45,57.4375 L77.45,64.9375 L62.9875,64.9375 L62.9875,57.5 L77.45,57.4375 Z M77.45,39.575 L77.45,47.075 L62.9875,47.075 L62.9875,39.575 L77.45,39.575 Z" id="形状" fill="#819292"></path>
                    <path d="M54.6875,38.5 L54.6875,82.9 L21.8375,82.9 L21.8375,75.2125 L46.9875,75.2125 L46.9875,38.5 L54.6875,38.5 Z M40.6125,28.1125 L40.6125,68.75 L0,68.75 L0,28.1125 L40.6125,28.1125 Z M13.125,55.75 C12.0841617,55.6999241 11.0546646,55.9846786 10.1875,56.5625 C9.45687922,57.0791199 9.03802638,57.9309442 9.075,58.825 C9.075,60.15 9.9375,61.15 11.575,61.85 C12.2671163,62.0870676 12.9169573,62.4330868 13.5,62.875 C13.7219165,63.0832046 13.8522677,63.370876 13.8625,63.675 C13.8614891,64.0082008 13.6859865,64.3165161 13.4,64.4875 C12.9847877,64.7191046 12.5121421,64.8275095 12.0375,64.8 C10.9841971,64.8064527 9.96372569,64.4337588 9.1625,63.75 L9.1625,63.75 L9.1625,66.0125 C10.0724408,66.4235233 11.0645719,66.6202389 12.0625,66.5875 C13.1290822,66.6550331 14.1892409,66.3790413 15.0875,65.8 L15.0875,65.8 L15.075,65.8 C15.791117,65.2498116 16.1812921,64.3754435 16.1125,63.475 C16.1275379,62.8391034 15.9246437,62.2171885 15.5375,61.7125 C14.9404488,61.0808533 14.204273,60.5972029 13.3875,60.3 C12.7909374,60.0804235 12.2305718,59.7728543 11.725,59.3875 C11.5163807,59.1929429 11.3947578,58.9226697 11.3875,58.6375 C11.3884177,58.2976801 11.5755908,57.985725 11.875,57.825 C12.2816319,57.6076117 12.7393864,57.5039692 13.2,57.525 C14.0887584,57.4983934 14.9633687,57.7520304 15.7,58.25 L15.7,58.25 L15.7,56.15 C14.8724731,55.8638343 14.0003418,55.7283576 13.125,55.75 Z M7.2625,55.975 L5,55.975 L5,62.225 C5,63.85 4.475,64.6625 3.4,64.6625 C2.92212427,64.6670809 2.45619123,64.5132351 2.075,64.225 L2.075,64.225 L2.075,66.325 C2.54182721,66.503072 3.03788411,66.5921078 3.5375,66.5875 C4.56954256,66.6546027 5.57633295,66.2500477 6.275,65.4875 C6.96649195,64.5747329 7.30397284,63.4423958 7.225,62.3 L7.225,62.3 L7.2625,55.975 Z M22.6555384,55.809153 L22.4,55.8125 C20.9853449,55.7663012 19.6191963,56.330976 18.65,57.3625 C17.6696049,58.4585869 17.1540807,59.8930892 17.2125,61.3625 C17.1703718,62.7498623 17.6780533,64.0976892 18.625,65.1125 C19.5729493,66.1061688 20.902834,66.6435879 22.275,66.5875 C23.688411,66.6551984 25.0599885,66.0974235 26.025,65.0625 L26.025,65.0625 L26.0125,65.0625 C26.958874,63.9805917 27.4474679,62.5730827 27.375,61.1375 C27.4291777,59.7347946 26.9412694,58.3650706 26.0125,57.3125 C25.0874185,56.305718 23.7661315,55.7570867 22.4,55.8125 Z M31.6625,55.95 L29.1625,55.95 L29.1625,66.4125 L31.2875,66.4125 L31.2875,60.4625 C31.3207299,59.9088315 31.3207299,59.3536685 31.2875,58.8 L31.2875,58.8 L31.4430041,59.089826 C31.5504372,59.280952 31.6653549,59.4678224 31.7875,59.65 L31.7875,59.65 L36.2125,66.4375 L38.5,66.4375 L38.525,55.95 L36.4125,55.95 L36.4125,61.8875 C36.3759461,62.3701422 36.3759461,62.8548578 36.4125,63.3375 L36.4125,63.3375 L36.3838135,63.2835693 C36.3046875,63.1412109 36.140625,62.8828125 35.9,62.5 L35.9,62.5 L31.6625,55.95 Z M22.4,57.7125 C23.1827889,57.675853 23.9308774,58.0381348 24.3875,58.675 C24.9006443,59.4321173 25.1509673,60.3367936 25.1,61.25 C25.1487367,62.1414265 24.8930936,63.0229543 24.375,63.75 C23.8768992,64.3573638 23.1223048,64.6953109 22.3375,64.6625 C21.5426323,64.6931668 20.7842125,64.3280017 20.3125,63.6875 C19.7988627,62.9583054 19.5436779,62.0783579 19.5875,61.1875 C19.5469995,60.2932572 19.8114439,59.4117759 20.3375,58.6875 C20.827995,58.0494747 21.5956431,57.6865865 22.4,57.7125 Z M30.8208847,31.4202148 L30.6125,31.425 L28.4,31.425 C27.8817396,31.586825 27.5590662,32.1025763 27.6402163,32.639415 C27.7213663,33.1762537 28.1820643,33.5735884 28.725,33.575 L28.725,33.575 L30.5,33.575 C31.1,33.6416667 31.4,34.0916667 31.4,34.925 L31.4,34.925 L31.4,40 C31.5554157,41.1662031 32.3677291,42.1390335 33.4875,42.5 C32.1475085,42.8186739 31.2499561,44.0795213 31.3875,45.45 L31.3875,45.45 L31.3875,50.4125 C31.381415,50.7234427 31.239401,51.0161083 30.998913,51.2133085 C30.7584249,51.4105087 30.4436107,51.4924423 30.1375,51.4375 L30.1375,51.4375 L28.4125,51.4375 C28.1651689,51.4715631 27.941641,51.602874 27.7914664,51.8023247 C27.6412918,52.0017754 27.5768766,52.2528888 27.6125,52.5 C27.5951742,52.7936457 27.7096606,53.0797284 27.9247855,53.2803505 C28.1399104,53.4809726 28.4332754,53.5752457 28.725,53.5375 L28.725,53.5375 L31.15,53.5375 C31.9433922,53.4882171 32.6809708,53.1126402 33.1875,52.5 C33.7368224,51.7754899 34.019384,50.8836547 33.9875,49.975 L33.9875,49.975 L33.9875,45.2125 C34.0201676,44.8472212 34.1592395,44.4995416 34.3875,44.2125 C34.8822659,43.8323327 35.4885451,43.6258463 36.1125,43.625 C36.3701868,43.5972594 36.6053527,43.4654417 36.7634889,43.2601006 C36.9216251,43.0547596 36.9890011,42.7937243 36.95,42.5375 C36.9853041,42.2832348 36.9162065,42.0255048 36.7584422,41.8230014 C36.6006779,41.620498 36.3676773,41.49046 36.1125,41.4625 C35.4747977,41.4835218 34.8531902,41.259922 34.375,40.8375 C34.0629947,40.4361959 33.9155022,39.9311457 33.9625,39.425 L33.9625,39.425 L33.9625,34.475 C33.9020257,33.7514423 33.632797,33.0610011 33.1875,32.4875 C32.5342659,31.7617886 31.5874187,31.3710992 30.6125,31.425 Z M11.9935013,31.3408408 L11.8625,31.35 L9.425,31.35 C8.63564401,31.4011876 7.90265662,31.7767305 7.4,32.3875 C6.82758563,33.1342499 6.53957308,34.060321 6.5875,35 L6.5875,35 L6.5875,39.825 C6.56443254,40.186513 6.42894953,40.5317762 6.2,40.8125 C5.70775578,41.1988251 5.10073557,41.4099626 4.475,41.4125 C4.21731325,41.4402406 3.98214733,41.5720583 3.82401113,41.7773994 C3.66587492,41.9827404 3.59849887,42.2437757 3.6375,42.5 C3.60598277,42.756931 3.68210156,43.0154593 3.84781767,43.2143186 C4.01353379,43.4131779 4.25409756,43.5346687 4.5125,43.55 C5.14851983,43.5255424 5.7699202,43.7445972 6.25,44.1625 C6.56744972,44.56585 6.71539801,45.0769441 6.6625,45.5875 L6.6625,45.5875 L6.6625,50.5375 C6.71237032,51.2537205 6.9782322,51.937988 7.425,52.5 C8.07844533,53.2129786 9.0231933,53.5862693 9.9875,53.5125 L9.9875,53.5125 L12.15,53.5125 C12.6582218,53.4231937 13.0055996,52.9489953 12.9375,52.4375 C12.9761811,52.1343166 12.870453,51.8305391 12.6518904,51.616888 C12.4333277,51.4032369 12.1272262,51.3044392 11.825,51.35 L11.825,51.35 L10.0875,51.35 C9.4875,51.2416667 9.1875,50.7916667 9.1875,50 L9.1875,50 L9.1875,44.9 C9.02424522,43.7331719 8.2086357,42.7622082 7.0875,42.4 C8.43229078,42.0983687 9.34611611,40.8478709 9.225,39.475 L9.225,39.475 L9.225,34.5625 C9.23575578,34.2523554 9.3784997,33.9615798 9.61729363,33.7633809 C9.85608755,33.5651819 10.1681813,33.4784422 10.475,33.525 L10.475,33.525 L12.175,33.525 C12.4223311,33.4909369 12.645859,33.359626 12.7960336,33.1601753 C12.9462082,32.9607246 13.0106234,32.7096112 12.975,32.4625 C13.016961,32.1564939 12.9133269,31.8484807 12.6949231,31.6300769 C12.4765193,31.4116731 12.1685061,31.308039 11.8625,31.35 Z M23.025,45.8125 C22.4804066,45.7816703 21.9470776,45.976019 21.55,46.35 C21.1517176,46.7264452 20.9527837,47.2677305 21.0125,47.8125 C20.9920684,48.3245059 21.1923507,48.8206598 21.5625,49.175 C21.9191323,49.5431524 22.4125203,49.7468447 22.925,49.7375 C23.1369009,49.7461734 23.3486278,49.7165317 23.55,49.65 C23.4555303,50.2142078 23.2237195,50.7465139 22.875,51.2 L22.875,51.2 L22.6375,51.55 L22.5375,51.675 L22.3875,51.825 C22.2300775,51.9994801 22.1635372,52.237659 22.2077342,52.4684658 C22.2519313,52.6992726 22.4017554,52.89602 22.6125,53 C23.15,53.2 23.7125,52.8875 24.3,52.0875 C25.0355895,51.1317553 25.4275247,49.9559495 25.4125,48.75 C25.4377399,47.977359 25.1898916,47.2205365 24.7125,46.6125 C24.3035979,46.0997052 23.6808161,45.8044605 23.025,45.8125 Z M16.2375,45.9875 C15.8153057,45.9714932 15.4032636,46.1192909 15.0875,46.4 L15.0875,46.4 L14.9625,46.525 C14.6178353,46.8481404 14.4269356,47.3026634 14.4375,47.775 C14.4300665,48.2467368 14.6204555,48.700044 14.9625,49.025 L14.9625,49.025 L14.95,49.025 C15.2976138,49.3516849 15.7606904,49.5270246 16.2375,49.5125 C16.7009958,49.5028441 17.1452059,49.32516 17.4875,49.0125 C17.8187273,48.6801829 18.0071042,48.2316664 18.0125,47.7625 C18.0111675,47.2924998 17.8221673,46.8424995 17.4875,46.5125 C17.1559414,46.1801433 16.7069418,45.9915635 16.2375,45.9875 Z M16.225,37.925 C15.7101666,37.9027505 15.2116967,38.1085408 14.8625,38.4875 L14.8625,38.4875 L14.725,38.625 L14.725,38.6375 C14.0932247,39.4144567 14.1526562,40.5436548 14.8625,41.25 C15.2278463,41.6006961 15.7187939,41.7898686 16.225,41.775 C16.7380446,41.7735251 17.232353,41.5820363 17.6125,41.2375 C17.9810159,40.8749656 18.1882326,40.3794474 18.1875,39.8625 C18.1925608,39.3446966 17.984665,38.8475544 17.6125,38.4875 C17.2490387,38.1141787 16.7458196,37.910171 16.225,37.925 Z" id="形状结合" fill="#FF5501"></path>
                </g>
            </g>
        </g>
    </g>
</svg>