<?xml version="1.0" encoding="UTF-8"?>
<svg version="1.1" width="100px" height="100px" viewBox="0 0 100.0 100.0" xmlns="http://www.w3.org/2000/svg" xmlns:xlink="http://www.w3.org/1999/xlink"><defs><clipPath id="i0"><path d="M1280,0 L1280,2420 L0,2420 L0,0 L1280,0 Z"></path></clipPath><clipPath id="i1"><path d="M0,0 L26.5132352,10.1585064 L0,20.611278 L0,0 Z"></path></clipPath><clipPath id="i2"><path d="M31.6843138,0 L31.6843138,20.611278 L25.677451,22.9810421 L0,11.1390647 L0.60588235,10.1585064 L31.6843138,0 Z"></path></clipPath><clipPath id="i3"><path d="M0,0 L5.69607842,15.3988128 L34.3506018,3.57100992 L33.8485294,22.5501433 L0,36.9828282 L0,0 Z"></path></clipPath><clipPath id="i4"><path d="M32.8892158,0 L41.904902,13.8935245 L6.06470592,28.0485637 L0.3686275,13.5093177 L0,12.9701573 L32.8892158,0 Z"></path></clipPath><clipPath id="i5"><path d="M25.5627451,0 L25.5627451,36.6165953 L0,22.0201581 L0,2.85420533 L20.4402725,15.0794738 L25.5627451,0 Z"></path></clipPath><clipPath id="i6"><path d="M7.48284313,0 L33.1602941,11.8419774 L28.0455883,27.0758264 L0,10.5671538 L7.48284313,0 Z"></path></clipPath></defs><g transform="translate(-365.0 -1720.0)"><g clip-path="url(#i0)"><g transform="translate(365.0 1720.0)"><g transform="translate(12.5 19.999951118726134)"><g transform="translate(39.16720591666666 0.0)"><g clip-path="url(#i1)"><polygon points="0,0 26.5132352,0 26.5132352,20.611278 0,20.611278 0,0" stroke="none" fill="#C8C8C8"></polygon></g></g><g transform="translate(7.482892158333357 0.0)"><g clip-path="url(#i2)"><polygon points="0,0 31.6843138,0 31.6843138,22.9810421 0,22.9810421 0,0" stroke="none" fill="#D3D3D3"></polygon></g></g><g transform="translate(33.16014708333336 22.80781738127394)"><g clip-path="url(#i3)"><polygon points="0,0 34.3506018,0 34.3506018,36.9828282 0,36.9828282 0,0" stroke="none" fill="#F3F3F3"></polygon></g></g><g transform="translate(32.79132349999998 10.15835971460729)"><g clip-path="url(#i4)"><polygon points="0,0 41.904902,0 41.904902,28.0485637 0,28.0485637 0,0" stroke="none" fill="#EAEAEA"></polygon></g></g><g transform="translate(7.597500000000025 22.84713229794056)"><g clip-path="url(#i5)"><polygon points="0,0 25.5627451,0 25.5627451,36.6165953 0,36.6165953 0,0" stroke="none" fill="#DDDDDD"></polygon></g></g><g transform="translate(0.0 11.139064714607231)"><g clip-path="url(#i6)"><polygon points="0,0 33.1602941,0 33.1602941,27.0758264 0,27.0758264 0,0" stroke="none" fill="#EAEAEA"></polygon></g></g></g></g></g></g></svg>