<?xml version="1.0" encoding="UTF-8"?>
<svg  height="1em" width="1em" viewBox="0 0 59 60" version="1.1" xmlns="http://www.w3.org/2000/svg" xmlns:xlink="http://www.w3.org/1999/xlink">
    <!-- Generator: Sketch 63. (92452) - https://sketch.com -->
    <title>loading1</title>
    <desc>Created with Sketch.</desc>
    <g id="02-元数据管理" stroke="none" stroke-width="1" fill="currentColor" fill-rule="evenodd">
        <g id="03-loading" transform="translate(-701.000000, -361.000000)" fill="currentColor" fill-rule="nonzero">
            <g id="编组" transform="translate(667.000000, 361.000000)">
                <g id="loading1" transform="translate(34.000000, 0.000000)">
                    <path d="M50,31.5001208 C50,32.6780756 50.48481,33.8486999 51.3181224,34.6819602 C52.1509515,35.5148177 53.3217297,36 54.5,36 C55.6778675,36 56.8491291,35.5148177 57.6818776,34.6819602 C58.51519,33.8487 59,32.6780756 59,31.5001208 C59,30.3219244 58.51519,29.1513 57.6818776,28.3180398 C56.8490485,27.4851823 55.6778675,27 54.5,27 C53.3217297,27 52.1508709,27.4851823 51.3181224,28.3180398 C50.48481,29.1512194 50,30.3219243 50,31.5001208 L50,31.5001208 Z" id="路径" opacity="0.200000003"></path>
                    <path d="M-4.4408921e-15,31.4999625 C-4.4408921e-15,32.9399409 0.592870089,34.3706863 1.61076307,35.3888726 C2.62903141,36.407134 4.06016187,37 5.5,37 C6.93983813,37 8.37104371,36.407134 9.38923693,35.3888726 C10.4073551,34.3707614 11,32.9399409 11,31.4999625 C11,30.0600591 10.4074302,28.6289384 9.38923693,27.6108272 C8.37096859,26.5925658 6.93983813,26 5.5,26 C4.06016187,26 2.62895629,26.5925658 1.61076307,27.6108272 C0.592870089,28.6289384 -4.4408921e-15,30.0600591 -4.4408921e-15,31.4999625 L-4.4408921e-15,31.4999625 Z" id="路径" opacity="0.699999988"></path>
                    <path d="M25,55.5 C25,56.6782703 25.4851823,57.8491291 26.3180398,58.6822804 C27.1513,59.5151901 28.3219244,60 29.5001208,60 C30.6780756,60 31.8491027,59.51519 32.6819602,58.6822804 C33.5148177,57.8490485 34,56.6782703 34,55.5 C34,54.3221325 33.5148177,53.1508709 32.6819602,52.3181224 C31.8491027,51.48481 30.6780756,51 29.5001208,51 C28.3219244,51 27.1513,51.48481 26.3180398,52.3181224 C25.4851823,53.1508709 25,54.322052 25,55.5 L25,55.5 Z" id="路径" opacity="0.5"></path>
                    <path d="M22,7.49984335 C22,9.46347259 22.8083593,11.4148825 24.1967477,12.8032637 C25.5850579,14.1915666 27.5365563,15 29.5001175,15 C31.4634437,15 33.4148637,14.1915666 34.8032523,12.8032637 C36.1916407,11.4148826 37,9.46339428 37,7.49984335 C37,5.53660572 36.1916407,3.58511752 34.8032523,2.19673627 C33.4149421,0.808355094 31.4634437,5.15143483e-14 29.5001175,5.15143483e-14 C27.536478,5.15143483e-14 25.5850579,0.808355094 24.1967477,2.19673627 C22.8083593,3.58511752 22,5.5366058 22,7.49984335 L22,7.49984335 Z" id="路径"></path>
                    <path d="M42,48.4998792 C42,49.6780756 42.4851062,50.8487 43.3179711,51.6819602 C44.1512388,52.5148177 45.3218736,53 46.4998389,53 C47.6780459,53 48.8486807,52.5148177 49.6819484,51.6819602 C50.5148133,50.8487 51,49.6780756 51,48.4998792 C51,47.3219244 50.5148133,46.1513001 49.6819484,45.3180398 C48.8486807,44.4851823 47.6780459,44 46.4998389,44 C45.3219542,44 44.1512388,44.4851823 43.3179711,45.3180398 C42.4851062,46.1513 42,47.3219244 42,48.4998792 L42,48.4998792 Z" id="路径" opacity="0.400000006"></path>
                    <path d="M6,14.5001938 C6,16.2019906 6.70058022,17.8932441 7.90374555,19.0963319 C9.10722096,20.2994973 10.798397,21 12.5001938,21 C14.2019906,21 15.8932441,20.2995748 17.0963319,19.0963319 C18.2994973,17.8932441 19,16.2019906 19,14.5001938 C19,12.7984746 18.2995748,11.107221 17.0963319,9.90374555 C15.8932441,8.70058022 14.2019906,8 12.5001938,8 C10.7984746,8 9.10722103,8.70058022 7.90374555,9.90374555 C6.70050265,11.107221 6,12.7984745 6,14.5001938 L6,14.5001938 Z" id="路径" opacity="0.800000012"></path>
                    <path d="M8,48.4998792 C8,49.6780756 8.48518669,50.8487 9.31805162,51.6819602 C10.1513193,52.5148177 11.3219541,53 12.5001611,53 C13.6781264,53 14.849164,52.5148177 15.6820289,51.6819602 C16.515216,50.8487 17,49.6780756 17,48.4998792 C17,47.3219244 16.515216,46.1513001 15.6820289,45.3180398 C14.849164,44.4851823 13.6781264,44 12.5001611,44 C11.3219541,44 10.1513193,44.4851823 9.31805162,45.3180398 C8.48518669,46.1513 8,47.3219244 8,48.4998792 L8,48.4998792 Z" id="路径" opacity="0.600000024"></path>
                    <path d="M42,14.4999597 C42,15.6783 42.4851062,16.8490677 43.3179711,17.6819699 C44.1512388,18.5151944 45.3218736,19 46.4998389,19 C47.6780459,19 48.8486807,18.5151944 49.6819484,17.6819699 C50.5148133,16.8490677 51,15.6783806 51,14.4999597 C51,13.3217 50.5148133,12.1510128 49.6819484,11.3181106 C48.8486807,10.4848056 47.6780459,10 46.4998389,10 C45.3219542,10 44.1512388,10.4848056 43.3179711,11.3181106 C42.4851062,12.1510127 42,13.3216999 42,14.4999597 L42,14.4999597 Z" id="路径" opacity="0.100000001"></path>
                </g>
            </g>
        </g>
    </g>
</svg>