<?xml version="1.0" encoding="UTF-8"?>
<svg width="100px" height="100px" viewBox="0 0 100 100" version="1.1" xmlns="http://www.w3.org/2000/svg" xmlns:xlink="http://www.w3.org/1999/xlink">
    <g id="平台icon" stroke="none" stroke-width="1" fill="none" fill-rule="evenodd">
        <g transform="translate(-515.000000, -1160.000000)" fill-rule="nonzero" id="png">
            <g transform="translate(515.000000, 1160.000000)">
                <rect id="矩形" fill="#000000" opacity="0" x="0" y="0" width="100" height="100"></rect>
                <polygon id="路径" fill="#819292" points="74.2578125 0 17.5878906 0 17.5878906 28.1445312 25.3710938 28.1445312 25.3710938 7.40234375 67.9589844 7.40234375 67.9589844 28.515625 89.0722656 28.515625 89.0722656 92.2167969 25.3710938 92.2167969 25.3710938 68.515625 17.5878906 68.515625 17.5878906 100 96.484375 100 96.484375 22.2167969"></polygon>
                <path d="M66.484375,39.6289063 L80.9277344,39.6289063 L80.9277344,47.0410156 L66.484375,47.0410156 L66.484375,39.6289063 L66.484375,39.6289063 Z M66.484375,57.7734375 L80.9277344,57.7734375 L80.9277344,65.1855469 L66.484375,65.1855469 L66.484375,57.7734375 Z M66.484375,75.1855469 L80.9277344,75.1855469 L80.9277344,82.5976562 L66.484375,82.5976562 L66.484375,75.1855469 Z" id="形状" fill="#819292"></path>
                <polygon id="路径" fill="#16CFD8" points="25.3710938 82.5878906 58.3300781 82.5878906 58.3300781 38.1542969 50.5566406 38.1542969 50.5566406 74.8144531 25.3710938 74.8144531"></polygon>
                <path d="M44.2578125,68.8867187 L44.2578125,28.1445312 L3.515625,28.1445312 L3.515625,68.8867187 L44.2578125,68.8867187 Z M17.2265625,62.5878906 L10.5566406,62.5878906 L10.5566406,33.7011719 L17.2265625,33.7011719 L17.2265625,51.8554687 L23.8964844,45.1855469 L30.5566406,51.8554687 L30.5566406,34.0820312 L37.2265625,34.0820312 L37.2265625,62.5976562 L30.5566406,62.5976562 L23.8964844,55.9277344 L17.2265625,62.5878906 L17.2265625,62.5878906 Z" id="形状" fill="#51B9ED"></path>
                <polygon id="路径" fill="#16CFD8" points="3.515625 27.7734375 44.2578125 27.7734375 44.2578125 68.8867188 3.515625 68.8867188"></polygon>
                <path d="M21.2988281,35.5566406 L26.8554688,35.5566406 L26.8554688,41.1132812 L21.2988281,41.1132812 L21.2988281,35.5566406 Z M26.8554688,40.7421875 L32.4121094,40.7421875 L32.4121094,46.2988281 L26.8554688,46.2988281 L26.8554688,40.7421875 Z M21.2988281,46.6699219 L26.8554688,46.6699219 L26.8554688,52.2265625 L21.2988281,52.2265625 L21.2988281,46.6699219 L21.2988281,46.6699219 Z M32.4121094,35.5566406 L37.96875,35.5566406 L37.96875,41.1132812 L32.4121094,41.1132812 L32.4121094,35.5566406 Z M32.4121094,46.6699219 L37.96875,46.6699219 L37.96875,52.2265625 L32.4121094,52.2265625 L32.4121094,46.6699219 L32.4121094,46.6699219 Z M10.1855469,35.5566406 L15.7421875,35.5566406 L15.7421875,41.1132812 L10.1855469,41.1132812 L10.1855469,35.5566406 L10.1855469,35.5566406 Z M21.2988281,57.0410156 L26.8554688,57.0410156 L26.8554688,62.5976562 L21.2988281,62.5976562 L21.2988281,57.0410156 Z M32.4121094,57.0410156 L37.96875,57.0410156 L37.96875,62.5976562 L32.4121094,62.5976562 L32.4121094,57.0410156 Z M10.1855469,57.0410156 L15.7421875,57.0410156 L15.7421875,62.5976562 L10.1855469,62.5976562 L10.1855469,57.0410156 Z M15.7421875,40.7421875 L21.2988281,40.7421875 L21.2988281,46.2988281 L15.7421875,46.2988281 L15.7421875,40.7421875 Z M26.8554688,51.484375 L32.4121094,51.484375 L32.4121094,57.0410156 L26.8554688,57.0410156 L26.8554688,51.484375 Z M15.7421875,51.484375 L21.2988281,51.484375 L21.2988281,57.0410156 L15.7421875,57.0410156 L15.7421875,51.484375 Z M10.1855469,46.6699219 L15.7421875,46.6699219 L15.7421875,52.2265625 L10.1855469,52.2265625 L10.1855469,46.6699219 L10.1855469,46.6699219 Z" id="形状" fill="#FFFFFF"></path>
            </g>
        </g>
    </g>
</svg>