<?xml version="1.0" encoding="UTF-8"?>
<svg width="100px" height="100px" viewBox="0 0 100 100" version="1.1" xmlns="http://www.w3.org/2000/svg" xmlns:xlink="http://www.w3.org/1999/xlink">
    <g id="平台icon" stroke="none" stroke-width="1" fill="none" fill-rule="evenodd">
        <g transform="translate(-65.000000, -1300.000000)" fill-rule="nonzero" id="yasuo">
            <g transform="translate(65.000000, 1300.000000)">
                <rect id="矩形" fill="#000000" opacity="0" x="0" y="0" width="100" height="100"></rect>
                <polygon id="路径" fill="#819292" points="74.2587891 0 17.5927734 0 17.5927734 28.1484375 25.3701172 28.1484375 25.3701172 7.40722656 67.9628906 7.40722656 67.9628906 28.5185547 89.0742188 28.5185547 89.0742188 92.2226562 25.3701172 92.2226562 25.3701172 68.5185547 17.5927734 68.5185547 17.5927734 100 96.4814453 100 96.4814453 21.8515625"></polygon>
                <path d="M66.4814453,39.6298828 L80.9257812,39.6298828 L80.9257812,47.0371094 L66.4814453,47.0371094 L66.4814453,39.6298828 Z M66.4814453,57.4033203 L80.9257812,57.4033203 L80.9257812,64.8144531 L66.4814453,64.8144531 L66.4814453,57.4033203 Z M66.4814453,75.1767578 L80.9257812,75.1767578 L80.9257812,82.5839844 L66.4814453,82.5839844 L66.4814453,75.1767578 Z" id="形状" fill="#819292"></path>
                <polygon id="路径" fill="#646D6D" points="25.3701172 82.5927734 58.3330078 82.5927734 58.3330078 38.1484375 50.5556641 38.1484375 50.5556641 74.8144531 25.3701172 74.8144531"></polygon>
                <path d="M44.2587891,68.5185547 L44.2587891,27.7773437 L3.515625,27.7773437 L3.515625,68.5185547 L44.2587891,68.5185547 Z M17.2226562,62.5927734 L10.5556641,62.5927734 L10.5556641,33.7041016 L17.2226562,33.7041016 L17.2226562,51.8554687 L23.8896484,45.1884766 L30.5556641,51.8554687 L30.5556641,34.0820312 L37.2226562,34.0820312 L37.2226562,62.5976562 L30.5556641,62.5976562 L23.8886719,55.9306641 L17.2216797,62.5976562 L17.2226562,62.5927734 Z" id="形状" fill="#51B9ED"></path>
                <polygon id="路径" fill="#646D6D" points="3.51855469 27.7773438 44.2597656 27.7773438 44.2597656 68.8886719 3.51855469 68.8886719"></polygon>
                <path d="M25.7412109,31.8515625 L29.8144531,31.8515625 L29.8144531,34.4443359 L25.7412109,34.4443359 L25.7412109,31.8515625 Z M21.6669922,34.8144531 L25.7412109,34.8144531 L25.7412109,37.4072266 L21.6669922,37.4072266 L21.6669922,34.8144531 Z M25.7412109,37.4072266 L29.8144531,37.4072266 L29.8144531,40 L25.7412109,40 L25.7412109,37.4072266 Z M21.6669922,40 L25.7412109,40 L25.7412109,42.5927734 L21.6669922,42.5927734 L21.6669922,40 Z M25.7412109,42.5927734 L29.8144531,42.5927734 L29.8144531,45.1855469 L25.7412109,45.1855469 L25.7412109,42.5927734 Z M21.6669922,45.5556641 L25.7412109,45.5556641 L25.7412109,48.1445313 L21.6669922,48.1445313 L21.6669922,45.5556641 Z M25.7412109,48.1445312 L25.7412109,50.7373047 L21.6669922,50.7373047 L21.6669922,60.3671875 C21.6669922,61.1083984 22.4082031,61.8486328 23.1484375,61.8486328 L28.7041016,61.8486328 C29.4453125,61.8486328 30.1855469,61.1074219 30.1855469,60.3671875 L30.1855469,48.1445312 L25.7412109,48.1445312 Z M28.3339844,58.8867188 L22.7773438,58.8867188 L22.7773438,56.2958984 L28.3330078,56.2958984 L28.3339844,58.8867188 Z" id="形状" fill="#FFFFFF"></path>
            </g>
        </g>
    </g>
</svg>