<?xml version="1.0" encoding="UTF-8"?>
<svg width="100px" height="100px" viewBox="0 0 100 100" version="1.1" xmlns="http://www.w3.org/2000/svg" xmlns:xlink="http://www.w3.org/1999/xlink">
    <g id="平台icon" stroke="none" stroke-width="1" fill="none" fill-rule="evenodd">
        <g transform="translate(-1115.000000, -1160.000000)" fill-rule="nonzero" id="zip">
            <g transform="translate(1115.000000, 1160.000000)">
                <rect id="矩形" fill="#000000" opacity="0" x="0" y="0" width="100" height="100"></rect>
                <polygon id="路径" fill="#819292" points="74.0625 0 17.3925781 0 17.3925781 28.1445312 25.1757813 28.1445312 25.1757813 7.40234375 67.7636719 7.40234375 67.7636719 28.515625 88.8769531 28.515625 88.8769531 92.2167969 25.1757813 92.2167969 25.1757813 68.515625 17.3925781 68.515625 17.3925781 100 96.2890625 100 96.2890625 22.2167969"></polygon>
                <path d="M66.2890625,39.6289063 L80.7324219,39.6289063 L80.7324219,47.0410156 L66.2890625,47.0410156 L66.2890625,39.6289063 L66.2890625,39.6289063 Z M66.2890625,57.7734375 L80.7324219,57.7734375 L80.7324219,65.1855469 L66.2890625,65.1855469 L66.2890625,57.7734375 Z M66.2890625,75.1855469 L80.7324219,75.1855469 L80.7324219,82.5976562 L66.2890625,82.5976562 L66.2890625,75.1855469 Z" id="形状" fill="#819292"></path>
                <polygon id="路径" fill="#D88316" points="25.1757812 82.5878906 58.1347656 82.5878906 58.1347656 38.1542969 50.3613281 38.1542969 50.3613281 74.8144531 25.1757812 74.8144531"></polygon>
                <path d="M43.3007812,27.96875 L26.640625,27.96875 L26.640625,30.9179687 L23.6132812,30.9179687 L23.6132812,33.9453125 L26.640625,33.9453125 L26.640625,36.9726562 L23.6132812,36.9726562 L23.6132812,40 L26.640625,40 L26.640625,43.0273438 L23.6132812,43.0273438 L23.6132812,46.0546875 L26.640625,46.0546875 L26.640625,49.0820312 L23.6132812,49.0820312 L23.6132812,52.109375 L20.5859375,52.109375 L20.5859375,49.0820312 L23.6132812,49.0820312 L23.6132812,46.0546875 L20.5859375,46.0546875 L20.5859375,43.0273437 L23.6132812,43.0273437 L23.6132812,40 L20.5859375,40 L20.5859375,36.9726562 L23.6132812,36.9726562 L23.6132812,33.9453125 L20.5859375,33.9453125 L20.5859375,30.9179687 L23.6132812,30.9179687 L23.6132812,27.890625 L3.3203125,27.890625 L3.3203125,68.7792969 L43.3007812,68.7792969 L43.3007812,27.96875 Z M19.9023438,65.8203125 L12.4804688,65.8203125 L12.4804688,64.609375 L17.1777344,58.7011719 C17.4804688,58.3203125 17.7832031,58.0175781 18.0078125,57.7148438 L12.9394531,57.7148438 L12.9394531,56.5039062 L19.6777344,56.5039062 L19.6777344,57.7148438 L14.53125,64.0722656 L14.0722656,64.5996094 L19.9023438,64.5996094 L19.9023438,65.8203125 Z M23.3886719,65.8203125 L22.0214844,65.8203125 L22.0214844,56.5039062 L23.3886719,56.5039062 L23.3886719,65.8203125 Z M32.5488281,61.2792969 C32.0214844,61.8066406 31.1132813,62.109375 29.8242188,62.109375 L27.5488281,62.109375 L27.5488281,65.8203125 L26.1816406,65.8203125 L26.1816406,56.5039062 L29.7363281,56.5039062 C30.3417969,56.5039062 30.8007812,56.5039062 31.171875,56.5820312 C31.6308594,56.6601562 32.0019531,56.8066406 32.3046875,57.0410156 C32.6074219,57.265625 32.9101562,57.5683594 33.0664062,57.9492188 C33.2910156,58.3300781 33.3691406,58.7792969 33.3691406,59.2382812 C33.3007813,59.9902344 33.0761719,60.7519531 32.5488281,61.2792969 L32.5488281,61.2792969 Z" id="形状" fill="#D88316"></path>
                <path d="M30.5273438,57.9394531 C30.2929688,57.8710937 29.8925781,57.8710937 29.3359375,57.8710937 L26.9433594,57.8710937 L26.9433594,60.5957031 L29.3359375,60.5957031 C30.1367188,60.5957031 30.6933594,60.46875 31.0058594,60.2050781 C31.328125,59.9414062 31.484375,59.6191406 31.484375,59.1699219 C31.484375,58.8476562 31.40625,58.5839844 31.1621094,58.3300781 C31.0839844,58.1347656 30.8496094,57.9980469 30.5273438,57.9394531 L30.5273438,57.9394531 Z" id="路径" fill="#D88316"></path>
            </g>
        </g>
    </g>
</svg>